<svg width="182" height="37" viewBox="0 0 182 37" fill="none" xmlns="http://www.w3.org/2000/svg">
    <g clip-path="url(#clip0_0_1)">
        <path d="M0.818848 10.7491C0.818848 10.6134 0.845992 10.4912 0.90028 10.3826C0.90028 10.3736 2.09914 9.02092 4.49686 6.32462C6.89458 3.62831 8.10249 2.26659 8.12058 2.23945L7.98486 2.2123C7.88534 2.2123 7.55056 2.2123 6.98054 2.2123H6.81767H6.49194C6.18431 2.2123 5.93097 2.22135 5.73191 2.23945C5.53286 2.25754 5.28404 2.30731 4.98545 2.38874C4.68687 2.47017 4.44257 2.58779 4.25256 2.74161C4.06256 2.89543 3.85898 3.12163 3.64182 3.42021C3.42467 3.71879 3.25276 4.07619 3.12609 4.4924C3.11704 4.51954 3.10799 4.54669 3.09894 4.57383C3.0899 4.60097 3.08085 4.62359 3.0718 4.64169C3.06275 4.65979 3.05823 4.68241 3.05823 4.70955C3.05823 4.73669 3.0537 4.75027 3.04466 4.75027L3.03108 4.77741C3.00394 4.82265 2.91798 4.84527 2.77322 4.84527C2.6194 4.84527 2.52892 4.80003 2.50178 4.70955L2.93608 3.24377C3.06275 2.83661 3.1849 2.42945 3.30252 2.02229C3.37491 1.76895 3.4292 1.63323 3.46539 1.61513C3.49253 1.59704 4.55115 1.58799 6.64124 1.58799H9.77637C9.82161 1.63323 9.84423 1.66942 9.84423 1.69657C9.84423 1.71466 9.81708 1.83229 9.7628 2.04944C4.98545 7.433 2.59226 10.1338 2.58321 10.1519L2.54249 10.1926H3.7504C4.60996 10.1836 5.07593 10.1745 5.14832 10.1655C5.82692 10.0841 6.38337 9.86239 6.81767 9.50047C7.25198 9.13855 7.60937 8.47352 7.88986 7.50538C7.96224 7.27918 8.01201 7.14346 8.03915 7.09822C8.0663 7.05298 8.12511 7.03036 8.21559 7.03036H8.26988C8.45988 7.03036 8.55489 7.08013 8.55489 7.17965C7.822 9.58642 7.42841 10.8034 7.37412 10.8305C7.34698 10.8486 6.2567 10.8577 4.10327 10.8577H1.7146C1.11743 10.8577 0.818848 10.8215 0.818848 10.7491Z" fill="white"/>
        <path d="M14.3745 6.14808C14.3745 6.03046 14.4378 5.93998 14.5645 5.87664H23.2099C23.3456 5.94903 23.4135 6.03951 23.4135 6.14808C23.4135 6.24761 23.3501 6.33357 23.2235 6.40595L18.9076 6.41952H14.5917C14.4469 6.37428 14.3745 6.2838 14.3745 6.14808ZM14.3745 8.78105C14.3745 8.64533 14.4469 8.55485 14.5917 8.50961H23.2235C23.3501 8.60009 23.4135 8.69057 23.4135 8.78105C23.4135 8.89867 23.3456 8.98915 23.2099 9.05249H14.5645C14.4378 8.98915 14.3745 8.89867 14.3745 8.78105Z" fill="white"/>
        <path d="M33.1825 8.72686C33.1825 8.94401 33.1101 9.12497 32.9653 9.26974C32.8205 9.41451 32.6441 9.48689 32.436 9.48689H32.341C32.7572 10.2017 33.3091 10.5591 33.9968 10.5591C34.6301 10.5591 35.0916 10.2876 35.3811 9.74476C35.553 9.44618 35.639 8.86711 35.639 8.00755C35.639 7.0756 35.5168 6.44677 35.2725 6.12104C35.0373 5.82245 34.7749 5.67316 34.4854 5.67316H34.4039C33.6982 5.67316 33.1644 5.98079 32.8024 6.59606C32.7663 6.65939 32.7346 6.69559 32.7074 6.70463C32.6803 6.71368 32.6124 6.72273 32.5039 6.73178C32.35 6.73178 32.2641 6.70463 32.246 6.65035C32.2279 6.61415 32.2188 5.82245 32.2188 4.27525V2.52446C32.2188 2.07206 32.2415 1.84586 32.2867 1.84586C32.3048 1.82776 32.3229 1.81871 32.341 1.81871C32.35 1.81871 32.445 1.85491 32.626 1.92729C32.807 1.99967 33.0558 2.07206 33.3725 2.14444C33.6891 2.21683 34.0285 2.25302 34.3904 2.25302C35.0328 2.25302 35.648 2.12635 36.2362 1.873C36.3085 1.83681 36.3674 1.81871 36.4126 1.81871C36.485 1.81871 36.5212 1.90015 36.5212 2.06301V2.23945C35.7792 3.1171 34.8518 3.55593 33.7389 3.55593C33.4584 3.55593 33.2051 3.52879 32.9789 3.4745L32.8432 3.44735V5.78174C33.0151 5.65507 33.1508 5.55554 33.2503 5.48315C33.3498 5.41077 33.5127 5.33839 33.7389 5.266C33.9651 5.19362 34.1958 5.15743 34.4311 5.15743C35.164 5.15743 35.7838 5.45149 36.2905 6.03961C36.7971 6.62773 37.0505 7.32442 37.0505 8.12969C37.0505 8.96211 36.7609 9.67238 36.1819 10.2605C35.6028 10.8486 34.8971 11.1472 34.0646 11.1562C33.3318 11.1562 32.7436 10.912 32.3003 10.4234C31.8569 9.93477 31.6353 9.38284 31.6353 8.76758C31.6353 8.55043 31.685 8.37851 31.7845 8.25184C31.8841 8.12517 31.9881 8.04374 32.0967 8.00755C32.2053 7.97135 32.3093 7.95326 32.4089 7.95326C32.6351 7.95326 32.8205 8.03017 32.9653 8.18398C33.1101 8.3378 33.1825 8.51876 33.1825 8.72686Z" fill="white"/>
        <path d="M41.5186 7.64111C41.5186 7.64111 41.5186 7.5823 41.5186 7.46468C41.5186 7.34705 41.5819 7.25657 41.7086 7.19324H45.7666V5.15744L45.7802 3.12164C45.8706 3.00401 45.9566 2.9452 46.038 2.9452C46.1557 2.9452 46.2461 3.01306 46.3095 3.14878V7.19324H50.3539C50.4896 7.26562 50.5575 7.3561 50.5575 7.46468C50.5575 7.57325 50.4896 7.66373 50.3539 7.73612H46.3095V11.7806C46.2371 11.9072 46.1557 11.9706 46.0652 11.9706H46.038H46.0109C45.9023 11.9706 45.8209 11.9072 45.7666 11.7806V7.73612H41.7086C41.5819 7.67278 41.5186 7.5823 41.5186 7.46468V7.64111Z" fill="white"/>
        <path d="M56.8304 2.71447C56.8304 2.49731 56.9164 2.30731 57.0883 2.14444C57.2602 1.98158 57.4592 1.89562 57.6854 1.88657C57.8483 1.88657 57.984 1.94086 58.0926 2.04944C58.2012 2.15801 58.26 2.29373 58.269 2.4566C58.269 2.6647 58.1786 2.85471 57.9976 3.02662C57.8166 3.19853 57.6176 3.28901 57.4004 3.29806C57.2647 3.29806 57.138 3.25282 57.0204 3.16234C56.9028 3.07186 56.8394 2.92257 56.8304 2.71447ZM54.6182 6.9625C54.6182 6.89012 54.6589 6.74987 54.7403 6.54177C54.8217 6.33367 54.9303 6.10294 55.066 5.8496C55.2018 5.59625 55.4008 5.36553 55.6632 5.15743C55.9256 4.94932 56.197 4.84979 56.4775 4.85884C56.8304 4.85884 57.1245 4.96289 57.3597 5.171C57.595 5.3791 57.7171 5.65959 57.7262 6.01246C57.7262 6.16628 57.6628 6.41962 57.5361 6.77249C57.4095 7.12537 57.2285 7.60039 56.9933 8.19755C56.758 8.79472 56.568 9.30593 56.4232 9.73119C56.378 9.93025 56.3554 10.075 56.3554 10.1655C56.3554 10.3917 56.4323 10.5048 56.5861 10.5048C56.6675 10.5048 56.7535 10.4912 56.844 10.4641C56.9345 10.4369 57.0385 10.3736 57.1561 10.2741C57.2738 10.1745 57.3959 10.0162 57.5226 9.79905C57.6492 9.5819 57.7623 9.31498 57.8619 8.9983C57.889 8.88973 57.9116 8.82639 57.9297 8.80829C57.9478 8.7902 58.0247 8.78115 58.1605 8.78115C58.3414 8.78115 58.4319 8.82639 58.4319 8.91687C58.4319 8.98925 58.3912 9.1295 58.3097 9.3376C58.2283 9.54571 58.1152 9.77643 57.9704 10.0298C57.8257 10.2831 57.6221 10.5093 57.3597 10.7084C57.0973 10.9074 56.8168 11.007 56.5182 11.007C56.2287 11.007 55.9618 10.912 55.7175 10.7219C55.4732 10.5319 55.3465 10.2424 55.3375 9.85334C55.3375 9.69952 55.3601 9.55475 55.4053 9.41903C55.4506 9.28331 55.6451 8.76758 55.9889 7.87183C56.3328 6.95798 56.5318 6.41057 56.5861 6.22961C56.6404 6.04865 56.6721 5.87222 56.6811 5.70031C56.6811 5.48315 56.6042 5.37458 56.4504 5.37458H56.4232C56.1518 5.37458 55.903 5.52387 55.6768 5.82245C55.4506 6.12104 55.2787 6.50105 55.161 6.9625C55.152 6.97155 55.1429 6.98512 55.1339 7.00322C55.1249 7.02131 55.1203 7.03489 55.1203 7.04393C55.1203 7.05298 55.1113 7.06203 55.0932 7.07108C55.0751 7.08013 55.0615 7.08465 55.0525 7.08465C55.0434 7.08465 55.0253 7.08465 54.9982 7.08465C54.971 7.08465 54.9348 7.08465 54.8896 7.08465H54.6996C54.6453 7.03036 54.6182 6.98965 54.6182 6.9625Z" fill="white"/>
        <path d="M63.3179 8.44181C63.2637 8.44181 63.2003 8.40561 63.1279 8.33323C63.0555 8.26085 63.0148 8.19751 63.0058 8.14322C62.9967 8.08893 63.137 7.95321 63.4265 7.73606C63.7161 7.51891 64.0146 7.29271 64.3223 7.05746C64.6299 6.82221 64.8018 6.69102 64.838 6.66387C64.8561 6.64578 64.8787 6.63673 64.9059 6.63673H64.9194C64.9737 6.63673 65.0371 6.71364 65.1094 6.86745C65.1818 7.02127 65.4261 7.55058 65.8423 8.45538C66.0142 8.84444 66.1545 9.1566 66.2631 9.39185L67.4167 11.9027C67.4257 11.9027 67.8962 10.9391 68.8282 9.01183C69.7601 7.08461 70.6921 5.14381 71.624 3.18944C72.5559 1.23507 73.04 0.23527 73.0762 0.190029C73.1305 0.0633574 73.221 2.19345e-05 73.3476 2.19345e-05C73.411 2.19345e-05 73.4653 0.0271654 73.5105 0.0814533C73.5557 0.135741 73.5874 0.190029 73.6055 0.244317V0.325749L70.4432 6.88103L67.2538 13.477C67.2176 13.5404 67.1317 13.572 66.9959 13.572C66.9145 13.572 66.8602 13.5584 66.8331 13.5313C66.815 13.5132 66.3716 12.5541 65.503 10.654L64.2001 7.80392L63.983 7.95321C63.8472 8.06179 63.707 8.17037 63.5622 8.27894C63.4175 8.38752 63.336 8.44181 63.3179 8.44181Z" fill="white"/>
        <path d="M88.1847 10.464C88.1847 10.645 88.0897 10.7355 87.8997 10.7355C87.8544 10.7355 87.7549 10.6631 87.6011 10.5183C87.4473 10.3736 87.022 9.95282 86.3253 9.25613L84.9138 7.84464L83.4888 9.2697C82.5297 10.2107 82.0366 10.6902 82.0094 10.7083C81.9732 10.7264 81.9416 10.7355 81.9144 10.7355C81.842 10.7355 81.7787 10.7083 81.7244 10.654C81.6701 10.5998 81.6384 10.5364 81.6294 10.464C81.6294 10.4007 81.6927 10.3012 81.8194 10.1654C81.9461 10.0297 82.3713 9.59995 83.0952 8.87611L84.5067 7.46462L83.0952 6.05313C82.3623 5.32025 81.937 4.89047 81.8194 4.76379C81.7018 4.63712 81.6384 4.53759 81.6294 4.46521C81.6294 4.38378 81.6565 4.32044 81.7108 4.2752C81.7651 4.22996 81.833 4.20734 81.9144 4.20734C81.9596 4.20734 81.9913 4.21187 82.0094 4.22091C82.0366 4.23901 82.5297 4.71855 83.4888 5.65955L84.9138 7.08461L86.3253 5.67312C87.022 4.97642 87.4473 4.55569 87.6011 4.41092C87.7549 4.26615 87.8544 4.19377 87.8997 4.19377C88.0897 4.19377 88.1847 4.28425 88.1847 4.46521C88.1847 4.52855 88.1394 4.60998 88.049 4.70951C87.9585 4.80903 87.5151 5.25239 86.7189 6.03956L85.3074 7.46462L86.7189 8.88968C87.4789 9.64971 87.9132 10.0885 88.0218 10.2062C88.1304 10.3238 88.1847 10.4097 88.1847 10.464Z" fill="white"/>
        <path d="M96.0998 3.01305L95.9234 3.08091C95.7967 3.12615 95.6157 3.17139 95.3805 3.21663C95.1452 3.26187 94.8829 3.29354 94.5933 3.31163H94.3354V2.68732H94.5933C95.0186 2.66923 95.4122 2.60137 95.7741 2.48374C96.136 2.36612 96.3893 2.25754 96.5341 2.15801C96.6789 2.05849 96.8056 1.95896 96.9141 1.85943C96.9322 1.83229 96.9865 1.81871 97.077 1.81871C97.1584 1.81871 97.2353 1.84586 97.3077 1.90015V5.95817L97.3213 10.0298C97.3846 10.0931 97.4389 10.1338 97.4842 10.1519C97.5294 10.17 97.638 10.1881 97.8099 10.2062C97.9818 10.2243 98.2623 10.2334 98.6513 10.2334H99.0042V10.8577H98.8549C98.6649 10.8305 97.9456 10.817 96.697 10.817C95.4664 10.817 94.7562 10.8305 94.5662 10.8577H94.4033V10.2334H94.7562C94.9552 10.2334 95.1271 10.2334 95.2719 10.2334C95.4167 10.2334 95.5298 10.2288 95.6112 10.2198C95.6926 10.2107 95.765 10.1972 95.8284 10.1791C95.8917 10.161 95.9279 10.1519 95.9369 10.1519C95.946 10.1519 95.9731 10.1293 96.0184 10.0841C96.0636 10.0388 96.0908 10.0207 96.0998 10.0298V3.01305Z" fill="white"/>
        <path d="M103.772 7.64111C103.772 7.64111 103.772 7.5823 103.772 7.46468C103.772 7.34705 103.835 7.25657 103.962 7.19324H108.02V5.15744L108.034 3.12164C108.124 3.00401 108.21 2.9452 108.291 2.9452C108.409 2.9452 108.5 3.01306 108.563 3.14878V7.19324H112.607C112.743 7.26562 112.811 7.3561 112.811 7.46468C112.811 7.57325 112.743 7.66373 112.607 7.73612H108.563V11.7806C108.491 11.9072 108.409 11.9706 108.319 11.9706H108.291H108.264C108.156 11.9706 108.074 11.9072 108.02 11.7806V7.73612H103.962C103.835 7.67278 103.772 7.5823 103.772 7.46468V7.64111Z" fill="white"/>
        <path d="M119.084 2.71447C119.084 2.49731 119.17 2.30731 119.342 2.14444C119.514 1.98158 119.713 1.89562 119.939 1.88657C120.102 1.88657 120.237 1.94086 120.346 2.04944C120.455 2.15801 120.513 2.29373 120.522 2.4566C120.522 2.6647 120.432 2.85471 120.251 3.02662C120.07 3.19853 119.871 3.28901 119.654 3.29806C119.518 3.29806 119.391 3.25282 119.274 3.16234C119.156 3.07186 119.093 2.92257 119.084 2.71447ZM116.872 6.9625C116.872 6.89012 116.912 6.74987 116.994 6.54177C117.075 6.33367 117.184 6.10294 117.319 5.8496C117.455 5.59625 117.654 5.36553 117.917 5.15743C118.179 4.94932 118.45 4.84979 118.731 4.85884C119.084 4.85884 119.378 4.96289 119.613 5.171C119.848 5.3791 119.971 5.65959 119.98 6.01246C119.98 6.16628 119.916 6.41962 119.79 6.77249C119.663 7.12537 119.482 7.60039 119.247 8.19755C119.011 8.79472 118.821 9.30593 118.677 9.73119C118.631 9.93025 118.609 10.075 118.609 10.1655C118.609 10.3917 118.686 10.5048 118.84 10.5048C118.921 10.5048 119.007 10.4912 119.097 10.4641C119.188 10.4369 119.292 10.3736 119.41 10.2741C119.527 10.1745 119.649 10.0162 119.776 9.79905C119.903 9.5819 120.016 9.31498 120.115 8.9983C120.142 8.88973 120.165 8.82639 120.183 8.80829C120.201 8.7902 120.278 8.78115 120.414 8.78115C120.595 8.78115 120.685 8.82639 120.685 8.91687C120.685 8.98925 120.645 9.1295 120.563 9.3376C120.482 9.54571 120.369 9.77643 120.224 10.0298C120.079 10.2831 119.876 10.5093 119.613 10.7084C119.351 10.9074 119.07 11.007 118.772 11.007C118.482 11.007 118.215 10.912 117.971 10.7219C117.727 10.5319 117.6 10.2424 117.591 9.85334C117.591 9.69952 117.614 9.55475 117.659 9.41903C117.704 9.28331 117.899 8.76758 118.242 7.87183C118.586 6.95798 118.785 6.41057 118.84 6.22961C118.894 6.04865 118.925 5.87222 118.935 5.70031C118.935 5.48315 118.858 5.37458 118.704 5.37458H118.677C118.405 5.37458 118.156 5.52387 117.93 5.82245C117.704 6.12104 117.532 6.50105 117.414 6.9625C117.405 6.97155 117.396 6.98512 117.387 7.00322C117.378 7.02131 117.374 7.03489 117.374 7.04393C117.374 7.05298 117.365 7.06203 117.347 7.07108C117.329 7.08013 117.315 7.08465 117.306 7.08465C117.297 7.08465 117.279 7.08465 117.252 7.08465C117.224 7.08465 117.188 7.08465 117.143 7.08465H116.953C116.899 7.03036 116.872 6.98965 116.872 6.9625Z" fill="white"/>
        <path d="M125.571 8.44181C125.517 8.44181 125.454 8.40561 125.381 8.33323C125.309 8.26085 125.268 8.19751 125.259 8.14322C125.25 8.08893 125.39 7.95321 125.68 7.73606C125.969 7.51891 126.268 7.29271 126.576 7.05746C126.883 6.82221 127.055 6.69102 127.091 6.66387C127.11 6.64578 127.132 6.63673 127.159 6.63673H127.173C127.227 6.63673 127.29 6.71364 127.363 6.86745C127.435 7.02127 127.68 7.55058 128.096 8.45538C128.268 8.84444 128.408 9.1566 128.516 9.39185L129.67 11.9027C129.679 11.9027 130.15 10.9391 131.082 9.01183C132.014 7.08461 132.945 5.14381 133.877 3.18944C134.809 1.23507 135.293 0.23527 135.33 0.190029C135.384 0.0633574 135.474 2.19345e-05 135.601 2.19345e-05C135.664 2.19345e-05 135.719 0.0271654 135.764 0.0814533C135.809 0.135741 135.841 0.190029 135.859 0.244317V0.325749L132.697 6.88103L129.507 13.477C129.471 13.5404 129.385 13.572 129.249 13.572C129.168 13.572 129.114 13.5584 129.087 13.5313C129.068 13.5132 128.625 12.5541 127.756 10.654L126.454 7.80392L126.236 7.95321C126.101 8.06179 125.96 8.17037 125.816 8.27894C125.671 8.38752 125.589 8.44181 125.571 8.44181Z" fill="white"/>
        <path d="M137.582 4.57383C137.338 4.57383 137.148 4.49692 137.012 4.34311C136.877 4.18929 136.804 3.99023 136.795 3.74594C136.795 3.2483 137.012 2.80495 137.447 2.41588C137.881 2.02682 138.406 1.83229 139.021 1.83229C139.338 1.83229 139.537 1.83681 139.618 1.84586C140.288 1.95443 140.799 2.19421 141.152 2.56517C141.505 2.93614 141.686 3.33878 141.695 3.77308C141.695 4.24358 141.541 4.7005 141.233 5.14385C140.926 5.58721 140.5 5.90841 139.957 6.10747L139.917 6.13461C139.917 6.14366 139.957 6.15723 140.039 6.17533C140.12 6.19342 140.251 6.23414 140.432 6.29747C140.613 6.36081 140.785 6.45581 140.948 6.58249C141.69 7.06203 142.061 7.69539 142.061 8.48257C142.061 9.19736 141.781 9.82167 141.22 10.3555C140.659 10.8893 139.948 11.1562 139.089 11.1562C138.365 11.1562 137.741 10.9617 137.216 10.5727C136.691 10.1836 136.429 9.69047 136.429 9.09331C136.429 8.83996 136.51 8.63638 136.673 8.48257C136.836 8.32875 137.039 8.24732 137.284 8.23827C137.537 8.23827 137.745 8.3197 137.908 8.48257C138.071 8.64543 138.152 8.84901 138.152 9.09331C138.152 9.19283 138.139 9.28331 138.112 9.36475C138.084 9.44618 138.053 9.51856 138.017 9.5819C137.98 9.64523 137.931 9.69952 137.867 9.74476C137.804 9.79 137.75 9.82619 137.704 9.85334C137.659 9.88048 137.614 9.89858 137.569 9.90763C137.524 9.91667 137.487 9.93025 137.46 9.94834L137.406 9.96191C137.867 10.3691 138.428 10.5727 139.089 10.5727C139.586 10.5727 139.962 10.3329 140.215 9.85334C140.369 9.55475 140.446 9.09783 140.446 8.48257V8.21113C140.446 7.35157 140.156 6.77702 139.577 6.48748C139.442 6.43319 139.166 6.40153 138.75 6.39248L138.179 6.37891L138.139 6.35176C138.121 6.32462 138.112 6.25223 138.112 6.13461C138.112 5.97175 138.148 5.89031 138.22 5.89031C138.474 5.89031 138.736 5.86769 139.007 5.82245C139.315 5.77721 139.596 5.58721 139.849 5.25243C140.102 4.91765 140.229 4.41097 140.229 3.73237V3.62379C140.229 3.10805 140.071 2.75066 139.754 2.5516C139.555 2.42493 139.342 2.36159 139.116 2.36159C138.826 2.36159 138.56 2.41136 138.315 2.51089C138.071 2.61041 137.899 2.71447 137.799 2.82304C137.7 2.93162 137.65 2.98591 137.65 2.98591H137.691C137.718 2.99495 137.754 3.004 137.799 3.01305C137.845 3.0221 137.89 3.04472 137.935 3.08091C137.98 3.1171 138.035 3.14877 138.098 3.17591C138.161 3.20306 138.207 3.25282 138.234 3.32521C138.261 3.39759 138.297 3.46545 138.342 3.52879C138.388 3.59212 138.401 3.6826 138.383 3.80023C138.383 3.99928 138.32 4.17572 138.193 4.32953C138.066 4.48335 137.863 4.56478 137.582 4.57383Z" fill="white"/>
    </g>
    <path d="M15 29.1481C15 29.0305 15.0633 28.94 15.19 28.8766H23.8354C23.9711 28.949 24.039 29.0395 24.039 29.1481C24.039 29.2476 23.9756 29.3336 23.8489 29.406L19.533 29.4195H15.2172C15.0724 29.3743 15 29.2838 15 29.1481ZM15 31.7811C15 31.6453 15.0724 31.5549 15.2172 31.5096H23.8489C23.9756 31.6001 24.039 31.6906 24.039 31.7811C24.039 31.8987 23.9711 31.9892 23.8354 32.0525H15.19C15.0633 31.9892 15 31.8987 15 31.7811Z" fill="white"/>
    <path d="M30.7953 31.7266C30.7953 31.9438 30.7229 32.1247 30.5781 32.2695C30.4333 32.4143 30.2569 32.4866 30.0488 32.4866H29.9538C30.37 33.2014 30.9219 33.5588 31.6096 33.5588C32.2429 33.5588 32.7044 33.2874 32.9939 32.7445C33.1658 32.4459 33.2518 31.8669 33.2518 31.0073C33.2518 30.0754 33.1296 29.4465 32.8853 29.1208C32.6501 28.8222 32.3877 28.6729 32.0982 28.6729H32.0167C31.311 28.6729 30.7772 28.9805 30.4152 29.5958C30.379 29.6591 30.3474 29.6953 30.3202 29.7044C30.2931 29.7134 30.2252 29.7225 30.1167 29.7315C29.9628 29.7315 29.8769 29.7044 29.8588 29.6501C29.8407 29.6139 29.8316 28.8222 29.8316 27.275V25.5242C29.8316 25.0718 29.8543 24.8456 29.8995 24.8456C29.9176 24.8275 29.9357 24.8185 29.9538 24.8185C29.9628 24.8185 30.0578 24.8547 30.2388 24.927C30.4198 24.9994 30.6686 25.0718 30.9853 25.1442C31.3019 25.2166 31.6412 25.2528 32.0032 25.2528C32.6456 25.2528 33.2608 25.1261 33.849 24.8728C33.9213 24.8366 33.9802 24.8185 34.0254 24.8185C34.0978 24.8185 34.134 24.8999 34.134 25.0628V25.2392C33.392 26.1169 32.4646 26.5557 31.3517 26.5557C31.0712 26.5557 30.8179 26.5285 30.5917 26.4743L30.456 26.4471V28.7815C30.6279 28.6548 30.7636 28.5553 30.8631 28.4829C30.9626 28.4105 31.1255 28.3381 31.3517 28.2658C31.5779 28.1934 31.8086 28.1572 32.0439 28.1572C32.7768 28.1572 33.3966 28.4512 33.9032 29.0394C34.4099 29.6275 34.6633 30.3242 34.6633 31.1294C34.6633 31.9619 34.3737 32.6721 33.7947 33.2603C33.2156 33.8484 32.5099 34.147 31.6774 34.156C30.9445 34.156 30.3564 33.9117 29.9131 33.4231C29.4697 32.9345 29.248 32.3826 29.248 31.7673C29.248 31.5502 29.2978 31.3783 29.3973 31.2516C29.4969 31.1249 29.6009 31.0435 29.7095 31.0073C29.8181 30.9711 29.9221 30.953 30.0217 30.953C30.2479 30.953 30.4333 31.0299 30.5781 31.1837C30.7229 31.3376 30.7953 31.5185 30.7953 31.7266Z" fill="white"/>
    <path d="M39.5117 30.6411C39.5117 30.6411 39.5117 30.5823 39.5117 30.4646C39.5117 30.347 39.5751 30.2565 39.7017 30.1932H47.5871C47.7228 30.2656 47.7906 30.3561 47.7906 30.4646C47.7906 30.5732 47.7228 30.6637 47.5871 30.7361H39.7017C39.5751 30.6727 39.5117 30.5823 39.5117 30.4646V30.6411Z" fill="white"/>
    <path d="M53.6712 27.5736C53.4269 27.5736 53.2369 27.4967 53.1012 27.3429C52.9655 27.189 52.8931 26.99 52.884 26.7457C52.884 26.2481 53.1012 25.8047 53.5355 25.4156C53.9698 25.0266 54.4946 24.832 55.1098 24.832C55.4265 24.832 55.6256 24.8366 55.707 24.8456C56.3766 24.9542 56.8878 25.194 57.2406 25.5649C57.5935 25.9359 57.7745 26.3385 57.7835 26.7728C57.7835 27.2433 57.6297 27.7003 57.3221 28.1436C57.0144 28.587 56.5892 28.9082 56.0463 29.1072L56.0056 29.1344C56.0056 29.1434 56.0463 29.157 56.1277 29.1751C56.2092 29.1932 56.3404 29.2339 56.5213 29.2972C56.7023 29.3606 56.8742 29.4556 57.0371 29.5822C57.779 30.0618 58.15 30.6951 58.15 31.4823C58.15 32.1971 57.8695 32.8214 57.3085 33.3553C56.7475 33.8891 56.0373 34.156 55.1777 34.156C54.4539 34.156 53.8295 33.9615 53.3048 33.5724C52.78 33.1833 52.5176 32.6902 52.5176 32.0931C52.5176 31.8397 52.599 31.6361 52.7619 31.4823C52.9247 31.3285 53.1283 31.2471 53.3726 31.238C53.626 31.238 53.8341 31.3195 53.9969 31.4823C54.1598 31.6452 54.2412 31.8488 54.2412 32.0931C54.2412 32.1926 54.2277 32.2831 54.2005 32.3645C54.1734 32.4459 54.1417 32.5183 54.1055 32.5817C54.0693 32.645 54.0195 32.6993 53.9562 32.7445C53.8929 32.7898 53.8386 32.8259 53.7933 32.8531C53.7481 32.8802 53.7029 32.8983 53.6576 32.9074C53.6124 32.9164 53.5762 32.93 53.5491 32.9481L53.4948 32.9617C53.9562 33.3688 54.5172 33.5724 55.1777 33.5724C55.6753 33.5724 56.0508 33.3326 56.3042 32.8531C56.458 32.5545 56.5349 32.0976 56.5349 31.4823V31.2109C56.5349 30.3513 56.2454 29.7768 55.6663 29.4872C55.5306 29.433 55.2546 29.4013 54.8384 29.3922L54.2684 29.3787L54.2277 29.3515C54.2096 29.3244 54.2005 29.252 54.2005 29.1344C54.2005 28.9715 54.2367 28.8901 54.3091 28.8901C54.5624 28.8901 54.8248 28.8674 55.0963 28.8222C55.4039 28.777 55.6844 28.587 55.9377 28.2522C56.1911 27.9174 56.3177 27.4107 56.3177 26.7321V26.6235C56.3177 26.1078 56.1594 25.7504 55.8427 25.5514C55.6437 25.4247 55.431 25.3614 55.2048 25.3614C54.9153 25.3614 54.6484 25.4111 54.4041 25.5106C54.1598 25.6102 53.9879 25.7142 53.8884 25.8228C53.7888 25.9314 53.7391 25.9857 53.7391 25.9857H53.7798C53.8069 25.9947 53.8431 26.0038 53.8884 26.0128C53.9336 26.0219 53.9788 26.0445 54.0241 26.0807C54.0693 26.1169 54.1236 26.1485 54.1869 26.1757C54.2503 26.2028 54.2955 26.2526 54.3227 26.325C54.3498 26.3973 54.386 26.4652 54.4312 26.5285C54.4765 26.5919 54.49 26.6824 54.4719 26.8C54.4719 26.999 54.4086 27.1755 54.2819 27.3293C54.1553 27.4831 53.9517 27.5645 53.6712 27.5736Z" fill="white"/>
    <path d="M62.5078 30.641C62.5078 30.641 62.5078 30.5822 62.5078 30.4646C62.5078 30.3469 62.5711 30.2565 62.6978 30.1931H66.7558V28.1573L66.7694 26.1215C66.8599 26.0039 66.9459 25.9451 67.0273 25.9451C67.1449 25.9451 67.2354 26.0129 67.2987 26.1487V30.1931H71.3432C71.4789 30.2655 71.5468 30.356 71.5468 30.4646C71.5468 30.5731 71.4789 30.6636 71.3432 30.736H67.2987V34.7805C67.2263 34.9071 67.1449 34.9705 67.0544 34.9705H67.0273H67.0001C66.8916 34.9705 66.8101 34.9071 66.7558 34.7805V30.736H62.6978C62.5711 30.6727 62.5078 30.5822 62.5078 30.4646V30.641Z" fill="white"/>
    <path d="M75.8934 29.6094C75.8934 28.1346 76.2599 26.9674 76.9928 26.1078C77.7256 25.2483 78.54 24.8185 79.4357 24.8185C80.06 24.8185 80.5079 24.9813 80.7793 25.3071C81.0508 25.6328 81.1865 25.9947 81.1865 26.3928C81.1865 26.619 81.1232 26.8 80.9965 26.9357C80.8698 27.0714 80.6934 27.1393 80.4672 27.1393C80.2591 27.1393 80.0872 27.0759 79.9515 26.9493C79.8157 26.8226 79.7479 26.6462 79.7479 26.42C79.7479 26.0219 79.9605 25.7821 80.3858 25.7007C80.1867 25.5016 79.9062 25.3885 79.5443 25.3614C78.9019 25.3614 78.3726 25.6328 77.9564 26.1757C77.5311 26.7728 77.3185 27.6867 77.3185 28.9172L77.3321 28.9715C77.3773 28.9172 77.4135 28.8584 77.4406 28.7951C77.8116 28.2522 78.2957 27.9807 78.8928 27.9807H78.9471C79.3633 27.9807 79.7298 28.0667 80.0465 28.2386C80.2636 28.3653 80.4808 28.5462 80.6979 28.7815C80.9151 29.0167 81.0915 29.2746 81.2272 29.5551C81.4172 29.9984 81.5122 30.4825 81.5122 31.0073V31.2516C81.5122 31.4597 81.4896 31.6542 81.4444 31.8352C81.3448 32.369 81.0553 32.8893 80.5758 33.396C80.0962 33.9027 79.49 34.156 78.7571 34.156C78.5038 34.156 78.2595 34.1198 78.0242 34.0474C77.789 33.975 77.5356 33.8393 77.2642 33.6403C76.9928 33.4412 76.762 33.1743 76.572 32.8395C76.382 32.5047 76.2192 32.0659 76.0834 31.523C75.9477 30.9802 75.8844 30.3423 75.8934 29.6094ZM78.8114 28.4693C78.54 28.4693 78.3047 28.5462 78.1057 28.7001C77.9066 28.8539 77.7528 29.0575 77.6442 29.3108C77.5356 29.5641 77.4587 29.822 77.4135 30.0844C77.3683 30.3468 77.3411 30.6273 77.3321 30.9259C77.3321 31.6769 77.3863 32.2152 77.4949 32.5409C77.6035 32.8667 77.7754 33.1291 78.0107 33.3281C78.2278 33.491 78.4676 33.5724 78.73 33.5724C79.1914 33.5724 79.5443 33.4005 79.7886 33.0567C79.9062 32.8938 79.9876 32.6902 80.0329 32.4459C80.0781 32.2016 80.1007 31.7266 80.1007 31.0209C80.1007 30.297 80.0781 29.813 80.0329 29.5687C79.9876 29.3244 79.9062 29.1208 79.7886 28.9579C79.5443 28.6322 79.2186 28.4693 78.8114 28.4693Z" fill="white"/>
    <path d="M86.4122 31.4418C86.3579 31.4418 86.2946 31.4056 86.2222 31.3332C86.1498 31.2608 86.1091 31.1975 86.1 31.1432C86.091 31.0889 86.2312 30.9532 86.5208 30.7361C86.8103 30.5189 87.1089 30.2927 87.4165 30.0575C87.7241 29.8222 87.896 29.691 87.9322 29.6639C87.9503 29.6458 87.973 29.6367 88.0001 29.6367H88.0137C88.068 29.6367 88.1313 29.7136 88.2037 29.8675C88.2761 30.0213 88.5204 30.5506 88.9366 31.4554C89.1085 31.8444 89.2487 32.1566 89.3573 32.3918L90.5109 34.9027C90.52 34.9027 90.9905 33.9391 91.9224 32.0118C92.8544 30.0846 93.7863 28.1438 94.7182 26.1894C95.6502 24.2351 96.1343 23.2353 96.1704 23.19C96.2247 23.0634 96.3152 23 96.4419 23C96.5052 23 96.5595 23.0272 96.6047 23.0815C96.65 23.1357 96.6817 23.19 96.6998 23.2443V23.3257L93.5375 29.881L90.3481 36.477C90.3119 36.5404 90.2259 36.572 90.0902 36.572C90.0088 36.572 89.9545 36.5584 89.9273 36.5313C89.9092 36.5132 89.4659 35.5541 88.5973 33.654L87.2944 30.8039L87.0772 30.9532C86.9415 31.0618 86.8012 31.1704 86.6565 31.2789C86.5117 31.3875 86.4303 31.4418 86.4122 31.4418Z" fill="white"/>
    <path d="M98.4232 27.5736C98.1789 27.5736 97.9888 27.4967 97.8531 27.3429C97.7174 27.189 97.645 26.99 97.636 26.7457C97.636 26.2481 97.8531 25.8047 98.2874 25.4156C98.7217 25.0266 99.2465 24.832 99.8618 24.832C100.178 24.832 100.378 24.8366 100.459 24.8456C101.129 24.9542 101.64 25.194 101.993 25.5649C102.345 25.9359 102.526 26.3385 102.535 26.7728C102.535 27.2433 102.382 27.7003 102.074 28.1436C101.766 28.587 101.341 28.9082 100.798 29.1072L100.758 29.1344C100.758 29.1434 100.798 29.157 100.88 29.1751C100.961 29.1932 101.092 29.2339 101.273 29.2972C101.454 29.3606 101.626 29.4556 101.789 29.5822C102.531 30.0618 102.902 30.6951 102.902 31.4823C102.902 32.1971 102.621 32.8214 102.06 33.3553C101.499 33.8891 100.789 34.156 99.9296 34.156C99.2058 34.156 98.5815 33.9615 98.0567 33.5724C97.5319 33.1833 97.2695 32.6902 97.2695 32.0931C97.2695 31.8397 97.351 31.6361 97.5138 31.4823C97.6767 31.3285 97.8803 31.2471 98.1246 31.238C98.3779 31.238 98.586 31.3195 98.7489 31.4823C98.9117 31.6452 98.9932 31.8488 98.9932 32.0931C98.9932 32.1926 98.9796 32.2831 98.9525 32.3645C98.9253 32.4459 98.8936 32.5183 98.8575 32.5817C98.8213 32.645 98.7715 32.6993 98.7082 32.7445C98.6448 32.7898 98.5905 32.8259 98.5453 32.8531C98.5001 32.8802 98.4548 32.8983 98.4096 32.9074C98.3643 32.9164 98.3281 32.93 98.301 32.9481L98.2467 32.9617C98.7082 33.3688 99.2691 33.5724 99.9296 33.5724C100.427 33.5724 100.803 33.3326 101.056 32.8531C101.21 32.5545 101.287 32.0976 101.287 31.4823V31.2109C101.287 30.3513 100.997 29.7768 100.418 29.4872C100.283 29.433 100.007 29.4013 99.5903 29.3922L99.0203 29.3787L98.9796 29.3515C98.9615 29.3244 98.9525 29.252 98.9525 29.1344C98.9525 28.9715 98.9887 28.8901 99.061 28.8901C99.3144 28.8901 99.5768 28.8674 99.8482 28.8222C100.156 28.777 100.436 28.587 100.69 28.2522C100.943 27.9174 101.07 27.4107 101.07 26.7321V26.6235C101.07 26.1078 100.911 25.7504 100.595 25.5514C100.396 25.4247 100.183 25.3614 99.9568 25.3614C99.6673 25.3614 99.4003 25.4111 99.156 25.5106C98.9117 25.6102 98.7398 25.7142 98.6403 25.8228C98.5408 25.9314 98.491 25.9857 98.491 25.9857H98.5317C98.5589 25.9947 98.5951 26.0038 98.6403 26.0128C98.6855 26.0219 98.7308 26.0445 98.776 26.0807C98.8213 26.1169 98.8756 26.1485 98.9389 26.1757C99.0022 26.2028 99.0475 26.2526 99.0746 26.325C99.1018 26.3973 99.1379 26.4652 99.1832 26.5285C99.2284 26.5919 99.242 26.6824 99.2239 26.8C99.2239 26.999 99.1606 27.1755 99.0339 27.3293C98.9072 27.4831 98.7036 27.5645 98.4232 27.5736Z" fill="white"/>
    <path d="M105.982 25.7141C105.982 25.4969 106.068 25.3069 106.24 25.1441C106.412 24.9812 106.611 24.8953 106.837 24.8862C107 24.8862 107.135 24.9405 107.244 25.0491C107.353 25.1576 107.411 25.2934 107.42 25.4562C107.42 25.6643 107.33 25.8543 107.149 26.0263C106.968 26.1982 106.769 26.2886 106.552 26.2977C106.416 26.2977 106.289 26.2525 106.172 26.162C106.054 26.0715 105.991 25.9222 105.982 25.7141ZM103.77 29.9621C103.77 29.8898 103.81 29.7495 103.892 29.5414C103.973 29.3333 104.082 29.1026 104.217 28.8492C104.353 28.5959 104.552 28.3652 104.815 28.1571C105.077 27.949 105.348 27.8494 105.629 27.8585C105.982 27.8585 106.276 27.9625 106.511 28.1706C106.746 28.3787 106.868 28.6592 106.878 29.0121C106.878 29.1659 106.814 29.4193 106.688 29.7721C106.561 30.125 106.38 30.6 106.145 31.1972C105.909 31.7944 105.719 32.3056 105.575 32.7308C105.529 32.9299 105.507 33.0746 105.507 33.1651C105.507 33.3913 105.584 33.5044 105.737 33.5044C105.819 33.5044 105.905 33.4909 105.995 33.4637C106.086 33.4366 106.19 33.3732 106.307 33.2737C106.425 33.1742 106.547 33.0158 106.674 32.7987C106.801 32.5815 106.914 32.3146 107.013 31.9979C107.04 31.8894 107.063 31.826 107.081 31.8079C107.099 31.7898 107.176 31.7808 107.312 31.7808C107.493 31.7808 107.583 31.826 107.583 31.9165C107.583 31.9889 107.543 32.1291 107.461 32.3372C107.38 32.5453 107.267 32.7761 107.122 33.0294C106.977 33.2828 106.773 33.509 106.511 33.708C106.249 33.9071 105.968 34.0066 105.67 34.0066C105.38 34.0066 105.113 33.9116 104.869 33.7216C104.625 33.5316 104.498 33.242 104.489 32.853C104.489 32.6992 104.511 32.5544 104.557 32.4187C104.602 32.2829 104.796 31.7672 105.14 30.8715C105.484 29.9576 105.683 29.4102 105.737 29.2292C105.792 29.0483 105.823 28.8719 105.832 28.6999C105.832 28.4828 105.756 28.3742 105.602 28.3742H105.575C105.303 28.3742 105.054 28.5235 104.828 28.8221C104.602 29.1207 104.43 29.5007 104.312 29.9621C104.303 29.9712 104.294 29.9848 104.285 30.0029C104.276 30.0209 104.272 30.0345 104.272 30.0436C104.272 30.0526 104.263 30.0617 104.245 30.0707C104.226 30.0798 104.213 30.0843 104.204 30.0843C104.195 30.0843 104.177 30.0843 104.15 30.0843C104.122 30.0843 104.086 30.0843 104.041 30.0843H103.851C103.797 30.03 103.77 29.9893 103.77 29.9621Z" fill="white"/>
    <path d="M112.697 29.1481C112.697 29.0305 112.761 28.94 112.887 28.8766H121.533C121.668 28.949 121.736 29.0395 121.736 29.1481C121.736 29.2476 121.673 29.3336 121.546 29.406L117.23 29.4195H112.914C112.77 29.3743 112.697 29.2838 112.697 29.1481ZM112.697 31.7811C112.697 31.6453 112.77 31.5549 112.914 31.5096H121.546C121.673 31.6001 121.736 31.6906 121.736 31.7811C121.736 31.8987 121.668 31.9892 121.533 32.0525H112.887C112.761 31.9892 112.697 31.8987 112.697 31.7811Z" fill="white"/>
    <path d="M129.157 26.0126L128.981 26.0804C128.854 26.1257 128.673 26.1709 128.438 26.2161C128.202 26.2614 127.94 26.293 127.65 26.3111H127.393V25.6868H127.65C128.076 25.6687 128.469 25.6009 128.831 25.4833C129.193 25.3656 129.446 25.2571 129.591 25.1575C129.736 25.058 129.863 24.9585 129.971 24.8589C129.989 24.8318 130.044 24.8182 130.134 24.8182C130.216 24.8182 130.292 24.8454 130.365 24.8997V28.9577L130.378 33.0293C130.442 33.0926 130.496 33.1333 130.541 33.1514C130.587 33.1695 130.695 33.1876 130.867 33.2057C131.039 33.2238 131.319 33.2329 131.708 33.2329H132.061V33.8572H131.912C131.722 33.83 131.003 33.8165 129.754 33.8165C128.524 33.8165 127.813 33.83 127.623 33.8572H127.46V33.2329H127.813C128.012 33.2329 128.184 33.2329 128.329 33.2329C128.474 33.2329 128.587 33.2283 128.668 33.2193C128.75 33.2102 128.822 33.1967 128.885 33.1786C128.949 33.1605 128.985 33.1514 128.994 33.1514C129.003 33.1514 129.03 33.1288 129.076 33.0836C129.121 33.0383 129.148 33.0202 129.157 33.0293V26.0126Z" fill="white"/>
    <path d="M136.828 30.641C136.828 30.641 136.828 30.5822 136.828 30.4646C136.828 30.3469 136.891 30.2565 137.018 30.1931H141.076V28.1573L141.09 26.1215C141.18 26.0039 141.266 25.9451 141.348 25.9451C141.465 25.9451 141.556 26.0129 141.619 26.1487V30.1931H145.663C145.799 30.2655 145.867 30.356 145.867 30.4646C145.867 30.5731 145.799 30.6636 145.663 30.736H141.619V34.7805C141.547 34.9071 141.465 34.9705 141.375 34.9705H141.348H141.32C141.212 34.9705 141.13 34.9071 141.076 34.7805V30.736H137.018C136.891 30.6727 136.828 30.5822 136.828 30.4646V30.641Z" fill="white"/>
    <path d="M151.367 27.5736C151.122 27.5736 150.932 27.4967 150.796 27.3429C150.661 27.189 150.588 26.99 150.579 26.7457C150.579 26.2481 150.796 25.8047 151.231 25.4156C151.665 25.0266 152.19 24.832 152.805 24.832C153.122 24.832 153.321 24.8366 153.402 24.8456C154.072 24.9542 154.583 25.194 154.936 25.5649C155.289 25.9359 155.47 26.3385 155.479 26.7728C155.479 27.2433 155.325 27.7003 155.017 28.1436C154.71 28.587 154.284 28.9082 153.742 29.1072L153.701 29.1344C153.701 29.1434 153.742 29.157 153.823 29.1751C153.904 29.1932 154.036 29.2339 154.217 29.2972C154.398 29.3606 154.57 29.4556 154.732 29.5822C155.474 30.0618 155.845 30.6951 155.845 31.4823C155.845 32.1971 155.565 32.8214 155.004 33.3553C154.443 33.8891 153.733 34.156 152.873 34.156C152.149 34.156 151.525 33.9615 151 33.5724C150.475 33.1833 150.213 32.6902 150.213 32.0931C150.213 31.8397 150.294 31.6361 150.457 31.4823C150.62 31.3285 150.824 31.2471 151.068 31.238C151.321 31.238 151.529 31.3195 151.692 31.4823C151.855 31.6452 151.937 31.8488 151.937 32.0931C151.937 32.1926 151.923 32.2831 151.896 32.3645C151.869 32.4459 151.837 32.5183 151.801 32.5817C151.765 32.645 151.715 32.6993 151.652 32.7445C151.588 32.7898 151.534 32.8259 151.489 32.8531C151.443 32.8802 151.398 32.8983 151.353 32.9074C151.308 32.9164 151.272 32.93 151.244 32.9481L151.19 32.9617C151.652 33.3688 152.212 33.5724 152.873 33.5724C153.371 33.5724 153.746 33.3326 153.999 32.8531C154.153 32.5545 154.23 32.0976 154.23 31.4823V31.2109C154.23 30.3513 153.941 29.7768 153.362 29.4872C153.226 29.433 152.95 29.4013 152.534 29.3922L151.964 29.3787L151.923 29.3515C151.905 29.3244 151.896 29.252 151.896 29.1344C151.896 28.9715 151.932 28.8901 152.004 28.8901C152.258 28.8901 152.52 28.8674 152.792 28.8222C153.099 28.777 153.38 28.587 153.633 28.2522C153.886 27.9174 154.013 27.4107 154.013 26.7321V26.6235C154.013 26.1078 153.855 25.7504 153.538 25.5514C153.339 25.4247 153.126 25.3614 152.9 25.3614C152.611 25.3614 152.344 25.4111 152.099 25.5106C151.855 25.6102 151.683 25.7142 151.584 25.8228C151.484 25.9314 151.434 25.9857 151.434 25.9857H151.475C151.502 25.9947 151.538 26.0038 151.584 26.0128C151.629 26.0219 151.674 26.0445 151.719 26.0807C151.765 26.1169 151.819 26.1485 151.882 26.1757C151.946 26.2028 151.991 26.2526 152.018 26.325C152.045 26.3973 152.081 26.4652 152.127 26.5285C152.172 26.5919 152.185 26.6824 152.167 26.8C152.167 26.999 152.104 27.1755 151.977 27.3293C151.851 27.4831 151.647 27.5645 151.367 27.5736Z" fill="white"/>
    <path d="M160.732 31.4418C160.678 31.4418 160.615 31.4056 160.542 31.3332C160.47 31.2608 160.429 31.1975 160.42 31.1432C160.411 31.0889 160.552 30.9532 160.841 30.7361C161.131 30.5189 161.429 30.2927 161.737 30.0575C162.044 29.8222 162.216 29.691 162.253 29.6639C162.271 29.6458 162.293 29.6367 162.32 29.6367H162.334C162.388 29.6367 162.452 29.7136 162.524 29.8675C162.596 30.0213 162.841 30.5506 163.257 31.4554C163.429 31.8444 163.569 32.1566 163.678 32.3918L164.831 34.9027C164.84 34.9027 165.311 33.9391 166.243 32.0118C167.175 30.0846 168.107 28.1438 169.039 26.1894C169.97 24.2351 170.455 23.2353 170.491 23.19C170.545 23.0634 170.636 23 170.762 23C170.826 23 170.88 23.0272 170.925 23.0815C170.97 23.1357 171.002 23.19 171.02 23.2443V23.3257L167.858 29.881L164.668 36.477C164.632 36.5404 164.546 36.572 164.411 36.572C164.329 36.572 164.275 36.5584 164.248 36.5313C164.23 36.5132 163.786 35.5541 162.918 33.654L161.615 30.8039L161.398 30.9532C161.262 31.0618 161.122 31.1704 160.977 31.2789C160.832 31.3875 160.751 31.4418 160.732 31.4418Z" fill="white"/>
    <path d="M172.743 27.5736C172.499 27.5736 172.309 27.4967 172.173 27.3429C172.038 27.189 171.965 26.99 171.956 26.7457C171.956 26.2481 172.173 25.8047 172.608 25.4156C173.042 25.0266 173.567 24.832 174.182 24.832C174.499 24.832 174.698 24.8366 174.779 24.8456C175.449 24.9542 175.96 25.194 176.313 25.5649C176.666 25.9359 176.847 26.3385 176.856 26.7728C176.856 27.2433 176.702 27.7003 176.394 28.1436C176.087 28.587 175.661 28.9082 175.119 29.1072L175.078 29.1344C175.078 29.1434 175.119 29.157 175.2 29.1751C175.281 29.1932 175.413 29.2339 175.594 29.2972C175.775 29.3606 175.946 29.4556 176.109 29.5822C176.851 30.0618 177.222 30.6951 177.222 31.4823C177.222 32.1971 176.942 32.8214 176.381 33.3553C175.82 33.8891 175.11 34.156 174.25 34.156C173.526 34.156 172.902 33.9615 172.377 33.5724C171.852 33.1833 171.59 32.6902 171.59 32.0931C171.59 31.8397 171.671 31.6361 171.834 31.4823C171.997 31.3285 172.201 31.2471 172.445 31.238C172.698 31.238 172.906 31.3195 173.069 31.4823C173.232 31.6452 173.313 31.8488 173.313 32.0931C173.313 32.1926 173.3 32.2831 173.273 32.3645C173.246 32.4459 173.214 32.5183 173.178 32.5817C173.142 32.645 173.092 32.6993 173.028 32.7445C172.965 32.7898 172.911 32.8259 172.866 32.8531C172.82 32.8802 172.775 32.8983 172.73 32.9074C172.685 32.9164 172.648 32.93 172.621 32.9481L172.567 32.9617C173.028 33.3688 173.589 33.5724 174.25 33.5724C174.748 33.5724 175.123 33.3326 175.376 32.8531C175.53 32.5545 175.607 32.0976 175.607 31.4823V31.2109C175.607 30.3513 175.318 29.7768 174.739 29.4872C174.603 29.433 174.327 29.4013 173.911 29.3922L173.341 29.3787L173.3 29.3515C173.282 29.3244 173.273 29.252 173.273 29.1344C173.273 28.9715 173.309 28.8901 173.381 28.8901C173.635 28.8901 173.897 28.8674 174.169 28.8222C174.476 28.777 174.757 28.587 175.01 28.2522C175.263 27.9174 175.39 27.4107 175.39 26.7321V26.6235C175.39 26.1078 175.232 25.7504 174.915 25.5514C174.716 25.4247 174.503 25.3614 174.277 25.3614C173.988 25.3614 173.721 25.4111 173.476 25.5106C173.232 25.6102 173.06 25.7142 172.961 25.8228C172.861 25.9314 172.811 25.9857 172.811 25.9857H172.852C172.879 25.9947 172.915 26.0038 172.961 26.0128C173.006 26.0219 173.051 26.0445 173.096 26.0807C173.142 26.1169 173.196 26.1485 173.259 26.1757C173.323 26.2028 173.368 26.2526 173.395 26.325C173.422 26.3973 173.458 26.4652 173.503 26.5285C173.549 26.5919 173.562 26.6824 173.544 26.8C173.544 26.999 173.481 27.1755 173.354 27.3293C173.228 27.4831 173.024 27.5645 172.743 27.5736Z" fill="white"/>
    <path d="M180.302 25.7141C180.302 25.4969 180.388 25.3069 180.56 25.1441C180.732 24.9812 180.931 24.8953 181.157 24.8862C181.32 24.8862 181.456 24.9405 181.564 25.0491C181.673 25.1576 181.732 25.2934 181.741 25.4562C181.741 25.6643 181.65 25.8543 181.469 26.0263C181.288 26.1982 181.089 26.2886 180.872 26.2977C180.736 26.2977 180.61 26.2525 180.492 26.162C180.374 26.0715 180.311 25.9222 180.302 25.7141ZM178.09 29.9621C178.09 29.8898 178.131 29.7495 178.212 29.5414C178.293 29.3333 178.402 29.1026 178.538 28.8492C178.673 28.5959 178.872 28.3652 179.135 28.1571C179.397 27.949 179.669 27.8494 179.949 27.8585C180.302 27.8585 180.596 27.9625 180.831 28.1706C181.067 28.3787 181.189 28.6592 181.198 29.0121C181.198 29.1659 181.134 29.4193 181.008 29.7721C180.881 30.125 180.7 30.6 180.465 31.1972C180.23 31.7944 180.04 32.3056 179.895 32.7308C179.85 32.9299 179.827 33.0746 179.827 33.1651C179.827 33.3913 179.904 33.5044 180.058 33.5044C180.139 33.5044 180.225 33.4909 180.316 33.4637C180.406 33.4366 180.51 33.3732 180.628 33.2737C180.745 33.1742 180.868 33.0158 180.994 32.7987C181.121 32.5815 181.234 32.3146 181.334 31.9979C181.361 31.8894 181.383 31.826 181.401 31.8079C181.42 31.7898 181.496 31.7808 181.632 31.7808C181.813 31.7808 181.904 31.826 181.904 31.9165C181.904 31.9889 181.863 32.1291 181.781 32.3372C181.7 32.5453 181.587 32.7761 181.442 33.0294C181.297 33.2828 181.094 33.509 180.831 33.708C180.569 33.9071 180.289 34.0066 179.99 34.0066C179.7 34.0066 179.433 33.9116 179.189 33.7216C178.945 33.5316 178.818 33.242 178.809 32.853C178.809 32.6992 178.832 32.5544 178.877 32.4187C178.922 32.2829 179.117 31.7672 179.461 30.8715C179.804 29.9576 180.003 29.4102 180.058 29.2292C180.112 29.0483 180.144 28.8719 180.153 28.6999C180.153 28.4828 180.076 28.3742 179.922 28.3742H179.895C179.623 28.3742 179.375 28.5235 179.148 28.8221C178.922 29.1207 178.75 29.5007 178.633 29.9621C178.624 29.9712 178.615 29.9848 178.606 30.0029C178.597 30.0209 178.592 30.0345 178.592 30.0436C178.592 30.0526 178.583 30.0617 178.565 30.0707C178.547 30.0798 178.533 30.0843 178.524 30.0843C178.515 30.0843 178.497 30.0843 178.47 30.0843C178.443 30.0843 178.407 30.0843 178.361 30.0843H178.171C178.117 30.03 178.09 29.9893 178.09 29.9621Z" fill="white"/>
    <defs>
        <clipPath id="clip0_0_1">
            <rect width="143" height="14" fill="white"/>
        </clipPath>
    </defs>
</svg>
