<?xml version="1.0" encoding="UTF-8"?>
<svg id="Layer_2" data-name="Layer 2" xmlns="http://www.w3.org/2000/svg" viewBox="0 0 63.34 69.68">
  <defs>
    <style>
      .cls-1, .cls-2, .cls-3 {
        stroke-width: 0px;
      }

      .cls-2 {
        fill: #f7dabf;
      }

      .cls-3 {
        fill: #efcaa5;
      }
    </style>
  </defs>
  <g id="Layer_2-2" data-name="Layer 2">
    <polygon class="cls-3" points="50.67 6.33 12.67 6.33 12.67 38.01 12.67 38.03 12.67 44.34 25.34 44.34 25.34 50.67 31.67 50.67 31.67 57.01 38 57.01 38 63.34 44.34 63.34 44.34 57.01 44.34 50.67 38 50.67 38 44.34 44.34 44.34 44.34 38.03 50.67 38.03 57.01 38.03 57.01 12.67 50.67 12.67 50.67 6.33"/>
    <rect class="cls-2" x="50.67" y="12.67" width="6.33" height="25.34"/>
    <rect class="cls-2" x="31.67" y="44.34" width="6.33" height="6.33"/>
    <rect class="cls-2" x="38" y="50.67" width="6.33" height="12.67"/>
    <rect class="cls-2" x="44.34" y="12.67" width="6.33" height="6.33"/>
    <rect class="cls-2" x="12.67" y="6.33" width="38" height="6.33"/>
  </g>
  <g id="Layer_1-2" data-name="Layer 1">
    <polygon class="cls-1" points="12.67 31.67 12.67 25.34 12.67 19 12.67 12.67 12.67 6.33 6.33 6.33 0 6.33 0 12.67 0 19 0 25.34 0 31.67 0 38.01 0 44.34 6.33 44.34 12.67 44.34 12.67 38.01 12.67 31.67"/>
    <polygon class="cls-1" points="19 44.34 12.67 44.34 12.67 50.67 19 50.67 25.34 50.67 25.34 44.34 19 44.34"/>
    <rect class="cls-1" x="25.34" y="50.67" width="6.33" height="6.33"/>
    <rect class="cls-1" x="31.67" y="57.01" width="6.33" height="6.33"/>
    <rect class="cls-1" x="38" y="63.34" width="6.33" height="6.33"/>
    <polygon class="cls-1" points="44.34 63.34 50.67 63.34 50.67 57.01 50.67 50.67 44.34 50.67 44.34 57.01 44.34 63.34"/>
    <rect class="cls-1" x="38" y="44.34" width="6.33" height="6.33"/>
    <polygon class="cls-1" points="44.34 38.01 44.34 44.34 50.67 44.34 57.01 44.34 57.01 38.01 50.67 38.01 44.34 38.01"/>
    <polygon class="cls-1" points="57.01 19 57.01 25.34 57.01 31.67 57.01 38.01 63.34 38.01 63.34 31.67 63.34 25.34 63.34 19 63.34 12.67 57.01 12.67 57.01 19"/>
    <rect class="cls-1" x="50.67" y="6.33" width="6.33" height="6.33"/>
    <polygon class="cls-1" points="25.34 6.33 31.67 6.33 38 6.33 44.34 6.33 50.67 6.33 50.67 0 44.34 0 38 0 31.67 0 25.34 0 19 0 12.67 0 12.67 6.33 19 6.33 25.34 6.33"/>
  </g>
</svg>