<?xml version="1.0" encoding="UTF-8"?>
<svg id="Layer_2" data-name="Layer 2" xmlns="http://www.w3.org/2000/svg" viewBox="0 0 63.34 69.68">
  <defs>
    <style>
      .cls-1, .cls-2, .cls-3 {
        stroke-width: 0px;
      }

      .cls-2 {
        fill: #f7dabf;
      }

      .cls-3 {
        fill: #efcaa5;
      }
    </style>
  </defs>
  <g id="Layer_2-2" data-name="Layer 2">
    <polygon class="cls-3" points="44.34 31.65 44.34 25.34 38 25.34 38 19 44.34 19 44.34 12.67 44.34 6.33 38 6.33 38 12.67 31.67 12.67 31.67 19 25.34 19 25.34 25.34 12.67 25.34 12.67 31.65 12.67 31.67 12.67 63.34 50.67 63.34 50.67 57.01 57.01 57.01 57.01 31.65 50.67 31.65 44.34 31.65"/>
    <rect class="cls-2" x="50.67" y="31.65" width="6.33" height="25.37"/>
    <rect class="cls-2" x="44.34" y="31.65" width="6.33" height="6.33"/>
    <rect class="cls-2" x="38" y="6.33" width="6.33" height="6.33"/>
    <rect class="cls-2" x="38" y="25.34" width="6.33" height="6.33"/>
    <rect class="cls-2" x="31.67" y="19" width="6.33" height="6.33"/>
    <rect class="cls-2" x="38" y="12.67" width="6.33" height="6.33"/>
  </g>
  <g id="Layer_1-2" data-name="Layer 1">
    <polygon class="cls-1" points="12.67 50.67 12.67 44.34 12.67 38.01 12.67 31.67 12.67 25.34 6.33 25.34 0 25.34 0 31.67 0 38.01 0 44.34 0 50.67 0 57.01 0 63.34 6.33 63.34 12.67 63.34 12.67 57.01 12.67 50.67"/>
    <polygon class="cls-1" points="25.34 25.34 25.34 19 19 19 12.67 19 12.67 25.34 19 25.34 25.34 25.34"/>
    <rect class="cls-1" x="25.34" y="12.67" width="6.33" height="6.33"/>
    <rect class="cls-1" x="31.67" y="6.33" width="6.33" height="6.33"/>
    <rect class="cls-1" x="38" width="6.33" height="6.33"/>
    <polygon class="cls-1" points="44.34 19 50.67 19 50.67 12.67 50.67 6.33 44.34 6.33 44.34 12.67 44.34 19"/>
    <rect class="cls-1" x="38" y="19" width="6.33" height="6.33"/>
    <polygon class="cls-1" points="50.67 31.67 57.01 31.67 57.01 25.34 50.67 25.34 44.34 25.34 44.34 31.67 50.67 31.67"/>
    <polygon class="cls-1" points="57.01 38.01 57.01 44.34 57.01 50.67 57.01 57.01 63.34 57.01 63.34 50.67 63.34 44.34 63.34 38.01 63.34 31.67 57.01 31.67 57.01 38.01"/>
    <rect class="cls-1" x="50.67" y="57.01" width="6.33" height="6.33"/>
    <polygon class="cls-1" points="38 63.34 31.67 63.34 25.34 63.34 19 63.34 12.67 63.34 12.67 69.68 19 69.68 25.34 69.68 31.67 69.68 38 69.68 44.34 69.68 50.67 69.68 50.67 63.34 44.34 63.34 38 63.34"/>
  </g>
</svg>