<?xml version="1.0" encoding="UTF-8"?>
<svg id="Layer_2" data-name="Layer 2" xmlns="http://www.w3.org/2000/svg" viewBox="0 0 614.42 586.88">
  <defs>
    <style>
      .cls-1 {
        fill: none;
        stroke: #231f20;
        stroke-miterlimit: 10;
        stroke-width: 12px;
      }

      .cls-2 {
        fill: #499aea;
      }

      .cls-2, .cls-3, .cls-4, .cls-5, .cls-6, .cls-7, .cls-8, .cls-9, .cls-10, .cls-11, .cls-12 {
        stroke-width: 0px;
      }

      .cls-3 {
        fill: #545454;
      }

      .cls-4 {
        fill: #707070;
      }

      .cls-5 {
        fill: #1a6bad;
      }

      .cls-6 {
        fill: #3f3f3f;
      }

      .cls-7 {
        fill: #1c8c36;
      }

      .cls-8 {
        fill: #2077e0;
      }

      .cls-9 {
        fill: #239b1c;
      }

      .cls-10 {
        fill: #23ad47;
      }

      .cls-11 {
        fill: #cacbcc;
      }

      .cls-12 {
        fill: #80c427;
      }
    </style>
  </defs>
  <g id="bg">
    <line class="cls-1" x1="226.82" y1="6" x2="388.01" y2="6"/>
    <line class="cls-1" x1="394.01" y1="11.1" x2="394.01" y2="37.96"/>
    <line class="cls-1" x1="221.34" y1="11.1" x2="221.34" y2="37.96"/>
    <line class="cls-1" x1="441.73" y1="32.71" x2="388.01" y2="32.71"/>
    <line class="cls-1" x1="447.52" y1="37.96" x2="447.52" y2="64.83"/>
    <line class="cls-1" x1="447.52" y1="58.94" x2="495.46" y2="58.94"/>
    <line class="cls-1" x1="501.33" y1="64.83" x2="501.33" y2="91.69"/>
    <line class="cls-1" x1="501.33" y1="86.34" x2="522.33" y2="86.34"/>
    <line class="cls-1" x1="527.85" y1="91.69" x2="527.85" y2="118.55"/>
    <line class="cls-1" x1="527.85" y1="112.87" x2="549.19" y2="112.87"/>
    <line class="cls-1" x1="555.01" y1="118.55" x2="555.01" y2="172.28"/>
    <line class="cls-1" x1="555.01" y1="167.25" x2="576.06" y2="167.25"/>
    <line class="cls-1" x1="582.06" y1="172.28" x2="582.06" y2="226.01"/>
    <line class="cls-1" x1="582.06" y1="220.6" x2="602.92" y2="220.6"/>
    <line class="cls-1" x1="608.42" y1="226.01" x2="608.42" y2="360.33"/>
    <line class="cls-1" x1="602.92" y1="366.16" x2="576.06" y2="366.16"/>
    <line class="cls-1" x1="581.49" y1="366.16" x2="581.49" y2="414.05"/>
    <line class="cls-1" x1="576.06" y1="419.86" x2="549.19" y2="419.86"/>
    <line class="cls-1" x1="554.58" y1="419.86" x2="554.58" y2="467.78"/>
    <line class="cls-1" x1="549.19" y1="472.82" x2="522.33" y2="472.82"/>
    <line class="cls-1" x1="527.09" y1="472.82" x2="527.09" y2="494.65"/>
    <line class="cls-1" x1="522.33" y1="500.67" x2="495.46" y2="500.67"/>
    <line class="cls-1" x1="501.3" y1="500.67" x2="501.3" y2="521.51"/>
    <line class="cls-1" x1="495.46" y1="527.34" x2="441.73" y2="527.34"/>
    <line class="cls-1" x1="447.66" y1="527.34" x2="447.66" y2="548.38"/>
    <line class="cls-1" x1="441.73" y1="553.76" x2="388.01" y2="553.76"/>
    <line class="cls-1" x1="394.01" y1="553.76" x2="394.01" y2="575.24"/>
    <line class="cls-1" x1="388.01" y1="580.88" x2="226.82" y2="580.88"/>
    <line class="cls-1" x1="221.34" y1="575.24" x2="221.34" y2="548.38"/>
    <line class="cls-1" x1="221.34" y1="553.63" x2="173.09" y2="553.63"/>
    <line class="cls-1" x1="168.32" y1="548.38" x2="168.32" y2="521.51"/>
    <line class="cls-1" x1="168.32" y1="527.41" x2="119.37" y2="527.41"/>
    <line class="cls-1" x1="113.42" y1="521.51" x2="113.42" y2="494.65"/>
    <line class="cls-1" x1="113.42" y1="500.25" x2="92.5" y2="500.25"/>
    <line class="cls-1" x1="86.69" y1="494.65" x2="86.69" y2="467.79"/>
    <line class="cls-1" x1="86.69" y1="473.76" x2="65.64" y2="473.76"/>
    <line class="cls-1" x1="60.02" y1="467.78" x2="60.02" y2="414.06"/>
    <line class="cls-1" x1="60.02" y1="419.81" x2="38.78" y2="419.81"/>
    <line class="cls-1" x1="32.86" y1="414.05" x2="32.86" y2="360.33"/>
    <line class="cls-1" x1="32.86" y1="365.91" x2="11.91" y2="365.91"/>
    <line class="cls-1" x1="6" y1="360.33" x2="6" y2="226.01"/>
    <line class="cls-1" x1="11.91" y1="220.56" x2="38.78" y2="220.56"/>
    <line class="cls-1" x1="32.98" y1="220.56" x2="32.98" y2="172.28"/>
    <line class="cls-1" x1="38.78" y1="166.25" x2="65.64" y2="166.25"/>
    <line class="cls-1" x1="59.95" y1="166.25" x2="59.95" y2="118.55"/>
    <line class="cls-1" x1="65.64" y1="113.16" x2="94.91" y2="113.16"/>
    <line class="cls-1" x1="87.19" y1="113.16" x2="87.19" y2="91.69"/>
    <line class="cls-1" x1="92.5" y1="86.38" x2="119.37" y2="86.38"/>
    <line class="cls-1" x1="113.54" y1="86.38" x2="113.54" y2="64.83"/>
    <line class="cls-1" x1="119.37" y1="58.95" x2="173.09" y2="58.95"/>
    <line class="cls-1" x1="167.12" y1="58.95" x2="167.12" y2="37.96"/>
    <line class="cls-1" x1="173.09" y1="32.05" x2="224.98" y2="32.05"/>
  </g>
  <g id="pix">
    <g>
      <rect class="cls-8" x="146.23" y="467.79" width="26.86" height="26.86"/>
      <rect class="cls-9" x="576.06" y="333.47" width="26.86" height="26.86"/>
      <rect class="cls-6" x="576.06" y="333.46" width="26.86" height=".01"/>
      <rect class="cls-11" x="576.06" y="306.6" width="26.86" height="26.86"/>
      <rect class="cls-5" x="576.06" y="279.74" width="26.86" height="26.86"/>
      <rect class="cls-5" x="576.06" y="252.87" width="26.86" height="26.87"/>
      <rect class="cls-5" x="576.06" y="226.01" width="26.86" height="26.86"/>
      <rect class="cls-9" x="549.19" y="387.19" width="26.87" height="26.86"/>
      <rect class="cls-9" x="549.19" y="360.33" width="26.87" height="26.86"/>
      <rect class="cls-11" x="549.19" y="333.47" width="26.87" height="26.86"/>
      <rect class="cls-9" x="549.19" y="333.46" width="26.87" height=".01"/>
      <rect class="cls-5" x="549.19" y="306.6" width="26.87" height="26.86"/>
      <rect class="cls-5" x="549.19" y="279.74" width="26.87" height="26.86"/>
      <rect class="cls-5" x="549.19" y="252.87" width="26.87" height="26.87"/>
      <rect class="cls-5" x="549.19" y="226.01" width="26.87" height="26.86"/>
      <rect class="cls-9" x="549.19" y="199.15" width="26.87" height="26.86"/>
      <rect class="cls-9" x="549.19" y="199.14" width="26.87" height=".01"/>
      <rect class="cls-11" x="549.19" y="172.28" width="26.87" height="26.86"/>
      <rect class="cls-9" x="522.33" y="440.92" width="26.86" height="26.86"/>
      <rect class="cls-9" x="522.33" y="414.06" width="26.86" height="26.86"/>
      <polygon class="cls-9" points="549.19 414.05 549.19 414.06 522.33 414.06 522.33 387.19 549.19 387.19 549.19 414.05"/>
      <rect class="cls-9" x="522.33" y="360.33" width="26.86" height="26.86"/>
      <rect class="cls-11" x="522.33" y="333.47" width="26.86" height="26.86"/>
      <rect class="cls-5" x="522.33" y="333.46" width="26.86" height=".01"/>
      <rect class="cls-5" x="522.33" y="306.6" width="26.86" height="26.86"/>
      <rect class="cls-5" x="522.33" y="279.74" width="26.86" height="26.86"/>
      <rect class="cls-5" x="522.33" y="252.87" width="26.86" height="26.87"/>
      <rect class="cls-5" x="522.33" y="226.01" width="26.86" height="26.86"/>
      <rect class="cls-5" x="522.33" y="199.15" width="26.86" height="26.86"/>
      <rect class="cls-9" x="522.33" y="199.14" width="26.86" height=".01"/>
      <rect class="cls-11" x="522.33" y="172.28" width="26.86" height="26.86"/>
      <rect class="cls-9" x="522.33" y="145.42" width="26.86" height="26.86"/>
      <polygon class="cls-9" points="549.19 145.41 549.19 145.42 522.33 145.42 522.33 118.55 549.19 118.55 549.19 145.41"/>
      <rect class="cls-11" x="495.46" y="467.79" width="26.87" height="26.86"/>
      <rect class="cls-6" x="495.46" y="467.78" width="26.87" height=".01"/>
      <rect class="cls-9" x="495.46" y="440.92" width="26.87" height="26.86"/>
      <rect class="cls-9" x="495.46" y="414.06" width="26.87" height="26.86"/>
      <polygon class="cls-7" points="522.33 387.19 522.33 414.06 495.46 414.06 495.46 414.05 495.46 387.19 522.33 387.19"/>
      <rect class="cls-11" x="495.46" y="360.33" width="26.87" height="26.86"/>
      <rect class="cls-11" x="495.46" y="333.47" width="26.87" height="26.86"/>
      <rect class="cls-3" x="495.46" y="333.46" width="26.87" height=".01"/>
      <rect class="cls-11" x="495.46" y="306.6" width="26.87" height="26.86"/>
      <rect class="cls-11" x="495.46" y="279.74" width="26.87" height="26.86"/>
      <rect class="cls-11" x="495.46" y="252.87" width="26.87" height="26.87"/>
      <rect class="cls-11" x="495.46" y="226.01" width="26.87" height="26.86"/>
      <rect class="cls-11" x="495.46" y="199.15" width="26.87" height="26.86"/>
      <rect class="cls-3" x="495.46" y="199.14" width="26.87" height=".01"/>
      <rect class="cls-11" x="495.46" y="172.28" width="26.87" height="26.86"/>
      <rect class="cls-7" x="495.46" y="145.42" width="26.87" height="26.86"/>
      <polygon class="cls-9" points="522.33 118.55 522.33 145.42 495.46 145.42 495.46 145.41 495.46 118.55 522.33 118.55"/>
      <rect class="cls-9" x="495.46" y="91.69" width="26.87" height="26.86"/>
      <rect class="cls-9" x="468.6" y="494.65" width="26.86" height="26.86"/>
      <rect class="cls-11" x="468.6" y="467.79" width="26.86" height="26.86"/>
      <rect class="cls-6" x="468.6" y="467.78" width="26.86" height=".01"/>
      <rect class="cls-11" x="468.6" y="440.92" width="26.86" height="26.86"/>
      <rect class="cls-11" x="468.6" y="414.06" width="26.86" height="26.86"/>
      <rect class="cls-6" x="468.6" y="414.05" width="26.86" height=".01"/>
      <rect class="cls-11" x="468.6" y="387.19" width="26.86" height="26.86"/>
      <rect class="cls-11" x="468.6" y="360.33" width="26.86" height="26.86"/>
      <polygon class="cls-8" points="495.46 333.47 495.46 360.33 468.6 360.33 468.6 333.46 495.46 333.46 495.46 333.47"/>
      <rect class="cls-7" x="468.6" y="306.6" width="26.86" height="26.86"/>
      <rect class="cls-8" x="468.6" y="279.74" width="26.86" height="26.86"/>
      <rect class="cls-8" x="468.6" y="252.87" width="26.86" height="26.87"/>
      <rect class="cls-8" x="468.6" y="226.01" width="26.86" height="26.86"/>
      <rect class="cls-11" x="468.6" y="199.15" width="26.86" height="26.86"/>
      <rect class="cls-3" x="468.6" y="199.14" width="26.86" height=".01"/>
      <rect class="cls-11" x="468.6" y="172.28" width="26.86" height="26.86"/>
      <rect class="cls-11" x="468.6" y="145.42" width="26.86" height="26.86"/>
      <rect class="cls-3" x="468.6" y="145.41" width="26.86" height="0"/>
      <rect class="cls-11" x="468.6" y="118.55" width="26.86" height="26.86"/>
      <rect class="cls-9" x="468.6" y="91.69" width="26.86" height="26.86"/>
      <rect class="cls-5" x="468.6" y="64.83" width="26.86" height="26.86"/>
      <rect class="cls-11" x="441.73" y="494.65" width="26.87" height="26.86"/>
      <rect class="cls-11" x="441.73" y="467.79" width="26.87" height="26.86"/>
      <rect class="cls-6" x="441.73" y="467.78" width="26.87" height=".01"/>
      <rect class="cls-9" x="441.73" y="440.92" width="26.87" height="26.86"/>
      <rect class="cls-7" x="441.73" y="414.06" width="26.87" height="26.86"/>
      <polygon class="cls-8" points="468.6 414.05 468.6 414.06 441.73 414.06 441.73 387.19 468.6 387.19 468.6 414.05"/>
      <rect class="cls-11" x="441.73" y="360.33" width="26.87" height="26.86"/>
      <rect class="cls-8" x="441.73" y="333.46" width="26.87" height="26.87"/>
      <rect class="cls-12" x="441.73" y="306.6" width="26.87" height="26.86"/>
      <rect class="cls-7" x="441.73" y="279.74" width="26.87" height="26.86"/>
      <rect class="cls-8" x="441.73" y="252.87" width="26.87" height="26.87"/>
      <rect class="cls-8" x="441.73" y="226.01" width="26.87" height="26.86"/>
      <rect class="cls-11" x="441.73" y="199.15" width="26.87" height="26.86"/>
      <rect class="cls-3" x="441.73" y="199.14" width="26.87" height=".01"/>
      <rect class="cls-8" x="441.73" y="172.28" width="26.87" height="26.86"/>
      <rect class="cls-8" x="441.73" y="145.42" width="26.87" height="26.86"/>
      <polygon class="cls-8" points="468.6 145.41 468.6 145.42 441.73 145.42 441.73 118.55 468.6 118.55 468.6 145.41"/>
      <rect class="cls-11" x="441.73" y="91.69" width="26.87" height="26.86"/>
      <rect class="cls-11" x="441.73" y="64.83" width="26.87" height="26.86"/>
      <rect class="cls-5" x="414.87" y="521.51" width="26.86" height="26.87"/>
      <rect class="cls-11" x="414.87" y="494.65" width="26.86" height="26.86"/>
      <rect class="cls-9" x="414.87" y="467.79" width="26.86" height="26.86"/>
      <polygon class="cls-7" points="441.73 467.78 441.73 467.79 414.87 467.79 414.87 440.92 441.73 440.92 441.73 467.78"/>
      <rect class="cls-8" x="414.87" y="414.06" width="26.86" height="26.86"/>
      <polygon class="cls-8" points="441.73 387.19 441.73 414.06 414.87 414.06 414.87 414.05 414.87 387.19 441.73 387.19"/>
      <rect class="cls-11" x="414.87" y="360.33" width="26.86" height="26.86"/>
      <polygon class="cls-8" points="441.73 333.46 441.73 360.33 414.87 360.33 414.87 333.47 414.87 333.46 441.73 333.46"/>
      <rect class="cls-12" x="414.87" y="306.6" width="26.86" height="26.86"/>
      <rect class="cls-8" x="414.87" y="279.74" width="26.86" height="26.86"/>
      <rect class="cls-8" x="414.87" y="252.87" width="26.86" height="26.87"/>
      <rect class="cls-8" x="414.87" y="226.01" width="26.86" height="26.86"/>
      <rect class="cls-11" x="414.87" y="199.15" width="26.86" height="26.86"/>
      <rect class="cls-3" x="414.87" y="199.14" width="26.86" height=".01"/>
      <rect class="cls-8" x="414.87" y="172.28" width="26.86" height="26.86"/>
      <rect class="cls-8" x="414.87" y="145.42" width="26.86" height="26.86"/>
      <polygon class="cls-8" points="441.73 118.55 441.73 145.42 414.87 145.42 414.87 145.41 414.87 118.55 441.73 118.55"/>
      <rect class="cls-8" x="414.87" y="91.69" width="26.86" height="26.86"/>
      <rect class="cls-5" x="414.87" y="64.83" width="26.86" height="26.86"/>
      <rect class="cls-4" x="414.87" y="64.82" width="26.86" height=".01"/>
      <rect class="cls-11" x="414.87" y="37.96" width="26.86" height="26.86"/>
      <rect class="cls-5" x="388.01" y="521.51" width="26.86" height="26.87"/>
      <rect class="cls-11" x="388.01" y="494.65" width="26.86" height="26.86"/>
      <rect class="cls-5" x="388.01" y="467.79" width="26.86" height="26.86"/>
      <polygon class="cls-8" points="414.87 440.92 414.87 467.79 388.01 467.79 388.01 467.78 388.01 440.92 414.87 440.92"/>
      <rect class="cls-11" x="388.01" y="414.06" width="26.86" height="26.86"/>
      <rect class="cls-6" x="388.01" y="414.05" width="26.86" height=".01"/>
      <rect class="cls-11" x="388.01" y="387.19" width="26.86" height="26.86"/>
      <rect class="cls-11" x="388.01" y="360.33" width="26.86" height="26.86"/>
      <rect class="cls-11" x="388.01" y="333.47" width="26.86" height="26.86"/>
      <rect class="cls-3" x="388.01" y="333.46" width="26.86" height=".01"/>
      <rect class="cls-11" x="388.01" y="306.6" width="26.86" height="26.86"/>
      <rect class="cls-11" x="388.01" y="279.74" width="26.86" height="26.86"/>
      <rect class="cls-11" x="388.01" y="252.87" width="26.86" height="26.87"/>
      <rect class="cls-11" x="388.01" y="226.01" width="26.86" height="26.86"/>
      <rect class="cls-11" x="388.01" y="199.15" width="26.86" height="26.86"/>
      <rect class="cls-3" x="388.01" y="199.14" width="26.86" height=".01"/>
      <rect class="cls-11" x="388.01" y="172.28" width="26.86" height="26.86"/>
      <rect class="cls-11" x="388.01" y="145.42" width="26.86" height="26.86"/>
      <rect class="cls-3" x="388.01" y="145.41" width="26.86" height="0"/>
      <rect class="cls-8" x="388.01" y="118.55" width="26.86" height="26.86"/>
      <rect class="cls-8" x="388.01" y="91.69" width="26.86" height="26.86"/>
      <rect class="cls-11" x="388.01" y="64.83" width="26.86" height="26.86"/>
      <rect class="cls-5" x="388.01" y="64.82" width="26.86" height=".01"/>
      <rect class="cls-2" x="388.01" y="37.96" width="26.86" height="26.86"/>
      <rect class="cls-5" x="361.14" y="548.38" width="26.87" height="26.86"/>
      <rect class="cls-5" x="361.14" y="521.51" width="26.87" height="26.87"/>
      <rect class="cls-11" x="361.14" y="494.65" width="26.87" height="26.86"/>
      <rect class="cls-11" x="361.14" y="467.79" width="26.87" height="26.86"/>
      <rect class="cls-6" x="361.14" y="467.78" width="26.87" height=".01"/>
      <rect class="cls-11" x="361.14" y="440.92" width="26.87" height="26.86"/>
      <rect class="cls-8" x="361.14" y="414.06" width="26.87" height="26.86"/>
      <polygon class="cls-8" points="388.01 414.05 388.01 414.06 361.14 414.06 361.14 387.19 388.01 387.19 388.01 414.05"/>
      <rect class="cls-11" x="361.14" y="360.33" width="26.87" height="26.86"/>
      <polygon class="cls-12" points="388.01 333.47 388.01 360.33 361.14 360.33 361.14 333.46 388.01 333.46 388.01 333.47"/>
      <rect class="cls-7" x="361.14" y="306.6" width="26.87" height="26.86"/>
      <rect class="cls-8" x="361.14" y="279.74" width="26.87" height="26.86"/>
      <rect class="cls-8" x="361.14" y="252.87" width="26.87" height="26.87"/>
      <rect class="cls-8" x="361.14" y="226.01" width="26.87" height="26.86"/>
      <rect class="cls-11" x="361.14" y="199.15" width="26.87" height="26.86"/>
      <rect class="cls-3" x="361.14" y="199.14" width="26.87" height=".01"/>
      <rect class="cls-8" x="361.14" y="172.28" width="26.87" height="26.86"/>
      <rect class="cls-8" x="361.14" y="145.42" width="26.87" height="26.86"/>
      <rect class="cls-8" x="361.14" y="145.41" width="26.87" height="0"/>
      <rect class="cls-11" x="361.14" y="118.55" width="26.87" height="26.86"/>
      <rect class="cls-11" x="361.14" y="91.69" width="26.87" height="26.86"/>
      <rect class="cls-11" x="361.14" y="64.83" width="26.87" height="26.86"/>
      <rect class="cls-5" x="361.14" y="64.82" width="26.87" height=".01"/>
      <rect class="cls-2" x="361.14" y="37.96" width="26.87" height="26.86"/>
      <rect class="cls-2" x="361.14" y="11.1" width="26.87" height="26.86"/>
      <rect class="cls-11" x="334.28" y="548.38" width="26.86" height="26.86"/>
      <rect class="cls-11" x="334.28" y="521.51" width="26.86" height="26.87"/>
      <rect class="cls-11" x="334.28" y="494.65" width="26.86" height="26.86"/>
      <rect class="cls-12" x="334.28" y="467.79" width="26.86" height="26.86"/>
      <polygon class="cls-12" points="361.14 467.78 361.14 467.79 334.28 467.79 334.28 440.92 361.14 440.92 361.14 467.78"/>
      <rect class="cls-8" x="334.28" y="414.06" width="26.86" height="26.86"/>
      <rect class="cls-8" x="334.28" y="387.19" width="26.86" height="26.87"/>
      <rect class="cls-11" x="334.28" y="360.33" width="26.86" height="26.86"/>
      <rect class="cls-12" x="334.28" y="333.46" width="26.86" height="26.87"/>
      <rect class="cls-7" x="334.28" y="306.6" width="26.86" height="26.86"/>
      <rect class="cls-7" x="334.28" y="279.74" width="26.86" height="26.86"/>
      <rect class="cls-12" x="334.28" y="252.87" width="26.86" height="26.87"/>
      <rect class="cls-8" x="334.28" y="226.01" width="26.86" height="26.86"/>
      <rect class="cls-11" x="334.28" y="199.15" width="26.86" height="26.86"/>
      <rect class="cls-3" x="334.28" y="199.14" width="26.86" height=".01"/>
      <rect class="cls-8" x="334.28" y="172.28" width="26.86" height="26.86"/>
      <rect class="cls-8" x="334.28" y="145.42" width="26.86" height="26.86"/>
      <polygon class="cls-8" points="361.14 145.41 361.14 145.42 334.28 145.42 334.28 118.55 361.14 118.55 361.14 145.41"/>
      <rect class="cls-8" x="334.28" y="91.69" width="26.86" height="26.86"/>
      <rect class="cls-11" x="334.28" y="64.83" width="26.86" height="26.86"/>
      <rect class="cls-4" x="334.28" y="64.82" width="26.86" height=".01"/>
      <rect class="cls-11" x="334.28" y="37.96" width="26.86" height="26.86"/>
      <rect class="cls-11" x="334.28" y="11.1" width="26.86" height="26.86"/>
      <rect class="cls-5" x="307.42" y="548.38" width="26.86" height="26.86"/>
      <rect class="cls-5" x="307.42" y="521.51" width="26.86" height="26.87"/>
      <rect class="cls-11" x="307.42" y="494.65" width="26.86" height="26.86"/>
      <rect class="cls-7" x="307.42" y="467.79" width="26.86" height="26.86"/>
      <rect class="cls-7" x="307.42" y="440.92" width="26.86" height="26.87"/>
      <rect class="cls-8" x="307.42" y="414.06" width="26.86" height="26.86"/>
      <rect class="cls-8" x="307.42" y="387.19" width="26.86" height="26.87"/>
      <rect class="cls-11" x="307.42" y="360.33" width="26.86" height="26.86"/>
      <rect class="cls-12" x="307.42" y="333.46" width="26.86" height="26.87"/>
      <rect class="cls-7" x="307.42" y="306.6" width="26.86" height="26.86"/>
      <rect class="cls-12" x="307.42" y="279.74" width="26.86" height="26.86"/>
      <rect class="cls-8" x="307.42" y="252.87" width="26.86" height="26.87"/>
      <rect class="cls-8" x="307.42" y="226.01" width="26.86" height="26.86"/>
      <rect class="cls-11" x="307.42" y="199.15" width="26.86" height="26.86"/>
      <rect class="cls-3" x="307.42" y="199.14" width="26.86" height=".01"/>
      <rect class="cls-8" x="307.42" y="172.28" width="26.86" height="26.86"/>
      <rect class="cls-8" x="307.42" y="145.42" width="26.86" height="26.86"/>
      <rect class="cls-8" x="307.42" y="118.55" width="26.86" height="26.87"/>
      <rect class="cls-8" x="307.42" y="91.69" width="26.86" height="26.86"/>
      <rect class="cls-11" x="307.42" y="64.83" width="26.86" height="26.86"/>
      <rect class="cls-2" x="307.42" y="64.82" width="26.86" height=".01"/>
      <rect class="cls-2" x="307.42" y="37.96" width="26.86" height="26.86"/>
      <rect class="cls-2" x="307.42" y="11.1" width="26.86" height="26.86"/>
      <rect class="cls-5" x="280.55" y="548.38" width="26.87" height="26.86"/>
      <rect class="cls-5" x="280.55" y="521.51" width="26.87" height="26.87"/>
      <rect class="cls-11" x="280.55" y="494.65" width="26.87" height="26.86"/>
      <rect class="cls-7" x="280.55" y="467.79" width="26.87" height="26.86"/>
      <rect class="cls-7" x="280.55" y="440.92" width="26.87" height="26.87"/>
      <rect class="cls-8" x="280.55" y="414.06" width="26.87" height="26.86"/>
      <rect class="cls-8" x="280.55" y="387.19" width="26.87" height="26.87"/>
      <rect class="cls-11" x="280.55" y="360.33" width="26.87" height="26.86"/>
      <rect class="cls-12" x="280.55" y="333.46" width="26.87" height="26.87"/>
      <rect class="cls-7" x="280.55" y="306.6" width="26.87" height="26.86"/>
      <rect class="cls-8" x="280.55" y="279.74" width="26.87" height="26.86"/>
      <rect class="cls-8" x="280.55" y="252.87" width="26.87" height="26.87"/>
      <rect class="cls-8" x="280.55" y="226.01" width="26.87" height="26.86"/>
      <rect class="cls-11" x="280.55" y="199.15" width="26.87" height="26.86"/>
      <rect class="cls-3" x="280.55" y="199.14" width="26.87" height=".01"/>
      <rect class="cls-12" x="280.55" y="172.28" width="26.87" height="26.86"/>
      <rect class="cls-12" x="280.55" y="145.42" width="26.87" height="26.86"/>
      <rect class="cls-12" x="280.55" y="118.55" width="26.87" height="26.87"/>
      <rect class="cls-10" x="280.55" y="91.69" width="26.87" height="26.86"/>
      <rect class="cls-11" x="280.55" y="64.83" width="26.87" height="26.86"/>
      <rect class="cls-10" x="280.55" y="64.82" width="26.87" height=".01"/>
      <rect class="cls-10" x="280.55" y="37.96" width="26.87" height="26.86"/>
      <rect class="cls-2" x="280.55" y="11.1" width="26.87" height="26.86"/>
      <rect class="cls-11" x="253.69" y="548.38" width="26.86" height="26.86"/>
      <rect class="cls-11" x="253.69" y="521.51" width="26.86" height="26.87"/>
      <rect class="cls-11" x="253.69" y="494.65" width="26.86" height="26.86"/>
      <rect class="cls-7" x="253.69" y="467.79" width="26.86" height="26.86"/>
      <polygon class="cls-7" points="280.55 440.92 280.55 467.79 253.69 467.79 253.69 467.78 253.69 440.92 280.55 440.92"/>
      <rect class="cls-8" x="253.69" y="414.06" width="26.86" height="26.86"/>
      <rect class="cls-8" x="253.69" y="387.19" width="26.86" height="26.87"/>
      <rect class="cls-11" x="253.69" y="360.33" width="26.86" height="26.86"/>
      <rect class="cls-12" x="253.69" y="333.46" width="26.86" height="26.87"/>
      <rect class="cls-7" x="253.69" y="306.6" width="26.86" height="26.86"/>
      <rect class="cls-8" x="253.69" y="279.74" width="26.86" height="26.86"/>
      <rect class="cls-8" x="253.69" y="252.87" width="26.86" height="26.87"/>
      <rect class="cls-8" x="253.69" y="226.01" width="26.86" height="26.86"/>
      <rect class="cls-11" x="253.69" y="199.15" width="26.86" height="26.86"/>
      <rect class="cls-3" x="253.69" y="199.14" width="26.86" height=".01"/>
      <rect class="cls-7" x="253.69" y="172.28" width="26.86" height="26.86"/>
      <rect class="cls-10" x="253.69" y="145.42" width="26.86" height="26.86"/>
      <polygon class="cls-10" points="280.55 118.55 280.55 145.42 253.69 145.42 253.69 145.41 253.69 118.55 280.55 118.55"/>
      <rect class="cls-10" x="253.69" y="91.69" width="26.86" height="26.86"/>
      <rect class="cls-11" x="253.69" y="64.83" width="26.86" height="26.86"/>
      <rect class="cls-4" x="253.69" y="64.82" width="26.86" height=".01"/>
      <rect class="cls-11" x="253.69" y="37.96" width="26.86" height="26.86"/>
      <rect class="cls-11" x="253.69" y="11.1" width="26.86" height="26.86"/>
      <rect class="cls-5" x="226.82" y="548.38" width="26.87" height="26.86"/>
      <rect class="cls-5" x="226.82" y="521.51" width="26.87" height="26.87"/>
      <rect class="cls-11" x="226.82" y="494.65" width="26.87" height="26.86"/>
      <rect class="cls-11" x="226.82" y="467.79" width="26.87" height="26.86"/>
      <rect class="cls-6" x="226.82" y="467.78" width="26.87" height=".01"/>
      <rect class="cls-11" x="226.82" y="440.92" width="26.87" height="26.86"/>
      <rect class="cls-7" x="226.82" y="414.06" width="26.87" height="26.86"/>
      <polygon class="cls-8" points="253.69 387.19 253.69 414.06 226.82 414.06 226.82 414.05 226.82 387.19 253.69 387.19"/>
      <rect class="cls-11" x="226.82" y="360.33" width="26.87" height="26.86"/>
      <polygon class="cls-7" points="253.69 333.46 253.69 360.33 226.82 360.33 226.82 333.47 226.82 333.46 253.69 333.46"/>
      <rect class="cls-7" x="226.82" y="306.6" width="26.87" height="26.86"/>
      <rect class="cls-8" x="226.82" y="279.74" width="26.87" height="26.86"/>
      <rect class="cls-8" x="226.82" y="252.87" width="26.87" height="26.87"/>
      <rect class="cls-12" x="226.82" y="226.01" width="26.87" height="26.86"/>
      <rect class="cls-11" x="226.82" y="199.15" width="26.87" height="26.86"/>
      <rect class="cls-3" x="226.82" y="199.14" width="26.87" height=".01"/>
      <rect class="cls-7" x="226.82" y="172.28" width="26.87" height="26.86"/>
      <rect class="cls-10" x="226.82" y="145.42" width="26.87" height="26.86"/>
      <rect class="cls-10" x="226.82" y="145.41" width="26.87" height="0"/>
      <rect class="cls-11" x="226.82" y="118.55" width="26.87" height="26.86"/>
      <rect class="cls-11" x="226.82" y="91.69" width="26.87" height="26.86"/>
      <rect class="cls-11" x="226.82" y="64.83" width="26.87" height="26.86"/>
      <rect class="cls-10" x="226.82" y="64.82" width="26.87" height=".01"/>
      <rect class="cls-10" x="226.82" y="37.96" width="26.87" height="26.86"/>
      <rect class="cls-10" x="226.82" y="11.1" width="26.87" height="26.86"/>
      <rect class="cls-5" x="199.96" y="521.51" width="26.86" height="26.87"/>
      <rect class="cls-11" x="199.96" y="494.65" width="26.86" height="26.86"/>
      <rect class="cls-8" x="199.96" y="467.79" width="26.86" height="26.86"/>
      <polygon class="cls-12" points="226.82 467.78 226.82 467.79 199.96 467.79 199.96 440.92 226.82 440.92 226.82 467.78"/>
      <rect class="cls-11" x="199.96" y="414.06" width="26.86" height="26.86"/>
      <rect class="cls-6" x="199.96" y="414.05" width="26.86" height=".01"/>
      <rect class="cls-11" x="199.96" y="387.19" width="26.86" height="26.86"/>
      <rect class="cls-11" x="199.96" y="360.33" width="26.86" height="26.86"/>
      <rect class="cls-11" x="199.96" y="333.47" width="26.86" height="26.86"/>
      <rect class="cls-3" x="199.96" y="333.46" width="26.86" height=".01"/>
      <rect class="cls-11" x="199.96" y="306.6" width="26.86" height="26.86"/>
      <rect class="cls-11" x="199.96" y="279.74" width="26.86" height="26.86"/>
      <rect class="cls-11" x="199.96" y="252.87" width="26.86" height="26.87"/>
      <rect class="cls-11" x="199.96" y="226.01" width="26.86" height="26.86"/>
      <rect class="cls-11" x="199.96" y="199.15" width="26.86" height="26.86"/>
      <rect class="cls-3" x="199.96" y="199.14" width="26.86" height=".01"/>
      <rect class="cls-11" x="199.96" y="172.28" width="26.86" height="26.86"/>
      <rect class="cls-11" x="199.96" y="145.42" width="26.86" height="26.86"/>
      <rect class="cls-3" x="199.96" y="145.41" width="26.86" height="0"/>
      <rect class="cls-10" x="199.96" y="118.55" width="26.86" height="26.86"/>
      <rect class="cls-10" x="199.96" y="91.69" width="26.86" height="26.86"/>
      <rect class="cls-11" x="199.96" y="64.83" width="26.86" height="26.86"/>
      <rect class="cls-10" x="199.96" y="64.82" width="26.86" height=".01"/>
      <rect class="cls-10" x="199.96" y="37.96" width="26.86" height="26.86"/>
      <rect class="cls-5" x="173.09" y="521.51" width="26.87" height="26.87"/>
      <rect class="cls-11" x="173.09" y="494.65" width="26.87" height="26.86"/>
      <rect class="cls-8" x="173.09" y="467.79" width="26.87" height="26.86"/>
      <polygon class="cls-12" points="199.96 440.92 199.96 467.79 173.09 467.79 173.09 467.78 173.09 440.92 199.96 440.92"/>
      <rect class="cls-7" x="173.09" y="414.06" width="26.87" height="26.86"/>
      <polygon class="cls-8" points="199.96 414.05 199.96 414.06 173.09 414.06 173.09 387.19 199.96 387.19 199.96 414.05"/>
      <rect class="cls-11" x="173.09" y="360.33" width="26.87" height="26.86"/>
      <polygon class="cls-8" points="199.96 333.47 199.96 360.33 173.09 360.33 173.09 333.46 199.96 333.46 199.96 333.47"/>
      <rect class="cls-8" x="173.09" y="306.6" width="26.87" height="26.86"/>
      <rect class="cls-8" x="173.09" y="279.74" width="26.87" height="26.86"/>
      <rect class="cls-8" x="173.09" y="252.87" width="26.87" height="26.87"/>
      <rect class="cls-8" x="173.09" y="226.01" width="26.87" height="26.86"/>
      <rect class="cls-11" x="173.09" y="199.15" width="26.87" height="26.86"/>
      <rect class="cls-3" x="173.09" y="199.14" width="26.87" height=".01"/>
      <rect class="cls-10" x="173.09" y="172.28" width="26.87" height="26.86"/>
      <rect class="cls-10" x="173.09" y="145.42" width="26.87" height="26.86"/>
      <polygon class="cls-10" points="199.96 145.41 199.96 145.42 173.09 145.42 173.09 118.55 199.96 118.55 199.96 145.41"/>
      <rect class="cls-10" x="173.09" y="91.69" width="26.87" height="26.86"/>
      <rect class="cls-10" x="173.09" y="64.83" width="26.87" height="26.86"/>
      <rect class="cls-4" x="173.09" y="64.82" width="26.87" height=".01"/>
      <rect class="cls-11" x="173.09" y="37.96" width="26.87" height="26.86"/>
      <rect class="cls-11" x="146.23" y="494.65" width="26.86" height="26.86"/>
      <rect class="cls-6" x="146.23" y="467.78" width="26.86" height=".01"/>
      <rect class="cls-12" x="146.23" y="440.92" width="26.86" height="26.86"/>
      <rect class="cls-7" x="146.23" y="414.06" width="26.86" height="26.86"/>
      <polygon class="cls-8" points="173.09 387.19 173.09 414.06 146.23 414.06 146.23 414.05 146.23 387.19 173.09 387.19"/>
      <rect class="cls-11" x="146.23" y="360.33" width="26.86" height="26.86"/>
      <rect class="cls-7" x="146.23" y="333.46" width="26.86" height="26.87"/>
      <rect class="cls-8" x="146.23" y="306.6" width="26.86" height="26.86"/>
      <rect class="cls-8" x="146.23" y="279.74" width="26.86" height="26.86"/>
      <rect class="cls-8" x="146.23" y="252.87" width="26.86" height="26.87"/>
      <rect class="cls-8" x="146.23" y="226.01" width="26.86" height="26.86"/>
      <rect class="cls-11" x="146.23" y="199.15" width="26.86" height="26.86"/>
      <rect class="cls-3" x="146.23" y="199.14" width="26.86" height=".01"/>
      <rect class="cls-10" x="146.23" y="172.28" width="26.86" height="26.86"/>
      <rect class="cls-10" x="146.23" y="145.42" width="26.86" height="26.86"/>
      <polygon class="cls-10" points="173.09 118.55 173.09 145.42 146.23 145.42 146.23 145.41 146.23 118.55 173.09 118.55"/>
      <rect class="cls-11" x="146.23" y="91.69" width="26.86" height="26.86"/>
      <rect class="cls-11" x="146.23" y="64.83" width="26.86" height="26.86"/>
      <rect class="cls-5" x="119.37" y="494.65" width="26.86" height="26.86"/>
      <rect class="cls-11" x="119.37" y="467.79" width="26.86" height="26.86"/>
      <rect class="cls-6" x="119.37" y="467.78" width="26.86" height=".01"/>
      <rect class="cls-11" x="119.37" y="440.92" width="26.86" height="26.86"/>
      <rect class="cls-11" x="119.37" y="414.06" width="26.86" height="26.86"/>
      <rect class="cls-6" x="119.37" y="414.05" width="26.86" height=".01"/>
      <rect class="cls-11" x="119.37" y="387.19" width="26.86" height="26.86"/>
      <rect class="cls-11" x="119.37" y="360.33" width="26.86" height="26.86"/>
      <polygon class="cls-8" points="146.23 333.46 146.23 360.33 119.37 360.33 119.37 333.47 119.37 333.46 146.23 333.46"/>
      <rect class="cls-8" x="119.37" y="306.6" width="26.86" height="26.86"/>
      <rect class="cls-8" x="119.37" y="279.74" width="26.86" height="26.86"/>
      <rect class="cls-8" x="119.37" y="252.87" width="26.86" height="26.87"/>
      <rect class="cls-10" x="119.37" y="226.01" width="26.86" height="26.86"/>
      <rect class="cls-11" x="119.37" y="199.15" width="26.86" height="26.86"/>
      <rect class="cls-3" x="119.37" y="199.14" width="26.86" height=".01"/>
      <rect class="cls-11" x="119.37" y="172.28" width="26.86" height="26.86"/>
      <rect class="cls-11" x="119.37" y="145.42" width="26.86" height="26.86"/>
      <rect class="cls-3" x="119.37" y="145.41" width="26.86" height="0"/>
      <rect class="cls-11" x="119.37" y="118.55" width="26.86" height="26.86"/>
      <rect class="cls-10" x="119.37" y="91.69" width="26.86" height="26.86"/>
      <rect class="cls-10" x="119.37" y="64.83" width="26.86" height="26.86"/>
      <rect class="cls-11" x="92.5" y="467.79" width="26.87" height="26.86"/>
      <rect class="cls-6" x="92.5" y="467.78" width="26.87" height=".01"/>
      <rect class="cls-8" x="92.5" y="440.92" width="26.87" height="26.86"/>
      <rect class="cls-8" x="92.5" y="414.06" width="26.87" height="26.86"/>
      <polygon class="cls-8" points="119.37 414.05 119.37 414.06 92.5 414.06 92.5 387.19 119.37 387.19 119.37 414.05"/>
      <rect class="cls-11" x="92.5" y="360.33" width="26.87" height="26.86"/>
      <rect class="cls-11" x="92.5" y="333.47" width="26.87" height="26.86"/>
      <rect class="cls-3" x="92.5" y="333.46" width="26.87" height=".01"/>
      <rect class="cls-11" x="92.5" y="306.6" width="26.87" height="26.86"/>
      <rect class="cls-11" x="92.5" y="279.74" width="26.87" height="26.86"/>
      <rect class="cls-11" x="92.5" y="252.87" width="26.87" height="26.87"/>
      <rect class="cls-11" x="92.5" y="226.01" width="26.87" height="26.86"/>
      <rect class="cls-11" x="92.5" y="199.15" width="26.87" height="26.86"/>
      <rect class="cls-3" x="92.5" y="199.14" width="26.87" height=".01"/>
      <rect class="cls-11" x="92.5" y="172.28" width="26.87" height="26.86"/>
      <rect class="cls-10" x="92.5" y="145.42" width="26.87" height="26.86"/>
      <polygon class="cls-10" points="119.37 145.41 119.37 145.42 92.5 145.42 92.5 118.55 119.37 118.55 119.37 145.41"/>
      <rect class="cls-10" x="92.5" y="91.69" width="26.87" height="26.86"/>
      <rect class="cls-2" x="65.64" y="440.92" width="26.86" height="26.86"/>
      <rect class="cls-2" x="65.64" y="414.06" width="26.86" height="26.86"/>
      <polygon class="cls-2" points="92.5 387.19 92.5 414.06 65.64 414.06 65.64 414.05 65.64 387.19 92.5 387.19"/>
      <rect class="cls-8" x="65.64" y="360.33" width="26.86" height="26.86"/>
      <rect class="cls-11" x="65.64" y="333.47" width="26.86" height="26.86"/>
      <rect class="cls-2" x="65.64" y="333.46" width="26.86" height=".01"/>
      <rect class="cls-8" x="65.64" y="306.6" width="26.86" height="26.86"/>
      <rect class="cls-8" x="65.64" y="279.74" width="26.86" height="26.86"/>
      <rect class="cls-2" x="65.64" y="252.87" width="26.86" height="26.87"/>
      <rect class="cls-2" x="65.64" y="226.01" width="26.86" height="26.86"/>
      <rect class="cls-2" x="65.64" y="199.15" width="26.86" height="26.86"/>
      <rect class="cls-10" x="65.64" y="199.14" width="26.86" height=".01"/>
      <rect class="cls-11" x="65.64" y="172.28" width="26.86" height="26.86"/>
      <rect class="cls-10" x="65.64" y="145.42" width="26.86" height="26.86"/>
      <polygon class="cls-10" points="92.5 118.55 92.5 145.42 65.64 145.42 65.64 145.41 65.64 118.55 92.5 118.55"/>
      <rect class="cls-2" x="38.78" y="387.19" width="26.86" height="26.86"/>
      <rect class="cls-2" x="38.78" y="360.33" width="26.86" height="26.86"/>
      <rect class="cls-11" x="38.78" y="333.47" width="26.86" height="26.86"/>
      <rect class="cls-2" x="38.78" y="333.46" width="26.86" height=".01"/>
      <rect class="cls-2" x="38.78" y="306.6" width="26.86" height="26.86"/>
      <rect class="cls-2" x="38.78" y="279.74" width="26.86" height="26.86"/>
      <rect class="cls-2" x="38.78" y="252.87" width="26.86" height="26.87"/>
      <rect class="cls-2" x="38.78" y="226.01" width="26.86" height="26.86"/>
      <rect class="cls-2" x="38.78" y="199.15" width="26.86" height="26.86"/>
      <rect class="cls-2" x="38.78" y="199.14" width="26.86" height=".01"/>
      <rect class="cls-11" x="38.78" y="172.28" width="26.86" height="26.86"/>
      <rect class="cls-2" x="11.91" y="333.47" width="26.87" height="26.86"/>
      <rect class="cls-6" x="11.91" y="333.46" width="26.87" height=".01"/>
      <rect class="cls-11" x="11.91" y="306.6" width="26.87" height="26.86"/>
      <rect class="cls-2" x="11.91" y="279.74" width="26.87" height="26.86"/>
      <rect class="cls-2" x="11.91" y="252.87" width="26.87" height="26.87"/>
      <rect class="cls-2" x="11.91" y="226.01" width="26.87" height="26.86"/>
    </g>
  </g>
</svg>