<?xml version="1.0" encoding="UTF-8"?>
<svg id="Layer_2" data-name="Layer 2" xmlns="http://www.w3.org/2000/svg" viewBox="0 0 50.67 63.34">
  <defs>
    <style>
      .cls-1, .cls-2, .cls-3, .cls-4, .cls-5 {
        stroke-width: 0px;
      }

      .cls-2 {
        fill: #4fb848;
      }

      .cls-3 {
        fill: #87d381;
      }

      .cls-4 {
        fill: #c66060;
      }

      .cls-5 {
        fill: #eb1616;
      }
    </style>
  </defs>
  <g id="Layer_2-2" data-name="Layer 2">
    <rect class="cls-2" x="6.33" y="6.33" width="19" height="25.34"/>
    <polygon class="cls-2" points="25.34 57 38 57 38 50.67 44.33 50.67 44.33 31.68 25.34 31.68 25.34 57"/>
    <rect class="cls-5" x="25.34" y="6.33" width="19" height="25.34"/>
    <polygon class="cls-5" points="6.33 50.67 12.67 50.67 12.67 57 25.34 57 25.34 31.68 6.33 31.68 6.33 50.67"/>
    <polygon class="cls-3" points="38 38 38 44.34 44.34 44.34 44.34 38 44.34 31.67 38 31.67 38 38"/>
    <rect class="cls-3" x="31.67" y="44.34" width="6.33" height="6.33"/>
    <rect class="cls-3" x="25.34" y="50.67" width="6.33" height="6.33"/>
    <polygon class="cls-3" points="25.34 6.33 19 6.33 12.67 6.33 6.33 6.33 6.33 12.67 12.67 12.67 19 12.67 25.34 12.67 25.34 6.33"/>
    <polygon class="cls-4" points="38 6.33 31.67 6.33 25.34 6.33 25.34 12.67 31.67 12.67 38 12.67 38 19 38 25.34 38 31.67 44.34 31.67 44.34 25.34 44.34 19 44.34 12.67 44.34 6.33 38 6.33"/>
  </g>
  <g id="Layer_1-2" data-name="Layer 1">
    <polygon class="cls-1" points="19 57.01 19 63.34 25.34 63.34 31.67 63.34 31.67 57.01 25.34 57.01 19 57.01"/>
    <rect class="cls-1" x="12.67" y="50.67" width="6.34" height="6.34"/>
    <polygon class="cls-1" points="0 12.67 0 19 0 25.34 0 31.67 0 38 0 44.34 6.33 44.34 6.33 50.67 12.67 50.67 12.67 44.33 6.33 44.33 6.33 38 6.33 31.67 6.33 25.34 6.33 19 6.33 12.67 6.33 6.33 0 6.33 0 12.67"/>
    <rect class="cls-1" x="38" y="44.33" width="6.34" height="6.34"/>
    <rect class="cls-1" x="31.68" y="50.67" width="6.32" height="6.34"/>
    <polygon class="cls-1" points="44.34 12.67 44.34 19 44.34 25.34 44.34 31.67 44.34 38 44.34 44.34 50.67 44.34 50.67 38 50.67 31.67 50.67 25.34 50.67 19 50.67 12.67 50.67 6.33 44.34 6.33 44.34 12.67"/>
    <polygon class="cls-1" points="38 0 31.67 0 25.34 0 19 0 12.67 0 6.33 0 6.33 6.33 12.67 6.33 19 6.33 25.34 6.33 31.67 6.33 38 6.33 44.34 6.33 44.34 0 38 0"/>
  </g>
</svg>