<?xml version="1.0" encoding="UTF-8"?>
<svg id="Layer_2" data-name="Layer 2" xmlns="http://www.w3.org/2000/svg" viewBox="0 0 1275.59 1275.59">
  <defs>
    <style>
      .cls-1 {
        fill: #1aa918;
      }

      .cls-1, .cls-2, .cls-3, .cls-4, .cls-5, .cls-6 {
        stroke-width: 0px;
      }

      .cls-1, .cls-2, .cls-3, .cls-4, .cls-6 {
        fill-rule: evenodd;
      }

      .cls-2 {
        fill: #149112;
      }

      .cls-3 {
        fill: #20c11d;
      }

      .cls-4 {
        fill: #26d923;
      }

      .cls-5 {
        fill: transparent;
      }
    </style>
  </defs>
  <g id="_ÎÓÈ_1" data-name="—ÎÓÈ_1">
    <g>
      <rect class="cls-5" width="1275.59" height="1275.59"/>
      <g>
        <g>
          <path class="cls-6" d="m824.7,824.64h-20.29v-20.23h20.29v20.23h0Zm186.9,21.42v-20.82h20.77v-20.83h20.77v-20.83h20.77v-104.13h-20.77v-20.83h-20.77v-41.65h20.77v-20.83h20.77v-104.13h-20.77v-20.83h-20.76v-20.83h-20.77v-20.82h-20.77v-20.83h-103.84v20.83h-41v-20.11h.06v-20.83h20.77v-103.84h-20.77v-20.83h-20.83v-20.77h-20.82v-20.77h-20.83v-20.77h-104.13v20.77h-20.83v20.77h-41.65v-20.77h-20.83v-20.77h-104.13v20.77h-20.83v20.76h-20.82v20.77h-20.83v20.83h-20.77v103.84h20.77v20.83h.06v20.11h-41v-20.83h-103.84v20.83h-20.77v20.82h-20.77v20.83h-20.76v20.83h-20.77v104.13h20.77v20.83h20.76v41.65s-20.76,0-20.76,0v20.83h-20.77v104.13h20.77v20.83h20.77v20.83h20.77v20.82h20.77v20.83h103.84v-20.83h41v20.11h-.06v20.83h-20.77v103.84h20.77v20.83h20.83v20.77h20.82v20.76h20.83v20.77h104.13v-20.77h20.83v-20.76h41.65s0,20.76,0,20.76h20.83v20.77h104.13v-20.77h20.83v-20.77h20.82v-20.76h20.83v-20.83h20.77v-103.84h-20.77v-20.83h-.06v-20.11h41v20.83h103.84v-20.83h20.76Zm-186.37-415.94h20.23v20.23h-20.23v-20.23h0Zm-374.34,394.52v-20.23h20.29v20.23h-20.29Zm394.57,20.82h-20.23v-20.23h20.23v20.23h0Zm-415.34-415.34h20.23v20.23h-20.23v-20.23h0Zm20.23,415.34h-20.23v-20.23h20.23v20.23h0Zm312.4-332.63v-20.35h20.41v20.35h-20.41Zm20.83-20.83v-20.29h20.35v20.29h-20.35Zm20.83-20.83v-20.23h20.29v20.23h-20.29Zm-353.52-20.23h20.29v20.23h-20.29v-20.23h0Zm20.77,20.77h20.35v20.29h-20.35v-20.29h0Zm20.77,20.77h20.41v20.35h-20.41v-20.35h0Zm-20.77,311.39v-20.29h20.35v20.29h-20.35Zm20.77-20.77v-20.35h20.41v20.35h-20.41Zm270.33-20.35h20.41v20.35h-20.41v-20.35h0Zm20.83,20.83h20.35v20.29h-20.35v-20.29Z"/>
          <path class="cls-4" d="m783.58,450.89h20.83v-20.77h20.83v-41.53h20.83v-103.84h-20.83v-20.77h-20.83v-20.77h-20.83v-20.77h-104.13v20.77h-20.83v20.77h-41.65v-20.77h-20.83v-20.77h-104.13v20.77h-20.83v20.77h-20.83v20.77h-20.83v103.84h20.83v41.53h20.83v20.77h20.83v20.77h20.83v20.77h20.83v41.24h-41.24v-20.83h-20.77v-20.83h-20.77v-20.83h-20.77v-20.83h-41.53v-20.83h-103.84v20.83h-20.77v20.83h-20.77v20.83h-20.77v104.13h20.77v20.83h20.77v41.65h-20.77v20.83h-20.77v104.13h20.77v20.83h20.77v20.83h20.77v20.83h103.84v-20.83h41.53v-20.83h20.77v-20.83h20.77v-20.83h20.77v-20.83h41.24v41.24h-20.83v20.77h-20.83v20.77h-20.83v20.77h-20.83v41.53h-20.83v103.84h20.83v20.77h20.83v20.77h20.83v20.77h104.13v-20.77h20.83v-20.77h41.65v20.77h20.83v20.77h104.13v-20.77h20.83v-20.77h20.83v-20.77h20.83v-103.84h-20.83v-41.53h-20.83v-20.77h-20.83v-20.77h-20.83v-20.77h-20.83v-41.24h41.24v20.83h20.77v20.83h20.77v20.83h20.77v20.83h41.53v20.83h103.84v-20.83h20.77v-20.83h20.77v-20.83h20.77v-104.13h-20.77v-20.83h-20.77v-41.65h20.77v-20.83h20.77v-104.13h-20.77v-20.83h-20.77v-20.83h-20.77v-20.83h-103.84v20.83h-41.53v20.83h-20.77v20.83h-20.77v20.83h-20.77v20.83h-41.24v-41.24h20.83v-20.77h20.83v-20.77h0Zm-249.62,83.07h20.53v20.53h-20.53v-20.53h0Zm20.77,20.77h20.59v20.59h-20.59v-20.59h0Zm20.77,20.77h20.65v20.65h-20.65v-20.65h0Zm20.77,20.77h20.71v20.71h-20.71v-20.71h0Zm20.71,62.36v20.71h-20.71v-20.71h20.71Zm-20.83,20.83v20.65h-20.65v-20.65h20.65Zm-20.83,20.83v20.59h-20.59v-20.59h20.59Zm-20.83,20.83v20.53h-20.53v-20.53h20.53Zm104.13-62.48h20.71v20.71h-20.71v-20.71h0Zm20.83,20.83h20.65v20.65h-20.65v-20.65h0Zm20.83,20.83h20.59v20.59h-20.59v-20.59h0Zm20.83,20.83h20.53v20.53h-20.53v-20.53h0Zm-62.48-104.13v-20.71h20.71v20.71h-20.71Zm20.83-20.83v-20.65h20.65v20.65h-20.65Zm20.83-20.83v-20.59h20.59v20.59h-20.59Zm20.83-20.83v-20.53h20.53v20.53h-20.53Z"/>
        </g>
        <g>
          <polygon class="cls-4" points="783.58 450.89 804.41 450.89 804.41 430.12 825.24 430.12 825.24 388.59 846.06 388.59 846.06 284.75 825.24 284.75 825.24 263.99 804.41 263.99 804.41 243.22 783.58 243.22 783.58 222.45 679.45 222.45 679.45 243.22 658.62 243.22 658.62 263.99 616.97 263.99 616.97 243.22 596.14 243.22 596.14 222.45 492.01 222.45 492.01 243.22 471.18 243.22 471.18 263.99 450.35 263.99 450.35 284.75 429.53 284.75 429.53 388.59 450.35 388.59 450.35 430.12 471.18 430.12 471.18 450.89 492.01 450.89 492.01 471.66 512.83 471.66 512.83 492.43 533.66 492.43 533.66 533.96 554.49 533.96 554.49 554.73 575.32 554.73 575.32 575.49 596.14 575.49 596.14 596.26 616.97 596.26 616.97 637.63 616.97 637.8 637.8 637.8 637.8 616.97 637.96 616.97 658.62 616.97 658.62 596.26 679.33 596.26 679.33 596.14 679.45 596.14 679.45 575.49 700.1 575.49 700.1 575.32 700.28 575.32 700.28 554.73 720.86 554.73 720.86 554.49 721.1 554.49 721.1 533.96 741.63 533.96 741.63 533.66 741.93 533.66 741.93 492.43 762.76 492.43 762.76 471.66 783.58 471.66 783.58 450.89"/>
          <polygon class="cls-3" points="824.7 783.58 824.7 804.41 845.47 804.41 845.47 825.24 887 825.24 887 846.06 990.84 846.06 990.84 825.24 1011.6 825.24 1011.6 804.41 1032.37 804.41 1032.37 783.58 1053.14 783.58 1053.14 679.45 1032.37 679.45 1032.37 658.62 1011.6 658.62 1011.6 616.97 1032.37 616.97 1032.37 596.14 1053.14 596.14 1053.14 492.01 1032.37 492.01 1032.37 471.18 1011.6 471.18 1011.6 450.35 990.84 450.35 990.84 429.53 887 429.53 887 450.35 845.47 450.35 845.47 471.18 824.7 471.18 824.7 492.01 803.93 492.01 803.93 512.83 783.17 512.83 783.17 533.66 741.63 533.66 741.63 554.49 720.86 554.49 720.86 575.32 700.1 575.32 700.1 596.14 679.33 596.14 679.33 616.97 637.96 616.97 637.8 616.97 637.8 637.8 658.62 637.8 658.62 637.96 658.62 658.62 679.33 658.62 679.33 679.33 679.45 679.33 679.45 679.45 700.1 679.45 700.1 700.1 700.28 700.1 700.28 700.28 720.86 700.28 720.86 720.86 721.1 720.86 721.1 721.1 741.63 721.1 741.63 741.63 741.93 741.63 741.93 741.93 783.17 741.93 783.17 762.76 803.93 762.76 803.93 783.58 824.7 783.58"/>
          <polygon class="cls-1" points="492.01 824.7 471.18 824.7 471.18 845.47 450.35 845.47 450.35 887 429.53 887 429.53 990.84 450.35 990.84 450.35 1011.6 471.18 1011.6 471.18 1032.37 492.01 1032.37 492.01 1053.14 596.14 1053.14 596.14 1032.37 616.97 1032.37 616.97 1011.6 658.62 1011.6 658.62 1032.37 679.45 1032.37 679.45 1053.14 783.58 1053.14 783.58 1032.37 804.41 1032.37 804.41 1011.6 825.24 1011.6 825.24 990.84 846.06 990.84 846.06 887 825.24 887 825.24 845.47 804.41 845.47 804.41 824.7 783.58 824.7 783.58 803.93 762.76 803.93 762.76 783.17 741.93 783.17 741.93 741.63 721.1 741.63 721.1 720.86 700.28 720.86 700.28 700.1 679.45 700.1 679.45 679.33 658.62 679.33 658.62 637.96 658.62 637.8 637.8 637.8 637.8 658.62 637.63 658.62 616.97 658.62 616.97 679.33 596.26 679.33 596.26 679.45 596.14 679.45 596.14 700.1 575.49 700.1 575.49 700.28 575.32 700.28 575.32 720.86 554.73 720.86 554.73 721.1 554.49 721.1 554.49 741.63 533.96 741.63 533.96 741.93 533.66 741.93 533.66 783.17 512.83 783.17 512.83 803.93 492.01 803.93 492.01 824.7"/>
          <polygon class="cls-2" points="450.89 492.01 450.89 471.18 430.12 471.18 430.12 450.35 388.59 450.35 388.59 429.53 284.75 429.53 284.75 450.35 263.99 450.35 263.99 471.18 243.22 471.18 243.22 492.01 222.45 492.01 222.45 596.14 243.22 596.14 243.22 616.97 263.99 616.97 263.99 658.62 243.22 658.62 243.22 679.45 222.45 679.45 222.45 783.58 243.22 783.58 243.22 804.41 263.99 804.41 263.99 825.24 284.75 825.24 284.75 846.06 388.59 846.06 388.59 825.24 430.12 825.24 430.12 804.41 450.89 804.41 450.89 783.58 471.66 783.58 471.66 762.76 492.43 762.76 492.43 741.93 533.96 741.93 533.96 721.1 554.73 721.1 554.73 700.28 575.49 700.28 575.49 679.45 596.26 679.45 596.26 658.62 637.63 658.62 637.8 658.62 637.8 637.8 616.97 637.8 616.97 637.63 616.97 616.97 596.26 616.97 596.26 596.26 596.14 596.26 596.14 596.14 575.49 596.14 575.49 575.49 575.32 575.49 575.32 575.32 554.73 575.32 554.73 554.73 554.49 554.73 554.49 554.49 533.96 554.49 533.96 533.96 533.66 533.96 533.66 533.66 492.43 533.66 492.43 512.83 471.66 512.83 471.66 492.01 450.89 492.01"/>
        </g>
        <g>
          <polygon class="cls-4" points="783.58 450.89 804.41 450.89 804.41 430.12 825.24 430.12 825.24 388.59 846.06 388.59 846.06 284.75 825.24 284.75 825.24 263.99 804.41 263.99 804.41 243.22 783.58 243.22 783.58 222.45 679.45 222.45 679.45 243.22 658.62 243.22 658.62 263.99 616.97 263.99 616.97 243.22 596.14 243.22 596.14 222.45 492.01 222.45 492.01 243.22 471.18 243.22 471.18 263.99 450.35 263.99 450.35 284.75 429.53 284.75 429.53 388.59 450.35 388.59 450.35 430.12 471.18 430.12 471.18 450.89 492.01 450.89 492.01 471.66 512.83 471.66 512.83 492.43 533.66 492.43 533.66 533.96 554.49 533.96 554.49 554.73 575.32 554.73 575.32 575.49 596.14 575.49 596.14 596.26 616.97 596.26 616.97 637.63 616.97 637.8 637.8 637.8 637.8 616.97 637.96 616.97 658.62 616.97 658.62 596.26 679.33 596.26 679.33 596.14 679.45 596.14 679.45 575.49 700.1 575.49 700.1 575.32 700.28 575.32 700.28 554.73 720.86 554.73 720.86 554.49 721.1 554.49 721.1 533.96 741.63 533.96 741.63 533.66 741.93 533.66 741.93 492.43 762.76 492.43 762.76 471.66 783.58 471.66 783.58 450.89"/>
          <polygon class="cls-3" points="824.7 783.58 824.7 804.41 845.47 804.41 845.47 825.24 887 825.24 887 846.06 990.84 846.06 990.84 825.24 1011.6 825.24 1011.6 804.41 1032.37 804.41 1032.37 783.58 1053.14 783.58 1053.14 679.45 1032.37 679.45 1032.37 658.62 1011.6 658.62 1011.6 616.97 1032.37 616.97 1032.37 596.14 1053.14 596.14 1053.14 492.01 1032.37 492.01 1032.37 471.18 1011.6 471.18 1011.6 450.35 990.84 450.35 990.84 429.53 887 429.53 887 450.35 845.47 450.35 845.47 471.18 824.7 471.18 824.7 492.01 803.93 492.01 803.93 512.83 783.17 512.83 783.17 533.66 741.63 533.66 741.63 554.49 720.86 554.49 720.86 575.32 700.1 575.32 700.1 596.14 679.33 596.14 679.33 616.97 637.96 616.97 637.8 616.97 637.8 637.8 658.62 637.8 658.62 637.96 658.62 658.62 679.33 658.62 679.33 679.33 679.45 679.33 679.45 679.45 700.1 679.45 700.1 700.1 700.28 700.1 700.28 700.28 720.86 700.28 720.86 720.86 721.1 720.86 721.1 721.1 741.63 721.1 741.63 741.63 741.93 741.63 741.93 741.93 783.17 741.93 783.17 762.76 803.93 762.76 803.93 783.58 824.7 783.58"/>
          <polygon class="cls-1" points="492.01 824.7 471.18 824.7 471.18 845.47 450.35 845.47 450.35 887 429.53 887 429.53 990.84 450.35 990.84 450.35 1011.6 471.18 1011.6 471.18 1032.37 492.01 1032.37 492.01 1053.14 596.14 1053.14 596.14 1032.37 616.97 1032.37 616.97 1011.6 658.62 1011.6 658.62 1032.37 679.45 1032.37 679.45 1053.14 783.58 1053.14 783.58 1032.37 804.41 1032.37 804.41 1011.6 825.24 1011.6 825.24 990.84 846.06 990.84 846.06 887 825.24 887 825.24 845.47 804.41 845.47 804.41 824.7 783.58 824.7 783.58 803.93 762.76 803.93 762.76 783.17 741.93 783.17 741.93 741.63 721.1 741.63 721.1 720.86 700.28 720.86 700.28 700.1 679.45 700.1 679.45 679.33 658.62 679.33 658.62 637.96 658.62 637.8 637.8 637.8 637.8 658.62 637.63 658.62 616.97 658.62 616.97 679.33 596.26 679.33 596.26 679.45 596.14 679.45 596.14 700.1 575.49 700.1 575.49 700.28 575.32 700.28 575.32 720.86 554.73 720.86 554.73 721.1 554.49 721.1 554.49 741.63 533.96 741.63 533.96 741.93 533.66 741.93 533.66 783.17 512.83 783.17 512.83 803.93 492.01 803.93 492.01 824.7"/>
          <polygon class="cls-2" points="450.89 492.01 450.89 471.18 430.12 471.18 430.12 450.35 388.59 450.35 388.59 429.53 284.75 429.53 284.75 450.35 263.99 450.35 263.99 471.18 243.22 471.18 243.22 492.01 222.45 492.01 222.45 596.14 243.22 596.14 243.22 616.97 263.99 616.97 263.99 658.62 243.22 658.62 243.22 679.45 222.45 679.45 222.45 783.58 243.22 783.58 243.22 804.41 263.99 804.41 263.99 825.24 284.75 825.24 284.75 846.06 388.59 846.06 388.59 825.24 430.12 825.24 430.12 804.41 450.89 804.41 450.89 783.58 471.66 783.58 471.66 762.76 492.43 762.76 492.43 741.93 533.96 741.93 533.96 721.1 554.73 721.1 554.73 700.28 575.49 700.28 575.49 679.45 596.26 679.45 596.26 658.62 637.63 658.62 637.8 658.62 637.8 637.8 616.97 637.8 616.97 637.63 616.97 616.97 596.26 616.97 596.26 596.26 596.14 596.26 596.14 596.14 575.49 596.14 575.49 575.49 575.32 575.49 575.32 575.32 554.73 575.32 554.73 554.73 554.49 554.73 554.49 554.49 533.96 554.49 533.96 533.96 533.66 533.96 533.66 533.66 492.43 533.66 492.43 512.83 471.66 512.83 471.66 492.01 450.89 492.01"/>
        </g>
      </g>
    </g>
  </g>
</svg>
