<?xml version="1.0" encoding="UTF-8"?>
<svg id="Layer_2" data-name="Layer 2" xmlns="http://www.w3.org/2000/svg" viewBox="0 0 119.02 86.95">
  <defs>
    <style>
      .cls-1, .cls-2, .cls-3, .cls-4, .cls-5 {
        stroke-width: 0px;
      }

      .cls-2 {
        fill: #4fb848;
      }

      .cls-3 {
        fill: #87d381;
      }

      .cls-4 {
        fill: #c66060;
      }

      .cls-5 {
        fill: #eb1616;
      }
    </style>
  </defs>
  <g id="Layer_2-2" data-name="Layer 2">
    <polygon class="cls-2" points="101.1 49.27 87.66 62.71 83.18 58.23 74.23 67.18 78.71 71.66 78.68 71.69 83.16 76.17 87.66 71.66 92.14 76.14 114.54 53.75 110.06 49.27 114.54 44.79 110.06 40.31 114.54 35.83 110.06 31.35 96.62 44.79 101.1 49.27"/>
    <polygon class="cls-2" points="87.66 17.92 83.19 13.44 78.71 17.92 74.23 13.44 78.71 8.96 74.23 4.48 56.31 22.4 60.79 26.87 60.76 26.9 65.24 31.38 69.72 35.86 69.75 35.83 74.23 40.31 78.71 35.83 74.23 31.35 78.71 26.87 83.19 31.35 87.66 26.87 101.1 40.31 110.06 31.35 92.14 13.44 87.66 17.92"/>
    <polygon class="cls-3" points="78.71 8.96 74.23 4.48 69.75 8.96 65.27 13.44 60.79 17.92 56.31 22.4 60.79 26.87 65.27 22.39 69.75 17.92 74.23 22.39 78.71 17.92 74.23 13.44 78.71 8.96"/>
    <rect class="cls-3" x="80.02" y="14.75" width="6.33" height="6.33" transform="translate(11.7 64.07) rotate(-45)"/>
    <polygon class="cls-3" points="87.66 17.92 92.14 22.39 96.62 26.87 101.1 31.35 105.58 35.83 110.06 40.31 114.54 35.83 110.06 31.35 105.58 26.87 101.1 22.39 96.62 17.92 92.14 13.44 87.66 17.92"/>
    <polygon class="cls-3" points="74.23 67.18 78.71 71.66 83.18 67.18 87.66 62.71 83.18 58.23 78.71 62.71 74.23 67.18"/>
    <polygon class="cls-5" points="17.92 37.69 31.35 24.25 35.83 28.73 44.79 19.77 40.31 15.29 40.34 15.26 35.86 10.79 31.35 15.29 26.87 10.81 4.48 33.21 8.96 37.69 4.48 42.17 8.96 46.64 4.48 51.12 8.96 55.6 22.39 42.17 17.92 37.69"/>
    <polygon class="cls-5" points="31.35 69.04 35.83 73.52 40.31 69.04 44.79 73.52 40.31 78 44.79 82.48 62.7 64.56 58.23 60.08 58.25 60.05 53.77 55.57 49.3 51.1 49.27 51.12 44.79 46.64 40.31 51.12 44.79 55.6 40.31 60.08 35.83 55.6 31.35 60.08 17.92 46.64 8.96 55.6 26.87 73.52 31.35 69.04"/>
    <polygon class="cls-4" points="40.31 78 44.79 82.48 49.27 78 53.75 73.52 58.23 69.04 62.7 64.56 58.23 60.08 53.75 64.56 49.27 69.04 44.79 64.56 40.31 69.04 44.79 73.52 40.31 78"/>
    <rect class="cls-4" x="32.66" y="65.87" width="6.33" height="6.33" transform="translate(-38.32 45.56) rotate(-45)"/>
    <polygon class="cls-4" points="31.35 69.04 26.87 64.56 22.39 60.08 17.92 55.6 13.44 51.12 8.96 46.64 4.48 51.12 8.96 55.6 13.44 60.08 17.92 64.56 22.39 69.04 26.87 73.52 31.35 69.04"/>
    <polygon class="cls-4" points="44.79 19.77 40.31 15.29 35.83 19.77 31.35 24.25 35.83 28.73 40.31 24.25 44.79 19.77"/>
  </g>
  <g id="Layer_1-2" data-name="Layer 1">
    <polygon class="cls-1" points="101.1 76.14 105.58 71.66 110.06 67.18 114.54 62.7 119.02 58.23 114.54 53.75 110.06 58.23 105.58 62.7 101.1 67.18 96.62 71.66 92.14 76.14 96.62 80.62 101.1 76.14"/>
    <rect class="cls-1" x="84.5" y="72.97" width="6.33" height="6.33" transform="translate(-28.16 84.29) rotate(-45)"/>
    <polygon class="cls-1" points="78.71 71.66 74.23 67.18 69.75 71.66 74.23 76.14 78.71 80.62 83.18 76.14 78.71 71.66"/>
    <polygon class="cls-1" points="83.18 58.23 78.71 53.75 74.23 58.23 69.75 62.71 74.23 67.18 78.71 62.71 83.18 58.23"/>
    <polygon class="cls-1" points="92.14 58.23 96.62 53.75 101.1 49.27 96.62 44.79 92.14 49.27 87.66 53.75 83.18 58.23 87.66 62.7 92.14 58.23"/>
    <rect class="cls-1" x="111.37" y="46.1" width="6.33" height="6.33" transform="translate(-1.29 95.42) rotate(-45)"/>
    <rect class="cls-1" x="111.37" y="37.14" width="6.33" height="6.33" transform="translate(5.04 92.8) rotate(-45)"/>
    <polygon class="cls-1" points="114.54 26.87 110.06 22.39 105.58 17.92 101.1 13.44 96.62 8.96 92.14 13.44 96.62 17.92 101.1 22.39 105.58 26.87 110.06 31.35 114.54 35.83 119.02 31.35 114.54 26.87"/>
    <polygon class="cls-1" points="92.14 40.31 92.14 40.31 96.62 44.79 101.1 40.31 96.62 35.83 96.62 35.83 92.14 31.35 87.66 26.87 83.19 31.35 87.66 35.83 92.14 40.31"/>
    <rect class="cls-1" x="84.5" y="10.27" width="6.33" height="6.33" transform="translate(16.18 65.92) rotate(-45)"/>
    <rect class="cls-1" x="75.54" y="10.27" width="6.33" height="6.33" transform="translate(13.55 59.59) rotate(-45)"/>
    <rect class="cls-1" x="75.54" y="1.31" width="6.33" height="6.33" transform="translate(19.89 56.97) rotate(-45)"/>
    <polygon class="cls-1" points="65.27 4.48 60.79 8.96 56.31 13.44 51.83 17.92 56.31 22.4 60.79 17.92 65.27 13.44 69.75 8.96 74.23 4.48 69.75 0 65.27 4.48"/>
    <polygon class="cls-1" points="56.31 31.35 60.79 35.83 65.27 40.31 69.75 44.79 74.23 40.31 69.75 35.83 65.27 31.35 60.79 26.87 56.31 22.4 51.83 26.87 56.31 31.35"/>
    <rect class="cls-1" x="75.54" y="37.14" width="6.33" height="6.33" transform="translate(-5.45 67.46) rotate(-45)"/>
    <rect class="cls-1" x="75.54" y="28.19" width="6.33" height="6.33" transform="translate(.88 64.84) rotate(-45)"/>
    <polygon class="cls-1" points="17.92 10.81 13.44 15.29 8.96 19.77 4.48 24.25 0 28.73 4.48 33.21 8.96 28.73 13.44 24.25 17.92 19.77 22.4 15.29 26.87 10.81 22.4 6.33 17.92 10.81"/>
    <rect class="cls-1" x="28.19" y="7.65" width="6.33" height="6.33" transform="translate(1.54 25.34) rotate(-45)"/>
    <polygon class="cls-1" points="40.31 15.29 44.79 19.77 49.27 15.29 44.79 10.81 40.31 6.33 35.83 10.81 40.31 15.29"/>
    <polygon class="cls-1" points="35.83 28.73 40.31 33.21 44.79 28.73 49.27 24.25 44.79 19.77 40.31 24.25 35.83 28.73"/>
    <polygon class="cls-1" points="26.87 28.73 22.39 33.21 17.92 37.69 22.39 42.17 26.87 37.69 31.35 33.21 35.83 28.73 31.35 24.25 26.87 28.73"/>
    <rect class="cls-1" x="1.31" y="34.52" width="6.33" height="6.33" transform="translate(-25.34 14.21) rotate(-45)"/>
    <rect class="cls-1" x="1.31" y="43.48" width="6.33" height="6.33" transform="translate(-31.67 16.83) rotate(-45)"/>
    <polygon class="cls-1" points="4.48 60.08 8.96 64.56 13.44 69.04 17.92 73.52 22.39 78 26.87 73.52 22.39 69.04 17.92 64.56 13.44 60.08 8.96 55.6 4.48 51.12 0 55.6 4.48 60.08"/>
    <polygon class="cls-1" points="26.87 46.64 26.87 46.64 22.39 42.17 17.92 46.64 22.39 51.12 22.39 51.12 26.87 55.6 31.35 60.08 35.83 55.6 31.35 51.12 26.87 46.64"/>
    <rect class="cls-1" x="28.19" y="70.35" width="6.33" height="6.33" transform="translate(-42.8 43.7) rotate(-45)"/>
    <rect class="cls-1" x="37.14" y="70.35" width="6.33" height="6.33" transform="translate(-40.18 50.04) rotate(-45)"/>
    <rect class="cls-1" x="37.14" y="79.31" width="6.33" height="6.33" transform="translate(-46.51 52.66) rotate(-45)"/>
    <polygon class="cls-1" points="53.75 82.48 58.23 78 62.7 73.52 67.18 69.04 62.7 64.56 58.23 69.04 53.75 73.52 49.27 78 44.79 82.48 49.27 86.95 53.75 82.48"/>
    <polygon class="cls-1" points="62.7 55.6 58.23 51.12 53.75 46.64 49.27 42.17 44.79 46.64 49.27 51.12 53.75 55.6 58.23 60.08 62.7 64.56 67.18 60.08 62.7 55.6"/>
    <rect class="cls-1" x="37.14" y="43.48" width="6.33" height="6.33" transform="translate(-21.18 42.17) rotate(-45)"/>
    <rect class="cls-1" x="37.14" y="52.44" width="6.33" height="6.33" transform="translate(-27.51 44.79) rotate(-45)"/>
  </g>
</svg>