<?xml version="1.0" encoding="UTF-8"?>
<svg id="Layer_2" data-name="Layer 2" xmlns="http://www.w3.org/2000/svg" viewBox="0 0 14 14">
  <defs>
    <style>
      .cls-1 {
        fill: #231e2b;
      }

      .cls-1, .cls-2, .cls-3, .cls-4 {
        stroke-width: 0px;
      }

      .cls-2 {
        fill: #e2b436;
      }

      .cls-3 {
        fill: #cf8934;
      }

      .cls-4 {
        fill: #f5f38e;
      }
    </style>
  </defs>
  <g id="Layer_1-2" data-name="Layer 1">
    <g>
      <rect class="cls-1" x="11" y="13" width="1" height="1"/>
      <rect class="cls-1" x="2" y="13" width="1" height="1"/>
      <rect class="cls-2" x="11" y="12" width="1" height="1"/>
      <rect class="cls-1" x="9" y="12" width="2" height="1"/>
      <rect class="cls-1" x="3" y="12" width="2" height="1"/>
      <rect class="cls-3" x="2" y="12" width="1" height="1"/>
      <rect class="cls-1" x="1" y="11" width="1" height="2"/>
      <rect class="cls-1" x="12" y="11" width="1" height="2"/>
      <rect class="cls-4" x="11" y="11" width="1" height="1"/>
      <rect class="cls-2" x="10" y="11" width="1" height="1"/>
      <rect class="cls-3" x="9" y="11" width="1" height="1"/>
      <rect class="cls-1" x="5" y="11" width="4" height="1"/>
      <rect class="cls-3" x="4" y="11" width="1" height="1"/>
      <rect class="cls-2" x="3" y="11" width="1" height="1"/>
      <rect class="cls-4" x="2" y="11" width="1" height="1"/>
      <rect class="cls-3" x="5" y="10" width="3" height="1"/>
      <rect class="cls-1" x="2" y="7" width="1" height="4"/>
      <rect class="cls-4" x="10" y="9" width="1" height="2"/>
      <rect class="cls-4" x="3" y="9" width="1" height="2"/>
      <polygon class="cls-3" points="5 9 5 8 4 8 4 7 3 7 3 9 5 9"/>
      <rect class="cls-1" x="11" y="7" width="1" height="4"/>
      <polygon class="cls-3" points="10 8 9 8 9 9 11 9 11 7 10 7 10 8"/>
      <rect class="cls-1" x="12" y="6" width="1" height="1"/>
      <rect class="cls-3" x="11" y="6" width="1" height="1"/>
      <polygon class="cls-2" points="3 6 3 7 4 7 4 8 5 8 5 9 4 9 4 11 5 11 5 10 8 10 8 11 10 11 10 9 9 9 9 8 10 8 10 7 11 7 11 6 10 6 10 5 9 5 9 4 8 4 8 3 6 3 6 4 5 4 5 5 4 5 4 6 3 6"/>
      <rect class="cls-3" x="2" y="6" width="1" height="1"/>
      <rect class="cls-1" x="1" y="6" width="1" height="1"/>
      <rect class="cls-1" x="13" y="5" width="1" height="1"/>
      <rect class="cls-4" x="10" y="5" width="3" height="1"/>
      <rect class="cls-4" x="1" y="5" width="3" height="1"/>
      <rect class="cls-1" y="5" width="1" height="1"/>
      <rect class="cls-1" x="10" y="4" width="3" height="1"/>
      <rect class="cls-4" x="9" y="4" width="1" height="1"/>
      <rect class="cls-3" x="4" y="4" width="1" height="1"/>
      <rect class="cls-1" x="1" y="4" width="3" height="1"/>
      <rect class="cls-1" x="9" y="3" width="1" height="1"/>
      <rect class="cls-4" x="8" y="3" width="1" height="1"/>
      <rect class="cls-3" x="5" y="3" width="1" height="1"/>
      <rect class="cls-1" x="4" y="3" width="1" height="1"/>
      <polygon class="cls-4" points="8 3 8 1 7 1 7 2 6 2 6 3 8 3"/>
      <rect class="cls-1" x="5" y="2" width="1" height="1"/>
      <rect class="cls-1" x="8" y="1" width="1" height="2"/>
      <rect class="cls-1" x="6" y="1" width="1" height="1"/>
      <rect class="cls-1" x="7" width="1" height="1"/>
    </g>
  </g>
</svg>