<?xml version="1.0" encoding="UTF-8"?>
<svg id="Layer_2" data-name="Layer 2" xmlns="http://www.w3.org/2000/svg" viewBox="0 0 2228.57 2228.57">
  <defs>
    <style>
      .cls-1 {
        fill: #74b65f;
      }

      .cls-1, .cls-2, .cls-3, .cls-4, .cls-5, .cls-6, .cls-7, .cls-8, .cls-9 {
        stroke-width: 0px;
      }

      .cls-2 {
        fill: #468430;
      }

      .cls-3 {
        fill: #82c66a;
      }

      .cls-4 {
        fill: #201600;
      }

      .cls-5 {
        fill: #cbffb0;
      }

      .cls-6 {
        fill: #abf48e;
      }

      .cls-7 {
        fill: #84d366;
      }

      .cls-8 {
        fill: #fff;
      }

      .cls-9 {
        fill: #68a350;
      }
    </style>
  </defs>
  <g id="Layer_1-2" data-name="Layer 1">
    <g>
      <rect class="cls-4" x="2142.86" y="1199.99" width="85.71" height="85.73"/>
      <rect class="cls-4" x="2142.86" y="1114.28" width="85.71" height="85.71"/>
      <rect class="cls-4" x="2142.86" y="1028.58" width="85.71" height="85.71"/>
      <rect class="cls-4" x="2142.86" y="942.85" width="85.71" height="85.73"/>
      <rect class="cls-4" x="2057.13" y="1457.13" width="85.73" height="85.73"/>
      <rect class="cls-4" x="2057.13" y="1371.42" width="85.73" height="85.71"/>
      <rect class="cls-4" x="2057.13" y="1285.72" width="85.73" height="85.71"/>
      <rect class="cls-1" x="2057.13" y="1199.99" width="85.73" height="85.73"/>
      <rect class="cls-1" x="2057.13" y="1114.28" width="85.73" height="85.71"/>
      <rect class="cls-1" x="2057.13" y="1028.58" width="85.73" height="85.71"/>
      <rect class="cls-1" x="2057.13" y="942.85" width="85.73" height="85.73"/>
      <rect class="cls-4" x="2057.13" y="857.14" width="85.73" height="85.71"/>
      <rect class="cls-4" x="2057.13" y="771.42" width="85.73" height="85.73"/>
      <rect class="cls-4" x="2057.13" y="685.71" width="85.73" height="85.71"/>
      <rect class="cls-4" x="1971.43" y="1628.56" width="85.71" height="85.73"/>
      <rect class="cls-4" x="1971.43" y="1542.86" width="85.71" height="85.71"/>
      <rect class="cls-9" x="1971.43" y="1457.13" width="85.71" height="85.73"/>
      <rect class="cls-1" x="1971.43" y="1371.42" width="85.71" height="85.71"/>
      <rect class="cls-1" x="1971.43" y="1285.72" width="85.71" height="85.71"/>
      <rect class="cls-1" x="1971.43" y="1199.99" width="85.71" height="85.73"/>
      <rect class="cls-1" x="1971.43" y="1114.28" width="85.71" height="85.71"/>
      <rect class="cls-1" x="1971.43" y="1028.58" width="85.71" height="85.71"/>
      <rect class="cls-1" x="1971.43" y="942.85" width="85.71" height="85.73"/>
      <rect class="cls-1" x="1971.43" y="857.14" width="85.71" height="85.71"/>
      <rect class="cls-1" x="1971.43" y="771.42" width="85.71" height="85.73"/>
      <rect class="cls-3" x="1971.43" y="685.71" width="85.71" height="85.71"/>
      <rect class="cls-4" x="1971.43" y="600.01" width="85.71" height="85.71"/>
      <rect class="cls-4" x="1971.43" y="514.28" width="85.71" height="85.73"/>
      <rect class="cls-4" x="1885.7" y="1714.29" width="85.73" height="85.71"/>
      <rect class="cls-2" x="1885.7" y="1628.56" width="85.73" height="85.73"/>
      <rect class="cls-9" x="1885.7" y="1542.86" width="85.73" height="85.71"/>
      <rect class="cls-1" x="1885.7" y="1457.13" width="85.73" height="85.73"/>
      <rect class="cls-1" x="1885.7" y="1371.42" width="85.73" height="85.71"/>
      <rect class="cls-1" x="1885.7" y="1285.72" width="85.73" height="85.71"/>
      <rect class="cls-1" x="1885.7" y="1199.99" width="85.73" height="85.73"/>
      <rect class="cls-1" x="1885.7" y="1114.28" width="85.73" height="85.71"/>
      <rect class="cls-1" x="1885.7" y="1028.58" width="85.73" height="85.71"/>
      <rect class="cls-1" x="1885.7" y="942.85" width="85.73" height="85.73"/>
      <rect class="cls-1" x="1885.7" y="857.14" width="85.73" height="85.71"/>
      <rect class="cls-1" x="1885.7" y="771.42" width="85.73" height="85.73"/>
      <rect class="cls-1" x="1885.7" y="685.71" width="85.73" height="85.71"/>
      <rect class="cls-3" x="1885.7" y="600.01" width="85.73" height="85.71"/>
      <rect class="cls-7" x="1885.7" y="514.28" width="85.73" height="85.73"/>
      <rect class="cls-4" x="1885.7" y="428.57" width="85.73" height="85.71"/>
      <rect class="cls-4" x="1799.99" y="1799.99" width="85.71" height="85.71"/>
      <rect class="cls-2" x="1799.99" y="1714.29" width="85.71" height="85.71"/>
      <rect class="cls-9" x="1799.99" y="1628.56" width="85.71" height="85.73"/>
      <rect class="cls-1" x="1799.99" y="1542.86" width="85.71" height="85.71"/>
      <rect class="cls-1" x="1799.99" y="1457.13" width="85.71" height="85.73"/>
      <rect class="cls-1" x="1799.99" y="1371.42" width="85.71" height="85.71"/>
      <rect class="cls-1" x="1799.99" y="1285.72" width="85.71" height="85.71"/>
      <rect class="cls-1" x="1799.99" y="1199.99" width="85.71" height="85.73"/>
      <rect class="cls-1" x="1799.99" y="1114.28" width="85.71" height="85.71"/>
      <rect class="cls-1" x="1799.99" y="1028.58" width="85.71" height="85.71"/>
      <rect class="cls-1" x="1799.99" y="942.85" width="85.71" height="85.73"/>
      <rect class="cls-8" x="1799.99" y="857.14" width="85.71" height="85.71"/>
      <rect class="cls-1" x="1799.99" y="771.42" width="85.71" height="85.73"/>
      <rect class="cls-1" x="1799.99" y="685.71" width="85.71" height="85.71"/>
      <rect class="cls-1" x="1799.99" y="600.01" width="85.71" height="85.71"/>
      <rect class="cls-3" x="1799.99" y="514.28" width="85.71" height="85.73"/>
      <rect class="cls-7" x="1799.99" y="428.57" width="85.71" height="85.71"/>
      <rect class="cls-4" x="1799.99" y="342.84" width="85.71" height="85.73"/>
      <rect class="cls-4" x="1714.29" y="1885.7" width="85.71" height="85.73"/>
      <rect class="cls-2" x="1714.29" y="1799.99" width="85.71" height="85.71"/>
      <rect class="cls-9" x="1714.29" y="1714.29" width="85.71" height="85.71"/>
      <rect class="cls-1" x="1714.29" y="1628.56" width="85.71" height="85.73"/>
      <rect class="cls-1" x="1714.29" y="1542.86" width="85.71" height="85.71"/>
      <rect class="cls-1" x="1714.29" y="1457.13" width="85.71" height="85.73"/>
      <rect class="cls-1" x="1714.29" y="1371.42" width="85.71" height="85.71"/>
      <rect class="cls-1" x="1714.29" y="1285.72" width="85.71" height="85.71"/>
      <rect class="cls-1" x="1714.29" y="1199.99" width="85.71" height="85.73"/>
      <rect class="cls-1" x="1714.29" y="1114.28" width="85.71" height="85.71"/>
      <rect class="cls-1" x="1714.29" y="1028.58" width="85.71" height="85.71"/>
      <rect class="cls-8" x="1714.29" y="942.85" width="85.71" height="85.73"/>
      <rect class="cls-8" x="1714.29" y="857.14" width="85.71" height="85.71"/>
      <rect class="cls-8" x="1714.29" y="771.42" width="85.71" height="85.73"/>
      <rect class="cls-1" x="1714.29" y="685.71" width="85.71" height="85.71"/>
      <rect class="cls-1" x="1714.29" y="600.01" width="85.71" height="85.71"/>
      <rect class="cls-1" x="1714.29" y="514.28" width="85.71" height="85.73"/>
      <rect class="cls-3" x="1714.29" y="428.57" width="85.71" height="85.71"/>
      <rect class="cls-7" x="1714.29" y="342.84" width="85.71" height="85.73"/>
      <rect class="cls-4" x="1714.29" y="257.14" width="85.71" height="85.71"/>
      <rect class="cls-4" x="1628.56" y="1971.43" width="85.73" height="85.71"/>
      <rect class="cls-2" x="1628.56" y="1885.7" width="85.73" height="85.73"/>
      <rect class="cls-9" x="1628.56" y="1799.99" width="85.73" height="85.71"/>
      <rect class="cls-1" x="1628.56" y="1714.29" width="85.73" height="85.71"/>
      <rect class="cls-1" x="1628.56" y="1628.56" width="85.73" height="85.73"/>
      <rect class="cls-1" x="1628.56" y="1542.86" width="85.73" height="85.71"/>
      <rect class="cls-1" x="1628.56" y="1457.13" width="85.73" height="85.73"/>
      <rect class="cls-1" x="1628.56" y="1371.42" width="85.73" height="85.71"/>
      <rect class="cls-1" x="1628.56" y="1285.72" width="85.73" height="85.71"/>
      <rect class="cls-1" x="1628.56" y="1199.99" width="85.73" height="85.73"/>
      <rect class="cls-1" x="1628.56" y="1114.28" width="85.73" height="85.71"/>
      <rect class="cls-8" x="1628.56" y="1028.58" width="85.73" height="85.71"/>
      <rect class="cls-8" x="1628.56" y="942.85" width="85.73" height="85.73"/>
      <rect class="cls-8" x="1628.56" y="857.14" width="85.73" height="85.71"/>
      <rect class="cls-8" x="1628.56" y="771.42" width="85.73" height="85.73"/>
      <rect class="cls-8" x="1628.56" y="685.71" width="85.73" height="85.71"/>
      <rect class="cls-1" x="1628.56" y="600.01" width="85.73" height="85.71"/>
      <rect class="cls-1" x="1628.56" y="514.28" width="85.73" height="85.73"/>
      <rect class="cls-1" x="1628.56" y="428.57" width="85.73" height="85.71"/>
      <rect class="cls-6" x="1628.56" y="342.84" width="85.73" height="85.73"/>
      <rect class="cls-7" x="1628.56" y="257.14" width="85.73" height="85.71"/>
      <rect class="cls-4" x="1628.56" y="171.43" width="85.73" height="85.71"/>
      <rect class="cls-4" x="1542.86" y="1971.43" width="85.71" height="85.71"/>
      <rect class="cls-2" x="1542.86" y="1885.7" width="85.71" height="85.73"/>
      <rect class="cls-9" x="1542.86" y="1799.99" width="85.71" height="85.71"/>
      <rect class="cls-1" x="1542.86" y="1714.29" width="85.71" height="85.71"/>
      <rect class="cls-1" x="1542.86" y="1628.56" width="85.71" height="85.73"/>
      <rect class="cls-1" x="1542.86" y="1542.86" width="85.71" height="85.71"/>
      <rect class="cls-1" x="1542.86" y="1457.13" width="85.71" height="85.73"/>
      <rect class="cls-1" x="1542.86" y="1371.42" width="85.71" height="85.71"/>
      <rect class="cls-1" x="1542.86" y="1285.72" width="85.71" height="85.71"/>
      <rect class="cls-1" x="1542.86" y="1199.99" width="85.71" height="85.73"/>
      <rect class="cls-8" x="1542.86" y="1114.28" width="85.71" height="85.71"/>
      <rect class="cls-8" x="1542.86" y="1028.58" width="85.71" height="85.71"/>
      <rect class="cls-8" x="1542.86" y="942.85" width="85.71" height="85.73"/>
      <rect class="cls-8" x="1542.86" y="857.14" width="85.71" height="85.71"/>
      <rect class="cls-8" x="1542.86" y="771.42" width="85.71" height="85.73"/>
      <rect class="cls-8" x="1542.86" y="685.71" width="85.71" height="85.71"/>
      <rect class="cls-8" x="1542.86" y="600.01" width="85.71" height="85.71"/>
      <rect class="cls-1" x="1542.86" y="514.28" width="85.71" height="85.73"/>
      <rect class="cls-1" x="1542.86" y="428.57" width="85.71" height="85.71"/>
      <rect class="cls-5" x="1542.86" y="342.84" width="85.71" height="85.73"/>
      <rect class="cls-7" x="1542.86" y="257.14" width="85.71" height="85.71"/>
      <rect class="cls-4" x="1542.86" y="171.43" width="85.71" height="85.71"/>
      <rect class="cls-4" x="1457.13" y="2057.13" width="85.73" height="85.73"/>
      <rect class="cls-2" x="1457.13" y="1971.43" width="85.73" height="85.71"/>
      <rect class="cls-9" x="1457.13" y="1885.7" width="85.73" height="85.73"/>
      <rect class="cls-1" x="1457.13" y="1799.99" width="85.73" height="85.71"/>
      <rect class="cls-1" x="1457.13" y="1714.29" width="85.73" height="85.71"/>
      <rect class="cls-1" x="1457.13" y="1628.56" width="85.73" height="85.73"/>
      <rect class="cls-1" x="1457.13" y="1542.86" width="85.73" height="85.71"/>
      <rect class="cls-1" x="1457.13" y="1457.13" width="85.73" height="85.73"/>
      <rect class="cls-1" x="1457.13" y="1371.42" width="85.73" height="85.71"/>
      <rect class="cls-1" x="1457.13" y="1285.72" width="85.73" height="85.71"/>
      <rect class="cls-8" x="1457.13" y="1199.99" width="85.73" height="85.73"/>
      <rect class="cls-8" x="1457.13" y="1114.28" width="85.73" height="85.71"/>
      <rect class="cls-8" x="1457.13" y="1028.58" width="85.73" height="85.71"/>
      <rect class="cls-8" x="1457.13" y="942.85" width="85.73" height="85.73"/>
      <rect class="cls-8" x="1457.13" y="857.14" width="85.73" height="85.71"/>
      <rect class="cls-8" x="1457.13" y="771.42" width="85.73" height="85.73"/>
      <rect class="cls-8" x="1457.13" y="685.71" width="85.73" height="85.71"/>
      <rect class="cls-1" x="1457.13" y="600.01" width="85.73" height="85.71"/>
      <rect class="cls-1" x="1457.13" y="514.28" width="85.73" height="85.73"/>
      <rect class="cls-1" x="1457.13" y="428.57" width="85.73" height="85.71"/>
      <rect class="cls-1" x="1457.13" y="342.84" width="85.73" height="85.73"/>
      <rect class="cls-6" x="1457.13" y="257.14" width="85.73" height="85.71"/>
      <rect class="cls-7" x="1457.13" y="171.43" width="85.73" height="85.71"/>
      <rect class="cls-4" x="1457.13" y="85.71" width="85.73" height="85.73"/>
      <rect class="cls-4" x="1371.42" y="2057.13" width="85.71" height="85.73"/>
      <rect class="cls-2" x="1371.42" y="1971.43" width="85.71" height="85.71"/>
      <rect class="cls-9" x="1371.42" y="1885.7" width="85.71" height="85.73"/>
      <rect class="cls-1" x="1371.42" y="1799.99" width="85.71" height="85.71"/>
      <rect class="cls-1" x="1371.42" y="1714.29" width="85.71" height="85.71"/>
      <rect class="cls-1" x="1371.42" y="1628.56" width="85.71" height="85.73"/>
      <rect class="cls-1" x="1371.42" y="1542.86" width="85.71" height="85.71"/>
      <rect class="cls-1" x="1371.42" y="1457.13" width="85.71" height="85.73"/>
      <rect class="cls-1" x="1371.42" y="1371.42" width="85.71" height="85.71"/>
      <rect class="cls-8" x="1371.42" y="1285.72" width="85.71" height="85.71"/>
      <rect class="cls-8" x="1371.42" y="1199.99" width="85.71" height="85.73"/>
      <rect class="cls-8" x="1371.42" y="1114.28" width="85.71" height="85.71"/>
      <rect class="cls-8" x="1371.42" y="1028.58" width="85.71" height="85.71"/>
      <rect class="cls-8" x="1371.42" y="942.85" width="85.71" height="85.73"/>
      <rect class="cls-8" x="1371.42" y="857.14" width="85.71" height="85.71"/>
      <rect class="cls-8" x="1371.42" y="771.42" width="85.71" height="85.73"/>
      <rect class="cls-1" x="1371.42" y="685.71" width="85.71" height="85.71"/>
      <rect class="cls-1" x="1371.42" y="600.01" width="85.71" height="85.71"/>
      <rect class="cls-1" x="1371.42" y="514.28" width="85.71" height="85.73"/>
      <rect class="cls-1" x="1371.42" y="428.57" width="85.71" height="85.71"/>
      <rect class="cls-1" x="1371.42" y="342.84" width="85.71" height="85.73"/>
      <rect class="cls-5" x="1371.42" y="257.14" width="85.71" height="85.71"/>
      <rect class="cls-7" x="1371.42" y="171.43" width="85.71" height="85.71"/>
      <rect class="cls-4" x="1371.42" y="85.71" width="85.71" height="85.73"/>
      <rect class="cls-4" x="1285.72" y="2057.13" width="85.71" height="85.73"/>
      <rect class="cls-2" x="1285.72" y="1971.43" width="85.71" height="85.71"/>
      <rect class="cls-9" x="1285.72" y="1885.7" width="85.71" height="85.73"/>
      <rect class="cls-1" x="1285.72" y="1799.99" width="85.71" height="85.71"/>
      <rect class="cls-1" x="1285.72" y="1714.29" width="85.71" height="85.71"/>
      <rect class="cls-1" x="1285.72" y="1628.56" width="85.71" height="85.73"/>
      <rect class="cls-1" x="1285.72" y="1542.86" width="85.71" height="85.71"/>
      <rect class="cls-1" x="1285.72" y="1457.13" width="85.71" height="85.73"/>
      <rect class="cls-8" x="1285.72" y="1371.42" width="85.71" height="85.71"/>
      <rect class="cls-8" x="1285.72" y="1285.72" width="85.71" height="85.71"/>
      <rect class="cls-8" x="1285.72" y="1199.99" width="85.71" height="85.73"/>
      <rect class="cls-8" x="1285.72" y="1114.28" width="85.71" height="85.71"/>
      <rect class="cls-8" x="1285.72" y="1028.58" width="85.71" height="85.71"/>
      <rect class="cls-8" x="1285.72" y="942.85" width="85.71" height="85.73"/>
      <rect class="cls-8" x="1285.72" y="857.14" width="85.71" height="85.71"/>
      <rect class="cls-1" x="1285.72" y="771.42" width="85.71" height="85.73"/>
      <rect class="cls-1" x="1285.72" y="685.71" width="85.71" height="85.71"/>
      <rect class="cls-1" x="1285.72" y="600.01" width="85.71" height="85.71"/>
      <rect class="cls-1" x="1285.72" y="514.28" width="85.71" height="85.73"/>
      <rect class="cls-1" x="1285.72" y="428.57" width="85.71" height="85.71"/>
      <rect class="cls-1" x="1285.72" y="342.84" width="85.71" height="85.73"/>
      <rect class="cls-6" x="1285.72" y="257.14" width="85.71" height="85.71"/>
      <rect class="cls-7" x="1285.72" y="171.43" width="85.71" height="85.71"/>
      <rect class="cls-4" x="1285.72" y="85.71" width="85.71" height="85.73"/>
      <rect class="cls-4" x="1199.99" y="2142.86" width="85.73" height="85.71"/>
      <rect class="cls-2" x="1199.99" y="2057.13" width="85.73" height="85.73"/>
      <rect class="cls-9" x="1199.99" y="1971.43" width="85.73" height="85.71"/>
      <rect class="cls-1" x="1199.99" y="1885.7" width="85.73" height="85.73"/>
      <rect class="cls-1" x="1199.99" y="1799.99" width="85.73" height="85.71"/>
      <rect class="cls-1" x="1199.99" y="1714.29" width="85.73" height="85.71"/>
      <rect class="cls-1" x="1199.99" y="1628.56" width="85.73" height="85.73"/>
      <rect class="cls-1" x="1199.99" y="1542.86" width="85.73" height="85.71"/>
      <rect class="cls-8" x="1199.99" y="1457.13" width="85.73" height="85.73"/>
      <rect class="cls-8" x="1199.99" y="1371.42" width="85.73" height="85.71"/>
      <rect class="cls-8" x="1199.99" y="1285.72" width="85.73" height="85.71"/>
      <rect class="cls-8" x="1199.99" y="1199.99" width="85.73" height="85.73"/>
      <rect class="cls-8" x="1199.99" y="1114.28" width="85.73" height="85.71"/>
      <rect class="cls-8" x="1199.99" y="1028.58" width="85.73" height="85.71"/>
      <rect class="cls-8" x="1199.99" y="942.85" width="85.73" height="85.73"/>
      <rect class="cls-1" x="1199.99" y="857.14" width="85.73" height="85.71"/>
      <rect class="cls-1" x="1199.99" y="771.42" width="85.73" height="85.73"/>
      <rect class="cls-1" x="1199.99" y="685.71" width="85.73" height="85.71"/>
      <rect class="cls-1" x="1199.99" y="600.01" width="85.73" height="85.71"/>
      <rect class="cls-1" x="1199.99" y="514.28" width="85.73" height="85.73"/>
      <rect class="cls-1" x="1199.99" y="428.57" width="85.73" height="85.71"/>
      <rect class="cls-1" x="1199.99" y="342.84" width="85.73" height="85.73"/>
      <rect class="cls-3" x="1199.99" y="257.14" width="85.73" height="85.71"/>
      <rect class="cls-6" x="1199.99" y="171.43" width="85.73" height="85.71"/>
      <rect class="cls-7" x="1199.99" y="85.71" width="85.73" height="85.73"/>
      <rect class="cls-4" x="1199.99" width="85.73" height="85.71"/>
      <rect class="cls-4" x="1114.28" y="2142.86" width="85.71" height="85.71"/>
      <rect class="cls-2" x="1114.28" y="2057.13" width="85.71" height="85.73"/>
      <rect class="cls-9" x="1114.28" y="1971.43" width="85.71" height="85.71"/>
      <rect class="cls-1" x="1114.28" y="1885.7" width="85.71" height="85.73"/>
      <rect class="cls-1" x="1114.28" y="1799.99" width="85.71" height="85.71"/>
      <rect class="cls-1" x="1114.28" y="1714.29" width="85.71" height="85.71"/>
      <rect class="cls-1" x="1114.28" y="1628.56" width="85.71" height="85.73"/>
      <rect class="cls-8" x="1114.28" y="1542.86" width="85.71" height="85.71"/>
      <rect class="cls-8" x="1114.28" y="1457.13" width="85.71" height="85.73"/>
      <rect class="cls-8" x="1114.28" y="1371.42" width="85.71" height="85.71"/>
      <rect class="cls-8" x="1114.28" y="1285.72" width="85.71" height="85.71"/>
      <rect class="cls-8" x="1114.28" y="1199.99" width="85.71" height="85.73"/>
      <rect class="cls-8" x="1114.28" y="1114.28" width="85.71" height="85.71"/>
      <rect class="cls-8" x="1114.28" y="1028.58" width="85.71" height="85.71"/>
      <rect class="cls-1" x="1114.28" y="942.85" width="85.71" height="85.73"/>
      <rect class="cls-1" x="1114.28" y="857.14" width="85.71" height="85.71"/>
      <rect class="cls-1" x="1114.28" y="771.42" width="85.71" height="85.73"/>
      <rect class="cls-1" x="1114.28" y="685.71" width="85.71" height="85.71"/>
      <rect class="cls-1" x="1114.28" y="600.01" width="85.71" height="85.71"/>
      <rect class="cls-1" x="1114.28" y="514.28" width="85.71" height="85.73"/>
      <rect class="cls-1" x="1114.28" y="428.57" width="85.71" height="85.71"/>
      <rect class="cls-1" x="1114.28" y="342.84" width="85.71" height="85.73"/>
      <rect class="cls-3" x="1114.28" y="257.14" width="85.71" height="85.71"/>
      <rect class="cls-6" x="1114.28" y="171.43" width="85.71" height="85.71"/>
      <rect class="cls-7" x="1114.28" y="85.71" width="85.71" height="85.73"/>
      <rect class="cls-4" x="1114.28" width="85.71" height="85.71"/>
      <rect class="cls-4" x="1028.56" y="2142.86" width="85.73" height="85.71"/>
      <rect class="cls-2" x="1028.56" y="2057.13" width="85.73" height="85.73"/>
      <rect class="cls-9" x="1028.56" y="1971.43" width="85.73" height="85.71"/>
      <rect class="cls-1" x="1028.56" y="1885.7" width="85.73" height="85.73"/>
      <rect class="cls-1" x="1028.56" y="1799.99" width="85.73" height="85.71"/>
      <rect class="cls-1" x="1028.56" y="1714.29" width="85.73" height="85.71"/>
      <rect class="cls-8" x="1028.56" y="1628.56" width="85.73" height="85.73"/>
      <rect class="cls-8" x="1028.56" y="1542.86" width="85.73" height="85.71"/>
      <rect class="cls-8" x="1028.56" y="1457.13" width="85.73" height="85.73"/>
      <rect class="cls-8" x="1028.56" y="1371.42" width="85.73" height="85.71"/>
      <rect class="cls-8" x="1028.56" y="1285.72" width="85.73" height="85.71"/>
      <rect class="cls-8" x="1028.56" y="1199.99" width="85.73" height="85.73"/>
      <rect class="cls-8" x="1028.56" y="1114.28" width="85.73" height="85.71"/>
      <rect class="cls-1" x="1028.56" y="1028.58" width="85.73" height="85.71"/>
      <rect class="cls-1" x="1028.56" y="942.85" width="85.73" height="85.73"/>
      <rect class="cls-1" x="1028.56" y="857.14" width="85.73" height="85.71"/>
      <rect class="cls-1" x="1028.56" y="771.42" width="85.73" height="85.73"/>
      <rect class="cls-1" x="1028.56" y="685.71" width="85.73" height="85.71"/>
      <rect class="cls-1" x="1028.56" y="600.01" width="85.73" height="85.71"/>
      <rect class="cls-1" x="1028.56" y="514.28" width="85.73" height="85.73"/>
      <rect class="cls-1" x="1028.56" y="428.57" width="85.73" height="85.71"/>
      <rect class="cls-1" x="1028.56" y="342.84" width="85.73" height="85.73"/>
      <rect class="cls-3" x="1028.56" y="257.14" width="85.73" height="85.71"/>
      <rect class="cls-5" x="1028.56" y="171.43" width="85.73" height="85.71"/>
      <rect class="cls-7" x="1028.56" y="85.71" width="85.73" height="85.73"/>
      <rect class="cls-4" x="1028.56" width="85.73" height="85.71"/>
      <rect class="cls-4" x="942.85" y="2142.86" width="85.71" height="85.71"/>
      <rect class="cls-2" x="942.85" y="2057.13" width="85.71" height="85.73"/>
      <rect class="cls-9" x="942.85" y="1971.43" width="85.71" height="85.71"/>
      <rect class="cls-1" x="942.85" y="1885.7" width="85.71" height="85.73"/>
      <rect class="cls-1" x="942.85" y="1799.99" width="85.71" height="85.71"/>
      <rect class="cls-1" x="942.85" y="1714.29" width="85.71" height="85.71"/>
      <rect class="cls-1" x="942.85" y="1628.56" width="85.71" height="85.73"/>
      <rect class="cls-8" x="942.85" y="1542.86" width="85.71" height="85.71"/>
      <rect class="cls-8" x="942.85" y="1457.13" width="85.71" height="85.73"/>
      <rect class="cls-8" x="942.85" y="1371.42" width="85.71" height="85.71"/>
      <rect class="cls-8" x="942.85" y="1285.72" width="85.71" height="85.71"/>
      <rect class="cls-8" x="942.85" y="1199.99" width="85.71" height="85.73"/>
      <rect class="cls-8" x="942.85" y="1114.28" width="85.71" height="85.71"/>
      <rect class="cls-8" x="942.85" y="1028.58" width="85.71" height="85.71"/>
      <rect class="cls-1" x="942.85" y="942.85" width="85.71" height="85.73"/>
      <rect class="cls-1" x="942.85" y="857.14" width="85.71" height="85.71"/>
      <rect class="cls-1" x="942.85" y="771.42" width="85.71" height="85.73"/>
      <rect class="cls-1" x="942.85" y="685.71" width="85.71" height="85.71"/>
      <rect class="cls-1" x="942.85" y="600.01" width="85.71" height="85.71"/>
      <rect class="cls-1" x="942.85" y="514.28" width="85.71" height="85.73"/>
      <rect class="cls-1" x="942.85" y="428.57" width="85.71" height="85.71"/>
      <rect class="cls-1" x="942.85" y="342.84" width="85.71" height="85.73"/>
      <rect class="cls-3" x="942.85" y="257.14" width="85.71" height="85.71"/>
      <rect class="cls-5" x="942.85" y="171.43" width="85.71" height="85.71"/>
      <rect class="cls-7" x="942.85" y="85.71" width="85.71" height="85.73"/>
      <rect class="cls-4" x="942.85" width="85.71" height="85.71"/>
      <rect class="cls-4" x="857.14" y="2057.13" width="85.71" height="85.73"/>
      <rect class="cls-2" x="857.14" y="1971.43" width="85.71" height="85.71"/>
      <rect class="cls-9" x="857.14" y="1885.7" width="85.71" height="85.73"/>
      <rect class="cls-1" x="857.14" y="1799.99" width="85.71" height="85.71"/>
      <rect class="cls-1" x="857.14" y="1714.29" width="85.71" height="85.71"/>
      <rect class="cls-1" x="857.14" y="1628.56" width="85.71" height="85.73"/>
      <rect class="cls-1" x="857.14" y="1542.86" width="85.71" height="85.71"/>
      <rect class="cls-8" x="857.14" y="1457.13" width="85.71" height="85.73"/>
      <rect class="cls-8" x="857.14" y="1371.42" width="85.71" height="85.71"/>
      <rect class="cls-8" x="857.14" y="1285.72" width="85.71" height="85.71"/>
      <rect class="cls-8" x="857.14" y="1199.99" width="85.71" height="85.73"/>
      <rect class="cls-8" x="857.14" y="1114.28" width="85.71" height="85.71"/>
      <rect class="cls-8" x="857.14" y="1028.58" width="85.71" height="85.71"/>
      <rect class="cls-8" x="857.14" y="942.85" width="85.71" height="85.73"/>
      <rect class="cls-1" x="857.14" y="857.14" width="85.71" height="85.71"/>
      <rect class="cls-1" x="857.14" y="771.42" width="85.71" height="85.73"/>
      <rect class="cls-1" x="857.14" y="685.71" width="85.71" height="85.71"/>
      <rect class="cls-1" x="857.14" y="600.01" width="85.71" height="85.71"/>
      <rect class="cls-1" x="857.14" y="514.28" width="85.71" height="85.73"/>
      <rect class="cls-1" x="857.14" y="428.57" width="85.71" height="85.71"/>
      <rect class="cls-1" x="857.14" y="342.84" width="85.71" height="85.73"/>
      <rect class="cls-6" x="857.14" y="257.14" width="85.71" height="85.71"/>
      <rect class="cls-7" x="857.14" y="171.43" width="85.71" height="85.71"/>
      <rect class="cls-4" x="857.14" y="85.71" width="85.71" height="85.73"/>
      <rect class="cls-4" x="771.42" y="2057.13" width="85.73" height="85.73"/>
      <rect class="cls-2" x="771.42" y="1971.43" width="85.73" height="85.71"/>
      <rect class="cls-9" x="771.42" y="1885.7" width="85.73" height="85.73"/>
      <rect class="cls-1" x="771.42" y="1799.99" width="85.73" height="85.71"/>
      <rect class="cls-1" x="771.42" y="1714.29" width="85.73" height="85.71"/>
      <rect class="cls-1" x="771.42" y="1628.56" width="85.73" height="85.73"/>
      <rect class="cls-1" x="771.42" y="1542.86" width="85.73" height="85.71"/>
      <rect class="cls-1" x="771.42" y="1457.13" width="85.73" height="85.73"/>
      <rect class="cls-8" x="771.42" y="1371.42" width="85.73" height="85.71"/>
      <rect class="cls-8" x="771.42" y="1285.72" width="85.73" height="85.71"/>
      <rect class="cls-8" x="771.42" y="1199.99" width="85.73" height="85.73"/>
      <rect class="cls-8" x="771.42" y="1114.28" width="85.73" height="85.71"/>
      <rect class="cls-8" x="771.42" y="1028.58" width="85.73" height="85.71"/>
      <rect class="cls-8" x="771.42" y="942.85" width="85.73" height="85.73"/>
      <rect class="cls-8" x="771.42" y="857.14" width="85.73" height="85.71"/>
      <rect class="cls-1" x="771.42" y="771.42" width="85.73" height="85.73"/>
      <rect class="cls-1" x="771.42" y="685.71" width="85.73" height="85.71"/>
      <rect class="cls-1" x="771.42" y="600.01" width="85.73" height="85.71"/>
      <rect class="cls-1" x="771.42" y="514.28" width="85.73" height="85.73"/>
      <rect class="cls-1" x="771.42" y="428.57" width="85.73" height="85.71"/>
      <rect class="cls-1" x="771.42" y="342.84" width="85.73" height="85.73"/>
      <rect class="cls-5" x="771.42" y="257.14" width="85.73" height="85.71"/>
      <rect class="cls-7" x="771.42" y="171.43" width="85.73" height="85.71"/>
      <rect class="cls-4" x="771.42" y="85.71" width="85.73" height="85.73"/>
      <rect class="cls-4" x="685.71" y="2057.13" width="85.71" height="85.73"/>
      <rect class="cls-2" x="685.71" y="1971.43" width="85.71" height="85.71"/>
      <rect class="cls-9" x="685.71" y="1885.7" width="85.71" height="85.73"/>
      <rect class="cls-1" x="685.71" y="1799.99" width="85.71" height="85.71"/>
      <rect class="cls-1" x="685.71" y="1714.29" width="85.71" height="85.71"/>
      <rect class="cls-1" x="685.71" y="1628.56" width="85.71" height="85.73"/>
      <rect class="cls-1" x="685.71" y="1542.86" width="85.71" height="85.71"/>
      <rect class="cls-1" x="685.71" y="1457.13" width="85.71" height="85.73"/>
      <rect class="cls-1" x="685.71" y="1371.42" width="85.71" height="85.71"/>
      <rect class="cls-8" x="685.71" y="1285.72" width="85.71" height="85.71"/>
      <rect class="cls-8" x="685.71" y="1199.99" width="85.71" height="85.73"/>
      <rect class="cls-8" x="685.71" y="1114.28" width="85.71" height="85.71"/>
      <rect class="cls-8" x="685.71" y="1028.58" width="85.71" height="85.71"/>
      <rect class="cls-8" x="685.71" y="942.85" width="85.71" height="85.73"/>
      <rect class="cls-8" x="685.71" y="857.14" width="85.71" height="85.71"/>
      <rect class="cls-8" x="685.71" y="771.42" width="85.71" height="85.73"/>
      <rect class="cls-1" x="685.71" y="685.71" width="85.71" height="85.71"/>
      <rect class="cls-1" x="685.71" y="600.01" width="85.71" height="85.71"/>
      <rect class="cls-1" x="685.71" y="514.28" width="85.71" height="85.73"/>
      <rect class="cls-1" x="685.71" y="428.57" width="85.71" height="85.71"/>
      <rect class="cls-1" x="685.71" y="342.84" width="85.71" height="85.73"/>
      <rect class="cls-5" x="685.71" y="257.14" width="85.71" height="85.71"/>
      <rect class="cls-7" x="685.71" y="171.43" width="85.71" height="85.71"/>
      <rect class="cls-4" x="685.71" y="85.71" width="85.71" height="85.73"/>
      <rect class="cls-4" x="599.98" y="1971.43" width="85.73" height="85.71"/>
      <rect class="cls-2" x="599.98" y="1885.7" width="85.73" height="85.73"/>
      <rect class="cls-9" x="599.98" y="1799.99" width="85.73" height="85.71"/>
      <rect class="cls-1" x="599.98" y="1714.29" width="85.73" height="85.71"/>
      <rect class="cls-1" x="599.98" y="1628.56" width="85.73" height="85.73"/>
      <rect class="cls-1" x="599.98" y="1542.86" width="85.73" height="85.71"/>
      <rect class="cls-1" x="599.98" y="1457.13" width="85.73" height="85.73"/>
      <rect class="cls-1" x="599.98" y="1371.42" width="85.73" height="85.71"/>
      <rect class="cls-1" x="599.98" y="1285.72" width="85.73" height="85.71"/>
      <rect class="cls-8" x="599.98" y="1199.99" width="85.73" height="85.73"/>
      <rect class="cls-8" x="599.98" y="1114.28" width="85.73" height="85.71"/>
      <rect class="cls-8" x="599.98" y="1028.58" width="85.73" height="85.71"/>
      <rect class="cls-8" x="599.98" y="942.85" width="85.73" height="85.73"/>
      <rect class="cls-8" x="599.98" y="857.14" width="85.73" height="85.71"/>
      <rect class="cls-8" x="599.98" y="771.42" width="85.73" height="85.73"/>
      <rect class="cls-8" x="599.98" y="685.71" width="85.73" height="85.71"/>
      <rect class="cls-1" x="599.98" y="600.01" width="85.73" height="85.71"/>
      <rect class="cls-1" x="599.98" y="514.28" width="85.73" height="85.73"/>
      <rect class="cls-1" x="599.98" y="428.57" width="85.73" height="85.71"/>
      <rect class="cls-6" x="599.98" y="342.84" width="85.73" height="85.73"/>
      <rect class="cls-7" x="599.98" y="257.14" width="85.73" height="85.71"/>
      <rect class="cls-4" x="599.98" y="171.43" width="85.73" height="85.71"/>
      <rect class="cls-4" x="514.28" y="1971.43" width="85.71" height="85.71"/>
      <rect class="cls-2" x="514.28" y="1885.7" width="85.71" height="85.73"/>
      <rect class="cls-9" x="514.28" y="1799.99" width="85.71" height="85.71"/>
      <rect class="cls-1" x="514.28" y="1714.29" width="85.71" height="85.71"/>
      <rect class="cls-1" x="514.28" y="1628.56" width="85.71" height="85.73"/>
      <rect class="cls-1" x="514.28" y="1542.86" width="85.71" height="85.71"/>
      <rect class="cls-1" x="514.28" y="1457.13" width="85.71" height="85.73"/>
      <rect class="cls-1" x="514.28" y="1371.42" width="85.71" height="85.71"/>
      <rect class="cls-1" x="514.28" y="1285.72" width="85.71" height="85.71"/>
      <rect class="cls-1" x="514.28" y="1199.99" width="85.71" height="85.73"/>
      <rect class="cls-8" x="514.28" y="1114.28" width="85.71" height="85.71"/>
      <rect class="cls-8" x="514.28" y="1028.58" width="85.71" height="85.71"/>
      <rect class="cls-8" x="514.28" y="942.85" width="85.71" height="85.73"/>
      <rect class="cls-8" x="514.28" y="857.14" width="85.71" height="85.71"/>
      <rect class="cls-8" x="514.28" y="771.42" width="85.71" height="85.73"/>
      <rect class="cls-1" x="514.28" y="685.71" width="85.71" height="85.71"/>
      <rect class="cls-1" x="514.28" y="600.01" width="85.71" height="85.71"/>
      <rect class="cls-1" x="514.28" y="514.28" width="85.71" height="85.73"/>
      <rect class="cls-1" x="514.28" y="428.57" width="85.71" height="85.71"/>
      <rect class="cls-5" x="514.28" y="342.84" width="85.71" height="85.73"/>
      <rect class="cls-7" x="514.28" y="257.14" width="85.71" height="85.71"/>
      <rect class="cls-4" x="514.28" y="171.43" width="85.71" height="85.71"/>
      <rect class="cls-4" x="428.57" y="1885.7" width="85.71" height="85.73"/>
      <rect class="cls-2" x="428.57" y="1799.99" width="85.71" height="85.71"/>
      <rect class="cls-9" x="428.57" y="1714.29" width="85.71" height="85.71"/>
      <rect class="cls-1" x="428.57" y="1628.56" width="85.71" height="85.73"/>
      <rect class="cls-1" x="428.57" y="1542.86" width="85.71" height="85.71"/>
      <rect class="cls-1" x="428.57" y="1457.13" width="85.71" height="85.73"/>
      <rect class="cls-1" x="428.57" y="1371.42" width="85.71" height="85.71"/>
      <rect class="cls-1" x="428.57" y="1285.72" width="85.71" height="85.71"/>
      <rect class="cls-1" x="428.57" y="1199.99" width="85.71" height="85.73"/>
      <rect class="cls-1" x="428.57" y="1114.28" width="85.71" height="85.71"/>
      <rect class="cls-8" x="428.57" y="1028.58" width="85.71" height="85.71"/>
      <rect class="cls-8" x="428.57" y="942.85" width="85.71" height="85.73"/>
      <rect class="cls-8" x="428.57" y="857.14" width="85.71" height="85.71"/>
      <rect class="cls-1" x="428.57" y="771.42" width="85.71" height="85.73"/>
      <rect class="cls-1" x="428.57" y="685.71" width="85.71" height="85.71"/>
      <rect class="cls-1" x="428.57" y="600.01" width="85.71" height="85.71"/>
      <rect class="cls-1" x="428.57" y="514.28" width="85.71" height="85.73"/>
      <rect class="cls-3" x="428.57" y="428.57" width="85.71" height="85.71"/>
      <rect class="cls-7" x="428.57" y="342.84" width="85.71" height="85.73"/>
      <rect class="cls-4" x="428.57" y="257.14" width="85.71" height="85.71"/>
      <rect class="cls-4" x="342.84" y="1799.99" width="85.73" height="85.71"/>
      <rect class="cls-2" x="342.84" y="1714.29" width="85.73" height="85.71"/>
      <rect class="cls-9" x="342.84" y="1628.56" width="85.73" height="85.73"/>
      <rect class="cls-1" x="342.84" y="1542.86" width="85.73" height="85.71"/>
      <rect class="cls-1" x="342.84" y="1457.13" width="85.73" height="85.73"/>
      <rect class="cls-1" x="342.84" y="1371.42" width="85.73" height="85.71"/>
      <rect class="cls-1" x="342.84" y="1285.72" width="85.73" height="85.71"/>
      <rect class="cls-1" x="342.84" y="1199.99" width="85.73" height="85.73"/>
      <rect class="cls-1" x="342.84" y="1114.28" width="85.73" height="85.71"/>
      <rect class="cls-1" x="342.84" y="1028.58" width="85.73" height="85.71"/>
      <rect class="cls-8" x="342.84" y="942.85" width="85.73" height="85.73"/>
      <rect class="cls-1" x="342.84" y="857.14" width="85.73" height="85.71"/>
      <rect class="cls-1" x="342.84" y="771.42" width="85.73" height="85.73"/>
      <rect class="cls-1" x="342.84" y="685.71" width="85.73" height="85.71"/>
      <rect class="cls-1" x="342.84" y="600.01" width="85.73" height="85.71"/>
      <rect class="cls-3" x="342.84" y="514.28" width="85.73" height="85.73"/>
      <rect class="cls-7" x="342.84" y="428.57" width="85.73" height="85.71"/>
      <rect class="cls-4" x="342.84" y="342.84" width="85.73" height="85.73"/>
      <rect class="cls-4" x="257.14" y="1714.29" width="85.71" height="85.71"/>
      <rect class="cls-2" x="257.14" y="1628.56" width="85.71" height="85.73"/>
      <rect class="cls-9" x="257.14" y="1542.86" width="85.71" height="85.71"/>
      <rect class="cls-1" x="257.14" y="1457.13" width="85.71" height="85.73"/>
      <rect class="cls-1" x="257.14" y="1371.42" width="85.71" height="85.71"/>
      <rect class="cls-1" x="257.14" y="1285.72" width="85.71" height="85.71"/>
      <rect class="cls-1" x="257.14" y="1199.99" width="85.71" height="85.73"/>
      <rect class="cls-1" x="257.14" y="1114.28" width="85.71" height="85.71"/>
      <rect class="cls-1" x="257.14" y="1028.58" width="85.71" height="85.71"/>
      <rect class="cls-1" x="257.14" y="942.85" width="85.71" height="85.73"/>
      <rect class="cls-1" x="257.14" y="857.14" width="85.71" height="85.71"/>
      <rect class="cls-1" x="257.14" y="771.42" width="85.71" height="85.73"/>
      <rect class="cls-1" x="257.14" y="685.71" width="85.71" height="85.71"/>
      <rect class="cls-3" x="257.14" y="600.01" width="85.71" height="85.71"/>
      <rect class="cls-7" x="257.14" y="514.28" width="85.71" height="85.73"/>
      <rect class="cls-4" x="257.14" y="428.57" width="85.71" height="85.71"/>
      <rect class="cls-4" x="171.41" y="1628.56" width="85.73" height="85.73"/>
      <rect class="cls-4" x="171.41" y="1542.86" width="85.73" height="85.71"/>
      <rect class="cls-9" x="171.41" y="1457.13" width="85.73" height="85.73"/>
      <rect class="cls-1" x="171.41" y="1371.42" width="85.73" height="85.71"/>
      <rect class="cls-1" x="171.41" y="1285.72" width="85.73" height="85.71"/>
      <rect class="cls-1" x="171.41" y="1199.99" width="85.73" height="85.73"/>
      <rect class="cls-1" x="171.41" y="1114.28" width="85.73" height="85.71"/>
      <rect class="cls-1" x="171.41" y="1028.58" width="85.73" height="85.71"/>
      <rect class="cls-1" x="171.41" y="942.85" width="85.73" height="85.73"/>
      <rect class="cls-1" x="171.41" y="857.14" width="85.73" height="85.71"/>
      <rect class="cls-1" x="171.41" y="771.42" width="85.73" height="85.73"/>
      <rect class="cls-3" x="171.41" y="685.71" width="85.73" height="85.71"/>
      <rect class="cls-4" x="171.41" y="600.01" width="85.73" height="85.71"/>
      <rect class="cls-4" x="171.41" y="514.28" width="85.73" height="85.73"/>
      <rect class="cls-4" x="85.71" y="1457.13" width="85.71" height="85.73"/>
      <rect class="cls-4" x="85.71" y="1371.42" width="85.71" height="85.71"/>
      <rect class="cls-4" x="85.71" y="1285.72" width="85.71" height="85.71"/>
      <rect class="cls-1" x="85.71" y="1199.99" width="85.71" height="85.73"/>
      <rect class="cls-1" x="85.71" y="1114.28" width="85.71" height="85.71"/>
      <rect class="cls-1" x="85.71" y="1028.58" width="85.71" height="85.71"/>
      <rect class="cls-1" x="85.71" y="942.85" width="85.71" height="85.73"/>
      <rect class="cls-4" x="85.71" y="857.14" width="85.71" height="85.71"/>
      <rect class="cls-4" x="85.71" y="771.42" width="85.71" height="85.73"/>
      <rect class="cls-4" x="85.71" y="685.71" width="85.71" height="85.71"/>
      <rect class="cls-4" y="1199.99" width="85.71" height="85.73"/>
      <rect class="cls-4" y="1114.28" width="85.71" height="85.71"/>
      <rect class="cls-4" y="1028.58" width="85.71" height="85.71"/>
      <rect class="cls-4" y="942.85" width="85.71" height="85.73"/>
    </g>
  </g>
</svg>