<svg width="13" height="13" viewBox="12 5 13 13" fill="none" xmlns="http://www.w3.org/2000/svg">
  <path d="M19.1787 6.1377C19.8337 6.2706 20.4438 6.52684 20.9834 6.88184L21.8193 6.03418L23.293 7.48535L22.4492 8.3418C22.7617 8.81065 22.9999 9.33278 23.1465 9.89258L24.1963 9.85449L24.2715 11.9219L23.2617 11.958C23.1501 12.7237 22.8706 13.4345 22.4619 14.0527L23.293 14.8975L21.8193 16.3486L21 15.5166C20.4562 15.8774 19.8406 16.1382 19.1787 16.2725V17.2041H17.1104V16.2734C16.4155 16.1323 15.7712 15.8523 15.208 15.4629L14.3359 16.3496L12.8613 14.8984L13.7744 13.9707C13.4598 13.4743 13.2278 12.9208 13.0967 12.3291L12.0762 12.3672L12 10.3008L13.0605 10.2607C13.1836 9.5945 13.434 8.97325 13.7861 8.42285L12.8613 7.48438L14.3359 6.03223L15.2256 6.93652C15.7847 6.55343 16.4226 6.27637 17.1104 6.13672V5H19.1787V6.1377ZM18.1455 8.03418C16.3939 8.03418 14.9736 9.45442 14.9736 11.2061C14.9739 12.9575 16.394 14.377 18.1455 14.377C19.8967 14.3766 21.3162 12.9573 21.3164 11.2061C21.3164 9.45464 19.8968 8.03454 18.1455 8.03418Z" fill="white"/>
</svg>
