<svg version="1.1" id="Layer_1" xmlns="http://www.w3.org/2000/svg" xmlns:xlink="http://www.w3.org/1999/xlink" x="0px" y="0px"
	 width="100%" viewBox="0 0 500 432" enable-background="new 0 0 500 432" xml:space="preserve">
<path fill="#FEFEFF" opacity="1.000000" stroke="none" 
	d="
M339.000000,433.000000 
	C226.000000,433.000000 113.500000,433.000000 1.000000,433.000000 
	C1.000000,289.000000 1.000000,145.000000 1.000000,1.000000 
	C167.666672,1.000000 334.333344,1.000000 501.000000,1.000000 
	C501.000000,145.000000 501.000000,289.000000 501.000000,433.000000 
	C447.166656,433.000000 393.333344,433.000000 339.000000,433.000000 
M111.903412,376.422821 
	C158.111969,294.723419 204.320511,213.024002 250.996185,130.498672 
	C252.554962,133.025192 253.551147,134.516052 254.424210,136.075836 
	C258.703857,143.721710 262.894745,151.417709 267.219604,159.037766 
	C280.700043,182.789185 294.280548,206.483963 307.719879,230.258575 
	C320.023834,252.024734 332.145294,273.894043 344.439026,295.666016 
	C355.335358,314.963287 366.379974,334.176758 377.319092,353.449982 
	C390.066132,375.908600 402.856689,398.343628 415.388123,420.922241 
	C417.063599,423.941010 418.877319,424.645142 422.009735,424.628998 
	C444.004913,424.515411 466.000946,424.574219 487.996704,424.556152 
	C489.581787,424.554840 491.166779,424.381470 493.864532,424.222595 
	C412.771088,283.767456 332.145142,144.122070 251.098831,3.748583 
	C169.860062,144.473572 89.279533,284.058319 8.168861,424.561401 
	C33.970772,424.561401 58.120674,424.643494 82.266937,424.385223 
	C83.959404,424.367126 86.203476,422.164062 87.211700,420.413116 
	C95.480354,406.053162 103.516670,391.559357 111.903412,376.422821 
M275.061646,297.353363 
	C267.272552,283.802094 259.483459,270.250824 251.108856,255.680939 
	C218.325882,312.470276 186.220413,368.086029 153.866653,424.131836 
	C218.932297,424.131836 283.187866,424.131836 348.341553,424.131836 
	C323.785065,381.588287 299.644409,339.765137 275.061646,297.353363 
z"/>
<path fill="#0283FF" opacity="1.000000" stroke="none" 
	d="
M111.763458,376.764526 
	C103.516670,391.559357 95.480354,406.053162 87.211700,420.413116 
	C86.203476,422.164062 83.959404,424.367126 82.266937,424.385223 
	C58.120674,424.643494 33.970772,424.561401 8.168861,424.561401 
	C89.279533,284.058319 169.860062,144.473572 251.098831,3.748583 
	C332.145142,144.122070 412.771088,283.767456 493.864532,424.222595 
	C491.166779,424.381470 489.581787,424.554840 487.996704,424.556152 
	C466.000946,424.574219 444.004913,424.515411 422.009735,424.628998 
	C418.877319,424.645142 417.063599,423.941010 415.388123,420.922241 
	C402.856689,398.343628 390.066132,375.908600 377.319092,353.449982 
	C366.379974,334.176758 355.335358,314.963287 344.439026,295.666016 
	C332.145294,273.894043 320.023834,252.024734 307.719879,230.258575 
	C294.280548,206.483963 280.700043,182.789185 267.219604,159.037766 
	C262.894745,151.417709 258.703857,143.721710 254.424210,136.075836 
	C253.551147,134.516052 252.554962,133.025192 250.996185,130.498672 
	C204.320511,213.024002 158.111969,294.723419 111.763458,376.764526 
z"/>
<path fill="#0483FF" opacity="1.000000" stroke="none" 
	d="
M275.282715,297.647644 
	C299.644409,339.765137 323.785065,381.588287 348.341553,424.131836 
	C283.187866,424.131836 218.932297,424.131836 153.866653,424.131836 
	C186.220413,368.086029 218.325882,312.470276 251.108856,255.680939 
	C259.483459,270.250824 267.272552,283.802094 275.282715,297.647644 
z"/>
</svg>