<?xml version="1.0" encoding="UTF-8"?>
<!DOCTYPE svg PUBLIC "-//W3C//DTD SVG 1.1//EN" "http://www.w3.org/Graphics/SVG/1.1/DTD/svg11.dtd">
<svg xmlns="http://www.w3.org/2000/svg" version="1.1" width="2000px" height="2000px" style="shape-rendering:geometricPrecision; text-rendering:geometricPrecision; image-rendering:optimizeQuality; fill-rule:evenodd; clip-rule:evenodd" xmlns:xlink="http://www.w3.org/1999/xlink">
<g><path style="opacity:0.999" fill="#f7931a" d="M 955.5,-0.5 C 984.833,-0.5 1014.17,-0.5 1043.5,-0.5C 1297.13,14.3576 1515.46,108.858 1698.5,283C 1883.65,468.39 1983.98,692.557 1999.5,955.5C 1999.5,984.833 1999.5,1014.17 1999.5,1043.5C 1984.64,1297.13 1890.14,1515.47 1716,1698.5C 1530.61,1883.65 1306.44,1983.98 1043.5,1999.5C 1014.17,1999.5 984.833,1999.5 955.5,1999.5C 701.867,1984.64 483.534,1890.14 300.5,1716C 115.562,1530.91 15.2291,1307.07 -0.5,1044.5C -0.5,1014.5 -0.5,984.5 -0.5,954.5C 15.2278,691.932 115.561,468.099 300.5,283C 483.534,108.86 701.867,14.3604 955.5,-0.5 Z"/></g>
<g><path style="opacity:1" fill="#fffefe" d="M 761.5,899.5 C 763.199,899.66 764.866,899.494 766.5,899C 764.68,898.8 763.347,897.966 762.5,896.5C 778.997,829.846 795.497,763.18 812,696.5C 814.002,673.005 805.169,654.839 785.5,642C 776.145,637.548 766.478,633.881 756.5,631C 732.607,624.631 708.607,618.797 684.5,613.5C 692.666,575.157 701.666,536.824 711.5,498.5C 767.045,511.72 822.379,525.553 877.5,540C 895.083,544.263 912.749,548.097 930.5,551.5C 945.009,492.465 959.676,433.465 974.5,374.5C 1009.45,383.488 1044.45,392.321 1079.5,401C 1080.52,401.519 1081.18,402.353 1081.5,403.5C 1066.86,460.71 1052.86,518.044 1039.5,575.5C 1068.2,581.955 1096.87,588.622 1125.5,595.5C 1139.45,538.219 1153.78,481.052 1168.5,424C 1204.67,431.875 1240.67,440.708 1276.5,450.5C 1261.2,509.37 1246.7,568.37 1233,627.5C 1279.35,642.592 1322.85,663.425 1363.5,690C 1393.71,710.873 1417.55,737.373 1435,769.5C 1453.14,810.243 1456.47,852.243 1445,895.5C 1429.29,969.637 1384.79,1015.97 1311.5,1034.5C 1343.55,1050.38 1371.05,1072.05 1394,1099.5C 1423.5,1139.49 1434.16,1184.16 1426,1233.5C 1419.06,1277.33 1404.39,1318.33 1382,1356.5C 1343.04,1415.76 1287.87,1448.6 1216.5,1455C 1168.64,1459.29 1120.97,1457.62 1073.5,1450C 1058.52,1447.34 1043.52,1444.84 1028.5,1442.5C 1013.83,1501.83 999.167,1561.17 984.5,1620.5C 984.167,1620.83 983.833,1621.17 983.5,1621.5C 947.942,1612.03 912.276,1603.03 876.5,1594.5C 891.323,1535.54 905.989,1476.54 920.5,1417.5C 891.971,1410.95 863.637,1403.62 835.5,1395.5C 819.417,1454.17 804.417,1513.17 790.5,1572.5C 754.429,1564.15 718.429,1555.48 682.5,1546.5C 696.612,1486.88 711.279,1427.38 726.5,1368C 726.167,1367.5 725.833,1367 725.5,1366.5C 653.987,1347.87 582.321,1329.71 510.5,1312C 510.043,1311.59 509.709,1311.09 509.5,1310.5C 527.074,1269.94 544.74,1229.44 562.5,1189C 565.515,1188.8 568.515,1189.13 571.5,1190C 598.142,1197.91 625.142,1204.41 652.5,1209.5C 672.839,1208.33 686.005,1198 692,1178.5C 714.704,1085.35 737.871,992.351 761.5,899.5 Z"/></g>
<g><path style="opacity:1" fill="#f7931a" d="M 1009.5,703.5 C 1055.95,711.947 1101.29,724.447 1145.5,741C 1172.23,751.756 1195.73,767.256 1216,787.5C 1236.64,812.015 1243.31,840.015 1236,871.5C 1227.65,905.846 1206.82,928.679 1173.5,940C 1155.06,945.49 1136.23,947.99 1117,947.5C 1095.66,947.625 1074.5,945.791 1053.5,942C 1020.92,935.712 988.755,927.878 957,918.5C 956.333,916.833 956.333,915.167 957,913.5C 974.505,843.482 992.005,773.482 1009.5,703.5 Z"/></g>
<g><path style="opacity:1" fill="#fcc98e" d="M 762.5,896.5 C 763.347,897.966 764.68,898.8 766.5,899C 764.866,899.494 763.199,899.66 761.5,899.5C 761.263,898.209 761.596,897.209 762.5,896.5 Z"/></g>
<g><path style="opacity:1" fill="#f7931a" d="M 928.5,1027.5 C 959.921,1034.46 991.254,1041.96 1022.5,1050C 1061.23,1060.02 1098.23,1074.35 1133.5,1093C 1157.82,1106.25 1177.66,1124.41 1193,1147.5C 1209.98,1181.74 1209.31,1215.74 1191,1249.5C 1176.46,1272.35 1155.96,1287.18 1129.5,1294C 1098.5,1301 1067.17,1303 1035.5,1300C 979.583,1292.79 924.583,1281.29 870.5,1265.5C 870.167,1265 869.833,1264.5 869.5,1264C 889.719,1185.29 909.386,1106.46 928.5,1027.5 Z"/></g>
</svg>
