<svg version="1.1" id="Layer_1" xmlns="http://www.w3.org/2000/svg" xmlns:xlink="http://www.w3.org/1999/xlink" x="0px" y="0px"
	 width="100%" viewBox="0 0 200 200" enable-background="new 0 0 200 200" xml:space="preserve">
<path fill="#1A0A2D" opacity="1.000000" stroke="none" 
	d="
M130.000000,201.000000 
	C86.666672,201.000000 43.833340,201.000000 1.000006,201.000000 
	C1.000004,134.333344 1.000004,67.666679 1.000002,1.000015 
	C67.666656,1.000010 134.333313,1.000010 200.999969,1.000005 
	C200.999985,67.666649 200.999985,134.333298 201.000000,200.999969 
	C177.500000,201.000000 154.000000,201.000000 130.000000,201.000000 
M80.500061,51.160397 
	C68.010849,51.160873 55.520782,51.092728 43.033524,51.248989 
	C41.478886,51.268440 39.939133,52.477444 38.392483,53.135250 
	C39.383438,54.329128 40.153564,55.872143 41.400711,56.660984 
	C50.397396,62.351570 59.456600,67.946297 68.587807,73.418190 
	C70.061134,74.301086 71.989876,74.828407 73.710335,74.833984 
	C100.520142,74.920952 127.330444,74.927124 154.140030,74.811638 
	C155.683762,74.804985 157.222305,73.595184 158.763260,72.945320 
	C157.774628,71.754135 157.005630,70.217010 155.761993,69.427467 
	C147.197067,63.989876 138.610748,58.575035 129.848114,53.467163 
	C127.552353,52.128933 124.619865,51.304024 121.963364,51.261131 
	C108.478569,51.043411 94.988373,51.160561 80.500061,51.160397 
M86.563095,151.086151 
	C110.543221,151.086166 134.523468,151.118088 158.503204,151.021881 
	C160.301865,151.014664 162.096832,150.092316 163.893524,149.595367 
	C162.606659,148.096756 161.581848,146.189453 159.988968,145.168121 
	C151.728806,139.871811 143.356934,134.746109 134.940170,129.700821 
	C133.306381,128.721497 131.303009,127.809067 129.465988,127.800980 
	C102.155807,127.680756 74.844856,127.695999 47.534473,127.790276 
	C46.300133,127.794525 45.069416,128.850372 43.837013,129.416412 
	C44.659813,130.533890 45.251961,132.011353 46.342903,132.710327 
	C53.344643,137.196381 60.627438,141.261536 67.477081,145.961655 
	C73.049202,149.785141 78.773254,152.122711 86.563095,151.086151 
M111.730080,90.606651 
	C106.528519,86.957214 101.118416,86.735069 95.921074,90.299362 
	C91.279556,93.482491 89.343147,98.174149 90.375290,103.780663 
	C91.448715,109.611374 96.029396,113.786201 101.930054,114.651436 
	C107.351479,115.446388 112.894409,112.483116 115.548538,107.370956 
	C118.423012,101.834373 117.395058,96.629913 111.730080,90.606651 
z"/>
<path fill="#E9E7EB" opacity="1.000000" stroke="none" 
	d="
M81.000061,51.160397 
	C94.988373,51.160561 108.478569,51.043411 121.963364,51.261131 
	C124.619865,51.304024 127.552353,52.128933 129.848114,53.467163 
	C138.610748,58.575035 147.197067,63.989876 155.761993,69.427467 
	C157.005630,70.217010 157.774628,71.754135 158.763260,72.945320 
	C157.222305,73.595184 155.683762,74.804985 154.140030,74.811638 
	C127.330444,74.927124 100.520142,74.920952 73.710335,74.833984 
	C71.989876,74.828407 70.061134,74.301086 68.587807,73.418190 
	C59.456600,67.946297 50.397396,62.351570 41.400711,56.660984 
	C40.153564,55.872143 39.383438,54.329128 38.392483,53.135250 
	C39.939133,52.477444 41.478886,51.268440 43.033524,51.248989 
	C55.520782,51.092728 68.010849,51.160873 81.000061,51.160397 
M143.740891,70.121841 
	C144.745071,70.075096 145.749268,70.028343 148.184418,69.914970 
	C146.043350,68.822395 145.131607,68.357147 143.815399,67.327545 
	C139.570312,64.705780 135.178787,62.289768 131.122437,59.402809 
	C127.277351,56.666195 123.270615,55.731796 118.569275,55.777618 
	C98.088615,55.977234 77.604904,55.863369 57.122299,55.863365 
	C54.881733,55.863365 52.641167,55.863365 50.400597,55.863365 
	C57.020584,61.006516 63.862823,65.254906 70.755234,69.420280 
	C71.554802,69.903488 72.632858,70.133598 73.581314,70.132278 
	C96.721748,70.100197 119.862099,70.020782 143.740891,70.121841 
z"/>
<path fill="#F9F9FA" opacity="1.000000" stroke="none" 
	d="
M86.077431,151.086151 
	C78.773254,152.122711 73.049202,149.785141 67.477081,145.961655 
	C60.627438,141.261536 53.344643,137.196381 46.342903,132.710327 
	C45.251961,132.011353 44.659813,130.533890 43.837013,129.416412 
	C45.069416,128.850372 46.300133,127.794525 47.534473,127.790276 
	C74.844856,127.695999 102.155807,127.680756 129.465988,127.800980 
	C131.303009,127.809067 133.306381,128.721497 134.940170,129.700821 
	C143.356934,134.746109 151.728806,139.871811 159.988968,145.168121 
	C161.581848,146.189453 162.606659,148.096756 163.893524,149.595367 
	C162.096832,150.092316 160.301865,151.014664 158.503204,151.021881 
	C134.523468,151.118088 110.543221,151.086166 86.077431,151.086151 
M58.263184,132.072800 
	C57.280636,132.072800 56.298084,132.072800 55.315536,132.072800 
	C55.255234,132.336487 55.194931,132.600159 55.134628,132.863846 
	C56.034477,133.384491 56.934330,133.905136 58.269909,134.915298 
	C64.499695,138.665512 70.729477,142.415726 77.607735,146.695419 
	C102.571617,146.695419 127.535507,146.695419 152.499390,146.695419 
	C152.558319,146.327576 152.617233,145.959717 152.676163,145.591873 
	C151.109756,144.755615 149.543365,143.919373 147.446564,142.649261 
	C142.644135,139.662903 137.880386,136.611191 133.014481,133.732117 
	C131.646530,132.922714 129.979446,132.157471 128.448135,132.154663 
	C105.296593,132.112259 82.144829,132.200485 58.263184,132.072800 
z"/>
<path fill="#FAFAFB" opacity="1.000000" stroke="none" 
	d="
M112.029312,90.837463 
	C117.395058,96.629913 118.423012,101.834373 115.548538,107.370956 
	C112.894409,112.483116 107.351479,115.446388 101.930054,114.651436 
	C96.029396,113.786201 91.448715,109.611374 90.375290,103.780663 
	C89.343147,98.174149 91.279556,93.482491 95.921074,90.299362 
	C101.118416,86.735069 106.528519,86.957214 112.029312,90.837463 
z"/>
<path fill="#1B0B2E" opacity="1.000000" stroke="none" 
	d="
M143.002472,69.949860 
	C119.862099,70.020782 96.721748,70.100197 73.581314,70.132278 
	C72.632858,70.133598 71.554802,69.903488 70.755234,69.420280 
	C63.862823,65.254906 57.020584,61.006516 50.400597,55.863365 
	C52.641167,55.863365 54.881733,55.863365 57.122299,55.863365 
	C77.604904,55.863369 98.088615,55.977234 118.569275,55.777618 
	C123.270615,55.731796 127.277351,56.666195 131.122437,59.402809 
	C135.178787,62.289768 139.570312,64.705780 143.761597,67.791405 
	C143.472687,68.820129 143.237579,69.384995 143.002472,69.949860 
z"/>
<path fill="#130327" opacity="1.000000" stroke="none" 
	d="
M143.371674,70.035851 
	C143.237579,69.384995 143.472687,68.820129 143.963837,68.073578 
	C145.131607,68.357147 146.043350,68.822395 148.184418,69.914970 
	C145.749268,70.028343 144.745071,70.075096 143.371674,70.035851 
z"/>
<path fill="#1B0B2E" opacity="1.000000" stroke="none" 
	d="
M76.959267,146.165955 
	C70.729477,142.415726 64.499695,138.665512 58.166924,134.384659 
	C58.373661,133.322037 58.683384,132.790054 58.993111,132.258087 
	C82.144829,132.200485 105.296593,132.112259 128.448135,132.154663 
	C129.979446,132.157471 131.646530,132.922714 133.014481,133.732117 
	C137.880386,136.611191 142.644135,139.662903 147.632690,143.269379 
	C146.007446,144.333237 144.197845,145.154358 142.384460,145.162766 
	C122.490929,145.255020 102.596710,145.194794 82.702965,145.261719 
	C80.787407,145.268158 78.873787,145.850800 76.959267,146.165955 
z"/>
<path fill="#423752" opacity="1.000000" stroke="none" 
	d="
M77.283501,146.430695 
	C78.873787,145.850800 80.787407,145.268158 82.702965,145.261719 
	C102.596710,145.194794 122.490929,145.255020 142.384460,145.162766 
	C144.197845,145.154358 146.007446,144.333237 147.897888,143.486298 
	C149.543365,143.919373 151.109756,144.755615 152.676163,145.591873 
	C152.617233,145.959717 152.558319,146.327576 152.499390,146.695419 
	C127.535507,146.695419 102.571617,146.695419 77.283501,146.430695 
z"/>
<path fill="#28193A" opacity="1.000000" stroke="none" 
	d="
M58.628147,132.165436 
	C58.683384,132.790054 58.373661,133.322037 57.949059,134.139893 
	C56.934330,133.905136 56.034477,133.384491 55.134628,132.863846 
	C55.194931,132.600159 55.255234,132.336487 55.315536,132.072800 
	C56.298084,132.072800 57.280636,132.072800 58.628147,132.165436 
z"/>
</svg>