<svg xmlns="http://www.w3.org/2000/svg" id="Layer_2" data-name="Layer 2" viewBox="0 0 182.28 26.04"><defs><style>.cls-1{fill:#1d2920}.cls-1,.cls-2,.cls-3,.cls-4,.cls-5,.cls-6{stroke-width:0}.cls-2{fill:#de2d25}.cls-3{fill:#aa1a1a}.cls-4{fill:#ffad9f}.cls-5{fill:#ff3a32}.cls-6{fill:#ff5831}</style></defs><g id="_ò__1" data-name="ò‡_1"><path d="M3.72 3.72v3.72h7.44V3.72H3.72M14.88 3.72v3.72h7.44V3.72h-7.44" class="cls-6"/><path d="M3.72 7.44v3.72h7.44V7.44H3.72M14.88 7.44v3.72h7.44V7.44h-7.44" class="cls-4"/><path d="M3.72 14.88v3.72h7.44v-3.72H3.72M14.88 14.88v3.72h7.44v-3.72h-7.44" class="cls-2"/><path d="M3.72 11.16v3.72h7.44v-3.72H3.72M14.88 11.16v3.72h7.44v-3.72h-7.44" class="cls-5"/><path d="M3.72 18.6v3.72h7.44V18.6H3.72M14.88 18.6v3.72h7.44V18.6h-7.44" class="cls-3"/><path d="M11.16 3.72V0H3.72v3.72h7.44M3.72 22.32v3.72h7.44v-3.72H3.72M3.72 18.6V3.72H0v18.6h3.72zM178.56 11.16v11.16h3.72V3.72h-3.72v7.44M156.24 11.16v14.88h22.32v-3.72h-7.44V3.72h7.44V0h-22.32v11.16m3.72 7.44V3.72h7.44v18.6h-7.44zM122.76 3.72v18.6h-7.44v3.72h40.92v-3.72h-7.44V3.72h7.44V0h-40.919999999999995v3.72zm14.88 14.88V3.72h7.44v18.6h-7.44zm-11.16 0V3.72h7.44v18.6h-7.44zM111.6 3.72v18.6h-7.44v3.72h11.16V0h-11.16v3.72h7.44M100.44 11.16v14.88h3.72V0h-3.72v11.16M89.28 11.16v14.88h11.16v-3.72H93V3.72h7.44V0H89.28v11.16M55.8 3.72v18.6h-7.44v3.72h40.92v-3.72h-7.44V3.72h7.44V0H48.36v3.72zM70.68 18.6V3.72h7.44v18.6h-7.44zm-11.16 0V3.72h7.44v18.6h-7.44zM44.64 3.72v18.6H37.2v3.72h11.16V0H37.2v3.72h7.44M33.48 11.16v14.88h3.72V0h-3.72v11.16" class="cls-1"/><path d="M11.16 11.16v14.88h22.32v-3.72h-7.44V3.72h7.44V0H11.16v11.16m3.72 7.44V3.72h7.44v18.6h-7.44z" class="cls-1"/></g></svg>