<?xml version="1.0" encoding="UTF-8"?>
<svg id="Layer_2" data-name="Layer 2" xmlns="http://www.w3.org/2000/svg" viewBox="0 0 182.28 26.04">
  <defs>
    <style>
      .cls-1 {
        fill: #1d2920;
      }

      .cls-1, .cls-2, .cls-3, .cls-4, .cls-5, .cls-6 {
        stroke-width: 0px;
      }

      .cls-2 {
        fill: #de2d25;
      }

      .cls-3 {
        fill: #aa1a1a;
      }

      .cls-4 {
        fill: #ffad9f;
      }

      .cls-5 {
        fill: #ff3a32;
      }

      .cls-6 {
        fill: #ff5831;
      }
    </style>
  </defs>
  <g id="_ò__1" data-name="ò‡_1">
    <g>
      <polygon class="cls-6" points="3.72 3.72 3.72 7.44 7.44 7.44 11.16 7.44 11.16 3.72 7.44 3.72 3.72 3.72"/>
      <polygon class="cls-6" points="14.88 3.72 14.88 7.44 18.6 7.44 22.32 7.44 22.32 3.72 18.6 3.72 14.88 3.72"/>
      <polygon class="cls-4" points="3.72 7.44 3.72 11.16 7.44 11.16 11.16 11.16 11.16 7.44 7.44 7.44 3.72 7.44"/>
      <polygon class="cls-4" points="14.88 7.44 14.88 11.16 18.6 11.16 22.32 11.16 22.32 7.44 18.6 7.44 14.88 7.44"/>
      <polygon class="cls-2" points="3.72 14.88 3.72 18.6 7.44 18.6 11.16 18.6 11.16 14.88 7.44 14.88 3.72 14.88"/>
      <polygon class="cls-2" points="14.88 14.88 14.88 18.6 18.6 18.6 22.32 18.6 22.32 14.88 18.6 14.88 14.88 14.88"/>
      <polygon class="cls-5" points="3.72 11.16 3.72 14.88 7.44 14.88 11.16 14.88 11.16 11.16 7.44 11.16 3.72 11.16"/>
      <polygon class="cls-5" points="14.88 11.16 14.88 14.88 18.6 14.88 22.32 14.88 22.32 11.16 18.6 11.16 14.88 11.16"/>
      <polygon class="cls-3" points="3.72 18.6 3.72 22.32 7.44 22.32 11.16 22.32 11.16 18.6 7.44 18.6 3.72 18.6"/>
      <polygon class="cls-3" points="14.88 18.6 14.88 22.32 18.6 22.32 22.32 22.32 22.32 18.6 18.6 18.6 14.88 18.6"/>
      <polygon class="cls-1" points="11.16 3.72 11.16 0 7.44 0 3.72 0 3.72 3.72 7.44 3.72 11.16 3.72"/>
      <polygon class="cls-1" points="3.72 22.32 3.72 26.04 7.44 26.04 11.16 26.04 11.16 22.32 7.44 22.32 3.72 22.32"/>
      <polygon class="cls-1" points="3.72 18.6 3.72 14.88 3.72 11.16 3.72 7.44 3.72 3.72 0 3.72 0 7.44 0 11.16 0 14.88 0 18.6 0 22.32 3.72 22.32 3.72 18.6"/>
      <polygon class="cls-1" points="178.56 11.16 178.56 14.88 178.56 18.6 178.56 22.32 182.28 22.32 182.28 18.6 182.28 14.88 182.28 11.16 182.28 7.44 182.28 3.72 178.56 3.72 178.56 7.44 178.56 11.16"/>
      <path class="cls-1" d="m156.24,11.16v11.16h0v3.72h22.32v-3.72h-7.44V3.72h7.44V0h-7.44s-3.72,0-3.72,0h0s-3.72,0-3.72,0h-3.72s-3.72,0-3.72,0v3.72h0v7.44Zm3.72,7.44V3.72h7.44v18.6h-7.44v-3.72Z"/>
      <path class="cls-1" d="m122.76,3.72v18.6h-7.44v3.72h40.92v-3.72h-7.44V3.72h7.44V0h-7.44s-3.72,0-3.72,0h0s-3.72,0-3.72,0h-3.72s-3.72,0-3.72,0h0s-3.72,0-3.72,0h-3.72s-3.72,0-3.72,0h0s-3.72,0-3.72,0h-3.72v3.72h7.44Zm14.88,14.88V3.72h7.44v18.6h-7.44v-3.72Zm-11.16,0V3.72h7.44v18.6h-7.44v-3.72Z"/>
      <polygon class="cls-1" points="111.6 3.72 111.6 7.44 111.6 11.16 111.6 14.88 111.6 18.6 111.6 22.32 107.88 22.32 104.16 22.32 104.16 26.04 107.88 26.04 111.6 26.04 115.32 26.04 115.32 22.32 115.32 22.32 115.32 18.6 115.32 14.88 115.32 11.16 115.32 7.44 115.32 3.72 115.32 3.72 115.32 0 111.6 0 111.6 0 107.88 0 104.16 0 104.16 3.72 107.88 3.72 111.6 3.72"/>
      <polygon class="cls-1" points="100.44 11.16 100.44 14.88 100.44 18.6 100.44 22.32 100.44 22.32 100.44 26.04 104.16 26.04 104.16 22.32 104.16 22.32 104.16 18.6 104.16 14.88 104.16 11.16 104.16 7.44 104.16 3.72 104.16 3.72 104.16 0 100.44 0 100.44 3.72 100.44 3.72 100.44 7.44 100.44 11.16"/>
      <polygon class="cls-1" points="89.28 11.16 89.28 14.88 89.28 18.6 89.28 22.32 89.28 22.32 89.28 26.04 93 26.04 96.72 26.04 100.44 26.04 100.44 22.32 96.72 22.32 93 22.32 93 18.6 93 14.88 93 11.16 93 7.44 93 3.72 96.72 3.72 100.44 3.72 100.44 0 96.72 0 93 0 93 0 89.28 0 89.28 3.72 89.28 3.72 89.28 7.44 89.28 11.16"/>
      <path class="cls-1" d="m55.8,3.72v18.6h-7.44v3.72h40.92v-3.72h-7.44V3.72h7.44V0h-7.44s-3.72,0-3.72,0h0s-3.72,0-3.72,0h-3.72s-3.72,0-3.72,0h0s-3.72,0-3.72,0h-3.72s-3.72,0-3.72,0h0s-3.72,0-3.72,0h-3.72v3.72h7.44Zm14.88,14.88V3.72h7.44v18.6h-7.44v-3.72Zm-11.16,0V3.72h7.44v18.6h-7.44v-3.72Z"/>
      <polygon class="cls-1" points="44.64 3.72 44.64 7.44 44.64 11.16 44.64 14.88 44.64 18.6 44.64 22.32 40.92 22.32 37.2 22.32 37.2 26.04 40.92 26.04 44.64 26.04 48.36 26.04 48.36 22.32 48.36 22.32 48.36 18.6 48.36 14.88 48.36 11.16 48.36 7.44 48.36 3.72 48.36 3.72 48.36 0 44.64 0 44.64 0 40.92 0 37.2 0 37.2 3.72 40.92 3.72 44.64 3.72"/>
      <polygon class="cls-1" points="33.48 11.16 33.48 14.88 33.48 18.6 33.48 22.32 33.48 22.32 33.48 26.04 37.2 26.04 37.2 22.32 37.2 22.32 37.2 18.6 37.2 14.88 37.2 11.16 37.2 7.44 37.2 3.72 37.2 3.72 37.2 0 33.48 0 33.48 3.72 33.48 3.72 33.48 7.44 33.48 11.16"/>
      <path class="cls-1" d="m11.16,11.16v11.16h0v3.72h22.32v-3.72h-7.44V3.72h7.44V0h-7.44s0,0,0,0h-3.72s-3.72,0-3.72,0h-3.72s-3.72,0-3.72,0v3.72h0v7.44Zm3.72,7.44V3.72h7.44v18.6h-7.44v-3.72Z"/>
    </g>
  </g>
</svg>