<svg xmlns="http://www.w3.org/2000/svg" id="Layer_2" data-name="Layer 2" viewBox="0 0 182.28 26.04"><defs><style>.cls-1{fill:#4b8c13}.cls-1,.cls-2,.cls-3,.cls-4,.cls-5,.cls-6{stroke-width:0}.cls-2{fill:#78e01e}.cls-3{fill:#6bd31a}.cls-4{fill:#1d2920}.cls-5{fill:#9bf44d}.cls-6{fill:#69c41a}</style></defs><g id="_ò__1" data-name="ò‡_1"><path d="M3.72 18.6v3.72h7.44V18.6H3.72M14.88 18.6v3.72h7.44V18.6h-7.44M26.04 18.6v3.72h7.44V18.6h-7.44M37.2 18.6v3.72h7.44V18.6H37.2M48.36 18.6v3.72h7.44V18.6h-7.44M59.52 18.6v3.72h7.44V18.6h-7.44M70.68 18.6v3.72h7.44V18.6h-7.44M81.84 18.6v3.72h7.44V18.6h-7.44M93 18.6v3.72h7.44V18.6H93M104.16 18.6v3.72h7.44V18.6h-7.44M115.32 18.6v3.72h7.44V18.6h-7.44M126.48 18.6v3.72h7.44V18.6h-7.44M137.64 18.6v3.72h7.44V18.6h-7.44M148.8 18.6v3.72h7.44V18.6h-7.44M159.96 18.6v3.72h7.44V18.6h-7.44" class="cls-1"/><path d="M3.72 14.88v3.72h7.44v-3.72H3.72M14.88 14.88v3.72h7.44v-3.72h-7.44M26.04 14.88v3.72h7.44v-3.72h-7.44M37.2 14.88v3.72h7.44v-3.72H37.2M48.36 14.88v3.72h7.44v-3.72h-7.44M59.52 14.88v3.72h7.44v-3.72h-7.44M70.68 14.88v3.72h7.44v-3.72h-7.44M81.84 14.88v3.72h7.44v-3.72h-7.44M93 14.88v3.72h7.44v-3.72H93M104.16 14.88v3.72h7.44v-3.72h-7.44M115.32 14.88v3.72h7.44v-3.72h-7.44M126.48 14.88v3.72h7.44v-3.72h-7.44M137.64 14.88v3.72h7.44v-3.72h-7.44M148.8 14.88v3.72h7.44v-3.72h-7.44M159.96 14.88v3.72h7.44v-3.72h-7.44" class="cls-6"/><path d="M3.72 11.16v3.72h7.44v-3.72H3.72M14.88 11.16v3.72h7.44v-3.72h-7.44M26.04 11.16v3.72h7.44v-3.72h-7.44M37.2 11.16v3.72h7.44v-3.72H37.2M48.36 11.16v3.72h7.44v-3.72h-7.44M59.52 11.16v3.72h7.44v-3.72h-7.44M70.68 11.16v3.72h7.44v-3.72h-7.44M81.84 11.16v3.72h7.44v-3.72h-7.44M93 11.16v3.72h7.44v-3.72H93M104.16 11.16v3.72h7.44v-3.72h-7.44M115.32 11.16v3.72h7.44v-3.72h-7.44M126.48 11.16v3.72h7.44v-3.72h-7.44M137.64 11.16v3.72h7.44v-3.72h-7.44M148.8 11.16v3.72h7.44v-3.72h-7.44M159.96 11.16v3.72h7.44v-3.72h-7.44" class="cls-3"/><path d="M3.72 7.44v3.72h7.44V7.44H3.72M14.88 7.44v3.72h7.44V7.44h-7.44M26.04 7.44v3.72h7.44V7.44h-7.44M37.2 7.44v3.72h7.44V7.44H37.2M48.36 7.44v3.72h7.44V7.44h-7.44M59.52 7.44v3.72h7.44V7.44h-7.44M70.68 7.44v3.72h7.44V7.44h-7.44M81.84 7.44v3.72h7.44V7.44h-7.44M93 7.44v3.72h7.44V7.44H93M104.16 7.44v3.72h7.44V7.44h-7.44M115.32 7.44v3.72h7.44V7.44h-7.44M126.48 7.44v3.72h7.44V7.44h-7.44M137.64 7.44v3.72h7.44V7.44h-7.44M148.8 7.44v3.72h7.44V7.44h-7.44M159.96 7.44v3.72h7.44V7.44h-7.44" class="cls-5"/><path d="M3.72 3.72v3.72h7.44V3.72H3.72M14.88 3.72v3.72h7.44V3.72h-7.44M26.04 3.72v3.72h7.44V3.72h-7.44M37.2 3.72v3.72h7.44V3.72H37.2M48.36 3.72v3.72h7.44V3.72h-7.44M59.52 3.72v3.72h7.44V3.72h-7.44M70.68 3.72v3.72h7.44V3.72h-7.44M81.84 3.72v3.72h7.44V3.72h-7.44M93 3.72v3.72h7.44V3.72H93M104.16 3.72v3.72h7.44V3.72h-7.44M115.32 3.72v3.72h7.44V3.72h-7.44M126.48 3.72v3.72h7.44V3.72h-7.44M137.64 3.72v3.72h7.44V3.72h-7.44M148.8 3.72v3.72h7.44V3.72h-7.44M159.96 3.72v3.72h7.44V3.72h-7.44" class="cls-2"/><path d="M11.16 11.16v14.88h111.6v-3.72h-7.44V3.72h7.44V0H11.16v11.16m93 7.44V3.72h7.44v18.6h-7.44zM93 18.6V3.72h7.44v18.6H93zm-11.16 0V3.72h7.44v18.6h-7.44zm-11.16 0V3.72h7.44v18.6h-7.44zm-11.16 0V3.72h7.44v18.6h-7.44zm-11.16 0V3.72h7.44v18.6h-7.44zm-11.16 0V3.72h7.44v18.6H37.2zm-11.16 0V3.72h7.44v18.6h-7.44zm-11.16 0V3.72h7.44v18.6h-7.44zM11.16 3.72V0H3.72v3.72h7.44M3.72 22.32v3.72h7.44v-3.72H3.72M3.72 18.6V3.72H0v18.6h3.72zM122.76 11.16v14.88h33.48v-3.72h-7.44V3.72h7.44V0h-33.48v11.16m14.88 7.44V3.72h7.44v18.6h-7.44zm-11.16 0V3.72h7.44v18.6h-7.44zM156.24 11.16v14.88h22.32v-3.72h-7.44V3.72h7.44V0h-22.32v11.16m3.72 7.44V3.72h7.44v18.6h-7.44zM178.56 11.16v11.16h3.72V3.72h-3.72v7.44" class="cls-4"/></g></svg>