<svg xmlns="http://www.w3.org/2000/svg" width="14" height="14" fill="none"><g clip-path="url(#a)"><path fill="#fff" fill-opacity=".9" d="M7.221.818H6.152V3h1.069zm-6.947 6V7.91h2.138V6.82zm12.825 0V7.91H10.96V6.82zM7.22 13.91H6.152v-2.182h1.069zM4.549 4.091h4.275v1.091H4.549zM3.481 5.182h1.068v4.364H3.481zm1.068 5.454v-1.09h4.275v1.09zm5.344-1.09H8.824V5.182h1.069zm1.068-7.637h1.07V3h-1.07zm0 1.091v1.091H9.893v-1.09zm1.07 9.818h-1.07v-1.09h1.07zm-1.07-1.09H9.893v-1.091h1.068zm-8.55-9.819H1.344V3h1.069v1.091H3.48v-1.09H2.41zM1.344 12.82h1.069v-1.092H3.48v-1.09H2.41v1.09H1.344z"/></g><defs><clipPath id="a"><path fill="#fff" d="M.274.818h12.824V13.91H.274z"/></clipPath></defs></svg>