<svg xmlns="http://www.w3.org/2000/svg" id="Layer_2" data-name="Layer 2" viewBox="0 0 63.34 69.68"><defs><style>.cls-1,.cls-2{stroke-width:0}.cls-2{fill:#f7dabf}</style></defs><g id="Layer_2-2" data-name="Layer 2"><path d="M50.67 6.33h-38v38.01h12.67v6.33h6.33v6.34H38v6.33h6.34V50.67H38v-6.33h6.34v-6.31h12.67V12.67h-6.34z" style="stroke-width:0;fill:#efcaa5"/><path d="M50.67 12.67H57v25.34h-6.33zM31.67 44.34H38v6.33h-6.33zM38 50.67h6.33v12.67H38zM44.34 12.67h6.33V19h-6.33zM12.67 6.33h38v6.33h-38z" class="cls-2"/></g><g id="Layer_1-2" data-name="Layer 1"><path d="M12.67 31.67V6.33H0v38.01h12.67V31.67M19 44.34h-6.33v6.33h12.67v-6.33zM25.34 50.67h6.33V57h-6.33zM31.67 57.01H38v6.33h-6.33zM38 63.34h6.33v6.33H38zM44.34 63.34h6.33V50.67h-6.33v12.67M38 44.34h6.33v6.33H38zM44.34 38.01v6.33h12.67v-6.33H44.34M57.01 19v19.009999999999998h6.33V12.67h-6.33zM50.67 6.33H57v6.33h-6.33zM25.34 6.33h25.33V0h-38v6.33h12.67" class="cls-1"/></g></svg>