<svg xmlns="http://www.w3.org/2000/svg" id="Layer_2" data-name="Layer 2" viewBox="0 0 614.42 586.88"><defs><style>.cls-1{fill:none;stroke:#231f20;stroke-miterlimit:10;stroke-width:12px}.cls-2{fill:#499aea}.cls-10,.cls-11,.cls-12,.cls-2,.cls-3,.cls-4,.cls-5,.cls-6,.cls-7,.cls-8,.cls-9{stroke-width:0}.cls-3{fill:#545454}.cls-4{fill:#707070}.cls-5{fill:#1a6bad}.cls-6{fill:#3f3f3f}.cls-7{fill:#1c8c36}.cls-8{fill:#2077e0}.cls-9{fill:#239b1c}.cls-10{fill:#23ad47}.cls-11{fill:#cacbcc}.cls-12{fill:#80c427}</style></defs><g id="bg"><path d="M226.82 6h161.19M394.01 11.1v26.86M221.34 11.1v26.86M441.73 32.71h-53.72M447.52 37.96v26.87M447.52 58.94h47.94M501.33 64.83v26.86M501.33 86.34h21M527.85 91.69v26.86M527.85 112.87h21.34M555.01 118.55v53.73M555.01 167.25h21.05M582.06 172.28v53.73M582.06 220.6h20.86M608.42 226.01v134.32M602.92 366.16h-26.86M581.49 366.16v47.89M576.06 419.86h-26.87M554.58 419.86v47.92M549.19 472.82h-26.86M527.09 472.82v21.83M522.33 500.67h-26.87M501.3 500.67v20.84M495.46 527.34h-53.73M447.66 527.34v21.04M441.73 553.76h-53.72M394.01 553.76v21.48M388.01 580.88H226.82M221.34 575.24v-26.86M221.34 553.63h-48.25M168.32 548.38v-26.87M168.32 527.41h-48.95M113.42 521.51v-26.86M113.42 500.25H92.5M86.69 494.65v-26.86M86.69 473.76H65.64M60.02 467.78v-53.72M60.02 419.81H38.78M32.86 414.05v-53.72M32.86 365.91H11.91M6 360.33V226.01M11.91 220.56h26.87M32.98 220.56v-48.28M38.78 166.25h26.86M59.95 166.25v-47.7M65.64 113.16h29.27M87.19 113.16V91.69M92.5 86.38h26.87M113.54 86.38V64.83M119.37 58.95h53.72M167.12 58.95V37.96M173.09 32.05h51.89" class="cls-1"/></g><g id="pix"><path d="M146.23 467.79h26.86v26.86h-26.86z" class="cls-8"/><path d="M576.06 333.47h26.86v26.86h-26.86z" class="cls-9"/><path d="M576.06 333.46h26.86v.01h-26.86z" class="cls-6"/><path d="M576.06 306.6h26.86v26.86h-26.86z" class="cls-11"/><path d="M576.06 279.74h26.86v26.86h-26.86zM576.06 252.87h26.86v26.87h-26.86zM576.06 226.01h26.86v26.86h-26.86z" class="cls-5"/><path d="M549.19 387.19h26.87v26.86h-26.87zM549.19 360.33h26.87v26.86h-26.87z" class="cls-9"/><path d="M549.19 333.47h26.87v26.86h-26.87z" class="cls-11"/><path d="M549.19 333.46h26.87v.01h-26.87z" class="cls-9"/><path d="M549.19 306.6h26.87v26.86h-26.87zM549.19 279.74h26.87v26.86h-26.87zM549.19 252.87h26.87v26.87h-26.87zM549.19 226.01h26.87v26.86h-26.87z" class="cls-5"/><path d="M549.19 199.15h26.87v26.86h-26.87zM549.19 199.14h26.87v.01h-26.87z" class="cls-9"/><path d="M549.19 172.28h26.87v26.86h-26.87z" class="cls-11"/><path d="M522.33 440.92h26.86v26.86h-26.86zM522.33 414.06h26.86v26.86h-26.86zM549.19 414.05v.01h-26.86v-26.87h26.86zM522.33 360.33h26.86v26.86h-26.86z" class="cls-9"/><path d="M522.33 333.47h26.86v26.86h-26.86z" class="cls-11"/><path d="M522.33 333.46h26.86v.01h-26.86z" class="cls-5"/><path d="M522.33 306.6h26.86v26.86h-26.86zM522.33 279.74h26.86v26.86h-26.86zM522.33 252.87h26.86v26.87h-26.86zM522.33 226.01h26.86v26.86h-26.86zM522.33 199.15h26.86v26.86h-26.86z" class="cls-5"/><path d="M522.33 199.14h26.86v.01h-26.86z" class="cls-9"/><path d="M522.33 172.28h26.86v26.86h-26.86z" class="cls-11"/><path d="M522.33 145.42h26.86v26.86h-26.86zM549.19 145.41v.01h-26.86v-26.87h26.86z" class="cls-9"/><path d="M495.46 467.79h26.87v26.86h-26.87z" class="cls-11"/><path d="M495.46 467.78h26.87v.01h-26.87z" class="cls-6"/><path d="M495.46 440.92h26.87v26.86h-26.87zM495.46 414.06h26.87v26.86h-26.87z" class="cls-9"/><path d="M522.33 387.19v26.87h-26.87v-26.87z" class="cls-7"/><path d="M495.46 360.33h26.87v26.86h-26.87z" class="cls-11"/><path d="M495.46 333.47h26.87v26.86h-26.87z" class="cls-11"/><path d="M495.46 333.46h26.87v.01h-26.87z" class="cls-3"/><path d="M495.46 306.6h26.87v26.86h-26.87zM495.46 279.74h26.87v26.86h-26.87zM495.46 252.87h26.87v26.87h-26.87zM495.46 226.01h26.87v26.86h-26.87zM495.46 199.15h26.87v26.86h-26.87z" class="cls-11"/><path d="M495.46 199.14h26.87v.01h-26.87z" class="cls-3"/><path d="M495.46 172.28h26.87v26.86h-26.87z" class="cls-11"/><path d="M495.46 145.42h26.87v26.86h-26.87z" class="cls-7"/><path d="M522.33 118.55v26.87h-26.87v-26.87z" class="cls-9"/><path d="M495.46 91.69h26.87v26.86h-26.87zM468.6 494.65h26.86v26.86H468.6z" class="cls-9"/><path d="M468.6 467.79h26.86v26.86H468.6z" class="cls-11"/><path d="M468.6 467.78h26.86v.01H468.6z" class="cls-6"/><path d="M468.6 440.92h26.86v26.86H468.6zM468.6 414.06h26.86v26.86H468.6z" class="cls-11"/><path d="M468.6 414.05h26.86v.01H468.6z" class="cls-6"/><path d="M468.6 387.19h26.86v26.86H468.6zM468.6 360.33h26.86v26.86H468.6z" class="cls-11"/><path d="M495.46 333.47v26.86H468.6v-26.87h26.86z" class="cls-8"/><path d="M468.6 306.6h26.86v26.86H468.6z" class="cls-7"/><path d="M468.6 279.74h26.86v26.86H468.6zM468.6 252.87h26.86v26.87H468.6zM468.6 226.01h26.86v26.86H468.6z" class="cls-8"/><path d="M468.6 199.15h26.86v26.86H468.6z" class="cls-11"/><path d="M468.6 199.14h26.86v.01H468.6z" class="cls-3"/><path d="M468.6 172.28h26.86v26.86H468.6zM468.6 145.42h26.86v26.86H468.6zM468.6 118.55h26.86v26.86H468.6z" class="cls-11"/><path d="M468.6 91.69h26.86v26.86H468.6z" class="cls-9"/><path d="M468.6 64.83h26.86v26.86H468.6z" class="cls-5"/><path d="M441.73 494.65h26.87v26.86h-26.87z" class="cls-11"/><path d="M441.73 467.79h26.87v26.86h-26.87z" class="cls-11"/><path d="M441.73 467.78h26.87v.01h-26.87z" class="cls-6"/><path d="M441.73 440.92h26.87v26.86h-26.87z" class="cls-9"/><path d="M441.73 414.06h26.87v26.86h-26.87z" class="cls-7"/><path d="M468.6 414.05v.01h-26.87v-26.87h26.87z" class="cls-8"/><path d="M441.73 360.33h26.87v26.86h-26.87z" class="cls-11"/><path d="M441.73 333.46h26.87v26.87h-26.87z" class="cls-8"/><path d="M441.73 306.6h26.87v26.86h-26.87z" class="cls-12"/><path d="M441.73 279.74h26.87v26.86h-26.87z" class="cls-7"/><path d="M441.73 252.87h26.87v26.87h-26.87zM441.73 226.01h26.87v26.86h-26.87z" class="cls-8"/><path d="M441.73 199.15h26.87v26.86h-26.87z" class="cls-11"/><path d="M441.73 199.14h26.87v.01h-26.87z" class="cls-3"/><path d="M441.73 172.28h26.87v26.86h-26.87zM441.73 145.42h26.87v26.86h-26.87zM468.6 145.41v.01h-26.87v-26.87h26.87z" class="cls-8"/><path d="M441.73 91.69h26.87v26.86h-26.87zM441.73 64.83h26.87v26.86h-26.87z" class="cls-11"/><path d="M414.87 521.51h26.86v26.87h-26.86z" class="cls-5"/><path d="M414.87 494.65h26.86v26.86h-26.86z" class="cls-11"/><path d="M414.87 467.79h26.86v26.86h-26.86z" class="cls-9"/><path d="M441.73 467.78v.01h-26.86v-26.87h26.86z" class="cls-7"/><path d="M414.87 414.06h26.86v26.86h-26.86zM441.73 387.19v26.87h-26.86v-26.87z" class="cls-8"/><path d="M414.87 360.33h26.86v26.86h-26.86z" class="cls-11"/><path d="M441.73 333.46v26.87h-26.86v-26.87z" class="cls-8"/><path d="M414.87 306.6h26.86v26.86h-26.86z" class="cls-12"/><path d="M414.87 279.74h26.86v26.86h-26.86zM414.87 252.87h26.86v26.87h-26.86zM414.87 226.01h26.86v26.86h-26.86z" class="cls-8"/><path d="M414.87 199.15h26.86v26.86h-26.86z" class="cls-11"/><path d="M414.87 199.14h26.86v.01h-26.86z" class="cls-3"/><path d="M414.87 172.28h26.86v26.86h-26.86zM414.87 145.42h26.86v26.86h-26.86zM441.73 118.55v26.87h-26.86v-26.87z" class="cls-8"/><path d="M414.87 91.69h26.86v26.86h-26.86z" class="cls-8"/><path d="M414.87 64.83h26.86v26.86h-26.86z" class="cls-5"/><path d="M414.87 64.82h26.86v.01h-26.86z" class="cls-4"/><path d="M414.87 37.96h26.86v26.86h-26.86z" class="cls-11"/><path d="M388.01 521.51h26.86v26.87h-26.86z" class="cls-5"/><path d="M388.01 494.65h26.86v26.86h-26.86z" class="cls-11"/><path d="M388.01 467.79h26.86v26.86h-26.86z" class="cls-5"/><path d="M414.87 440.92v26.87h-26.86v-26.87z" class="cls-8"/><path d="M388.01 414.06h26.86v26.86h-26.86z" class="cls-11"/><path d="M388.01 414.05h26.86v.01h-26.86z" class="cls-6"/><path d="M388.01 387.19h26.86v26.86h-26.86zM388.01 360.33h26.86v26.86h-26.86z" class="cls-11"/><path d="M388.01 333.47h26.86v26.86h-26.86z" class="cls-11"/><path d="M388.01 333.46h26.86v.01h-26.86z" class="cls-3"/><path d="M388.01 306.6h26.86v26.86h-26.86zM388.01 279.74h26.86v26.86h-26.86zM388.01 252.87h26.86v26.87h-26.86zM388.01 226.01h26.86v26.86h-26.86zM388.01 199.15h26.86v26.86h-26.86z" class="cls-11"/><path d="M388.01 199.14h26.86v.01h-26.86z" class="cls-3"/><path d="M388.01 172.28h26.86v26.86h-26.86zM388.01 145.42h26.86v26.86h-26.86z" class="cls-11"/><path d="M388.01 118.55h26.86v26.86h-26.86zM388.01 91.69h26.86v26.86h-26.86z" class="cls-8"/><path d="M388.01 64.83h26.86v26.86h-26.86z" class="cls-11"/><path d="M388.01 64.82h26.86v.01h-26.86z" class="cls-5"/><path d="M388.01 37.96h26.86v26.86h-26.86z" class="cls-2"/><path d="M361.14 548.38h26.87v26.86h-26.87zM361.14 521.51h26.87v26.87h-26.87z" class="cls-5"/><path d="M361.14 494.65h26.87v26.86h-26.87z" class="cls-11"/><path d="M361.14 467.79h26.87v26.86h-26.87z" class="cls-11"/><path d="M361.14 467.78h26.87v.01h-26.87z" class="cls-6"/><path d="M361.14 440.92h26.87v26.86h-26.87z" class="cls-11"/><path d="M361.14 414.06h26.87v26.86h-26.87zM388.01 414.05v.01h-26.87v-26.87h26.87z" class="cls-8"/><path d="M361.14 360.33h26.87v26.86h-26.87z" class="cls-11"/><path d="M388.01 333.47v26.86h-26.87v-26.87h26.87z" class="cls-12"/><path d="M361.14 306.6h26.87v26.86h-26.87z" class="cls-7"/><path d="M361.14 279.74h26.87v26.86h-26.87zM361.14 252.87h26.87v26.87h-26.87zM361.14 226.01h26.87v26.86h-26.87z" class="cls-8"/><path d="M361.14 199.15h26.87v26.86h-26.87z" class="cls-11"/><path d="M361.14 199.14h26.87v.01h-26.87z" class="cls-3"/><path d="M361.14 172.28h26.87v26.86h-26.87zM361.14 145.42h26.87v26.86h-26.87z" class="cls-8"/><path d="M361.14 118.55h26.87v26.86h-26.87zM361.14 91.69h26.87v26.86h-26.87zM361.14 64.83h26.87v26.86h-26.87z" class="cls-11"/><path d="M361.14 64.82h26.87v.01h-26.87z" class="cls-5"/><path d="M361.14 37.96h26.87v26.86h-26.87zM361.14 11.1h26.87v26.86h-26.87z" class="cls-2"/><path d="M334.28 548.38h26.86v26.86h-26.86zM334.28 521.51h26.86v26.87h-26.86zM334.28 494.65h26.86v26.86h-26.86z" class="cls-11"/><path d="M334.28 467.79h26.86v26.86h-26.86zM361.14 467.78v.01h-26.86v-26.87h26.86z" class="cls-12"/><path d="M334.28 414.06h26.86v26.86h-26.86zM334.28 387.19h26.86v26.87h-26.86z" class="cls-8"/><path d="M334.28 360.33h26.86v26.86h-26.86z" class="cls-11"/><path d="M334.28 333.46h26.86v26.87h-26.86z" class="cls-12"/><path d="M334.28 306.6h26.86v26.86h-26.86zM334.28 279.74h26.86v26.86h-26.86z" class="cls-7"/><path d="M334.28 252.87h26.86v26.87h-26.86z" class="cls-12"/><path d="M334.28 226.01h26.86v26.86h-26.86z" class="cls-8"/><path d="M334.28 199.15h26.86v26.86h-26.86z" class="cls-11"/><path d="M334.28 199.14h26.86v.01h-26.86z" class="cls-3"/><path d="M334.28 172.28h26.86v26.86h-26.86zM334.28 145.42h26.86v26.86h-26.86zM361.14 145.41v.01h-26.86v-26.87h26.86z" class="cls-8"/><path d="M334.28 91.69h26.86v26.86h-26.86z" class="cls-8"/><path d="M334.28 64.83h26.86v26.86h-26.86z" class="cls-11"/><path d="M334.28 64.82h26.86v.01h-26.86z" class="cls-4"/><path d="M334.28 37.96h26.86v26.86h-26.86zM334.28 11.1h26.86v26.86h-26.86z" class="cls-11"/><path d="M307.42 548.38h26.86v26.86h-26.86zM307.42 521.51h26.86v26.87h-26.86z" class="cls-5"/><path d="M307.42 494.65h26.86v26.86h-26.86z" class="cls-11"/><path d="M307.42 467.79h26.86v26.86h-26.86zM307.42 440.92h26.86v26.87h-26.86z" class="cls-7"/><path d="M307.42 414.06h26.86v26.86h-26.86zM307.42 387.19h26.86v26.87h-26.86z" class="cls-8"/><path d="M307.42 360.33h26.86v26.86h-26.86z" class="cls-11"/><path d="M307.42 333.46h26.86v26.87h-26.86z" class="cls-12"/><path d="M307.42 306.6h26.86v26.86h-26.86z" class="cls-7"/><path d="M307.42 279.74h26.86v26.86h-26.86z" class="cls-12"/><path d="M307.42 252.87h26.86v26.87h-26.86zM307.42 226.01h26.86v26.86h-26.86z" class="cls-8"/><path d="M307.42 199.15h26.86v26.86h-26.86z" class="cls-11"/><path d="M307.42 199.14h26.86v.01h-26.86z" class="cls-3"/><path d="M307.42 172.28h26.86v26.86h-26.86zM307.42 145.42h26.86v26.86h-26.86zM307.42 118.55h26.86v26.87h-26.86zM307.42 91.69h26.86v26.86h-26.86z" class="cls-8"/><path d="M307.42 64.83h26.86v26.86h-26.86z" class="cls-11"/><path d="M307.42 64.82h26.86v.01h-26.86zM307.42 37.96h26.86v26.86h-26.86zM307.42 11.1h26.86v26.86h-26.86z" class="cls-2"/><path d="M280.55 548.38h26.87v26.86h-26.87zM280.55 521.51h26.87v26.87h-26.87z" class="cls-5"/><path d="M280.55 494.65h26.87v26.86h-26.87z" class="cls-11"/><path d="M280.55 467.79h26.87v26.86h-26.87zM280.55 440.92h26.87v26.87h-26.87z" class="cls-7"/><path d="M280.55 414.06h26.87v26.86h-26.87zM280.55 387.19h26.87v26.87h-26.87z" class="cls-8"/><path d="M280.55 360.33h26.87v26.86h-26.87z" class="cls-11"/><path d="M280.55 333.46h26.87v26.87h-26.87z" class="cls-12"/><path d="M280.55 306.6h26.87v26.86h-26.87z" class="cls-7"/><path d="M280.55 279.74h26.87v26.86h-26.87zM280.55 252.87h26.87v26.87h-26.87zM280.55 226.01h26.87v26.86h-26.87z" class="cls-8"/><path d="M280.55 199.15h26.87v26.86h-26.87z" class="cls-11"/><path d="M280.55 199.14h26.87v.01h-26.87z" class="cls-3"/><path d="M280.55 172.28h26.87v26.86h-26.87zM280.55 145.42h26.87v26.86h-26.87zM280.55 118.55h26.87v26.87h-26.87z" class="cls-12"/><path d="M280.55 91.69h26.87v26.86h-26.87z" class="cls-10"/><path d="M280.55 64.83h26.87v26.86h-26.87z" class="cls-11"/><path d="M280.55 64.82h26.87v.01h-26.87zM280.55 37.96h26.87v26.86h-26.87z" class="cls-10"/><path d="M280.55 11.1h26.87v26.86h-26.87z" class="cls-2"/><path d="M253.69 548.38h26.86v26.86h-26.86zM253.69 521.51h26.86v26.87h-26.86zM253.69 494.65h26.86v26.86h-26.86z" class="cls-11"/><path d="M253.69 467.79h26.86v26.86h-26.86zM280.55 440.92v26.87h-26.86v-26.87z" class="cls-7"/><path d="M253.69 414.06h26.86v26.86h-26.86zM253.69 387.19h26.86v26.87h-26.86z" class="cls-8"/><path d="M253.69 360.33h26.86v26.86h-26.86z" class="cls-11"/><path d="M253.69 333.46h26.86v26.87h-26.86z" class="cls-12"/><path d="M253.69 306.6h26.86v26.86h-26.86z" class="cls-7"/><path d="M253.69 279.74h26.86v26.86h-26.86zM253.69 252.87h26.86v26.87h-26.86zM253.69 226.01h26.86v26.86h-26.86z" class="cls-8"/><path d="M253.69 199.15h26.86v26.86h-26.86z" class="cls-11"/><path d="M253.69 199.14h26.86v.01h-26.86z" class="cls-3"/><path d="M253.69 172.28h26.86v26.86h-26.86z" class="cls-7"/><path d="M253.69 145.42h26.86v26.86h-26.86zM280.55 118.55v26.87h-26.86v-26.87z" class="cls-10"/><path d="M253.69 91.69h26.86v26.86h-26.86z" class="cls-10"/><path d="M253.69 64.83h26.86v26.86h-26.86z" class="cls-11"/><path d="M253.69 64.82h26.86v.01h-26.86z" class="cls-4"/><path d="M253.69 37.96h26.86v26.86h-26.86zM253.69 11.1h26.86v26.86h-26.86z" class="cls-11"/><path d="M226.82 548.38h26.87v26.86h-26.87zM226.82 521.51h26.87v26.87h-26.87z" class="cls-5"/><path d="M226.82 494.65h26.87v26.86h-26.87z" class="cls-11"/><path d="M226.82 467.79h26.87v26.86h-26.87z" class="cls-11"/><path d="M226.82 467.78h26.87v.01h-26.87z" class="cls-6"/><path d="M226.82 440.92h26.87v26.86h-26.87z" class="cls-11"/><path d="M226.82 414.06h26.87v26.86h-26.87z" class="cls-7"/><path d="M253.69 387.19v26.87h-26.87v-26.87z" class="cls-8"/><path d="M226.82 360.33h26.87v26.86h-26.87z" class="cls-11"/><path d="M253.69 333.46v26.87h-26.87v-26.87z" class="cls-7"/><path d="M226.82 306.6h26.87v26.86h-26.87z" class="cls-7"/><path d="M226.82 279.74h26.87v26.86h-26.87zM226.82 252.87h26.87v26.87h-26.87z" class="cls-8"/><path d="M226.82 226.01h26.87v26.86h-26.87z" class="cls-12"/><path d="M226.82 199.15h26.87v26.86h-26.87z" class="cls-11"/><path d="M226.82 199.14h26.87v.01h-26.87z" class="cls-3"/><path d="M226.82 172.28h26.87v26.86h-26.87z" class="cls-7"/><path d="M226.82 145.42h26.87v26.86h-26.87z" class="cls-10"/><path d="M226.82 118.55h26.87v26.86h-26.87zM226.82 91.69h26.87v26.86h-26.87zM226.82 64.83h26.87v26.86h-26.87z" class="cls-11"/><path d="M226.82 64.82h26.87v.01h-26.87zM226.82 37.96h26.87v26.86h-26.87zM226.82 11.1h26.87v26.86h-26.87z" class="cls-10"/><path d="M199.96 521.51h26.86v26.87h-26.86z" class="cls-5"/><path d="M199.96 494.65h26.86v26.86h-26.86z" class="cls-11"/><path d="M199.96 467.79h26.86v26.86h-26.86z" class="cls-8"/><path d="M226.82 467.78v.01h-26.86v-26.87h26.86z" class="cls-12"/><path d="M199.96 414.06h26.86v26.86h-26.86z" class="cls-11"/><path d="M199.96 414.05h26.86v.01h-26.86z" class="cls-6"/><path d="M199.96 387.19h26.86v26.86h-26.86zM199.96 360.33h26.86v26.86h-26.86z" class="cls-11"/><path d="M199.96 333.47h26.86v26.86h-26.86z" class="cls-11"/><path d="M199.96 333.46h26.86v.01h-26.86z" class="cls-3"/><path d="M199.96 306.6h26.86v26.86h-26.86zM199.96 279.74h26.86v26.86h-26.86zM199.96 252.87h26.86v26.87h-26.86zM199.96 226.01h26.86v26.86h-26.86zM199.96 199.15h26.86v26.86h-26.86z" class="cls-11"/><path d="M199.96 199.14h26.86v.01h-26.86z" class="cls-3"/><path d="M199.96 172.28h26.86v26.86h-26.86zM199.96 145.42h26.86v26.86h-26.86z" class="cls-11"/><path d="M199.96 118.55h26.86v26.86h-26.86zM199.96 91.69h26.86v26.86h-26.86z" class="cls-10"/><path d="M199.96 64.83h26.86v26.86h-26.86z" class="cls-11"/><path d="M199.96 64.82h26.86v.01h-26.86zM199.96 37.96h26.86v26.86h-26.86z" class="cls-10"/><path d="M173.09 521.51h26.87v26.87h-26.87z" class="cls-5"/><path d="M173.09 494.65h26.87v26.86h-26.87z" class="cls-11"/><path d="M173.09 467.79h26.87v26.86h-26.87z" class="cls-8"/><path d="M199.96 440.92v26.87h-26.87v-26.87z" class="cls-12"/><path d="M173.09 414.06h26.87v26.86h-26.87z" class="cls-7"/><path d="M199.96 414.05v.01h-26.87v-26.87h26.87z" class="cls-8"/><path d="M173.09 360.33h26.87v26.86h-26.87z" class="cls-11"/><path d="M199.96 333.47v26.86h-26.87v-26.87h26.87zM173.09 306.6h26.87v26.86h-26.87zM173.09 279.74h26.87v26.86h-26.87zM173.09 252.87h26.87v26.87h-26.87zM173.09 226.01h26.87v26.86h-26.87z" class="cls-8"/><path d="M173.09 199.15h26.87v26.86h-26.87z" class="cls-11"/><path d="M173.09 199.14h26.87v.01h-26.87z" class="cls-3"/><path d="M173.09 172.28h26.87v26.86h-26.87zM173.09 145.42h26.87v26.86h-26.87zM199.96 145.41v.01h-26.87v-26.87h26.87z" class="cls-10"/><path d="M173.09 91.69h26.87v26.86h-26.87zM173.09 64.83h26.87v26.86h-26.87z" class="cls-10"/><path d="M173.09 64.82h26.87v.01h-26.87z" class="cls-4"/><path d="M173.09 37.96h26.87v26.86h-26.87zM146.23 494.65h26.86v26.86h-26.86z" class="cls-11"/><path d="M146.23 467.78h26.86v.01h-26.86z" class="cls-6"/><path d="M146.23 440.92h26.86v26.86h-26.86z" class="cls-12"/><path d="M146.23 414.06h26.86v26.86h-26.86z" class="cls-7"/><path d="M173.09 387.19v26.87h-26.86v-26.87z" class="cls-8"/><path d="M146.23 360.33h26.86v26.86h-26.86z" class="cls-11"/><path d="M146.23 333.46h26.86v26.87h-26.86z" class="cls-7"/><path d="M146.23 306.6h26.86v26.86h-26.86zM146.23 279.74h26.86v26.86h-26.86zM146.23 252.87h26.86v26.87h-26.86zM146.23 226.01h26.86v26.86h-26.86z" class="cls-8"/><path d="M146.23 199.15h26.86v26.86h-26.86z" class="cls-11"/><path d="M146.23 199.14h26.86v.01h-26.86z" class="cls-3"/><path d="M146.23 172.28h26.86v26.86h-26.86zM146.23 145.42h26.86v26.86h-26.86zM173.09 118.55v26.87h-26.86v-26.87z" class="cls-10"/><path d="M146.23 91.69h26.86v26.86h-26.86zM146.23 64.83h26.86v26.86h-26.86z" class="cls-11"/><path d="M119.37 494.65h26.86v26.86h-26.86z" class="cls-5"/><path d="M119.37 467.79h26.86v26.86h-26.86z" class="cls-11"/><path d="M119.37 467.78h26.86v.01h-26.86z" class="cls-6"/><path d="M119.37 440.92h26.86v26.86h-26.86zM119.37 414.06h26.86v26.86h-26.86z" class="cls-11"/><path d="M119.37 414.05h26.86v.01h-26.86z" class="cls-6"/><path d="M119.37 387.19h26.86v26.86h-26.86zM119.37 360.33h26.86v26.86h-26.86z" class="cls-11"/><path d="M146.23 333.46v26.87h-26.86v-26.87z" class="cls-8"/><path d="M119.37 306.6h26.86v26.86h-26.86zM119.37 279.74h26.86v26.86h-26.86zM119.37 252.87h26.86v26.87h-26.86z" class="cls-8"/><path d="M119.37 226.01h26.86v26.86h-26.86z" class="cls-10"/><path d="M119.37 199.15h26.86v26.86h-26.86z" class="cls-11"/><path d="M119.37 199.14h26.86v.01h-26.86z" class="cls-3"/><path d="M119.37 172.28h26.86v26.86h-26.86zM119.37 145.42h26.86v26.86h-26.86zM119.37 118.55h26.86v26.86h-26.86z" class="cls-11"/><path d="M119.37 91.69h26.86v26.86h-26.86zM119.37 64.83h26.86v26.86h-26.86z" class="cls-10"/><path d="M92.5 467.79h26.87v26.86H92.5z" class="cls-11"/><path d="M92.5 467.78h26.87v.01H92.5z" class="cls-6"/><path d="M92.5 440.92h26.87v26.86H92.5zM92.5 414.06h26.87v26.86H92.5zM119.37 414.05v.01H92.5v-26.87h26.87z" class="cls-8"/><path d="M92.5 360.33h26.87v26.86H92.5z" class="cls-11"/><path d="M92.5 333.47h26.87v26.86H92.5z" class="cls-11"/><path d="M92.5 333.46h26.87v.01H92.5z" class="cls-3"/><path d="M92.5 306.6h26.87v26.86H92.5zM92.5 279.74h26.87v26.86H92.5zM92.5 252.87h26.87v26.87H92.5zM92.5 226.01h26.87v26.86H92.5zM92.5 199.15h26.87v26.86H92.5z" class="cls-11"/><path d="M92.5 199.14h26.87v.01H92.5z" class="cls-3"/><path d="M92.5 172.28h26.87v26.86H92.5z" class="cls-11"/><path d="M92.5 145.42h26.87v26.86H92.5zM119.37 145.41v.01H92.5v-26.87h26.87z" class="cls-10"/><path d="M92.5 91.69h26.87v26.86H92.5z" class="cls-10"/><path d="M65.64 440.92H92.5v26.86H65.64zM65.64 414.06H92.5v26.86H65.64zM92.5 387.19v26.87H65.64v-26.87z" class="cls-2"/><path d="M65.64 360.33H92.5v26.86H65.64z" class="cls-8"/><path d="M65.64 333.47H92.5v26.86H65.64z" class="cls-11"/><path d="M65.64 333.46H92.5v.01H65.64z" class="cls-2"/><path d="M65.64 306.6H92.5v26.86H65.64zM65.64 279.74H92.5v26.86H65.64z" class="cls-8"/><path d="M65.64 252.87H92.5v26.87H65.64zM65.64 226.01H92.5v26.86H65.64zM65.64 199.15H92.5v26.86H65.64z" class="cls-2"/><path d="M65.64 199.14H92.5v.01H65.64z" class="cls-10"/><path d="M65.64 172.28H92.5v26.86H65.64z" class="cls-11"/><path d="M65.64 145.42H92.5v26.86H65.64zM92.5 118.55v26.87H65.64v-26.87z" class="cls-10"/><path d="M38.78 387.19h26.86v26.86H38.78zM38.78 360.33h26.86v26.86H38.78z" class="cls-2"/><path d="M38.78 333.47h26.86v26.86H38.78z" class="cls-11"/><path d="M38.78 333.46h26.86v.01H38.78z" class="cls-2"/><path d="M38.78 306.6h26.86v26.86H38.78zM38.78 279.74h26.86v26.86H38.78zM38.78 252.87h26.86v26.87H38.78zM38.78 226.01h26.86v26.86H38.78zM38.78 199.15h26.86v26.86H38.78zM38.78 199.14h26.86v.01H38.78z" class="cls-2"/><path d="M38.78 172.28h26.86v26.86H38.78z" class="cls-11"/><path d="M11.91 333.47h26.87v26.86H11.91z" class="cls-2"/><path d="M11.91 333.46h26.87v.01H11.91z" class="cls-6"/><path d="M11.91 306.6h26.87v26.86H11.91z" class="cls-11"/><path d="M11.91 279.74h26.87v26.86H11.91zM11.91 252.87h26.87v26.87H11.91zM11.91 226.01h26.87v26.86H11.91z" class="cls-2"/></g></svg>