<svg xmlns="http://www.w3.org/2000/svg" id="Layer_2" data-name="Layer 2" viewBox="0 0 50.67 63.34"><defs><style>.cls-1,.cls-2,.cls-3,.cls-5{stroke-width:0}.cls-2{fill:#4fb848}.cls-3{fill:#87d381}.cls-5{fill:#eb1616}</style></defs><g id="Layer_2-2" data-name="Layer 2"><path d="M6.33 6.33h19v25.34h-19zM25.34 57H38v-6.33h6.33V31.68H25.34z" class="cls-2"/><path d="M25.34 6.33h19v25.34h-19zM6.33 50.67h6.34V57h12.67V31.68H6.33z" class="cls-5"/><path d="M38 38v6.34h6.34V31.67H38zM31.67 44.34H38v6.33h-6.33zM25.34 50.67h6.33V57h-6.33zM25.34 6.33H6.33v6.34h19.009999999999998z" class="cls-3"/><path d="M38 6.33H25.34v6.34H38v19h6.34V6.33z" style="stroke-width:0;fill:#c66060"/></g><g id="Layer_1-2" data-name="Layer 1"><path d="M19 57.01v6.33h12.67v-6.33H19" class="cls-1"/><path d="M12.67 50.67h6.34v6.34h-6.34zM0 12.67v31.669999999999998h6.33v6.33h6.34v-6.34H6.33v-38H0zM38 44.33h6.34v6.34H38zM31.68 50.67H38v6.34h-6.32zM44.34 12.67v31.669999999999998h6.33V6.33h-6.33z" class="cls-1"/><path d="M38 0H6.33v6.33h38.01V0z" class="cls-1"/></g></svg>