<svg xmlns="http://www.w3.org/2000/svg" id="Layer_2" data-name="Layer 2" viewBox="0 0 1275.59 1275.59"><defs><style>.cls-1{fill:#1aa918}.cls-1,.cls-2,.cls-3,.cls-4{stroke-width:0;fill-rule:evenodd}.cls-2{fill:#149112}.cls-3{fill:#20c11d}.cls-4{fill:#26d923}</style></defs><g id="_ÎÓÈ_1" data-name="—ÎÓÈ_1"><path d="M824.7 824.64h-20.29v-20.23h20.29zm186.9 21.42v-20.82h20.77v-20.83h20.77v-20.83h20.77V679.45h-20.77v-20.83h-20.77v-41.65h20.77v-20.83h20.77V492.01h-20.77v-20.83h-20.76v-20.83h-20.77v-20.82h-20.77V408.7H887v20.83h-41v-20.11h.06v-20.83h20.77V284.75h-20.77v-20.83h-20.83v-20.77h-20.82v-20.77h-20.83v-20.77H679.45v20.77h-20.83v20.77h-41.65v-20.77h-20.83v-20.77H492.01v20.77h-20.83v20.76h-20.82v20.77h-20.83v20.83h-20.77v103.84h20.77v20.83h.06v20.11h-41v-20.83H284.75v20.83h-20.77v20.82h-20.77v20.83h-20.76V492h-20.77v104.13h20.77v20.83h20.76v41.65h-20.76v20.83h-20.77v104.13h20.77v20.83h20.77v20.83h20.77v20.82h20.77v20.83H388.6v-20.83h41v20.11h-.06v20.83h-20.77v103.84h20.77v20.83h20.83v20.77h20.82v20.76h20.83v20.77h104.13v-20.77h20.83v-20.76h41.65v20.76h20.83v20.77h104.13v-20.77h20.83v-20.77h20.82v-20.76h20.83v-20.83h20.77V886.99h-20.77v-20.83h-.06v-20.11h41v20.83h103.84v-20.83h20.76ZM825.23 430.12h20.23v20.23h-20.23zM450.89 824.64v-20.23h20.29v20.23zm394.57 20.82h-20.23v-20.23h20.23zM430.12 430.12h20.23v20.23h-20.23zm20.23 415.34h-20.23v-20.23h20.23zm312.4-332.63v-20.35h20.41v20.35zM783.58 492v-20.29h20.35V492zm20.83-20.83v-20.23h20.29v20.23zm-353.52-20.23h20.29v20.23h-20.29zm20.77 20.77h20.35V492h-20.35zm20.77 20.77h20.41v20.35h-20.41zm-20.77 311.39v-20.29h20.35v20.29zm20.77-20.77v-20.35h20.41v20.35zm270.33-20.35h20.41v20.35h-20.41zm20.83 20.83h20.35v20.29h-20.35z" style="stroke-width:0;fill-rule:evenodd"/><path d="M783.58 450.89h20.83v-20.77h20.83v-41.53h20.83V284.75h-20.83v-20.77h-20.83v-20.77h-20.83v-20.77H679.45v20.77h-20.83v20.77h-41.65v-20.77h-20.83v-20.77H492.01v20.77h-20.83v20.77h-20.83v20.77h-20.83v103.84h20.83v41.53h20.83v20.77h20.83v20.77h20.83v20.77h20.83v41.24h-41.24v-20.83h-20.77v-20.83h-20.77v-20.83h-20.77v-20.83h-41.53v-20.83H284.75v20.83h-20.77v20.83h-20.77v20.83h-20.77v104.13h20.77v20.83h20.77v41.65h-20.77v20.83h-20.77v104.13h20.77v20.83h20.77v20.83h20.77v20.83h103.84v-20.83h41.53v-20.83h20.77v-20.83h20.77v-20.83h20.77v-20.83h41.24v41.24h-20.83v20.77h-20.83v20.77h-20.83v20.77h-20.83V887h-20.83v103.84h20.83v20.77h20.83v20.77h20.83v20.77h104.13v-20.77h20.83v-20.77h41.65v20.77h20.83v20.77h104.13v-20.77h20.83v-20.77h20.83v-20.77h20.83V887h-20.83v-41.53h-20.83V824.7h-20.83v-20.77h-20.83v-20.77h-20.83v-41.24h41.24v20.83h20.77v20.83h20.77v20.83h20.77v20.83H887v20.83h103.84v-20.83h20.77v-20.83h20.77v-20.83h20.77V679.45h-20.77v-20.83h-20.77v-41.65h20.77v-20.83h20.77V492.01h-20.77v-20.83h-20.77v-20.83h-20.77v-20.83H887v20.83h-41.53v20.83H824.7v20.83h-20.77v20.83h-20.77v20.83h-41.24v-41.24h20.83v-20.77h20.83zm-249.62 83.07h20.53v20.53h-20.53zm20.77 20.77h20.59v20.59h-20.59zm20.77 20.77h20.65v20.65H575.5zm20.77 20.77h20.71v20.71h-20.71zm20.71 62.36v20.71h-20.71v-20.71zm-20.83 20.83v20.65H575.5v-20.65zm-20.83 20.83v20.59h-20.59v-20.59zm-20.83 20.83v20.53h-20.53v-20.53zm104.13-62.48h20.71v20.71h-20.71zm20.83 20.83h20.65v20.65h-20.65zm20.83 20.83h20.59v20.59h-20.59zm20.83 20.83h20.53v20.53h-20.53zM658.63 617v-20.71h20.71V617zm20.83-20.83v-20.65h20.65v20.65zm20.83-20.83v-20.59h20.59v20.59zm20.83-20.83v-20.53h20.53v20.53z" class="cls-4"/><path d="M783.58 450.89h20.83v-20.77h20.83v-41.53h20.82V284.75h-20.82v-20.76h-20.83v-20.77h-20.83v-20.77H679.45v20.77h-20.83v20.77h-41.65v-20.77h-20.83v-20.77H492.01v20.77h-20.83v20.77h-20.83v20.76h-20.82v103.84h20.82v41.53h20.83v20.77h20.83v20.77h20.82v20.77h20.83v41.53h20.83v20.77h20.83v20.76h20.82v20.77h20.83v41.54h20.83v-20.83h20.82v-20.71h20.71v-.12h.12v-20.65h20.65v-.17h.18v-20.59h20.58v-.24h.24v-20.53h20.53v-.3h.3v-41.23h20.83v-20.77h20.82z" class="cls-4"/><path d="M824.7 783.58v20.83h20.77v20.83H887v20.82h103.84v-20.82h20.76v-20.83h20.77v-20.83h20.77V679.45h-20.77v-20.83h-20.77v-41.65h20.77v-20.83h20.77V492.01h-20.77v-20.83h-20.77v-20.83h-20.76v-20.82H887v20.82h-41.53v20.83H824.7v20.83h-20.77v20.82h-20.76v20.83h-41.54v20.83h-20.77v20.83H700.1v20.82h-20.77v20.83H637.8v20.83h20.82v20.82h20.71v20.71h.12v.12h20.65v20.65h.18v.18h20.58v20.58h.24v.24h20.53v20.53h.3v.3h41.24v20.83h20.76v20.82z" class="cls-3"/><path d="M492.01 824.7h-20.83v20.77h-20.83V887h-20.82v103.84h20.82v20.76h20.83v20.77h20.83v20.77h104.13v-20.77h20.83v-20.77h41.65v20.77h20.83v20.77h104.13v-20.77h20.83v-20.77h20.83v-20.76h20.82V887h-20.82v-41.53h-20.83V824.7h-20.83v-20.77h-20.82v-20.76h-20.83v-41.54H721.1v-20.77h-20.82V700.1h-20.83v-20.77h-20.83V637.8H637.8v20.82h-20.83v20.71h-20.71v.12h-.12v20.65h-20.65v.18h-.17v20.58h-20.59v.24h-.24v20.53h-20.53v.3h-.3v41.24h-20.83v20.76h-20.82z" class="cls-1"/><path d="M450.89 492.01v-20.83h-20.77v-20.83h-41.53v-20.82H284.75v20.82h-20.76v20.83h-20.77v20.83h-20.77v104.13h20.77v20.83h20.77v41.65h-20.77v20.83h-20.77v104.13h20.77v20.83h20.77v20.83h20.76v20.82h103.84v-20.82h41.53v-20.83h20.77v-20.83h20.77v-20.82h20.77v-20.83h41.53V721.1h20.77v-20.82h20.76v-20.83h20.77v-20.83h41.54V637.8h-20.83v-20.83h-20.71v-20.71h-.12v-.12h-20.65v-20.65h-.17v-.17h-20.59v-20.59h-.24v-.24h-20.53v-20.53h-.3v-.3h-41.23v-20.83h-20.77v-20.82z" class="cls-2"/><path d="M783.58 450.89h20.83v-20.77h20.83v-41.53h20.82V284.75h-20.82v-20.76h-20.83v-20.77h-20.83v-20.77H679.45v20.77h-20.83v20.77h-41.65v-20.77h-20.83v-20.77H492.01v20.77h-20.83v20.77h-20.83v20.76h-20.82v103.84h20.82v41.53h20.83v20.77h20.83v20.77h20.82v20.77h20.83v41.53h20.83v20.77h20.83v20.76h20.82v20.77h20.83v41.54h20.83v-20.83h20.82v-20.71h20.71v-.12h.12v-20.65h20.65v-.17h.18v-20.59h20.58v-.24h.24v-20.53h20.53v-.3h.3v-41.23h20.83v-20.77h20.82z" class="cls-4"/><path d="M824.7 783.58v20.83h20.77v20.83H887v20.82h103.84v-20.82h20.76v-20.83h20.77v-20.83h20.77V679.45h-20.77v-20.83h-20.77v-41.65h20.77v-20.83h20.77V492.01h-20.77v-20.83h-20.77v-20.83h-20.76v-20.82H887v20.82h-41.53v20.83H824.7v20.83h-20.77v20.82h-20.76v20.83h-41.54v20.83h-20.77v20.83H700.1v20.82h-20.77v20.83H637.8v20.83h20.82v20.82h20.71v20.71h.12v.12h20.65v20.65h.18v.18h20.58v20.58h.24v.24h20.53v20.53h.3v.3h41.24v20.83h20.76v20.82z" class="cls-3"/><path d="M492.01 824.7h-20.83v20.77h-20.83V887h-20.82v103.84h20.82v20.76h20.83v20.77h20.83v20.77h104.13v-20.77h20.83v-20.77h41.65v20.77h20.83v20.77h104.13v-20.77h20.83v-20.77h20.83v-20.76h20.82V887h-20.82v-41.53h-20.83V824.7h-20.83v-20.77h-20.82v-20.76h-20.83v-41.54H721.1v-20.77h-20.82V700.1h-20.83v-20.77h-20.83V637.8H637.8v20.82h-20.83v20.71h-20.71v.12h-.12v20.65h-20.65v.18h-.17v20.58h-20.59v.24h-.24v20.53h-20.53v.3h-.3v41.24h-20.83v20.76h-20.82z" class="cls-1"/><path d="M450.89 492.01v-20.83h-20.77v-20.83h-41.53v-20.82H284.75v20.82h-20.76v20.83h-20.77v20.83h-20.77v104.13h20.77v20.83h20.77v41.65h-20.77v20.83h-20.77v104.13h20.77v20.83h20.77v20.83h20.76v20.82h103.84v-20.82h41.53v-20.83h20.77v-20.83h20.77v-20.82h20.77v-20.83h41.53V721.1h20.77v-20.82h20.76v-20.83h20.77v-20.83h41.54V637.8h-20.83v-20.83h-20.71v-20.71h-.12v-.12h-20.65v-20.65h-.17v-.17h-20.59v-20.59h-.24v-.24h-20.53v-20.53h-.3v-.3h-41.23v-20.83h-20.77v-20.82z" class="cls-2"/></g></svg>