<svg xmlns="http://www.w3.org/2000/svg" id="Layer_2" data-name="Layer 2" viewBox="0 0 119.02 86.95"><defs><style>.cls-1,.cls-2,.cls-3,.cls-4,.cls-5{stroke-width:0}.cls-2{fill:#4fb848}.cls-3{fill:#87d381}.cls-4{fill:#c66060}.cls-5{fill:#eb1616}</style></defs><g id="Layer_2-2" data-name="Layer 2"><path d="M101.1 49.27 87.66 62.71l-4.48-4.48-8.95 8.95 4.48 4.48-.03.03 4.48 4.48 4.5-4.51 4.48 4.48 22.4-22.39-4.48-4.48 4.48-4.48-4.48-4.48 4.48-4.48-4.48-4.48-13.44 13.44z" class="cls-2"/><path d="m87.66 17.92-4.47-4.48-4.48 4.48-4.48-4.48 4.48-4.48-4.48-4.48L56.31 22.4l4.48 4.47-.03.03 4.48 4.48 4.48 4.48.03-.03 4.48 4.48 4.48-4.48-4.48-4.48 4.48-4.48 4.48 4.48 4.47-4.48 13.44 13.44 8.96-8.96-17.92-17.91z" class="cls-2"/><path d="m78.71 8.96-4.48-4.48-4.48 4.48-4.48 4.48-4.48 4.48-4.48 4.48 4.48 4.47 4.48-4.48 4.48-4.47 4.48 4.47 4.48-4.47-4.48-4.48zM78.713 17.917l4.475-4.476 4.476 4.476-4.476 4.476z" class="cls-3"/><path d="m87.66 17.92 4.48 4.47 4.48 4.48 4.48 4.48 4.48 4.48 4.48 4.48 4.48-4.48-4.48-4.48-4.48-4.48-4.48-4.48-4.48-4.47-4.48-4.48zM74.23 67.18l4.48 4.48 4.47-4.48 4.48-4.47-4.48-4.48-4.47 4.48z" class="cls-3"/><path d="m17.92 37.69 13.43-13.44 4.48 4.48 8.96-8.96-4.48-4.48.03-.03-4.48-4.47-4.51 4.5-4.48-4.48-22.39 22.4 4.48 4.48-4.48 4.48 4.48 4.47-4.48 4.48 4.48 4.48 13.43-13.43zM31.35 69.04l4.48 4.48 4.48-4.48 4.48 4.48L40.31 78l4.48 4.48L62.7 64.56l-4.47-4.48.02-.03-4.48-4.48-4.47-4.47-.03.02-4.48-4.48-4.48 4.48 4.48 4.48-4.48 4.48-4.48-4.48-4.48 4.48-13.43-13.44-8.96 8.96 17.91 17.92z" class="cls-5"/><path d="m40.31 78 4.48 4.48L49.27 78l4.48-4.48 4.48-4.48 4.47-4.48-4.47-4.48-4.48 4.48-4.48 4.48-4.48-4.48-4.48 4.48 4.48 4.48zM31.351 69.043l4.476-4.476 4.476 4.476-4.476 4.476zM31.35 69.04l-4.48-4.48-4.48-4.48-4.47-4.48-4.48-4.48-4.48-4.48-4.48 4.48 4.48 4.48 4.48 4.48 4.48 4.48 4.47 4.48 4.48 4.48zM44.79 19.77l-4.48-4.48-4.48 4.48-4.48 4.48 4.48 4.48 4.48-4.48z" class="cls-4"/></g><g id="Layer_1-2" data-name="Layer 1"><path d="m101.1 76.14 4.48-4.48 4.48-4.48 4.48-4.48 4.48-4.47-4.48-4.48-4.48 4.48-4.48 4.47-4.48 4.48-4.48 4.48-4.48 4.48 4.48 4.48zM83.188 76.137l4.476-4.476 4.476 4.476-4.476 4.476zM78.71 71.66l-4.48-4.48-4.48 4.48 4.48 4.48 4.48 4.48 4.47-4.48z" class="cls-1"/><path d="m83.18 58.23-4.47-4.48-4.48 4.48-4.48 4.48 4.48 4.47 4.48-4.47z" class="cls-1"/><path d="m92.14 58.23 4.48-4.48 4.48-4.48-4.48-4.48-4.48 4.48-4.48 4.48-4.48 4.48 4.48 4.47zM110.058 49.267l4.476-4.476 4.476 4.476-4.476 4.476zM110.052 40.311l4.476-4.476 4.476 4.476-4.476 4.476zM114.54 26.87l-4.48-4.48-4.48-4.47-4.48-4.48-4.48-4.48-4.48 4.48 4.48 4.48 4.48 4.47 4.48 4.48 4.48 4.48 4.48 4.48 4.48-4.48z" class="cls-1"/><path d="m92.14 40.31 4.48 4.48 4.48-4.48-4.48-4.48-4.48-4.48-4.48-4.48-4.47 4.48 4.47 4.48zM83.193 13.431l4.475-4.476 4.476 4.476-4.476 4.476zM74.227 13.437l4.476-4.476 4.476 4.476-4.476 4.476zM74.231 4.481 78.707.005l4.476 4.476-4.476 4.476zM65.27 4.48l-4.48 4.48-4.48 4.48-4.48 4.48 4.48 4.48 4.48-4.48 4.48-4.48 4.48-4.48 4.48-4.48L69.75 0zM56.31 31.35l4.48 4.48 4.48 4.48 4.48 4.48 4.48-4.48-4.48-4.48-4.48-4.48-4.48-4.48-4.48-4.47-4.48 4.47z" class="cls-1"/><path d="m74.227 40.307 4.476-4.476 4.476 4.476-4.476 4.476z" class="cls-1"/><path d="m74.228 31.358 4.476-4.475 4.476 4.475-4.476 4.476zM17.92 10.81l-4.48 4.48-4.48 4.48-4.48 4.48L0 28.73l4.48 4.48 4.48-4.48 4.48-4.48 4.48-4.48 4.48-4.48 4.47-4.48-4.47-4.48zM26.883 10.816l4.476-4.476 4.476 4.476-4.476 4.476zM40.31 15.29l4.48 4.48 4.48-4.48-4.48-4.48-4.48-4.48-4.48 4.48zM35.83 28.73l4.48 4.48 4.48-4.48 4.48-4.48-4.48-4.48-4.48 4.48zM26.87 28.73l-4.48 4.48-4.47 4.48 4.47 4.48 4.48-4.48 4.48-4.48 4.48-4.48-4.48-4.48zM-.004 37.693l4.476-4.476 4.476 4.476-4.476 4.476zM.001 46.649l4.476-4.476 4.476 4.476-4.476 4.476z" class="cls-1"/><path d="m4.48 60.08 4.48 4.48 4.48 4.48 4.48 4.48L22.39 78l4.48-4.48-4.48-4.48-4.47-4.48-4.48-4.48-4.48-4.48-4.48-4.48L0 55.6zM26.87 46.64l-4.48-4.47-4.47 4.47 4.47 4.48 4.48 4.48 4.48 4.48 4.48-4.48-4.48-4.48zM26.878 73.512l4.476-4.476 4.476 4.476-4.476 4.476zM35.827 73.523l4.476-4.476 4.476 4.476-4.476 4.476zM35.833 82.479l4.476-4.476 4.476 4.476-4.476 4.476zM53.75 82.48 58.23 78l4.47-4.48 4.48-4.48-4.48-4.48-4.47 4.48-4.48 4.48L49.27 78l-4.48 4.48 4.48 4.47z" class="cls-1"/><path d="m62.7 55.6-4.47-4.48-4.48-4.48-4.48-4.47-4.48 4.47 4.48 4.48 4.48 4.48 4.48 4.48 4.47 4.48 4.48-4.48zM35.827 46.653l4.476-4.476 4.476 4.476-4.476 4.476zM35.833 55.609l4.476-4.476 4.476 4.476-4.476 4.476z" class="cls-1"/></g></svg>