<svg xmlns="http://www.w3.org/2000/svg" id="Layer_2" data-name="Layer 2" viewBox="0 0 14 14"><defs><style>.cls-1{fill:#231e2b}.cls-1,.cls-2,.cls-3,.cls-4{stroke-width:0}.cls-2{fill:#e2b436}.cls-3{fill:#cf8934}.cls-4{fill:#f5f38e}</style></defs><g id="Layer_1-2" data-name="Layer 1"><path d="M11 13h1v1h-1zM2 13h1v1H2z" class="cls-1"/><path d="M11 12h1v1h-1z" class="cls-2"/><path d="M9 12h2v1H9zM3 12h2v1H3z" class="cls-1"/><path d="M2 12h1v1H2z" class="cls-3"/><path d="M1 11h1v2H1zM12 11h1v2h-1z" class="cls-1"/><path d="M11 11h1v1h-1z" class="cls-4"/><path d="M10 11h1v1h-1z" class="cls-2"/><path d="M9 11h1v1H9z" class="cls-3"/><path d="M5 11h4v1H5z" class="cls-1"/><path d="M4 11h1v1H4z" class="cls-3"/><path d="M3 11h1v1H3z" class="cls-2"/><path d="M2 11h1v1H2z" class="cls-4"/><path d="M5 10h3v1H5z" class="cls-3"/><path d="M2 7h1v4H2z" class="cls-1"/><path d="M10 9h1v2h-1zM3 9h1v2H3z" class="cls-4"/><path d="M5 9V8H4V7H3v2z" class="cls-3"/><path d="M11 7h1v4h-1z" class="cls-1"/><path d="M10 8H9v1h2V7h-1z" class="cls-3"/><path d="M12 6h1v1h-1z" class="cls-1"/><path d="M11 6h1v1h-1z" class="cls-3"/><path d="M3 6v1h1v1h1v1H4v2h1v-1h3v1h2V9H9V8h1V7h1V6h-1V5H9V4H8V3H6v1H5v1H4v1z" class="cls-2"/><path d="M2 6h1v1H2z" class="cls-3"/><path d="M1 6h1v1H1zM13 5h1v1h-1z" class="cls-1"/><path d="M10 5h3v1h-3zM1 5h3v1H1z" class="cls-4"/><path d="M0 5h1v1H0zM10 4h3v1h-3z" class="cls-1"/><path d="M9 4h1v1H9z" class="cls-4"/><path d="M4 4h1v1H4z" class="cls-3"/><path d="M1 4h3v1H1zM9 3h1v1H9z" class="cls-1"/><path d="M8 3h1v1H8z" class="cls-4"/><path d="M5 3h1v1H5z" class="cls-3"/><path d="M4 3h1v1H4z" class="cls-1"/><path d="M8 3V1H7v1H6v1z" class="cls-4"/><path d="M5 2h1v1H5zM8 1h1v2H8zM6 1h1v1H6zM7 0h1v1H7z" class="cls-1"/></g></svg>