<svg xmlns="http://www.w3.org/2000/svg" id="Layer_2" data-name="Layer 2" viewBox="0 0 2228.57 2228.57"><defs><style>.cls-1{fill:#74b65f}.cls-1,.cls-2,.cls-3,.cls-4,.cls-5,.cls-6,.cls-7,.cls-8,.cls-9{stroke-width:0}.cls-2{fill:#468430}.cls-3{fill:#82c66a}.cls-4{fill:#201600}.cls-5{fill:#cbffb0}.cls-6{fill:#abf48e}.cls-7{fill:#84d366}.cls-8{fill:#fff}.cls-9{fill:#68a350}</style></defs><g id="Layer_1-2" data-name="Layer 1"><path d="M2142.86 1199.99h85.71v85.73h-85.71zM2142.86 1114.28h85.71v85.71h-85.71z" class="cls-4"/><path d="M2142.86 1028.58h85.71v85.71h-85.71zM2142.86 942.85h85.71v85.73h-85.71zM2057.13 1457.13h85.73v85.73h-85.73zM2057.13 1371.42h85.73v85.71h-85.73z" class="cls-4"/><path d="M2057.13 1285.72h85.73v85.71h-85.73z" class="cls-4"/><path d="M2057.13 1199.99h85.73v85.73h-85.73zM2057.13 1114.28h85.73v85.71h-85.73z" class="cls-1"/><path d="M2057.13 1028.58h85.73v85.71h-85.73zM2057.13 942.85h85.73v85.73h-85.73z" class="cls-1"/><path d="M2057.13 857.14h85.73v85.71h-85.73z" class="cls-4"/><path d="M2057.13 771.42h85.73v85.73h-85.73z" class="cls-4"/><path d="M2057.13 685.71h85.73v85.71h-85.73zM1971.43 1628.56h85.71v85.73h-85.71z" class="cls-4"/><path d="M1971.43 1542.86h85.71v85.71h-85.71z" class="cls-4"/><path d="M1971.43 1457.13h85.71v85.73h-85.71z" class="cls-9"/><path d="M1971.43 1371.42h85.71v85.71h-85.71z" class="cls-1"/><path d="M1971.43 1285.72h85.71v85.71h-85.71zM1971.43 1199.99h85.71v85.73h-85.71zM1971.43 1114.28h85.71v85.71h-85.71z" class="cls-1"/><path d="M1971.43 1028.58h85.71v85.71h-85.71zM1971.43 942.85h85.71v85.73h-85.71zM1971.43 857.14h85.71v85.71h-85.71z" class="cls-1"/><path d="M1971.43 771.42h85.71v85.73h-85.71z" class="cls-1"/><path d="M1971.43 685.71h85.71v85.71h-85.71z" class="cls-3"/><path d="M1971.43 600.01h85.71v85.71h-85.71zM1971.43 514.28h85.71v85.73h-85.71zM1885.7 1714.29h85.73V1800h-85.73z" class="cls-4"/><path d="M1885.7 1628.56h85.73v85.73h-85.73z" class="cls-2"/><path d="M1885.7 1542.86h85.73v85.71h-85.73z" class="cls-9"/><path d="M1885.7 1457.13h85.73v85.73h-85.73zM1885.7 1371.42h85.73v85.71h-85.73z" class="cls-1"/><path d="M1885.7 1285.72h85.73v85.71h-85.73zM1885.7 1199.99h85.73v85.73h-85.73zM1885.7 1114.28h85.73v85.71h-85.73z" class="cls-1"/><path d="M1885.7 1028.58h85.73v85.71h-85.73zM1885.7 942.85h85.73v85.73h-85.73zM1885.7 857.14h85.73v85.71h-85.73z" class="cls-1"/><path d="M1885.7 771.42h85.73v85.73h-85.73z" class="cls-1"/><path d="M1885.7 685.71h85.73v85.71h-85.73z" class="cls-1"/><path d="M1885.7 600.01h85.73v85.71h-85.73z" class="cls-3"/><path d="M1885.7 514.28h85.73v85.73h-85.73z" class="cls-7"/><path d="M1885.7 428.57h85.73v85.71h-85.73zM1799.99 1799.99h85.71v85.71h-85.71z" class="cls-4"/><path d="M1799.99 1714.29h85.71V1800h-85.71z" class="cls-2"/><path d="M1799.99 1628.56h85.71v85.73h-85.71z" class="cls-9"/><path d="M1799.99 1542.86h85.71v85.71h-85.71z" class="cls-1"/><path d="M1799.99 1457.13h85.71v85.73h-85.71zM1799.99 1371.42h85.71v85.71h-85.71z" class="cls-1"/><path d="M1799.99 1285.72h85.71v85.71h-85.71zM1799.99 1199.99h85.71v85.73h-85.71zM1799.99 1114.28h85.71v85.71h-85.71z" class="cls-1"/><path d="M1799.99 1028.58h85.71v85.71h-85.71zM1799.99 942.85h85.71v85.73h-85.71z" class="cls-1"/><path d="M1799.99 857.14h85.71v85.71h-85.71z" class="cls-8"/><path d="M1799.99 771.42h85.71v85.73h-85.71z" class="cls-1"/><path d="M1799.99 685.71h85.71v85.71h-85.71z" class="cls-1"/><path d="M1799.99 600.01h85.71v85.71h-85.71z" class="cls-1"/><path d="M1799.99 514.28h85.71v85.73h-85.71z" class="cls-3"/><path d="M1799.99 428.57h85.71v85.71h-85.71z" class="cls-7"/><path d="M1799.99 342.84h85.71v85.73h-85.71zM1714.29 1885.7H1800v85.73h-85.71z" class="cls-4"/><path d="M1714.29 1799.99H1800v85.71h-85.71z" class="cls-2"/><path d="M1714.29 1714.29H1800V1800h-85.71z" class="cls-9"/><path d="M1714.29 1628.56H1800v85.73h-85.71z" class="cls-1"/><path d="M1714.29 1542.86H1800v85.71h-85.71z" class="cls-1"/><path d="M1714.29 1457.13H1800v85.73h-85.71zM1714.29 1371.42H1800v85.71h-85.71z" class="cls-1"/><path d="M1714.29 1285.72H1800v85.71h-85.71zM1714.29 1199.99H1800v85.73h-85.71zM1714.29 1114.28H1800v85.71h-85.71z" class="cls-1"/><path d="M1714.29 1028.58H1800v85.71h-85.71z" class="cls-1"/><path d="M1714.29 942.85H1800v85.73h-85.71zM1714.29 857.14H1800v85.71h-85.71z" class="cls-8"/><path d="M1714.29 771.42H1800v85.73h-85.71z" class="cls-8"/><path d="M1714.29 685.71H1800v85.71h-85.71z" class="cls-1"/><path d="M1714.29 600.01H1800v85.71h-85.71zM1714.29 514.28H1800v85.73h-85.71z" class="cls-1"/><path d="M1714.29 428.57H1800v85.71h-85.71z" class="cls-3"/><path d="M1714.29 342.84H1800v85.73h-85.71z" class="cls-7"/><path d="M1714.29 257.14H1800v85.71h-85.71zM1628.56 1971.43h85.73v85.71h-85.73z" class="cls-4"/><path d="M1628.56 1885.7h85.73v85.73h-85.73z" class="cls-2"/><path d="M1628.56 1799.99h85.73v85.71h-85.73z" class="cls-9"/><path d="M1628.56 1714.29h85.73V1800h-85.73zM1628.56 1628.56h85.73v85.73h-85.73z" class="cls-1"/><path d="M1628.56 1542.86h85.73v85.71h-85.73z" class="cls-1"/><path d="M1628.56 1457.13h85.73v85.73h-85.73zM1628.56 1371.42h85.73v85.71h-85.73z" class="cls-1"/><path d="M1628.56 1285.72h85.73v85.71h-85.73zM1628.56 1199.99h85.73v85.73h-85.73zM1628.56 1114.28h85.73v85.71h-85.73z" class="cls-1"/><path d="M1628.56 1028.58h85.73v85.71h-85.73zM1628.56 942.85h85.73v85.73h-85.73zM1628.56 857.14h85.73v85.71h-85.73z" class="cls-8"/><path d="M1628.56 771.42h85.73v85.73h-85.73z" class="cls-8"/><path d="M1628.56 685.71h85.73v85.71h-85.73z" class="cls-8"/><path d="M1628.56 600.01h85.73v85.71h-85.73zM1628.56 514.28h85.73v85.73h-85.73zM1628.56 428.57h85.73v85.71h-85.73z" class="cls-1"/><path d="M1628.56 342.84h85.73v85.73h-85.73z" class="cls-6"/><path d="M1628.56 257.14h85.73v85.71h-85.73z" class="cls-7"/><path d="M1628.56 171.43h85.73v85.71h-85.73zM1542.86 1971.43h85.71v85.71h-85.71z" class="cls-4"/><path d="M1542.86 1885.7h85.71v85.73h-85.71z" class="cls-2"/><path d="M1542.86 1799.99h85.71v85.71h-85.71z" class="cls-9"/><path d="M1542.86 1714.29h85.71V1800h-85.71zM1542.86 1628.56h85.71v85.73h-85.71z" class="cls-1"/><path d="M1542.86 1542.86h85.71v85.71h-85.71z" class="cls-1"/><path d="M1542.86 1457.13h85.71v85.73h-85.71zM1542.86 1371.42h85.71v85.71h-85.71z" class="cls-1"/><path d="M1542.86 1285.72h85.71v85.71h-85.71zM1542.86 1199.99h85.71v85.73h-85.71z" class="cls-1"/><path d="M1542.86 1114.28h85.71v85.71h-85.71z" class="cls-8"/><path d="M1542.86 1028.58h85.71v85.71h-85.71zM1542.86 942.85h85.71v85.73h-85.71zM1542.86 857.14h85.71v85.71h-85.71z" class="cls-8"/><path d="M1542.86 771.42h85.71v85.73h-85.71z" class="cls-8"/><path d="M1542.86 685.71h85.71v85.71h-85.71z" class="cls-8"/><path d="M1542.86 600.01h85.71v85.71h-85.71z" class="cls-8"/><path d="M1542.86 514.28h85.71v85.73h-85.71zM1542.86 428.57h85.71v85.71h-85.71z" class="cls-1"/><path d="M1542.86 342.84h85.71v85.73h-85.71z" class="cls-5"/><path d="M1542.86 257.14h85.71v85.71h-85.71z" class="cls-7"/><path d="M1542.86 171.43h85.71v85.71h-85.71zM1457.13 2057.13h85.73v85.73h-85.73z" class="cls-4"/><path d="M1457.13 1971.43h85.73v85.71h-85.73z" class="cls-2"/><path d="M1457.13 1885.7h85.73v85.73h-85.73z" class="cls-9"/><path d="M1457.13 1799.99h85.73v85.71h-85.73z" class="cls-1"/><path d="M1457.13 1714.29h85.73V1800h-85.73zM1457.13 1628.56h85.73v85.73h-85.73z" class="cls-1"/><path d="M1457.13 1542.86h85.73v85.71h-85.73z" class="cls-1"/><path d="M1457.13 1457.13h85.73v85.73h-85.73zM1457.13 1371.42h85.73v85.71h-85.73z" class="cls-1"/><path d="M1457.13 1285.72h85.73v85.71h-85.73z" class="cls-1"/><path d="M1457.13 1199.99h85.73v85.73h-85.73zM1457.13 1114.28h85.73v85.71h-85.73z" class="cls-8"/><path d="M1457.13 1028.58h85.73v85.71h-85.73zM1457.13 942.85h85.73v85.73h-85.73zM1457.13 857.14h85.73v85.71h-85.73z" class="cls-8"/><path d="M1457.13 771.42h85.73v85.73h-85.73z" class="cls-8"/><path d="M1457.13 685.71h85.73v85.71h-85.73z" class="cls-8"/><path d="M1457.13 600.01h85.73v85.71h-85.73zM1457.13 514.28h85.73v85.73h-85.73zM1457.13 428.57h85.73v85.71h-85.73zM1457.13 342.84h85.73v85.73h-85.73z" class="cls-1"/><path d="M1457.13 257.14h85.73v85.71h-85.73z" class="cls-6"/><path d="M1457.13 171.43h85.73v85.71h-85.73z" class="cls-7"/><path d="M1457.13 85.71h85.73v85.73h-85.73zM1371.42 2057.13h85.71v85.73h-85.71z" class="cls-4"/><path d="M1371.42 1971.43h85.71v85.71h-85.71z" class="cls-2"/><path d="M1371.42 1885.7h85.71v85.73h-85.71z" class="cls-9"/><path d="M1371.42 1799.99h85.71v85.71h-85.71z" class="cls-1"/><path d="M1371.42 1714.29h85.71V1800h-85.71zM1371.42 1628.56h85.71v85.73h-85.71z" class="cls-1"/><path d="M1371.42 1542.86h85.71v85.71h-85.71z" class="cls-1"/><path d="M1371.42 1457.13h85.71v85.73h-85.71zM1371.42 1371.42h85.71v85.71h-85.71z" class="cls-1"/><path d="M1371.42 1285.72h85.71v85.71h-85.71zM1371.42 1199.99h85.71v85.73h-85.71zM1371.42 1114.28h85.71v85.71h-85.71z" class="cls-8"/><path d="M1371.42 1028.58h85.71v85.71h-85.71zM1371.42 942.85h85.71v85.73h-85.71zM1371.42 857.14h85.71v85.71h-85.71z" class="cls-8"/><path d="M1371.42 771.42h85.71v85.73h-85.71z" class="cls-8"/><path d="M1371.42 685.71h85.71v85.71h-85.71z" class="cls-1"/><path d="M1371.42 600.01h85.71v85.71h-85.71zM1371.42 514.28h85.71v85.73h-85.71zM1371.42 428.57h85.71v85.71h-85.71zM1371.42 342.84h85.71v85.73h-85.71z" class="cls-1"/><path d="M1371.42 257.14h85.71v85.71h-85.71z" class="cls-5"/><path d="M1371.42 171.43h85.71v85.71h-85.71z" class="cls-7"/><path d="M1371.42 85.71h85.71v85.73h-85.71zM1285.72 2057.13h85.71v85.73h-85.71z" class="cls-4"/><path d="M1285.72 1971.43h85.71v85.71h-85.71z" class="cls-2"/><path d="M1285.72 1885.7h85.71v85.73h-85.71z" class="cls-9"/><path d="M1285.72 1799.99h85.71v85.71h-85.71z" class="cls-1"/><path d="M1285.72 1714.29h85.71V1800h-85.71zM1285.72 1628.56h85.71v85.73h-85.71z" class="cls-1"/><path d="M1285.72 1542.86h85.71v85.71h-85.71z" class="cls-1"/><path d="M1285.72 1457.13h85.71v85.73h-85.71z" class="cls-1"/><path d="M1285.72 1371.42h85.71v85.71h-85.71z" class="cls-8"/><path d="M1285.72 1285.72h85.71v85.71h-85.71zM1285.72 1199.99h85.71v85.73h-85.71zM1285.72 1114.28h85.71v85.71h-85.71z" class="cls-8"/><path d="M1285.72 1028.58h85.71v85.71h-85.71zM1285.72 942.85h85.71v85.73h-85.71zM1285.72 857.14h85.71v85.71h-85.71z" class="cls-8"/><path d="M1285.72 771.42h85.71v85.73h-85.71z" class="cls-1"/><path d="M1285.72 685.71h85.71v85.71h-85.71z" class="cls-1"/><path d="M1285.72 600.01h85.71v85.71h-85.71zM1285.72 514.28h85.71v85.73h-85.71zM1285.72 428.57h85.71v85.71h-85.71zM1285.72 342.84h85.71v85.73h-85.71z" class="cls-1"/><path d="M1285.72 257.14h85.71v85.71h-85.71z" class="cls-6"/><path d="M1285.72 171.43h85.71v85.71h-85.71z" class="cls-7"/><path d="M1285.72 85.71h85.71v85.73h-85.71zM1199.99 2142.86h85.73v85.71h-85.73z" class="cls-4"/><path d="M1199.99 2057.13h85.73v85.73h-85.73z" class="cls-2"/><path d="M1199.99 1971.43h85.73v85.71h-85.73z" class="cls-9"/><path d="M1199.99 1885.7h85.73v85.73h-85.73zM1199.99 1799.99h85.73v85.71h-85.73z" class="cls-1"/><path d="M1199.99 1714.29h85.73V1800h-85.73zM1199.99 1628.56h85.73v85.73h-85.73z" class="cls-1"/><path d="M1199.99 1542.86h85.73v85.71h-85.73z" class="cls-1"/><path d="M1199.99 1457.13h85.73v85.73h-85.73zM1199.99 1371.42h85.73v85.71h-85.73z" class="cls-8"/><path d="M1199.99 1285.72h85.73v85.71h-85.73zM1199.99 1199.99h85.73v85.73h-85.73zM1199.99 1114.28h85.73v85.71h-85.73z" class="cls-8"/><path d="M1199.99 1028.58h85.73v85.71h-85.73zM1199.99 942.85h85.73v85.73h-85.73z" class="cls-8"/><path d="M1199.99 857.14h85.73v85.71h-85.73z" class="cls-1"/><path d="M1199.99 771.42h85.73v85.73h-85.73z" class="cls-1"/><path d="M1199.99 685.71h85.73v85.71h-85.73z" class="cls-1"/><path d="M1199.99 600.01h85.73v85.71h-85.73zM1199.99 514.28h85.73v85.73h-85.73zM1199.99 428.57h85.73v85.71h-85.73zM1199.99 342.84h85.73v85.73h-85.73z" class="cls-1"/><path d="M1199.99 257.14h85.73v85.71h-85.73z" class="cls-3"/><path d="M1199.99 171.43h85.73v85.71h-85.73z" class="cls-6"/><path d="M1199.99 85.71h85.73v85.73h-85.73z" class="cls-7"/><path d="M1199.99 0h85.73v85.71h-85.73zM1114.28 2142.86h85.71v85.71h-85.71z" class="cls-4"/><path d="M1114.28 2057.13h85.71v85.73h-85.71z" class="cls-2"/><path d="M1114.28 1971.43h85.71v85.71h-85.71z" class="cls-9"/><path d="M1114.28 1885.7h85.71v85.73h-85.71zM1114.28 1799.99h85.71v85.71h-85.71z" class="cls-1"/><path d="M1114.28 1714.29h85.71V1800h-85.71zM1114.28 1628.56h85.71v85.73h-85.71z" class="cls-1"/><path d="M1114.28 1542.86h85.71v85.71h-85.71z" class="cls-8"/><path d="M1114.28 1457.13h85.71v85.73h-85.71zM1114.28 1371.42h85.71v85.71h-85.71z" class="cls-8"/><path d="M1114.28 1285.72h85.71v85.71h-85.71zM1114.28 1199.99h85.71v85.73h-85.71zM1114.28 1114.28h85.71v85.71h-85.71z" class="cls-8"/><path d="M1114.28 1028.58h85.71v85.71h-85.71z" class="cls-8"/><path d="M1114.28 942.85h85.71v85.73h-85.71zM1114.28 857.14h85.71v85.71h-85.71z" class="cls-1"/><path d="M1114.28 771.42h85.71v85.73h-85.71z" class="cls-1"/><path d="M1114.28 685.71h85.71v85.71h-85.71z" class="cls-1"/><path d="M1114.28 600.01h85.71v85.71h-85.71zM1114.28 514.28h85.71v85.73h-85.71zM1114.28 428.57h85.71v85.71h-85.71zM1114.28 342.84h85.71v85.73h-85.71z" class="cls-1"/><path d="M1114.28 257.14h85.71v85.71h-85.71z" class="cls-3"/><path d="M1114.28 171.43h85.71v85.71h-85.71z" class="cls-6"/><path d="M1114.28 85.71h85.71v85.73h-85.71z" class="cls-7"/><path d="M1114.28 0h85.71v85.71h-85.71zM1028.56 2142.86h85.73v85.71h-85.73z" class="cls-4"/><path d="M1028.56 2057.13h85.73v85.73h-85.73z" class="cls-2"/><path d="M1028.56 1971.43h85.73v85.71h-85.73z" class="cls-9"/><path d="M1028.56 1885.7h85.73v85.73h-85.73zM1028.56 1799.99h85.73v85.71h-85.73z" class="cls-1"/><path d="M1028.56 1714.29h85.73V1800h-85.73z" class="cls-1"/><path d="M1028.56 1628.56h85.73v85.73h-85.73z" class="cls-8"/><path d="M1028.56 1542.86h85.73v85.71h-85.73z" class="cls-8"/><path d="M1028.56 1457.13h85.73v85.73h-85.73zM1028.56 1371.42h85.73v85.71h-85.73z" class="cls-8"/><path d="M1028.56 1285.72h85.73v85.71h-85.73zM1028.56 1199.99h85.73v85.73h-85.73zM1028.56 1114.28h85.73v85.71h-85.73z" class="cls-8"/><path d="M1028.56 1028.58h85.73v85.71h-85.73zM1028.56 942.85h85.73v85.73h-85.73zM1028.56 857.14h85.73v85.71h-85.73z" class="cls-1"/><path d="M1028.56 771.42h85.73v85.73h-85.73z" class="cls-1"/><path d="M1028.56 685.71h85.73v85.71h-85.73z" class="cls-1"/><path d="M1028.56 600.01h85.73v85.71h-85.73zM1028.56 514.28h85.73v85.73h-85.73zM1028.56 428.57h85.73v85.71h-85.73zM1028.56 342.84h85.73v85.73h-85.73z" class="cls-1"/><path d="M1028.56 257.14h85.73v85.71h-85.73z" class="cls-3"/><path d="M1028.56 171.43h85.73v85.71h-85.73z" class="cls-5"/><path d="M1028.56 85.71h85.73v85.73h-85.73z" class="cls-7"/><path d="M1028.56 0h85.73v85.71h-85.73zM942.85 2142.86h85.71v85.71h-85.71z" class="cls-4"/><path d="M942.85 2057.13h85.71v85.73h-85.71z" class="cls-2"/><path d="M942.85 1971.43h85.71v85.71h-85.71z" class="cls-9"/><path d="M942.85 1885.7h85.71v85.73h-85.71zM942.85 1799.99h85.71v85.71h-85.71z" class="cls-1"/><path d="M942.85 1714.29h85.71V1800h-85.71zM942.85 1628.56h85.71v85.73h-85.71z" class="cls-1"/><path d="M942.85 1542.86h85.71v85.71h-85.71z" class="cls-8"/><path d="M942.85 1457.13h85.71v85.73h-85.71zM942.85 1371.42h85.71v85.71h-85.71z" class="cls-8"/><path d="M942.85 1285.72h85.71v85.71h-85.71zM942.85 1199.99h85.71v85.73h-85.71zM942.85 1114.28h85.71v85.71h-85.71z" class="cls-8"/><path d="M942.85 1028.58h85.71v85.71h-85.71z" class="cls-8"/><path d="M942.85 942.85h85.71v85.73h-85.71zM942.85 857.14h85.71v85.71h-85.71z" class="cls-1"/><path d="M942.85 771.42h85.71v85.73h-85.71z" class="cls-1"/><path d="M942.85 685.71h85.71v85.71h-85.71z" class="cls-1"/><path d="M942.85 600.01h85.71v85.71h-85.71zM942.85 514.28h85.71v85.73h-85.71zM942.85 428.57h85.71v85.71h-85.71zM942.85 342.84h85.71v85.73h-85.71z" class="cls-1"/><path d="M942.85 257.14h85.71v85.71h-85.71z" class="cls-3"/><path d="M942.85 171.43h85.71v85.71h-85.71z" class="cls-5"/><path d="M942.85 85.71h85.71v85.73h-85.71z" class="cls-7"/><path d="M942.85 0h85.71v85.71h-85.71zM857.14 2057.13h85.71v85.73h-85.71z" class="cls-4"/><path d="M857.14 1971.43h85.71v85.71h-85.71z" class="cls-2"/><path d="M857.14 1885.7h85.71v85.73h-85.71z" class="cls-9"/><path d="M857.14 1799.99h85.71v85.71h-85.71z" class="cls-1"/><path d="M857.14 1714.29h85.71V1800h-85.71zM857.14 1628.56h85.71v85.73h-85.71z" class="cls-1"/><path d="M857.14 1542.86h85.71v85.71h-85.71z" class="cls-1"/><path d="M857.14 1457.13h85.71v85.73h-85.71zM857.14 1371.42h85.71v85.71h-85.71z" class="cls-8"/><path d="M857.14 1285.72h85.71v85.71h-85.71zM857.14 1199.99h85.71v85.73h-85.71zM857.14 1114.28h85.71v85.71h-85.71z" class="cls-8"/><path d="M857.14 1028.58h85.71v85.71h-85.71zM857.14 942.85h85.71v85.73h-85.71z" class="cls-8"/><path d="M857.14 857.14h85.71v85.71h-85.71z" class="cls-1"/><path d="M857.14 771.42h85.71v85.73h-85.71z" class="cls-1"/><path d="M857.14 685.71h85.71v85.71h-85.71z" class="cls-1"/><path d="M857.14 600.01h85.71v85.71h-85.71zM857.14 514.28h85.71v85.73h-85.71zM857.14 428.57h85.71v85.71h-85.71zM857.14 342.84h85.71v85.73h-85.71z" class="cls-1"/><path d="M857.14 257.14h85.71v85.71h-85.71z" class="cls-6"/><path d="M857.14 171.43h85.71v85.71h-85.71z" class="cls-7"/><path d="M857.14 85.71h85.71v85.73h-85.71zM771.42 2057.13h85.73v85.73h-85.73z" class="cls-4"/><path d="M771.42 1971.43h85.73v85.71h-85.73z" class="cls-2"/><path d="M771.42 1885.7h85.73v85.73h-85.73z" class="cls-9"/><path d="M771.42 1799.99h85.73v85.71h-85.73z" class="cls-1"/><path d="M771.42 1714.29h85.73V1800h-85.73zM771.42 1628.56h85.73v85.73h-85.73z" class="cls-1"/><path d="M771.42 1542.86h85.73v85.71h-85.73z" class="cls-1"/><path d="M771.42 1457.13h85.73v85.73h-85.73z" class="cls-1"/><path d="M771.42 1371.42h85.73v85.71h-85.73z" class="cls-8"/><path d="M771.42 1285.72h85.73v85.71h-85.73zM771.42 1199.99h85.73v85.73h-85.73zM771.42 1114.28h85.73v85.71h-85.73z" class="cls-8"/><path d="M771.42 1028.58h85.73v85.71h-85.73zM771.42 942.85h85.73v85.73h-85.73zM771.42 857.14h85.73v85.71h-85.73z" class="cls-8"/><path d="M771.42 771.42h85.73v85.73h-85.73z" class="cls-1"/><path d="M771.42 685.71h85.73v85.71h-85.73z" class="cls-1"/><path d="M771.42 600.01h85.73v85.71h-85.73zM771.42 514.28h85.73v85.73h-85.73zM771.42 428.57h85.73v85.71h-85.73zM771.42 342.84h85.73v85.73h-85.73z" class="cls-1"/><path d="M771.42 257.14h85.73v85.71h-85.73z" class="cls-5"/><path d="M771.42 171.43h85.73v85.71h-85.73z" class="cls-7"/><path d="M771.42 85.71h85.73v85.73h-85.73zM685.71 2057.13h85.71v85.73h-85.71z" class="cls-4"/><path d="M685.71 1971.43h85.71v85.71h-85.71z" class="cls-2"/><path d="M685.71 1885.7h85.71v85.73h-85.71z" class="cls-9"/><path d="M685.71 1799.99h85.71v85.71h-85.71z" class="cls-1"/><path d="M685.71 1714.29h85.71V1800h-85.71zM685.71 1628.56h85.71v85.73h-85.71z" class="cls-1"/><path d="M685.71 1542.86h85.71v85.71h-85.71z" class="cls-1"/><path d="M685.71 1457.13h85.71v85.73h-85.71zM685.71 1371.42h85.71v85.71h-85.71z" class="cls-1"/><path d="M685.71 1285.72h85.71v85.71h-85.71zM685.71 1199.99h85.71v85.73h-85.71zM685.71 1114.28h85.71v85.71h-85.71z" class="cls-8"/><path d="M685.71 1028.58h85.71v85.71h-85.71zM685.71 942.85h85.71v85.73h-85.71zM685.71 857.14h85.71v85.71h-85.71z" class="cls-8"/><path d="M685.71 771.42h85.71v85.73h-85.71z" class="cls-8"/><path d="M685.71 685.71h85.71v85.71h-85.71z" class="cls-1"/><path d="M685.71 600.01h85.71v85.71h-85.71zM685.71 514.28h85.71v85.73h-85.71zM685.71 428.57h85.71v85.71h-85.71zM685.71 342.84h85.71v85.73h-85.71z" class="cls-1"/><path d="M685.71 257.14h85.71v85.71h-85.71z" class="cls-5"/><path d="M685.71 171.43h85.71v85.71h-85.71z" class="cls-7"/><path d="M685.71 85.71h85.71v85.73h-85.71zM599.98 1971.43h85.73v85.71h-85.73z" class="cls-4"/><path d="M599.98 1885.7h85.73v85.73h-85.73z" class="cls-2"/><path d="M599.98 1799.99h85.73v85.71h-85.73z" class="cls-9"/><path d="M599.98 1714.29h85.73V1800h-85.73zM599.98 1628.56h85.73v85.73h-85.73z" class="cls-1"/><path d="M599.98 1542.86h85.73v85.71h-85.73z" class="cls-1"/><path d="M599.98 1457.13h85.73v85.73h-85.73zM599.98 1371.42h85.73v85.71h-85.73z" class="cls-1"/><path d="M599.98 1285.72h85.73v85.71h-85.73z" class="cls-1"/><path d="M599.98 1199.99h85.73v85.73h-85.73zM599.98 1114.28h85.73v85.71h-85.73z" class="cls-8"/><path d="M599.98 1028.58h85.73v85.71h-85.73zM599.98 942.85h85.73v85.73h-85.73zM599.98 857.14h85.73v85.71h-85.73z" class="cls-8"/><path d="M599.98 771.42h85.73v85.73h-85.73z" class="cls-8"/><path d="M599.98 685.71h85.73v85.71h-85.73z" class="cls-8"/><path d="M599.98 600.01h85.73v85.71h-85.73zM599.98 514.28h85.73v85.73h-85.73zM599.98 428.57h85.73v85.71h-85.73z" class="cls-1"/><path d="M599.98 342.84h85.73v85.73h-85.73z" class="cls-6"/><path d="M599.98 257.14h85.73v85.71h-85.73z" class="cls-7"/><path d="M599.98 171.43h85.73v85.71h-85.73zM514.28 1971.43h85.71v85.71h-85.71z" class="cls-4"/><path d="M514.28 1885.7h85.71v85.73h-85.71z" class="cls-2"/><path d="M514.28 1799.99h85.71v85.71h-85.71z" class="cls-9"/><path d="M514.28 1714.29h85.71V1800h-85.71zM514.28 1628.56h85.71v85.73h-85.71z" class="cls-1"/><path d="M514.28 1542.86h85.71v85.71h-85.71z" class="cls-1"/><path d="M514.28 1457.13h85.71v85.73h-85.71zM514.28 1371.42h85.71v85.71h-85.71z" class="cls-1"/><path d="M514.28 1285.72h85.71v85.71h-85.71zM514.28 1199.99h85.71v85.73h-85.71z" class="cls-1"/><path d="M514.28 1114.28h85.71v85.71h-85.71z" class="cls-8"/><path d="M514.28 1028.58h85.71v85.71h-85.71zM514.28 942.85h85.71v85.73h-85.71zM514.28 857.14h85.71v85.71h-85.71z" class="cls-8"/><path d="M514.28 771.42h85.71v85.73h-85.71z" class="cls-8"/><path d="M514.28 685.71h85.71v85.71h-85.71z" class="cls-1"/><path d="M514.28 600.01h85.71v85.71h-85.71zM514.28 514.28h85.71v85.73h-85.71zM514.28 428.57h85.71v85.71h-85.71z" class="cls-1"/><path d="M514.28 342.84h85.71v85.73h-85.71z" class="cls-5"/><path d="M514.28 257.14h85.71v85.71h-85.71z" class="cls-7"/><path d="M514.28 171.43h85.71v85.71h-85.71zM428.57 1885.7h85.71v85.73h-85.71z" class="cls-4"/><path d="M428.57 1799.99h85.71v85.71h-85.71z" class="cls-2"/><path d="M428.57 1714.29h85.71V1800h-85.71z" class="cls-9"/><path d="M428.57 1628.56h85.71v85.73h-85.71z" class="cls-1"/><path d="M428.57 1542.86h85.71v85.71h-85.71z" class="cls-1"/><path d="M428.57 1457.13h85.71v85.73h-85.71zM428.57 1371.42h85.71v85.71h-85.71z" class="cls-1"/><path d="M428.57 1285.72h85.71v85.71h-85.71zM428.57 1199.99h85.71v85.73h-85.71zM428.57 1114.28h85.71v85.71h-85.71z" class="cls-1"/><path d="M428.57 1028.58h85.71v85.71h-85.71zM428.57 942.85h85.71v85.73h-85.71zM428.57 857.14h85.71v85.71h-85.71z" class="cls-8"/><path d="M428.57 771.42h85.71v85.73h-85.71z" class="cls-1"/><path d="M428.57 685.71h85.71v85.71h-85.71z" class="cls-1"/><path d="M428.57 600.01h85.71v85.71h-85.71zM428.57 514.28h85.71v85.73h-85.71z" class="cls-1"/><path d="M428.57 428.57h85.71v85.71h-85.71z" class="cls-3"/><path d="M428.57 342.84h85.71v85.73h-85.71z" class="cls-7"/><path d="M428.57 257.14h85.71v85.71h-85.71zM342.84 1799.99h85.73v85.71h-85.73z" class="cls-4"/><path d="M342.84 1714.29h85.73V1800h-85.73z" class="cls-2"/><path d="M342.84 1628.56h85.73v85.73h-85.73z" class="cls-9"/><path d="M342.84 1542.86h85.73v85.71h-85.73z" class="cls-1"/><path d="M342.84 1457.13h85.73v85.73h-85.73zM342.84 1371.42h85.73v85.71h-85.73z" class="cls-1"/><path d="M342.84 1285.72h85.73v85.71h-85.73zM342.84 1199.99h85.73v85.73h-85.73zM342.84 1114.28h85.73v85.71h-85.73z" class="cls-1"/><path d="M342.84 1028.58h85.73v85.71h-85.73z" class="cls-1"/><path d="M342.84 942.85h85.73v85.73h-85.73z" class="cls-8"/><path d="M342.84 857.14h85.73v85.71h-85.73z" class="cls-1"/><path d="M342.84 771.42h85.73v85.73h-85.73z" class="cls-1"/><path d="M342.84 685.71h85.73v85.71h-85.73z" class="cls-1"/><path d="M342.84 600.01h85.73v85.71h-85.73z" class="cls-1"/><path d="M342.84 514.28h85.73v85.73h-85.73z" class="cls-3"/><path d="M342.84 428.57h85.73v85.71h-85.73z" class="cls-7"/><path d="M342.84 342.84h85.73v85.73h-85.73zM257.14 1714.29h85.71V1800h-85.71z" class="cls-4"/><path d="M257.14 1628.56h85.71v85.73h-85.71z" class="cls-2"/><path d="M257.14 1542.86h85.71v85.71h-85.71z" class="cls-9"/><path d="M257.14 1457.13h85.71v85.73h-85.71zM257.14 1371.42h85.71v85.71h-85.71z" class="cls-1"/><path d="M257.14 1285.72h85.71v85.71h-85.71zM257.14 1199.99h85.71v85.73h-85.71zM257.14 1114.28h85.71v85.71h-85.71z" class="cls-1"/><path d="M257.14 1028.58h85.71v85.71h-85.71zM257.14 942.85h85.71v85.73h-85.71zM257.14 857.14h85.71v85.71h-85.71z" class="cls-1"/><path d="M257.14 771.42h85.71v85.73h-85.71z" class="cls-1"/><path d="M257.14 685.71h85.71v85.71h-85.71z" class="cls-1"/><path d="M257.14 600.01h85.71v85.71h-85.71z" class="cls-3"/><path d="M257.14 514.28h85.71v85.73h-85.71z" class="cls-7"/><path d="M257.14 428.57h85.71v85.71h-85.71zM171.41 1628.56h85.73v85.73h-85.73z" class="cls-4"/><path d="M171.41 1542.86h85.73v85.71h-85.73z" class="cls-4"/><path d="M171.41 1457.13h85.73v85.73h-85.73z" class="cls-9"/><path d="M171.41 1371.42h85.73v85.71h-85.73z" class="cls-1"/><path d="M171.41 1285.72h85.73v85.71h-85.73zM171.41 1199.99h85.73v85.73h-85.73zM171.41 1114.28h85.73v85.71h-85.73z" class="cls-1"/><path d="M171.41 1028.58h85.73v85.71h-85.73zM171.41 942.85h85.73v85.73h-85.73zM171.41 857.14h85.73v85.71h-85.73z" class="cls-1"/><path d="M171.41 771.42h85.73v85.73h-85.73z" class="cls-1"/><path d="M171.41 685.71h85.73v85.71h-85.73z" class="cls-3"/><path d="M171.41 600.01h85.73v85.71h-85.73zM171.41 514.28h85.73v85.73h-85.73zM85.71 1457.13h85.71v85.73H85.71zM85.71 1371.42h85.71v85.71H85.71z" class="cls-4"/><path d="M85.71 1285.72h85.71v85.71H85.71z" class="cls-4"/><path d="M85.71 1199.99h85.71v85.73H85.71zM85.71 1114.28h85.71v85.71H85.71z" class="cls-1"/><path d="M85.71 1028.58h85.71v85.71H85.71zM85.71 942.85h85.71v85.73H85.71z" class="cls-1"/><path d="M85.71 857.14h85.71v85.71H85.71z" class="cls-4"/><path d="M85.71 771.42h85.71v85.73H85.71z" class="cls-4"/><path d="M85.71 685.71h85.71v85.71H85.71zM0 1199.99h85.71v85.73H0zM0 1114.28h85.71v85.71H0z" class="cls-4"/><path d="M0 1028.58h85.71v85.71H0zM0 942.85h85.71v85.73H0z" class="cls-4"/></g></svg>