<svg width="40" height="40" viewBox="0 0 40 40" fill="none" xmlns="http://www.w3.org/2000/svg">
<g clip-path="url(#clip0_458_228921)">
<g filter="url(#filter0_ddd_458_228921)">
<path d="M35 20C35 28.2856 28.2856 35 20 35C11.7144 35 5 28.2856 5 20C5 16.9838 5.89105 14.1747 7.42476 11.8228C7.4425 11.8386 7.46024 11.8524 7.47996 11.8642C8.36115 12.4655 9.51242 12.4418 10.228 12.3472C9.92837 11.3694 9.31134 10.6243 8.72782 10.1058C8.81062 10.0092 8.89538 9.91655 8.98212 9.82389C9.05704 9.87318 9.13195 9.9264 9.20291 9.97963C9.27388 10.0329 9.34288 10.0861 9.40991 10.1433C9.47299 10.1945 9.5341 10.2477 9.59127 10.301C9.6583 10.3621 9.72138 10.4212 9.78052 10.4823C9.83572 10.5375 9.88894 10.5927 9.93823 10.6479C10.1846 10.916 10.3798 11.1802 10.5237 11.397C10.5631 11.4562 10.5986 11.5114 10.6302 11.5626C10.7465 11.7519 10.8155 11.8879 10.8352 11.9293C10.8372 11.9313 10.8372 11.9332 10.8391 11.9352C10.8273 11.8682 10.8076 11.7893 10.782 11.7026C10.7721 11.6612 10.7583 11.6159 10.7445 11.5685C10.7366 11.5429 10.7307 11.5173 10.7209 11.4917C10.713 11.466 10.7051 11.4404 10.6972 11.4148C10.6814 11.3635 10.6637 11.3103 10.644 11.2551C10.6183 11.1743 10.5868 11.0915 10.5533 11.0047C10.5336 10.9574 10.5158 10.9101 10.4941 10.8608C10.4902 10.849 10.4843 10.8352 10.4784 10.8234C10.4646 10.7938 10.4527 10.7623 10.439 10.7327C10.4114 10.6716 10.3838 10.6105 10.3542 10.5493C10.2872 10.4133 10.2142 10.2734 10.1314 10.1354C10.0664 10.0269 9.9954 9.91852 9.92049 9.81404C9.92049 9.81207 9.91851 9.81009 9.91851 9.81009C9.88106 9.75884 9.8436 9.71153 9.80615 9.66224C9.80418 9.66027 9.8022 9.65633 9.80023 9.65436C9.78446 9.63662 9.77066 9.61885 9.75686 9.60113C9.71941 9.55579 9.67998 9.51045 9.64055 9.46708C9.6169 9.43948 9.5893 9.41188 9.56367 9.38625C9.53804 9.35865 9.51045 9.33106 9.48482 9.30543C11.2216 7.59627 13.3743 6.307 15.7774 5.6052C13.5892 6.30109 11.671 8.07728 11.2985 12.0357C9.1556 14.218 7.83086 17.2066 7.83086 20.5007C7.83086 27.1659 13.254 32.589 19.9192 32.589C26.5843 32.589 32.0094 27.1659 32.0094 20.5007C32.0094 14.6103 27.777 9.69576 22.1941 8.62728L22.0463 8.6056C21.8747 8.87765 21.7427 9.4178 21.7427 9.4178C27.0712 10.2931 31.1519 14.9277 31.1519 20.5007C31.1519 26.5449 26.3517 31.4871 20.3647 31.7216V28.5557L20.8536 28.3585V26.8031L22.8821 25.4725C23.0398 25.37 23.1345 25.1925 23.1345 25.0033V21.4075C23.1345 21.2341 23.2153 21.0704 23.3513 20.964L23.7456 20.6604C23.8816 20.554 23.9624 20.3903 23.9624 20.2188V19.1858C23.9624 18.8763 23.7121 18.624 23.4025 18.624H22.547V14.7818C22.547 14.4723 22.2966 14.222 21.9871 14.222C21.6776 14.222 21.4272 14.4723 21.4272 14.7818V18.624H18.4111V14.7818C18.4111 14.4723 18.1607 14.222 17.8512 14.222C17.5417 14.222 17.2913 14.4723 17.2913 14.7818V18.624H16.4377C16.1282 18.624 15.8779 18.8763 15.8779 19.1858V20.2188C15.8779 20.3903 15.9567 20.554 16.0947 20.6604L16.487 20.964C16.625 21.0704 16.7039 21.2341 16.7039 21.4075V25.0033C16.7039 25.1925 16.7985 25.37 16.9582 25.4725L18.9847 26.8031V28.3585L19.4736 28.5557V31.7216C13.4866 31.4871 8.68837 26.5449 8.68837 20.5007C8.68837 17.4964 9.87512 14.768 11.8031 12.7494C11.8721 12.6508 14.5452 9.85741 17.8039 8.83822C17.8039 8.83822 14.8449 10.1866 13.1298 13.1003C19.4973 15.4186 20.9246 9.14378 21.2479 8.09896C21.7998 6.32475 23.1719 6.01525 23.1719 6.01525C23.1719 6.01525 19.6806 4.72401 16.4752 5.41793C17.6048 5.14391 18.7856 5 20 5C28.2855 5 35 11.7164 35 20Z" fill="#B39B58"/>
<path d="M10.8411 11.9392L9.78052 10.4824C9.83572 10.5376 9.88894 10.5928 9.93823 10.648C10.1846 10.9161 10.3798 11.1803 10.5237 11.3971C10.5631 11.4563 10.5986 11.5115 10.6302 11.5627C10.7465 11.752 10.8155 11.888 10.8352 11.9294C10.8372 11.9314 10.8372 11.9333 10.8391 11.9353C10.8391 11.9373 10.8411 11.9373 10.8411 11.9392Z" fill="#B39B58"/>
<path d="M10.8352 11.9293L9.93823 10.6479C10.1847 10.9161 10.3798 11.1802 10.5237 11.3971C10.5632 11.4562 10.5986 11.5114 10.6302 11.5627C10.7465 11.7519 10.8155 11.8879 10.8352 11.9293Z" fill="#B39B58"/>
<path d="M19.3475 25.3383L20.0316 23.0259H18.4131L19.3534 20.5933H20.7472L19.9172 22.2039H21.4214L19.3475 25.3383Z" fill="#B39B58"/>
<path d="M15.7773 5.60519C15.9981 5.53817 16.2229 5.47705 16.4496 5.42383C16.2229 5.47311 15.9981 5.53225 15.7773 5.60519Z" fill="#B39B58"/>
<path d="M9.32512 9.16143C9.38031 9.20874 9.43354 9.25802 9.4848 9.30534C9.31132 9.4729 9.14375 9.64638 8.9821 9.8238C8.53658 9.53007 8.00826 9.29351 7.39714 9.19297C7.39714 9.19297 8.03783 9.49064 8.7278 10.1057C8.2527 10.6439 7.81703 11.2175 7.42474 11.8228C6.11576 10.8824 6.58886 9.39602 5.45142 8.39654C5.45142 8.39654 8.07725 8.09493 9.32512 9.16143Z" fill="#B39B58"/>
<path d="M10.8352 11.9294L9.78052 10.4824C9.83572 10.5376 9.88894 10.5928 9.93823 10.648C10.1846 10.9161 10.3798 11.1803 10.5237 11.3971C10.5631 11.4563 10.5986 11.5115 10.6302 11.5627C10.7465 11.752 10.8155 11.888 10.8352 11.9294Z" fill="#B39B58"/>
<path d="M10.8352 11.9293L9.93823 10.6479C10.1847 10.9161 10.3798 11.1802 10.5237 11.3971C10.5632 11.4562 10.5986 11.5114 10.6302 11.5627C10.7465 11.7519 10.8155 11.8879 10.8352 11.9293Z" fill="#B39B58"/>
</g>
</g>
<defs>
<filter id="filter0_ddd_458_228921" x="1" y="5" width="38" height="38" filterUnits="userSpaceOnUse" color-interpolation-filters="sRGB">
<feFlood flood-opacity="0" result="BackgroundImageFix"/>
<feColorMatrix in="SourceAlpha" type="matrix" values="0 0 0 0 0 0 0 0 0 0 0 0 0 0 0 0 0 0 127 0" result="hardAlpha"/>
<feOffset dy="4"/>
<feGaussianBlur stdDeviation="2"/>
<feComposite in2="hardAlpha" operator="out"/>
<feColorMatrix type="matrix" values="0 0 0 0 0 0 0 0 0 0 0 0 0 0 0 0 0 0 1 0"/>
<feBlend mode="normal" in2="BackgroundImageFix" result="effect1_dropShadow_458_228921"/>
<feColorMatrix in="SourceAlpha" type="matrix" values="0 0 0 0 0 0 0 0 0 0 0 0 0 0 0 0 0 0 127 0" result="hardAlpha"/>
<feOffset dy="4"/>
<feGaussianBlur stdDeviation="2"/>
<feComposite in2="hardAlpha" operator="out"/>
<feColorMatrix type="matrix" values="0 0 0 0 0 0 0 0 0 0 0 0 0 0 0 0 0 0 0.25 0"/>
<feBlend mode="normal" in2="effect1_dropShadow_458_228921" result="effect2_dropShadow_458_228921"/>
<feColorMatrix in="SourceAlpha" type="matrix" values="0 0 0 0 0 0 0 0 0 0 0 0 0 0 0 0 0 0 127 0" result="hardAlpha"/>
<feOffset dy="4"/>
<feGaussianBlur stdDeviation="2"/>
<feComposite in2="hardAlpha" operator="out"/>
<feColorMatrix type="matrix" values="0 0 0 0 0 0 0 0 0 0 0 0 0 0 0 0 0 0 0.25 0"/>
<feBlend mode="normal" in2="effect2_dropShadow_458_228921" result="effect3_dropShadow_458_228921"/>
<feBlend mode="normal" in="SourceGraphic" in2="effect3_dropShadow_458_228921" result="shape"/>
</filter>
<clipPath id="clip0_458_228921">
<rect width="40" height="40" fill="white"/>
</clipPath>
</defs>
</svg>
