<?xml version="1.0" encoding="UTF-8"?>
<svg width="80px" height="80px" viewBox="0 0 80 80" version="1.1" xmlns="http://www.w3.org/2000/svg" xmlns:xlink="http://www.w3.org/1999/xlink">
    <title>F2Pool</title>
    <defs>
        <polygon id="path-1" points="0 0 80 0 80 80.0002963 0 80.0002963"></polygon>
    </defs>
    <g id="页面-1" stroke="none" stroke-width="1" fill="none" fill-rule="evenodd">
        <g id="画板" transform="translate(-186.000000, -957.000000)">
            <g id="F2Pool" transform="translate(186.000000, 957.000000)">
                <g id="编组" transform="translate(0.000000, -0.000000)">
                    <g>
                        <mask id="mask-2" fill="white">
                            <use xlink:href="#path-1"></use>
                        </mask>
                        <g id="Clip-2"></g>
                        <path d="M40.0001481,0 C17.9082145,0 0,17.9082145 0,40.0001481 C0,62.0920818 17.9082145,80.0002963 40.0001481,80.0002963 C62.0920818,80.0002963 80.0002963,62.0920818 80.0002963,40.0001481 C80.0002963,17.9082145 62.0920818,0 40.0001481,0" id="Fill-1" fill="#4062FF" mask="url(#mask-2)"></path>
                    </g>
                    <path d="M50.4884833,63.0818633 C43.6291986,59.0818485 43.3773458,51.0966337 43.3773458,51.0966337 C42.7803066,55.4433165 43.9077182,59.8507402 46.5180982,63.3781607 C44.5358687,63.3929755 42.5566021,63.2640862 40.5921503,62.9914926 C37.220286,65.7633547 32.7743436,66.8522476 28.5032167,65.9544665 C30.6928544,65.0477965 31.8765625,62.6640839 31.2735973,60.3707421 C22.0587484,55.7929474 17.8365105,45.8077252 21.4365238,34.5484243 C24.0765336,37.4002867 27.4646943,39.4536276 31.2143378,40.4743721 C37.8662143,42.2225268 41.4365979,37.2151008 38.5032537,32.9780481 C45.4514276,33.7336064 60.4588906,43.732162 61.5403761,58.1633265 C58.5388835,61.0418557 54.6455357,62.8122326 50.5032982,63.1855674 L50.4884833,63.0818633 Z M27.9402516,24.5632021 C27.9402516,24.5632021 26.9624702,35.2150934 32.0736003,37.8965848 C32.0736003,37.8965848 28.4884018,39.3780718 21.7031915,33.5410131 C22.8024548,29.9735925 24.9624628,26.8269142 27.895807,24.5187575 L27.9402516,24.5632021 Z M37.5847318,12.2816751 C37.5847318,12.2816751 36.2810233,21.1705969 41.7180804,25.0076482 C38.2365861,26.7409879 30.8439661,22.9335664 28.7698843,23.5261612 C30.3150752,18.831329 33.4617536,14.8298327 37.6588061,12.2224156 L37.5847318,12.2816751 Z M52.3996015,54.355905 C52.449972,55.320353 53.2707158,56.0610965 54.2351638,56.0122075 C55.0855374,55.9677628 55.7803547,55.3188716 55.8810959,54.4729425 L55.8810959,54.355905 C55.7922066,53.39442 54.9403516,52.6862692 53.9788666,52.7751584 C53.1418265,52.8536772 52.4766388,53.5173834 52.3996015,54.355905 L52.3996015,54.355905 Z" id="Fill-3" fill="#FFFFFF"></path>
                </g>
            </g>
        </g>
    </g>
</svg>