<svg width="51" height="31" viewBox="0 0 51 31" fill="none" xmlns="http://www.w3.org/2000/svg">
<g filter="url(#filter0_ddd_3690_303573)">
<rect x="7.96155" width="33.9808" height="2.05405" fill="#3E3E3E"/>
<rect x="7.96155" y="16.946" width="33.9808" height="2.05405" fill="#3E3E3E"/>
<rect x="6.5" y="2.05396" width="1.46154" height="14.8919" fill="#3E3E3E"/>
<rect x="41.9423" y="2.05396" width="1.46154" height="14.8919" fill="#3E3E3E"/>
<rect x="43.4038" y="6.67578" width="1.09615" height="5.64865" fill="#3E3E3E"/>
<path d="M14.0629 11.1353V6.90771H15.6655C16.3891 6.90771 16.8783 7.32959 16.8783 7.9624V7.96826C16.8783 8.40479 16.5502 8.82959 16.1137 8.89111V8.90283C16.7231 8.97314 17.0922 9.3833 17.0922 9.94287V9.94873C17.0922 10.6929 16.559 11.1353 15.6596 11.1353H14.0629ZM15.5453 7.37354H14.5903V8.72998H15.3813C16.0053 8.72998 16.3451 8.48096 16.3451 8.02393V8.01807C16.3451 7.60205 16.0551 7.37354 15.5453 7.37354ZM15.5307 9.18408H14.5903V10.6694H15.5805C16.2133 10.6694 16.5502 10.4146 16.5502 9.92822V9.92236C16.5502 9.43311 16.2045 9.18408 15.5307 9.18408ZM19.1014 11.1938C18.4949 11.1938 18.0877 10.8276 18.0877 10.2739V10.2681C18.0877 9.74951 18.492 9.42432 19.1922 9.3833L20.0653 9.3335V9.07861C20.0653 8.70654 19.8221 8.48096 19.3973 8.48096C19.0047 8.48096 18.7586 8.66846 18.7 8.94092L18.6942 8.96729H18.202L18.2049 8.93506C18.2489 8.43408 18.6854 8.02979 19.4031 8.02979C20.1239 8.02979 20.575 8.41943 20.575 9.02881V11.1353H20.0653V10.6401H20.0535C19.8748 10.9741 19.5086 11.1938 19.1014 11.1938ZM18.6092 10.2739C18.6092 10.5669 18.8494 10.7515 19.2156 10.7515C19.6961 10.7515 20.0653 10.4204 20.0653 9.97803V9.729L19.2508 9.77881C18.8436 9.80225 18.6092 9.98389 18.6092 10.2681V10.2739ZM22.8127 11.1938C22.2531 11.1938 21.9778 10.9419 21.9778 10.3589V8.51025H21.5324V8.08838H21.9778V7.26514H22.5051V8.08838H23.0852V8.51025H22.5051V10.356C22.5051 10.6812 22.6487 10.772 22.9211 10.772C22.9826 10.772 23.0412 10.7632 23.0852 10.7603V11.1733C23.0207 11.1821 22.9123 11.1938 22.8127 11.1938ZM25.2233 11.1938C24.6637 11.1938 24.3883 10.9419 24.3883 10.3589V8.51025H23.943V8.08838H24.3883V7.26514H24.9156V8.08838H25.4957V8.51025H24.9156V10.356C24.9156 10.6812 25.0592 10.772 25.3317 10.772C25.3932 10.772 25.4518 10.7632 25.4957 10.7603V11.1733C25.4313 11.1821 25.3229 11.1938 25.2233 11.1938ZM27.8096 11.1938C26.9336 11.1938 26.4063 10.5815 26.4063 9.62354V9.62061C26.4063 8.67725 26.9453 8.02979 27.7774 8.02979C28.6094 8.02979 29.1162 8.64795 29.1162 9.56201V9.74951H26.9219C26.9336 10.3765 27.2793 10.7427 27.8213 10.7427C28.208 10.7427 28.4805 10.5493 28.5684 10.2886L28.5772 10.2622H29.0781L29.0723 10.2915C28.9727 10.7954 28.4746 11.1938 27.8096 11.1938ZM27.7744 8.48096C27.3321 8.48096 26.9864 8.78271 26.9307 9.35107H28.5977C28.5479 8.75928 28.2198 8.48096 27.7744 8.48096ZM30.2319 11.1353V8.08838H30.7416V8.604H30.7533C30.8559 8.25244 31.1196 8.02979 31.4623 8.02979C31.5502 8.02979 31.6264 8.04443 31.6674 8.05029V8.54541C31.6264 8.53076 31.518 8.51611 31.3949 8.51611C30.9994 8.51611 30.7416 8.7915 30.7416 9.25439V11.1353H30.2319ZM32.9764 12.1606C32.8768 12.1606 32.7684 12.1489 32.7039 12.1372V11.7212C32.7479 11.73 32.8065 11.7388 32.868 11.7388C33.1903 11.7388 33.369 11.6567 33.492 11.311L33.5535 11.1382L32.4227 8.08838H32.9676L33.8084 10.6255H33.8201L34.6639 8.08838H35.2L34.0106 11.3257C33.7938 11.9087 33.5272 12.1606 32.9764 12.1606Z" fill="white"/>
</g>
<defs>
<filter id="filter0_ddd_3690_303573" x="0.5" y="0" width="50" height="31" filterUnits="userSpaceOnUse" color-interpolation-filters="sRGB">
<feFlood flood-opacity="0" result="BackgroundImageFix"/>
<feColorMatrix in="SourceAlpha" type="matrix" values="0 0 0 0 0 0 0 0 0 0 0 0 0 0 0 0 0 0 127 0" result="hardAlpha"/>
<feOffset dy="4"/>
<feGaussianBlur stdDeviation="2"/>
<feComposite in2="hardAlpha" operator="out"/>
<feColorMatrix type="matrix" values="0 0 0 0 0 0 0 0 0 0 0 0 0 0 0 0 0 0 1 0"/>
<feBlend mode="normal" in2="BackgroundImageFix" result="effect1_dropShadow_3690_303573"/>
<feColorMatrix in="SourceAlpha" type="matrix" values="0 0 0 0 0 0 0 0 0 0 0 0 0 0 0 0 0 0 127 0" result="hardAlpha"/>
<feOffset dy="4"/>
<feGaussianBlur stdDeviation="2"/>
<feComposite in2="hardAlpha" operator="out"/>
<feColorMatrix type="matrix" values="0 0 0 0 0 0 0 0 0 0 0 0 0 0 0 0 0 0 0.25 0"/>
<feBlend mode="normal" in2="effect1_dropShadow_3690_303573" result="effect2_dropShadow_3690_303573"/>
<feColorMatrix in="SourceAlpha" type="matrix" values="0 0 0 0 0 0 0 0 0 0 0 0 0 0 0 0 0 0 127 0" result="hardAlpha"/>
<feOffset dy="6"/>
<feGaussianBlur stdDeviation="3"/>
<feComposite in2="hardAlpha" operator="out"/>
<feColorMatrix type="matrix" values="0 0 0 0 0 0 0 0 0 0 0 0 0 0 0 0 0 0 0.25 0"/>
<feBlend mode="normal" in2="effect2_dropShadow_3690_303573" result="effect3_dropShadow_3690_303573"/>
<feBlend mode="normal" in="SourceGraphic" in2="effect3_dropShadow_3690_303573" result="shape"/>
</filter>
</defs>
</svg>
