<svg width="27" height="37" viewBox="0 0 27 37" fill="none" xmlns="http://www.w3.org/2000/svg">
<g>
<rect x="13.7805" y="21.7003" width="2.32093" height="2.32093" transform="rotate(45 13.7805 21.7003)" stroke="#E5C46B"/>
<rect x="16.1289" y="24.0484" width="2.32093" height="2.32093" transform="rotate(45 16.1289 24.0484)" stroke="#E2C781"/>
<rect x="18.4771" y="26.3968" width="2.32093" height="2.32093" transform="rotate(45 18.4771 26.3968)" stroke="#EAD08A"/>
<rect x="11.4324" y="24.0484" width="2.32093" height="2.32093" transform="rotate(45 11.4324 24.0484)" stroke="#E2C781"/>
<rect x="9.08423" y="26.3968" width="2.32093" height="2.32093" transform="rotate(45 9.08423 26.3968)" stroke="#EAD08A"/>
<rect x="13.7805" y="14.5321" width="2.32093" height="2.32093" transform="rotate(45 13.7805 14.5321)" stroke="#E5C46B"/>
<rect x="16.1289" y="16.8802" width="2.32093" height="2.32093" transform="rotate(45 16.1289 16.8802)" stroke="#E2C781"/>
<rect x="18.4771" y="19.2286" width="2.32093" height="2.32093" transform="rotate(45 18.4771 19.2286)" stroke="#EAD08A"/>
<rect x="11.4324" y="16.8802" width="2.32093" height="2.32093" transform="rotate(45 11.4324 16.8802)" stroke="#E2C781"/>
<rect x="9.08423" y="19.2286" width="2.32093" height="2.32093" transform="rotate(45 9.08423 19.2286)" stroke="#EAD08A"/>
<rect x="13.7805" y="7.53206" width="2.32093" height="2.32093" transform="rotate(45 13.7805 7.53206)" stroke="#E5C46B"/>
<rect x="16.1289" y="9.8802" width="2.32093" height="2.32093" transform="rotate(45 16.1289 9.8802)" stroke="#E2C781"/>
<rect x="18.4771" y="12.2286" width="2.32093" height="2.32093" transform="rotate(45 18.4771 12.2286)" stroke="#EAD08A"/>
<rect x="11.4324" y="9.8802" width="2.32093" height="2.32093" transform="rotate(45 11.4324 9.8802)" stroke="#E2C781"/>
<rect x="9.08423" y="12.2286" width="2.32093" height="2.32093" transform="rotate(45 9.08423 12.2286)" stroke="#EAD08A"/>
</g>
</svg>
