<svg width="43" height="43" viewBox="0 0 43 43" fill="none" xmlns="http://www.w3.org/2000/svg">
    <g filter="url(#filter0_ddd_1_19577)">
        <path d="M7.93746 14.3069H6V16.6912H7.93746V14.3069Z" fill="white"/>
        <path d="M9.87578 11.9229H7.9375V14.3071H9.87578V11.9229Z" fill="white"/>
        <path d="M9.87578 14.3069H7.9375V16.6912H9.87578V14.3069Z" fill="white"/>
        <path d="M9.87578 16.6907H7.9375V19.076H9.87578V16.6907Z" fill="white"/>
        <path d="M11.8115 9.53711H9.87402V11.9224H11.8115V9.53711Z" fill="white"/>
        <path d="M11.8115 11.9229H9.87402V14.3071H11.8115V11.9229Z" fill="white"/>
        <path d="M11.8115 14.3069H9.87402V16.6912H11.8115V14.3069Z" fill="white"/>
        <path d="M11.8115 16.6907H9.87402V19.076H11.8115V16.6907Z" fill="white"/>
        <path d="M11.8115 19.0764H9.87402V21.4607H11.8115V19.0764Z" fill="white"/>
        <path d="M13.7508 7.15332H11.8125V9.53759H13.7508V7.15332Z" fill="white"/>
        <path d="M13.7508 9.53711H11.8125V11.9224H13.7508V9.53711Z" fill="white"/>
        <path d="M13.7508 11.9229H11.8125V14.3071H13.7508V11.9229Z" fill="white"/>
        <path d="M13.7508 14.3069H11.8125V16.6912H13.7508V14.3069Z" fill="white"/>
        <path d="M13.7508 16.6907H11.8125V19.076H13.7508V16.6907Z" fill="white"/>
        <path d="M13.7508 19.0764H11.8125V21.4607H13.7508V19.0764Z" fill="white"/>
        <path d="M13.7508 21.4604H11.8125V23.8447H13.7508V21.4604Z" fill="white"/>
        <path d="M15.6875 9.53711H13.75V11.9224H15.6875V9.53711Z" fill="white"/>
        <path d="M15.6875 11.9229H13.75V14.3071H15.6875V11.9229Z" fill="white"/>
        <path d="M15.6875 14.3069H13.75V16.6912H15.6875V14.3069Z" fill="white"/>
        <path d="M15.6875 16.6907H13.75V19.076H15.6875V16.6907Z" fill="white"/>
        <path d="M15.6875 19.0764H13.75V21.4607H15.6875V19.0764Z" fill="white"/>
        <path d="M15.6875 21.4604H13.75V23.8447H15.6875V21.4604Z" fill="white"/>
        <path d="M15.6875 23.845H13.75V26.2303H15.6875V23.845Z" fill="white"/>
        <path d="M17.6259 11.9229H15.6885V14.3071H17.6259V11.9229Z" fill="white"/>
        <path d="M17.6259 14.3069H15.6885V16.6912H17.6259V14.3069Z" fill="white"/>
        <path d="M17.6259 16.6907H15.6885V19.076H17.6259V16.6907Z" fill="white"/>
        <path d="M17.6259 19.0764H15.6885V21.4607H17.6259V19.0764Z" fill="white"/>
        <path d="M17.6259 21.4604H15.6885V23.8447H17.6259V21.4604Z" fill="white"/>
        <path d="M17.6259 23.845H15.6885V26.2303H17.6259V23.845Z" fill="white"/>
        <path d="M17.6259 26.2302H15.6885V28.6145H17.6259V26.2302Z" fill="white"/>
        <path d="M19.5643 14.3069H17.626V16.6912H19.5643V14.3069Z" fill="white"/>
        <path d="M19.5643 16.6907H17.626V19.076H19.5643V16.6907Z" fill="white"/>
        <path d="M19.5643 19.0764H17.626V21.4607H19.5643V19.0764Z" fill="white"/>
        <path d="M19.5643 21.4604H17.626V23.8447H19.5643V21.4604Z" fill="white"/>
        <path d="M19.5643 23.845H17.626V26.2303H19.5643V23.845Z" fill="white"/>
        <path d="M19.5643 26.2302H17.626V28.6145H19.5643V26.2302Z" fill="white"/>
        <path d="M19.5643 28.6147H17.626V31.0001H19.5643V28.6147Z" fill="white"/>
        <path d="M21.5 11.9229H19.5625V14.3071H21.5V11.9229Z" fill="white"/>
        <path d="M21.5 14.3069H19.5625V16.6912H21.5V14.3069Z" fill="white"/>
        <path d="M21.5 16.6907H19.5625V19.076H21.5V16.6907Z" fill="white"/>
        <path d="M21.5 19.0764H19.5625V21.4607H21.5V19.0764Z" fill="white"/>
        <path d="M21.5 21.4604H19.5625V23.8447H21.5V21.4604Z" fill="white"/>
        <path d="M21.5 23.845H19.5625V26.2303H21.5V23.845Z" fill="white"/>
        <path d="M21.5 26.2302H19.5625V28.6145H21.5V26.2302Z" fill="white"/>
        <path d="M23.4383 9.53711H21.5V11.9224H23.4383V9.53711Z" fill="white"/>
        <path d="M23.4383 11.9229H21.5V14.3071H23.4383V11.9229Z" fill="white"/>
        <path d="M23.4383 14.3069H21.5V16.6912H23.4383V14.3069Z" fill="white"/>
        <path d="M23.4383 16.6907H21.5V19.076H23.4383V16.6907Z" fill="white"/>
        <path d="M23.4383 19.0764H21.5V21.4607H23.4383V19.0764Z" fill="white"/>
        <path d="M23.4383 21.4604H21.5V23.8447H23.4383V21.4604Z" fill="white"/>
        <path d="M23.4383 23.845H21.5V26.2303H23.4383V23.845Z" fill="white"/>
        <path d="M25.3759 7.15332H23.4385V9.53759H25.3759V7.15332Z" fill="white"/>
        <path d="M25.3759 9.53711H23.4385V11.9224H25.3759V9.53711Z" fill="white"/>
        <path d="M25.3759 11.9229H23.4385V14.3071H25.3759V11.9229Z" fill="white"/>
        <path d="M25.3759 14.3069H23.4385V16.6912H25.3759V14.3069Z" fill="white"/>
        <path d="M25.3759 16.6907H23.4385V19.076H25.3759V16.6907Z" fill="white"/>
        <path d="M25.3759 19.0764H23.4385V21.4607H25.3759V19.0764Z" fill="white"/>
        <path d="M25.3759 21.4604H23.4385V23.8447H25.3759V21.4604Z" fill="white"/>
        <path d="M27.3115 4.76855H25.374V7.15388H27.3115V4.76855Z" fill="white"/>
        <path d="M27.3115 7.15332H25.374V9.53759H27.3115V7.15332Z" fill="white"/>
        <path d="M27.3115 9.53711H25.374V11.9224H27.3115V9.53711Z" fill="white"/>
        <path d="M27.3115 11.9229H25.374V14.3071H27.3115V11.9229Z" fill="white"/>
        <path d="M27.3115 14.3069H25.374V16.6912H27.3115V14.3069Z" fill="white"/>
        <path d="M27.3115 16.6907H25.374V19.076H27.3115V16.6907Z" fill="white"/>
        <path d="M27.3115 19.0764H25.374V21.4607H27.3115V19.0764Z" fill="white"/>
        <path d="M29.2518 2.38574H27.3135V4.77001H29.2518V2.38574Z" fill="white"/>
        <path d="M29.2518 4.76855H27.3135V7.15388H29.2518V4.76855Z" fill="white"/>
        <path d="M29.2518 7.15332H27.3135V9.53759H29.2518V7.15332Z" fill="white"/>
        <path d="M29.2518 9.53711H27.3135V11.9224H29.2518V9.53711Z" fill="white"/>
        <path d="M29.2518 11.9229H27.3135V14.3071H29.2518V11.9229Z" fill="white"/>
        <path d="M29.2518 14.3069H27.3135V16.6912H29.2518V14.3069Z" fill="white"/>
        <path d="M29.2518 16.6907H27.3135V19.076H29.2518V16.6907Z" fill="white"/>
        <path d="M31.1875 0H29.25V2.38427H31.1875V0Z" fill="white"/>
        <path d="M31.1875 2.38574H29.25V4.77001H31.1875V2.38574Z" fill="white"/>
        <path d="M31.1875 4.76855H29.25V7.15388H31.1875V4.76855Z" fill="white"/>
        <path d="M31.1875 7.15332H29.25V9.53759H31.1875V7.15332Z" fill="white"/>
        <path d="M31.1875 9.53711H29.25V11.9224H31.1875V9.53711Z" fill="white"/>
        <path d="M31.1875 11.9229H29.25V14.3071H31.1875V11.9229Z" fill="white"/>
        <path d="M31.1875 14.3069H29.25V16.6912H31.1875V14.3069Z" fill="white"/>
        <path d="M33.1277 2.38574H31.1895V4.77001H33.1277V2.38574Z" fill="white"/>
        <path d="M33.1277 4.76855H31.1895V7.15388H33.1277V4.76855Z" fill="white"/>
        <path d="M33.1277 7.15332H31.1895V9.53759H33.1277V7.15332Z" fill="white"/>
        <path d="M33.1277 9.53711H31.1895V11.9224H33.1277V9.53711Z" fill="white"/>
        <path d="M33.1277 11.9229H31.1895V14.3071H33.1277V11.9229Z" fill="white"/>
        <path d="M35.0625 4.76855H33.125V7.15388H35.0625V4.76855Z" fill="white"/>
        <path d="M35.0625 7.15332H33.125V9.53759H35.0625V7.15332Z" fill="white"/>
        <path d="M35.0625 9.53711H33.125V11.9224H35.0625V9.53711Z" fill="white"/>
        <path d="M37 7.15332H35.0625V9.53759H37V7.15332Z" fill="white"/>
    </g>
    <defs>
        <filter id="filter0_ddd_1_19577" x="0" y="0" width="43" height="43" filterUnits="userSpaceOnUse" color-interpolation-filters="sRGB">
            <feFlood flood-opacity="0" result="BackgroundImageFix"/>
            <feColorMatrix in="SourceAlpha" type="matrix" values="0 0 0 0 0 0 0 0 0 0 0 0 0 0 0 0 0 0 127 0" result="hardAlpha"/>
            <feOffset dy="4"/>
            <feGaussianBlur stdDeviation="2"/>
            <feComposite in2="hardAlpha" operator="out"/>
            <feColorMatrix type="matrix" values="0 0 0 0 0 0 0 0 0 0 0 0 0 0 0 0 0 0 1 0"/>
            <feBlend mode="normal" in2="BackgroundImageFix" result="effect1_dropShadow_1_19577"/>
            <feColorMatrix in="SourceAlpha" type="matrix" values="0 0 0 0 0 0 0 0 0 0 0 0 0 0 0 0 0 0 127 0" result="hardAlpha"/>
            <feOffset dy="4"/>
            <feGaussianBlur stdDeviation="2"/>
            <feComposite in2="hardAlpha" operator="out"/>
            <feColorMatrix type="matrix" values="0 0 0 0 0 0 0 0 0 0 0 0 0 0 0 0 0 0 0.25 0"/>
            <feBlend mode="normal" in2="effect1_dropShadow_1_19577" result="effect2_dropShadow_1_19577"/>
            <feColorMatrix in="SourceAlpha" type="matrix" values="0 0 0 0 0 0 0 0 0 0 0 0 0 0 0 0 0 0 127 0" result="hardAlpha"/>
            <feOffset dy="6"/>
            <feGaussianBlur stdDeviation="3"/>
            <feComposite in2="hardAlpha" operator="out"/>
            <feColorMatrix type="matrix" values="0 0 0 0 0 0 0 0 0 0 0 0 0 0 0 0 0 0 0.25 0"/>
            <feBlend mode="normal" in2="effect2_dropShadow_1_19577" result="effect3_dropShadow_1_19577"/>
            <feBlend mode="normal" in="SourceGraphic" in2="effect3_dropShadow_1_19577" result="shape"/>
        </filter>
    </defs>
</svg>
