<svg width="17" height="21" viewBox="0 0 17 21" fill="none" xmlns="http://www.w3.org/2000/svg">
<g filter="url(#filter0_d_3416_282675)">
<mask id="path-1-outside-1_3416_282675" maskUnits="userSpaceOnUse" x="4" y="7" width="9" height="9" fill="black">
<rect fill="white" x="4" y="7" width="9" height="9"/>
<path d="M6.79656 13.68L5.78856 12.808C6.04456 12.5093 6.31923 12.208 6.61256 11.904C6.9059 11.5947 7.20723 11.288 7.51656 10.984C7.14323 10.6587 6.7939 10.368 6.46856 10.112C6.14856 9.85067 5.90056 9.66667 5.72456 9.56L6.52456 8.504C6.81256 8.712 7.12456 8.94933 7.46056 9.216C7.79656 9.48267 8.13523 9.76533 8.47656 10.064C8.79123 9.776 9.10056 9.496 9.40456 9.224C9.70856 8.94667 9.99923 8.68533 10.2766 8.44L11.2046 9.4C11.0339 9.52267 10.7912 9.72533 10.4766 10.008C10.1619 10.2853 9.82056 10.5947 9.45256 10.936C9.80456 11.256 10.1352 11.5733 10.4446 11.888C10.7592 12.1973 11.0366 12.4853 11.2766 12.752L10.3006 13.64C10.2046 13.5227 10.0659 13.3707 9.88456 13.184C9.70323 12.9973 9.49256 12.7893 9.25256 12.56C9.0179 12.3307 8.76723 12.096 8.50056 11.856C8.24456 12.1067 8.0019 12.3493 7.77256 12.584C7.54856 12.8187 7.35123 13.0293 7.18056 13.216C7.0099 13.408 6.8819 13.5627 6.79656 13.68Z"/>
</mask>
<path d="M6.79656 13.68L6.14232 14.4363L6.96527 15.1482L7.6053 14.2682L6.79656 13.68ZM5.78856 12.808L5.02931 12.1572L4.38147 12.913L5.13432 13.5643L5.78856 12.808ZM6.61256 11.904L7.33221 12.5984L7.33819 12.5921L6.61256 11.904ZM7.51656 10.984L8.21749 11.6972L8.98809 10.9399L8.17354 10.2301L7.51656 10.984ZM6.46856 10.112L5.83603 10.8865L5.84305 10.8923L5.85017 10.8979L6.46856 10.112ZM5.72456 9.56L4.92747 8.95614L4.25766 9.84029L5.20626 10.4152L5.72456 9.56ZM6.52456 8.504L7.11005 7.69332L6.31769 7.12106L5.72747 7.90014L6.52456 8.504ZM7.46056 9.216L8.08222 8.43271L8.08222 8.43271L7.46056 9.216ZM8.47656 10.064L7.81806 10.8166L8.49156 11.4059L9.15172 10.8017L8.47656 10.064ZM9.40456 9.224L10.0714 9.96928L10.0785 9.96277L9.40456 9.224ZM10.2766 8.44L10.9956 7.74498L10.3306 7.05709L9.61399 7.691L10.2766 8.44ZM11.2046 9.4L11.7882 10.212L12.7276 9.53679L11.9236 8.70498L11.2046 9.4ZM10.4766 10.008L11.1378 10.7582L11.1448 10.7519L10.4766 10.008ZM9.45256 10.936L8.77252 10.2028L7.97409 10.9434L8.77989 11.6759L9.45256 10.936ZM10.4446 11.888L9.73144 12.589L9.73743 12.5951L9.74353 12.6011L10.4446 11.888ZM11.2766 12.752L11.9495 13.4917L12.6852 12.8223L12.0199 12.083L11.2766 12.752ZM10.3006 13.64L9.52661 14.2732L10.194 15.0889L10.9735 14.3797L10.3006 13.64ZM9.88456 13.184L9.16728 13.8808L9.16728 13.8808L9.88456 13.184ZM9.25256 12.56L8.55359 13.2752L8.5617 13.283L9.25256 12.56ZM8.50056 11.856L9.16953 11.1127L8.47172 10.4847L7.80094 11.1415L8.50056 11.856ZM7.77256 12.584L7.05733 11.885L7.04921 11.8935L7.77256 12.584ZM7.18056 13.216L6.44246 12.5412L6.43315 12.5516L7.18056 13.216ZM7.45081 12.9237L6.44281 12.0517L5.13432 13.5643L6.14232 14.4363L7.45081 12.9237ZM6.54782 13.4588C6.79014 13.1761 7.0515 12.8893 7.33218 12.5984L5.89294 11.2096C5.58696 11.5267 5.29898 11.8426 5.02931 12.1572L6.54782 13.4588ZM7.33819 12.5921C7.6233 12.2914 7.91639 11.9931 8.21749 11.6972L6.81563 10.2708C6.49807 10.5829 6.18849 10.8979 5.88694 11.2159L7.33819 12.5921ZM8.17354 10.2301C7.78997 9.89583 7.42766 9.59422 7.08695 9.32613L5.85017 10.8979C6.16014 11.1418 6.49649 11.4215 6.85958 11.7379L8.17354 10.2301ZM7.1011 9.33747C6.77332 9.06978 6.48112 8.8492 6.24286 8.7048L5.20626 10.4152C5.32001 10.4841 5.5238 10.6315 5.83603 10.8865L7.1011 9.33747ZM6.52165 10.1639L7.32165 9.10786L5.72747 7.90014L4.92747 8.95614L6.52165 10.1639ZM5.93907 9.31468C6.21261 9.51224 6.51242 9.74017 6.8389 9.99929L8.08222 8.43271C7.73671 8.15849 7.41251 7.91176 7.11005 7.69332L5.93907 9.31468ZM6.8389 9.99929C7.16169 10.2555 7.48808 10.5278 7.81806 10.8166L9.13507 9.31142C8.78238 9.00282 8.43144 8.70987 8.08222 8.43271L6.8389 9.99929ZM9.15172 10.8017C9.46374 10.5161 9.77028 10.2386 10.0714 9.96924L8.73777 8.47876C8.43084 8.75338 8.11872 9.0359 7.8014 9.32633L9.15172 10.8017ZM10.0785 9.96277C10.3792 9.6885 10.666 9.4306 10.9391 9.189L9.61399 7.691C9.33244 7.94006 9.03796 8.20483 8.7306 8.48523L10.0785 9.96277ZM9.55757 9.13502L10.4856 10.095L11.9236 8.70498L10.9956 7.74498L9.55757 9.13502ZM10.6209 8.58798C10.4043 8.74365 10.1287 8.97625 9.80829 9.26408L11.1448 10.7519C11.4537 10.4744 11.6634 10.3017 11.7882 10.212L10.6209 8.58798ZM9.81536 9.25779C9.49326 9.54168 9.14557 9.85681 8.77252 10.2028L10.1326 11.6692C10.4956 11.3325 10.8305 11.029 11.1378 10.7582L9.81536 9.25779ZM8.77989 11.6759C9.11911 11.9843 9.43619 12.2887 9.73144 12.589L11.1577 11.187C10.8343 10.858 10.49 10.5277 10.1252 10.1961L8.77989 11.6759ZM9.74353 12.6011C10.0468 12.8993 10.3096 13.1724 10.5333 13.421L12.0199 12.083C11.7636 11.7983 11.4716 11.4954 11.1456 11.1749L9.74353 12.6011ZM10.6036 12.0123L9.62759 12.9003L10.9735 14.3797L11.9495 13.4917L10.6036 12.0123ZM11.0745 13.0068C10.9523 12.8574 10.7911 12.6821 10.6018 12.4872L9.16728 13.8808C9.34066 14.0593 9.45683 14.188 9.52661 14.2732L11.0745 13.0068ZM10.6018 12.4872C10.4099 12.2896 10.1901 12.0727 9.94342 11.837L8.5617 13.283C8.79504 13.506 8.99656 13.705 9.16728 13.8808L10.6018 12.4872ZM9.9515 11.8448C9.70618 11.6051 9.44545 11.361 9.16953 11.1127L7.8316 12.5993C8.08901 12.831 8.32961 13.0563 8.55363 13.2752L9.9515 11.8448ZM7.80094 11.1415C7.54016 11.3968 7.29228 11.6447 7.05738 11.8851L8.48775 13.2829C8.71151 13.054 8.94896 12.8165 9.20019 12.5705L7.80094 11.1415ZM7.04921 11.8935C6.82156 12.132 6.61916 12.348 6.44253 12.5412L7.91859 13.8908C8.0833 13.7106 8.27556 13.5053 8.49592 13.2745L7.04921 11.8935ZM6.43315 12.5516C6.25457 12.7525 6.10155 12.9355 5.98783 13.0918L7.6053 14.2682C7.66224 14.1899 7.76522 14.0635 7.92797 13.8804L6.43315 12.5516Z" fill="#E5C46B" mask="url(#path-1-outside-1_3416_282675)"/>
</g>
<defs>
<filter id="filter0_d_3416_282675" x="-4" y="-3" width="25" height="28" filterUnits="userSpaceOnUse" color-interpolation-filters="sRGB">
<feFlood flood-opacity="0" result="BackgroundImageFix"/>
<feColorMatrix in="SourceAlpha" type="matrix" values="0 0 0 0 0 0 0 0 0 0 0 0 0 0 0 0 0 0 127 0" result="hardAlpha"/>
<feOffset/>
<feGaussianBlur stdDeviation="2"/>
<feComposite in2="hardAlpha" operator="out"/>
<feColorMatrix type="matrix" values="0 0 0 0 0.898039 0 0 0 0 0.768627 0 0 0 0 0.419608 0 0 0 0.01 0"/>
<feBlend mode="normal" in2="BackgroundImageFix" result="effect1_dropShadow_3416_282675"/>
<feBlend mode="normal" in="SourceGraphic" in2="effect1_dropShadow_3416_282675" result="shape"/>
</filter>
</defs>
</svg>
