<svg width="20" height="16" viewBox="0 0 20 16" fill="none" xmlns="http://www.w3.org/2000/svg">
<path d="M19.7071 8.99617C20.0976 8.60564 20.0976 7.97248 19.7071 7.58196L13.3431 1.21799C12.9526 0.82747 12.3195 0.82747 11.9289 1.21799C11.5384 1.60852 11.5384 2.24168 11.9289 2.63221L17.5858 8.28906L11.9289 13.9459C11.5384 14.3364 11.5384 14.9696 11.9289 15.3601C12.3195 15.7507 12.9526 15.7507 13.3431 15.3601L19.7071 8.99617ZM1 8.28906V9.28906H19V8.28906V7.28906H1V8.28906Z" fill="black"/>
<path d="M12.6172 2V14.3954" stroke="black" stroke-width="2" stroke-linecap="round"/>
<path d="M14.0794 11.953C14.5063 11.1835 15.153 9.01942 14.9862 8.1297C14.9557 7.96727 14.9752 7.8395 14.9119 7.73848C14.775 7.52022 14.4174 7.43001 14.1306 7.25764C13.9598 6.50589 14.1634 5.61368 14.1695 4.91105C14.0913 4.79558 13.9263 4.7942 13.7529 4.88327" stroke="black" stroke-width="2" stroke-linecap="round"/>
<path d="M13.7534 5.02869C14.1682 5.46385 15.3278 6.58598 15.9508 6.96501C16.1974 7.11505 16.4523 7.37858 16.6995 7.70972C17.109 8.25817 16.8599 9.20189 16.6253 9.80445C16.564 9.96172 16.4129 10.0805 16.1412 10.1117C15.4563 10.1905 14.6463 9.82887 14.0304 9.49264C13.3372 9.11426 13.5149 8.44839 13.5241 8.52919C13.551 8.76749 13.5515 9.41178 13.5288 9.6251C13.5062 9.83842 13.4421 9.60263 13.4063 9.28999C13.3706 8.97734 13.3651 8.595 13.3594 8.20107" stroke="black" stroke-width="2" stroke-linecap="round"/>
</svg>
