<svg width="38" height="38" viewBox="0 0 38 38" fill="none" xmlns="http://www.w3.org/2000/svg">
    <g filter="url(#filter0_ddd_1_320839)">
        <path d="M34 15C34 23.2856 27.2856 30 19 30C10.7144 30 4 23.2856 4 15C4 11.9838 4.89105 9.17466 6.42476 6.82284C6.4425 6.83861 6.46024 6.85241 6.47996 6.86424C7.36115 7.4655 8.51242 7.44185 9.22802 7.34722C8.92837 6.36943 8.31134 5.62426 7.72782 5.1058C7.81062 5.0092 7.89538 4.91655 7.98212 4.82389C8.05703 4.87318 8.13195 4.9264 8.20291 4.97963C8.27388 5.03286 8.34288 5.08608 8.40991 5.14325C8.47299 5.19451 8.5341 5.24773 8.59127 5.30096C8.6583 5.36207 8.72138 5.42121 8.78052 5.48232C8.83572 5.53752 8.88894 5.59272 8.93823 5.64792C9.18465 5.91602 9.37981 6.18018 9.52372 6.39703C9.56315 6.45617 9.59863 6.51137 9.63017 6.56262C9.74648 6.75187 9.81548 6.8879 9.83519 6.9293C9.83716 6.93127 9.83716 6.93324 9.83913 6.93521C9.82731 6.86818 9.80759 6.78933 9.78196 6.70259C9.77211 6.66119 9.75831 6.61585 9.74451 6.56854C9.73662 6.54291 9.73071 6.51728 9.72085 6.49166C9.71297 6.46605 9.70508 6.44042 9.6972 6.41477C9.68143 6.36352 9.66368 6.31029 9.64397 6.25509C9.61834 6.17427 9.5868 6.09147 9.55329 6.00473C9.53358 5.95742 9.51583 5.91011 9.49415 5.86082C9.49021 5.84899 9.48429 5.8352 9.47838 5.82337C9.46458 5.7938 9.45275 5.76226 9.43895 5.73269C9.41135 5.67157 9.38375 5.61046 9.35418 5.54935C9.28716 5.41333 9.21422 5.27336 9.13142 5.13537C9.06637 5.02694 8.9954 4.91852 8.92049 4.81404C8.92049 4.81207 8.91851 4.81009 8.91851 4.81009C8.88106 4.75884 8.8436 4.71153 8.80615 4.66224C8.80418 4.66027 8.8022 4.65633 8.80023 4.65436C8.78446 4.63661 8.77066 4.61885 8.75686 4.60113C8.71941 4.55579 8.67998 4.51045 8.64055 4.46708C8.6169 4.43948 8.5893 4.41188 8.56367 4.38625C8.53804 4.35865 8.51045 4.33106 8.48482 4.30543C10.2216 2.59627 12.3743 1.307 14.7774 0.605204C12.5892 1.30109 10.671 3.07728 10.2985 7.03575C8.1556 9.21803 6.83086 12.2066 6.83086 15.5007C6.83086 22.1659 12.254 27.589 18.9192 27.589C25.5843 27.589 31.0094 22.1659 31.0094 15.5007C31.0094 9.61033 26.777 4.69576 21.1941 3.62728L21.0463 3.6056C20.8747 3.87765 20.7427 4.4178 20.7427 4.4178C26.0712 5.29307 30.1519 9.92772 30.1519 15.5007C30.1519 21.5449 25.3517 26.4871 19.3647 26.7216V23.5557L19.8536 23.3585V21.8031L21.8821 20.4725C22.0398 20.37 22.1345 20.1925 22.1345 20.0033V16.4075C22.1345 16.2341 22.2153 16.0704 22.3513 15.964L22.7456 15.6604C22.8816 15.554 22.9624 15.3903 22.9624 15.2188V14.1858C22.9624 13.8763 22.7121 13.624 22.4025 13.624H21.547V9.78182C21.547 9.47234 21.2966 9.22196 20.9871 9.22196C20.6776 9.22196 20.4272 9.47232 20.4272 9.78182V13.624H17.4111V9.78182C17.4111 9.47234 17.1607 9.22196 16.8512 9.22196C16.5417 9.22196 16.2913 9.47232 16.2913 9.78182V13.624H15.4377C15.1282 13.624 14.8779 13.8763 14.8779 14.1858V15.2188C14.8779 15.3903 14.9567 15.554 15.0947 15.6604L15.487 15.964C15.625 16.0704 15.7039 16.2341 15.7039 16.4075V20.0033C15.7039 20.1925 15.7985 20.37 15.9582 20.4725L17.9847 21.8031V23.3585L18.4736 23.5557V26.7216C12.4866 26.4871 7.68837 21.5449 7.68837 15.5007C7.68837 12.4964 8.87512 9.76804 10.8031 7.74938C10.8721 7.65081 13.5452 4.85741 16.8039 3.83822C16.8039 3.83822 13.8449 5.18662 12.1298 8.10028C18.4973 10.4186 19.9246 4.14378 20.2479 3.09896C20.7998 1.32475 22.1719 1.01525 22.1719 1.01525C22.1719 1.01525 18.6806 -0.275989 15.4752 0.417926C16.6048 0.143909 17.7856 0 19 0C27.2855 0 34 6.71639 34 15Z" fill="#B39B58"/>
        <path d="M9.84086 6.93925L8.78027 5.48242C8.83547 5.53762 8.8887 5.59282 8.93798 5.64802C9.1844 5.91612 9.37956 6.18028 9.52347 6.39713C9.5629 6.45627 9.59838 6.51147 9.62992 6.56272C9.74623 6.75197 9.81523 6.88799 9.83495 6.92939C9.83692 6.93136 9.83692 6.93334 9.83889 6.93531C9.83889 6.93728 9.84086 6.93728 9.84086 6.93925Z" fill="#B39B58"/>
        <path d="M9.83544 6.92933L8.93848 5.64795C9.1849 5.91605 9.38006 6.18021 9.52397 6.39706C9.56339 6.4562 9.59888 6.5114 9.63042 6.56266C9.74673 6.7519 9.81573 6.88793 9.83544 6.92933Z" fill="#B39B58"/>
        <path d="M18.3475 20.3383L19.0316 18.0259H17.4131L18.3534 15.5933H19.7472L18.9172 17.2039H20.4214L18.3475 20.3383Z" fill="#B39B58"/>
        <path d="M14.7773 0.605192C14.9981 0.538166 15.2229 0.477055 15.4496 0.423828C15.2229 0.473112 14.9981 0.532252 14.7773 0.605192Z" fill="#B39B58"/>
        <path d="M8.32487 4.16143C8.38007 4.20874 8.4333 4.25802 8.48455 4.30534C8.31107 4.4729 8.14351 4.64638 7.98186 4.8238C7.53633 4.53007 7.00801 4.29351 6.39689 4.19297C6.39689 4.19297 7.03758 4.49064 7.72755 5.1057C7.25246 5.64388 6.81679 6.21755 6.42449 6.82275C5.11552 5.88242 5.58862 4.39602 4.45117 3.39654C4.45117 3.39654 7.07701 3.09493 8.32487 4.16143Z" fill="#B39B58"/>
        <path d="M9.83494 6.92939L8.78027 5.48242C8.83547 5.53762 8.8887 5.59282 8.93798 5.64802C9.1844 5.91612 9.37956 6.18028 9.52347 6.39713C9.5629 6.45627 9.59838 6.51147 9.62992 6.56272C9.74623 6.75197 9.81523 6.88799 9.83494 6.92939Z" fill="#B39B58"/>
        <path d="M9.83446 6.92933L8.9375 5.64795C9.18392 5.91605 9.37908 6.18021 9.52299 6.39706C9.56242 6.4562 9.5979 6.5114 9.62944 6.56266C9.74575 6.75191 9.81475 6.88793 9.83446 6.92933Z" fill="#B39B58"/>
    </g>
    <defs>
        <filter id="filter0_ddd_1_320839" x="0" y="0" width="38" height="38" filterUnits="userSpaceOnUse" color-interpolation-filters="sRGB">
            <feFlood flood-opacity="0" result="BackgroundImageFix"/>
            <feColorMatrix in="SourceAlpha" type="matrix" values="0 0 0 0 0 0 0 0 0 0 0 0 0 0 0 0 0 0 127 0" result="hardAlpha"/>
            <feOffset dy="4"/>
            <feGaussianBlur stdDeviation="2"/>
            <feComposite in2="hardAlpha" operator="out"/>
            <feColorMatrix type="matrix" values="0 0 0 0 0 0 0 0 0 0 0 0 0 0 0 0 0 0 1 0"/>
            <feBlend mode="normal" in2="BackgroundImageFix" result="effect1_dropShadow_1_320839"/>
            <feColorMatrix in="SourceAlpha" type="matrix" values="0 0 0 0 0 0 0 0 0 0 0 0 0 0 0 0 0 0 127 0" result="hardAlpha"/>
            <feOffset dy="4"/>
            <feGaussianBlur stdDeviation="2"/>
            <feComposite in2="hardAlpha" operator="out"/>
            <feColorMatrix type="matrix" values="0 0 0 0 0 0 0 0 0 0 0 0 0 0 0 0 0 0 0.25 0"/>
            <feBlend mode="normal" in2="effect1_dropShadow_1_320839" result="effect2_dropShadow_1_320839"/>
            <feColorMatrix in="SourceAlpha" type="matrix" values="0 0 0 0 0 0 0 0 0 0 0 0 0 0 0 0 0 0 127 0" result="hardAlpha"/>
            <feOffset dy="4"/>
            <feGaussianBlur stdDeviation="2"/>
            <feComposite in2="hardAlpha" operator="out"/>
            <feColorMatrix type="matrix" values="0 0 0 0 0 0 0 0 0 0 0 0 0 0 0 0 0 0 0.25 0"/>
            <feBlend mode="normal" in2="effect2_dropShadow_1_320839" result="effect3_dropShadow_1_320839"/>
            <feBlend mode="normal" in="SourceGraphic" in2="effect3_dropShadow_1_320839" result="shape"/>
        </filter>
    </defs>
</svg>
