<svg width="60" height="60" viewBox="0 0 60 60" fill="none" xmlns="http://www.w3.org/2000/svg">
<g clip-path="url(#clip0_8687_360043)">
<g filter="url(#filter0_ddd_8687_360043)">
<circle cx="30" cy="30" r="24" fill="url(#paint0_linear_8687_360043)"/>
<circle cx="30" cy="30" r="23.5" stroke="url(#paint1_linear_8687_360043)"/>
</g>
<path d="M24.3556 44C24.3556 44 24.3557 43.8823 24.3559 43.647L24.3565 42.8235L24.3572 42.0049L24.3574 41.647C24.3574 41.647 24.3575 41.5294 24.3577 41.2941L24.3584 40.4706L24.359 39.652L24.3593 39.2941C24.3593 39.2941 24.3594 39.1765 24.3596 38.9412L24.3602 38.1176L24.3609 37.299L24.3612 36.9412C24.3612 36.9412 24.3613 36.8235 24.3614 36.5882L24.3621 35.7647L24.3627 34.9461L24.363 34.5882C24.363 34.5882 24.3631 34.4706 24.3633 34.2353L24.3639 33.4118L24.3646 32.5931L24.3649 32.2353C24.3649 32.2353 24.365 32.1176 24.3652 31.8823L24.3658 31.0588L24.3664 30.2402L24.3667 29.8823C24.3667 29.8823 24.3668 29.7647 24.367 29.5294L24.3677 28.7059L24.3683 27.8872L24.3686 27.5294C24.3686 27.5294 24.3687 27.4118 24.3689 27.1765L24.3695 26.3529L24.3702 25.5343L24.3704 25.1765H24.7234H25.5469H26.3655H26.7234C26.7234 25.1765 26.7233 25.2957 26.7231 25.5343L26.7225 26.3529L26.7218 27.1765L26.7215 27.5294C26.7215 27.5294 26.6022 27.5294 26.3637 27.5294H26.7215C26.7215 27.5294 26.7214 27.6487 26.7212 27.8872L26.7206 28.7059L26.72 29.5294L26.7197 29.8823C26.7197 29.8823 26.6004 29.8823 26.3618 29.8823H26.7197C26.7197 29.8823 26.7196 30.0016 26.7194 30.2402L26.7187 31.0588L26.7181 31.8823L26.7178 32.2353C26.7178 32.2353 26.5985 32.2353 26.36 32.2353H26.7178C26.7178 32.2353 26.7177 32.3546 26.7175 32.5931L26.7169 33.4118L26.7162 34.2353L26.716 34.5882C26.716 34.5882 26.5967 34.5882 26.3581 34.5882H26.716C26.716 34.5882 26.7159 34.7075 26.7157 34.9461L26.716 34.5882H27.0689H27.8924H28.7111H29.0689C29.0689 34.5882 29.0688 34.7075 29.0686 34.9461L29.0689 34.5882H29.4218H30.2454H31.064H31.4218C31.4218 34.5882 31.4217 34.7075 31.4216 34.9461L31.4218 34.5882H31.7748H32.5983H33.4169H33.7748C33.7748 34.5882 33.7747 34.7075 33.7745 34.9461L33.7748 34.5882C33.7748 34.5882 33.7749 34.4706 33.7751 34.2353L33.7757 33.4118L33.7764 32.5931L33.7766 32.2353C33.7766 32.2353 33.7767 32.1176 33.7769 31.8823L33.7776 31.0588L33.7782 30.2402L33.7785 29.8823C33.7785 29.8823 33.7786 29.7647 33.7788 29.5294L33.7794 28.7059L33.7801 27.8872L33.7804 27.5294C33.7804 27.5294 33.7804 27.4118 33.7806 27.1765L33.7813 26.3529L33.7819 25.5343L33.7822 25.1765H34.1352H34.9587H35.7773H36.1352C36.1352 25.1765 36.1351 25.2957 36.1349 25.5343L36.1342 26.3529L36.1336 27.1765L36.1333 27.5294C36.1333 27.5294 36.014 27.5294 35.7755 27.5294H36.1333C36.1333 27.5294 36.1332 27.6487 36.133 27.8872L36.1324 28.7059L36.1317 29.5294L36.1314 29.8823C36.1314 29.8823 36.0122 29.8823 35.7736 29.8823H36.1314C36.1314 29.8823 36.1313 30.0016 36.1312 30.2402L36.1305 31.0588L36.1299 31.8823L36.1296 32.2353C36.1296 32.2353 36.0103 32.2353 35.7717 32.2353H36.1296C36.1296 32.2353 36.1295 32.3546 36.1293 32.5931L36.1287 33.4118L36.128 34.2353L36.1277 34.5882C36.1277 34.5882 36.0084 34.5882 35.7699 34.5882H36.1277C36.1277 34.5882 36.1276 34.7075 36.1274 34.9461L36.1268 35.7647L36.1261 36.5882L36.1259 36.9412C36.1259 36.9412 36.0066 36.9412 35.768 36.9412H36.1259C36.1259 36.9412 36.1258 37.0604 36.1256 37.299L36.1249 38.1176L36.1243 38.9412L36.124 39.2941C36.124 39.2941 36.0047 39.2941 35.7662 39.2941H36.124C36.124 39.2941 36.1239 39.4134 36.1237 39.652L36.1231 40.4706L36.1224 41.2941L36.1221 41.647C36.1221 41.647 36.0029 41.647 35.7643 41.647H36.1221C36.1221 41.647 36.1221 41.7663 36.1219 42.0049L36.1212 42.8235L36.1206 43.647L36.1203 44C36.1203 44 36.001 44 35.7624 44H34.9438H34.1203H33.7674C33.7674 44 33.7674 43.8823 33.7676 43.647L33.7683 42.8235L33.7689 42.0049L33.7692 41.647C33.7692 41.647 33.7693 41.5294 33.7695 41.2941L33.7701 40.4706L33.7708 39.652L33.7711 39.2941C33.7711 39.2941 33.7712 39.1765 33.7713 38.9412L33.772 38.1176L33.7726 37.299L33.7729 36.9412C33.7729 36.9412 33.773 36.8235 33.7732 36.5882L33.7729 36.9412C33.7729 36.9412 33.6536 36.9412 33.4151 36.9412H32.5965H31.7729H31.42C31.42 36.9412 31.4201 36.8235 31.4203 36.5882L31.42 36.9412C31.42 36.9412 31.3007 36.9412 31.0621 36.9412H30.2435H29.42H29.067C29.067 36.9412 29.0671 36.8235 29.0673 36.5882L29.067 36.9412C29.067 36.9412 28.9478 36.9412 28.7092 36.9412H27.8906H27.067H26.7141C26.7141 36.9412 26.7142 36.8235 26.7144 36.5882L26.7141 36.9412C26.7141 36.9412 26.5948 36.9412 26.3563 36.9412H26.7141C26.7141 36.9412 26.714 37.0604 26.7138 37.299L26.7132 38.1176L26.7125 38.9412L26.7122 39.2941C26.7122 39.2941 26.593 39.2941 26.3544 39.2941H26.7122C26.7122 39.2941 26.7121 39.4134 26.712 39.652L26.7113 40.4706L26.7107 41.2941L26.7104 41.647C26.7104 41.647 26.5911 41.647 26.3525 41.647H26.7104C26.7104 41.647 26.7103 41.7663 26.7101 42.0049L26.7095 42.8235L26.7088 43.647L26.7085 44C26.7085 44 26.5892 44 26.3507 44H25.5321H24.7085H24.3556ZM25.5469 25.1765C25.5469 25.1765 25.547 25.0588 25.5472 24.8235L25.5478 24L25.5485 23.1814L25.5488 22.8235H25.9017H26.7252H27.5439H27.9017C27.9017 22.8235 27.9016 22.9428 27.9014 23.1814L27.9008 24L27.9001 24.8235L27.8999 25.1765C27.8999 25.1765 27.7806 25.1765 27.542 25.1765H26.7234H25.8999H25.5469ZM32.6057 25.1765C32.6057 25.1765 32.6058 25.0588 32.606 24.8235L32.6067 24L32.6073 23.1814L32.6076 22.8235H32.9605H33.7841H34.6027H34.9605C34.9605 22.8235 34.9604 22.9428 34.9603 23.1814L34.9596 24L34.959 24.8235L34.9587 25.1765C34.9587 25.1765 34.8394 25.1765 34.6008 25.1765H33.7822H32.9587H32.6057ZM26.7252 22.8235C26.7252 22.8235 26.7253 22.7059 26.7255 22.4706L26.7262 21.6471L26.7268 20.8284L26.7271 20.4706H27.08H27.9036H28.7222H29.08C29.08 20.4706 29.0799 20.5899 29.0798 20.8284L29.0791 21.6471L29.0785 22.4706L29.0782 22.8235C29.0782 22.8235 28.9589 22.8235 28.7203 22.8235H27.9017H27.0782H26.7252ZM31.4311 22.8235C31.4311 22.8235 31.4312 22.7059 31.4314 22.4706L31.4321 21.6471L31.4327 20.8284L31.433 20.4706H31.7859H32.6095H33.4281H33.7859C33.7859 20.4706 33.7858 20.5899 33.7856 20.8284L33.785 21.6471L33.7843 22.4706L33.7841 22.8235C33.7841 22.8235 33.6648 22.8235 33.4262 22.8235H32.6076H31.7841H31.4311ZM27.9036 20.4706C27.9036 20.4706 27.9037 20.3529 27.9039 20.1176L27.9045 19.2941L27.9051 18.4755L27.9054 18.1176H28.2584H29.0819H29.9005H30.2584C30.2584 18.1176 30.2583 18.2369 30.2581 18.4755L30.2584 18.1176H30.6113H31.4348H32.2535H32.6113C32.6113 18.1176 32.6112 18.2369 32.611 18.4755L32.6104 19.2941L32.6097 20.1176L32.6095 20.4706C32.6095 20.4706 32.4902 20.4706 32.2516 20.4706H31.433H30.6095H30.2565C30.2565 20.4706 30.2566 20.3529 30.2568 20.1176L30.2565 20.4706C30.2565 20.4706 30.1372 20.4706 29.8987 20.4706H29.08H28.2565H27.9036Z" fill="#B20001" fill-opacity="0.16"/>
</g>
<defs>
<filter id="filter0_ddd_8687_360043" x="2" y="6" width="56" height="56" filterUnits="userSpaceOnUse" color-interpolation-filters="sRGB">
<feFlood flood-opacity="0" result="BackgroundImageFix"/>
<feColorMatrix in="SourceAlpha" type="matrix" values="0 0 0 0 0 0 0 0 0 0 0 0 0 0 0 0 0 0 127 0" result="hardAlpha"/>
<feOffset dy="4"/>
<feGaussianBlur stdDeviation="2"/>
<feComposite in2="hardAlpha" operator="out"/>
<feColorMatrix type="matrix" values="0 0 0 0 0 0 0 0 0 0 0 0 0 0 0 0 0 0 0.25 0"/>
<feBlend mode="normal" in2="BackgroundImageFix" result="effect1_dropShadow_8687_360043"/>
<feColorMatrix in="SourceAlpha" type="matrix" values="0 0 0 0 0 0 0 0 0 0 0 0 0 0 0 0 0 0 127 0" result="hardAlpha"/>
<feOffset dy="4"/>
<feGaussianBlur stdDeviation="2"/>
<feComposite in2="hardAlpha" operator="out"/>
<feColorMatrix type="matrix" values="0 0 0 0 0 0 0 0 0 0 0 0 0 0 0 0 0 0 0.25 0"/>
<feBlend mode="normal" in2="effect1_dropShadow_8687_360043" result="effect2_dropShadow_8687_360043"/>
<feColorMatrix in="SourceAlpha" type="matrix" values="0 0 0 0 0 0 0 0 0 0 0 0 0 0 0 0 0 0 127 0" result="hardAlpha"/>
<feOffset dy="4"/>
<feGaussianBlur stdDeviation="2"/>
<feComposite in2="hardAlpha" operator="out"/>
<feColorMatrix type="matrix" values="0 0 0 0 0 0 0 0 0 0 0 0 0 0 0 0 0 0 0.25 0"/>
<feBlend mode="normal" in2="effect2_dropShadow_8687_360043" result="effect3_dropShadow_8687_360043"/>
<feBlend mode="normal" in="SourceGraphic" in2="effect3_dropShadow_8687_360043" result="shape"/>
</filter>
<linearGradient id="paint0_linear_8687_360043" x1="28" y1="49.5" x2="28.9239" y2="2.57849" gradientUnits="userSpaceOnUse">
<stop stop-color="#4A0707"/>
<stop offset="1" stop-color="#8A1111"/>
</linearGradient>
<linearGradient id="paint1_linear_8687_360043" x1="30" y1="6" x2="30" y2="54" gradientUnits="userSpaceOnUse">
<stop stop-color="#8B3A3A"/>
<stop offset="1"/>
</linearGradient>
<clipPath id="clip0_8687_360043">
<rect width="60" height="60" fill="white"/>
</clipPath>
</defs>
</svg>
