<svg width="70" height="70" viewBox="0 0 70 70" fill="none" xmlns="http://www.w3.org/2000/svg">
<g filter="url(#filter0_ddd_8601_465179)">
<mask id="path-1-inside-1_8601_465179" fill="white">
<path d="M10.0104 59.5079C6.69095 56.1884 6.69095 50.8065 10.0104 47.4871L47.4871 10.0104C50.8065 6.69095 56.1884 6.69095 59.5079 10.0104C62.8273 13.3299 62.8273 18.7118 59.5079 22.0312L22.0312 59.5079C18.7118 62.8273 13.3299 62.8273 10.0104 59.5079Z"/>
</mask>
<path d="M10.0104 59.5079C6.69095 56.1884 6.69095 50.8065 10.0104 47.4871L47.4871 10.0104C50.8065 6.69095 56.1884 6.69095 59.5079 10.0104C62.8273 13.3299 62.8273 18.7118 59.5079 22.0312L22.0312 59.5079C18.7118 62.8273 13.3299 62.8273 10.0104 59.5079Z" fill="url(#paint0_radial_8601_465179)"/>
<path d="M10.0104 59.5079C6.30043 55.7979 6.30043 49.7828 10.0104 46.0729L46.78 9.3033C50.4899 5.59332 56.505 5.59332 60.215 9.3033L58.8008 10.7175C55.8718 7.78858 51.1231 7.78858 48.1942 10.7175L10.7175 48.1942C7.39806 51.5136 7.08148 56.579 10.0104 59.5079ZM60.215 9.3033C63.925 13.0133 63.925 19.0283 60.215 22.7383L23.4454 59.5079C19.7355 63.2179 13.7204 63.2179 10.0104 59.5079C12.9393 62.4368 18.0047 62.1202 21.3241 58.8008L58.8008 21.3241C61.7297 18.3952 61.7297 13.6464 58.8008 10.7175L60.215 9.3033ZM16.0208 65.5183L4 53.4975L16.0208 65.5183ZM46.78 9.3033C50.4899 5.59332 56.505 5.59332 60.215 9.3033C63.925 13.0133 63.925 19.0283 60.215 22.7383L58.8008 21.3241C61.7297 18.3952 61.7297 13.6464 58.8008 10.7175C55.8718 7.78858 51.1231 7.78858 48.1942 10.7175L46.78 9.3033Z" fill="url(#paint1_linear_8601_465179)" mask="url(#path-1-inside-1_8601_465179)"/>
</g>
<defs>
<filter id="filter0_ddd_8601_465179" x="3.52075" y="7.52082" width="62.4768" height="62.4767" filterUnits="userSpaceOnUse" color-interpolation-filters="sRGB">
<feFlood flood-opacity="0" result="BackgroundImageFix"/>
<feColorMatrix in="SourceAlpha" type="matrix" values="0 0 0 0 0 0 0 0 0 0 0 0 0 0 0 0 0 0 127 0" result="hardAlpha"/>
<feOffset dy="4"/>
<feGaussianBlur stdDeviation="2"/>
<feComposite in2="hardAlpha" operator="out"/>
<feColorMatrix type="matrix" values="0 0 0 0 0 0 0 0 0 0 0 0 0 0 0 0 0 0 0.25 0"/>
<feBlend mode="normal" in2="BackgroundImageFix" result="effect1_dropShadow_8601_465179"/>
<feColorMatrix in="SourceAlpha" type="matrix" values="0 0 0 0 0 0 0 0 0 0 0 0 0 0 0 0 0 0 127 0" result="hardAlpha"/>
<feOffset dy="4"/>
<feGaussianBlur stdDeviation="2"/>
<feComposite in2="hardAlpha" operator="out"/>
<feColorMatrix type="matrix" values="0 0 0 0 0 0 0 0 0 0 0 0 0 0 0 0 0 0 0.25 0"/>
<feBlend mode="normal" in2="effect1_dropShadow_8601_465179" result="effect2_dropShadow_8601_465179"/>
<feColorMatrix in="SourceAlpha" type="matrix" values="0 0 0 0 0 0 0 0 0 0 0 0 0 0 0 0 0 0 127 0" result="hardAlpha"/>
<feOffset dy="4"/>
<feGaussianBlur stdDeviation="2"/>
<feComposite in2="hardAlpha" operator="out"/>
<feColorMatrix type="matrix" values="0 0 0 0 0 0 0 0 0 0 0 0 0 0 0 0 0 0 0.25 0"/>
<feBlend mode="normal" in2="effect2_dropShadow_8601_465179" result="effect3_dropShadow_8601_465179"/>
<feBlend mode="normal" in="SourceGraphic" in2="effect3_dropShadow_8601_465179" result="shape"/>
</filter>
<radialGradient id="paint0_radial_8601_465179" cx="0" cy="0" r="1" gradientUnits="userSpaceOnUse" gradientTransform="translate(30 29.9999) rotate(-46.4688) scale(41.3793 21.3454)">
<stop stop-color="#A4A4A4"/>
<stop offset="1" stop-color="#3E3E3E"/>
</radialGradient>
<linearGradient id="paint1_linear_8601_465179" x1="40.7142" y1="40.8249" x2="28.8041" y2="28.6933" gradientUnits="userSpaceOnUse">
<stop/>
<stop offset="1" stop-color="#CAC9C9"/>
</linearGradient>
</defs>
</svg>
