<svg width="60" height="60" viewBox="0 0 60 60" fill="none" xmlns="http://www.w3.org/2000/svg">
<g clip-path="url(#clip0_8686_453310)">
<g filter="url(#filter0_ddd_8686_453310)">
<circle cx="30" cy="30" r="24" fill="url(#paint0_linear_8686_453310)"/>
<circle cx="30" cy="30" r="23.5" stroke="url(#paint1_linear_8686_453310)"/>
</g>
<path d="M24.3556 44C24.3556 44 24.3557 43.8823 24.3559 43.647L24.3565 42.8235L24.3572 42.0049L24.3574 41.647C24.3574 41.647 24.3575 41.5294 24.3577 41.2941L24.3584 40.4706L24.359 39.652L24.3593 39.2941C24.3593 39.2941 24.3594 39.1765 24.3596 38.9412L24.3602 38.1176L24.3609 37.299L24.3612 36.9412C24.3612 36.9412 24.3613 36.8235 24.3614 36.5882L24.3621 35.7647L24.3627 34.9461L24.363 34.5882C24.363 34.5882 24.3631 34.4706 24.3633 34.2353L24.3639 33.4118L24.3646 32.5931L24.3649 32.2353C24.3649 32.2353 24.365 32.1176 24.3652 31.8823L24.3658 31.0588L24.3664 30.2402L24.3667 29.8823C24.3667 29.8823 24.3668 29.7647 24.367 29.5294L24.3677 28.7059L24.3683 27.8872L24.3686 27.5294C24.3686 27.5294 24.3687 27.4118 24.3689 27.1765L24.3695 26.3529L24.3702 25.5343L24.3704 25.1765C24.3704 25.1765 24.3705 25.0588 24.3707 24.8235L24.3714 24L24.372 23.1814L24.3723 22.8235C24.3723 22.8235 24.3724 22.7059 24.3726 22.4706L24.3732 21.6471L24.3739 20.8284L24.3742 20.4706C24.3742 20.4706 24.3743 20.3529 24.3744 20.1176L24.3751 19.2941L24.3757 18.4755L24.376 18.1176H24.729H25.5525H26.3711H26.729C26.729 18.1176 26.7289 18.2369 26.7287 18.4755L26.729 18.1176H27.0819H27.9054H28.7241H29.0819C29.0819 18.1176 29.0818 18.2369 29.0816 18.4755L29.0819 18.1176H29.4348H30.2584H31.077H31.4348C31.4348 18.1176 31.4347 18.2369 31.4346 18.4755L31.4348 18.1176H31.7878H32.6113H33.4299H33.7878C33.7878 18.1176 33.7877 18.2369 33.7875 18.4755L33.7869 19.2941L33.7862 20.1176L33.7859 20.4706C33.7859 20.4706 33.6666 20.4706 33.4281 20.4706H32.6095H31.7859H31.433C31.433 20.4706 31.4331 20.3529 31.4333 20.1176L31.433 20.4706C31.433 20.4706 31.3137 20.4706 31.0751 20.4706H30.2565H29.433H29.08C29.08 20.4706 29.0801 20.3529 29.0803 20.1176L29.08 20.4706C29.08 20.4706 28.9608 20.4706 28.7222 20.4706H27.9036H27.08H26.7271C26.7271 20.4706 26.7272 20.3529 26.7274 20.1176L26.7271 20.4706C26.7271 20.4706 26.6078 20.4706 26.3693 20.4706H26.7271C26.7271 20.4706 26.727 20.5899 26.7268 20.8284L26.7262 21.6471L26.7255 22.4706L26.7252 22.8235C26.7252 22.8235 26.606 22.8235 26.3674 22.8235H26.7252C26.7252 22.8235 26.7251 22.9428 26.725 23.1814L26.7243 24L26.7237 24.8235L26.7234 25.1765C26.7234 25.1765 26.6041 25.1765 26.3655 25.1765H26.7234C26.7234 25.1765 26.7233 25.2957 26.7231 25.5343L26.7225 26.3529L26.7218 27.1765L26.7215 27.5294C26.7215 27.5294 26.6022 27.5294 26.3637 27.5294H26.7215C26.7215 27.5294 26.7214 27.6487 26.7212 27.8872L26.7206 28.7059L26.72 29.5294L26.7197 29.8823C26.7197 29.8823 26.6004 29.8823 26.3618 29.8823H26.7197C26.7197 29.8823 26.7196 30.0016 26.7194 30.2402L26.7197 29.8823H27.0726H27.8961H28.7148H29.0726C29.0726 29.8823 29.0725 30.0016 29.0723 30.2402L29.0726 29.8823H29.4256H30.2491H31.0677H31.4256C31.4256 29.8823 31.4255 30.0016 31.4253 30.2402L31.4256 29.8823H31.7785H32.602H33.4207H33.7785C33.7785 29.8823 33.7784 30.0016 33.7782 30.2402L33.7776 31.0588L33.7769 31.8823L33.7766 32.2353C33.7766 32.2353 33.6574 32.2353 33.4188 32.2353H32.6002H31.7766H31.4237C31.4237 32.2353 31.4238 32.1176 31.424 31.8823L31.4237 32.2353C31.4237 32.2353 31.3044 32.2353 31.0659 32.2353H30.2472H29.4237H29.0708C29.0708 32.2353 29.0708 32.1176 29.071 31.8823L29.0708 32.2353C29.0708 32.2353 28.9515 32.2353 28.7129 32.2353H27.8943H27.0708H26.7178C26.7178 32.2353 26.7179 32.1176 26.7181 31.8823L26.7178 32.2353C26.7178 32.2353 26.5985 32.2353 26.36 32.2353H26.7178C26.7178 32.2353 26.7177 32.3546 26.7175 32.5931L26.7169 33.4118L26.7162 34.2353L26.716 34.5882C26.716 34.5882 26.5967 34.5882 26.3581 34.5882H26.716C26.716 34.5882 26.7159 34.7075 26.7157 34.9461L26.715 35.7647L26.7144 36.5882L26.7141 36.9412C26.7141 36.9412 26.5948 36.9412 26.3563 36.9412H26.7141C26.7141 36.9412 26.714 37.0604 26.7138 37.299L26.7132 38.1176L26.7125 38.9412L26.7122 39.2941C26.7122 39.2941 26.593 39.2941 26.3544 39.2941H26.7122C26.7122 39.2941 26.7121 39.4134 26.712 39.652L26.7113 40.4706L26.7107 41.2941L26.7104 41.647C26.7104 41.647 26.5911 41.647 26.3525 41.647H26.7104C26.7104 41.647 26.7103 41.7663 26.7101 42.0049L26.7104 41.647H27.0633H27.8869H28.7055H29.0633C29.0633 41.647 29.0632 41.7663 29.063 42.0049L29.0633 41.647H29.4163H30.2398H31.0584H31.4163C31.4163 41.647 31.4162 41.7663 31.416 42.0049L31.4163 41.647H31.7692H32.5927H33.4114H33.7692C33.7692 41.647 33.7691 41.7663 33.7689 42.0049L33.7683 42.8235L33.7676 43.647L33.7674 44C33.7674 44 33.6481 44 33.4095 44H32.5909H31.7674H31.4144C31.4144 44 31.4145 43.8823 31.4147 43.647L31.4144 44C31.4144 44 31.2951 44 31.0566 44H30.2379H29.4144H29.0615C29.0615 44 29.0616 43.8823 29.0617 43.647L29.0615 44C29.0615 44 28.9422 44 28.7036 44H27.885H27.0615H26.7085C26.7085 44 26.7086 43.8823 26.7088 43.647L26.7085 44C26.7085 44 26.5892 44 26.3507 44H25.5321H24.7085H24.3556ZM33.7692 41.647C33.7692 41.647 33.7693 41.5294 33.7695 41.2941L33.7701 40.4706L33.7708 39.652L33.7711 39.2941C33.7711 39.2941 33.7712 39.1765 33.7713 38.9412L33.772 38.1176L33.7726 37.299L33.7729 36.9412C33.7729 36.9412 33.773 36.8235 33.7732 36.5882L33.7739 35.7647L33.7745 34.9461L33.7748 34.5882C33.7748 34.5882 33.7749 34.4706 33.7751 34.2353L33.7757 33.4118L33.7764 32.5931L33.7766 32.2353H34.1296H34.9531H35.7717H36.1296C36.1296 32.2353 36.1295 32.3546 36.1293 32.5931L36.1287 33.4118L36.128 34.2353L36.1277 34.5882C36.1277 34.5882 36.0084 34.5882 35.7699 34.5882H36.1277C36.1277 34.5882 36.1276 34.7075 36.1274 34.9461L36.1268 35.7647L36.1261 36.5882L36.1259 36.9412C36.1259 36.9412 36.0066 36.9412 35.768 36.9412H36.1259C36.1259 36.9412 36.1258 37.0604 36.1256 37.299L36.1249 38.1176L36.1243 38.9412L36.124 39.2941C36.124 39.2941 36.0047 39.2941 35.7662 39.2941H36.124C36.124 39.2941 36.1239 39.4134 36.1237 39.652L36.1231 40.4706L36.1224 41.2941L36.1221 41.647C36.1221 41.647 36.0029 41.647 35.7643 41.647H34.9457H34.1221H33.7692ZM33.7785 29.8823C33.7785 29.8823 33.7786 29.7647 33.7788 29.5294L33.7794 28.7059L33.7801 27.8872L33.7804 27.5294C33.7804 27.5294 33.7804 27.4118 33.7806 27.1765L33.7813 26.3529L33.7819 25.5343L33.7822 25.1765C33.7822 25.1765 33.7823 25.0588 33.7825 24.8235L33.7831 24L33.7838 23.1814L33.7841 22.8235C33.7841 22.8235 33.7842 22.7059 33.7843 22.4706L33.785 21.6471L33.7856 20.8284L33.7859 20.4706H34.1389H34.9624H35.781H36.1389C36.1389 20.4706 36.1388 20.5899 36.1386 20.8284L36.1379 21.6471L36.1373 22.4706L36.137 22.8235C36.137 22.8235 36.0177 22.8235 35.7792 22.8235H36.137C36.137 22.8235 36.1369 22.9428 36.1367 23.1814L36.1361 24L36.1354 24.8235L36.1352 25.1765C36.1352 25.1765 36.0159 25.1765 35.7773 25.1765H36.1352C36.1352 25.1765 36.1351 25.2957 36.1349 25.5343L36.1342 26.3529L36.1336 27.1765L36.1333 27.5294C36.1333 27.5294 36.014 27.5294 35.7755 27.5294H36.1333C36.1333 27.5294 36.1332 27.6487 36.133 27.8872L36.1324 28.7059L36.1317 29.5294L36.1314 29.8823C36.1314 29.8823 36.0122 29.8823 35.7736 29.8823H34.955H34.1314H33.7785Z" fill="#B20001" fill-opacity="0.16"/>
</g>
<defs>
<filter id="filter0_ddd_8686_453310" x="2" y="6" width="56" height="56" filterUnits="userSpaceOnUse" color-interpolation-filters="sRGB">
<feFlood flood-opacity="0" result="BackgroundImageFix"/>
<feColorMatrix in="SourceAlpha" type="matrix" values="0 0 0 0 0 0 0 0 0 0 0 0 0 0 0 0 0 0 127 0" result="hardAlpha"/>
<feOffset dy="4"/>
<feGaussianBlur stdDeviation="2"/>
<feComposite in2="hardAlpha" operator="out"/>
<feColorMatrix type="matrix" values="0 0 0 0 0 0 0 0 0 0 0 0 0 0 0 0 0 0 0.25 0"/>
<feBlend mode="normal" in2="BackgroundImageFix" result="effect1_dropShadow_8686_453310"/>
<feColorMatrix in="SourceAlpha" type="matrix" values="0 0 0 0 0 0 0 0 0 0 0 0 0 0 0 0 0 0 127 0" result="hardAlpha"/>
<feOffset dy="4"/>
<feGaussianBlur stdDeviation="2"/>
<feComposite in2="hardAlpha" operator="out"/>
<feColorMatrix type="matrix" values="0 0 0 0 0 0 0 0 0 0 0 0 0 0 0 0 0 0 0.25 0"/>
<feBlend mode="normal" in2="effect1_dropShadow_8686_453310" result="effect2_dropShadow_8686_453310"/>
<feColorMatrix in="SourceAlpha" type="matrix" values="0 0 0 0 0 0 0 0 0 0 0 0 0 0 0 0 0 0 127 0" result="hardAlpha"/>
<feOffset dy="4"/>
<feGaussianBlur stdDeviation="2"/>
<feComposite in2="hardAlpha" operator="out"/>
<feColorMatrix type="matrix" values="0 0 0 0 0 0 0 0 0 0 0 0 0 0 0 0 0 0 0.25 0"/>
<feBlend mode="normal" in2="effect2_dropShadow_8686_453310" result="effect3_dropShadow_8686_453310"/>
<feBlend mode="normal" in="SourceGraphic" in2="effect3_dropShadow_8686_453310" result="shape"/>
</filter>
<linearGradient id="paint0_linear_8686_453310" x1="28" y1="49.5" x2="28.9239" y2="2.57849" gradientUnits="userSpaceOnUse">
<stop stop-color="#4A0707"/>
<stop offset="1" stop-color="#8A1111"/>
</linearGradient>
<linearGradient id="paint1_linear_8686_453310" x1="30" y1="6" x2="30" y2="54" gradientUnits="userSpaceOnUse">
<stop stop-color="#8B3A3A"/>
<stop offset="1"/>
</linearGradient>
<clipPath id="clip0_8686_453310">
<rect width="60" height="60" fill="white"/>
</clipPath>
</defs>
</svg>
