<svg width="60" height="60" viewBox="0 0 60 60" fill="none" xmlns="http://www.w3.org/2000/svg">
<circle cx="31" cy="29" r="24" fill="url(#paint0_linear_8686_453322)"/>
<path d="M25.3556 43C25.3556 43 25.3557 42.8823 25.3559 42.647L25.3565 41.8235L25.3572 41.0049L25.3574 40.647C25.3574 40.647 25.3575 40.5294 25.3577 40.2941L25.3584 39.4706L25.359 38.652L25.3593 38.2941C25.3593 38.2941 25.3594 38.1765 25.3596 37.9412L25.3602 37.1176L25.3609 36.299L25.3612 35.9412C25.3612 35.9412 25.3613 35.8235 25.3614 35.5882L25.3621 34.7647L25.3627 33.9461L25.363 33.5882C25.363 33.5882 25.3631 33.4706 25.3633 33.2353L25.3639 32.4118L25.3646 31.5931L25.3649 31.2353C25.3649 31.2353 25.365 31.1176 25.3652 30.8823L25.3658 30.0588L25.3664 29.2402L25.3667 28.8823C25.3667 28.8823 25.3668 28.7647 25.367 28.5294L25.3677 27.7059L25.3683 26.8872L25.3686 26.5294C25.3686 26.5294 25.3687 26.4118 25.3689 26.1765L25.3695 25.3529L25.3702 24.5343L25.3704 24.1765C25.3704 24.1765 25.3705 24.0588 25.3707 23.8235L25.3714 23L25.372 22.1814L25.3723 21.8235C25.3723 21.8235 25.3724 21.7059 25.3726 21.4706L25.3732 20.6471L25.3739 19.8284L25.3742 19.4706C25.3742 19.4706 25.3743 19.3529 25.3744 19.1176L25.3751 18.2941L25.3757 17.4755L25.376 17.1176H25.729H26.5525H27.3711H27.729C27.729 17.1176 27.7289 17.2369 27.7287 17.4755L27.729 17.1176H28.0819H28.9054H29.7241H30.0819C30.0819 17.1176 30.0818 17.2369 30.0816 17.4755L30.0819 17.1176H30.4348H31.2584H32.077H32.4348C32.4348 17.1176 32.4347 17.2369 32.4346 17.4755L32.4348 17.1176H32.7878H33.6113H34.4299H34.7878C34.7878 17.1176 34.7877 17.2369 34.7875 17.4755L34.7869 18.2941L34.7862 19.1176L34.7859 19.4706C34.7859 19.4706 34.6666 19.4706 34.4281 19.4706H33.6095H32.7859H32.433C32.433 19.4706 32.4331 19.3529 32.4333 19.1176L32.433 19.4706C32.433 19.4706 32.3137 19.4706 32.0751 19.4706H31.2565H30.433H30.08C30.08 19.4706 30.0801 19.3529 30.0803 19.1176L30.08 19.4706C30.08 19.4706 29.9608 19.4706 29.7222 19.4706H28.9036H28.08H27.7271C27.7271 19.4706 27.7272 19.3529 27.7274 19.1176L27.7271 19.4706C27.7271 19.4706 27.6078 19.4706 27.3693 19.4706H27.7271C27.7271 19.4706 27.727 19.5899 27.7268 19.8284L27.7262 20.6471L27.7255 21.4706L27.7252 21.8235C27.7252 21.8235 27.606 21.8235 27.3674 21.8235H27.7252C27.7252 21.8235 27.7251 21.9428 27.725 22.1814L27.7243 23L27.7237 23.8235L27.7234 24.1765C27.7234 24.1765 27.6041 24.1765 27.3655 24.1765H27.7234C27.7234 24.1765 27.7233 24.2957 27.7231 24.5343L27.7225 25.3529L27.7218 26.1765L27.7215 26.5294C27.7215 26.5294 27.6022 26.5294 27.3637 26.5294H27.7215C27.7215 26.5294 27.7214 26.6487 27.7212 26.8872L27.7206 27.7059L27.72 28.5294L27.7197 28.8823C27.7197 28.8823 27.6004 28.8823 27.3618 28.8823H27.7197C27.7197 28.8823 27.7196 29.0016 27.7194 29.2402L27.7197 28.8823H28.0726H28.8961H29.7148H30.0726C30.0726 28.8823 30.0725 29.0016 30.0723 29.2402L30.0726 28.8823H30.4256H31.2491H32.0677H32.4256C32.4256 28.8823 32.4255 29.0016 32.4253 29.2402L32.4256 28.8823H32.7785H33.602H34.4207H34.7785C34.7785 28.8823 34.7784 29.0016 34.7782 29.2402L34.7776 30.0588L34.7769 30.8823L34.7766 31.2353C34.7766 31.2353 34.6574 31.2353 34.4188 31.2353H33.6002H32.7766H32.4237C32.4237 31.2353 32.4238 31.1176 32.424 30.8823L32.4237 31.2353C32.4237 31.2353 32.3044 31.2353 32.0659 31.2353H31.2472H30.4237H30.0708C30.0708 31.2353 30.0708 31.1176 30.071 30.8823L30.0708 31.2353C30.0708 31.2353 29.9515 31.2353 29.7129 31.2353H28.8943H28.0708H27.7178C27.7178 31.2353 27.7179 31.1176 27.7181 30.8823L27.7178 31.2353C27.7178 31.2353 27.5985 31.2353 27.36 31.2353H27.7178C27.7178 31.2353 27.7177 31.3546 27.7175 31.5931L27.7169 32.4118L27.7162 33.2353L27.716 33.5882C27.716 33.5882 27.5967 33.5882 27.3581 33.5882H27.716C27.716 33.5882 27.7159 33.7075 27.7157 33.9461L27.715 34.7647L27.7144 35.5882L27.7141 35.9412C27.7141 35.9412 27.5948 35.9412 27.3563 35.9412H27.7141C27.7141 35.9412 27.714 36.0604 27.7138 36.299L27.7132 37.1176L27.7125 37.9412L27.7122 38.2941C27.7122 38.2941 27.593 38.2941 27.3544 38.2941H27.7122C27.7122 38.2941 27.7121 38.4134 27.712 38.652L27.7113 39.4706L27.7107 40.2941L27.7104 40.647C27.7104 40.647 27.5911 40.647 27.3525 40.647H27.7104C27.7104 40.647 27.7103 40.7663 27.7101 41.0049L27.7104 40.647H28.0633H28.8869H29.7055H30.0633C30.0633 40.647 30.0632 40.7663 30.063 41.0049L30.0633 40.647H30.4163H31.2398H32.0584H32.4163C32.4163 40.647 32.4162 40.7663 32.416 41.0049L32.4163 40.647H32.7692H33.5927H34.4114H34.7692C34.7692 40.647 34.7691 40.7663 34.7689 41.0049L34.7683 41.8235L34.7676 42.647L34.7674 43C34.7674 43 34.6481 43 34.4095 43H33.5909H32.7674H32.4144C32.4144 43 32.4145 42.8823 32.4147 42.647L32.4144 43C32.4144 43 32.2951 43 32.0566 43H31.2379H30.4144H30.0615C30.0615 43 30.0616 42.8823 30.0617 42.647L30.0615 43C30.0615 43 29.9422 43 29.7036 43H28.885H28.0615H27.7085C27.7085 43 27.7086 42.8823 27.7088 42.647L27.7085 43C27.7085 43 27.5892 43 27.3507 43H26.5321H25.7085H25.3556ZM34.7692 40.647C34.7692 40.647 34.7693 40.5294 34.7695 40.2941L34.7701 39.4706L34.7708 38.652L34.7711 38.2941C34.7711 38.2941 34.7712 38.1765 34.7713 37.9412L34.772 37.1176L34.7726 36.299L34.7729 35.9412C34.7729 35.9412 34.773 35.8235 34.7732 35.5882L34.7739 34.7647L34.7745 33.9461L34.7748 33.5882C34.7748 33.5882 34.7749 33.4706 34.7751 33.2353L34.7757 32.4118L34.7764 31.5931L34.7766 31.2353H35.1296H35.9531H36.7717H37.1296C37.1296 31.2353 37.1295 31.3546 37.1293 31.5931L37.1287 32.4118L37.128 33.2353L37.1277 33.5882C37.1277 33.5882 37.0084 33.5882 36.7699 33.5882H37.1277C37.1277 33.5882 37.1276 33.7075 37.1274 33.9461L37.1268 34.7647L37.1261 35.5882L37.1259 35.9412C37.1259 35.9412 37.0066 35.9412 36.768 35.9412H37.1259C37.1259 35.9412 37.1258 36.0604 37.1256 36.299L37.1249 37.1176L37.1243 37.9412L37.124 38.2941C37.124 38.2941 37.0047 38.2941 36.7662 38.2941H37.124C37.124 38.2941 37.1239 38.4134 37.1237 38.652L37.1231 39.4706L37.1224 40.2941L37.1221 40.647C37.1221 40.647 37.0029 40.647 36.7643 40.647H35.9457H35.1221H34.7692ZM34.7785 28.8823C34.7785 28.8823 34.7786 28.7647 34.7788 28.5294L34.7794 27.7059L34.7801 26.8872L34.7804 26.5294C34.7804 26.5294 34.7804 26.4118 34.7806 26.1765L34.7813 25.3529L34.7819 24.5343L34.7822 24.1765C34.7822 24.1765 34.7823 24.0588 34.7825 23.8235L34.7831 23L34.7838 22.1814L34.7841 21.8235C34.7841 21.8235 34.7842 21.7059 34.7843 21.4706L34.785 20.6471L34.7856 19.8284L34.7859 19.4706H35.1389H35.9624H36.781H37.1389C37.1389 19.4706 37.1388 19.5899 37.1386 19.8284L37.1379 20.6471L37.1373 21.4706L37.137 21.8235C37.137 21.8235 37.0177 21.8235 36.7792 21.8235H37.137C37.137 21.8235 37.1369 21.9428 37.1367 22.1814L37.1361 23L37.1354 23.8235L37.1352 24.1765C37.1352 24.1765 37.0159 24.1765 36.7773 24.1765H37.1352C37.1352 24.1765 37.1351 24.2957 37.1349 24.5343L37.1342 25.3529L37.1336 26.1765L37.1333 26.5294C37.1333 26.5294 37.014 26.5294 36.7755 26.5294H37.1333C37.1333 26.5294 37.1332 26.6487 37.133 26.8872L37.1324 27.7059L37.1317 28.5294L37.1314 28.8823C37.1314 28.8823 37.0122 28.8823 36.7736 28.8823H35.955H35.1314H34.7785Z" fill="#B20001" fill-opacity="0.16"/>
<defs>
<linearGradient id="paint0_linear_8686_453322" x1="29" y1="48.5" x2="29.9239" y2="1.57849" gradientUnits="userSpaceOnUse">
<stop stop-color="#4A0707"/>
<stop offset="1" stop-color="#8A1111"/>
</linearGradient>
</defs>
</svg>
