<svg width="70" height="70" viewBox="0 0 70 70" fill="none" xmlns="http://www.w3.org/2000/svg">
<mask id="path-1-inside-1_8601_465182" fill="white">
<path d="M10.0104 59.5079C6.69095 56.1884 6.69095 50.8065 10.0104 47.4871L47.4871 10.0104C50.8065 6.69094 56.1884 6.69094 59.5079 10.0104V10.0104C62.8273 13.3299 62.8273 18.7118 59.5079 22.0312L22.0312 59.5079C18.7118 62.8273 13.3299 62.8273 10.0104 59.5079V59.5079Z"/>
</mask>
<path d="M10.0104 59.5079C6.69095 56.1884 6.69095 50.8065 10.0104 47.4871L47.4871 10.0104C50.8065 6.69094 56.1884 6.69094 59.5079 10.0104V10.0104C62.8273 13.3299 62.8273 18.7118 59.5079 22.0312L22.0312 59.5079C18.7118 62.8273 13.3299 62.8273 10.0104 59.5079V59.5079Z" fill="url(#paint0_radial_8601_465182)"/>
<path d="M10.0104 47.4871L10.7175 48.1942L48.1942 10.7175L47.4871 10.0104L46.78 9.30329L9.3033 46.78L10.0104 47.4871ZM59.5079 22.0312L58.8008 21.3241L21.3241 58.8008L22.0312 59.5079L22.7383 60.215L60.215 22.7383L59.5079 22.0312ZM22.0312 59.5079L21.3241 58.8008C18.3952 61.7297 13.6464 61.7297 10.7175 58.8008L10.0104 59.5079L9.3033 60.215C13.0133 63.925 19.0283 63.925 22.7383 60.215L22.0312 59.5079ZM59.5079 10.0104L58.8008 10.7175C61.7297 13.6464 61.7297 18.3952 58.8008 21.3241L59.5079 22.0312L60.215 22.7383C63.925 19.0283 63.925 13.0133 60.215 9.30329L59.5079 10.0104ZM47.4871 10.0104L48.1942 10.7175C51.1231 7.78857 55.8718 7.78858 58.8008 10.7175L59.5079 10.0104L60.215 9.30329C56.505 5.59331 50.4899 5.59331 46.78 9.30329L47.4871 10.0104ZM10.0104 47.4871L9.3033 46.78C5.59332 50.4899 5.59332 56.505 9.3033 60.215L10.0104 59.5079L10.7175 58.8008C7.78858 55.8718 7.78858 51.1231 10.7175 48.1942L10.0104 47.4871Z" fill="url(#paint1_linear_8601_465182)" mask="url(#path-1-inside-1_8601_465182)"/>
<defs>
<radialGradient id="paint0_radial_8601_465182" cx="0" cy="0" r="1" gradientUnits="userSpaceOnUse" gradientTransform="translate(30 29.9999) rotate(-46.4688) scale(41.3793 6.72777)">
<stop stop-color="#A4A4A4"/>
<stop offset="1" stop-color="#3E3E3E"/>
</radialGradient>
<linearGradient id="paint1_linear_8601_465182" x1="42" y1="40.9452" x2="28.8041" y2="28.6933" gradientUnits="userSpaceOnUse">
<stop offset="0.0001"/>
<stop offset="1"/>
</linearGradient>
</defs>
</svg>
