<svg width="20" height="19" viewBox="0 0 20 19" fill="none" xmlns="http://www.w3.org/2000/svg">
    <path d="M10.0004 11.0581C11.1656 11.0581 12.1102 10.1666 12.1102 9.06679C12.1102 7.967 11.1656 7.07544 10.0004 7.07544C8.83521 7.07544 7.89062 7.967 7.89062 9.06679C7.89062 10.1666 8.83521 11.0581 10.0004 11.0581Z" fill="#E5C46B"/>
    <path d="M7.89039 5.89015L6.2405 7.44972L2.90141 4.2981L1.64987 5.47938L0 0L5.80283 1.55725L4.55128 2.73853L7.89039 5.89015Z" fill="#E5C46B"/>
    <path d="M19.9997 0.0012207L18.3499 5.47825L17.0984 4.297L13.7593 7.44862L12.1094 5.89138L15.4485 2.73975L14.1969 1.55847L19.9997 0.0012207Z" fill="#E5C46B"/>
    <path d="M19.9997 18.4L18.3499 12.923L17.0984 14.1043L13.7593 10.9526L12.1094 12.5099L15.4485 15.6615L14.1969 16.8428L19.9997 18.4Z" fill="#E5C46B"/>
    <path d="M7.89039 12.2791L6.2405 10.7195L2.90141 13.8711L1.64987 12.6898L0 18.1692L5.80283 16.6119L4.55128 15.4307L7.89039 12.2791Z" fill="#E5C46B"/>
</svg>
