<svg width="20" height="20" viewBox="0 0 20 20" fill="none" xmlns="http://www.w3.org/2000/svg">
<g filter="url(#filter0_ddd_3415_282580)">
<mask id="path-1-outside-1_3415_282580" maskUnits="userSpaceOnUse" x="5" y="5" width="10" height="10" fill="black">
<rect fill="white" x="5" y="5" width="10" height="10"/>
<path d="M9.54656 13.1104V6.36683H10.4574V13.1104H9.54656ZM6.62753 10.1914V9.28587H13.3765V10.1914H6.62753Z"/>
</mask>
<path d="M9.54656 13.1104H8.54656V14.1104H9.54656V13.1104ZM9.54656 6.36683V5.36683H8.54656V6.36683H9.54656ZM10.4574 6.36683H11.4574V5.36683H10.4574V6.36683ZM10.4574 13.1104V14.1104H11.4574V13.1104H10.4574ZM6.62753 10.1914H5.62753V11.1914H6.62753V10.1914ZM6.62753 9.28587V8.28587H5.62753V9.28587H6.62753ZM13.3765 9.28587H14.3765V8.28587H13.3765V9.28587ZM13.3765 10.1914V11.1914H14.3765V10.1914H13.3765ZM10.5466 13.1104V6.36683H8.54656V13.1104H10.5466ZM9.54656 7.36683H10.4574V5.36683H9.54656V7.36683ZM9.45743 6.36683V13.1104H11.4574V6.36683H9.45743ZM10.4574 12.1104H9.54656V14.1104H10.4574V12.1104ZM7.62753 10.1914V9.28587H5.62753V10.1914H7.62753ZM6.62753 10.2859H13.3765V8.28587H6.62753V10.2859ZM12.3765 9.28587V10.1914H14.3765V9.28587H12.3765ZM13.3765 9.19141H6.62753V11.1914H13.3765V9.19141Z" fill="#E5C46B" mask="url(#path-1-outside-1_3415_282580)"/>
</g>
<defs>
<filter id="filter0_ddd_3415_282580" x="-5" y="-6" width="29" height="32" filterUnits="userSpaceOnUse" color-interpolation-filters="sRGB">
<feFlood flood-opacity="0" result="BackgroundImageFix"/>
<feColorMatrix in="SourceAlpha" type="matrix" values="0 0 0 0 0 0 0 0 0 0 0 0 0 0 0 0 0 0 127 0" result="hardAlpha"/>
<feOffset/>
<feGaussianBlur stdDeviation="2"/>
<feComposite in2="hardAlpha" operator="out"/>
<feColorMatrix type="matrix" values="0 0 0 0 0.898039 0 0 0 0 0.768627 0 0 0 0 0.419608 0 0 0 1 0"/>
<feBlend mode="normal" in2="BackgroundImageFix" result="effect1_dropShadow_3415_282580"/>
<feColorMatrix in="SourceAlpha" type="matrix" values="0 0 0 0 0 0 0 0 0 0 0 0 0 0 0 0 0 0 127 0" result="hardAlpha"/>
<feOffset/>
<feGaussianBlur stdDeviation="2"/>
<feComposite in2="hardAlpha" operator="out"/>
<feColorMatrix type="matrix" values="0 0 0 0 0.898039 0 0 0 0 0.768627 0 0 0 0 0.419608 0 0 0 0.25 0"/>
<feBlend mode="normal" in2="effect1_dropShadow_3415_282580" result="effect2_dropShadow_3415_282580"/>
<feColorMatrix in="SourceAlpha" type="matrix" values="0 0 0 0 0 0 0 0 0 0 0 0 0 0 0 0 0 0 127 0" result="hardAlpha"/>
<feOffset/>
<feGaussianBlur stdDeviation="3"/>
<feComposite in2="hardAlpha" operator="out"/>
<feColorMatrix type="matrix" values="0 0 0 0 0.898039 0 0 0 0 0.768627 0 0 0 0 0.419608 0 0 0 0.25 0"/>
<feBlend mode="normal" in2="effect2_dropShadow_3415_282580" result="effect3_dropShadow_3415_282580"/>
<feBlend mode="normal" in="SourceGraphic" in2="effect3_dropShadow_3415_282580" result="shape"/>
</filter>
</defs>
</svg>
