<svg width="29" height="29" viewBox="0 0 29 29" fill="none" xmlns="http://www.w3.org/2000/svg">
<g>
<path d="M15.5159 10.011H14.5137V11.0154H15.5159V10.011Z" fill="#E5C46B"/>
<path d="M15.5159 11.0154H14.5137V12.0198H15.5159V11.0154Z" fill="#E5C46B"/>
<path d="M14.514 9.00659H13.5117V10.011H14.514V9.00659Z" fill="#E5C46B"/>
<path d="M22.5296 21.0527H21.5273V22.0572H22.5296V21.0527Z" fill="#E5C46B"/>
<path d="M22.5296 20.0483H21.5273V21.0528H22.5296V20.0483Z" fill="#E5C46B"/>
<path d="M21.5271 21.0527H20.5249V22.0572H21.5271V21.0527Z" fill="#E5C46B"/>
<path d="M21.5271 20.0483H20.5249V21.0528H21.5271V20.0483Z" fill="#E5C46B"/>
<path d="M21.5271 19.0439H20.5249V20.0484H21.5271V19.0439Z" fill="#E5C46B"/>
<path d="M20.5252 20.0483H19.5229V21.0528H20.5252V20.0483Z" fill="#E5C46B"/>
<path d="M20.5252 19.0439H19.5229V20.0484H20.5252V19.0439Z" fill="#E5C46B"/>
<path d="M20.5252 18.0398H19.5229V19.0442H20.5252V18.0398Z" fill="#E5C46B"/>
<path d="M19.5228 19.0439H18.5205V20.0484H19.5228V19.0439Z" fill="#E5C46B"/>
<path d="M19.5228 18.0398H18.5205V19.0442H19.5228V18.0398Z" fill="#E5C46B"/>
<path d="M19.5228 17.0352H18.5205V18.0396H19.5228V17.0352Z" fill="#E5C46B"/>
<path d="M18.5208 18.0398H17.5186V19.0442H18.5208V18.0398Z" fill="#E5C46B"/>
<path d="M18.5208 17.0352H17.5186V18.0396H18.5208V17.0352Z" fill="#E5C46B"/>
<path d="M18.5174 16.031H17.5151V17.0354H18.5174V16.031Z" fill="#E5C46B"/>
<path d="M17.5184 17.0352H16.5161V18.0396H17.5184V17.0352Z" fill="#E5C46B"/>
<path d="M17.5154 16.031H16.5132V17.0354H17.5154V16.031Z" fill="#E5C46B"/>
<path d="M12.5096 6H11.5073V7.00444H12.5096V6Z" fill="#E5C46B"/>
<path d="M5.99971 12.0198H7.00195V11.0153H5.99971V12.0198Z" fill="#E5C46B"/>
<path d="M5.99971 11.0154H7.00195V10.0109H5.99971V11.0154Z" fill="#E5C46B"/>
<path d="M10.0036 7.00439H11.0059V5.99996H10.0036V7.00439Z" fill="#E5C46B"/>
<path d="M9.00703 8.00366H10.0093V6.99923H9.00703V8.00366Z" fill="#E5C46B"/>
<path d="M8.00459 8.00366H9.00684V6.99923H8.00459V8.00366Z" fill="#E5C46B"/>
<path d="M7.00215 9.00781H8.00439V8.00338H7.00215V9.00781Z" fill="#E5C46B"/>
<path d="M7.00215 10.0125H8.00439V9.00801H7.00215V10.0125Z" fill="#E5C46B"/>
<path d="M11.0061 7.00439H12.0083V5.99996H11.0061V7.00439Z" fill="#E5C46B"/>
<path d="M10.0036 18.0447H11.0059V17.0402H10.0036V18.0447Z" fill="#E5C46B"/>
<path d="M9.00703 17.0405H10.0093V16.0361H9.00703V17.0405Z" fill="#E5C46B"/>
<path d="M8.00459 17.0405H9.00684V16.0361H8.00459V17.0405Z" fill="#E5C46B"/>
<path d="M7.00215 16.0361H8.00439V15.0317H7.00215V16.0361Z" fill="#E5C46B"/>
<path d="M7.00215 15.0315H8.00439V14.0271H7.00215V15.0315Z" fill="#E5C46B"/>
<path d="M11.0061 18.0447H12.0083V17.0402H11.0061V18.0447Z" fill="#E5C46B"/>
<path d="M5.99971 12.0198H7.00195V11.0153H5.99971V12.0198Z" fill="#E5C46B"/>
<path d="M5.99971 13.0242H7.00195V12.0197H5.99971V13.0242Z" fill="#E5C46B"/>
<path d="M5.99971 14.0286H7.00195V13.0241H5.99971V14.0286Z" fill="#E5C46B"/>
<path d="M18.5174 11.0154H17.5151V12.0198H18.5174V11.0154Z" fill="#E5C46B"/>
<path d="M18.5174 10.011H17.5151V11.0154H18.5174V10.011Z" fill="#E5C46B"/>
<path d="M14.514 6H13.5117V7.00444H14.514V6Z" fill="#E5C46B"/>
<path d="M15.5105 6.99902H14.5083V8.00346H15.5105V6.99902Z" fill="#E5C46B"/>
<path d="M16.513 6.99902H15.5107V8.00346H16.513V6.99902Z" fill="#E5C46B"/>
<path d="M17.5149 8.00366H16.5127V9.0081H17.5149V8.00366Z" fill="#E5C46B"/>
<path d="M17.5149 9.00781H16.5127V10.0122H17.5149V9.00781Z" fill="#E5C46B"/>
<path d="M13.5115 6H12.5093V7.00444H13.5115V6Z" fill="#E5C46B"/>
<path d="M14.514 17.0408H13.5117V18.0452H14.514V17.0408Z" fill="#E5C46B"/>
<path d="M15.5105 16.0361H14.5083V17.0406H15.5105V16.0361Z" fill="#E5C46B"/>
<path d="M16.9095 16.0361H15.1143V17.0406H16.9095V16.0361Z" fill="#E5C46B"/>
<path d="M17.5149 15.0315H16.5127V16.0359H17.5149V15.0315Z" fill="#E5C46B"/>
<path d="M17.5149 14.0271H16.5127V15.0315H17.5149V14.0271Z" fill="#E5C46B"/>
<path d="M12.5096 17.0408H11.5073V18.0452H12.5096V17.0408Z" fill="#E5C46B"/>
<path d="M13.5115 17.0408H12.5093V18.0452H13.5115V17.0408Z" fill="#E5C46B"/>
<path d="M18.5174 11.0154H17.5151V12.0198H18.5174V11.0154Z" fill="#E5C46B"/>
<path d="M18.5174 12.0198H17.5151V13.0242H18.5174V12.0198Z" fill="#E5C46B"/>
<path d="M18.5174 13.0242H17.5151V14.0286H18.5174V13.0242Z" fill="#E5C46B"/>
</g>
</svg>
