<svg width="17" height="17" viewBox="0 0 17 17" fill="none" xmlns="http://www.w3.org/2000/svg">
<path d="M9.51616 4.01099H8.51392V5.01542H9.51616V4.01099Z" fill="#E5C46B" fill-opacity="0.8"/>
<path d="M9.51616 5.01538H8.51392V6.01982H9.51616V5.01538Z" fill="#E5C46B" fill-opacity="0.8"/>
<path d="M8.51397 3.00659H7.51172V4.01103H8.51397V3.00659Z" fill="#E5C46B" fill-opacity="0.8"/>
<path d="M16.5293 15.0527H15.5271V16.0572H16.5293V15.0527Z" fill="#E5C46B" fill-opacity="0.8"/>
<path d="M16.5293 14.0483H15.5271V15.0528H16.5293V14.0483Z" fill="#E5C46B" fill-opacity="0.8"/>
<path d="M15.5274 15.0527H14.5251V16.0572H15.5274V15.0527Z" fill="#E5C46B" fill-opacity="0.8"/>
<path d="M15.5274 14.0483H14.5251V15.0528H15.5274V14.0483Z" fill="#E5C46B" fill-opacity="0.8"/>
<path d="M15.5274 13.0439H14.5251V14.0484H15.5274V13.0439Z" fill="#E5C46B" fill-opacity="0.8"/>
<path d="M14.5252 14.0483H13.5229V15.0528H14.5252V14.0483Z" fill="#E5C46B" fill-opacity="0.8"/>
<path d="M14.5252 13.0439H13.5229V14.0484H14.5252V13.0439Z" fill="#E5C46B" fill-opacity="0.8"/>
<path d="M14.5252 12.0398H13.5229V13.0442H14.5252V12.0398Z" fill="#E5C46B" fill-opacity="0.8"/>
<path d="M13.5228 13.0439H12.5205V14.0484H13.5228V13.0439Z" fill="#E5C46B" fill-opacity="0.8"/>
<path d="M13.5228 12.0398H12.5205V13.0442H13.5228V12.0398Z" fill="#E5C46B" fill-opacity="0.8"/>
<path d="M13.5228 11.0352H12.5205V12.0396H13.5228V11.0352Z" fill="#E5C46B" fill-opacity="0.8"/>
<path d="M12.5206 12.0398H11.5183V13.0442H12.5206V12.0398Z" fill="#E5C46B" fill-opacity="0.8"/>
<path d="M12.5206 11.0352H11.5183V12.0396H12.5206V11.0352Z" fill="#E5C46B" fill-opacity="0.8"/>
<path d="M12.5176 10.031H11.5154V11.0354H12.5176V10.031Z" fill="#E5C46B" fill-opacity="0.8"/>
<path d="M11.5186 11.0352H10.5164V12.0396H11.5186V11.0352Z" fill="#E5C46B" fill-opacity="0.8"/>
<path d="M11.5154 10.031H10.5132V11.0354H11.5154V10.031Z" fill="#E5C46B" fill-opacity="0.8"/>
<path d="M6.50933 0H5.50708V1.00444H6.50933V0Z" fill="#E5C46B" fill-opacity="0.8"/>
<path d="M-4.93526e-05 6.01978H1.0022L1.0022 5.01534H-4.93526e-05L-4.93526e-05 6.01978Z" fill="#E5C46B" fill-opacity="0.8"/>
<path d="M-4.93526e-05 5.01538H1.0022L1.0022 4.01094H-4.93526e-05L-4.93526e-05 5.01538Z" fill="#E5C46B" fill-opacity="0.8"/>
<path d="M4.00361 1.00439L5.00586 1.00439V-4.22001e-05L4.00361 -4.22001e-05V1.00439Z" fill="#E5C46B" fill-opacity="0.8"/>
<path d="M3.00679 2.00366H4.00903V0.999225L3.00679 0.999225V2.00366Z" fill="#E5C46B" fill-opacity="0.8"/>
<path d="M2.00459 2.00366H3.00684V0.999225L2.00459 0.999225V2.00366Z" fill="#E5C46B" fill-opacity="0.8"/>
<path d="M1.00239 3.00781H2.00464V2.00338H1.00239L1.00239 3.00781Z" fill="#E5C46B" fill-opacity="0.8"/>
<path d="M1.00239 4.01245H2.00464V3.00801H1.00239L1.00239 4.01245Z" fill="#E5C46B" fill-opacity="0.8"/>
<path d="M5.00605 1.00439L6.0083 1.00439V-4.22001e-05L5.00605 -4.22001e-05V1.00439Z" fill="#E5C46B" fill-opacity="0.8"/>
<path d="M4.00361 12.0447H5.00586V11.0402H4.00361V12.0447Z" fill="#E5C46B" fill-opacity="0.8"/>
<path d="M3.00679 11.0405H4.00903V10.0361H3.00679V11.0405Z" fill="#E5C46B" fill-opacity="0.8"/>
<path d="M2.00459 11.0405H3.00684V10.0361H2.00459V11.0405Z" fill="#E5C46B" fill-opacity="0.8"/>
<path d="M1.00239 10.0361H2.00464V9.0317H1.00239L1.00239 10.0361Z" fill="#E5C46B" fill-opacity="0.8"/>
<path d="M1.00239 9.03149H2.00464V8.02706H1.00239L1.00239 9.03149Z" fill="#E5C46B" fill-opacity="0.8"/>
<path d="M5.00605 12.0447H6.0083V11.0402H5.00605V12.0447Z" fill="#E5C46B" fill-opacity="0.8"/>
<path d="M-4.93526e-05 6.01978H1.0022L1.0022 5.01534H-4.93526e-05L-4.93526e-05 6.01978Z" fill="#E5C46B" fill-opacity="0.8"/>
<path d="M-4.93526e-05 7.02417H1.0022L1.0022 6.01973H-4.93526e-05L-4.93526e-05 7.02417Z" fill="#E5C46B" fill-opacity="0.8"/>
<path d="M-4.93526e-05 8.02856H1.0022L1.0022 7.02413H-4.93526e-05L-4.93526e-05 8.02856Z" fill="#E5C46B" fill-opacity="0.8"/>
<path d="M12.5174 5.01538H11.5151V6.01982H12.5174V5.01538Z" fill="#E5C46B" fill-opacity="0.8"/>
<path d="M12.5174 4.01099H11.5151V5.01542H12.5174V4.01099Z" fill="#E5C46B" fill-opacity="0.8"/>
<path d="M8.51397 0H7.51172V1.00444H8.51397V0Z" fill="#E5C46B" fill-opacity="0.8"/>
<path d="M9.51055 0.999023H8.5083V2.00346H9.51055V0.999023Z" fill="#E5C46B" fill-opacity="0.8"/>
<path d="M10.5127 0.999023H9.5105V2.00346H10.5127V0.999023Z" fill="#E5C46B" fill-opacity="0.8"/>
<path d="M11.5152 2.00366H10.5129V3.0081H11.5152V2.00366Z" fill="#E5C46B" fill-opacity="0.8"/>
<path d="M11.5152 3.00781H10.5129V4.01225H11.5152V3.00781Z" fill="#E5C46B" fill-opacity="0.8"/>
<path d="M7.51152 0H6.50928V1.00444H7.51152V0Z" fill="#E5C46B" fill-opacity="0.8"/>
<path d="M8.51397 11.0408H7.51172V12.0452H8.51397V11.0408Z" fill="#E5C46B" fill-opacity="0.8"/>
<path d="M9.51055 10.0361H8.5083V11.0406H9.51055V10.0361Z" fill="#E5C46B" fill-opacity="0.8"/>
<path d="M10.9095 10.0361H9.11426V11.0406H10.9095V10.0361Z" fill="#E5C46B" fill-opacity="0.8"/>
<path d="M11.5152 9.03149H10.5129V10.0359H11.5152V9.03149Z" fill="#E5C46B" fill-opacity="0.8"/>
<path d="M11.5152 8.0271H10.5129V9.03154H11.5152V8.0271Z" fill="#E5C46B" fill-opacity="0.8"/>
<path d="M6.50933 11.0408H5.50708V12.0452H6.50933V11.0408Z" fill="#E5C46B" fill-opacity="0.8"/>
<path d="M7.51152 11.0408H6.50928V12.0452H7.51152V11.0408Z" fill="#E5C46B" fill-opacity="0.8"/>
<path d="M12.5174 5.01538H11.5151V6.01982H12.5174V5.01538Z" fill="#E5C46B" fill-opacity="0.8"/>
<path d="M12.5174 6.01978H11.5151V7.02421H12.5174V6.01978Z" fill="#E5C46B" fill-opacity="0.8"/>
<path d="M12.5174 7.02417H11.5151V8.02861H12.5174V7.02417Z" fill="#E5C46B" fill-opacity="0.8"/>
</svg>
