<svg width="34" height="32" viewBox="0 0 34 32" fill="none" xmlns="http://www.w3.org/2000/svg">
<g filter="url(#filter0_ddd_3065_372143)">
<path d="M6.57182 12.8494H13.9329V11.5864H15.1597V9.06028H16.3866V6.53418H17.6134V9.06028H18.8403V11.5864H20.0671V12.8494H27.4282V14.1125H26.2014V15.3755H24.957V16.6385H23.7389V17.9154H22.5164V19.137V19.1508V20.4173H23.7477V21.6597V21.6804V22.9227H20.0671V22.9262H18.8403V21.67H17.6134V20.4277H16.3866V21.67H15.1597V22.94H13.9329H12.706V24.203H11.4792V25.466H9.03311V24.203V24.1961V22.9262H10.2523V21.6907V21.67V20.4277H11.4792V19.1508V19.137V17.9154H10.2523V16.6385H9.02551V15.3755H7.79864V14.1125H6.57182V12.8494Z" fill="#F8ED33"/>
<path d="M24.9744 24.1009V24.1888V25.4657H22.5207V24.1888H21.2938V22.9258H24.9744V24.1009Z" fill="#F8ED33"/>
</g>
<defs>
<filter id="filter0_ddd_3065_372143" x="0.571838" y="0.53418" width="32.8564" height="30.9316" filterUnits="userSpaceOnUse" color-interpolation-filters="sRGB">
<feFlood flood-opacity="0" result="BackgroundImageFix"/>
<feColorMatrix in="SourceAlpha" type="matrix" values="0 0 0 0 0 0 0 0 0 0 0 0 0 0 0 0 0 0 127 0" result="hardAlpha"/>
<feOffset/>
<feGaussianBlur stdDeviation="2"/>
<feComposite in2="hardAlpha" operator="out"/>
<feColorMatrix type="matrix" values="0 0 0 0 0.898039 0 0 0 0 0.768627 0 0 0 0 0.419608 0 0 0 1 0"/>
<feBlend mode="normal" in2="BackgroundImageFix" result="effect1_dropShadow_3065_372143"/>
<feColorMatrix in="SourceAlpha" type="matrix" values="0 0 0 0 0 0 0 0 0 0 0 0 0 0 0 0 0 0 127 0" result="hardAlpha"/>
<feOffset/>
<feGaussianBlur stdDeviation="2"/>
<feComposite in2="hardAlpha" operator="out"/>
<feColorMatrix type="matrix" values="0 0 0 0 0.898039 0 0 0 0 0.768627 0 0 0 0 0.419608 0 0 0 0.25 0"/>
<feBlend mode="normal" in2="effect1_dropShadow_3065_372143" result="effect2_dropShadow_3065_372143"/>
<feColorMatrix in="SourceAlpha" type="matrix" values="0 0 0 0 0 0 0 0 0 0 0 0 0 0 0 0 0 0 127 0" result="hardAlpha"/>
<feOffset/>
<feGaussianBlur stdDeviation="3"/>
<feComposite in2="hardAlpha" operator="out"/>
<feColorMatrix type="matrix" values="0 0 0 0 0.898039 0 0 0 0 0.768627 0 0 0 0 0.419608 0 0 0 0.25 0"/>
<feBlend mode="normal" in2="effect2_dropShadow_3065_372143" result="effect3_dropShadow_3065_372143"/>
<feBlend mode="normal" in="SourceGraphic" in2="effect3_dropShadow_3065_372143" result="shape"/>
</filter>
</defs>
</svg>
