<svg width="22" height="20" viewBox="0 0 22 20" fill="none" xmlns="http://www.w3.org/2000/svg">
<path d="M0.571815 6.8494H7.93291V5.58637H9.15973V3.06028H10.3866V0.53418H11.6134V3.06028H12.8403V5.58637H14.0671V6.8494H21.4282V8.11247H20.2014V9.37549H18.957V10.6385H17.7389V11.9154H16.5164V13.137V13.1508V14.4173H17.7477V15.6597V15.6804V16.9227H14.0671V16.9262H12.8403V15.67H11.6134V14.4277H10.3866V15.67H9.15973V16.94H7.93291H6.70604V18.203H5.47921V19.466H3.03311V18.203V18.1961V16.9262H4.25234V15.6907V15.67V14.4277H5.47921V13.1508V13.137V11.9154H4.25234V10.6385H3.02551V9.37549H1.79864V8.11247H0.571815V6.8494Z" fill="#F8ED33" fill-opacity="0.5"/>
<path d="M18.9744 18.1009V18.1888V19.4657H16.5207V18.1888H15.2938V16.9258H18.9744V18.1009Z" fill="#F8ED33" fill-opacity="0.5"/>
</svg>
