<?xml version="1.0" encoding="UTF-8"?>
<svg id="Layer_2" xmlns="http://www.w3.org/2000/svg" viewBox="0 0 31.9291 30.2873">
  <defs>
    <style>
      .cls-1 {
        opacity: .5;
      }

      .cls-1, .cls-2, .cls-3, .cls-4, .cls-5, .cls-6, .cls-7, .cls-8, .cls-9, .cls-10 {
        stroke-miterlimit: 10;
      }

      .cls-1, .cls-11, .cls-3, .cls-4, .cls-10 {
        fill: #4fb848;
      }

      .cls-1, .cls-3, .cls-4, .cls-10 {
        stroke: #4fb848;
      }

      .cls-1, .cls-3, .cls-10 {
        stroke-width: .3825px;
      }

      .cls-2 {
        stroke-width: .1259px;
      }

      .cls-2, .cls-5, .cls-7, .cls-9 {
        fill: none;
      }

      .cls-2, .cls-9 {
        stroke: #fff;
      }

      .cls-12, .cls-8 {
        fill: #1e1e1e;
      }

      .cls-13 {
        fill: #447294;
      }

      .cls-4 {
        stroke-width: .9583px;
      }

      .cls-14 {
        fill: #fff;
      }

      .cls-5 {
        stroke-width: .3506px;
      }

      .cls-5, .cls-6, .cls-8 {
        stroke: #000;
      }

      .cls-6 {
        stroke-width: .1398px;
      }

      .cls-6, .cls-15 {
        fill: #999;
      }

      .cls-7 {
        stroke: #1e1e1e;
        stroke-width: 1.1186px;
      }

      .cls-8 {
        stroke-width: .1753px;
      }

      .cls-9 {
        stroke-width: 2.2816px;
      }

      .cls-10 {
        opacity: .72;
      }
    </style>
  </defs>
  <g id="Layer_1-2" data-name="Layer_1">
    <g>
      <path class="cls-4" d="M28.6007,22.4175c-4.2074,2.4384-8.4148,4.8769-12.6222,7.3165-4.2167-2.4244-8.4323-4.85-12.6479-7.2744-.0082-4.8628-.0257-14.5897-.0257-14.5897L15.9283.5533l12.6479,7.2733s.0164,9.7269.0245,14.5909Z"/>
      <g>
        <g id="head">
          <polygon class="cls-3" points="25.6055 16.9356 25.1723 20.5045 24.0001 20.7176 24.4588 16.9622 25.6055 16.9356"/>
          <path class="cls-3" d="M25.1468,14.9264c-.8714,4.2008-1.0062,5.5457-.871,5.7246.015.0198.1024.3111.1024.3111,0,0-.1176.1826-.1838.2237-.2941-.2957-.5882-.5914-.8823-.8872.3653-1.799.7305-3.5979,1.0958-5.3969l.739.0246Z"/>
          <path class="cls-3" d="M23.5562,20.5977l.627.6265,1.1961,2.2644-4.9195,5.986-1.3504-1.339c.0632-1.6038.3549-2.8762.6263-3.7686.2109-.6934.3554-1.1568.6799-1.6639.8929-1.3954,2.3729-1.9086,3.1406-2.1055Z"/>
          <path class="cls-3" d="M23.9626,20.9664c-.38.151-.9072.4045-1.4501.8293-.8644.6763-1.3004,1.4203-1.576,1.9011-.433.7556-.617,1.3794-.9851,2.6272-.2029.6878-.343,1.2677-.4344,1.6773-.1164-.1094-.2328-.2187-.3492-.3281.0368-.5306.1161-1.2945.3058-2.1994.2571-1.2268.4266-2.0353.9108-2.7798.2637-.4054,1.1022-1.5322,3.1888-2.0962.1298.1229.2596.2458.3894.3687Z"/>
          <g>
            <path class="cls-11" d="M25.4975,17.3154c-.1248.433-.2406.9416-.3154,1.5156-.0787.6041-.0949,1.15-.0812,1.6172"/>
            <path class="cls-11" d="M25.5126,17.3197c-.0102,1.0946-.1574,2.0632-.4115,3.1285-.2076-1.019-.1576-2.2757.4115-3.1285h0Z"/>
          </g>
          <g>
            <path class="cls-11" d="M23.8809,21.0257l.1672.3003c.3584.6546.7167,1.3092,1.0751,1.9638-.4855.5505-.8784,1.0041-1.1451,1.3138-1.1797,1.3698-1.5752,1.8806-2.1533,2.5259-.2053.2291-.3834.438-.7395.8558-.377.4422-.1858.2349-.2676.3265-.1005.1127-.1817.1932-.2514.3338-.0355.0717-.0559.1343-.0675.1756"/>
            <path class="cls-11" d="M23.8893,21.021c.2898.0344.325.3033.4649.481.2427.3606.7173,1.3058.9368,1.6959.0738.1397.0832.0962-.0244.2184-1.3792,1.5528-3.3645,3.9419-4.7675,5.4051-.1269-.3291.2521-.5757.4017-.8224,0,0,.5804-.6961.5804-.6961,1.1125-1.3571,2.3479-2.8245,3.4988-4.1393,0,0-.0244.2181-.0244.2181-.2232-.3934-.7362-1.3034-.9233-1.7019-.0678-.2007-.3061-.4259-.1428-.6586h0Z"/>
          </g>
          <g>
            <path class="cls-11" d="M23.7419,21.5412c-.6506.5343-1.6159,1.461-2.3954,2.8586-.8861,1.5888-1.1253,3.0571-1.1977,3.9183"/>
            <path class="cls-11" d="M23.7428,21.5422c-1.8529,1.8852-3.1262,4.1635-3.5939,6.7759-.0469-2.6405,1.3646-5.3492,3.5939-6.7759h0Z"/>
          </g>
          <polygon class="cls-3" points="6.1769 17.0172 6.6101 20.5753 7.7823 20.7877 7.3236 17.0438 6.1769 17.0172"/>
          <path class="cls-3" d="M6.6356,14.9965c.8714,4.2008,1.0062,5.5457.871,5.7246-.015.0198-.1024.3111-.1024.3111,0,0,.1176.1826.1838.2237.2941-.2957.5882-.5914.8823-.8872-.3653-1.799-.7305-3.5979-1.0958-5.3969l-.739.0246Z"/>
          <path class="cls-3" d="M7.846,15.0446s-.3485,3.3682.9174,4.1401c.7827.4772,1.6047.1486,2.6247.9364.7105.5488.5915.9244,1.0703,1.0843,1.154.3853,2.0501-1.728,3.695-1.6757,1.4212.0452,1.7913,1.6558,3.1599,1.5032.5786-.0645.5623-.3579,2.0386-1.1582,1.3855-.7511,2.0896-1.035,2.0896-1.035l.3822-4.0661c-.7082.1319-1.7925.3435-3.1089.6407-3.5651.805-3.3249.9949-4.3321,1.035-2.202.0876-2.7211-.8451-6.1924-1.2568-.9953-.118-1.8169-.1438-2.3444-.1479Z"/>
          <path class="cls-3" d="M7.5279,15.4889l.7645,5.5447c2.1077.6042,2.9397,1.6877,3.2491,2.1809.4219.6728.5956,1.5163.9428,3.2033.1996.9696.3239,1.7857.4014,2.3658,1.0744-.4109,2.1488-.8217,3.2232-1.2326.9763.4234,1.9525.8469,2.9288,1.2703.0484-.4484.1296-1.0877.2697-1.849.3173-1.7238.4952-2.7029,1.0129-3.5856.3047-.5195,1.143-1.72,3.2278-2.5125.2928-1.7631.5856-3.5261.8785-5.2892-.2432-.0321-.4865-.0642-.7297-.0962l-.739,3.7486c-.4958.2568-.9097.4029-1.2041.4898-.2421.0715-.663.1796-1.1869.436-.1018.0498-.1527.0747-.1911.0986-.5309.3295-.5826.8666-.8532.8706-.029.0004-.0541-.0047-.172-.0693-.413-.2263-.6324-.435-.884-.6151-.0495-.0354-.2661-.1541-.6976-.3943-.3993-.2223-.6015-.3344-.7223-.3794-.1388-.0516-.4842-.1668-.9438-.1723-.1048-.0013-.4798,0-.9391.1463-.2158.0687-.4283.1819-.8445.4054-.3383.1817-.5853.3143-.9228.5222-.5959.367-.6261.4448-.7973.4451-.3592.0006-.4228-.3427-.9894-.7222-.2003-.1341-.2987-.1624-1.4442-.5589-.4443-.1538-.8406-.2918-1.1786-.41l-.8473-3.9149s-.2788-.0847-.6116.0739Z"/>
          <path class="cls-1" d="M7.4649,14.9817c.2727,1.8753.5453,3.7506.818,5.6259.4671.1132,1.4122.3962,2.2481,1.0812.1915.157.5886.4875.9365,1.0258.1885.2917.3018.5503.3416.6446.0739.1752.1355.3857.2556.7994.0779.2684.1451.4998.227.8248.0431.1712.1216.4846.1959.8594.0855.4317.1067.6488.1887,1.2268.0423.2981.1052.7239.1909,1.2428,1.0757-.4196,2.1513-.8393,3.227-1.2589.9314.4307,1.8628.8614,2.7942,1.292.1038-.7552.2056-1.3975.2893-1.8958.0084-.0502.1486-.8768.3822-1.8775.065-.2785.1534-.6393.3504-1.0843.0514-.1161.1524-.3428.3154-.6068.3185-.516.669-.844.8728-1.0319.8467-.7812,1.913-1.2383,2.2967-1.3923.0664-.3933.4842-2.873.5861-3.4778.0231-.1372.0733-.4353.137-.8348.0688-.4317.1227-.7898.1593-1.0381-.1954.0061-.3908.0122-.5862.0182-.0393.194-.0948.4709-.1592.8042-.0708.3662-.1605.83-.2198,1.1798-.0714.4215-.156,1.0166-.2102,1.7635-.5224.3418-.9572.5438-1.2614.6654-.2403.0961-.6858.2566-1.0958.3943-.277.093-.2571.0813-.2931.0986-.5768.2766-.656.8676-.9668.8644-.0217-.0002-.0534-.0034-.2309-.1128-.4583-.2825-.606-.4828-.9684-.7393-.081-.0573-.254-.1564-.6001-.3544-.3756-.2149-.5666-.3235-.7223-.3794-.3798-.1362-.7059-.1404-.8564-.1411-.1374-.0006-.5681.0077-1.0703.2095-.1739.0699-.1677.0871-.7517.4189-.6647.3776-.619.3247-.8664.4805-.7063.4449-.7397.6623-1.0066.653-.3509-.0122-.3803-.391-.9284-.7708-.4814-.3336-.7557-.2471-1.467-.5106-.3552-.1316-.8629-.3666-1.427-.8132-.2039-1.2856-.4077-2.5711-.6116-3.8567-.0263-.0523-.0595-.079-.0824-.0929-.1084-.0662-.2833-.0299-.4306.0964Z"/>
          <path class="cls-3" d="M16.0038,22.4141c-1.1818.4241-2.3635.8481-3.5453,1.2722.2205,1.4256.4411,2.8511.6616,4.2767.974-.3834,1.9479-.7667,2.9219-1.1501.876.3871,1.752.7742,2.6279,1.1613.2166-1.4293.4332-2.8586.6498-4.2879-1.1053-.4241-2.2106-.8481-3.316-1.2722Z"/>
          <path class="cls-3" d="M16.6254,22.6526l.7984.3063c-.0274,1.368-.0547,2.736-.0821,4.104l-.7645-.4436c.0161-1.3222.0321-2.6445.0482-3.9667Z"/>
          <path class="cls-3" d="M15.4182,22.6243c-.2739.0983-.5478.1966-.8217.2948.0263,1.3607.0525,2.7215.0788,4.0822l.7645-.4436c-.0072-1.3112-.0144-2.6223-.0216-3.9335Z"/>
          <path class="cls-3" d="M12.7814,23.5705c.3388-.1216.6776-.2432,1.0165-.3648l.1322,4.1494-.516.2403c-.2109-1.3416-.4218-2.6833-.6327-4.0249Z"/>
          <path class="cls-3" d="M19.1094,23.6057c-.3384-.1298-.6769-.2597-1.0153-.3895l-.1314,4.139.516.2403.6306-3.9897Z"/>
          <path class="cls-3" d="M8.3028,20.6679l-.6534.6166-1.2463,2.2286,5.126,5.8912,1.4071-1.3178c-.0658-1.5784-.3698-2.8306-.6526-3.7089-.2198-.6824-.3703-1.1385-.7084-1.6376-.9304-1.3733-2.4725-1.8784-3.2725-2.0722Z"/>
          <path class="cls-3" d="M7.8198,21.0365c.38.151.9072.4045,1.4501.8293.8644.6763,1.3004,1.4203,1.576,1.9011.433.7556.617,1.3794.9851,2.6272.2029.6878.343,1.2677.4344,1.6773.1164-.1094.2328-.2187.3492-.3281-.0368-.5306-.1161-1.2945-.3058-2.1994-.2571-1.2268-.4266-2.0353-.9108-2.7798-.2637-.4054-1.1022-1.5322-3.1888-2.0962-.1298.1229-.2596.2458-.3894.3687Z"/>
          <path class="cls-3" d="M.3573,14.8856l1.1978.9365c1.2776-.2822,4.116-.8246,7.0286-.6065,1.4124.1058,2.6072.3724,2.6072.3724.4287.0692.7346.1761.7869.1879.4583.1024,1.6333.4488,2.217.6191.4351.127,1.084.3145,1.8921.5406.6917-.2068,1.2402-.3734,1.5769-.476,1.5928-.4855,2.0176-.6291,2.7969-.788.5068-.1033.9907-.1772,1.1323-.1987.2488-.0377.77-.1127,1.3677-.1684,1.5139-.1409,2.7654-.0869,3.0999-.0703,1.0527.0521,1.8467.1693,2.3191.2402.77.1158,1.4346.2518,1.9685.3759l1.2004-.9401c-.488-.1931-1.2043-.4839-2.0642-.8625-1.3918-.6127-1.5654-.7528-1.6707-.848-.6365-.576-.5349-1.1035-1.0559-2.9717-.375-1.3439-.6099-2.1863-1.1978-3.1297-.3364-.5397-.4888-.6208-.8887-1.0423-.2073-.2185-.4104-.4479-.7932-.9291-.73-.9178-.812-1.5505-1.5798-2.155-.4011-.3159-.8481-.519-1.1023-.6346-.2886-.1312-.5977-.2717-1.0298-.372-.4417-.1024-1.6743-.317-1.9102-.5405-.0007-.0006-.0015-.0015-.0032-.0029-.0659-.0627-.1809-.164-.3408-.2675,0,0-.1082-.0699-.2156-.1242-.1897-.0959-.5549-.2176-1.7705-.2176,0,0-.8921-.0009-1.3237.1742-.2202.0894-.3582.1832-.4587.2464-.7083.4463-1.3894.5311-2.0386.7147,0,0-1.1069.3132-2.166,1.035-.8992.6129-.5979.7615-2.166,2.3658-.8774.8976-1.3984,1.2878-1.7551,2.1832-.0938.2357-.0505.1909-.2876.9598-.3064.9932-.4548,1.3158-.7605,2.2046-.6968,2.0271-.5515,2.1735-.9429,2.5383-.3411.3179-.5518.3-1.8093.8132-.8123.3316-1.4543.637-1.8601.8379Z"/>
          <path class="cls-3" d="M6.2097,11.6431c.1809-1.9803.8016-3.2935,1.3554-4.1404.6363-.9732,1.9574-2.5132,1.9574-2.5133h0s.8804,1.1046,1.529,3.2036c.6379,2.0646.4895,2.5899.3822,2.8586-.4446,1.1135-1.6835,1.579-2.1101,1.719,1.8865-.1157,3.773-.2314,5.6594-.3472-.3894-.7289-.7825-1.4593-1.1794-2.1912-1.3054-2.4072-2.6209-4.7737-3.9444-7.0998-.3994.3855-.9368.9313-1.5286,1.6219-.5713.6666-1.3375,1.5607-2.0134,2.74-.4794.8365-1.1051,2.151-1.4647,3.9334.4524.0718.9047.1436,1.3571.2155Z"/>
          <path class="cls-3" d="M25.7172,11.2979c-.1794-.8782-.5427-2.1214-1.3285-3.456-.6057-1.0286-1.2827-1.806-1.8426-2.3574-.5298,1.0012-.9555,1.9293-1.2987,2.7548-.4247,1.0215-.6843,1.8433-.4245,2.7374.0136.0467.0283.0862.0423.1213.4446,1.1135,1.6835,1.579,2.1101,1.719-1.8865-.1157-3.773-.2314-5.6594-.3472.3923-.7308.7855-1.4612,1.1794-2.1912,1.2866-2.3841,2.5819-4.7637,3.8858-7.1387.0632.0772.1566.1929.2658.3358.6306.8244.9218,1.4135,1.1812,1.8527.8203,1.3891,1.2372,1.1365,1.8794,2.3966.1658.3254.3165.755.618,1.6141.2727.7773.4728,1.4265.6043,1.873-.4042.0286-.8083.0573-1.2125.0859Z"/>
          <path class="cls-3" d="M4.9728,13.0066s-4.0263,1.9222-4.0263,1.9222l.8248.5108c.7729-.1819,1.4858-.3108,2.1224-.4028,0,0,.834-.1202,1.6652-.1819,2.262-.1679,6.5834.1176,9.021.7886.223.0614.8658.2459,1.7296.2382.7543-.0067,1.3135-.1567,1.5322-.2136,1.2446-.3238,4.4758-1.1647,7.5175-.9118.3374.028.93.1091,2.1151.2711,1.2497.1709,2.2781.3303,2.9815.4436l.3568-.5914-4.3831-1.7497s-1.1322.0394-1.3761.0739c-2.204.3119-3.01.0717-10.3716.2218-5.7538.1173-6.4688.2887-7.9252-.1479-.3951-.1184-.9797-.3221-1.7838-.2711Z"/>
          <path class="cls-3" d="M7.7084,13.6461c.079.0359.3471.1484.3471.1484l8.2891-.2149,7.4104.1588s.3654-.0714.5446-.1109c-.0269-.2213-.0538-.4426-.0808-.6639-3.4028-.4346-6.1656-.5066-8.0526-.4929-3.7083.027-8.4172.4173-8.4172.4173-.0245.0815-.0466.1784-.0586.2884-.0205.1876-.0044.349.018.4697Z"/>
          <path class="cls-3" d="M12.4585,7.4255c.0094,1.248.0189,2.4959.0283,3.7439.2575-.134.5151-.2681.7726-.4021-.0074-.9835-.0149-1.9671-.0223-2.9506-.2595-.1304-.5191-.2608-.7786-.3911Z"/>
          <path class="cls-3" d="M16.1286,5.4617c-1.2315.6513-2.4631,1.3026-3.6946,1.954.2548.1502.5096.3004.7644.4506.9706-.5133,1.9412-1.0266,2.9118-1.54.0061-.2882.0123-.5764.0184-.8646Z"/>
          <path class="cls-3" d="M19.8421,7.3146c-1.2499-.6176-2.4999-1.2353-3.7498-1.8529.0151.2882.0301.5764.0452.8646.9851.4868,1.9702.9736,2.9553,1.4603.2498-.1573.4996-.3147.7493-.472Z"/>
          <path class="cls-3" d="M19.8421,11.1184c-.0094-1.2572-.0189-2.5144-.0283-3.7717-.2575.135-.5151.2701-.7726.4051.0074.9908.0149,1.9817.0223,2.9725.2595.1313.5191.2627.7786.394Z"/>
          <path class="cls-3" d="M16.1553,13.1344c1.237-.6542,2.4739-1.3083,3.7109-1.9625-.2554-.1499-.5108-.2998-.7662-.4497-.9749.5156-1.9498,1.0311-2.9247,1.5467-.0067.2885-.0134.577-.0201.8655Z"/>
          <path class="cls-3" d="M12.4744,11.1842c1.235.648,2.47,1.2961,3.705,1.9441-.0078-.2886-.0156-.5771-.0234-.8657-.9733-.5107-1.9467-1.0215-2.92-1.5322-.2539.1513-.5077.3025-.7616.4538Z"/>
          <polygon class="cls-3" points="19.8079 11.1176 16.1615 13.0155 12.4868 11.1694 12.4585 7.4255 16.1049 5.5277 19.7796 7.3738 19.8079 11.1176"/>
          <polygon class="cls-3" points="19.0293 10.7265 16.1555 12.2222 13.2594 10.7673 13.2371 7.8167 16.1109 6.3209 19.007 7.7759 19.0293 10.7265"/>
          <polygon class="cls-3" points="4.4186 11.2815 8.2792 11.3185 8.0499 13.6843 4.0268 13.2345 4.4186 11.2815"/>
          <polygon class="cls-3" points="27.422 11.2815 23.5613 11.3185 23.7906 13.6843 27.8138 13.2345 27.422 11.2815"/>
          <path class="cls-3" d="M21.2238,5.2879c.0555-.8389-.4664-1.5863-1.2171-1.8079-.584-.1724-1.237-.0062-1.7081.4189V1.5517c.2569.1323.6505.3129,1.1548.4567.5904.1683.8724.1549,1.3241.2764.3921.1054.9347.3186,1.5366.7983-.3634.7349-.7269,1.4698-1.0903,2.2048Z"/>
          <path class="cls-3" d="M11.0034,5.2879c-.0555-.8389.4664-1.5863,1.2172-1.8079.584-.1724,1.237-.0062,1.7081.4189-.0178-.809-.0356-1.6179-.0534-2.4269-.1655.1038-.4324.2558-.7835.3861-.7785.289-1.0181.118-1.6421.4266-.3157.1562-.3728.2585-.8951.516-.2529.1246-.4683.2134-.6141.27.3543.739.7086,1.4781,1.0629,2.2171Z"/>
          <path class="cls-3" d="M13.9286,3.2952c.0806-.1002.9331-1.1232,2.3374-1.0597,1.1719.053,1.8723.824,1.99.958-.0204-.5723-.0409-1.1445-.0613-1.7168-.3847-.182-1.0295-.4279-1.8634-.478-1.0861-.0652-1.9278.2359-2.3477.4194-.0183.6257-.0366,1.2513-.0549,1.877Z"/>
          <path class="cls-3" d="M3.6286,14.3804c-.0076-.1461,1.9707-.3694,2.733-.4436.7671-.0747,1.0646-.0727,3.8715-.1523,1.9292-.0548,2.1855-.067,3.5362-.0997.998-.0242,1.4886-.043,2.2356-.0481.8636-.0059,1.5538.0042,2.0832.0123,1.1827.0181,1.069.0353,2.2998.0554.0975.0016.8529.0154,2.3635.0431.1753.0032.5421.0104,1.0257.0431,0,0,.3905.03.7944.0696,1.9262.1885,4.1637.5527,4.1513.6681-.0105.0971-1.7262-.0199-3.3064-.0924-2.9564-.1357-4.1699-.0577-9.709.0185-6.2817.0864-12.0664.166-12.0789-.0739Z"/>
          <path class="cls-3" d="M12.0094,15.694c1.3622.3877,2.7245.7754,4.0867,1.1631,1.3124-.3943,2.6247-.7886,3.9371-1.1829-1.3102.2382-2.6205.4764-3.9307.7147-1.3644-.2316-2.7287-.4633-4.0931-.6949Z"/>
          <path class="cls-3" d="M8.9036,18.9641c-.2612-.8071-.5224-1.6141-.7836-2.4212.121.8748.2421,1.7497.3631,2.6245l2.7713,1.2014,1.0512,1.1089c.6986-.5167,1.3198-.9008,1.7902-1.1706,1.3142-.7538,1.7217-.7706,1.8794-.7701.6674.0022,1.1791.3298,1.8284.7455,1.0721.6864,1.7838,1.1767,1.7838,1.1767.3313-.3573.6626-.7147.9938-1.072l2.5993-1.1644s.4444-2.6203.3631-2.6245c-.0762-.0039-.6689,2.2733-.6689,2.2733-.8664.3234-1.7328.6469-2.5993.9703-.2748.2885-.5495.5771-.8243.8656-.2858-.221-.6269-.4694-1.0216-.7282-.5677-.3722-.8606-.5616-1.2997-.7235-.3565-.1314-.7375-.2719-1.2375-.2395-.3556.0231-.6097.1294-1.1181.3419-.4774.1996-.8151.397-1.2232.6376-.2891.1704-.6699.4067-1.1053.7116-.2739-.2567-.5479-.5134-.8218-.7701l-2.7203-.9734Z"/>
          <g>
            <path class="cls-11" d="M10.3841,21.5667c.2901-.3993.5802-.7987.8703-1.198"/>
            <path class="cls-11" d="M10.3841,21.5668c.0681-.5367.3925-.9815.8752-1.1945-.0945.5361-.3737.9599-.8752,1.1945h0Z"/>
          </g>
          <g>
            <path class="cls-11" d="M11.4349,22.6721c.2894-.3981.5789-.7962.8683-1.1944"/>
            <path class="cls-11" d="M11.4349,22.672c.0675-.5356.391-.9788.873-1.1908-.0936.5348-.3725.9576-.873,1.1908h0Z"/>
          </g>
          <g>
            <path class="cls-11" d="M21.4544,21.5823c-.2901-.3993-.5802-.7987-.8703-1.198"/>
            <path class="cls-11" d="M21.4544,21.5823c-.4895-.2307-.812-.6764-.8655-1.2015.4806.2554.7973.6522.8655,1.2015h0Z"/>
          </g>
          <g>
            <path class="cls-11" d="M20.4202,22.6011c-.2763-.3801-.5527-.7602-.829-1.1403"/>
            <path class="cls-11" d="M20.4203,22.6011c-.4756-.2112-.784-.6383-.8243-1.1438.4668.236.7699.614.8243,1.1438h0Z"/>
          </g>
          <g>
            <path class="cls-11" d="M11.2544,20.3688c.1232-.1438.2463-.2875.3695-.4313"/>
            <path class="cls-11" d="M11.2545,20.3688c-.0937-.2934.0862-.4793.374-.4273.0629.295-.0589.4643-.374.4273h0Z"/>
          </g>
          <g>
            <path class="cls-11" d="M8.4831,19.1674l.4205-.2033"/>
            <path class="cls-11" d="M8.483,19.1674c.0038-.294.2087-.3711.4231-.1979-.0249.2769-.1863.3725-.4231.1979h0Z"/>
          </g>
          <g>
            <path class="cls-11" d="M12.3056,21.4777c.0467-.2567.0934-.5134.1402-.7701"/>
            <path class="cls-11" d="M12.3055,21.4777c-.2151-.2733-.145-.6037.1462-.7691.1897.2937.1593.5718-.1462.7691h0Z"/>
          </g>
          <g>
            <path class="cls-11" d="M19.5873,21.4592c-.0454-.2505-.0908-.5011-.1362-.7516"/>
            <path class="cls-11" d="M19.5873,21.4592c-.2961-.1741-.3457-.5017-.1302-.7527.2798.2018.3479.467.1302.7527h0Z"/>
          </g>
          <g>
            <path class="cls-11" d="M20.5841,20.3843c-.1029-.1808-.2058-.3615-.3087-.5423"/>
            <path class="cls-11" d="M20.5841,20.3843c-.316-.0266-.4424-.2765-.3035-.5453.308.0569.4361.2447.3035.5453h0Z"/>
          </g>
          <g>
            <path class="cls-11" d="M23.1804,19.2228c-.1546-.0955-.3091-.191-.4637-.2865"/>
            <path class="cls-11" d="M23.1805,19.2228c-.2699.1416-.4729-.0035-.4607-.2916.2685-.1143.4601-.0157.4607.2916h0Z"/>
          </g>
          <path class="cls-11" d="M13.9823,1.3583c.2089,1.7654.1612,3.5352,0,5.3021,0,0-.1075,0-.1075,0-.1612-1.7669-.2089-3.5366,0-5.3021,0,0,.1075,0,.1075,0h0Z"/>
          <path class="cls-11" d="M18.3097,1.3583c.2089,1.7654.1612,3.5352,0,5.3021,0,0-.1075,0-.1075,0-.1612-1.7669-.2089-3.5366,0-5.3021,0,0,.1075,0,.1075,0h0Z"/>
          <g>
            <path class="cls-11" d="M9.86,3.0376c.501.8666,1.0195,1.8916,1.4869,3.0701.5471,1.3796.8991,2.6545,1.13,3.7518"/>
            <path class="cls-11" d="M9.9066,3.0107c1.4092,2.0146,2.2801,4.4102,2.6228,6.8377,0,0-.1053.0222-.1053.0222-.6627-2.3595-1.572-4.5887-2.6106-6.8061,0,0,.0931-.0538.0931-.0538h0Z"/>
          </g>
          <g>
            <path class="cls-11" d="M22.3867,3.0376c-.501.8666-1.0195,1.8916-1.4869,3.0701-.5471,1.3796-.8991,2.6545-1.13,3.7518"/>
            <path class="cls-11" d="M22.4332,3.0645c-1.0389,2.2174-1.9477,4.4467-2.6108,6.8061,0,0-.105-.0222-.105-.0222.3426-2.4275,1.2136-4.8231,2.6228-6.8377,0,0,.0931.0538.0931.0538h0Z"/>
          </g>
          <g>
            <path class="cls-11" d="M9.9405,3.0708c.1439-.0695.3252-.1555.5359-.2518.2217-.1013.3922-.1758.4555-.2033.3649-.1587.5474-.238.7932-.3265.0796-.0287.3241-.1154.567-.1848.0412-.0118.1818-.0515.3281-.0924.107-.03.142-.0395.1656-.0462.0895-.0252.3287-.0926.5766-.2033.1341-.0599.3133-.1516.5128-.2903"/>
            <path class="cls-11" d="M9.9405,3.0708c1.1373-.9366,2.5784-1.1576,3.9348-1.5987-1.0176.8702-2.6661,1.1506-3.9348,1.5987h0Z"/>
          </g>
          <g>
            <path class="cls-11" d="M22.3141,3.0831c-.1254-.0759-.3056-.1793-.5304-.2888-.135-.0657-.2391-.1102-.442-.1964-.39-.1658-.585-.2486-.8126-.3197-.0463-.0145-.3148-.0983-.5491-.147-.1214-.0252-.1925-.0415-.3345-.0739-.0227-.0052-.0583-.0134-.1051-.0254-.1014-.0261-.1755-.0497-.2007-.0578-.2167-.0688-.3348-.097-.4635-.1409-.1373-.0468-.3316-.1269-.5614-.2703"/>
            <path class="cls-11" d="M22.3141,3.0831c-.5945-.1937-1.4305-.5057-2.0164-.6711-.6652-.1831-1.443-.3607-1.9829-.8491,1.3724.3764,2.9005.4967,3.9993,1.5202h0Z"/>
          </g>
          <g>
            <path class="cls-11" d="M13.9836,1.4182c.1603-.0903.4084-.2126.7294-.3019.1839-.0511.4235-.1002,1.427-.0986,1.0034.0016,1.2272.0514,1.4334.1263.2801.1018.4891.2359.6211.3327"/>
            <path class="cls-11" d="M13.9835,1.4182c.5764-.4886,1.3756-.6162,2.1209-.5898.7224.0078,1.5972.0418,2.0903.6484-.6822-.349-1.3585-.2855-2.0903-.2695-.7385-.045-1.4116.0077-2.1208.2109h0Z"/>
          </g>
          <g>
            <path class="cls-11" d="M5.68,14.2952c-.2312.0086-.4625.0171-.6937.0257-.1159.0569-.2973.145-.5212.2488-.9114.4228-1.2717.4761-1.8255.782-.2101.116-.5263.3106-.8823.6187.2309.2037.4618.4074.6926.6111.3068-.0897.6414-.1745,1.0018-.2475.4278-.0867.8294-.1442,1.1978-.1814,0,0,1.1406-.1496,2.1127-.2025.7601-.0414,3.0646.1279,6.1326.6419"/>
            <path class="cls-11" d="M5.68,14.2952c.0202.0013-.9126.2783-.6094.1975-1.0482.5548-2.2661.8458-3.1884,1.6221,0,0,.0014-.2873.0014-.2873l.6895.6146-.1753-.039c3.455-.916,7.0455-.4903,10.4968.1901-3.4856-.5588-7.068-.8334-10.4912.1949-.0231-.0136-.7281-.6405-.7722-.6743,0,0-.1812-.1581-.1812-.1581l.1824-.1294c.9425-.8132,2.1758-1.1477,3.2696-1.6768,0,0,.0522-.0254.0522-.0254l.0251.0059.7007.1653h0Z"/>
          </g>
          <g>
            <path class="cls-11" d="M26.2943,14.2034c.2357.0123.4714.0246.7072.037.1134.0612.2919.1555.5138.2642.8993.4404,1.2948.4436,1.8255.782.2004.1278.4915.3471.7867.7207-.209.1514-.4181.3027-.6271.4541-.5608-.119-1.298-.2578-2.1696-.3739,0,0-1.1319-.1507-2.1127-.2025-.7586-.0401-3.0015.1119-5.9838.6025"/>
            <path class="cls-11" d="M26.2943,14.2034l.717-.154s.0273-.0058.0273-.0058c1.0692.6385,2.4763.7597,3.238,1.8455,0,0,.1209.1589.1209.1589-.0969.0665-.677.4869-.7878.5642,0,0-.0679.0486-.0679.0486-.8636-.1867-1.7323-.3603-2.6094-.4766-2.5633-.4281-5.1468-.0266-7.6985.3022,3.1525-.6471,7.5632-1.0466,10.1573-.176,0,0,.6245-.4573.6245-.4573l-.0376.2721c-.6147-.9536-2.4164-1.2-2.9869-1.6939,0,0-.697-.228-.697-.228h0Z"/>
          </g>
          <g>
            <path class="cls-11" d="M5.2624,11.3695c-.2278.0323-.4555.0647-.6833.097-.1051.5345-.2102,1.0689-.3154,1.6034.1895.0601.3791.1201.5686.1802"/>
            <path class="cls-11" d="M5.2623,11.3694l-.6562.2864.1606-.1523-.3152,1.6032-.1299-.2191.5107.3625c-.1278-.0043-.6833.0057-.7996.0027.0134-.0607.3336-1.7012.3586-1.823,0,0,.0332-.1691.0332-.1691.0677.01.7508.0968.8376.1089h0Z"/>
          </g>
          <g>
            <path class="cls-11" d="M26.5653,11.3608c.2278.0323.4555.0647.6833.097.1051.5345.2102,1.0689.3154,1.6034-.1895.0601-.3791.1201-.5686.1802"/>
            <path class="cls-11" d="M26.5653,11.3608c.0906-.0128.7667-.0989.8376-.1089,0,0,.0332.1691.0332.1691.0256.1273.3453,1.757.3586,1.8231-.1123-.0006-.6754-.0021-.7996-.0027,0,0,.5107-.3625.5107-.3625l-.1299.2191-.3152-1.6031.1606.1523-.6562-.2864h0Z"/>
          </g>
          <g>
            <path class="cls-11" d="M6.2849,17.3855c.1248.433.2406.9416.3154,1.5156.0787.6041.0949,1.15.0812,1.6172"/>
            <path class="cls-11" d="M6.2999,17.3812c.5071.9597.6079,2.0858.3816,3.1371-.2033-.8961-.4859-2.2889-.3816-3.1371h0Z"/>
          </g>
          <g>
            <path class="cls-11" d="M7.9015,21.0959l-.1672.3003c-.3584.6546-.7167,1.3092-1.0751,1.9638.4855.5505.8784,1.0041,1.1451,1.3138,1.1797,1.3698,1.5752,1.8806,2.1533,2.5259.2053.2291.3834.438.7395.8558.377.4422.1858.2349.2676.3265.1005.1127.1817.1932.2514.3338.0355.0717.0559.1343.0675.1756"/>
            <path class="cls-11" d="M7.9098,21.1005c.1197.2618-.0832.4368-.1594.6492-.1854.3919-.7042,1.3118-.9234,1.7019,0,0-.0244-.218-.0244-.218,1.149,1.3126,2.3884,2.7849,3.4988,4.1393,0,0,.5803.6962.5803.6962.1524.2519.5261.4877.4019.8224-1.3944-1.4551-3.3965-3.8587-4.7677-5.4049,0,0-.0876-.1008-.0876-.1008,0,0,.0632-.1177.0632-.1177l.6111-1.1379c.1494-.2745.3293-.5666.4959-.8328.0456-.0874.1442-.2135.3113-.1968h0Z"/>
          </g>
          <g>
            <path class="cls-11" d="M8.0405,21.6113c.6506.5343,1.6159,1.461,2.3954,2.8586.8861,1.5888,1.1253,3.0571,1.1977,3.9183"/>
            <path class="cls-11" d="M8.0414,21.6103c2.2292,1.4384,3.6392,4.1339,3.5923,6.778-.4649-2.6139-1.7483-4.8916-3.5923-6.778h0Z"/>
          </g>
          <path class="cls-3" d="M16.0038,22.4141c.0127,1.4663.0255,2.9326.0382,4.3988-.2007-.0851-.4015-.1701-.6022-.2552-.0072-1.3112-.0144-2.6223-.0216-3.9335l.5856-.2101Z"/>
          <path class="cls-3" d="M16.0038,22.4141c.0127,1.4663.0255,2.9326.0382,4.3988.1784-.0645.3568-.1291.5351-.1936.0161-1.3222.0321-2.6445.0482-3.9667-.2072-.0795-.4144-.159-.6216-.2385Z"/>
          <path class="cls-3" d="M14.2114,23.066c.0502,1.4694.1003,2.9388.1505,4.4082-.1439-.0397-.2879-.0794-.4318-.1191l-.1325-4.1502c.1379-.0463.2759-.0926.4138-.1389Z"/>
          <path class="cls-3" d="M14.2114,23.066c.0502,1.4694.1003,2.9388.1505,4.4082.1045-.1576.2089-.3153.3134-.4729-.0263-1.3607-.0525-2.7215-.0788-4.0822-.1284.049-.2567.0979-.3851.1469Z"/>
          <path class="cls-3" d="M12.4585,23.6864c.2205,1.4256.4411,2.8511.6616,4.2767.098-.1225.196-.2451.294-.3676-.2109-1.3416-.4218-2.6833-.6327-4.0249-.1076.0386-.2153.0773-.3229.1159Z"/>
          <path class="cls-3" d="M19.3197,23.6864c-.2166,1.4293-.4332,2.8586-.6498,4.2879-.0637-.1263-.1274-.2526-.1911-.3789l.6306-3.9897c.0701.0269.1402.0538.2103.0807Z"/>
          <path class="cls-3" d="M17.7331,23.0776c-.0488,1.4727-.0975,2.9453-.1463,4.418.1253-.0468.2507-.0937.376-.1405l.1314-4.139c-.1203-.0462-.2407-.0923-.361-.1385Z"/>
          <path class="cls-3" d="M17.7331,23.0776c-.0488,1.4727-.0975,2.9453-.1463,4.418-.0817-.1442-.1634-.2885-.2452-.4327.0274-1.368.0547-2.736.0821-4.104.1031.0396.2062.0791.3094.1187Z"/>
          <path class="cls-3" d="M13.1201,27.9631c.4139-.1629.8279-.3258,1.2418-.4888-.1439-.0397-.2879-.0794-.4318-.1191-.172.0801-.344.1602-.516.2403-.098.1225-.196.2451-.294.3676Z"/>
          <path class="cls-3" d="M14.3619,27.4743c.56-.2204,1.1201-.4409,1.6801-.6613-.2007-.0851-.4015-.1701-.6022-.2552-.2544.1378-.5089.2757-.7633.4135-.1049.1677-.2097.3354-.3146.503Z"/>
          <path class="cls-3" d="M17.5868,27.4956c-.5149-.2276-1.0299-.4551-1.5448-.6827.1784-.0645.3568-.1291.5351-.1936.2548.1479.5097.2957.7645.4436.0817.1442.1634.2885.2452.4327Z"/>
          <path class="cls-3" d="M18.6699,27.9743c-.361-.1596-.7221-.3191-1.0831-.4787.1253-.0468.2507-.0937.376-.1405.172.0801.344.1602.516.2403.0637.1263.1274.2526.1911.3789Z"/>
          <g>
            <path class="cls-11" d="M12.8835,27.0635c1.0558-.4483,2.1116-.8967,3.1675-1.345.9512.4594,1.9025.9187,2.8537,1.3781"/>
            <polygon class="cls-11" points="12.8834 27.0635 15.9762 25.5425 16.0565 25.5029 16.1341 25.5463 18.9046 27.0965 15.9679 25.8907 16.1256 25.8946 12.8834 27.0635 12.8834 27.0635"/>
          </g>
          <ellipse class="cls-3" cx="6.9718" cy="12.5221" rx=".9837" ry=".9513"/>
          <ellipse class="cls-3" cx="6.9796" cy="12.4208" rx=".9837" ry=".9513"/>
          <ellipse class="cls-3" cx="6.9796" cy="12.4208" rx=".701" ry=".6779"/>
          <line class="cls-3" x1="7.0114" y1="11.744" x2="6.9796" y2="13.0987"/>
          <path class="cls-3" d="M6.337,12.6918c.2248-.0903.4496-.1806.6744-.271"/>
          <path class="cls-3" d="M7.6806,12.6918l-.6744-.271"/>
          <ellipse class="cls-3" cx="24.8795" cy="12.4715" rx=".9837" ry=".9513"/>
          <ellipse class="cls-3" cx="24.8716" cy="12.3702" rx=".9837" ry=".9513"/>
          <ellipse class="cls-3" cx="24.8716" cy="12.3702" rx=".701" ry=".6779"/>
          <path class="cls-3" d="M14.2779,9.4317c.5912.5119,1.1823,1.0237,1.7735,1.5356.7802-1.0355,1.5603-2.0711,2.3405-3.1066"/>
          <path class="cls-3" d="M14.4428,9.2268c.5266.4657,1.0533.9313,1.5799,1.397.7348-.9544,1.4695-1.9088,2.2043-2.8632"/>
          <g>
            <path class="cls-11" d="M12.6429,11.0768c.1631-.0786.3261-.1572.4892-.2358"/>
            <path class="cls-11" d="M12.6429,11.0768c.025-.3031.2563-.3962.4917-.2304-.0473.2874-.233.3956-.4917.2304h0Z"/>
          </g>
          <g>
            <path class="cls-11" d="M12.6174,7.5143c.1652.0769.3303.1539.4955.2308"/>
            <path class="cls-11" d="M12.6173,7.5143c.2518-.1719.4707-.0519.4932.2363-.2538.1448-.456.0691-.4932-.2363h0Z"/>
          </g>
          <g>
            <path class="cls-11" d="M16.1595,12.3583c.0006.1627.0012.3254.0018.4881"/>
            <path class="cls-11" d="M16.1595,12.3583c.2634.1367.2452.3634-.0044.4881-.2387-.1489-.2556-.3435.0044-.4881h0Z"/>
          </g>
          <g>
            <path class="cls-11" d="M19.1522,10.7965c.1684.0795.3367.159.5051.2385"/>
            <path class="cls-11" d="M19.1522,10.7965c.2558-.1689.4789-.0457.5025.244-.2652.1399-.4576.0685-.5025-.244h0Z"/>
          </g>
          <g>
            <path class="cls-11" d="M19.1307,7.703c.1672-.0801.3345-.1602.5017-.2403"/>
            <path class="cls-11" d="M19.1307,7.703c.0294-.3048.2655-.3998.5041-.2348-.0517.2891-.2422.399-.5041.2348h0Z"/>
          </g>
          <g>
            <path class="cls-11" d="M16.1097,6.1886c-.001-.164-.002-.3281-.003-.4921"/>
            <path class="cls-11" d="M16.1097,6.1886c-.2637-.1372-.2462-.3657.0031-.4921.2391.1496.2566.3455-.0031.4921h0Z"/>
          </g>
          <path class="cls-3" d="M13.8469,17.8984l-3.5931-1.4293s.898,2.2714,2.3699,2.144c.5037-.0436,1.2232-.7147,1.2232-.7147Z"/>
          <path class="cls-3" d="M18.0248,17.9979l3.5931-1.4293s-.898,2.2714-2.3699,2.144c-.5037-.0436-1.2232-.7147-1.2232-.7147Z"/>
          <ellipse class="cls-10" cx="12.0885" cy="17.7261" rx="2.5871" ry="2.5018"/>
          <ellipse class="cls-10" cx="19.8861" cy="17.7955" rx="2.5871" ry="2.5018"/>
          <g>
            <polyline class="cls-11" points="12.4585 23.6864 16.0038 22.4141 19.3197 23.6864"/>
            <path class="cls-11" d="M12.4574,23.6833l3.4817-1.4491.0674-.028.0659.0295,3.2473,1.4507-3.3843-1.0936.1328.0015c-.0022-.0057-3.617,1.1102-3.6108,1.0891h0Z"/>
          </g>
          <path class="cls-3" d="M12.5292,24.1434c.1057-.0535.2114-.1069.3171-.1604-.0216-.1375-.0432-.275-.0648-.4125-.1076.0386-.2153.0773-.3229.1159.0236.1523.0471.3047.0707.457Z"/>
          <path class="cls-3" d="M19.2523,24.1314l-.2114-.1132c.0216-.1375.0432-.275.0648-.4125.0713.0269.1427.0538.214.0807-.0225.1483-.045.2967-.0674.445Z"/>
          <path class="cls-3" d="M13.8155,23.5914c.1317-.001.2633-.0021.395-.0031l.3936-.2244c.0004-.1377.0009-.2755.0013-.4132-.1348.0503-.2697.1006-.4045.1509-.1317.0452-.2633.0904-.395.1355.0032.1181.0064.2362.0096.3542Z"/>
          <path class="cls-3" d="M18.0818,23.6054c-.1178-.0009-.2356-.0018-.3535-.0028-.1044-.0688-.2088-.1375-.3133-.2063.0027-.1309.0053-.2618.008-.3928.1043.0367.2093.0742.3148.1124.1209.0438.2405.0878.3587.132-.0049.1191-.0099.2383-.0148.3574Z"/>
          <path class="cls-3" d="M15.4192,23.1005c.1979.0354.3958.0708.5937.1063.2022-.037.4044-.0739.6067-.1109.0018-.1264.0036-.2527.0054-.3791-.2076-.0748-.4152-.1497-.6228-.2245l-.5837.1967c.0003.1372.0005.2744.0008.4115Z"/>
          <g>
            <path class="cls-11" d="M9.5422,11.7646c-.1055-.5668-.3101-1.3081-.7263-2.107-.6947-1.3335-1.6401-2.1768-2.2391-2.6303"/>
            <path class="cls-11" d="M9.5423,11.7646c-.6081-1.8351-1.6243-3.3839-2.962-4.7421,1.6729.9358,2.9031,2.8098,2.962,4.7421h0Z"/>
          </g>
          <g>
            <path class="cls-11" d="M9.8593,3.1324c-.0431.0374-.1092.0968-.1845.1745-.2379.2458-.3564.4493-.5107.6953-.0796.1268-.1932.2796-.4205.5853-.253.3403-.4599.5625-.8342.962-.7638.8152-1.0104.9775-1.3326,1.4778-.1763.2737-.2722.4886-.3198.6041-.1106.268-.1363.4239-.2186.7139-.0843.2971-.1683.5139-.3361.9476-.1256.3246-.2605.6311-.5252,1.231-.1275.2889-.2344.5272-.3082.6908"/>
            <path class="cls-11" d="M9.8592,3.1324c-.5411.6005-.8135,1.3879-1.3692,1.9843-.5965.8291-1.442,1.4018-1.9028,2.2722-.5375,1.268-.9866,2.6333-1.7183,3.8257.6536-1.5185.8583-3.1036,1.7243-4.5361.8212-.9493,1.6998-1.6777,2.4379-2.6597.2376-.3165.4866-.6656.8281-.8863h0Z"/>
          </g>
          <g>
            <path class="cls-11" d="M22.1815,11.6661c.1055-.5668.3101-1.3081.7263-2.107.6947-1.3335,1.6401-2.1768,2.2391-2.6303"/>
            <path class="cls-11" d="M22.1815,11.6661c.0583-1.9324,1.2893-3.8062,2.9616-4.7422-1.3371,1.3584-2.3541,2.9069-2.9616,4.7422h0Z"/>
          </g>
          <g>
            <path class="cls-11" d="M22.381,3.1374c.0378.0418.0933.1054.1561.186.2021.2595.3039.4702.4077.6654.0484.0909.1639.2824.395.6654.1016.1685.3749.6189.7135,1.0597.5735.7464.8655.8547,1.2745,1.5013.1642.2596.3249.5556.3249.5556.0517.0953.192.3548.3245.6538.0791.1784.126.3046.3568.9981.1865.5606.2629.7997.4213,1.2718.0742.2211.1354.401.1744.5152"/>
            <path class="cls-11" d="M22.381,3.1374c.791.8722,1.3141,1.9237,2.0833,2.7978.5525.523,1.0952,1.1866,1.4115,1.9021.519,1.052.7571,2.2491,1.054,3.3723-.6412-1.398-1.0282-2.9476-1.9583-4.1798-1.1313-1.081-1.8668-2.5347-2.5906-3.8923h0Z"/>
          </g>
        </g>
        <polygon class="cls-6" points="24.8047 17.2859 24.4065 20.4253 23.3288 20.6127 23.7505 17.3093 24.8047 17.2859"/>
        <path d="M24.383,15.1071c-.8011,3.9936-.9251,5.2722-.8008,5.4423.0138.0188.0941.2958.0941.2958,0,0-.1082.1736-.1689.2127-.2704-.2811-.5408-.5623-.8112-.8434.3358-1.7102.6716-3.4205,1.0074-5.1307l.6794.0234Z"/>
        <path class="cls-6" d="M22.9363,20.4988l.5711.5591,1.0894,2.0207-4.4806,5.3416-1.23-1.1948c.0576-1.4311.3232-2.5665.5704-3.3629.1921-.6187.3237-1.0322.6192-1.4848.8133-1.2452,2.1612-1.7031,2.8604-1.8789Z"/>
        <path d="M23.2943,20.8492c-.3494.1436-.834.3846-1.3332.7884-.7947.6429-1.1956,1.3502-1.4489,1.8073-.3981.7183-.5673,1.3114-.9056,2.4976-.1865.6538-.3153,1.2052-.3994,1.5946-.107-.104-.214-.2079-.3211-.3119.0338-.5045.1068-1.2306.2811-2.091.2364-1.1663.3922-1.9349.8373-2.6427.2424-.3854,1.0133-1.4566,2.9316-1.9928.1193.1168.2387.2337.358.3505Z"/>
        <path class="cls-12" d="M24.7147,17.3809c-.0815,1.0201-.2106,1.9646-.3737,2.9757-.1243-.9828-.0619-2.1034.3737-2.9757h0Z"/>
        <path class="cls-12" d="M23.0919,21.3963c-1.7869,1.7279-2.9636,3.9754-3.3039,6.4422.0433-2.4805,1.294-4.9756,3.3039-6.4422h0Z"/>
        <polygon class="cls-6" points="6.9428 17.3526 7.3411 20.4919 8.4188 20.6794 7.9971 17.376 6.9428 17.3526"/>
        <path d="M7.3645,15.1738c.8011,3.9936.9251,5.2722.8008,5.4423-.0138.0188-.0941.2958-.0941.2958,0,0,.1082.1736.1689.2127.2704-.2811.5408-.5623.8112-.8434-.3358-1.7102-.6716-3.4205-1.0074-5.1307l-.6794.0234Z"/>
        <path d="M8.4773,15.2195s-.3204,3.2021.8434,3.9359c.7196.4537,1.4753.1413,2.4131.8903.6532.5218.5438.8788.984,1.0308,1.061.3663,1.8848-1.6428,3.3971-1.5931,1.3066.0429,1.6469,1.5741,2.9051,1.4291.5319-.0613.517-.3403,1.8742-1.1011,1.2738-.7141,1.9211-.984,1.9211-.984l.3514-3.8656c-.6511.1254-1.6479.3265-2.8582.6091-3.2777.7653-3.0568.9459-3.9828.984-2.0244.0833-2.5016-.8035-5.693-1.1948-.915-.1122-1.6704-.1368-2.1554-.1406Z"/>
        <path class="cls-6" d="M8.1084,15.2941l.7028,5.2713c1.9378.5744,2.7027,1.6044,2.9871,2.0734.3879.6396.5475,1.4415.8668,3.0454.1835.9218.2978,1.6976.369,2.2491.9878-.3906,1.9755-.7812,2.9633-1.1718.8975.4026,1.7951.8051,2.6926,1.2077.0445-.4263.1191-1.034.248-1.7578.2917-1.6387.4553-2.5696.9313-3.4088.2801-.4938,1.0509-1.6352,2.9675-2.3886.2692-1.6761.5384-3.3522.8076-5.0284-.2236-.0305-.4472-.061-.6709-.0915l-.6794,3.5637c-.4558.2441-.8363.383-1.107.4656-.2226.068-.6095.1708-1.0912.4145-.0936.0474-.1404.0711-.1757.0937-.488.3133-.5357.8239-.7844.8277-.0266.0004-.0497-.0045-.1581-.0659-.3797-.2151-.5814-.4136-.8128-.5847-.0455-.0336-.2446-.1465-.6413-.3748-.3671-.2114-.553-.3179-.6641-.3607-.1276-.0491-.4451-.1586-.8677-.1638-.0964-.0012-.4411,0-.8633.1391-.1984.0653-.3938.1729-.7764.3854-.311.1727-.5381.2988-.8484.4964-.5478.3489-.5756.4229-.733.4231-.3302.0006-.3887-.3258-.9096-.6866-.1842-.1275-.2746-.1544-1.3277-.5314-.4085-.1462-.7729-.2774-1.0836-.3898l-.779-3.7218s-.2563-.0805-.5623.0703Z"/>
        <path class="cls-13" d="M15.9772,22.2256c-1.0865.4032-2.173.8063-3.2594,1.2095.2028,1.3553.4055,2.7105.6083,4.0658.8954-.3645,1.7909-.7289,2.6863-1.0934.8053.368,1.6107.736,2.416,1.104.1991-1.3588.3983-2.7177.5974-4.0765-1.0162-.4032-2.0324-.8063-3.0486-1.2095Z"/>
        <path d="M16.5487,22.4523l.734.2912c-.0252,1.3005-.0503,2.6011-.0755,3.9016l-.7028-.4217c.0148-1.257.0296-2.5141.0443-3.7711Z"/>
        <path d="M15.4389,22.4254c-.2518.0934-.5036.1869-.7554.2803.0241,1.2936.0483,2.5873.0724,3.8809l.7028-.4217c-.0066-1.2465-.0132-2.493-.0199-3.7395Z"/>
        <path d="M13.0147,23.3249c.3115-.1156.623-.2312.9345-.3468l.1216,3.9448-.4744.2284c-.1939-1.2755-.3878-2.551-.5817-3.8264Z"/>
        <path d="M18.8325,23.3584c-.3111-.1234-.6223-.2469-.9334-.3703l-.1208,3.9349.4744.2284.5798-3.793Z"/>
        <path class="cls-6" d="M8.8112,20.5654l-.5711.5591-1.0894,2.0207,4.4806,5.3416,1.23-1.1948c-.0576-1.4311-.3232-2.5665-.5704-3.3629-.1921-.6187-.3237-1.0322-.6192-1.4848-.8133-1.2452-2.1612-1.7031-2.8604-1.8789Z"/>
        <path d="M8.4532,20.9159c.3494.1436.834.3846,1.3332.7884.7947.6429,1.1956,1.3502,1.4489,1.8073.3981.7183.5673,1.3114.9056,2.4976.1865.6538.3153,1.2052.3994,1.5946.107-.104.214-.2079.3211-.3119-.0338-.5045-.1068-1.2306-.2811-2.091-.2364-1.1663-.3922-1.9349-.8373-2.6427-.2424-.3854-1.0133-1.4566-2.9316-1.9928-.1193.1168-.2387.2337-.358.3505Z"/>
        <path class="cls-6" d="M1.5924,15.0683l1.1011.8903c1.1746-.2682,3.7841-.784,6.4619-.5766,1.2985.1005,2.3968.354,2.3968.354.3942.0657.6755.1675.7236.1786.4212.0974,1.5016.4267,2.0382.5886.4.1207.9964.2989,1.7395.514.6358-.1966,1.1402-.3549,1.4496-.4525,1.4644-.4615,1.855-.5981,2.5715-.7492.466-.0983.9108-.1685,1.0411-.1889.2285-.0358.7077-.1072,1.2573-.1601,1.3919-.134,2.5422-.0826,2.8499-.0669.9678.0495,1.6978.1609,2.132.2284.708.1101,1.319.2394,1.8098.3573.3679-.2979.7357-.5958,1.1036-.8937-.4487-.1835-1.1071-.4601-1.8977-.82-1.2796-.5825-1.4392-.7157-1.5359-.8062-.5852-.5476-.4919-1.0491-.9709-2.8251-.3447-1.2777-.5606-2.0785-1.1011-2.9754-.3093-.5131-.4494-.5903-.8169-.9909-.1905-.2077-.3775-.4258-.7293-.8833-.6711-.8725-.7466-1.474-1.4524-2.0487-.3688-.3003-.7796-.4934-1.0133-.6033-.2654-.1248-.5495-.2583-.9468-.3537-.406-.0974-1.5394-.3014-1.7562-.5139-.0006-.0006-.0014-.0014-.0028-.0028-.0608-.0596-.1664-.1559-.3134-.2542,0,0-.0993-.0664-.1982-.1181-.1744-.0912-.5101-.2069-1.6276-.2069,0,0-.8201-.0008-1.217.1656-.2026.0849-.3294.1741-.4217.2343-.6511.4242-1.2774.5048-1.8742.6794,0,0-1.0177.2977-1.9914.984-.8266.5826-.5498.7239-1.9914,2.2491-.8066.8534-1.2857,1.2244-1.6135,2.0756-.0863.2241-.0466.1815-.2646.9124-.2816.9442-.4182,1.2509-.6991,2.0959-.6407,1.9272-.8668,2.4131-.8668,2.4131,0,0-.5073.2852-1.6634.7731-.7469.3152-1.3371.6056-1.7102.7966Z"/>
        <path class="cls-12" d="M25.4679,11.9697c-.1245-.9405-.3463-1.7003-.5416-2.2459-.1549-.4328-.3431-.9499-.7168-1.561-.2831-.463-.4765-.659-.9557-1.2584-.3161-.3954-.758-.968-1.2646-1.696-.3949.6712-.9516,1.6935-1.4911,3.0022-.7677,1.8624-1.1573,2.8446-.733,3.6211.6135,1.1229,2.6473,1.2339,2.5227,1.226-1.7344-.11-3.4687-.22-5.2031-.33.358-.693.7194-1.3874,1.0843-2.0831,1.2165-2.3196,2.4427-4.5995,3.6764-6.8399.1669.2693.3961.6335.6756,1.0609.1578.2412.5021.7677.8283,1.2265.8516,1.1979.9566,1.0585,1.4177,1.784.5516.8679.7887,1.6768.9661,2.2822.1971.6725.298,1.2558.3532,1.6861l-.6184.1255Z"/>
        <path class="cls-12" d="M6.2419,11.8529c.2621-.805.4746-1.465.6212-1.9221.4596-1.4324.5228-1.6536.7593-2.0176.3665-.5643.5884-.6089,1.3168-1.4442.4729-.5424.8118-1.0196,1.0176-1.3263.4529.7466,1.0458,1.8106,1.6213,3.1475.8142,1.8915,1.1646,2.8235.7805,3.5415-.5985,1.1189-2.6465,1.2338-2.5227,1.226,1.7344-.11,3.4687-.22,5.2031-.33-.3742-.6185-.7463-1.25-1.1154-1.8948-1.3565-2.3696-2.5455-4.6942-3.5896-6.947-.0175.016-.0457.0423-.0794.0757-.1569.1551-.2575.289-.2997.3447-.1361.1802-.5099.6678-1.005,1.3238l-.0004.0004c-.7821.7219-1.1805,1.0925-1.5394,1.5606-.2057.2683-.3159.4121-.4248.6478-.08.1732-.1578.4208-.3133.9159-.0483.1539-.0639.1921-.1009.3265-.0397.1444-.0696.2403-.3345,1.0168-.2284.6693-.4285,1.2496-.5822,1.6932.1958.0205.3917.0411.5875.0616Z"/>
        <path class="cls-15" d="M5.9631,13.2023s-3.7016,1.8274-3.7016,1.8274l.7583.4856c.7106-.1729,1.366-.2954,1.9513-.3829,0,0,.7668-.1143,1.5309-.173,2.0796-.1596,6.0526.1118,8.2935.7497.205.0583.7959.2338,1.5901.2265.6935-.0064,1.2076-.149,1.4086-.2031,1.1442-.3079,4.1149-1.1072,6.9113-.8668.3102.0267.855.1037,1.9445.2577,1.149.1624,2.0944.314,2.7411.4217l.328-.5623-4.0296-1.6634s-1.0409.0375-1.2651.0703c-2.0263.2965-2.7673.0682-9.5352.2109-5.2899.1115-5.9471.2745-7.2861-.1406-.3632-.1126-.9007-.3062-1.64-.2577Z"/>
        <path class="cls-6" d="M8.3508,13.8899c.0727.0342.3191.141.3191.141l7.6206-.2043,6.8129.1509s.3359-.0679.5007-.1055c-.0248-.2104-.0495-.4208-.0743-.6312-3.1284-.4132-5.6684-.4816-7.4033-.4686-3.4093.0257-7.7385.3968-7.7385.3968-.0225.0775-.0429.1696-.0539.2742-.0188.1784-.0041.3318.0166.4466Z"/>
        <path class="cls-15" d="M11.7264,6.8194c.0109,1.4873.0217,2.9746.0326,4.4619.2968-.1597.5936-.3195.8904-.4792-.0086-1.1722-.0171-2.3443-.0257-3.5165-.2991-.1554-.5982-.3108-.8973-.4662Z"/>
        <path class="cls-15" d="M15.9562,4.479c-1.4193.7762-2.8387,1.5524-4.258,2.3287.2937.179.5873.358.881.5371,1.1186-.6118,2.2372-1.2235,3.3558-1.8353.0071-.3435.0141-.687.0212-1.0305Z"/>
        <path class="cls-15" d="M19.506,7.8707c-1.1491-.5872-2.2983-1.1744-3.4474-1.7616.0138.274.0277.548.0415.822.9057.4628,1.8113.9256,2.717,1.3883.2296-.1496.4593-.2992.6889-.4488Z"/>
        <path class="cls-15" d="M20.236,11.2205c-.0109-1.4983-.0217-2.9966-.0326-4.495-.2968.1609-.5936.3219-.8904.4828.0086,1.1809.0171,2.3617.0257,3.5426.2991.1565.5982.3131.8973.4696Z"/>
        <path class="cls-15" d="M15.987,13.6232c1.4256-.7796,2.8512-1.5592,4.2769-2.3388-.2943-.1787-.5887-.3573-.883-.536-1.1236.6144-2.2471,1.2288-3.3707,1.8433-.0077.3438-.0154.6877-.0232,1.0315Z"/>
        <path class="cls-15" d="M11.7448,11.2989c1.4234.7723,2.8467,1.5446,4.2701,2.3169-.009-.3439-.018-.6878-.027-1.0317-1.1218-.6087-2.2435-1.2173-3.3653-1.826-.2926.1803-.5851.3605-.8777.5408Z"/>
        <polygon class="cls-5" points="20.1967 11.2196 15.9941 13.4814 11.759 11.2813 11.7264 6.8194 15.9289 4.5576 20.1641 6.7577 20.1967 11.2196"/>
        <polygon class="cls-8" points="19.2993 10.7534 15.9872 12.536 12.6494 10.8021 12.6237 7.2856 15.9358 5.503 19.2736 7.237 19.2993 10.7534"/>
        <polygon class="cls-6" points="5.3263 11.642 8.8756 11.6771 8.6648 13.9262 4.9661 13.4987 5.3263 11.642"/>
        <polygon class="cls-6" points="26.4747 11.642 22.9253 11.6771 23.1362 13.9262 26.8349 13.4987 26.4747 11.642"/>
        <path class="cls-12" d="M20.7763,5.9439c.5844-1.2107-.0036-2.4248-.7292-2.6391-.626-.1849-1.5672.3117-1.9601,1.3187v-2.2315c.2362.1258.5981.2975,1.0617.4342.6688.1972.6577.0835,1.2173.2628.5823.1866.98.4359,1.1774.5719.1012.0697.1825.1322.2389.1772-.3353.702-.6707,1.4039-1.006,2.1059Z"/>
        <path class="cls-12" d="M11.3801,5.9439c-.4936-1.2855.1825-2.4548.9147-2.6076.5931-.1238,1.3994.3822,1.7746,1.2872-.0163-.7691-.0327-1.5381-.049-2.3072-.1522.0987-.3976.2432-.7203.367-.7157.2747-.936.1121-1.5096.4056-.2902.1484-.3428.2458-.8229.4905-.1705.0869-.3441.108-.5646.2567-.005.0033-.009.0061-.0116.0079l.9887,2.0999Z"/>
        <path class="cls-12" d="M14.0694,4.0495c.0116-.0603.2798-1.3421,1.3793-1.7113.1474-.0495.7166-.2309,1.338.0425.4475.1968.6919.5283.7885.677,0,0,.0973.1399.4726.8953-.0168-.5453-.0337-1.0906-.0505-1.6359-.1342-.0732-.3156-.1629-.5376-.2469-.0531-.0201-.579-.2156-1.1509-.2628-1.0228-.0845-1.9331.3266-2.2021.4566-.0124.5952-.0248,1.1905-.0373,1.7857Z"/>
        <path class="cls-12" d="M4.6,14.5881c-.0065-.1022,1.4641-.3161,2.5127-.4217.7053-.071.9787-.0691,3.5593-.1448,1.7737-.0521,2.0093-.0637,3.2511-.0948.9175-.023,1.3685-.0409,2.0554-.0458.794-.0056,1.4285.004,1.9152.0117,1.0873.0172.9828.0336,2.1144.0527.0897.0015.7841.0147,2.173.041.1612.0031.4983.0099.943.041,0,0,.361.0253.7303.0661.5779.064,3.8311.4899,3.8165.6351-.011.1102-1.6292-.0877-4.6931-.0511-.3713.0044-4.24.0507-5.6706.223-.1259.0152-.5468.0691-1.115.0637-.492-.0047-.8567-.0515-.9557-.0637-1.0919-.1344-3.6682-.2107-5.1609-.2549-3.467-.1026-5.4678.0614-5.4754-.0576Z"/>
        <path class="cls-12" d="M12.305,15.8368c1.248.3726,2.4961.7452,3.7441,1.1178,1.2109-.3789,2.4218-.7577,3.6327-1.1366-1.2046.2265-2.4092.4529-3.6138.6794-1.2543-.2202-2.5087-.4404-3.763-.6606Z"/>
        <path class="cls-12" d="M9.4496,18.9457c-.2401-.7673-.4803-1.5345-.7204-2.3018.1113.8317.2226,1.6634.3338,2.4951l2.5478,1.1421.9664,1.0543c.6423-.4912,1.2134-.8563,1.6458-1.1128,1.2082-.7166,1.5828-.7326,1.7278-.7321.6136.0021,1.084.3135,1.681.7087.9856.6525,1.64,1.1187,1.64,1.1187.3046-.3397.6091-.6794.9137-1.0191l2.3897-1.107s.4086-2.4911.3338-2.4951c-.0701-.0037-.615,2.1612-.615,2.1612-.7966.3075-1.5931.615-2.3897.9225-.2526.2743-.5052.5486-.7578.8229-.2627-.2101-.5763-.4463-.9392-.6923-.522-.3538-.7912-.5339-1.1949-.6878-.3277-.125-.678-.2585-1.1377-.2277-.3269.0219-.5606.123-1.0279.3251-.4389.1898-.7493.3775-1.1245.6062-.2658.162-.6159.3866-1.0162.6765-.2519-.244-.5037-.4881-.7556-.7321l-2.5009-.9254Z"/>
        <path d="M11.6153,20.2811c.0598-.1774.1787-.325.3411-.4089-.0644.1771-.1741.3167-.3411.4089h0Z"/>
        <path d="M9.0675,19.139c.0964-.1235.2352-.1951.3875-.1917-.1006.121-.2273.1896-.3875.1917h0Z"/>
        <path d="M12.5819,21.3353c-.0236-.253.018-.5094.1304-.7318.0195.255-.0188.4999-.1304.7318h0Z"/>
        <path d="M19.2765,21.3178c-.1074-.2241-.1546-.4733-.1235-.7149.104.2273.1504.4647.1235.7149h0Z"/>
        <path d="M20.1927,20.2958c-.1518-.137-.2553-.3183-.2822-.5164.1502.1413.2488.3109.2822.5164h0Z"/>
        <path d="M22.5797,19.1917c-.176-.0326-.3296-.1279-.4253-.2738.1763.0374.3208.1243.4253.2738h0Z"/>
        <path d="M14.1044,2.2073c.0906.7132.2629,2.8439.0058,3.3113-.0531-.8752-.3088-2.6244-.0058-3.3113h0Z"/>
        <path d="M18.0829,2.2088c.0579.7382.1379,2.8636-.1417,3.3462-.0132-.8982-.1935-2.6489.1417-3.3462h0Z"/>
        <path d="M10.3605,3.7898c.3511.5716,1.3736,2.4732,1.3039,2.9483-.3784-.727-1.3303-2.2607-1.3039-2.9483h0Z"/>
        <path d="M21.8761,3.8216c-.4818.9287-1.3773,3.3713-1.7388,3.7466.3874-1.2556.8559-2.8747,1.7388-3.7466h0Z"/>
        <path class="cls-12" d="M10.4029,3.8362c1.039-.8367,2.4113-1.0354,3.6175-1.5198-.4984.4389-1.1698.6428-1.7842.8354-.535.1795-1.2932.4885-1.8332.6844h0Z"/>
        <path class="cls-12" d="M21.7787,3.8479c-1.1858-.6016-2.5632-.7089-3.6768-1.4451,1.2497.4132,2.6386.5491,3.6768,1.4451h0Z"/>
        <path class="cls-12" d="M14.12,2.265c.6877-.5647,1.6464-.5176,2.4871-.493.5112.0015,1.0284.1781,1.3904.5449-.6761-.41-1.4635-.3256-2.238-.309-.5647-.0034-1.1087.0204-1.6394.2571h0Z"/>
        <path class="cls-12" d="M5.672,13.6532c-.2112.09-.4409.1198-.6675.1321l.0537-.0119c-1.0146.4982-2.0601.963-3.0825,1.4351l.0232-.1949.8047.6683c2.6825-.7863,6.4818-.4921,9.5014.1545-3.1855-.5957-6.432-.7641-9.5964.0434,0-.0002-.04-.0323-.04-.0323l-.8169-.6535-.1409-.1128.1641-.0824c1.026-.5157,2.0769-.9365,3.1079-1.4316.2282-.0043.447.0079.6892.0861h0Z"/>
        <path class="cls-12" d="M26.1607,13.6449c.2466-.0607.4555-.0512.6794-.0825.5044.2886,1.0415.5136,1.5691.7597.0865.0399,1.6979.7656,1.7344.7828,0,0-.1458.1176-.1458.1176l-.8103.6528c-.0388.0357-.0411.0319-.0903.0217-3.1056-.7827-6.2811-.6573-9.4153-.0783,2.9793-.6357,6.7312-.8746,9.3709-.1076,0-.0001.7978-.6677.7978-.6677l.0283.196c-.9562-.4163-2.3797-1.0068-3.0501-1.4553-.2302.0194-.4648-.0335-.6682-.1393h0Z"/>
        <path class="cls-12" d="M6.0904,11.7205l-.6128.1959.0876-.0842-.2896,1.5366-.0715-.1193.4922.2643c-.0631-.0062-.6007-.0703-.6472-.0749,0,0,.0205-.1089.0205-.1089l.2896-1.5366.0161-.0857c.016-.0003.678.0126.7151.0128h0Z"/>
        <path class="cls-12" d="M25.7057,11.7173c.0395-.001.697-.0122.7149-.0128,0,0,.0163.0853.0163.0853l.2957,1.5427.0212.1102c-.0446.0033-.5964.0655-.6577.071,0,0,.5032-.2616.5032-.2616l-.0725.12-.2959-1.5427.0876.0839-.6128-.196h0Z"/>
        <path class="cls-12" d="M7.0514,17.4423c.3949.9381.4924,1.9783.3552,2.9809-.1432-1.0024-.3339-1.9966-.3552-2.9809h0Z"/>
        <path class="cls-12" d="M8.5362,20.951c.0466.2589-.1304.3945-.1973.5914-.1687.3479-.6612,1.281-.8545,1.6321,0,0-.0144-.1367-.0144-.1367,1.1266,1.3612,2.9575,3.551,4.0188,4.932.5559,1.0299-.694-.6143-.9342-.8796-.6982-.8152-2.5594-3.0427-3.2733-3.894-.0516-.0667-.0689-.0441-.0144-.137,0,0,.5703-1.0889.5703-1.0889l.3008-.5361c.1216-.1567.1494-.4228.3982-.4832h0Z"/>
        <path class="cls-12" d="M23.224,20.8774c.2434.1055.2583.3302.3835.4974l.3025.5396.574,1.0956c.0441.0841.0507.0632-.0144.1375-.7219.8595-2.5672,3.0689-3.2729,3.8939-.2473.2728-1.4982,1.9209-.9347.8797,1.0548-1.3726,2.8989-3.5778,4.0191-4.932,0,0-.0142.1372-.0142.1372-.1983-.3558-.6902-1.29-.8616-1.6453-.0599-.1916-.2693-.3616-.1814-.6036h0Z"/>
        <path class="cls-12" d="M8.6566,21.4618c2.01,1.4734,3.2598,3.9606,3.303,6.4433-.3387-2.4676-1.5211-4.7148-3.303-6.4433h0Z"/>
        <path class="cls-15" d="M15.9772,22.2806c.0117,1.394.0234,2.7879.0351,4.1819-.1846-.0809-.3691-.1618-.5537-.2426-.0066-1.2465-.0132-2.493-.0199-3.7395l.5384-.1998Z"/>
        <path class="cls-15" d="M15.9772,22.2806c.0117,1.394.0234,2.7879.0351,4.1819.164-.0614.328-.1227.492-.1841.0148-1.257.0296-2.5141.0443-3.7711-.1905-.0756-.381-.1511-.5715-.2267Z"/>
        <path class="cls-15" d="M14.3294,22.9003c.0461,1.397.0922,2.7939.1384,4.1909-.1323-.0378-.2646-.0755-.397-.1133l-.1219-3.9455c.1268-.044.2536-.088.3805-.1321Z"/>
        <path class="cls-15" d="M14.3294,22.9003c.0461,1.397.0922,2.7939.1384,4.1909.096-.1499.1921-.2997.2881-.4496-.0241-1.2936-.0483-2.5873-.0724-3.8809-.118.0466-.236.0931-.3541.1397Z"/>
        <path class="cls-15" d="M12.7178,23.49c.2028,1.3553.4055,2.7105.6083,4.0658.0901-.1165.1802-.233.2703-.3495-.1939-1.2755-.3878-2.551-.5817-3.8264-.099.0367-.1979.0734-.2969.1102Z"/>
        <path class="cls-15" d="M19.0258,23.49c-.1991,1.3588-.3983,2.7177-.5974,4.0765-.0586-.1201-.1171-.2401-.1757-.3602l.5798-3.793c.0644.0256.1289.0511.1933.0767Z"/>
        <path class="cls-15" d="M17.5671,22.9113c-.0448,1.4001-.0897,2.8001-.1345,4.2002.1152-.0445.2304-.0891.3457-.1336l.1208-3.9349c-.1106-.0439-.2213-.0878-.3319-.1317Z"/>
        <path class="cls-15" d="M17.5671,22.9113c-.0448,1.4001-.0897,2.8001-.1345,4.2002-.0751-.1371-.1503-.2742-.2254-.4114.0252-1.3005.0503-2.6011.0755-3.9016.0948.0376.1896.0752.2844.1128Z"/>
        <path class="cls-15" d="M13.3261,27.5009c.3806-.1549.7611-.3098,1.1417-.4647-.1323-.0378-.2646-.0755-.397-.1133-.1581.0761-.3163.1523-.4744.2284-.0901.1165-.1802.233-.2703.3495Z"/>
        <path class="cls-15" d="M14.4677,27.0362c.5149-.2096,1.0298-.4191,1.5446-.6287-.1846-.0809-.3691-.1618-.5537-.2426-.2339.131-.4678.2621-.7018.3931-.0964.1594-.1928.3188-.2892.4782Z"/>
        <path class="cls-15" d="M17.4326,27.0565c-.4734-.2163-.9468-.4327-1.4202-.649.164-.0614.328-.1227.492-.1841.2343.1406.4686.2811.7028.4217.0751.1371.1503.2742.2254.4114Z"/>
        <path class="cls-15" d="M18.4284,27.5116c-.3319-.1517-.6639-.3034-.9958-.4551.1152-.0445.2304-.0891.3457-.1336.1581.0761.3163.1523.4744.2284.0586.1201.1171.2401.1757.3602Z"/>
        <polygon class="cls-12" points="13.0936 27.8329 15.9559 26.4414 16.0094 26.4155 16.0609 26.444 18.6293 27.8644 15.9508 26.6646 16.055 26.6672 13.0936 27.8329 13.0936 27.8329"/>
        <circle class="cls-12" cx="7.6736" cy="12.8214" r=".9044"/>
        <circle cx="7.6808" cy="12.7251" r=".9044"/>
        <circle class="cls-2" cx="7.6808" cy="12.7251" r=".6445"/>
        <line class="cls-2" x1="7.71" y1="12.0816" x2="7.6808" y2="13.3696"/>
        <path class="cls-2" d="M7.09,12.9827c.2067-.0859.4134-.1717.62-.2576"/>
        <path class="cls-2" d="M8.3253,12.9827l-.62-.2576"/>
        <circle class="cls-12" cx="24.1372" cy="12.7732" r=".9044"/>
        <circle cx="24.13" cy="12.677" r=".9044"/>
        <circle class="cls-2" cx="24.13" cy="12.677" r=".6445"/>
        <path class="cls-7" d="M13.0004,8.7465c1.0252.9192,2.0504,1.8384,3.0756,2.7576,1.3496-1.4794,2.6992-2.9588,4.0489-4.4382"/>
        <path d="M11.9388,11.1709c.1445-.1667.3496-.2711.5647-.2791-.1511.163-.3397.2652-.5647.2791h0Z"/>
        <path d="M11.9095,6.9253c.2215.0126.4308.1114.5701.277-.2225-.0202-.4203-.1073-.5701-.277h0Z"/>
        <path d="M15.9918,12.6982c.0857.1874.0877.4007,0,.5817-.079-.1915-.0872-.3902,0-.5817h0Z"/>
        <path d="M19.4408,10.8369c.226.0159.4384.1177.5813.2862-.227-.0234-.4278-.1136-.5813-.2862h0Z"/>
        <path d="M18.8519,8.2399c.1215-.1352.2849-.219.4622-.2269-.1257.1329-.2773.2132-.4622.2269h0Z"/>
        <path d="M15.9344,5.3453c-.0859-.1885-.0886-.4045-.0013-.5864.0796.1929.088.3931.0013.5864h0Z"/>
        <path class="cls-14" d="M14.6407,17.9978l-4.0466-1.6646s1.0113,2.6453,2.6691,2.4969c.5672-.0508,1.3776-.8323,1.3776-.8323Z"/>
        <path class="cls-14" d="M17.3128,18.1137l4.0466-1.6646s-1.0113,2.6453-2.6691,2.4969c-.5672-.0508-1.3776-.8323-1.3776-.8323Z"/>
        <path d="M12.7174,23.4339c.0442-.0154,3.2214-1.2699,3.2607-1.2838.035.0092,3.0141,1.2749,3.0476,1.285,0,0-3.0742-1.1445-3.0742-1.1445.2428-.0387-3.2879,1.1543-3.2341,1.1433h0Z"/>
        <path class="cls-12" d="M12.7828,23.8696c.0972-.0508.1943-.1017.2915-.1525-.0199-.1307-.0397-.2614-.0596-.3921-.099.0367-.1979.0734-.2969.1102.0217.1448.0433.2897.065.4345Z"/>
        <path class="cls-12" d="M18.9638,23.8582l-.1943-.1076c.0199-.1307.0397-.2614.0596-.3921.0656.0256.1312.0511.1967.0767-.0207.141-.0413.282-.062.4231Z"/>
        <path class="cls-12" d="M13.9578,23.3448c.1223-.001.2446-.002.3669-.0029l.3657-.2133c.0004-.1309.0008-.2619.0013-.3928-.1253.0478-.2505.0957-.3758.1435-.1223.043-.2446.0859-.367.1288.003.1123.0059.2245.0089.3368Z"/>
        <path class="cls-12" d="M17.8877,23.3581c-.1083-.0009-.2166-.0017-.325-.0026-.096-.0654-.192-.1308-.288-.1961.0024-.1245.0049-.2489.0073-.3734.0959.0349.1924.0705.2895.1068.1111.0416.2211.0835.3298.1255-.0045.1133-.0091.2265-.0136.3398Z"/>
        <path class="cls-12" d="M15.4398,22.8781c.1819.0337.3639.0674.5458.101.1859-.0351.3718-.0703.5577-.1054.0016-.1201.0033-.2403.0049-.3604-.1909-.0711-.3817-.1423-.5726-.2134l-.5367.187c.0002.1304.0005.2608.0007.3912Z"/>
        <path class="cls-12" d="M10.3282,3.8947c-.515.5603-.7778,1.2937-1.2656,1.8816-.5346.8031-1.3344,1.3487-1.7476,2.1783-.4873,1.2043-.9026,2.4902-1.5748,3.6237,0,0,.7362-2.1413.7362-2.1413.2222-.6946.3696-1.4927.8325-2.1499.4815-.6215,1.052-1.0762,1.5241-1.6887.5293-.5238.857-1.2505,1.4952-1.7038h0Z"/>
        <path class="cls-12" d="M21.8402,3.8995c.9369,1.1674,1.6049,2.4293,2.6656,3.4995.8668,1.2525,1.1666,2.7267,1.5162,4.1747-.5905-1.3256-.9427-2.7879-1.7966-3.9672-1.0457-1.0396-1.7226-2.4159-2.3852-3.7069h0Z"/>
        <path class="cls-9" d="M12.4052,7.4191c1.1726,1.0706,2.3451,2.1413,3.5177,3.212,1.593-1.7485,3.186-3.497,4.779-5.2455"/>
      </g>
    </g>
  </g>
</svg>