<?xml version="1.0" encoding="UTF-8"?>
<svg id="Layer_2" xmlns="http://www.w3.org/2000/svg" viewBox="0 0 389.0063 95.5256">
  <defs>
    <style>
      .cls-1 {
        font-family: HackerNoonV2-Regular, 'Hacker Noon V2';
        font-size: 23px;
        letter-spacing: .05em;
      }

      .cls-2 {
        stroke-width: 7.1962px;
      }

      .cls-2, .cls-3, .cls-4, .cls-5, .cls-6, .cls-7, .cls-8, .cls-9, .cls-10, .cls-11 {
        stroke-miterlimit: 10;
      }

      .cls-2, .cls-4, .cls-6, .cls-8 {
        fill: none;
      }

      .cls-2, .cls-6 {
        stroke: #fff;
      }

      .cls-3 {
        opacity: .72;
      }

      .cls-3, .cls-5, .cls-7, .cls-8, .cls-9, .cls-10, .cls-11 {
        stroke: #000;
      }

      .cls-3, .cls-5, .cls-11 {
        stroke-width: 1.2065px;
      }

      .cls-12, .cls-10 {
        fill: #1e1e1e;
      }

      .cls-4 {
        stroke: #1e1e1e;
        stroke-width: 3.5281px;
      }

      .cls-13 {
        fill: #fff;
      }

      .cls-6 {
        stroke-width: .3971px;
      }

      .cls-7 {
        stroke-width: .441px;
      }

      .cls-7, .cls-14 {
        fill: #999;
      }

      .cls-8 {
        stroke-width: 1.1057px;
      }

      .cls-9 {
        stroke-width: 3.0226px;
      }

      .cls-10 {
        stroke-width: .5528px;
      }

      .cls-11 {
        opacity: .5;
      }

      .cls-15 {
        fill: #686868;
      }
    </style>
  </defs>
  <g id="Layer_1-2" data-name="Layer_1">
    <text class="cls-1" transform="translate(105.3267 54.9778)"><tspan x="0" y="0">Validator Info</tspan></text>
    <g>
      <path class="cls-9" d="M90.2062,70.7044c-13.2701,7.6908-26.5401,15.3816-39.8102,23.0761-13.2995-7.6466-26.5954-15.2969-39.8912-22.9434-.0258-15.3373-.0811-46.0158-.0811-46.0158L50.2376,1.7451l39.8912,22.9398s.0516,30.6785.0774,46.0196Z"/>
      <g>
        <g id="head">
          <polygon class="cls-5" points="80.7595 53.4145 79.3932 64.6708 75.696 65.3428 77.1427 53.4985 80.7595 53.4145"/>
          <path class="cls-5" d="M79.3128,47.0775c-2.7482,13.2492-3.1736,17.4909-2.7473,18.0553.0472.0625.3229.9812.3229.9812,0,0-.371.5759-.5796.7056-.9276-.9327-1.8553-1.8654-2.7829-2.7981,1.152-5.6739,2.304-11.3478,3.456-17.0217l2.3308.0777Z"/>
          <path class="cls-5" d="M74.2961,64.9648l1.9776,1.976,3.7725,7.142-15.5159,18.8797-4.2593-4.2231c.1993-5.0583,1.1192-9.0713,1.9754-11.886.6653-2.1869,1.1208-3.6484,2.1443-5.2479,2.8163-4.4011,7.484-6.0197,9.9054-6.6408Z"/>
          <path class="cls-5" d="M75.5779,66.1276c-1.1985.4763-2.8612,1.2759-4.5736,2.6157-2.7262,2.1329-4.1016,4.4795-4.9705,5.9959-1.3656,2.3831-1.946,4.3507-3.1069,8.286-.6399,2.1692-1.0817,3.9984-1.3701,5.2901-.3671-.3449-.7343-.6898-1.1014-1.0347.1161-1.6736.3663-4.0827.9645-6.9369.8109-3.8693,1.3454-6.4192,2.8726-8.7674.8316-1.2787,3.4763-4.8325,10.0573-6.6114.4094.3876.8188.7752,1.2282,1.1627Z"/>
          <g>
            <path d="M80.4189,54.6124c-.3936,1.3657-.7589,2.9699-.9946,4.7801-.2482,1.9055-.2992,3.6269-.2562,5.1007"/>
            <path d="M80.4659,54.6259c-.1203,3.3755-.6237,6.5325-1.2978,9.8672-.7065-2.4777-.5502-5.1118.1635-7.555.2483-.8123.5738-1.6048,1.0401-2.3393,0,0,.0942.0271.0942.0271h0Z"/>
          </g>
          <g>
            <path d="M75.3202,66.3148l.5274.9473c1.1302,2.0646,2.2605,4.1291,3.3907,6.1937-1.5314,1.7363-2.7706,3.167-3.6118,4.1437-3.7207,4.3204-4.968,5.9314-6.7915,7.9668-.6475.7227-1.2091,1.3816-2.3323,2.6993-1.189,1.3948-.5859.7407-.8439,1.0299-.3171.3554-.5731.6094-.7931,1.0529-.1121.226-.1763.4236-.2129.5538"/>
            <path d="M75.3466,66.3001c.5699.0713.7593.3555.9312.6489,1.3628,2.1153,2.4916,4.3814,3.69,6.5894-2.0202,2.2857-5.7699,6.5989-7.7487,8.922-1.7995,2.0805-3.8016,4.3522-5.6587,6.3943-.2592.2855-.6681.8052-.9298,1.065-.3223.3265-.4004.6656-.9777.9825-.3955-.8195.4018-1.4629.8051-2.026.2582-.3476,1.9569-2.3891,2.2732-2.7759,3.5293-4.2621,7.4259-8.8957,11.055-13.0431,0,0-.0767.6882-.0767.6882-1.151-2.071-2.3677-4.1278-3.3563-6.2855-.1423-.2707-.3475-.7417-.0067-1.1596h0Z"/>
          </g>
          <g>
            <path d="M74.8816,67.9405c-2.0518,1.685-5.0966,4.6079-7.555,9.0161-2.7947,5.0111-3.5492,9.6422-3.7775,12.3582"/>
            <path d="M74.8844,67.9438c-5.7897,5.8778-9.8751,13.2191-11.3352,21.371-.1674-8.3321,4.2898-16.8737,11.3352-21.371h0Z"/>
          </g>
          <polygon class="cls-5" points="19.482 53.672 20.8483 64.894 24.5455 65.564 23.0988 53.7557 19.482 53.672"/>
          <path class="cls-5" d="M20.9287,47.2987c2.7482,13.2492,3.1736,17.4909,2.7473,18.0553-.0472.0625-.3229.9812-.3229.9812,0,0,.371.5759.5796.7056.9276-.9327,1.8553-1.8654,2.7829-2.7981-1.152-5.6739-2.304-11.3478-3.456-17.0217l-2.3308.0777Z"/>
          <path class="cls-5" d="M24.7464,47.4505s-1.0992,10.6232,2.8934,13.0577c2.4685,1.5052,5.0613.4686,8.2784,2.9535,2.241,1.731,1.8654,2.9156,3.3757,3.4199,3.6397,1.2154,6.4661-5.4502,11.6541-5.2853,4.4823.1425,5.6498,5.2222,9.9662,4.7412,1.8249-.2034,1.7736-1.1288,6.4298-3.6531,4.3699-2.369,6.5906-3.2644,6.5906-3.2644l1.2056-12.8246c-2.2337.4161-5.6534,1.0833-9.8055,2.0208-11.2444,2.539-10.4867,3.138-13.6634,3.2644-6.9451.2764-8.5822-2.6656-19.5306-3.964-3.1391-.3723-5.7305-.4537-7.3943-.4663Z"/>
          <path class="cls-5" d="M23.7431,48.8518l2.4112,17.488c6.6477,1.9055,9.2719,5.3229,10.2475,6.8786,1.3307,2.1218,1.8784,4.7823,2.9737,10.1033.6295,3.0581,1.0215,5.6321,1.2659,7.4616,3.3887-1.2959,6.7773-2.5918,10.166-3.8877,3.0791,1.3355,6.1582,2.671,9.2373,4.0065.1525-1.4144.4087-3.4305.8507-5.8316,1.0007-5.4367,1.5619-8.5249,3.1948-11.3089.9609-1.6383,3.6051-5.4248,10.1803-7.9243.9235-5.5607,1.8471-11.1214,2.7706-16.682-.7671-.1012-1.5343-.2023-2.3014-.3035l-2.3309,11.8229c-1.5638.8099-2.869,1.2706-3.7976,1.5448-.7637.2255-2.0911.5666-3.7434,1.3752-.3212.1572-.4817.2357-.6028.3109-1.6743,1.0393-1.8377,2.7333-2.6911,2.7458-.0914.0013-.1706-.0148-.5425-.2186-1.3027-.7137-1.9946-1.3721-2.7883-1.9399-.156-.1116-.8392-.4859-2.2002-1.2436-1.2595-.7012-1.897-1.0547-2.2782-1.1965-.4376-.1628-1.5271-.5262-2.9768-.5435-.3307-.004-1.5131.0001-2.9618.4614-.6807.2168-1.3509.5737-2.6637,1.2786-1.0671.573-1.846.9913-2.9104,1.6469-1.8794,1.1575-1.9748,1.4028-2.5148,1.4038-1.1328.002-1.3334-1.081-3.1206-2.2779-.6318-.4231-.9421-.5123-4.5549-1.7629-1.4013-.485-2.6514-.9205-3.7173-1.2931-.8908-4.1158-1.7815-8.2317-2.6723-12.3475,0,0-.8792-.2671-1.9289.2332Z"/>
          <path class="cls-11" d="M23.5444,47.252c.86,5.9147,1.7199,11.8294,2.5798,17.7441,1.4732.357,4.4539,1.2496,7.0904,3.4102.6041.495,1.8563,1.5375,2.9537,3.2353.5947.92.952,1.7355,1.0775,2.033.2332.5527.4274,1.2164.8062,2.5212.2457.8464.4577,1.5764.7158,2.6013.136.5398.3837,1.5285.6179,2.7106.2698,1.3616.3367,2.0463.5953,3.8692.1334.9401.3319,2.2832.6022,3.9196,3.3926-1.3235,6.7852-2.6471,10.1778-3.9706,2.9376,1.3584,5.8752,2.7167,8.8128,4.0751.3274-2.3819.6484-4.4075.9124-5.9793.0266-.1583.4686-2.7653,1.2056-5.9216.2051-.8785.4837-2.0164,1.1051-3.4199.1621-.3661.4806-1.0811.9946-1.914,1.0044-1.6275,2.1101-2.6619,2.7528-3.2547,2.6706-2.4638,6.0335-3.9055,7.2436-4.3914.2093-1.2406,1.5273-9.0615,1.8486-10.9689.0729-.4328.2313-1.3731.432-2.6329.2169-1.3617.3868-2.491.5023-3.2741-.6162.0192-1.2325.0383-1.8487.0575-.1239.6118-.2989,1.4853-.5022,2.5365-.2234,1.155-.5064,2.6179-.6932,3.7211-.2252,1.3293-.492,3.2063-.6631,5.5622-1.6475,1.0781-3.019,1.715-3.9785,2.0986-.7579.303-2.1631.8094-3.456,1.2436-.8735.2933-.8109.2565-.9243.3109-1.8191.8723-2.0691,2.7363-3.0494,2.7264-.0684-.0007-.1685-.0108-.7281-.3558-1.4455-.8911-1.9113-1.5227-3.0542-2.3317-.2555-.1809-.8012-.4931-1.8927-1.1177-1.1846-.6779-1.7869-1.0204-2.2782-1.1965-1.198-.4294-2.2264-.4428-2.7009-.445-.4332-.002-1.7919.0243-3.3757.6607-.5485.2204-.5288.2748-2.371,1.3213-2.0964,1.1909-1.9522,1.024-2.7327,1.5156-2.2277,1.4031-2.3329,2.0889-3.1747,2.0597-1.1067-.0383-1.1994-1.2332-2.9283-2.4311-1.5184-1.0521-2.3835-.7794-4.6268-1.6105-1.1202-.415-2.7215-1.1561-4.5009-2.5649-.643-4.0546-1.286-8.1093-1.9289-12.1639-.0828-.165-.1877-.2491-.2598-.2931-.3419-.2088-.8935-.0942-1.3581.3042Z"/>
          <path class="cls-5" d="M50.4757,70.6938c-3.7273,1.3375-7.4546,2.675-11.1819,4.0125.6956,4.4962,1.3912,8.9924,2.0868,13.4886,3.0719-1.2091,6.1438-2.4182,9.2156-3.6273,2.7628,1.2209,5.5256,2.4418,8.2884,3.6628.6832-4.508,1.3663-9.0161,2.0495-13.5241-3.4862-1.3375-6.9723-2.675-10.4585-4.0125Z"/>
          <path class="cls-5" d="M52.4362,71.446l2.5181.9661c-.0863,4.3147-.1726,8.6293-.2589,12.944l-2.4112-1.399c.0507-4.1703.1014-8.3407.1521-12.511Z"/>
          <path class="cls-5" d="M48.6287,71.3566c-.8638.31-1.7277.62-2.5915.9299.0828,4.2917.1656,8.5835.2484,12.8752l2.4112-1.399c-.0227-4.1354-.0454-8.2707-.0681-12.4061Z"/>
          <path class="cls-5" d="M40.3124,74.3409c1.0686-.3835,2.1373-.7669,3.2059-1.1504l.4171,13.0871-1.6275.7578c-.6652-4.2315-1.3303-8.463-1.9955-12.6945Z"/>
          <path class="cls-5" d="M60.271,74.4519c-1.0674-.4095-2.1349-.8191-3.2023-1.2286l-.4143,13.0543,1.6276.7578c.663-4.1945,1.326-8.389,1.9891-12.5835Z"/>
          <path class="cls-5" d="M26.1869,65.1861l-2.0607,1.9447-3.9309,7.0289,16.1674,18.5809,4.4381-4.1562c-.2077-4.9782-1.1662-8.9278-2.0583-11.6978-.6932-2.1523-1.1679-3.5907-2.2344-5.1648-2.9346-4.3314-7.7982-5.9244-10.3213-6.5356Z"/>
          <path class="cls-5" d="M24.6636,66.3488c1.1985.4763,2.8612,1.2759,4.5736,2.6157,2.7262,2.1329,4.1016,4.4795,4.9705,5.9959,1.3656,2.3831,1.946,4.3507,3.1069,8.286.6399,2.1692,1.0817,3.9984,1.3701,5.2901.3671-.3449.7343-.6898,1.1014-1.0347-.1161-1.6736-.3663-4.0827-.9645-6.9369-.8109-3.8693-1.3454-6.4192-2.8726-8.7674-.8316-1.2787-3.4763-4.8325-10.0573-6.6114-.4094.3876-.8188.7752-1.2282,1.1627Z"/>
          <path class="cls-5" d="M1.1269,46.949l3.7775,2.9535c4.0296-.8899,12.9817-2.6008,22.1683-1.9129,4.4545.3336,8.2226,1.1745,8.2226,1.1745,1.3525.218,2.3173.5556,2.4823.5925,1.4449.323,5.1515,1.4155,6.9924,1.9528,1.3721.4005,3.4184.9918,5.9677,1.7051,2.1813-.6522,3.9115-1.1775,4.9731-1.5011,5.0237-1.5312,6.3638-1.9842,8.8217-2.4854,1.5988-.326,3.1247-.559,3.5716-.6267.784-.1188,2.428-.3556,4.3134-.5311,4.775-.4444,8.7215-.274,9.7769-.2218,3.3203.1642,5.8243.5339,7.3139.7578,2.4289.3652,4.5251.7943,6.2088,1.1853,1.262-.9883,2.524-1.9766,3.786-2.9649-1.5394-.6088-3.7981-1.5264-6.5102-2.7204-4.3899-1.9325-4.9372-2.3745-5.269-2.6747-2.0076-1.8169-1.6874-3.4805-3.3309-9.3726-1.1824-4.2389-1.923-6.8956-3.7775-9.871-1.061-1.7022-1.5418-1.9582-2.8025-3.2874-.6537-.6891-1.2949-1.4127-2.5021-2.9306-2.3021-2.8947-2.5612-4.8902-4.9828-6.7969-1.2653-.9962-2.6746-1.637-3.4761-2.0014-.9106-.414-1.885-.8571-3.2481-1.1733-1.3929-.3232-5.281-.9998-6.0249-1.7048-.0022-.0021-.0049-.0046-.0097-.0092-.2084-.1977-.5708-.5171-1.0753-.8434,0,0-.3407-.2204-.6799-.3918-.5985-.3024-1.7499-.6863-5.5837-.6863,0,0-2.8136-.0027-4.1751.5494-.695.2818-1.1301.5777-1.4467.7772-2.2338,1.4075-4.3824,1.6748-6.4298,2.254,0,0-3.4915.9877-6.8317,3.2644-2.8357,1.9329-1.8861,2.4016-6.8317,7.4616-2.7671,2.8311-4.4109,4.0619-5.5352,6.886-.296.7434-.1598.6021-.9077,3.027-.9661,3.1325-1.4346,4.1501-2.3982,6.9532-2.1979,6.3935-1.7396,6.8554-2.9738,8.0056-1.0761,1.0029-1.7404.9462-5.7065,2.5649-2.5622,1.0457-4.5872,2.009-5.8672,2.6426Z"/>
          <path class="cls-5" d="M19.5856,36.7221c.5705-6.2457,2.5283-10.3877,4.2748-13.0588,2.007-3.0696,6.1736-7.9267,6.1737-7.9268h0s2.7769,3.484,4.8224,10.1042c2.012,6.5117,1.544,8.1684,1.2056,9.016-1.4022,3.512-5.3097,4.9801-6.6552,5.4216,5.9499-.365,11.8999-.7299,17.8498-1.0949-1.2282-2.299-2.4681-4.6027-3.7199-6.911-4.1173-7.5923-8.2663-15.0563-12.4405-22.3928-1.2598,1.2158-2.9547,2.9373-4.8213,5.1153-1.8018,2.1024-4.2185,4.9224-6.3501,8.6418-1.512,2.6382-3.4854,6.7844-4.6195,12.4059,1.4268.2265,2.8536.453,4.2803.6795Z"/>
          <path class="cls-5" d="M81.1117,35.6333c-.5659-2.7699-1.7115-6.691-4.1902-10.9001-1.9105-3.2443-4.0456-5.6962-5.8115-7.4351-1.6708,3.1578-3.0135,6.085-4.0961,8.6884-1.3396,3.2216-2.1583,5.8139-1.339,8.6336.0428.1473.0892.2718.1334.3824,1.4022,3.512,5.3097,4.9801,6.6552,5.4216-5.9499-.365-11.8999-.7299-17.8498-1.0949,1.2375-2.3051,2.4774-4.6087,3.7199-6.911,4.0581-7.5194,8.1433-15.0245,12.2557-22.5154.1995.2435.4938.6085.8384,1.0591,1.9888,2.6002,2.9074,4.458,3.7255,5.8434,2.5873,4.3812,3.9022,3.5846,5.9275,7.5587.523,1.0262.9983,2.3811,1.949,5.091.8601,2.4515,1.4913,4.4991,1.9061,5.9075-1.2747.0903-2.5495.1806-3.8242.2709Z"/>
          <path class="cls-5" d="M15.6844,41.0225s-12.6989,6.0625-12.6989,6.0625l2.6015,1.6111c2.4378-.5737,4.6861-.9801,6.694-1.2705,0,0,2.6305-.3792,5.252-.5738,7.1342-.5296,20.7641.3708,28.452,2.4872.7032.1936,2.7306.7755,5.4552.7514,2.3792-.0211,4.1427-.4942,4.8325-.6737,3.9253-1.0214,14.1166-3.6733,23.71-2.8758,1.0641.0885,2.9331.344,6.6709.855,3.9417.5389,7.185,1.0417,9.4036,1.399l1.1252-1.8654-13.8241-5.5184s-3.5709.1243-4.3401.2332c-6.9514.9838-9.4935.2261-32.7117.6995-18.1475.37-20.4024.9106-24.9959-.4663-1.2461-.3735-3.0901-1.0158-5.6261-.855Z"/>
          <path class="cls-5" d="M24.3123,43.0395c.2493.1133,1.0949.4679,1.0949.4679l26.1436-.6778,23.3723.5008s1.1525-.2253,1.7176-.3499c-.0849-.698-.1698-1.396-.2547-2.094-10.7325-1.3708-19.4461-1.5979-25.3978-1.5545-11.696.0853-26.5478,1.3163-26.5478,1.3163-.0772.257-.147.5626-.1849.9097-.0645.5917-.014,1.1007.0569,1.4816Z"/>
          <path class="cls-5" d="M39.2939,23.4199c.0298,3.936.0595,7.8721.0893,11.8081.8123-.4228,1.6245-.8455,2.4368-1.2682-.0234-3.1021-.0469-6.2042-.0703-9.3062-.8186-.4112-1.6371-.8224-2.4557-1.2337Z"/>
          <path class="cls-5" d="M50.8694,17.226c-3.8842,2.0543-7.7684,4.1085-11.6527,6.1627.8036.4738,1.6073.9475,2.4109,1.4213,3.0612-1.619,6.1225-3.238,9.1837-4.857.0193-.909.0387-1.8181.058-2.7271Z"/>
          <path class="cls-5" d="M62.5817,23.0702c-3.9423-1.9481-7.8846-3.8961-11.8269-5.8441.0475.909.095,1.8181.1425,2.7271,3.107,1.5353,6.214,3.0706,9.321,4.6059.7878-.4963,1.5756-.9926,2.3634-1.4888Z"/>
          <path class="cls-5" d="M62.5817,35.0673c-.0298-3.9653-.0595-7.9305-.0893-11.8958-.8123.4259-1.6245.8518-2.4368,1.2777.0234,3.1251.0469,6.2502.0703,9.3753.8186.4143,1.6371.8285,2.4557,1.2428Z"/>
          <path class="cls-5" d="M50.9536,41.4258c3.9014-2.0632,7.8028-4.1264,11.7042-6.1896-.8055-.4728-1.611-.9456-2.4165-1.4184-3.0748,1.626-6.1495,3.2521-9.2243,4.8781-.0211.91-.0423,1.8199-.0634,2.7299Z"/>
          <path class="cls-5" d="M39.3442,35.2748c3.8952,2.0439,7.7904,4.0878,11.6856,6.1316-.0247-.9101-.0493-1.8202-.074-2.7303-3.0699-1.6108-6.1398-3.2216-9.2096-4.8325-.8007.4771-1.6013.9541-2.402,1.4312Z"/>
          <polygon class="cls-5" points="62.474 35.0648 50.9732 41.0505 39.3831 35.2281 39.2939 23.4199 50.7947 17.4342 62.3848 23.2567 62.474 35.0648"/>
          <polygon class="cls-5" points="60.0183 33.8312 50.9543 38.5486 41.8199 33.9598 41.7496 24.6536 50.8136 19.9361 59.948 24.5249 60.0183 33.8312"/>
          <polygon class="cls-5" points="13.9363 35.5818 26.1127 35.6984 25.3894 43.1599 12.7005 41.7414 13.9363 35.5818"/>
          <polygon class="cls-5" points="86.4885 35.5818 74.3121 35.6984 75.0354 43.1599 87.7243 41.7414 86.4885 35.5818"/>
          <path class="cls-5" d="M66.9396,16.6779c.175-2.6459-1.4711-5.003-3.8389-5.7021-1.8419-.5438-3.9014-.0195-5.3872,1.3213v-7.4033c.8103.4173,2.0518.987,3.6423,1.4405,1.8622.5309,2.7515.4887,4.1762.8718,1.2366.3326,2.948,1.0048,4.8464,2.5179-1.1463,2.3179-2.2925,4.6358-3.4388,6.9538Z"/>
          <path class="cls-5" d="M34.7046,16.6779c-.175-2.6459,1.4711-5.003,3.8389-5.7021,1.8419-.5438,3.9014-.0195,5.3872,1.3213-.0561-2.5514-.1122-5.1028-.1683-7.6543-.522.3275-1.3639.8067-2.4712,1.2177-2.4554.9114-3.2111.3721-5.179,1.3456-.9956.4925-1.1759.8155-2.8231,1.6274-.7975.3931-1.477.6732-1.9368.8517,1.1174,2.3309,2.2348,4.6618,3.3523,6.9926Z"/>
          <path class="cls-5" d="M43.9307,10.3929c.2542-.3161,2.9429-3.5426,7.372-3.3422,3.6962.1672,5.9051,2.599,6.2763,3.0215-.0645-1.8049-.1289-3.6099-.1934-5.4148-1.2133-.5739-3.247-1.3497-5.877-1.5075-3.4256-.2056-6.0803.7441-7.4046,1.3229-.0578,1.9733-.1155,3.9467-.1733,5.92Z"/>
          <path class="cls-5" d="M11.4447,45.3556c-.024-.4608,6.2155-1.1649,8.62-1.399,2.4194-.2356,3.3576-.2292,12.2106-.4805,6.0847-.1727,6.8932-.2113,11.1533-.3145,3.1476-.0763,4.695-.1357,7.0512-.1519,2.7239-.0186,4.9008.0134,6.5705.0389,3.7301.0569,3.3716.1114,7.2536.1749.3075.005,2.6899.0487,7.4546.136.5529.0101,1.7096.0329,3.235.136,0,0,1.2315.0947,2.5054.2194,6.0753.5946,13.1323,1.7433,13.093,2.1071-.033.3062-5.4443-.0627-10.4284-.2915-9.3244-.428-13.1519-.1821-30.622.0583-19.8122.2726-38.0572.5236-38.0967-.2332Z"/>
          <path class="cls-5" d="M37.8776,49.4985c4.2965,1.2228,8.593,2.4456,12.8895,3.6684,4.1392-1.2436,8.2784-2.4872,12.4176-3.7308-4.1325.7513-8.265,1.5027-12.3975,2.254-4.3032-.7306-8.6064-1.4611-12.9095-2.1917Z"/>
          <path class="cls-5" d="M28.0819,59.8124c-.8238-2.5455-1.6476-5.091-2.4715-7.6364.3818,2.7592.7635,5.5184,1.1453,8.2777l8.7405,3.7891,3.3154,3.4976c2.2035-1.6298,4.1626-2.841,5.6462-3.6919,4.145-2.3774,5.4301-2.4305,5.9275-2.4289,2.1051.0069,3.7188,1.0401,5.7667,2.3512,3.3814,2.1648,5.6261,3.7114,5.6261,3.7114,1.0448-1.127,2.0897-2.254,3.1345-3.381l8.198-3.6725s1.4017-8.2645,1.1453-8.2777c-.2403-.0124-2.1098,7.1701-2.1098,7.1701-2.7327,1.0201-5.4654,2.0403-8.198,3.0604-.8666.91-1.7332,1.8201-2.5997,2.7301-.9013-.6971-1.9771-1.4805-3.2222-2.2967-1.7906-1.1738-2.7142-1.7712-4.0993-2.2819-1.1243-.4146-2.3261-.8577-3.903-.7553-1.1215.0728-1.9231.408-3.5264,1.0784-1.5057.6296-2.5707,1.2522-3.8579,2.0111-.9118.5376-2.1128,1.2827-3.4862,2.2443-.864-.8096-1.728-1.6193-2.592-2.4289-2.8599-1.0234-5.7199-2.0467-8.5798-3.0701Z"/>
          <g>
            <path d="M32.7514,68.0211c.9149-1.2595,1.8299-2.519,2.7448-3.7784"/>
            <path d="M32.7515,68.0212c.1736-1.6753,1.2113-3.0201,2.7293-3.7897-.1342,1.6468-1.2264,3.1184-2.7293,3.7897h0Z"/>
          </g>
          <g>
            <path d="M36.0655,71.5073c.9128-1.2557,1.8257-2.5113,2.7385-3.767"/>
            <path d="M36.0654,71.5073c.1718-1.6716,1.2073-3.0127,2.7231-3.7783-.1323,1.6433-1.2225,3.1112-2.7231,3.7783h0Z"/>
          </g>
          <g>
            <path d="M67.6668,68.0701c-.9149-1.2595-1.8299-2.519-2.7448-3.7784"/>
            <path d="M67.6667,68.0701c-1.5395-.683-2.4976-2.0857-2.7603-3.7671,1.5247.6365,2.5866,2.1304,2.7603,3.7671h0Z"/>
          </g>
          <g>
            <path d="M64.4052,71.2836c-.8715-1.1988-1.7431-2.3977-2.6146-3.5965"/>
            <path d="M64.4051,71.2836c-1.4922-.6205-2.4122-1.9646-2.6301-3.5853,1.4798.5755,2.5008,2.0121,2.6301,3.5853h0Z"/>
          </g>
          <g>
            <path d="M35.4963,64.2427c.3885-.4534.7769-.9068,1.1654-1.3602"/>
            <path d="M35.4962,64.2427c-.2925-.8443.1764-1.4842,1.1509-1.3726.3462.909-.2789,1.5512-1.1509,1.3726h0Z"/>
          </g>
          <g>
            <path d="M26.7557,60.4536l1.3262-.6412"/>
            <path d="M26.7557,60.4537c-.0144-.824.5547-1.2073,1.3179-.6585.0393.9338-.688,1.2017-1.3179.6585h0Z"/>
          </g>
          <g>
            <path d="M38.8116,67.7403c.1474-.8096.2947-1.6193.4421-2.4289"/>
            <path d="M38.8116,67.7403c-.6688-.8173-.4969-1.8154.4232-2.4323.7176.8193.4807,1.9266-.4232,2.4323h0Z"/>
          </g>
          <g>
            <path d="M61.7782,67.682c-.1432-.7902-.2864-1.5804-.4297-2.3706"/>
            <path d="M61.7782,67.682c-.9078-.5098-1.0976-1.4854-.4485-2.3672.9562.4959,1.1191,1.5964.4485,2.3672h0Z"/>
          </g>
          <g>
            <path d="M64.922,64.2917c-.3246-.5701-.6492-1.1402-.9738-1.7103"/>
            <path d="M64.922,64.2917c-.9324-.0569-1.3913-.7745-.9904-1.7008.9984.029,1.4301.8868.9904,1.7008h0Z"/>
          </g>
          <g>
            <path d="M73.1107,60.6285c-.4875-.3012-.975-.6024-1.4625-.9035"/>
            <path d="M73.1107,60.6285c-.7659.4281-1.4534.083-1.4725-.8872.8266-.4942,1.5327.0131,1.4725.8872h0Z"/>
          </g>
          <path d="M44.1001,4.2839c.667,5.5651.5201,11.1586.0001,16.7228-.0001,0-.339,0-.339,0-.1605-1.3936-.2491-2.7871-.3118-4.1807-.185-4.1871-.2249-8.3646.3117-12.5421,0,0,.3389,0,.3389,0h0Z"/>
          <path d="M57.7484,4.2839c.6668,5.5651.5201,11.1586.0001,16.7228-.0001,0-.339,0-.339,0-.1606-1.3936-.2491-2.7871-.3118-4.1807-.185-4.1871-.2249-8.3646.3117-12.5421,0,0,.3389,0,.3389,0h0Z"/>
          <g>
            <path d="M31.0984,9.5806c1.58,2.7332,3.2155,5.966,4.6895,9.683,1.7255,4.3512,2.8358,8.3723,3.564,11.8331"/>
            <path d="M31.2451,9.4958c4.4537,6.355,7.2002,13.8981,8.2727,21.566,0,0-.3316.0698-.3316.0698-2.0961-7.4181-4.9681-14.4783-8.2345-21.4662,0,0,.2934-.1696.2934-.1696h0Z"/>
          </g>
          <g>
            <path d="M70.6074,9.5806c-1.58,2.7332-3.2155,5.966-4.6895,9.683-1.7255,4.3512-2.8358,8.3723-3.564,11.8331"/>
            <path d="M70.7541,9.6654c-3.2664,6.9878-6.1385,14.0482-8.2343,21.4663,0,0-.3318-.0698-.3318-.0698,1.0725-7.6679,3.8189-15.2109,8.2725-21.5661,0,0,.2935.1696.2935.1696h0Z"/>
          </g>
          <g>
            <path d="M31.3524,9.6853c.454-.2192,1.0256-.4904,1.6903-.7943.6994-.3197,1.2371-.5545,1.4367-.6412,1.151-.5005,1.7265-.7508,2.5016-1.0299.2512-.0905,1.0223-.364,1.7883-.5829.13-.0372.5734-.1623,1.0348-.2915.3376-.0945.4478-.1247.5224-.1457.2824-.0795,1.0367-.2919,1.8184-.6412.423-.189.9883-.4781,1.6175-.9157"/>
            <path d="M31.3524,9.6853c2.7171-2.0439,5.9085-3.4564,9.2483-4.0651,1.0653-.2321,2.095-.5442,3.1617-.9773-.7668.8582-1.8027,1.48-2.8802,1.8936-3.2284,1.0503-6.2448,2.2915-9.5298,3.1488h0Z"/>
          </g>
          <g>
            <path d="M70.3784,9.7242c-.3954-.2395-.9637-.5655-1.6728-.9108-.4257-.2073-.7543-.3475-1.394-.6194-1.2301-.5228-1.8451-.7842-2.563-1.0083-.1461-.0456-.993-.31-1.7319-.4636-.383-.0796-.607-.1308-1.0549-.2332-.0717-.0164-.184-.0422-.3315-.0802-.32-.0823-.5534-.1569-.6329-.1822-.6834-.2171-1.0559-.306-1.4618-.4445-.4329-.1477-1.0458-.4002-1.7707-.8525"/>
            <path d="M70.3784,9.7242c-3.2375-1.1467-6.326-2.0761-9.631-3.0725-1.0621-.4046-2.1839-.8797-2.9825-1.7221.552.1804,1.0818.3613,1.62.4757,3.9356.689,7.9303,1.5504,10.9935,4.3189h0Z"/>
          </g>
          <g>
            <path d="M44.104,4.4729c.5055-.2847,1.2879-.6707,2.3007-.9521.5801-.1612,1.3358-.3159,4.5009-.3109,3.1649.005,3.8706.162,4.521.3983.8834.321,1.5425.7439,1.9591,1.0493"/>
            <path d="M44.104,4.4729c1.7321-1.6745,4.3915-1.9042,6.6862-1.8631,2.2773-.0103,5.0504.1424,6.5954,2.0478-2.1612-1.1074-4.2832-.8628-6.5957-.8471-2.3256-.0253-4.4239-.1274-6.6859.6624h0Z"/>
          </g>
          <g>
            <path d="M17.9149,45.0869c-.7293.027-1.4586.0541-2.188.0812-.3656.1796-.9378.4572-1.6439.7848-2.8744,1.3335-4.011,1.5017-5.7575,2.4665-.6626.366-1.6601.9796-2.7828,1.9515.7282.6425,1.4564,1.285,2.1846,1.9274.9676-.283,2.0228-.5502,3.1597-.7806,1.3494-.2734,2.616-.4548,3.7779-.5722,0,0,3.5973-.4719,6.6633-.6388,2.3974-.1305,9.6656.4035,19.3422,2.0245"/>
            <path d="M17.9149,45.0869c-.6741.4583-1.3955.6253-2.1655.6849,0,0,.2438-.0614.2438-.0614-3.2698,1.885-7.1524,2.622-10.0291,5.1471,0,0,.0045-.9693.0045-.9693l2.1556,1.96-.5653-.126c3.9026-1.0665,8.4114-1.3995,12.4441-1.6892,6.9328-.3401,13.8904,1.1244,20.6669,2.301-6.823-.799-13.7397-2.0607-20.6139-1.5051-3.2191.3753-7.0762.694-10.182,1.5241-.1754.0451-2.1722.5732-2.2982.6055,0,0-.2457-.2103-.2457-.2103-.3889-.3354-2.4166-2.0671-2.7665-2.3683,0,0,.5579-.4959.5579-.4959,2.0784-2.0174,5.0676-3.1281,7.7361-4.1121.9162-.3718,1.8256-.8009,2.7385-1.2066.8099-.0089,1.5799.0949,2.3188.5216h0Z"/>
          </g>
          <g>
            <path d="M82.932,44.7974c.7435.0388,1.4869.0777,2.2304.1166.3578.1929.9205.4903,1.6206.8332,2.8364,1.3891,4.0839,1.3993,5.7575,2.4665.6321.4031,1.5501,1.0949,2.4813,2.273-.6593.4774-1.3185.9548-1.9779,1.4322-1.7687-.3753-4.0939-.8131-6.8428-1.1792,0,0-3.5701-.4754-6.6634-.6388-2.3927-.1263-9.4667.3529-18.873,1.9002"/>
            <path d="M82.932,44.7974l2.2618-.4857.0772-.0166c1.7536.917,3.4663,1.6927,5.3574,2.3166,2.1267.6655,3.9905,2.1885,5.273,4.0035-.3211.219-2.1455,1.5317-2.5097,1.784,0,0-.2184.1553-.2184.1553l-.2526-.0555c-3.956-.8848-7.974-1.5338-12.0122-1.9064-6.7543-.489-13.5534.6312-20.2443,1.4052,8.0125-1.4294,16.225-2.9379,24.3884-1.8723,2.721.2787,5.4313.6676,8.1144,1.2134,0,0-.4707.0997-.4707.0997l1.9651-1.4495-.1216.8785c-1.7019-2.3745-4.4878-3.0359-7.0613-4.1025-.8993-.402-1.7421-.8737-2.6022-1.3201l.2545.0714-2.1987-.719h0Z"/>
          </g>
          <g>
            <path d="M16.5977,35.8591c-.7183.102-1.4367.204-2.155.306-.3315,1.6856-.6631,3.3713-.9946,5.057.5978.1895,1.1955.3789,1.7933.5684"/>
            <path d="M16.5977,35.8591l-2.0701.9033.507-.4807-.9945,5.0567-.4097-.6913,1.6111,1.1434c-.4021.0017-2.1563.007-2.5216.0085,0,0,.1364-.6934.1364-.6934.0416-.2192,1.0974-5.5746,1.0995-5.59.2141.0315,2.3677.3052,2.642.3435h0Z"/>
          </g>
          <g>
            <path d="M83.7865,35.8317c.7183.102,1.4367.204,2.155.306.3315,1.6856.6631,3.3713.9946,5.057-.5978.1895-1.1955.3789-1.7933.5684"/>
            <path d="M83.7865,35.8317c.2861-.0405,2.4177-.312,2.642-.3435.1716.8721,1.0679,5.4295,1.2358,6.2835-.3548-.0019-2.1294-.0067-2.5215-.0085,0,0,1.611-1.1434,1.611-1.1434l-.4096.6913-.9946-5.0568.507.4807-2.0701-.9033h0Z"/>
          </g>
          <g>
            <path d="M19.8226,54.8336c.3936,1.3657.7589,2.9699.9946,4.7801.2482,1.9055.2992,3.6269.2562,5.1007"/>
            <path d="M19.8697,54.82c1.7131,2.9448,2.0795,6.6135,1.2039,9.8943-.5602-2.5031-.8376-4.8608-1.1407-7.3535-.0883-.82-.1629-1.6465-.1574-2.5136,0,0,.0942-.0271.0942-.0271h0Z"/>
          </g>
          <g>
            <path d="M24.9213,66.536l-.5274.9473c-1.1302,2.0646-2.2605,4.1291-3.3907,6.1937,1.5314,1.7363,2.7706,3.167,3.6118,4.1437,3.7207,4.3204,4.968,5.9314,6.7915,7.9668.6475.7227,1.2091,1.3816,2.3323,2.6993,1.189,1.3948.5859.7407.8439,1.0299.3171.3554.5731.6094.7931,1.0529.1121.226.1763.4236.2129.5538"/>
            <path d="M24.9476,66.5507c.2397.5217.099.8305-.0594,1.1302-.9884,2.1585-2.2051,4.214-3.3562,6.2855,0,0-.0767-.6881-.0767-.6881,3.623,4.1401,7.5318,8.7891,11.0549,13.0432.3033.3672,2.0102,2.4267,2.2732,2.7758.4004.559,1.2035,1.2108.805,2.0261-.5771-.3169-.6552-.656-.9776-.9825-.2588-.2558-.6672-.773-.9297-1.065-1.8615-2.0485-3.8562-4.3102-5.6588-6.3944-1.9786-2.3252-5.7288-6.6348-7.7487-8.9219,1.0414-1.9125,2.0174-3.863,3.149-5.7246,0,0,.541-.8648.541-.8648.1492-.2737.4455-.6782.9839-.6194h0Z"/>
          </g>
          <g>
            <path d="M25.3598,68.1617c2.0518,1.685,5.0966,4.6079,7.555,9.0161,2.7947,5.0111,3.5492,9.6422,3.7775,12.3582"/>
            <path d="M25.3625,68.1584c7.0449,4.5346,11.4973,13.034,11.3299,21.3775-1.4511-8.1566-5.5687-15.4961-11.3299-21.3775h0Z"/>
          </g>
          <path class="cls-5" d="M50.4757,70.6938c.0402,4.6246.0804,9.2492.1206,13.8738-.6331-.2683-1.2663-.5366-1.8994-.805-.0227-4.1354-.0454-8.2707-.0681-12.4061l1.847-.6628Z"/>
          <path class="cls-5" d="M50.4757,70.6938c.0402,4.6246.0804,9.2492.1206,13.8738.5626-.2036,1.1252-.4071,1.6878-.6107.0507-4.1703.1014-8.3407.1521-12.511-.6535-.2507-1.307-.5014-1.9605-.7522Z"/>
          <path class="cls-5" d="M44.8226,72.7499c.1582,4.6345.3164,9.269.4746,13.9035-.4539-.1253-.9079-.2505-1.3618-.3758-.1394-4.3632-.2787-8.7264-.4181-13.0896.4351-.146.8702-.2921,1.3053-.4381Z"/>
          <path class="cls-5" d="M44.8226,72.7499c.1582,4.6345.3164,9.269.4746,13.9035.3295-.4972.659-.9944.9885-1.4917-.0828-4.2917-.1656-8.5835-.2484-12.8752-.4049.1544-.8098.3089-1.2146.4633Z"/>
          <path class="cls-5" d="M39.2939,74.7064c.6956,4.4962,1.3912,8.9924,2.0868,13.4886.3091-.3865.6181-.773.9272-1.1596-.6652-4.2315-1.3303-8.463-1.9955-12.6945-.3395.1218-.679.2437-1.0185.3655Z"/>
          <path class="cls-5" d="M60.9342,74.7064c-.6832,4.508-1.3663,9.0161-2.0495,13.5241-.2009-.3983-.4019-.7967-.6028-1.195.663-4.1945,1.326-8.389,1.9891-12.5835.2211.0848.4422.1696.6632.2545Z"/>
          <path class="cls-5" d="M55.93,72.7864c-.1538,4.6448-.3076,9.2896-.4615,13.9344.3953-.1477.7906-.2954,1.1859-.4432l.4143-13.0543c-.3796-.1456-.7592-.2913-1.1387-.4369Z"/>
          <path class="cls-5" d="M55.93,72.7864c-.1538,4.6448-.3076,9.2896-.4615,13.9344-.2577-.4549-.5155-.9098-.7732-1.3647.0863-4.3147.1726-8.6293.2589-12.944.3252.1248.6505.2496.9757.3743Z"/>
          <path class="cls-5" d="M41.3807,88.195c1.3055-.5139,2.6111-1.0277,3.9166-1.5416-.4539-.1253-.9079-.2505-1.3618-.3758-.5425.2526-1.085.5052-1.6275.7578-.3091.3865-.6181.773-.9272,1.1596Z"/>
          <path class="cls-5" d="M45.2972,86.6534c1.7663-.6952,3.5327-1.3905,5.299-2.0857-.6331-.2683-1.2663-.5366-1.8994-.805-.8025.4347-1.605.8694-2.4075,1.3041-.3307.5289-.6614,1.0577-.9922,1.5866Z"/>
          <path class="cls-5" d="M55.4685,86.7208c-1.6241-.7177-3.2482-1.4354-4.8722-2.1531.5626-.2036,1.1252-.4071,1.6878-.6107.8037.4663,1.6075.9327,2.4112,1.399.2577.4549.5155.9098.7732,1.3647Z"/>
          <path class="cls-5" d="M58.8847,88.2305c-1.1387-.5032-2.2775-1.0064-3.4162-1.5097.3953-.1477.7906-.2954,1.1859-.4432.5425.2526,1.085.5052,1.6276.7578.2009.3983.4019.7967.6028,1.195Z"/>
          <g>
            <path d="M40.6343,85.3577c3.33-1.414,6.6601-2.828,9.9901-4.2421,3.0002,1.4488,6.0003,2.8977,9.0005,4.3465"/>
            <polygon points="40.6343 85.3576 50.3885 80.5604 50.6423 80.4356 50.8868 80.5724 59.6249 85.4621 50.3622 81.6589 50.8601 81.6709 40.6343 85.3576 40.6343 85.3576"/>
          </g>
          <ellipse class="cls-5" cx="21.9889" cy="39.4945" rx="3.1026" ry="3.0004"/>
          <ellipse class="cls-5" cx="22.0137" cy="39.1751" rx="3.1026" ry="3.0004"/>
          <ellipse class="cls-5" cx="22.0137" cy="39.1751" rx="2.211" ry="2.1381"/>
          <line class="cls-5" x1="22.114" y1="37.0403" x2="22.0137" y2="41.3132"/>
          <path class="cls-5" d="M19.9868,40.0297c.709-.2849,1.4181-.5697,2.1271-.8546"/>
          <path class="cls-5" d="M24.2247,40.0297l-2.1271-.8546"/>
          <ellipse class="cls-5" cx="78.4696" cy="39.3348" rx="3.1026" ry="3.0004"/>
          <ellipse class="cls-5" cx="78.4448" cy="39.0154" rx="3.1026" ry="3.0004"/>
          <ellipse class="cls-5" cx="78.4448" cy="39.0154" rx="2.211" ry="2.1381"/>
          <path class="cls-5" d="M45.0325,29.7474c1.8645,1.6144,3.729,3.2288,5.5934,4.8432,2.4606-3.2661,4.9212-6.5321,7.3817-9.7981"/>
          <path class="cls-5" d="M45.5524,29.1013c1.661,1.4687,3.3221,2.9373,4.9831,4.406,2.3174-3.0102,4.6348-6.0204,6.9522-9.0306"/>
          <g>
            <path d="M39.8755,34.9361c.5143-.248,1.0285-.4959,1.5428-.7438"/>
            <path d="M39.8755,34.9361c.0496-.8746.708-1.2681,1.5344-.7611-.0263.9618-.8319,1.2828-1.5344.7611h0Z"/>
          </g>
          <g>
            <path d="M39.7951,23.7001c.521.2427,1.0419.4854,1.5629.7281"/>
            <path d="M39.7952,23.7001c.7121-.5146,1.4367-.251,1.5709.7107-.7642.587-1.527.1653-1.5709-.7107h0Z"/>
          </g>
          <g>
            <path d="M50.9669,38.9778c.0019.5131.0038,1.0262.0057,1.5393"/>
            <path d="M50.9669,38.9778c.7549.3644.8462,1.0673.0248,1.5392-.8583-.3872-.7903-1.1852-.0248-1.5392h0Z"/>
          </g>
          <g>
            <path d="M60.4057,34.052c.531.2508,1.062.5016,1.593.7523"/>
            <path d="M60.4058,34.052c.7271-.5077,1.4606-.2313,1.6011.7351-.7774.5778-1.5514.1479-1.6011-.7351h0Z"/>
          </g>
          <g>
            <path d="M60.3379,24.2951c.5274-.2526,1.0549-.5052,1.5823-.7578"/>
            <path d="M60.3379,24.2951c.0633-.8831.7376-1.277,1.5741-.7751-.0405.9669-.8599,1.2944-1.5741.7751h0Z"/>
          </g>
          <g>
            <path d="M50.81,19.5187c-.0031-.5174-.0063-1.0347-.0094-1.5521"/>
            <path d="M50.8099,19.5187c-.7567-.3668-.8481-1.074-.0286-1.5519.8591.3885.7939,1.1922.0286,1.5519h0Z"/>
          </g>
          <path class="cls-5" d="M43.6731,56.4512l-11.3326-4.508s2.8322,7.1641,7.4747,6.762c1.5886-.1376,3.8579-2.254,3.8579-2.254Z"/>
          <path class="cls-5" d="M56.8501,56.765l11.3326-4.508s-2.8322,7.1641-7.4747,6.762c-1.5886-.1376-3.8579-2.254-3.8579-2.254Z"/>
          <ellipse class="cls-3" cx="38.1271" cy="55.9077" rx="8.1596" ry="7.8908"/>
          <ellipse class="cls-3" cx="62.7205" cy="56.1266" rx="8.1596" ry="7.8908"/>
          <g>
            <polyline points="39.2939 74.7064 50.4757 70.6938 60.9342 74.7064"/>
            <path d="M39.2904,74.6966l10.9814-4.5705.2122-.0883.2079.0929,10.2423,4.5757-10.6744-3.4493.4197.0046c-.0075-.0187-11.4082,3.503-11.389,3.4349h0Z"/>
          </g>
          <path class="cls-5" d="M39.5169,76.1478c.3333-.1686.6667-.3373,1-.5059-.0682-.4337-.1363-.8673-.2045-1.301-.3395.1218-.679.2437-1.0185.3655.0743.4805.1487.961.223,1.4414Z"/>
          <path class="cls-5" d="M60.7215,76.1099l-.6667-.3571c.0682-.4337.1363-.8673.2045-1.301.225.0848.4499.1696.6749.2545-.0709.4679-.1418.9357-.2127,1.4036Z"/>
          <path class="cls-5" d="M43.5739,74.4068c.4153-.0032.8305-.0065,1.2458-.0097l1.2415-.7078c.0014-.4344.0028-.8689.0042-1.3033-.4253.1587-.8506.3174-1.2759.4761-.4153.1425-.8305.285-1.2458.4275.01.3724.0201.7449.0301,1.1173Z"/>
          <path class="cls-5" d="M57.0297,74.4509c-.3716-.0029-.7432-.0058-1.1148-.0087-.3293-.2169-.6587-.4338-.988-.6507.0084-.4129.0168-.8259.0252-1.2388.329.1157.66.2339.993.3545.3813.1381.7585.2769,1.1315.4164-.0156.3758-.0312.7516-.0468,1.1273Z"/>
          <path class="cls-5" d="M48.632,72.8587c.6242.1117,1.2484.2234,1.8726.3352.6378-.1166,1.2756-.2331,1.9134-.3497.0056-.3986.0113-.7971.0169-1.1957-.6548-.236-1.3096-.472-1.9643-.708l-1.8411.6203c.0008.4327.0017.8653.0025,1.298Z"/>
          <g>
            <path d="M30.0962,37.1053c-.3329-1.7878-.9779-4.1257-2.2906-6.6454-2.1911-4.2059-5.1729-6.8657-7.0621-8.296"/>
            <path d="M30.0962,37.1053c-1.9419-5.703-5.0447-10.6759-9.3644-14.9261.0001,0,.0232-.0306.0232-.0306,5.2921,2.943,9.1661,8.8537,9.3412,14.9567h0Z"/>
          </g>
          <g>
            <path d="M31.0962,9.8796c-.136.1178-.3444.3053-.5818.5505-.7505.7751-1.124,1.417-1.6109,2.1929-.251.4-.6094.882-1.3261,1.846-.7981,1.0733-1.4505,1.7742-2.631,3.034-2.4092,2.5712-3.1867,3.0831-4.2029,4.6609-.5561.8634-.8584,1.541-1.0087,1.9053-.3489.8453-.4298,1.337-.6894,2.2516-.266.937-.5307,1.6209-1.0599,2.9888-.3961,1.0237-.8216,1.9906-1.6564,3.8826-.402.9112-.7393,1.6629-.972,2.1787"/>
            <path d="M31.0962,9.8796c-1.7157,1.9084-2.5664,4.3729-4.2783,6.3126-1.5548,1.9478-3.5132,3.7271-5.0813,5.5893-1.1796,1.471-1.7717,3.1528-2.2917,4.9454-1.0942,2.9826-2.555,5.889-4.088,8.644.4005-1.2085.8697-2.3869,1.2729-3.5871.8814-2.3546,1.7221-4.7458,2.3249-7.1961,1.1373-3.859,4.5795-6.2008,7.1218-9.0442,1.7942-1.7518,2.9537-4.1738,5.0197-5.6639h0Z"/>
          </g>
          <g>
            <path d="M69.9601,36.7947c.3329-1.7878.9779-4.1257,2.2906-6.6454,2.1911-4.2059,5.1729-6.8657,7.0621-8.296"/>
            <path d="M69.9601,36.7947c.1752-6.1031,4.049-12.0134,9.3411-14.9567,0,0,.0231.0305.0231.0305-4.3195,4.2501-7.4224,9.2234-9.3643,14.9262h0Z"/>
          </g>
          <g>
            <path d="M70.5894,9.8954c.1192.1318.2943.3324.4923.5866.6373.8183.9583,1.483,1.286,2.0986.1525.2866.5169.8906,1.2458,2.0986.3206.5313,1.1825,1.9521,2.2504,3.3422,1.8087,2.3542,2.7298,2.6957,4.0199,4.7351.518.8189,1.0247,1.7524,1.0248,1.7524.1632.3007.6055,1.1191,1.0235,2.0621.2494.5627.3975.9607,1.1252,3.1478.5883,1.768.8291,2.5222,1.3287,4.0113.2339.6973.4271,1.2648.55,1.6249"/>
            <path d="M70.5894,9.8954c2.1485,2.1044,3.379,4.9339,5.2763,7.2274,1.8096,2.3448,4.2656,4.2803,5.5065,7.0662,1.8006,3.4892,2.5772,7.3914,3.5638,11.166-.788-1.772-1.5051-3.569-2.199-5.3735-.4035-.9417-1.1615-3.0921-1.6648-3.9452-.4063-.8473-1.2689-2.2861-1.7984-3.1367-1.2475-1.8451-3.072-3.2136-4.2796-5.143-1.8175-2.4433-2.7455-5.3441-4.4048-7.8612h0Z"/>
          </g>
        </g>
        <polygon class="cls-7" points="78.2338 54.5194 76.9777 64.4209 73.5787 65.012 74.9087 54.5933 78.2338 54.5194"/>
        <path d="M76.9038,47.6475c-2.5266,12.5958-2.9177,16.6284-2.5257,17.1649.0434.0594.2969.9328.2969.9328,0,0-.3411.5475-.5329.6708-.8528-.8867-1.7057-1.7734-2.5585-2.6601,1.0591-5.3941,2.1182-10.7882,3.1773-16.1823l2.1429.0739Z"/>
        <path class="cls-7" d="M72.3409,64.6527l1.8012,1.7633,3.436,6.3732-14.1318,16.8473-3.8793-3.7685c.1815-4.5137,1.0194-8.0948,1.7992-10.6064.6059-1.9515,1.0208-3.2557,1.953-4.683,2.5651-3.9273,6.8164-5.3716,9.0217-5.9259Z"/>
        <path d="M73.47,65.7581c-1.1019.4528-2.6305,1.213-4.2048,2.4867-2.5064,2.0278-3.7708,4.2586-4.5697,5.7002-1.2555,2.2655-1.7891,4.1362-2.8564,7.8774-.5883,2.0622-.9944,3.8012-1.2596,5.0292-.3375-.3279-.6751-.6558-1.0126-.9837.1067-1.5911.3367-3.8814.8867-6.5948.7455-3.6784,1.2369-6.1026,2.641-8.3351.7646-1.2156,3.1959-4.5942,9.2463-6.2853.3764.3685.7528.7369,1.1292,1.1054Z"/>
        <path class="cls-12" d="M77.9503,54.819c-.3508,3.1877-.7831,6.2026-1.1795,9.3853-.5355-3.0768-.2977-6.6902,1.1795-9.3853h0Z"/>
        <path class="cls-12" d="M72.8315,67.4835c-5.6117,5.4102-9.3613,12.5832-10.4202,20.3184.1427-7.8512,4.071-15.6767,10.4202-20.3184h0Z"/>
        <polygon class="cls-7" points="21.8976 54.7297 23.1537 64.6312 26.5528 65.2223 25.2227 54.8036 21.8976 54.7297"/>
        <path d="M23.2276,47.8578c2.5266,12.5958,2.9177,16.6284,2.5257,17.1649-.0434.0594-.2969.9328-.2969.9328,0,0,.3411.5475.5329.6708.8528-.8867,1.7057-1.7734,2.5585-2.6601-1.0591-5.3941-2.1182-10.7882-3.1773-16.1823l-2.1429.0739Z"/>
        <path d="M26.7375,48.0021s-1.0105,10.0993,2.6601,12.4138c2.2695,1.431,4.6531.4455,7.6108,2.8079,2.0603,1.6456,1.715,2.7718,3.1035,3.2512,3.3462,1.1554,5.9447-5.1814,10.7143-5.0246,4.1208.1354,5.1942,4.9647,9.1626,4.5074,1.6777-.1933,1.6306-1.0732,5.9113-3.4729,4.0175-2.2522,6.0591-3.1035,6.0591-3.1035l1.1084-12.1921c-2.0536.3956-5.1975,1.0299-9.0148,1.9212-10.3377,2.4138-9.6411,2.9833-12.5616,3.1035-6.385.2627-7.8901-2.5341-17.9557-3.7685-2.886-.3539-5.2684-.4313-6.798-.4433Z"/>
        <path class="cls-7" d="M25.5738,48.2374l2.2168,16.6256c6.1116,1.8116,8.5242,5.0604,9.4212,6.5394,1.2234,2.0172,1.7269,4.5465,2.7339,9.605.5788,2.9073.9391,5.3544,1.1638,7.0936,3.1154-1.232,6.2308-2.464,9.3462-3.6959,2.8308,1.2696,5.6616,2.5393,8.4924,3.8089.1402-1.3446.3757-3.2613.7821-5.544.92-5.1686,1.436-8.1045,2.9372-10.7512.8834-1.5575,3.3144-5.1573,9.3594-7.5335.8491-5.2865,1.6981-10.5729,2.5472-15.8594-.7053-.0962-1.4106-.1924-2.1159-.2885l-2.143,11.2399c-1.4377.77-2.6377,1.2079-3.4914,1.4686-.7021.2144-1.9225.5386-3.4416,1.3074-.2953.1494-.4429.2241-.5542.2956-1.5393.9881-1.6895,2.5985-2.4741,2.6104-.084.0013-.1568-.0141-.4988-.2078-1.1977-.6785-1.8337-1.3044-2.5634-1.8442-.1434-.1061-.7716-.4619-2.0228-1.1823-1.1579-.6666-1.744-1.0027-2.0945-1.1375-.4023-.1548-1.404-.5003-2.7367-.5167-.304-.0038-1.3911.0001-2.7229.4387-.6258.2061-1.242.5454-2.4489,1.2156-.981.5448-1.6971.9424-2.6757,1.5657-1.7279,1.1005-1.8155,1.3337-2.312,1.3346-1.0415.0019-1.2259-1.0277-2.8689-2.1655-.5808-.4022-.8661-.4871-4.1876-1.6759-1.2883-.4611-2.4376-.8751-3.4176-1.2293-.8189-3.9129-1.6379-7.8258-2.4568-11.7386,0,0-.8083-.254-1.7734.2217Z"/>
        <path class="cls-15" d="M50.3921,70.0992c-3.4267,1.2716-6.8535,2.5431-10.2802,3.8147.6395,4.2745,1.279,8.549,1.9185,12.8234,2.8242-1.1495,5.6483-2.299,8.4725-3.4484,2.54,1.1607,5.0801,2.3214,7.6201,3.4821.6281-4.2857,1.2562-8.5714,1.8842-12.8572-3.205-1.2716-6.4101-2.5431-9.6152-3.8147Z"/>
        <path d="M52.1945,70.8143l2.315.9184c-.0794,4.1019-.1587,8.2038-.2381,12.3057l-2.2168-1.3301c.0466-3.9647.0932-7.9294.1398-11.8941Z"/>
        <path d="M48.694,70.7293c-.7942.2947-1.5883.5894-2.3825.8841.0761,4.0801.1523,8.1602.2284,12.2403l2.2168-1.3301c-.0209-3.9314-.0418-7.8629-.0626-11.7943Z"/>
        <path d="M41.0483,73.5664c.9825-.3646,1.9649-.7291,2.9474-1.0937l.3835,12.4418-1.4963.7204c-.6115-4.0228-1.223-8.0457-1.8346-12.0685Z"/>
        <path d="M59.3975,73.6719c-.9814-.3893-1.9627-.7787-2.9441-1.168l-.3809,12.4106,1.4963.7204,1.8287-11.963Z"/>
        <path class="cls-7" d="M27.7905,64.863l-1.8012,1.7633-3.436,6.3732,14.1318,16.8473,3.8793-3.7685c-.1815-4.5137-1.0194-8.0948-1.7992-10.6064-.6059-1.9515-1.0208-3.2557-1.953-4.683-2.5651-3.9273-6.8164-5.3716-9.0217-5.9259Z"/>
        <path d="M26.6614,65.9684c1.1019.4528,2.6305,1.213,4.2048,2.4867,2.5064,2.0278,3.7708,4.2586,4.5697,5.7002,1.2555,2.2655,1.7891,4.1362,2.8564,7.8774.5883,2.0622.9944,3.8012,1.2596,5.0292.3375-.3279.6751-.6558,1.0126-.9837-.1067-1.5911-.3367-3.8814-.8867-6.5948-.7455-3.6784-1.2369-6.1026-2.641-8.3351-.7646-1.2156-3.1959-4.5942-9.2463-6.2853-.3764.3685-.7528.7369-1.1292,1.1054Z"/>
        <path class="cls-7" d="M5.0226,47.5253l3.4729,2.8079c3.7047-.846,11.9349-2.4726,20.3807-1.8186,4.0953.3171,7.5596,1.1166,7.5596,1.1166,1.2434.2072,2.1304.5282,2.2821.5633,1.3284.307,4.7361,1.3457,6.4286,1.8565,1.2615.3807,3.1427.9429,5.4865,1.621,2.0054-.62,3.5961-1.1195,4.572-1.427,4.6186-1.4557,5.8506-1.8864,8.1103-2.3628,1.4699-.3099,2.8727-.5314,3.2836-.5958.7208-.1129,2.2322-.3381,3.9656-.5049,4.3899-.4225,8.0182-.2605,8.9885-.2109,3.0525.1561,5.3547.5075,6.7241.7204,2.2331.3472,4.1602.7551,5.7081,1.1268,1.1602-.9396,2.3205-1.8791,3.4807-2.8187-1.4152-.5788-3.4918-1.4512-5.9852-2.5862-4.0359-1.8372-4.5391-2.2574-4.8441-2.5428-1.8457-1.7273-1.5513-3.3089-3.0623-8.9104-1.0871-4.0298-1.768-6.5556-3.4729-9.3842-.9754-1.6183-1.4174-1.8617-2.5766-3.1253-.601-.6551-1.1905-1.3431-2.3003-2.786-2.1165-2.752-2.3546-4.6491-4.581-6.4617-1.1633-.9471-2.4589-1.5562-3.1958-1.9027-.8371-.3936-1.733-.8148-2.9862-1.1154-1.2806-.3072-4.8552-.9505-5.5391-1.6207-.002-.002-.0045-.0044-.0089-.0088-.1916-.1879-.5248-.4916-.9886-.8018,0,0-.3132-.2095-.625-.3725-.5502-.2875-1.6088-.6524-5.1335-.6524,0,0-2.5867-.0026-3.8385.5223-.6389.2679-1.0389.5492-1.33.7389-2.0537,1.3381-4.029,1.5922-5.9113,2.1429,0,0-3.2099.939-6.2808,3.1035-2.607,1.8375-1.734,2.2832-6.2808,7.0936-2.544,2.6915-4.0552,3.8616-5.0888,6.5464-.2721.7068-.1469.5724-.8345,2.8777-.8882,2.978-1.3189,3.9454-2.2048,6.6104-2.0206,6.0782-2.734,7.6108-2.734,7.6108,0,0-1.6001.8996-5.2463,2.4384-2.3556.9942-4.2173,1.9099-5.3941,2.5123Z"/>
        <path class="cls-12" d="M80.3254,37.7522c-.3927-2.9663-1.0923-5.3627-1.7081-7.0837-.4884-1.3649-1.082-2.996-2.2608-4.9235-.893-1.4602-1.5029-2.0784-3.0143-3.9689-.9969-1.247-2.3907-3.0532-3.9886-5.3492-1.2454,2.117-3.0014,5.3413-4.7028,9.4688-2.4212,5.874-3.6501,8.9717-2.312,11.421,1.9351,3.5417,8.3495,3.8917,7.9566,3.8668-5.4701-.3469-10.9403-.6939-16.4104-1.0409,1.1291-2.1856,2.2691-4.3757,3.42-6.5702,3.8369-7.316,7.7041-14.5067,11.5954-21.5728.5264.8493,1.2493,1.9982,2.1308,3.3459.4976.7608,1.5836,2.4213,2.6124,3.8684,2.686,3.7783,3.0169,3.3384,4.4713,5.6267,1.7397,2.7374,2.4874,5.2886,3.047,7.1979.6217,2.1212.9397,3.9606,1.114,5.3178l-1.9504.3957Z"/>
        <path class="cls-12" d="M19.687,37.3838c.8265-2.5389,1.4968-4.6204,1.9593-6.0622,1.4494-4.5179,1.649-5.2153,2.3947-6.3636,1.1558-1.7797,1.8559-1.9204,4.1531-4.555,1.4916-1.7107,2.5605-3.2158,3.2094-4.183,1.4285,2.3547,3.2984,5.7105,5.1135,9.927,2.5681,5.9657,3.673,8.9054,2.4618,11.1698-1.8877,3.529-8.347,3.8915-7.9566,3.8668,5.4701-.3469,10.9403-.6939,16.4104-1.0409-1.1802-1.9507-2.3537-3.9426-3.5179-5.9763-4.2785-7.4737-8.0283-14.8053-11.3216-21.9108-.055.0505-.1441.1335-.2506.2388-.495.4893-.8123.9115-.9451,1.0873-.4294.5682-1.6083,2.1063-3.1698,4.1754l-.0013.0012c-2.4668,2.277-3.7232,3.4457-4.8551,4.9222-.6487.8462-.9962,1.2996-1.3397,2.0431-.2524.5463-.4976,1.3271-.988,2.8887-.1525.4853-.2016.606-.3182,1.0299-.1252.4553-.2194.758-1.055,3.2069-.7202,2.111-1.3514,3.9413-1.8361,5.3405.6176.0647,1.2353.1295,1.8529.1942Z"/>
        <path class="cls-14" d="M18.8075,41.6397s-11.6749,5.7636-11.6749,5.7636l2.3917,1.5317c2.2412-.5454,4.3082-.9318,6.1542-1.2078,0,0,2.4183-.3605,4.8285-.5455,6.5589-.5035,19.0897.3525,26.1577,2.3645.6465.184,2.5104.7373,5.0153.7143,2.1873-.0201,3.8087-.4698,4.4428-.6404,3.6088-.971,12.9782-3.4922,21.798-2.734.9783.0841,2.6966.327,6.133.8128,3.6238.5123,6.6056.9903,8.6453,1.33l1.0345-1.7734-12.7094-5.2463s-3.2829.1182-3.9901.2217c-6.3908.9353-8.728.215-30.0739.665-16.6841.3518-18.7572.8657-22.9803-.4433-1.1456-.3551-2.8409-.9657-5.1724-.8128Z"/>
        <path class="cls-7" d="M26.3384,43.8086c.2292.1077,1.0066.4448,1.0066.4448l24.0354-.6444,21.4876.4761s1.0596-.2142,1.5791-.3326c-.0781-.6636-.1561-1.3272-.2342-1.9907-9.8671-1.3032-17.878-1.5191-23.3498-1.4778-10.7529.0811-24.4071,1.2514-24.4071,1.2514-.071.2443-.1352.5349-.17.8648-.0593.5625-.0129,1.0464.0523,1.4085Z"/>
        <path class="cls-14" d="M36.9849,21.5083c.0343,4.6909.0686,9.3818.1029,14.0726.9361-.5038,1.8723-1.0076,2.8084-1.5115-.027-3.697-.0541-7.394-.0811-11.0909-.9434-.4901-1.8868-.9802-2.8302-1.4702Z"/>
        <path class="cls-14" d="M50.3257,14.1266c-4.4766,2.4482-8.9532,4.8964-13.4298,7.3446.9262.5646,1.8524,1.1293,2.7786,1.6939,3.5281-1.9295,7.0562-3.859,10.5843-5.7884.0223-1.0834.0446-2.1667.0669-3.2501Z"/>
        <path class="cls-14" d="M61.5219,24.824c-3.6244-1.852-7.2488-3.704-10.8732-5.556.0437.8642.0873,1.7284.131,2.5926,2.8565,1.4596,5.7129,2.9192,8.5694,4.3788.7243-.4718,1.4485-.9436,2.1728-1.4154Z"/>
        <path class="cls-14" d="M63.8243,35.3893c-.0343-4.7257-.0686-9.4514-.1029-14.1771-.9361.5076-1.8723,1.0151-2.8084,1.5227.027,3.7244.0541,7.4488.0811,11.1732.9434.4937,1.8868.9874,2.8302,1.4812Z"/>
        <path class="cls-14" d="M50.4228,42.9673c4.4964-2.4589,8.9928-4.9177,13.4891-7.3766-.9283-.5635-1.8566-1.127-2.785-1.6905-3.5437,1.9379-7.0874,3.8757-10.6311,5.8136-.0244,1.0845-.0487,2.1689-.0731,3.2534Z"/>
        <path class="cls-14" d="M37.0429,35.6366c4.4892,2.4358,8.9785,4.8717,13.4677,7.3075-.0284-1.0847-.0568-2.1693-.0852-3.2539-3.5381-1.9197-7.0761-3.8395-10.6142-5.7592-.9228.5685-1.8455,1.1371-2.7683,1.7056Z"/>
        <polygon class="cls-8" points="63.7001 35.3864 50.4454 42.52 37.0877 35.581 36.9849 21.5083 50.2396 14.3747 63.5973 21.3138 63.7001 35.3864"/>
        <polygon class="cls-10" points="60.8699 33.9162 50.4236 39.5383 39.8962 34.0695 39.8151 22.9786 50.2614 17.3564 60.7888 22.8252 60.8699 33.9162"/>
        <polygon class="cls-7" points="16.7991 36.7186 27.9937 36.8295 27.3286 43.9231 15.663 42.5745 16.7991 36.7186"/>
        <polygon class="cls-7" points="83.5009 36.7186 72.3063 36.8295 72.9713 43.9231 84.637 42.5745 83.5009 36.7186"/>
        <path class="cls-12" d="M65.5284,18.747c1.8431-3.8186-.0114-7.6479-2.2999-8.3237-1.9744-.583-4.943.983-6.1822,4.159v-7.0382c.7449.3967,1.8863.9384,3.3485,1.3695,2.1092.6219,2.0745.2633,3.8395.8288,1.8366.5884,3.0909,1.3749,3.7135,1.8039.3191.2199.5756.4171.7535.5589-1.0576,2.214-2.1153,4.4279-3.1729,6.6418Z"/>
        <path class="cls-12" d="M35.8927,18.747c-1.5569-4.0545.5755-7.7424,2.8851-8.2244,1.8705-.3904,4.4138,1.2056,5.597,4.0597-.0515-2.4256-.1031-4.8512-.1547-7.2768-.4799.3113-1.2539.7669-2.2719,1.1576-2.2573.8664-2.9521.3537-4.7613,1.2793-.9153.4682-1.0812.7752-2.5955,1.5471-.5376.274-1.0852.3408-1.7806.8097-.0156.0105-.0284.0193-.0365.0248l3.1185,6.623Z"/>
        <path class="cls-12" d="M44.3748,12.7719c.0367-.19.8825-4.2329,4.3502-5.3976.4648-.1561,2.2602-.7281,4.2201.134,1.4115.6209,2.1823,1.6662,2.4869,2.1351,0,0,.3068.4412,1.4906,2.8236-.0531-1.7199-.1062-3.4398-.1593-5.1598-.4232-.2309-.9954-.5138-1.6956-.7787-.1676-.0634-1.8263-.6799-3.6298-.829-3.2259-.2666-6.097,1.0301-6.9455,1.4402-.0392,1.8773-.0784,3.7547-.1176,5.632Z"/>
        <path class="cls-12" d="M14.5084,46.0105c-.0206-.3225,4.6177-.9971,7.9249-1.3301,2.2244-.224,3.0869-.2179,11.226-.4568,5.5941-.1642,6.3373-.2008,10.2539-.299,2.8938-.0725,4.3164-.129,6.4826-.1444,2.5042-.0177,4.5056.0127,6.0406.0369,3.4293.0541,3.0997.1059,6.6687.1663.2828.0048,2.473.0463,6.8535.1293.5083.0097,1.5717.0312,2.9741.1293,0,0,1.1386.0796,2.3034.2086,1.8227.2018,12.0832,1.5453,12.0372,2.0031-.0348.3475-5.1386-.2767-14.8019-.161-1.1711.014-13.3729.16-17.8851.7033-.3972.0478-1.7247.2179-3.5167.201-1.5519-.0147-2.7022-.1626-3.0143-.201-3.4438-.424-11.5693-.6645-16.2775-.8038-10.9349-.3237-17.2454.1936-17.2694-.1818Z"/>
        <path class="cls-12" d="M38.8098,49.9491c3.9363,1.1752,7.8727,2.3504,11.8089,3.5256,3.8192-1.195,7.6383-2.3899,11.4575-3.5849-3.7993.7143-7.5986,1.4286-11.3978,2.1429-3.9562-.6946-7.9124-1.3891-11.8686-2.0836Z"/>
        <path class="cls-12" d="M29.804,59.7544c-.7574-2.42-1.5148-4.8399-2.2722-7.2599.351,2.6232.702,5.2463,1.053,7.8695l8.0357,3.6022,3.048,3.3251c2.0258-1.5494,3.8269-2.7009,5.1909-3.5099,3.8108-2.2602,4.9923-2.3107,5.4495-2.3091,1.9353.0066,3.4189.9888,5.3017,2.2352,3.1087,2.058,5.1724,3.5283,5.1724,3.5283.9606-1.0714,1.9212-2.1429,2.8818-3.2143l7.537-3.4914s1.2886-7.8569,1.053-7.8695c-.221-.0117-1.9397,6.8165-1.9397,6.8165-2.5123.9698-5.0246,1.9397-7.537,2.9095-.7967.8651-1.5934,1.7303-2.3901,2.5954-.8286-.6628-1.8177-1.4075-2.9623-2.1834-1.6462-1.1159-2.4953-1.6838-3.7687-2.1693-1.0337-.3941-2.1385-.8154-3.5882-.7181-1.031.0692-1.768.3879-3.242,1.0252-1.3843.5986-2.3634,1.1905-3.5468,1.9119-.8383.5111-1.9425,1.2194-3.2051,2.1336-.7943-.7697-1.5887-1.5394-2.383-2.3091-2.6293-.9729-5.2586-1.9458-7.8879-2.9187Z"/>
        <path d="M36.6349,63.9662c.1672-.5794.5474-1.0047,1.0672-1.2966-.1513.5586-.5406,1.0267-1.0672,1.2966h0Z"/>
        <path d="M28.5992,60.364c.2914-.4147.7181-.6046,1.2167-.6145-.2698.4015-.721.628-1.2167.6145h0Z"/>
        <path d="M39.683,67.2913c-.1033-.8064.0553-1.58.401-2.3101.1081.78-.0388,1.5944-.401,2.3101h0Z"/>
        <path d="M60.7975,67.2359c-.3685-.7042-.4799-1.4672-.4004-2.2527.3639.6779.5005,1.4752.4004,2.2527h0Z"/>
        <path d="M63.6879,64.0127c-.5065-.42-.7907-.9809-.9001-1.6233.4933.3974.8132.9823.9001,1.6233h0Z"/>
        <path d="M71.2162,60.5302c-.5716-.0794-1.0175-.3896-1.3474-.8543.5493.0666,1.0386.3801,1.3474.8543h0Z"/>
        <path d="M44.485,6.9616c.5084,3.4572.4975,6.9562.2385,10.4387,0,0-.2205.005-.2205.005-.4178-3.467-.5884-6.9619-.2385-10.4387,0,0,.2205-.005.2205-.005h0Z"/>
        <path d="M57.0328,6.9665c.354,3.5163.1875,7.051-.2263,10.5585,0,0-.2204-.0047-.2204-.0047-.2632-3.522-.2781-7.0606.2261-10.5585,0,0,.2205.0047.2205.0047h0Z"/>
        <path d="M32.6771,11.9529c1.8205,2.8747,3.1829,5.9979,4.3115,9.2055,0,0-.1998.0936-.1998.0936-1.7417-2.9204-3.2684-5.9666-4.3115-9.2055,0,0,.1998-.0936.1998-.0936h0Z"/>
        <path d="M68.9966,12.0534c-1.6879,3.8513-3.6036,8.0286-5.2758,11.8871,0,0-.209-.0706-.209-.0706.5388-2.1161,1.2306-4.1985,2.1184-6.1964.874-2.0037,1.9063-3.9429,3.1738-5.7277,0,0,.1925.1076.1925.1076h0Z"/>
        <path class="cls-12" d="M32.8108,12.0992c3.4197-2.7355,7.503-3.2174,11.4094-4.7935-1.5671,1.4205-3.6648,2.0404-5.6259,2.6366-1.9452.6738-3.8293,1.4653-5.7835,2.1568h0Z"/>
        <path class="cls-12" d="M68.6898,12.1362c-1.8872-.7644-3.863-1.5748-5.8025-2.176-1.9649-.5899-4.1724-1.0259-5.794-2.3821,3.9622,1.3463,8.2717,1.6648,11.5965,4.5581h0Z"/>
        <path class="cls-12" d="M44.5342,7.1438c2.1836-1.8191,5.1689-1.7075,7.8438-1.5666,1.237.0691,2.5935.2856,3.5996,1.0769,1.3399,1.0675.2678.3247-.584.0375-.9292-.3674-1.9927-.3784-3.0415-.3916-2.5739-.01-5.4079-.2302-7.8179.8438h0Z"/>
        <path class="cls-12" d="M17.8893,43.0621c-.6702.345-1.392.4199-2.1056.4171,0,0,.1702-.0377.1702-.0377-1.3776.7253-3.4159,1.6404-4.8477,2.3033,0,0-4.8749,2.2227-4.8749,2.2227l.0729-.6152,2.5383,2.1082s-.2828-.0684-.2828-.0684c4.9999-.89,10.0687-1.8022,15.1683-1.51,5.0768.3301,10.1018,1.1046,15.0822,2.0653-4.9987-.792-10.0478-1.4554-15.1011-1.6935-5.0418-.1905-10.0764.8201-15.0093,1.7973,0,.0001-.1555.0337-.1555.0337l-.1276-.1021-2.5764-2.0615s-.4535-.3629-.4535-.3629c1.6306-.7796,3.7387-1.8108,5.3765-2.5318,1.4712-.6646,3.5313-1.5416,4.9604-2.2419.7162.0324,1.4164.0887,2.1655.2773h0Z"/>
        <path class="cls-12" d="M82.5107,43.0357c.7456-.1757,1.423-.1856,2.1569-.2496,1.3984.7779,3.4675,1.6951,4.9405,2.3735,1.8011.8584,3.6388,1.6695,5.4692,2.4774-.3813.2983-2.7203,2.1985-3.1428,2.5325-3.4822-.7003-7.6919-1.4602-11.2404-1.7367-6.2135-.5446-12.4715.6661-18.6181,1.455,6.1379-1.0015,12.4008-2.3243,18.6539-1.8993,0,.0002,3.7477.334,3.7477.334,2.1685.1793,5.2522.8347,7.4386,1.1618,0,0-.2843.0683-.2843.0683l2.5173-2.106.0891.6185-2.4977-1.0558c-2.3778-1.0733-5.0608-2.2729-7.3252-3.5753,0,0,.2028.0416.2028.0416-.7268.0554-1.4609-.0977-2.1074-.4399h0Z"/>
        <path class="cls-12" d="M19.2091,36.9662l-1.933.6181.2769-.2659-.9133,4.8468-.226-.3767,1.5525.8336c-.1996-.0196-1.894-.2217-2.0413-.2362.0676-.3583.9574-5.0813,1.0288-5.4602.0508-.0012,2.1382.0397,2.2554.0404h0Z"/>
        <path class="cls-12" d="M81.0754,36.9563c.1245-.0031,2.1982-.0387,2.2544-.0403.0736.3831.9818,5.1204,1.0512,5.4823-.142.0104-1.8801.2066-2.0743.224,0,0,1.5872-.8252,1.5872-.8252l-.2291.3788-.9331-4.8661.2767.2648-1.933-.6182h0Z"/>
        <path class="cls-12" d="M22.2404,55.0128c1.3487,2.9064,1.6966,6.2607,1.1204,9.4017-.3323-3.1565-.9623-6.3261-1.1204-9.4017h0Z"/>
        <path class="cls-12" d="M26.9235,66.079c.1799.6509-.3971,1.3158-.6098,1.8722-.5662,1.1578-2.0669,3.9692-2.7076,5.1409,0,0-.0457-.4315-.0457-.4315,2.2636,2.7246,8.0571,9.7116,10.1841,12.3963,0,0,1.6664,2.0875,1.6664,2.0875.4853.7345,1.396,1.4068,1.2946,2.3767-3.9031-4.5945-9.7933-11.6726-13.74-16.3608,0,0-.1671-.1996-.1671-.1996l.1213-.2322,1.7958-3.4364c.4362-.8294.9505-1.722,1.4251-2.5353.1517-.2614.3696-.6417.783-.6777h0Z"/>
        <path class="cls-12" d="M73.2482,65.8469c.6659.2281.8709,1.0618,1.2228,1.5619.6874,1.1039,2.1059,3.9845,2.7512,5.1645,0,0,.1221.2338.1221.2338l-.1671.1995c-3.9655,4.7107-9.8163,11.7412-13.7397,16.361-.1023-.9679.8104-1.6448,1.2945-2.3767,0,0,1.6665-2.0875,1.6665-2.0875,2.1019-2.6535,7.9454-9.7018,10.184-12.3963,0,0-.045.4329-.045.4329-.6587-1.19-2.1543-3.9943-2.7301-5.1824,0,0-.425-.8795-.425-.8795-.1256-.2773-.3398-.6609-.1342-1.0312h0Z"/>
        <path class="cls-12" d="M27.3031,67.6901c6.3484,4.6632,10.2744,12.4642,10.4171,20.3221-1.0536-7.7381-4.822-14.9099-10.4171-20.3221h0Z"/>
        <path class="cls-14" d="M50.3921,70.2725c.0369,4.3966.0739,8.7931.1108,13.1897-.5821-.2551-1.1642-.5102-1.7462-.7653-.0209-3.9314-.0418-7.8629-.0626-11.7943l1.6981-.6301Z"/>
        <path class="cls-14" d="M50.3921,70.2725c.0369,4.3966.0739,8.7931.1108,13.1897.5172-.1935,1.0345-.387,1.5517-.5805.0466-3.9647.0932-7.9294.1398-11.8941-.6008-.2384-1.2016-.4767-1.8024-.7151Z"/>
        <path class="cls-14" d="M45.1948,72.2272c.1455,4.406.2909,8.8119.4364,13.2179-.4173-.1191-.8347-.2382-1.252-.3573l-.3843-12.4441c.4-.1388.8-.2777,1.2-.4165Z"/>
        <path class="cls-14" d="M45.1948,72.2272c.1455,4.406.2909,8.8119.4364,13.2179.3029-.4727.6058-.9454.9087-1.4181-.0761-4.0801-.1523-8.1602-.2284-12.2403-.3722.1468-.7445.2937-1.1167.4405Z"/>
        <path class="cls-14" d="M40.1119,74.0872c.6395,4.2745,1.279,8.549,1.9185,12.8234.2841-.3675.5683-.7349.8524-1.1024-.6115-4.0228-1.223-8.0457-1.8346-12.0685-.3121.1158-.6242.2316-.9364.3475Z"/>
        <path class="cls-14" d="M60.0072,74.0872c-.6281,4.2857-1.2562,8.5714-1.8842,12.8572-.1847-.3787-.3695-.7574-.5542-1.1361l1.8287-11.963c.2033.0806.4065.1613.6098.2419Z"/>
        <path class="cls-14" d="M55.4065,72.2619c-.1414,4.4157-.2828,8.8315-.4242,13.2472.3634-.1404.7268-.2809,1.0902-.4213l.3809-12.4106c-.349-.1384-.6979-.2769-1.0469-.4153Z"/>
        <path class="cls-14" d="M55.4065,72.2619c-.1414,4.4157-.2828,8.8315-.4242,13.2472-.2369-.4325-.4739-.8649-.7109-1.2974.0794-4.1019.1587-8.2038.2381-12.3057.299.1186.598.2373.897.3559Z"/>
        <path class="cls-14" d="M42.0304,86.7373c1.2003-.4885,2.4005-.977,3.6008-1.4656-.4173-.1191-.8347-.2382-1.252-.3573-.4988.2401-.9975.4803-1.4963.7204-.2841.3675-.5683.7349-.8524,1.1024Z"/>
        <path class="cls-14" d="M45.6312,85.2717c1.6239-.661,3.2478-1.3219,4.8717-1.9829-.5821-.2551-1.1642-.5102-1.7462-.7653-.7378.4133-1.4756.8265-2.2133,1.2398-.3041.5028-.6081,1.0056-.9122,1.5083Z"/>
        <path class="cls-14" d="M54.9822,85.3358c-1.4931-.6823-2.9862-1.3646-4.4793-2.0469.5172-.1935,1.0345-.387,1.5517-.5805.7389.4433,1.4778.8867,2.2168,1.3301.2369.4325.4739.8649.7109,1.2974Z"/>
        <path class="cls-14" d="M58.123,86.771c-1.0469-.4784-2.0938-.9568-3.1407-1.4352.3634-.1404.7268-.2809,1.0902-.4213.4988.2401.9975.4803,1.4963.7204.1847.3787.3695.7574.5542,1.1361Z"/>
        <polygon class="cls-12" points="41.2972 87.7845 50.3253 83.3957 50.4932 83.3141 50.6555 83.4039 58.7565 87.8838 50.3081 84.0996 50.6379 84.1078 41.2972 87.7845 41.2972 87.7845"/>
        <circle class="cls-12" cx="24.2024" cy="40.4384" r="2.8524"/>
        <circle cx="24.2252" cy="40.1348" r="2.8524"/>
        <circle class="cls-6" cx="24.2252" cy="40.1348" r="2.0327"/>
        <line class="cls-6" x1="24.3173" y1="38.1052" x2="24.2252" y2="42.1674"/>
        <path class="cls-6" d="M22.3617,40.9472c.6519-.2708,1.3037-.5416,1.9556-.8124"/>
        <path class="cls-6" d="M26.2578,40.9472l-1.9556-.8124"/>
        <circle class="cls-12" cx="76.1285" cy="40.2866" r="2.8524"/>
        <circle cx="76.1058" cy="39.983" r="2.8524"/>
        <circle class="cls-6" cx="76.1058" cy="39.983" r="2.0327"/>
        <path class="cls-4" d="M41.0032,27.5862c3.2335,2.8991,6.4669,5.7984,9.7004,8.6976,4.2567-4.666,8.5134-9.332,12.7701-13.9979"/>
        <path d="M37.6551,35.233c.4437-.5481,1.0918-.8722,1.7811-.8805-.469.5338-1.0617.8593-1.7811.8805h0Z"/>
        <path d="M37.5625,21.8422c.7089.0167,1.3656.3322,1.7984.8737-.713-.0454-1.3371-.3164-1.7984-.8737h0Z"/>
        <path d="M50.4381,40.0498c.295.5894.2972,1.2637-.0002,1.8345-.2707-.6058-.2994-1.2316.0002-1.8345h0Z"/>
        <path d="M61.3164,34.1793c.7219.0271,1.3904.3522,1.8329.9027-.7259-.0558-1.3614-.3363-1.8329-.9027h0Z"/>
        <path d="M59.459,25.9886c.3714-.4528.8755-.6786,1.4523-.7254-.3487.4403-.8782.7014-1.4523.7254h0Z"/>
        <path d="M50.2572,16.859c-.2962-.5938-.3003-1.2734-.0041-1.8498.2722.6103.3023,1.241.0041,1.8498h0Z"/>
        <path class="cls-13" d="M46.1766,56.7647l-12.763-5.25s3.1897,8.3433,8.4182,7.8751c1.7891-.1602,4.3449-2.625,4.3449-2.625Z"/>
        <path class="cls-13" d="M54.6043,57.1302l12.763-5.25s-3.1897,8.3433-8.4182,7.8751c-1.7891-.1602-4.3449-2.625-4.3449-2.625Z"/>
        <path d="M40.1106,73.9103l10.2047-4.0178.0796-.0314.0786.0331,9.5337,4.0196-9.6963-3.6097.1578.0018c-.0027-.0067-10.365,3.6297-10.3582,3.6043h0Z"/>
        <path class="cls-12" d="M40.3169,75.2842c.3065-.1603.6129-.3207.9194-.481-.0627-.4123-.1253-.8245-.188-1.2368-.3121.1158-.6242.2316-.9364.3475.0683.4568.1367.9136.205,1.3703Z"/>
        <path class="cls-12" d="M59.8117,75.2482l-.613-.3395c.0627-.4123.1253-.8245.188-1.2368.2068.0806.4137.1613.6205.2419-.0652.4448-.1304.8896-.1956,1.3344Z"/>
        <path class="cls-12" d="M44.0228,73.6291c.3858-.0031.7716-.0062,1.1573-.0093l1.1534-.6729c.0014-.413.0026-.826.004-1.239-.3951.1508-.7902.3017-1.1853.4526-.3858.1355-.7716.2709-1.1574.4064.0094.3541.0187.7081.028,1.0622Z"/>
        <path class="cls-12" d="M56.4176,73.671c-.3416-.0028-.6833-.0055-1.0249-.0083-.3028-.2062-.6056-.4124-.9084-.6186.0077-.3926.0154-.7851.0231-1.1777.3024.11.6068.2223.9129.337.3506.1313.6973.2633,1.0402.3959-.0143.3573-.0287.7145-.043,1.0717Z"/>
        <path class="cls-12" d="M48.697,72.1573c.5739.1062,1.1477.2124,1.7216.3186.5864-.1108,1.1727-.2216,1.7591-.3325.0052-.3789.0104-.7578.0155-1.1368-.602-.2244-1.204-.4487-1.8059-.6731l-1.6926.5897c.0008.4113.0016.8226.0023,1.234Z"/>
        <path class="cls-12" d="M32.5752,12.2839c-.7402.7322-1.4873,2.0224-1.9951,2.9307-1.6996,3.1335-4.3458,5.7762-6.6323,8.4191-1.0851,1.4111-1.6031,3.0128-2.0899,4.7022-1.0022,2.8174-2.3437,5.5694-3.7528,8.1823.3637-1.1422.7921-2.2571,1.1591-3.3915.5816-1.6148,1.1972-3.3992,1.6708-5.0533.4083-1.774.9838-3.6186,2.1106-5.0917,1.524-1.9583,3.3011-3.4106,4.8111-5.3247,1.6607-1.6947,2.7484-3.9753,4.7184-5.3731h0Z"/>
        <path class="cls-12" d="M68.8838,12.299c1.9848,2.0137,3.1078,4.6867,4.8551,6.8733,1.6831,2.2441,3.9569,4.1242,5.0991,6.7744,1.6291,3.3194,2.3444,6.9899,3.2355,10.5565-.7278-1.6858-1.3888-3.3943-2.0282-5.1096-.3724-.8962-1.069-2.9408-1.5335-3.7557-.355-.7691-1.1799-2.1987-1.6535-2.9836-1.1451-1.7541-2.8367-3.0713-3.9426-4.9034-1.6699-2.3246-2.509-5.0612-4.0318-7.4518h0Z"/>
        <path class="cls-2" d="M39.126,23.3998c3.6983,3.3768,7.3965,6.7537,11.0948,10.1305,5.0243-5.5147,10.0487-11.0295,15.073-16.5442"/>
      </g>
    </g>
  </g>
</svg>