<?xml version="1.0" encoding="UTF-8"?>
<svg id="Layer_2" xmlns="http://www.w3.org/2000/svg" viewBox="0 0 497.4998 471.919">
  <defs>
    <style>
      .cls-1 {
        stroke-width: 35.5508px;
      }

      .cls-1, .cls-2, .cls-3, .cls-4, .cls-5, .cls-6, .cls-7, .cls-8, .cls-9, .cls-10 {
        stroke-miterlimit: 10;
      }

      .cls-1, .cls-2, .cls-7, .cls-9 {
        fill: none;
      }

      .cls-1, .cls-9 {
        stroke: #fff;
      }

      .cls-11, .cls-3 {
        fill: #1e1e1e;
      }

      .cls-12 {
        fill: #447294;
      }

      .cls-13, .cls-4, .cls-5, .cls-8, .cls-10 {
        fill: #4fb848;
      }

      .cls-2 {
        stroke: #1e1e1e;
        stroke-width: 17.4294px;
      }

      .cls-3 {
        stroke-width: 2.7312px;
      }

      .cls-3, .cls-6, .cls-7 {
        stroke: #000;
      }

      .cls-14 {
        fill: #fff;
      }

      .cls-4 {
        opacity: .5;
      }

      .cls-4, .cls-5, .cls-8 {
        stroke-width: 5.9604px;
      }

      .cls-4, .cls-5, .cls-8, .cls-10 {
        stroke: #4fb848;
      }

      .cls-5 {
        opacity: .72;
      }

      .cls-6 {
        stroke-width: 2.1787px;
      }

      .cls-6, .cls-15 {
        fill: #999;
      }

      .cls-7 {
        stroke-width: 5.4623px;
      }

      .cls-9 {
        stroke-width: 1.962px;
      }

      .cls-10 {
        stroke-width: 14.9323px;
      }
    </style>
  </defs>
  <g id="Layer_1-2" data-name="Layer_1">
    <g>
      <path class="cls-10" d="M445.64,349.2965c-65.5572,37.9942-131.1144,75.9888-196.6716,114.0012-65.7028-37.7759-131.3874-75.5701-197.072-113.346-.1275-75.7701-.4005-227.329-.4005-227.329L248.1856,8.6211l197.072,113.3278s.2549,151.5589.3824,227.3476Z"/>
      <g>
        <g id="head">
          <polygon class="cls-8" points="398.9711 263.8804 392.2211 319.4891 373.9563 322.809 381.1034 264.2954 398.9711 263.8804"/>
          <path class="cls-8" d="M391.824,232.5742c-13.577,65.4541-15.6784,86.4094-13.5722,89.1973.2333.3088,1.5953,4.8473,1.5953,4.8473,0,0-1.8329,2.8451-2.8633,3.4858-4.5827-4.6077-9.1655-9.2155-13.7482-13.8232,5.6912-28.0304,11.3824-56.0608,17.0736-84.0911l11.5148.384Z"/>
          <path class="cls-8" d="M367.0402,320.9418l9.7699,9.7619,18.637,35.2832-76.6523,93.2703-21.0418-20.8631c.9846-24.989,5.5291-44.8146,9.7589-58.7195,3.2866-10.804,5.537-18.0241,10.5935-25.9258,13.9133-21.7423,36.9726-29.7385,48.9348-32.8069Z"/>
          <path class="cls-8" d="M373.3727,326.686c-5.9209,2.3531-14.1351,6.3034-22.5948,12.9221-13.4682,10.5372-20.2628,22.1297-24.5557,29.6211-6.7464,11.7729-9.6139,21.4936-15.3489,40.9348-3.1612,10.7162-5.3437,19.7531-6.7684,26.1344-1.8137-1.7039-3.6275-3.4077-5.4412-5.1116.5736-8.2682,1.8095-20.1695,4.7647-34.27,4.0062-19.115,6.6464-31.7123,14.1913-43.3132,4.1085-6.3171,17.1735-23.8739,49.6853-32.6617,2.0226,1.9147,4.0451,3.8295,6.0677,5.7442Z"/>
          <g>
            <path class="cls-13" d="M397.2882,269.798c-1.9446,6.7467-3.7489,14.6718-4.9136,23.6146-1.226,9.4135-1.478,17.9179-1.2656,25.1985"/>
            <path class="cls-13" d="M397.5207,269.8651c-.0244,8.3774-1.1851,16.2965-2.2743,24.4725-1.1909,8.1618-2.173,16.1409-4.1373,24.2736-3.514-12.1638-2.7354-25.2748.7967-37.3259,1.2456-4.0092,2.8425-7.9264,5.1499-11.5542l.4651.134h0Z"/>
          </g>
          <g>
            <path class="cls-13" d="M372.0997,327.6107l2.6057,4.6797c5.5837,10.1994,11.1673,20.3988,16.751,30.5982-7.5654,8.5778-13.6875,15.6456-17.8429,20.4708-18.3811,21.3439-24.5431,29.3024-33.5516,39.3577-3.1986,3.5703-5.9732,6.8253-11.5223,13.3353-5.8738,6.8909-2.8947,3.6594-4.1691,5.0877-1.5666,1.7557-2.8311,3.0108-3.9179,5.2017-.5538,1.1165-.8712,2.0925-1.0516,2.7358"/>
            <path class="cls-13" d="M372.23,327.5381c2.8378.3397,3.7399,1.7628,4.6002,3.2057.8925,1.4242,1.8142,2.8302,2.6726,4.2723,5.1048,8.2272,9.9091,17.8946,14.566,26.4422,0,0,.9858,1.8448.9858,1.8448,0,0-1.3646,1.5557-1.3646,1.5557-14.7689,16.5933-31.6666,36.5158-46.0506,53.1788-6.3344,7.2177-14.7724,16.2421-21.0717,23.5272,0,0-.1079.1337-.1079.1337l-.024.0288c.0153-.0359-.0667.1196.0956-.181.0247-.0529.0461-.1073.0643-.1621,1.047.688-1.4056-3.9971-1.8701-2.6802-1.1553.2778-.505-.2561,1.0771.3018,1.4404.1887.6021,3.7601.5612,2.8939-.6533.7887-1.4763,1.593-2.1356,2.3273-1.6709,1.9054-2.3539,3.4167-4.8274,4.8508-1.4327-2.7731.1422-5.3933,1.8704-7.3928.4241-.4939,1.3338-1.566,1.7313-2.0261.0705-.0811.267-.3299-.1062.1441.7931-1.2968,1.8308-2.398,2.7174-3.5497,5.2988-6.453,12.6952-15.4083,18.0589-21.6247,13.8914-16.9803,30.9916-37.0373,45.5501-53.7096-.0002,0-.379,3.4-.379,3.4-4.7512-8.4963-10.1758-17.7903-14.4187-26.5022-.7536-1.4984-1.4362-3.037-2.1622-4.5497-.771-1.4868-1.5002-2.9935-.2937-5.5835l.2607-.1453h0Z"/>
          </g>
          <g>
            <path class="cls-13" d="M369.9331,335.6423c-10.1366,8.3245-25.1786,22.7643-37.3237,44.5414-13.8065,24.7561-17.5341,47.6346-18.6618,61.0525"/>
            <path class="cls-13" d="M369.9464,335.6586c-29.0262,29.7792-48.4126,64.5241-55.9983,105.5779-.8085-41.3295,21.1589-83.3023,55.9983-105.5779h0Z"/>
          </g>
          <polygon class="cls-8" points="96.2456 265.1523 102.9956 320.592 121.2604 323.9018 114.1133 265.566 96.2456 265.1523"/>
          <path class="cls-8" d="M103.3927,233.667c13.577,65.4541,15.6784,86.4094,13.5722,89.1973-.2333.3088-1.5953,4.8473-1.5953,4.8473,0,0,1.8329,2.8451,2.8633,3.4858,4.5827-4.6077,9.1655-9.2155,13.7482-13.8232-5.6912-28.0304-11.3824-56.0608-17.0736-84.0911l-11.5148.384Z"/>
          <path class="cls-8" d="M122.2531,234.4169s-5.4301,52.4812,14.2942,64.5083c12.1952,7.4362,25.0039,2.3151,40.8972,14.5911,11.0711,8.5513,9.2157,14.4037,16.6765,16.895,17.9812,6.0042,31.9442-26.9251,57.5738-26.1105,22.1436.7038,27.9114,25.7991,49.2355,23.4226,9.0152-1.0047,8.7621-5.5768,31.7648-18.047,21.5882-11.7034,32.559-16.1271,32.559-16.1271l5.9559-63.3563c-11.0349,2.0555-27.9291,5.3516-48.4414,9.9834-55.5499,12.5435-51.8067,15.5026-67.5003,16.1271-34.3104,1.3653-42.398-13.1686-96.4857-19.5829-15.5079-1.8391-28.3099-2.2414-36.5296-2.3039Z"/>
          <path class="cls-8" d="M117.2965,241.3393l11.9118,86.395c32.8412,9.4137,45.8052,26.2963,50.6252,33.982,6.574,10.4824,9.2795,23.6258,14.6907,49.9125,3.11,15.1079,5.0466,27.8239,6.2537,36.8619,16.7408-6.402,33.4816-12.804,50.2224-19.206,15.2115,6.5977,30.4229,13.1954,45.6344,19.7931.7534-6.9875,2.0191-16.9474,4.2025-28.8094,4.9436-26.8585,7.7164-42.1148,15.7831-55.8688,4.747-8.0938,17.8101-26.7999,50.2932-39.1477,4.5625-27.4711,9.125-54.9421,13.6875-82.4132-3.7899-.4998-7.5798-.9996-11.3697-1.4993-3.8384,19.4693-7.6769,38.9386-11.5153,58.408-7.7257,4.0012-14.1737,6.277-18.7611,7.6316-3.7727,1.114-10.3305,2.7989-18.4935,6.7937-1.5866.7764-2.3799,1.1647-2.9779,1.5359-8.2714,5.1345-9.0785,13.5032-13.2946,13.5651-.4513.0066-.8426-.0732-2.6801-1.0799-6.4357-3.5259-9.8536-6.7783-13.7747-9.5834-.7707-.5514-4.146-2.4003-10.8695-6.1436-6.2221-3.4641-9.3716-5.2105-11.255-5.911-2.162-.8042-7.5442-2.5996-14.706-2.6852-1.6336-.0195-7.4753.0006-14.6318,2.2795-3.3627,1.0708-6.674,2.834-13.1592,6.3167-5.2715,2.8309-9.1194,4.8973-14.3781,8.1361-9.2849,5.7185-9.7558,6.9304-12.4235,6.935-5.5964.0097-6.5872-5.3405-15.4163-11.2532-3.1212-2.0902-4.654-2.531-22.5025-8.709-6.9226-2.3961-13.0985-4.5473-18.3646-6.3883-4.4006-20.3333-8.8012-40.6665-13.2017-60.9998,0,0-4.3437-1.3197-9.5295,1.1519Z"/>
          <path class="cls-4" d="M116.3147,233.4359c4.2484,29.2201,8.4967,58.4401,12.7451,87.6602,7.2779,1.7634,22.0035,6.1734,35.0282,16.847,2.9843,2.4456,9.1705,7.5957,14.592,15.9831,2.9378,4.545,4.7029,8.5738,5.3231,10.0434,1.1521,2.7303,2.1114,6.0091,3.983,12.4553,1.214,4.1813,2.2612,7.788,3.5363,12.8513.6717,2.6669,1.8954,7.5513,3.0524,13.3912,1.3327,6.7266,1.6633,10.1094,2.9407,19.1149.6588,4.6442,1.6397,11.2796,2.9748,19.3639,16.7603-6.5386,33.5206-13.0772,50.2809-19.6159,14.5124,6.7106,29.0247,13.4212,43.5371,20.1318,1.6176-11.7672,3.2032-21.7743,4.5072-29.5393.1314-.7822,2.3151-13.6613,5.9559-29.2543,1.0134-4.3401,2.3897-9.9617,5.4596-16.895.8007-1.8084,2.3743-5.3409,4.9136-9.4554,4.962-8.04,10.4246-13.1502,13.5993-16.0791,13.1936-12.1717,29.8068-19.2943,35.7851-21.6947,1.0341-6.1288,7.5452-44.7662,9.1324-54.1889.3602-2.1383,1.1426-6.7832,2.1342-13.0073,1.0718-6.7271,1.9111-12.3059,2.4816-16.1751-3.0444.0947-6.0887.1894-9.1331.2841-.6123,3.0222-1.4764,7.3375-2.481,12.5311-1.1037,5.706-2.5015,12.9331-3.4246,18.3829-1.1123,6.5672-2.4306,15.8399-3.2758,27.4784-8.139,5.3259-14.9147,8.4726-19.6545,10.3674-3.744,1.4967-10.6864,3.9988-17.0736,6.1436-4.3154,1.4491-4.006,1.2673-4.5662,1.5359-8.9869,4.3093-10.2217,13.5179-15.0648,13.4689-.3379-.0034-.8325-.0533-3.597-1.7576-7.1409-4.4022-9.4422-7.5225-15.0883-11.5193-1.2622-.8935-3.9582-2.4362-9.3503-5.5218-5.8522-3.3488-8.8278-5.041-11.255-5.911-5.9182-2.1215-10.999-2.1876-13.3433-2.1984-2.1401-.0098-8.8524.1199-16.6765,3.2638-2.7097,1.0888-2.6126,1.3577-11.7133,6.5276-10.3565,5.8833-9.6442,5.059-13.5001,7.4876-11.0054,6.9316-11.5252,10.3195-15.6839,10.1754-5.4676-.1894-5.9251-6.0922-14.4663-12.0104-7.5012-5.1976-11.775-3.8506-22.8573-7.9564-5.5341-2.0502-13.4447-5.7116-22.2354-12.6713-3.1765-20.0308-6.353-40.0617-9.5294-60.0925-.4091-.815-.9273-1.2306-1.2833-1.4481-1.6888-1.0315-4.4143-.4655-6.7094,1.5028Z"/>
          <path class="cls-8" d="M249.3621,349.2444c-18.4137,6.6076-36.8274,13.2152-55.241,19.8229,3.4364,22.2123,6.8728,44.4247,10.3093,66.637,15.1758-5.9733,30.3516-11.9465,45.5274-17.9198,13.649,6.0317,27.2979,12.0633,40.9469,18.095,3.375-22.2707,6.75-44.5414,10.125-66.8121-17.2225-6.6076-34.445-13.2152-51.6675-19.8229Z"/>
          <path class="cls-8" d="M259.0473,352.9602c4.1466,1.5909,8.2932,3.1818,12.4398,4.7727-.4264,21.3154-.8528,42.6309-1.2793,63.9463l-11.9118-6.9116c.2504-20.6025.5009-41.2049.7513-61.8074Z"/>
          <path class="cls-8" d="M240.2375,352.5187c-4.2675,1.5314-8.535,3.0627-12.8025,4.5941.4091,21.2022.8182,42.4043,1.2274,63.6065l11.9118-6.9116c-.1122-20.4297-.2244-40.8593-.3366-61.289Z"/>
          <path class="cls-8" d="M199.1527,367.2617c5.2793-1.8944,10.5587-3.7889,15.838-5.6834.6869,21.5512,1.3737,43.1024,2.0606,64.6536l-8.0405,3.7438c-3.2861-20.9047-6.5721-41.8094-9.8582-62.714Z"/>
          <path class="cls-8" d="M297.753,367.8101c-5.2734-2.0232-10.5467-4.0464-15.8201-6.0696-.6823,21.4971-1.3645,42.9942-2.0468,64.4914l8.0405,3.7438c3.2755-20.7219,6.5509-41.4437,9.8264-62.1656Z"/>
          <path class="cls-8" d="M129.3693,322.0346l-10.1802,9.6073-19.4196,34.7246,79.871,91.7939,21.9254-20.5328c-1.0259-24.5934-5.7613-44.1052-10.1687-57.79-3.4246-10.633-5.7695-17.7388-11.0383-25.5154-14.4975-21.3981-38.5251-29.2678-50.9896-32.2876Z"/>
          <path class="cls-8" d="M121.844,327.7788c5.9209,2.3531,14.1351,6.3034,22.5948,12.9221,13.4682,10.5372,20.2628,22.1297,24.5557,29.6211,6.7464,11.7729,9.6139,21.4936,15.3489,40.9348,3.1612,10.7162,5.3437,19.7531,6.7684,26.1344,1.8137-1.7039,3.6275-3.4077,5.4412-5.1116-.5736-8.2682-1.8095-20.1695-4.7647-34.27-4.0062-19.115-6.6464-31.7123-14.1913-43.3132-4.1085-6.3171-17.1735-23.8739-49.6853-32.6617-2.0226,1.9147-4.0451,3.8295-6.0677,5.7442Z"/>
          <path class="cls-8" d="M5.5669,231.9391l18.6618,14.5912c19.9073-4.3962,64.1326-12.8488,109.5167-9.4503,22.0063,1.6479,40.6217,5.8025,40.6218,5.8025,6.6816,1.0769,11.4481,2.7448,12.2632,2.9269,7.1381,1.5956,25.4496,6.993,34.5443,9.6474,6.7786,1.9785,16.8876,4.8995,29.4817,8.4235,10.7764-3.222,19.324-5.8172,24.5681-7.4156,24.8184-7.5643,31.4387-9.8025,43.5813-12.2784,7.8983-1.6105,15.4368-2.7614,17.6444-3.0958,3.873-.5868,11.9948-1.7569,21.3093-2.6238,23.5895-2.1955,43.0862-1.3539,48.3003-1.096,16.4029.8113,28.7737,2.6374,36.1325,3.7438,11.9995,1.804,22.3551,3.9241,30.6729,5.8557,6.2346-4.8824,12.4691-9.7647,18.7037-14.6471-7.6049-3.0078-18.7635-7.541-32.1619-13.4392-21.6872-9.5471-24.3911-11.7306-26.0299-13.2137-9.9181-8.9758-8.336-17.1947-16.4556-46.3028-5.8414-20.941-9.5003-34.0661-18.6619-48.7652-5.2414-8.4094-7.6167-9.6742-13.8452-16.2406-3.2293-3.4044-6.3973-6.9792-12.3608-14.4776-11.3732-14.3007-12.6527-24.159-24.6161-33.5781-6.2508-4.9214-13.2131-8.087-17.1729-9.8874-4.4985-2.0453-9.3125-4.2341-16.0463-5.7964-6.8812-1.5965-26.0896-4.9393-29.7646-8.4222-.0108-.0103-.0241-.0229-.048-.0456-1.0297-.9767-2.82-2.5546-5.3123-4.1668-.0001,0-1.683-1.0886-3.3587-1.9355-2.9565-1.4942-8.6447-3.3903-27.585-3.3903-.0001,0-13.8997-.0133-20.6262,2.714-3.4334,1.3921-5.5827,2.8542-7.1471,3.8398-11.0356,6.9532-21.6501,8.274-31.7649,11.1354-.0001,0-17.2486,4.8794-33.7502,16.1271-14.009,9.5487-9.3179,11.8647-33.7502,36.8618-13.6704,13.9864-21.7907,20.067-27.3451,34.0184-1.4622,3.6728-.7892,2.9745-4.484,14.9542-4.7729,15.4752-7.0871,20.5024-11.8476,34.3507-10.8579,31.5855-8.5938,33.8673-14.6912,39.5497-5.3161,4.9544-8.5982,4.6746-28.1913,12.6712-12.6579,5.1661-22.6617,9.9248-28.9854,13.0553Z"/>
          <path class="cls-8" d="M96.7573,181.4161c2.8185-30.8554,12.4905-51.3177,21.1185-64.5138,9.9149-15.1643,30.499-39.1597,30.4994-39.1602h0s13.7183,17.2119,23.8236,49.9171c9.9398,32.1694,7.6278,40.3539,5.9559,44.5414-6.9272,17.35-26.2312,24.6031-32.8782,26.7839,29.3941-1.803,58.7881-3.6061,88.1822-5.4091-6.0676-11.3574-12.1932-22.7383-18.3774-34.142-20.3404-37.5077-40.8376-74.3818-61.4589-110.6257-6.2236,6.0062-14.5969,14.5108-23.8184,25.2709-8.9012,10.3865-20.8405,24.318-31.3711,42.6923-7.4697,13.0335-17.2188,33.5164-22.8216,61.2881,7.0486,1.119,14.0972,2.238,21.1458,3.357Z"/>
          <path class="cls-8" d="M400.7111,176.0367c-2.7957-13.684-8.4553-33.0552-20.7007-53.8492-9.4384-16.0276-19.9865-28.1407-28.7103-36.7313-8.2543,15.6004-14.8876,30.0615-20.2356,42.923-6.618,15.9157-10.6626,28.7219-6.6149,42.652.2114.7276.4406,1.3426.659,1.8894,6.9272,17.35,26.2312,24.6031,32.8782,26.7839-29.3941-1.803-58.7881-3.6061-88.1822-5.4091,6.1133-11.3875,12.2391-22.7682,18.3774-34.142,20.0478-37.1475,40.2299-74.2247,60.5463-111.2316.9855,1.203,2.4394,3.0064,4.1419,5.2323,9.825,12.8456,14.3632,22.0236,18.4051,28.8678,12.7821,21.6443,19.2777,17.7087,29.2832,37.3418,2.5837,5.0697,4.932,11.7633,9.6287,25.1505,4.2489,12.1109,7.3672,22.2267,9.4164,29.1843-6.2974.4461-12.5949.8922-18.8924,1.3383Z"/>
          <path class="cls-8" d="M77.4845,202.6608s-62.7356,29.9503-62.7356,29.9503l12.8519,7.9594c12.0434-2.8342,23.1503-4.8421,33.07-6.2764.0001,0,12.9951-1.8735,25.9461-2.8349,35.2445-2.6163,102.5794,1.8319,140.5594,12.2873,3.4739.9563,13.4896,3.8314,26.95,3.712,11.7536-.1042,20.4661-2.4413,23.8738-3.328,19.3919-5.046,69.7391-18.147,117.1329-14.2072,5.2571.437,14.4901,1.6993,32.956,4.2238,19.4727,2.6621,35.4957,5.1463,46.4561,6.9116l5.5588-9.2155-68.2944-27.2624s-17.6409.6141-21.4412,1.1519c-34.3415,4.8603-46.9001,1.117-161.6037,3.4558-89.653,1.828-100.7926,4.4984-123.4858-2.3039-6.1559-1.8452-15.2658-5.0181-27.7942-4.2238Z"/>
          <path class="cls-8" d="M120.1084,212.6254c1.2314.5599,5.409,2.3116,5.409,2.3116l129.1554-3.3486,115.4648,2.4739s5.6936-1.1131,8.4854-1.7286c-.4195-3.4483-.839-6.8966-1.2585-10.3448-53.0212-6.7718-96.0683-7.894-125.4711-7.6796-57.7811.4214-131.1525,6.5028-131.1525,6.5028-.3814,1.2696-.7263,2.7794-.9133,4.4941-.3188,2.9232-.0691,5.4376.2809,7.3192Z"/>
          <path class="cls-8" d="M194.1211,115.7c.147,19.445.294,38.89.441,58.335,4.0128-2.0885,8.0255-4.1769,12.0383-6.2654-.1158-15.325-.2317-30.65-.3475-45.975-4.0439-2.0315-8.0878-4.063-12.1318-6.0946Z"/>
          <path class="cls-8" d="M251.3067,85.1007c-19.189,10.1485-38.378,20.2969-57.567,30.4454,3.9702,2.3406,7.9403,4.6811,11.9105,7.0217,15.1232-7.9982,30.2465-15.9964,45.3697-23.9947.0956-4.4908.1912-8.9816.2867-13.4724Z"/>
          <path class="cls-8" d="M309.1686,113.9722c-19.4759-9.6238-38.9517-19.2476-58.4276-28.8715.2347,4.4908.4693,8.9816.704,13.4724,15.3493,7.5847,30.6987,15.1695,46.048,22.7542,3.8919-2.4517,7.7838-4.9034,11.6756-7.3552Z"/>
          <path class="cls-8" d="M309.1687,173.2406c-.147-19.5893-.294-39.1786-.441-58.7679-4.0128,2.104-8.0255,4.2079-12.0383,6.3119.1158,15.4387.2317,30.8775.3475,46.3162,4.0439,2.0466,8.0878,4.0932,12.1318,6.1398Z"/>
          <path class="cls-8" d="M251.7229,204.6534c19.2738-10.1926,38.5476-20.3853,57.8214-30.5779-3.9793-2.3358-7.9586-4.6716-11.9379-7.0074-15.1901,8.033-30.3801,16.066-45.5702,24.0991-.1044,4.4954-.2089,8.9909-.3133,13.4863Z"/>
          <path class="cls-8" d="M194.3697,174.2658c19.2432,10.0973,38.4863,20.1945,57.7294,30.2918-.1218-4.4962-.2436-8.9923-.3653-13.4885-15.1659-7.9579-30.3318-15.9157-45.4977-23.8736-3.9554,2.3568-7.9109,4.7135-11.8663,7.0703Z"/>
          <polygon class="cls-8" points="308.6365 173.2286 251.8197 202.7993 194.562 174.035 194.1211 115.7 250.9378 86.1293 308.1955 114.8936 308.6365 173.2286"/>
          <polygon class="cls-8" points="296.5047 167.134 251.7263 190.4393 206.6003 167.7695 206.2528 121.7946 251.0312 98.4893 296.1572 121.159 296.5047 167.134"/>
          <polygon class="cls-8" points="68.8484 175.7824 129.0031 176.3584 125.4296 213.2202 62.7436 206.2126 68.8484 175.7824"/>
          <polygon class="cls-8" points="427.2739 175.7824 367.1192 176.3584 370.6927 213.2202 433.3787 206.2126 427.2739 175.7824"/>
          <path class="cls-8" d="M330.6975,82.393c.8647-13.0714-7.2674-24.7162-18.9649-28.1696-9.0994-2.6863-19.2737-.0962-26.6141,6.5276V24.1772c4.0033,2.0616,10.1362,4.8762,17.9939,7.1165,9.1999,2.623,13.5931,2.4141,20.6313,4.3068,6.1093,1.6429,14.5638,4.9639,23.9422,12.4392-5.6628,11.4511-11.3256,22.9022-16.9884,34.3533Z"/>
          <path class="cls-8" d="M171.4491,82.393c-.8647-13.0714,7.2674-24.7162,18.9649-28.1696,9.0994-2.6863,19.2737-.0962,26.6141,6.5276-.2771-12.6046-.5542-25.2092-.8314-37.8139-2.5788,1.618-6.7382,3.9854-12.2083,6.0157-12.1301,4.5023-15.8637,1.838-25.5856,6.6476-4.9183,2.4332-5.8093,4.0285-13.9467,8.0395-3.9399,1.942-7.2969,3.3256-9.568,4.2077,5.5203,11.5151,11.0406,23.0302,16.5609,34.5453Z"/>
          <path class="cls-8" d="M217.0281,51.3436c1.2559-1.5615,14.5387-17.5011,36.4193-16.5111,18.26.8262,29.1724,12.8395,31.0066,14.9271-.3185-8.9168-.637-17.8337-.9554-26.7505-5.9939-2.8354-16.0409-6.6678-29.0337-7.4475-16.9232-1.0156-30.0383,3.6761-36.5806,6.5356-.2854,9.7488-.5708,19.4976-.8562,29.2464Z"/>
          <path class="cls-8" d="M56.5396,224.0676c-.1187-2.2767,30.7063-5.7551,42.5847-6.9116,11.9526-1.1637,16.5876-1.1322,60.323-2.3738,30.06-.8533,34.0539-1.0438,55.0998-1.5537,15.5497-.3767,23.1943-.6706,34.8344-.7502,13.4569-.092,24.211.0661,32.4597.192,18.4274.2813,16.6565.5503,35.8347.864,1.5193.0249,13.2887.2405,36.8274.672,2.7315.0501,8.446.1624,15.9817.672.0001,0,6.0841.4679,12.3772,1.0839,30.0132,2.9375,64.8768,8.6121,64.6828,10.4094-.1633,1.5126-26.896-.3096-51.5186-1.4399-46.0646-2.1145-64.9734-.8996-151.2801.288-97.8771,1.3467-188.0118,2.5869-188.2067-1.1519Z"/>
          <path class="cls-8" d="M187.1245,244.5344c21.2256,6.041,42.4513,12.082,63.6769,18.123,20.4486-6.1436,40.8972-12.2873,61.3459-18.4309-20.4155,3.7118-40.831,7.4236-61.2466,11.1354-21.2587-3.6091-42.5175-7.2183-63.7762-10.8274Z"/>
          <path class="cls-8" d="M138.7311,295.4875c-4.0699-12.5753-8.1397-25.1505-12.2096-37.7258,1.886,13.6312,3.7721,27.2624,5.6581,40.8936l43.1803,18.7189,16.3787,17.279c10.8859-8.0514,20.5641-14.0351,27.8935-18.2389,20.4775-11.7449,26.8261-12.0074,29.2832-11.9993,10.3996.0343,18.3718,5.1381,28.4891,11.6153,16.7047,10.6945,27.7942,18.335,27.7942,18.335,5.1618-5.5677,10.3236-11.1354,15.4854-16.703l40.5002-18.143s6.9246-40.8285,5.6581-40.8936c-1.1874-.0611-10.4228,35.4219-10.4228,35.4219-13.5,5.0397-27.0001,10.0794-40.5002,15.1191-4.2811,4.4957-8.5622,8.9915-12.8433,13.4872-4.4527-3.444-9.7675-7.314-15.9182-11.3461-8.8461-5.799-13.4089-8.7499-20.2513-11.2729-5.5545-2.0481-11.4915-4.2372-19.2816-3.7315-5.5404.3596-9.5006,2.0156-17.421,5.3277-7.4387,3.1106-12.6998,6.1863-19.0589,9.9354-4.5045,2.6557-10.438,6.3368-17.2225,11.0874-4.2684-3.9998-8.5368-7.9995-12.8052-11.9993-14.1287-5.0557-28.2575-10.1114-42.3862-15.1671Z"/>
          <g>
            <path class="cls-13" d="M161.7999,336.0406c4.52-6.2221,9.04-12.4443,13.5601-18.6664"/>
            <path class="cls-13" d="M161.7999,336.0406c.425-6.2496,3.8717-11.2815,8.2881-15.367,1.4985-1.2878,3.1224-2.4846,5.1956-3.3549,0,0,.1528.111.1528.111-.9212,7.694-6.3519,15.6611-13.6365,18.611h0Z"/>
          </g>
          <g>
            <path class="cls-13" d="M178.172,353.2631c4.5097-6.2033,9.0194-12.4066,13.5291-18.6099"/>
            <path class="cls-13" d="M178.1721,353.2631c.4178-6.235,3.8564-11.2543,8.2653-15.3251,1.496-1.283,3.1171-2.4749,5.1874-3.3403l.1527.1111c-.9109,7.6757-6.3332,15.6247-13.6053,18.5543h0Z"/>
          </g>
          <g>
            <path class="cls-13" d="M334.2901,336.2826c-4.52-6.2221-9.04-12.4443-13.5601-18.6664"/>
            <path class="cls-13" d="M334.2901,336.2826c-5.8121-2.336-9.532-7.1697-12.0521-12.6326-.7614-1.8233-1.3976-3.7376-1.5844-5.9784l.1528-.111c7.0322,3.2545,12.9302,10.8824,13.4836,18.7219h0Z"/>
          </g>
          <g>
            <path class="cls-13" d="M318.1768,352.1576c-4.3056-5.9226-8.6113-11.8452-12.9169-17.7678"/>
            <path class="cls-13" d="M318.1768,352.1576c-5.6272-2.1074-9.2116-6.7081-11.5692-11.9579-.7079-1.7486-1.2907-3.5881-1.4241-5.7544l.1528-.111c6.8627,3.0107,12.4598,10.2234,12.8405,17.8232h0Z"/>
          </g>
          <g>
            <path class="cls-13" d="M175.3599,317.3742c1.9191-2.2399,3.8383-4.4797,5.7574-6.7196"/>
            <path class="cls-13" d="M175.3599,317.3741c-1.0569-2.9348-.2444-5.5305,2.5516-6.5531.8276-.2618,1.771-.4246,3.134-.2279l.1434.1229c1.3752,4.151-1.409,7.6443-5.8291,6.6581h0Z"/>
          </g>
          <g>
            <path class="cls-13" d="M132.1796,298.6553c2.1838-1.0559,4.3677-2.1119,6.5515-3.1678"/>
            <path class="cls-13" d="M132.1796,298.6553c-.0498-2.773,1.1912-4.8673,3.901-4.47.7453.1485,1.557.434,2.6093,1.2172l.0822.17c-.0476,4.2011-3.2869,5.911-6.5925,3.0828h0Z"/>
          </g>
          <g>
            <path class="cls-13" d="M191.7387,334.6532c.728-3.9998,1.4559-7.9995,2.1838-11.9993"/>
            <path class="cls-13" d="M191.7387,334.6532c-3.4332-3.9027-2.2146-9.3935,2.0909-12.0163,0,0,.1858.0338.1858.0338,3.1053,3.9715,2.3113,9.5389-2.2767,11.9824h0Z"/>
          </g>
          <g>
            <path class="cls-13" d="M305.1988,334.3652c-.7075-3.9038-1.4151-7.8075-2.1227-11.7113"/>
            <path class="cls-13" d="M305.1988,334.3652c-4.5616-2.3464-5.3398-7.8259-2.2156-11.6945,0,0,.1858-.0337.1858-.0337,4.2831,2.5259,5.4776,7.9296,2.0298,11.7281h0Z"/>
          </g>
          <g>
            <path class="cls-13" d="M320.73,317.6162c-1.6035-2.8165-3.2071-5.633-4.8106-8.4495"/>
            <path class="cls-13" d="M320.73,317.6162c-3.3041-.1457-5.4874-2.0653-5.6294-5.1863-.0028-.9308.1267-1.9369.7367-3.2165l.1641-.0934c4.494.3252,7.042,4.4458,4.7286,8.4962h0Z"/>
          </g>
          <g>
            <path class="cls-13" d="M361.1843,299.5192c-2.4083-1.4879-4.8166-2.9758-7.2249-4.4637"/>
            <path class="cls-13" d="M361.1843,299.5193c-2.6409,1.51-5.2721,1.2102-6.6413-1.369-.3613-.7617-.6425-1.6529-.6333-3.0144l.0994-.1606c3.8304-2.044,7.5293.0613,7.1752,4.5441h0Z"/>
          </g>
          <path class="cls-13" d="M217.8652,21.1633c2.2924,17.1443,2.3492,34.392,1.9462,51.6341-.2692,10.2769-.7637,20.7529-1.9461,30.9804,0,0-1.6741,0-1.6741,0-1.1821-10.2234-1.6776-20.7059-1.9462-30.9804-.403-17.2424-.3463-34.4894,1.9461-51.6341.0001,0,1.6742,0,1.6742,0h0Z"/>
          <path class="cls-13" d="M285.291,21.1633c2.2926,17.1443,2.3492,34.392,1.9463,51.6341-.2691,10.2769-.7639,20.7529-1.9462,30.9804,0,0-1.6741,0-1.6741,0-1.1822-10.2234-1.6774-20.7059-1.9461-30.9804-.4031-17.2424-.3463-34.4894,1.946-51.6341.0001,0,1.6742,0,1.6742,0h0Z"/>
          <g>
            <path class="cls-13" d="M153.6336,47.3306c7.8057,13.5028,15.8853,29.4737,23.1673,47.8364,8.5246,21.496,14.0097,41.361,17.6068,58.4583"/>
            <path class="cls-13" d="M154.3582,46.9117c21.9019,31.1884,35.6847,68.8694,40.8691,106.5411-.0004.0002-1.6386.3448-1.6386.3448-7.9891-27.3196-17.4018-54.0712-28.9947-80.0606-3.7751-8.6818-7.79-17.2626-11.685-25.9875,0,0,1.4492-.8378,1.4492-.8378h0Z"/>
          </g>
          <g>
            <path class="cls-13" d="M348.8174,47.3306c-7.8057,13.5028-15.8853,29.4737-23.1673,47.8364-8.5245,21.496-14.0097,41.361-17.6068,58.4583"/>
            <path class="cls-13" d="M349.5421,47.7495c-7.8617,17.3237-15.6879,34.4797-22.5819,52.1659-6.9027,17.6852-12.6768,35.6592-18.0977,53.8822,0,0-1.6383-.3447-1.6383-.3447,3.7502-28.5295,12.8587-56.3575,25.9152-81.9694,4.4361-8.5126,9.3253-16.7936,14.9533-24.5719,0,0,1.4493.8378,1.4493.8378h0Z"/>
          </g>
          <g>
            <path class="cls-13" d="M154.8881,47.8478c2.2428-1.083,5.0665-2.4227,8.3507-3.9238,3.455-1.5792,6.1117-2.7391,7.0975-3.1678,5.6863-2.4726,8.5294-3.7089,12.3585-5.0877,1.241-.4469,5.0505-1.7983,8.8346-2.8798.6422-.1835,2.8327-.802,5.1122-1.4399,1.6679-.4668,2.2123-.6162,2.5809-.72,1.3952-.3929,5.1217-1.4422,8.9835-3.1678,2.0895-.9337,4.8824-2.362,7.9908-4.5237"/>
            <path class="cls-13" d="M154.8881,47.8478c8.9861-6.6807,18.9227-12.2548,29.5414-15.8702,7.8033-2.8729,16.0568-3.8524,23.9561-6.2474,2.5926-.7866,5.1604-1.7633,7.8111-2.793-3.8019,4.2715-8.9318,7.2996-14.2258,9.368-7.7627,2.9002-15.5691,5.0743-23.3152,7.9194-7.7929,2.8595-15.64,5.6977-23.7676,7.6232h0Z"/>
          </g>
          <g>
            <path class="cls-13" d="M347.6859,48.0397c-1.9532-1.1831-4.761-2.7938-8.2639-4.4997-2.1032-1.0242-3.7262-1.7167-6.8865-3.0598-6.0769-2.5827-9.1153-3.874-12.6618-4.9812-.7219-.2254-4.9058-1.5316-8.5562-2.2903-1.8923-.3933-2.9987-.6462-5.2114-1.1519-.3542-.081-.9088-.2084-1.6379-.396-1.5807-.4067-2.734-.7751-3.1268-.8999-3.376-1.0727-5.2165-1.5119-7.2215-2.1959-2.1387-.7295-5.1664-1.9769-8.7477-4.2118"/>
            <path class="cls-13" d="M347.6859,48.0397c-4.6745-1.6892-11.2576-3.8041-15.866-5.3611-5.2533-1.77-10.2249-3.7359-15.5671-5.1609-5.3057-1.5293-11.0211-2.5406-16.147-4.6439-5.29-2.014-10.7686-4.3484-14.7336-8.5208,6.5703,2.4155,13.3659,3.2881,20.1303,4.8162,6.9676,1.1606,14.0633,2.624,20.5248,5.5718,7.7161,3.5893,15.4373,7.4087,21.6586,13.2988h0Z"/>
          </g>
          <g>
            <path class="cls-13" d="M217.8843,22.0972c2.4972-1.4063,6.3628-3.3134,11.3659-4.7037,2.8658-.7964,6.5992-1.5607,22.2354-1.5359,15.6351.0248,19.1215.8003,22.3346,1.9679,4.3643,1.5858,7.6205,3.6752,9.6784,5.1837"/>
            <path class="cls-13" d="M217.8842,22.0972c9.3771-8.6345,21.068-9.2495,33.0313-9.2115,7.1415.1721,14.7308.118,21.7392,2.5447,4.1579,1.6851,7.8997,4.2781,10.8437,7.5788-2.6615-1.1746-5.2852-2.1894-7.9436-2.9474-8.0153-2.3444-16.2809-.9803-24.6409-1.2306-4.8645.0208-11.9961-.116-16.7469.0212-5.6148.217-10.8437,1.6952-16.2829,3.2449h0Z"/>
          </g>
          <g>
            <path class="cls-13" d="M88.5039,222.74c-3.6029.1336-7.2058.2671-10.8092.4009-1.8063.8872-4.6329,2.2588-8.1215,3.8773-14.2004,6.5879-19.8155,7.4189-28.4433,12.1849-3.2736,1.8082-8.2011,4.8395-13.7477,9.6406,3.5976,3.174,7.1947,6.348,10.7923,9.522,4.7804-1.3979,9.9933-2.7183,15.6099-3.8565,6.6663-1.3509,12.9236-2.2468,18.6636-2.8268,0,0,17.7715-2.3314,32.9185-3.1559,11.8435-.6447,47.7501,1.9936,95.5552,10.0015"/>
            <path class="cls-13" d="M88.5039,222.74c-3.1787,2.2084-6.9228,3.1073-10.6982,3.3844,0,0,1.2051-.3038,1.2051-.3038-8.2887,4.3964-17.2406,8.5827-26.1019,11.8386-8.5629,3.197-16.4534,7.6819-23.4374,13.5981,0,0,.0227-4.8073.0227-4.8073l10.6448,9.6891-2.7976-.6232c13.1456-3.7537,27.2567-5.7107,40.8787-6.9187,10.3164-.9695,20.5409-2.0168,30.9453-2.0688,17.2012.4597,34.2732,2.7581,51.2555,5.0821,13.5296,2.0491,27.1566,4.2319,40.4983,6.933-27.063-3.7093-54.2977-7.0076-81.577-8.0717-6.8268-.2661-13.4407-.1726-20.2632.5387-13.2905,1.3188-27.2962,2.9049-40.46,5.2896-7.1461,1.3787-14.201,3.1918-21.1294,5.3859-.5307-.4313-11.4032-9.7671-12.219-10.4485,0,0-2.7468-2.3487-2.7468-2.3487l2.7695-2.4588c3.6689-3.2574,7.6096-6.2361,11.8186-8.8307,8.206-5.2052,17.622-7.8034,26.3923-11.5109,4.5017-1.8805,9.0276-3.9199,13.5359-5.9213,3.9647-.0762,7.9702.5142,11.4639,2.5728h0Z"/>
          </g>
          <g>
            <path class="cls-13" d="M409.7038,221.3099c3.6728.1919,7.3457.3838,11.0185.576,1.7677.953,4.5475,2.4223,8.0063,4.1162,14.0124,6.8625,20.1752,6.9126,28.4433,12.1849,3.1227,1.9912,7.6576,5.4089,12.2582,11.2292-3.2572,2.3586-6.5139,4.717-9.7711,7.0756-8.7377-1.854-20.2249-4.0169-33.8052-5.8256,0,0-17.637-2.3487-32.919-3.1557-11.8204-.6242-46.7679,1.7436-93.2369,9.3872"/>
            <path class="cls-13" d="M409.7038,221.3099l11.1741-2.4001,1.2588.3529c4.1429,2.1331,8.3346,4.2344,12.5397,6.063,6.4237,2.8922,13.4166,4.6742,19.9202,7.7999,6.7977,3.3256,12.6326,8.4974,17.2148,14.4082,0,0,1.9646,2.5169,1.9646,2.5169l-2.5657,1.8239c-.6191.4338-10.6407,7.5686-10.9124,7.7571-13.441-2.9799-26.9998-5.5538-40.6649-7.3409-9.8899-1.2573-19.9233-2.5172-29.8557-2.941-16.7027-.2322-33.408,1.2374-50.0703,2.8189-13.3448,1.2631-26.7601,3.015-40.0116,4.7134,26.4486-5.0004,53.0564-9.0741,79.9524-10.9752,6.7255-.4977,13.6635-.5096,20.3661-.0102,20.2317,1.2851,40.3757,3.6965,60.2532,7.7292,0,0-2.3262.4929-2.3262.4929l9.7089-7.1611-.601,4.3406c-4.1944-5.1957-9.3066-9.5604-15.2485-12.5165-4.0767-2.0138-8.58-3.3232-12.9244-4.9724-6.7591-2.5327-13.3105-5.8127-19.5676-9.3004,0,0,1.2583.3528,1.2583.3528l-10.8627-3.552h0Z"/>
          </g>
          <g>
            <path class="cls-13" d="M81.9965,177.1523c-3.5487.504-7.0975,1.0079-10.6462,1.5119-1.6379,8.3275-3.2758,16.6551-4.9136,24.9826,2.9531.936,5.9063,1.8719,8.8594,2.8079"/>
            <path class="cls-13" d="M81.9965,177.1523l-10.2271,4.4625,2.5049-2.3754-4.9136,24.9824s-2.0237-3.4159-2.0237-3.4159l7.959,5.6487c-1.9884.0084-10.6505.0349-12.4573.0422,0,0,.6738-3.4254.6738-3.4254.205-1.0803,5.423-27.5448,5.4314-27.6164,1.0585.1558,11.6966,1.5078,13.0525,1.6972h0Z"/>
          </g>
          <g>
            <path class="cls-13" d="M413.9252,177.0173c3.5487.504,7.0975,1.0079,10.6462,1.5119,1.6379,8.3275,3.2758,16.6551,4.9136,24.9826-2.9531.936-5.9063,1.8719-8.8594,2.8079"/>
            <path class="cls-13" d="M413.9252,177.0173c1.4144-.2002,11.9432-1.541,13.0523-1.6971-.2151-1.1171,5.3747,27.344,5.4316,27.6163,0,0,.6737,3.4254.6737,3.4254-1.7545-.0095-10.5184-.0331-12.4573-.0422,0,0,7.959-5.6487,7.959-5.6487l-2.0237,3.416-4.9137-24.9824,2.5051,2.3753-10.2271-4.4625h0Z"/>
          </g>
          <g>
            <path class="cls-13" d="M97.9285,270.8909c1.9446,6.7467,3.7489,14.6718,4.9136,23.6146,1.226,9.4135,1.478,17.9179,1.2656,25.1985"/>
            <path class="cls-13" d="M98.1611,270.8238c8.3083,13.7184,10.3559,33.5401,5.9471,48.8801-2.752-12.1001-4.1644-24.0772-5.6461-36.3256-.4175-4.0545-.7977-8.1358-.7661-12.4205,0,0,.4651-.134.4651-.134h0Z"/>
          </g>
          <g>
            <path class="cls-13" d="M123.1171,328.7035l-2.6057,4.6797c-5.5837,10.1994-11.1673,20.3988-16.751,30.5982,7.5654,8.5778,13.6875,15.6456,17.8429,20.4708,18.3811,21.3439,24.5431,29.3024,33.5516,39.3577,3.1986,3.5703,5.9732,6.8253,11.5223,13.3353,5.8738,6.8909,2.8947,3.6594,4.1691,5.0877,1.5666,1.7557,2.8311,3.0108,3.9179,5.2017.5538,1.1165.8712,2.0925,1.0516,2.7358"/>
            <path class="cls-13" d="M123.2475,328.7761c1.2064,2.59.4773,4.0967-.2937,5.5835-.7261,1.5128-1.4086,3.0514-2.1624,4.5496-4.2344,8.698-9.6886,18.0008-14.4186,26.5024,0,0-.3788-3.4001-.3788-3.4001,14.6109,16.7322,31.619,36.6826,45.5499,53.7099,5.3383,6.1868,12.7999,15.2224,18.059,21.6247.886,1.151,1.9234,2.2517,2.7173,3.5495-.3732-.474-.1767-.2251-.1063-.1441.5448.6381,1.2278,1.4334,1.7315,2.0263,1.7246,1.9945,3.3059,4.6238,1.8702,7.3928-2.4731-1.4339-3.1543-2.9416-4.8274-4.851-.6326-.6982-1.5512-1.6199-2.1357-2.3271-.0409.866-.8791-2.7052.5612-2.8941,1.5822-.5579,2.2325-.0238,1.0773-.3016-.4645-1.317-2.9172,3.368-1.8701,2.6802.0181.0548.0397.1091.0642.162.1624.3007.0803.1453.0957.181l-.024-.0288s-.108-.1335-.108-.1335c-6.317-7.3087-14.7244-16.2978-21.0714-23.5275-14.832-17.2025-32.216-37.6397-47.4156-54.7341.0002-.0001.9861-1.8448.9861-1.8448,4.6803-8.5412,9.4527-18.2012,14.5661-26.4422.8582-1.4422,1.7801-2.8482,2.6726-4.2723.8602-1.443,1.7623-2.866,4.6001-3.2058,0,0,.2609.1453.2609.1453h0Z"/>
          </g>
          <g>
            <path class="cls-13" d="M125.2836,336.7351c10.1366,8.3245,25.1786,22.7643,37.3237,44.5414,13.8065,24.7561,17.5341,47.6346,18.6618,61.0525"/>
            <path class="cls-13" d="M125.2969,336.7189c34.8374,22.4586,56.7807,64.2242,55.9726,105.61-7.7013-41.4333-26.9008-75.5011-55.9726-105.61h0Z"/>
          </g>
          <path class="cls-8" d="M249.3621,349.2444c.1985,22.8467.3971,45.6934.5956,68.54-3.1278-1.3256-6.2557-2.6512-9.3835-3.9768-.1122-20.4297-.2244-40.8593-.3366-61.289,3.0415-1.0914,6.0831-2.1829,9.1246-3.2743Z"/>
          <path class="cls-8" d="M249.3621,349.2444c.1985,22.8467.3971,45.6934.5956,68.54,2.7794-1.0056,5.5589-2.0112,8.3383-3.0168.2504-20.6025.5009-41.2049.7513-61.8074-3.2284-1.2386-6.4568-2.4772-9.6852-3.7158Z"/>
          <path class="cls-8" d="M221.4343,359.4018c.7816,22.8955,1.5632,45.7911,2.3448,68.6866-2.2426-.6188-4.4852-1.2377-6.7278-1.8565-.6884-21.5553-1.3769-43.1105-2.0653-64.6658,2.1494-.7215,4.2989-1.4429,6.4483-2.1643Z"/>
          <path class="cls-8" d="M221.4343,359.4018c.7816,22.8955,1.5632,45.7911,2.3448,68.6866,1.6277-2.4564,3.2554-4.9128,4.8832-7.3692-.4091-21.2022-.8182-42.4043-1.2274-63.6065-2.0002.763-4.0004,1.526-6.0006,2.289Z"/>
          <path class="cls-8" d="M194.1211,369.0672c3.4364,22.2123,6.8728,44.4247,10.3093,66.637,1.5268-1.9095,3.0537-3.819,4.5805-5.7285-3.2861-20.9047-6.5721-41.8094-9.8582-62.714-1.6772.6019-3.3544,1.2037-5.0316,1.8056Z"/>
          <path class="cls-8" d="M301.0296,369.0672c-3.375,22.2707-6.75,44.5414-10.125,66.8121-.9927-1.9679-1.9853-3.9358-2.9779-5.9037,3.2755-20.7219,6.5509-41.4437,9.8264-62.1656,1.0922.419,2.1844.8381,3.2766,1.2571Z"/>
          <path class="cls-8" d="M276.3073,359.5822c-.7599,22.9463-1.5198,45.8927-2.2797,68.839,1.9528-.7298,3.9057-1.4595,5.8585-2.1893.6823-21.4971,1.3645-42.9942,2.0468-64.4914-1.8752-.7194-3.7504-1.4389-5.6256-2.1583Z"/>
          <path class="cls-8" d="M276.3073,359.5822c-.7599,22.9463-1.5198,45.8927-2.2797,68.839-1.2733-2.2473-2.5466-4.4947-3.8198-6.742.4264-21.3154.8528-42.6309,1.2793-63.9463,1.6068.6164,3.2135,1.2329,4.8202,1.8493Z"/>
          <path class="cls-8" d="M204.4303,435.7042c6.4496-2.5386,12.8992-5.0772,19.3488-7.6158-2.2426-.6188-4.4852-1.2377-6.7278-1.8565-2.6802,1.2479-5.3603,2.4959-8.0405,3.7438-1.5268,1.9095-3.0537,3.819-4.5805,5.7285Z"/>
          <path class="cls-8" d="M223.7791,428.0884c8.7262-3.4347,17.4524-6.8693,26.1785-10.304-3.1278-1.3256-6.2557-2.6512-9.3835-3.9768-3.9645,2.1475-7.929,4.2951-11.8934,6.4426-1.6339,2.6127-3.2677,5.2254-4.9016,7.8381Z"/>
          <path class="cls-8" d="M274.0276,428.4212c-8.0233-3.5456-16.0466-7.0912-24.0699-10.6368,2.7794-1.0056,5.5589-2.0112,8.3383-3.0168,3.9706,2.3039,7.9412,4.6077,11.9118,6.9116,1.2733,2.2473,2.5466,4.4947,3.8198,6.742Z"/>
          <path class="cls-8" d="M290.9046,435.8794c-5.6256-2.486-11.2513-4.9721-16.8769-7.4581,1.9528-.7298,3.9057-1.4595,5.8585-2.1893,2.6802,1.2479,5.3603,2.4959,8.0405,3.7438.9927,1.9679,1.9853,3.9358,2.9779,5.9037Z"/>
          <g>
            <path class="cls-13" d="M200.7432,421.6872c16.4511-6.9856,32.9023-13.9712,49.3534-20.9568,14.8215,7.1576,29.6431,14.3152,44.4646,21.4728"/>
            <polygon class="cls-13" points="200.7432 421.6871 248.9317 397.9873 250.1849 397.371 251.3926 398.0467 294.5612 422.2031 248.8007 403.4141 251.2613 403.4735 200.7432 421.6871 200.7432 421.6871"/>
          </g>
          <ellipse class="cls-8" cx="108.6306" cy="195.1122" rx="15.3277" ry="14.8227"/>
          <ellipse class="cls-8" cx="108.753" cy="193.5344" rx="15.3277" ry="14.8227"/>
          <ellipse class="cls-8" cx="108.753" cy="193.5344" rx="10.9227" ry="10.5628"/>
          <line class="cls-8" x1="109.2482" y1="182.9878" x2="108.753" y2="204.0971"/>
          <path class="cls-8" d="M98.7397,197.7562c3.5029-1.4073,7.0057-2.8146,10.5086-4.2219"/>
          <path class="cls-8" d="M119.6757,197.7562c-3.5029-1.4073-7.0057-2.8146-10.5086-4.2219"/>
          <ellipse class="cls-8" cx="387.6582" cy="194.3233" rx="15.3277" ry="14.8227"/>
          <ellipse class="cls-8" cx="387.5358" cy="192.7455" rx="15.3277" ry="14.8227"/>
          <ellipse class="cls-8" cx="387.5358" cy="192.7455" rx="10.9227" ry="10.5628"/>
          <path class="cls-8" d="M222.4714,146.9591c9.211,7.9756,18.422,15.9511,27.6329,23.9266,12.1559-16.1351,24.3117-32.2701,36.4675-48.4052"/>
          <path class="cls-8" d="M225.0399,143.7673c8.2059,7.2556,16.4118,14.5111,24.6177,21.7667,11.4486-14.8711,22.8971-29.7423,34.3457-44.6134"/>
          <g>
            <path class="cls-13" d="M196.9944,172.5927c2.5406-1.2249,5.0811-2.4498,7.6217-3.6748"/>
            <path class="cls-13" d="M196.9943,172.5926c.1427-3.0318,1.8007-5.0892,4.7061-4.8513.8341.1064,1.7343.3499,2.8746,1.0915l.082.1701c-.3298,4.3244-4.0832,6.3035-7.6627,3.5897h0Z"/>
          </g>
          <g>
            <path class="cls-13" d="M196.5973,117.0839c2.5737,1.1989,5.1473,2.3979,7.721,3.5968"/>
            <path class="cls-13" d="M196.5972,117.0839c2.4525-1.809,5.1057-1.8131,6.773.5892.45.715.8357,1.5679.9879,2.9221l-.0797.1712c-3.5714,2.4756-7.5008.8145-7.6812-3.6824h0Z"/>
          </g>
          <g>
            <path class="cls-13" d="M251.7887,192.5595c.0093,2.5349.0186,5.0697.0279,7.6046"/>
            <path class="cls-13" d="M251.7888,192.5595c2.5674,1.2295,3.858,3.3546,2.3469,5.6949-.4558.6353-1.0637,1.2713-2.2246,1.9093l-.1888.0007c-3.7678-1.9489-3.9183-5.7552.0665-7.6049h0Z"/>
          </g>
          <g>
            <path class="cls-13" d="M298.4185,168.2249c2.6232,1.2389,5.2465,2.4778,7.8697,3.7168"/>
            <path class="cls-13" d="M298.4185,168.2249c2.5122-1.7953,5.202-1.7356,6.8957.6843.4602.7239.8553,1.5856,1.0144,2.947l-.0806.1708c-3.5993,2.4409-7.6528.6988-7.8295-3.8021h0Z"/>
          </g>
          <g>
            <path class="cls-13" d="M298.0835,120.0237c2.6057-1.2479,5.2114-2.4959,7.8171-3.7438"/>
            <path class="cls-13" d="M298.0836,120.0237c.1863-3.0743,1.9182-5.1237,4.8582-4.9057.8492.1012,1.7643.3396,2.9181,1.0768l.0817.1703c-.3681,4.3274-4.2654,6.3658-7.8579,3.6586h0Z"/>
          </g>
          <g>
            <path class="cls-13" d="M251.0132,96.4271c-.0155-2.5558-.031-5.1117-.0465-7.6676"/>
            <path class="cls-13" d="M251.0133,96.4271c-2.5789-1.2382-3.8629-3.3796-2.361-5.7366.4542-.6417,1.0607-1.2844,2.22-1.9304l.1888-.0012c3.7723,1.9574,3.9336,5.7914-.0479,7.6681h0Z"/>
          </g>
          <path class="cls-8" d="M215.7555,278.8825l-55.9856-22.2707s13.9916,35.3923,36.9266,33.4061c7.8479-.6797,19.0589-11.1354,19.0589-11.1354Z"/>
          <path class="cls-8" d="M280.853,280.4328l55.9856-22.2707s-13.9916,35.3923-36.9266,33.4061c-7.8479-.6797-19.0589-11.1354-19.0589-11.1354Z"/>
          <ellipse class="cls-5" cx="188.3567" cy="276.1974" rx="40.3105" ry="38.9823"/>
          <ellipse class="cls-5" cx="309.8542" cy="277.2786" rx="40.3105" ry="38.9823"/>
          <g>
            <polyline class="cls-13" points="194.1211 369.0672 249.3621 349.2444 301.0296 369.0672"/>
            <path class="cls-13" d="M194.1037,369.0188l54.2517-22.5795,1.0476-.436s1.0267.4586,1.0267.4586l50.5999,22.6053s-52.735-17.0404-52.735-17.0404l2.074.0226c-.0353-.0966-56.3595,17.3111-56.2649,16.9694h0Z"/>
          </g>
          <path class="cls-8" d="M195.2227,376.1882c1.6467-.8331,3.2935-1.6663,4.9402-2.4994-.3368-2.1424-.6735-4.2847-1.0103-6.4271-1.6772.6019-3.3544,1.2037-5.0316,1.8056.3672,2.3737.7344,4.7473,1.1017,7.121Z"/>
          <path class="cls-8" d="M299.9788,376.0012c-1.0979-.588-2.1958-1.176-3.2938-1.764.3368-2.1424.6735-4.2847,1.0103-6.4271,1.1114.419,2.2229.8381,3.3343,1.2571-.3503,2.3113-.7005,4.6227-1.0508,6.934Z"/>
          <path class="cls-8" d="M215.2654,367.5874c2.0515-.016,4.103-.032,6.1544-.048,2.0445-1.1655,4.089-2.3311,6.1335-3.4966.007-2.1463.014-4.2925.021-6.4388-2.1011.784-4.2022,1.5679-6.3033,2.3519-2.0515.7039-4.103,1.4079-6.1545,2.1119.0496,1.8399.0993,3.6798.1489,5.5197Z"/>
          <path class="cls-8" d="M281.7404,367.8051c-1.8359-.0143-3.6717-.0286-5.5076-.0429-1.627-1.0716-3.2541-2.1431-4.8811-3.2147.0414-2.04.0828-4.08.1243-6.12,1.6252.5718,3.2606,1.1554,4.9057,1.7511,1.8837.6821,3.747,1.368,5.5898,2.0572-.077,1.8565-.1541,3.7129-.2311,5.5693Z"/>
          <path class="cls-8" d="M240.2536,359.9391c3.0837.5519,6.1674,1.1039,9.251,1.6558,3.1509-.5759,6.3018-1.1518,9.4526-1.7277.0278-1.969.0556-3.9381.0835-5.9071-3.2348-1.166-6.4695-2.3319-9.7043-3.4979-3.0318,1.0215-6.0636,2.0431-9.0953,3.0646.0042,2.1374.0084,4.2749.0126,6.4123Z"/>
          <g>
            <path class="cls-13" d="M148.6823,183.3092c-1.6444-8.8322-4.8311-20.3818-11.3162-32.8301-10.8248-20.7783-25.5555-33.918-34.8883-40.9841"/>
            <path class="cls-13" d="M148.6823,183.3091c-10.3757-29.5869-24.1636-51.5372-46.2619-73.7387.0003-.0002.1144-.1508.1144-.1508,26.2055,14.5715,45.2752,43.6909,46.1476,73.8895h0Z"/>
          </g>
          <g>
            <path class="cls-13" d="M153.6225,48.8077c-.6721.582-1.7015,1.5083-2.8742,2.7196-3.7074,3.8294-5.5529,7.0004-7.9581,10.8336-1.2398,1.9759-3.0103,4.3571-6.5515,9.1195-3.9428,5.3025-7.1659,8.7648-12.9977,14.9888-11.9019,12.7024-15.7431,15.2312-20.7633,23.0258-2.7471,4.2653-4.2407,7.6128-4.9835,9.4126-1.7235,4.176-2.1232,6.6051-3.406,11.1234-1.3143,4.6288-2.6216,8.0076-5.2362,14.7652-1.9567,5.0572-4.0588,9.8339-8.1832,19.1809-1.9862,4.5014-3.6525,8.2152-4.802,10.7634"/>
            <path class="cls-13" d="M153.6225,48.8077c-4.3771,4.6465-7.2956,9.8756-10.2848,15.5409-1.6706,2.7515-3.4142,5.3419-5.1489,7.9577-5.3082,7.8886-11.8301,14.8728-18.2723,21.8217-4.2853,4.6221-8.9502,8.879-12.5335,13.4795-3.5624,4.6743-6.5652,10.0164-8.5497,15.5495-1.7536,5.7217-3.5894,12.2903-6.1385,17.8503-2.3498,5.7373-5.3078,11.5205-8.0183,17.077-2.7703,5.6483-5.7073,11.1886-8.8096,16.6561,1.9958-5.9632,4.2163-11.8278,6.2788-17.7261,3.0936-8.6503,6.7302-17.5346,9.1282-26.3889.8329-2.9288,1.4078-5.938,2.3656-9.1531,2.8797-9.3807,8.5771-17.9202,15.5044-24.7359,8.5753-8.7538,17.9899-17.4401,25.7423-26.8854,1.9823-2.4179,4.0343-4.8071,5.8895-7.2269,3.5359-5.0397,7.6006-10.3126,12.8468-13.8163h0Z"/>
          </g>
          <g>
            <path class="cls-13" d="M345.6195,181.7746c1.6444-8.8322,4.8311-20.3818,11.3162-32.8301,10.8248-20.7783,25.5555-33.918,34.8883-40.9841"/>
            <path class="cls-13" d="M345.6195,181.7746c.8724-30.198,19.9412-59.3175,46.1473-73.8896.0003.0002.1143.1507.1143.1507-22.1017,22.2039-35.8909,44.1643-46.2616,73.7389h0Z"/>
          </g>
          <g>
            <path class="cls-13" d="M348.7281,48.8857c.5886.6513,1.454,1.6421,2.432,2.8978,3.1486,4.0427,4.7345,7.3262,6.353,10.3674.7534,1.4157,2.5538,4.3996,6.1544,10.3674,1.5836,2.6247,5.8419,9.6441,11.1177,16.5111,8.9353,11.6302,13.4861,13.3175,19.8593,23.3927,2.559,4.0455,5.0624,8.6574,5.0625,8.6575.8063,1.4853,2.9915,5.5284,5.0563,10.1874,1.2319,2.7797,1.9635,4.7462,5.5588,15.5511,2.9064,8.7344,4.0957,12.4603,6.5639,19.8169,1.1557,3.4446,2.1098,6.2486,2.7174,8.0275"/>
            <path class="cls-13" d="M348.7281,48.8857c2.7574,2.5171,5.3246,5.311,7.3792,8.4593,1.7103,2.7032,4.2685,6.6117,6.1306,9.2659,6.0583,9.1443,12.169,18.1887,19.4838,26.2966,4.9578,5.4212,10.8665,10.5907,14.8015,17.0206,1.7677,2.7495,3.4284,5.7095,4.9763,8.5641,2.2003,4.1336,4.8558,9.5147,6.6857,14.5961,3.0677,9.2151,5.4456,18.3219,7.9345,27.6478,1.2101,4.6298,2.3942,9.2617,3.4837,13.9262-1.9688-4.3686-3.8542-8.7717-5.6216-13.2106-3.5941-8.7456-6.8765-17.877-10.3821-26.5872-3.5198-7.8317-7.3799-14.5727-11.992-21.7179-3.9322-6.1967-9.4074-10.7722-14.2271-16.4071-2.4886-2.8738-4.7644-5.9133-6.9116-9.0022-5.3473-7.6774-9.6796-16.0399-13.8846-24.33-2.2133-5.1111-4.5727-10-7.8564-14.5217h0Z"/>
          </g>
        </g>
        <polygon class="cls-6" points="386.4937 269.3389 380.2879 318.2546 363.496 321.1749 370.0668 269.7039 386.4937 269.3389"/>
        <path d="M379.9229,235.39c-12.4821,62.2264-14.4141,82.1482-12.4778,84.7987.2145.2936,1.4667,4.6082,1.4667,4.6082,0,0-1.6851,2.7048-2.6324,3.3139-4.2132-4.3805-8.4264-8.761-12.6396-13.1415,5.2323-26.6481,10.4646-53.2962,15.6968-79.9443l10.5862.3651Z"/>
        <path class="cls-6" d="M357.381,319.3998l8.8984,8.711,16.9745,31.4849-69.8144,83.2297-19.1647-18.6172c.8967-22.2989,5.0359-39.9903,8.8883-52.3983,2.9934-9.641,5.0431-16.0838,9.6484-23.1349,12.6721-19.4017,33.6744-26.5372,44.5695-29.2752Z"/>
        <path d="M362.9595,324.8607c-5.4434,2.237-12.9953,5.9925-20.7728,12.2848-12.3822,10.0176-18.6288,21.0384-22.5755,28.1604-6.2023,11.1923-8.8386,20.4336-14.1112,38.9162-2.9063,10.1878-4.9128,18.779-6.2226,24.8456-1.6675-1.6198-3.335-3.2397-5.0025-4.8595.5273-7.8604,1.6636-19.1749,4.3805-32.58,3.6831-18.1724,6.1104-30.1485,13.0469-41.1773,3.7772-6.0056,15.7887-22.6966,45.6788-31.0511,1.8595,1.8203,3.719,3.6406,5.5784,5.4609Z"/>
        <path class="cls-11" d="M385.0926,270.8188c-.5587,6.8269-2.0143,16.3272-2.884,23.1748-.9112,6.8654-1.9179,16.3901-2.9431,23.1905-2.3049-11.6591-1.503-23.8317,1.4368-35.3005,1.0266-3.8209,2.3144-7.5784,4.0979-11.1462,0,0,.2924.0814.2924.0814h0Z"/>
        <path class="cls-11" d="M359.805,333.3846c-20.5622,20.1399-36.567,44.7418-45.0786,72.2981-2.8758,9.1289-4.9272,18.5232-6.4002,28.0794.6516-38.7846,20.1034-77.4743,51.4788-100.3774h0Z"/>
        <polygon class="cls-6" points="108.1793 270.3778 114.385 319.2935 131.177 322.2139 124.6062 270.7429 108.1793 270.3778"/>
        <path d="M114.75,236.4289c12.4821,62.2264,14.4141,82.1482,12.4778,84.7987-.2145.2936-1.4667,4.6082-1.4667,4.6082,0,0,1.6851,2.7048,2.6324,3.3139,4.2132-4.3805,8.4264-8.761,12.6396-13.1415-5.2323-26.6481-10.4646-53.2962-15.6968-79.9443l-10.5862.3651Z"/>
        <path d="M132.0896,237.1417s-4.9922,49.8931,13.1415,61.3271c11.2118,7.0695,22.9876,2.2009,37.5994,13.8716,10.1784,8.1296,8.4726,13.6934,15.3318,16.0619,16.5312,5.7081,29.3683-25.5973,52.9312-24.8229,20.358.6691,25.6607,24.5268,45.2653,22.2676,8.2883-.9551,8.0556-5.3017,29.2034-17.157,19.8474-11.1263,29.9335-15.3318,29.9335-15.3318l5.4756-60.232c-10.1451,1.9542-25.677,5.0877-44.5352,9.4911-51.0705,11.9249-47.6292,14.7381-62.0572,15.3318-31.5436,1.298-38.9791-12.5192-88.7053-18.6172-14.2574-1.7484-26.0271-2.1308-33.5839-2.1902Z"/>
        <path class="cls-6" d="M126.3406,238.3041l10.9513,82.1346c30.193,8.9495,42.1115,24.9995,46.5429,32.3063,6.0439,9.9655,8.5313,22.4607,13.5061,47.4511,2.8592,14.3629,4.6396,26.4518,5.7494,35.0441,15.3909-6.0863,30.7817-12.1726,46.1726-18.2589,13.9848,6.2723,27.9697,12.5447,41.9545,18.817.6926-6.6429,1.8563-16.1116,3.8636-27.3887,4.545-25.534,7.0942-40.038,14.5104-53.1137,4.3642-7.6946,16.3739-25.4783,46.2377-37.2172,4.1946-26.1164,8.3892-52.2327,12.5838-78.3491-3.4843-.4751-6.9686-.9503-10.4528-1.4254-3.5289,18.5092-7.0578,37.0184-10.5867,55.5277-7.1027,3.8039-13.0307,5.9674-17.2483,7.2552-3.4685,1.0591-9.4975,2.6609-17.0022,6.4587-1.4586.7381-2.188,1.1072-2.7378,1.4602-7.6045,4.8813-8.3464,12.8373-12.2225,12.8961-.4149.0063-.7746-.0696-2.464-1.0267-5.9167-3.3521-9.059-6.444-12.6639-9.1108-.7086-.5242-3.8117-2.282-9.993-5.8407-5.7204-3.2933-8.6159-4.9535-10.3474-5.6195-1.9877-.7645-6.9359-2.4714-13.5202-2.5528-1.5019-.0186-6.8725.0006-13.452,2.1671-3.0916,1.018-6.1358,2.6943-12.0981,6.0052-4.8464,2.6913-8.3841,4.6558-13.2187,7.7349-8.5362,5.4365-8.9692,6.5886-11.4217,6.593-5.1452.0092-6.0561-5.0771-14.1731-10.6983-2.8695-1.9871-4.2787-2.4062-20.6879-8.2795-6.3644-2.278-12.0422-4.323-16.8837-6.0733-4.0457-19.3306-8.0914-38.6611-12.1372-57.9917,0,0-3.9934-1.2546-8.761,1.0951Z"/>
        <path class="cls-12" d="M248.9488,346.3067c-16.9288,6.2818-33.8577,12.5635-50.7865,18.8453,3.1593,21.117,6.3186,42.2339,9.4779,63.3509,13.9521-5.6787,27.9041-11.3574,41.8562-17.0361,12.5483,5.7342,25.0967,11.4684,37.645,17.2026,3.1029-21.1725,6.2057-42.3449,9.3086-63.5174-15.8337-6.2818-31.6674-12.5635-47.5011-18.8453Z"/>
        <path d="M257.853,349.8393c3.8122,1.5124,7.6244,3.0249,11.4367,4.5373-.392,20.2643-.7841,40.5286-1.1761,60.7929l-10.9513-6.5708c.2302-19.5865.4605-39.173.6907-58.7594Z"/>
        <path d="M240.56,349.4195c-3.9234,1.4559-7.8468,2.9117-11.7702,4.3675.3761,20.1566.7523,40.3132,1.1284,60.4698l10.9513-6.5708c-.1032-19.4222-.2063-38.8444-.3095-58.2666Z"/>
        <path d="M202.7881,363.4355c4.8536-1.801,9.7073-3.6021,14.5609-5.4031l1.8945,61.4653-7.3921,3.5592c-3.0211-19.8738-6.0422-39.7476-9.0632-59.6214Z"/>
        <path d="M293.4376,363.9569c-4.8481-1.9234-9.6963-3.8468-14.5444-5.7703l-1.8817,61.3111,7.3921,3.5592c3.0113-19.7,6.0227-39.4,9.034-59.1Z"/>
        <path class="cls-6" d="M137.2919,320.4387l-8.8984,8.711-16.9745,31.4849,69.8144,83.2297,19.1647-18.6172c-.8967-22.2989-5.0359-39.9903-8.8883-52.3983-2.9934-9.641-5.0431-16.0838-9.6484-23.1349-12.6721-19.4017-33.6744-26.5372-44.5695-29.2752Z"/>
        <path d="M131.7135,325.8996c5.4434,2.237,12.9953,5.9925,20.7728,12.2848,12.3822,10.0176,18.6288,21.0384,22.5755,28.1604,6.2023,11.1923,8.8386,20.4336,14.1112,38.9162,2.9063,10.1878,4.9128,18.779,6.2226,24.8456,1.6675-1.6198,3.335-3.2397,5.0025-4.8595-.5273-7.8604-1.6636-19.1749-4.3805-32.58-3.6831-18.1724-6.1104-30.1485-13.0469-41.1773-3.7772-6.0056-15.7887-22.6966-45.6788-31.0511-1.8595,1.8203-3.719,3.6406-5.5784,5.4609Z"/>
        <path class="cls-6" d="M24.8127,234.7862l17.157,13.8716c18.302-4.1794,58.9612-12.2152,100.6855-8.9843,20.2317,1.5666,37.3461,5.5164,37.3462,5.5164,6.1428,1.0238,10.5249,2.6094,11.2743,2.7826,6.5625,1.5169,23.3973,6.6482,31.7587,9.1717,6.2321,1.8809,15.5258,4.658,27.1044,8.0082,9.9075-3.0631,17.7657-5.5304,22.587-7.0499,22.817-7.1912,28.9036-9.3191,40.067-11.6729,7.2614-1.5311,14.192-2.6252,16.2216-2.9432,3.5608-.5579,11.0276-1.6702,19.5911-2.4944,21.6873-2.0873,39.6118-1.2871,44.4054-1.0419,15.0802.7713,26.4535,2.5073,33.219,3.5591,11.0317,1.7151,20.5525,3.7306,28.1995,5.5669l17.1954-13.9248c-6.9916-2.8595-17.2505-7.1691-29.5685-12.7765-19.9384-9.0764-22.4242-11.1522-23.9309-12.5621-9.1183-8.5331-7.6638-16.3468-15.1285-44.0195-5.3704-19.9083-8.7343-32.3862-17.1571-46.3604-4.8187-7.9948-7.0024-9.1971-12.7288-15.4397-2.9689-3.2365-5.8815-6.6349-11.364-13.7637-10.4561-13.5955-11.6324-22.9676-22.6311-31.9222-5.7467-4.6788-12.1476-7.6882-15.7881-9.3998-4.1357-1.9445-8.5615-4.0253-14.7523-5.5106-6.3264-1.5178-23.9858-4.6957-27.3645-8.0068-.01-.0098-.0222-.0219-.0441-.0434-.9467-.9285-2.5927-2.4286-4.8839-3.9612-.0001-.0001-1.5474-1.035-3.0879-1.84-2.7181-1.4205-7.9476-3.2231-25.3607-3.2231-.0001,0-12.7788-.0126-18.9629,2.5801-3.1565,1.3235-5.1326,2.7134-6.5707,3.6505-10.1458,6.6103-19.9044,7.866-29.2035,10.5862,0,0-15.8577,4.6387-31.0286,15.3318-12.8794,9.0778-8.5665,11.2796-31.0286,35.044-12.5681,13.2968-20.0336,19.0775-25.1401,32.3408-1.3442,3.4916-.7256,2.8279-4.1224,14.2167-4.3879,14.7121-6.5155,19.4914-10.8921,32.6567-9.9824,30.028-13.5066,37.5994-13.5066,37.5994,0,0-7.9048,4.4441-25.918,12.0464-11.6372,4.9113-20.8345,9.4354-26.6482,12.4114Z"/>
        <path class="cls-11" d="M396.8263,186.5047c-1.9398-14.6544-5.3962-26.4929-8.4383-34.995-2.4129-6.7429-5.3455-14.8008-11.1689-24.323-4.4115-7.2135-7.4247-10.2677-14.8914-19.6072-4.9251-6.1604-11.8107-15.0833-19.7046-26.4263-6.1527,10.4584-14.8278,26.3875-23.2328,46.7783-11.9612,29.0188-18.0324,44.3225-11.4216,56.4223,9.5599,17.4969,41.2483,19.2258,39.3075,19.1028-27.0238-1.7139-54.0475-3.4281-81.0713-5.1423,5.578-10.7974,11.2099-21.617,16.8954-32.4583,18.9553-36.1429,38.0601-71.6667,57.284-106.5747,2.6004,4.1958,6.172,9.8714,10.5266,16.5297,2.4582,3.7587,7.8235,11.9619,12.9058,19.1108,13.2693,18.6655,14.9044,16.4925,22.089,27.7974,8.5945,13.5234,12.2886,26.1269,15.0529,35.5592,3.0715,10.4792,4.6425,19.5665,5.5032,26.2713-3.2119.6517-6.4237,1.3034-9.6356,1.955Z"/>
        <path class="cls-11" d="M97.2585,184.6847c4.0832-12.5429,7.3944-22.8261,9.6794-29.9487,7.1605-22.3193,8.1466-25.765,11.8305-31.4377,5.7101-8.7922,9.1688-9.4873,20.5171-22.5028,7.3688-8.4513,12.6492-15.8867,15.8553-20.6651,7.0573,11.6328,16.2951,28.2111,25.2618,49.0419,12.6869,29.4721,18.1457,43.9946,12.1617,55.1814-9.3255,17.4342-41.2362,19.2251-39.3075,19.1028,27.0238-1.7139,54.0475-3.4281,81.0713-5.1423-5.8306-9.6368-11.628-19.4775-17.3795-29.5241-21.1367-36.9219-39.6619-73.1417-55.9314-108.2445-.272.2495-.7117.6596-1.2378,1.1797-2.4452,2.4172-4.0128,4.5029-4.669,5.3716-2.1211,2.8071-7.9455,10.4056-15.6595,20.6273l-.0063.0058c-12.1863,11.249-18.3935,17.0224-23.9855,24.317-3.2046,4.1806-4.9217,6.4206-6.6185,10.0932-1.2469,2.6988-2.4582,6.5563-4.8812,14.2711-.7532,2.3977-.9957,2.9937-1.5719,5.088-.6186,2.2494-1.084,3.7449-5.212,15.843-3.5581,10.429-6.6764,19.471-9.0709,26.3832,3.0513.3197,6.1026.6396,9.1539.9593Z"/>
        <path class="cls-15" d="M92.9137,205.7101s-57.6767,28.4733-57.6767,28.4733l11.8155,7.5669c11.0722-2.6944,21.2835-4.6033,30.4033-5.9669.0001,0,11.9472-1.7811,23.8539-2.6951,32.4024-2.4873,94.3076,1.7416,129.225,11.6813,3.1938.9092,12.4019,3.6424,24.7768,3.529,10.8058-.0991,18.8158-2.3209,21.9487-3.1639,17.8282-4.7972,64.1155-17.2521,107.6875-13.5066,4.8331.4155,13.3216,1.6155,30.2985,4.0155,17.9025,2.5308,32.6334,4.8925,42.7099,6.5708l5.1106-8.761-62.7873-25.918s-16.2183.5838-19.7123,1.0951c-31.5723,4.6206-43.1182,1.0619-148.5723,3.2854-82.4236,1.7379-92.6649,4.2766-113.5282-2.1902-5.6595-1.7543-14.0348-4.7707-25.553-4.0155Z"/>
        <path class="cls-6" d="M130.1178,216.4249c1.1321.5323,4.9728,2.1976,4.9728,2.1976l118.7406-3.1835,106.154,2.3519s5.2345-1.0582,7.8012-1.6433c-.3857-3.2782-.7714-6.5565-1.157-9.8347-48.7457-6.4379-88.3215-7.5048-115.3534-7.3009-53.1218.4006-120.5767,6.1821-120.5767,6.1821-.3506,1.207-.6677,2.6423-.8396,4.2725-.2931,2.779-.0636,5.1694.2582,6.9583Z"/>
        <path class="cls-15" d="M182.714,106.2562c.1694,23.1741.3388,46.3481.5082,69.5221,4.6248-2.489,9.2495-4.978,13.8742-7.467-.1335-18.2639-.267-36.5279-.4005-54.7918-4.6606-2.4211-9.3213-4.8422-13.9819-7.2634Z"/>
        <path class="cls-15" d="M248.6209,69.7888c-22.1154,12.0947-44.2308,24.1894-66.3463,36.2841,4.5757,2.7894,9.1513,5.5788,13.7269,8.3683,17.4296-9.5321,34.8592-19.0642,52.2889-28.5962.1102-5.352.2203-10.7041.3305-16.0561Z"/>
        <path class="cls-15" d="M303.9327,122.6366c-17.9054-9.1492-35.8108-18.2985-53.7161-27.4477.2157,4.2694.4315,8.5387.6472,12.8081,14.1116,7.2107,28.2232,14.4214,42.3348,21.6321,3.578-2.3308,7.1561-4.6616,10.7341-6.9925Z"/>
        <path class="cls-15" d="M315.3071,174.8316c-.1694-23.3461-.3388-46.6921-.5082-70.0381-4.6248,2.5075-9.2495,5.0149-13.8742,7.5224.1335,18.3995.267,36.799.4005,55.1985,4.6606,2.4391,9.3213,4.8782,13.9819,7.3173Z"/>
        <path class="cls-15" d="M249.1005,212.2685c22.2132-12.1473,44.4263-24.2946,66.6395-36.442-4.5862-2.7838-9.1723-5.5675-13.7585-8.3513-17.5067,9.5735-35.0133,19.1471-52.52,28.7207-.1204,5.3575-.2407,10.7151-.3611,16.0726Z"/>
        <path class="cls-15" d="M183.0006,176.0534c22.1779,12.0337,44.3557,24.0673,66.5335,36.1009-.1404-5.3584-.2807-10.7168-.4211-16.0753-17.4788-9.484-34.9576-18.9679-52.4364-28.4519-4.5587,2.8087-9.1174,5.6175-13.676,8.4262Z"/>
        <polygon class="cls-7" points="314.6937 174.8173 249.2121 210.0589 183.2222 175.7783 182.714 106.2562 248.1957 71.0146 314.1856 105.2951 314.6937 174.8173"/>
        <polygon class="cls-3" points="300.7118 167.5539 249.1044 195.3285 197.0964 168.3114 196.6959 113.5195 248.3033 85.7449 300.3113 112.7621 300.7118 167.5539"/>
        <polygon class="cls-6" points="82.9913 181.3987 138.2953 181.9463 135.0099 216.9904 77.3788 210.3284 82.9913 181.3987"/>
        <polygon class="cls-6" points="412.5141 181.3987 357.2102 181.9463 360.4956 216.9904 418.1266 210.3284 412.5141 181.3987"/>
        <path class="cls-11" d="M323.7257,92.6148c9.1052-18.8649-.0564-37.7826-11.3623-41.1212-9.7542-2.8804-24.4195,4.8561-30.5413,20.5465v-34.7703c3.6801,1.9599,9.3188,4.6358,16.5424,6.7656,10.4201,3.0723,10.2484,1.3009,18.9678,4.0945,9.0733,2.9069,15.2699,6.7921,18.3458,8.9116,1.5763,1.0861,2.8435,2.0604,3.7225,2.7613-5.225,10.9375-10.45,21.8747-15.675,32.8122Z"/>
        <path class="cls-11" d="M177.3184,92.6148c-7.6914-20.0301,2.843-38.2491,14.253-40.6304,9.2407-1.9285,21.805,5.956,27.6506,20.0557-.2546-11.9831-.5092-23.9662-.7643-35.9491-2.3709,1.5379-6.1947,3.7888-11.2239,5.719-11.1516,4.2801-14.5843,1.7474-23.5221,6.3198-4.522,2.3131-5.3412,3.8298-12.8223,7.6429-2.6559,1.3537-5.361,1.6836-8.7966,4.0002-.0772.0521-.1403.0952-.1803.1227,5.1353,10.9064,10.2706,21.8127,15.4059,32.7191Z"/>
        <path class="cls-11" d="M219.222,63.0964c.1813-.9388,4.3599-20.9113,21.4911-26.6652,2.2962-.7713,11.166-3.5971,20.8484.6618,6.9729,3.0672,10.7812,8.2314,12.2857,10.5481,0,.0002,1.5155,2.1795,7.364,13.9495-.2623-8.4969-.5246-16.9935-.7869-25.4904-2.0908-1.1406-4.9174-2.5385-8.3766-3.8469-.8279-.3132-9.0222-3.3589-17.9321-4.0952-15.9368-1.3169-30.1208,5.089-34.3125,7.1149-.1938,9.2744-.3872,18.5491-.581,27.8235Z"/>
        <path class="cls-11" d="M71.6748,227.3029c-.1017-1.5931,22.8123-4.9258,39.1508-6.5708,10.9891-1.1064,15.2502-1.0765,55.4589-2.2569,27.6361-.8113,31.308-.9921,50.6568-1.4769,14.2959-.3583,21.3238-.6375,32.0255-.7132,12.3715-.0875,22.2588.0627,29.8421.1825,16.9417.2674,15.3133.5232,32.945.8214,1.3969.0236,12.2172.2286,33.8578.6387,2.5112.0477,7.7647.1543,14.6928.6389,0,0,5.6247.3935,11.3792,1.0304,9.0044.9969,59.6939,7.634,59.4668,9.8959-.1721,1.7166-25.3858-1.3668-73.1248-.7956-5.7853.0692-66.0651.7905-88.3566,3.4746-1.962.2363-8.5203,1.0765-17.3732.9928-7.6668-.0726-13.3494-.8031-14.8914-.9928-17.013-2.0946-57.1552-3.2827-80.4145-3.9711-54.021-1.5989-85.1964.9567-85.315-.8981Z"/>
        <path class="cls-11" d="M191.7297,246.7602c19.4462,5.8058,38.8928,11.6116,58.339,17.4174,18.8675-5.9034,37.7351-11.8066,56.6026-17.71-18.7697,3.5287-37.5388,7.0575-56.308,10.5862-19.5445-3.4313-39.0891-6.8623-58.6336-10.2935Z"/>
        <path class="cls-11" d="M147.2388,295.2007c-3.7417-11.9551-7.4834-23.9103-11.2251-35.8654,1.734,12.959,3.4679,25.918,5.2018,38.877l39.6984,17.7958,15.058,16.4269c10.0081-7.6543,18.9058-13.343,25.6442-17.3395,18.8263-11.1657,24.6629-11.4153,26.9219-11.4076,9.561.0326,16.8903,4.8848,26.1918,11.0425,15.3577,10.1671,25.553,17.4308,25.553,17.4308,4.7455-5.2931,9.4911-10.5862,14.2367-15.8794l37.2343-17.2483s6.3662-38.8151,5.2018-38.877c-1.0916-.058-9.5824,33.6752-9.5824,33.6752-12.4114,4.7912-24.8229,9.5824-37.2343,14.3735-3.9359,4.274-7.8717,8.5481-11.8076,12.8221-4.0937-3.2742-8.9798-6.9533-14.6346-10.7866-8.1328-5.513-12.3276-8.3184-18.6183-10.717-5.1066-1.9471-10.5648-4.0282-17.7268-3.5475-5.0936.3419-8.7345,1.9162-16.0162,5.065-6.8388,2.9572-11.6757,5.8813-17.522,9.4455-4.1413,2.5247-9.5963,6.0243-15.8337,10.5406-3.9242-3.8025-7.8484-7.6051-11.7726-11.4076-12.9894-4.8064-25.9789-9.6128-38.9683-14.4192Z"/>
        <path d="M180.9851,316.0082c.7445-2.727,2.7909-5.2211,5.3137-6.3713-.851,2.7249-2.716,5.1227-5.3137,6.3713h0Z"/>
        <path d="M141.2867,298.2123c1.2706-1.9335,3.7775-3.1967,6.0352-2.9877-1.3945,1.9061-3.6454,3.1312-6.0352,2.9877h0Z"/>
        <path d="M196.0432,332.4351c-.5079-3.8526.2042-8.0488,2.0339-11.403.4159,3.8983-.1916,7.9193-2.0339,11.403h0Z"/>
        <path d="M300.3541,332.1613c-1.7738-3.3548-2.5182-7.4553-1.9253-11.1384,1.7028,3.4296,2.4863,7.3296,1.9253,11.1384h0Z"/>
        <path d="M314.6329,316.2382c-2.4102-1.9574-4.1135-5.0119-4.3994-8.0457,2.3686,2.0545,4.0469,4.9048,4.3994,8.0457h0Z"/>
        <path d="M351.825,299.0337c-2.6764-.326-5.2951-1.9831-6.628-4.2661,2.6882.4324,5.1897,1.9205,6.628,4.2661h0Z"/>
        <path d="M219.7665,34.3921c2.042,12.7918,2.143,25.7415,1.9115,38.6539-.1176,4.3024-.3015,8.6063-.734,12.9159l-1.0891.0249c-.6287-4.2854-1.0089-8.5764-1.3226-12.869-.6039-8.5812-.883-17.1792-.7165-25.782.1196-4.3025.3178-8.6067.8616-12.9188l1.0891-.0249h0Z"/>
        <path d="M281.7557,34.4162c1.4711,13.0179.9957,26.1062.1902,39.1431-.3088,4.3422-.6842,8.6829-1.3079,13.0183,0,0-1.0891-.0234-1.0891-.0234-.4375-4.3582-.6265-8.711-.7489-13.0624-.2216-8.6978-.1179-17.3981.4311-26.0834.3109-4.3421.7003-8.6826,1.4354-13.0156,0,0,1.0891.0233,1.0891.0233h0Z"/>
        <path d="M161.4329,59.0503c6.8824,10.5712,12.0544,22.0719,16.906,33.6719,1.5795,3.8813,3.0989,7.7908,4.3932,11.8057,0,0-.9866.462-.9866.462-2.2555-3.5647-4.286-7.2348-6.2562-10.9331-3.9172-7.4024-7.5442-14.9516-10.7653-22.6846-1.5776-3.8822-3.0843-7.7977-4.2777-11.8598,0,0,.9866-.462.9866-.462h0Z"/>
        <path d="M340.8596,59.5469c-5.9481,14.1139-13.592,29.8882-19.608,43.983-2.1036,4.9176-4.1156,9.8755-6.4562,14.7417,0,0-1.0321-.3484-1.0321-.3484,1.3406-5.2226,2.8376-10.4178,4.5565-15.5361,3.5352-10.1682,7.8662-20.1769,13.0124-29.6271,2.6024-4.7306,5.3995-9.3578,8.5763-13.7443,0,0,.951.5312.951.5312h0Z"/>
        <path class="cls-11" d="M162.0928,59.7729c8.2776-5.939,17.6352-11.1775,27.3342-14.3725,4.2551-1.4462,10.3739-2.9921,14.7784-4.0792,4.8055-1.3591,9.5191-3.1371,14.2522-5.2303-4.3084,3.9457-9.5604,6.9152-15.1026,8.9106-3.2458,1.1112-9.3599,3.0506-12.6867,4.1215-9.7127,3.076-18.9066,7.3853-28.5756,10.6498h0Z"/>
        <path class="cls-11" d="M339.3437,59.9554c-4.7296-2.1038-9.5185-3.8848-14.3239-5.7136-4.216-1.5955-10.0377-3.9465-14.3337-5.1106-7.5485-1.968-14.9761-4.0642-22.076-7.3353-2.3649-1.2088-4.5888-2.6324-6.5551-4.359,4.8032,2.0753,9.7108,3.1143,14.7514,4.2886,4.9512,1.2683,10.1171,2.2385,14.9936,3.6431,5.0139,1.4223,9.829,3.7333,14.4348,6.1217,4.6304,2.4005,9.1907,4.9965,13.1089,8.465h0Z"/>
        <path class="cls-11" d="M220.0093,35.2922c3.1432-2.4248,6.5355-4.4856,10.3032-5.8145,4.8561-1.5701,10.0397-2.1596,15.1101-2.1905,6.7112-.0297,13.4124-.1061,20.0801,1.0238,2.2866.3986,4.5139,1.0892,6.6778,1.8924,1.4871.8446,2.995,1.6443,4.4035,2.6042,1.3789.9914,2.677,2.0801,3.8402,3.2926-2.208-1.1905-4.4042-2.2734-6.7689-3.0343-4.6037-1.8265-9.8577-1.8624-15.0251-1.933,0,0-13.1814-.055-13.1814-.055-5.5041-.0686-10.7395-.0034-16.0422,1.1922-3.2155.7065-6.28,1.9545-9.3971,3.0222h0Z"/>
        <path class="cls-11" d="M88.3774,212.7372c-3.1969,1.6794-6.8401,2.0869-10.4026,2.0617,0,0,.842-.1864.842-.1864-2.9424,1.6068-5.9489,2.9589-8.8855,4.503-12.9659,6.1812-26.1534,11.7648-39.1442,17.8616,0-.0002.361-3.0513.361-3.0513,0,0,12.5369,10.4197,12.5369,10.4197,0,0-1.3984-.3383-1.3984-.3383,12.3247-2.5138,24.7703-4.4309,37.2461-5.8818,9.395-1.0113,18.7774-2.0044,28.2508-2.0189,15.7117.3641,31.3373,2.2701,46.8726,4.3683,12.398,1.8058,24.826,3.8638,37.0724,6.2944-12.3645-2.035-24.7727-3.7803-37.2112-5.2133-15.5314-1.7414-31.1185-3.274-46.7356-3.2938-9.3195.1805-18.6652,1.3367-27.9216,2.5009-12.6464,1.701-25.2101,3.8733-37.6438,6.6732-2.0803-1.6551-13.7181-10.9742-15.6192-12.4882,1.4269-.6987,12.8331-6.1406,14.5759-6.9867,8.0698-3.9323,18.9191-8.4078,27.118-12.2125,3.0738-1.4845,6.3775-2.8429,9.3765-4.3833,3.5798.1565,7.1964.4605,10.71,1.3717h0Z"/>
        <path class="cls-11" d="M407.6225,212.6063c3.3137-.536,6.7413-.9304,10.0646-1.2236,0,.0002.5542-.0323.5542-.0323l.4496.2388c15.704,8.3357,32.0642,15.2685,48.2815,22.5353,0,0,2.7383,1.2181,2.7383,1.2181l-2.2965,1.8492s-12.6298,10.1699-12.6298,10.1699c0,0-.6381.5138-.6381.5138l-.7682-.176c-12.009-2.7187-24.0966-5.0005-36.3315-6.4896-9.1433-1.0713-18.3802-2.2587-27.5568-2.6967-15.3921-.1963-30.7678,1.4094-46.086,3.0379-12.2729,1.3715-24.5196,3.0258-36.7312,4.9255,24.2791-4.4916,48.8174-8.2399,73.5276-9.8233,6.1805-.4172,12.5027-.3436,18.6535.2248,18.5583,1.3672,37.0364,3.692,55.2345,7.5858,0-.0001-1.406.3376-1.406.3376l12.4331-10.4092s.4418,3.0671.4418,3.0671l-12.338-5.2209c-12.3301-5.2967-24.5906-10.8721-36.1881-17.6634,0,0,1.0035.2063,1.0035.2063-3.5856.18-7.3308-.1608-10.412-2.1748h0Z"/>
        <path class="cls-11" d="M94.8975,182.6219l-9.55,3.0538,1.3683-1.314-4.5117,23.945-1.1167-1.8615,7.6699,4.1187c-.9872-.0967-9.3556-1.0951-10.0843-1.1668,0,0,.3194-1.6956.3194-1.6956l4.5118-23.945.2515-1.3342c.2427.0348,10.5684.1673,11.1418.1995h0Z"/>
        <path class="cls-11" d="M400.5314,182.5727c.6042-.0192,10.8718-.1883,11.1374-.1992,0,0,.2549,1.3289.2549,1.3289l4.6096,24.0407.3287,1.7143c-.7025.0514-9.2873,1.0204-10.2478,1.1065,0,0,7.8415-4.077,7.8415-4.077l-1.132,1.8717-4.6097-24.0407,1.3672,1.3088-9.5499-3.054h0Z"/>
        <path class="cls-11" d="M109.8726,271.7764c3.5026,7.1433,5.3511,14.9452,6.2809,22.8047.8672,7.8617.8604,15.8652-.746,23.6421-1.0208-6.762-2.0361-16.3503-2.9433-23.1905,0,0-1.5378-11.5031-1.5378-11.5031-.5026-3.8494-1.0341-7.7043-1.3462-11.6718,0,0,.2922-.0814.2922-.0814h0Z"/>
        <path class="cls-11" d="M133.008,326.4459c.5369,2.116-.1663,3.5411-.9126,4.9474-.7056,1.429-1.3632,2.8879-2.0804,4.3123-2.7058,5.7404-10.3034,19.5799-13.3954,25.3873,0,0-.2263-2.1323-.2263-2.1323,8.4629,10.1052,25.3666,30.5109,33.7234,40.6974,6.5116,7.972,14.479,17.6171,20.7104,25.7401,2.7733,3.3382,5.5933,6.8778,8.2442,10.3573,1.0409,1.3915,2.1204,2.8721,2.2748,4.6696.0724.5952.0994,1.2001-.0129,1.8309-2.0479-1.3764-2.7762-3.2023-4.2367-4.947-1.4071-1.6436-2.806-3.4561-4.1709-5.0959-5.7443-6.497-19.7099-23.42-25.5516-30.276-8.8258-10.6356-25.8365-30.9289-34.7459-41.4908,0,0,.6002-1.1498.6002-1.1498,3.1007-5.8731,10.2097-19.8068,13.4914-25.3664.7824-1.3921,1.599-2.7635,2.4142-4.1394.7932-1.3887,1.6294-2.7584,3.7058-3.4374,0,0,.1685.0928.1685.0928h0Z"/>
        <path class="cls-11" d="M361.8632,325.2993c2.0737.7299,2.8743,2.123,3.6412,3.5345.7996,1.3943,1.6366,2.7688,2.4188,4.172,3.2411,5.5098,10.4896,19.6584,13.5725,25.5241,0,0,.6041,1.1572.6041,1.1572-8.9156,10.5614-25.9151,30.8594-34.7459,41.4905-5.8951,6.9149-19.7153,23.6744-25.5511,30.2762-1.3648,1.6398-2.7636,3.4523-4.1707,5.0959-1.4585,1.7422-2.1887,3.5665-4.2365,4.9471-.1116-.6306-.0849-1.2355-.012-1.8306.1555-1.7988,1.232-3.2777,2.2738-4.67,2.6505-3.4783,5.4715-7.0192,8.2446-10.3567,3.9381-5.0875,8.2922-10.5988,12.3538-15.5052,11.9672-14.7159,29.8678-36.3255,42.0798-50.9325,0,0-.2224,2.1396-.2224,2.1396-3.1533-5.9008-10.7187-19.7198-13.5065-25.5931-.7191-1.4382-1.396-2.8984-2.0875-4.3511-.7224-1.4362-1.4113-2.8907-.8268-5.0087,0,0,.1707-.0891.1707-.0891h0Z"/>
        <path class="cls-11" d="M134.8836,334.405c31.3717,23.01,50.8126,61.5779,51.4633,100.3959-1.4732-9.5561-3.5247-18.9504-6.4002-28.0794-8.4863-27.5686-24.5843-52.1667-45.0631-72.3165h0Z"/>
        <path class="cls-15" d="M248.9488,347.1629c.1825,21.72.365,43.4401.5476,65.1601-2.8756-1.2602-5.7512-2.5204-8.6269-3.7807-.1032-19.4222-.2063-38.8444-.3095-58.2666,2.7963-1.0376,5.5925-2.0752,8.3888-3.1128Z"/>
        <path class="cls-15" d="M248.9488,347.1629c.1825,21.72.365,43.4401.5476,65.1601,2.5553-.956,5.1106-1.912,7.6659-2.868.2302-19.5865.4605-39.173.6907-58.7594-2.9681-1.1775-5.9361-2.3551-8.9042-3.5326Z"/>
        <path class="cls-15" d="M223.2731,356.8194c.7186,21.7665,1.4372,43.5329,2.1557,65.2994-2.0618-.5883-4.1235-1.1766-6.1853-1.7649-.6329-20.4923-1.2658-40.9846-1.8987-61.4769,1.9761-.6859,3.9522-1.3717,5.9283-2.0576Z"/>
        <path class="cls-15" d="M223.2731,356.8194c.7186,21.7665,1.4372,43.5329,2.1557,65.2994,1.4965-2.3353,2.9929-4.6705,4.4894-7.0058-.3761-20.1566-.7523-40.3132-1.1284-60.4698-1.8389.7254-3.6778,1.4508-5.5168,2.1762Z"/>
        <path class="cls-15" d="M198.1623,366.0082c3.1593,21.117,6.3186,42.2339,9.4779,63.3509,1.4037-1.8153,2.8074-3.6307,4.2112-5.446-3.0211-19.8738-6.0422-39.7476-9.0632-59.6214-1.542.5722-3.0839,1.1443-4.6259,1.7165Z"/>
        <path class="cls-15" d="M296.4499,366.0082c-3.1029,21.1725-6.2057,42.3449-9.3086,63.5174-.9126-1.8708-1.8252-3.7417-2.7378-5.6125,3.0113-19.7,6.0227-39.4,9.034-59.1,1.0041.3984,2.0082.7967,3.0124,1.1951Z"/>
        <path class="cls-15" d="M273.7212,356.9909c-.6986,21.8148-1.3972,43.6295-2.0959,65.4443,1.7954-.6938,3.5907-1.3876,5.3861-2.0814l1.8817-61.3111c-1.724-.684-3.448-1.3679-5.172-2.0519Z"/>
        <path class="cls-15" d="M273.7212,356.9909c-.6986,21.8148-1.3972,43.6295-2.0959,65.4443-1.1706-2.1365-2.3412-4.273-3.5118-6.4096.392-20.2643.7841-40.5286,1.1761-60.7929,1.4772.586,2.9544,1.1721,4.4316,1.7581Z"/>
        <path class="cls-15" d="M207.6402,428.5029c5.9295-2.4134,11.8591-4.8268,17.7886-7.2402-2.0618-.5883-4.1235-1.1766-6.1853-1.7649-2.464,1.1864-4.9281,2.3728-7.3921,3.5592-1.4037,1.8153-2.8074,3.6307-4.2112,5.446Z"/>
        <path class="cls-15" d="M225.4288,421.2626c8.0225-3.2653,16.045-6.5306,24.0676-9.7959-2.8756-1.2602-5.7512-2.5204-8.6269-3.7807-3.6448,2.0416-7.2896,4.0833-10.9344,6.1249-1.5021,2.4839-3.0042,4.9677-4.5063,7.4516Z"/>
        <path class="cls-15" d="M271.6253,421.579c-7.3763-3.3708-14.7527-6.7415-22.129-10.1123,2.5553-.956,5.1106-1.912,7.6659-2.868,3.6504,2.1903,7.3009,4.3805,10.9513,6.5708,1.1706,2.1365,2.3412,4.273,3.5118,6.4096Z"/>
        <path class="cls-15" d="M287.1414,428.6694c-5.172-2.3634-10.344-4.7269-15.516-7.0903,1.7954-.6938,3.5907-1.3876,5.3861-2.0814,2.464,1.1864,4.9281,2.3728,7.3921,3.5592.9126,1.8708,1.8252,3.7417,2.7378,5.6125Z"/>
        <polygon class="cls-11" points="204.0179 433.6765 248.6192 411.9943 249.4483 411.5912 250.2499 412.0345 290.2707 434.167 248.5334 415.4718 250.1638 415.5121 204.0179 433.6765 204.0179 433.6765"/>
        <circle class="cls-11" cx="119.5656" cy="199.7753" r="14.0917"/>
        <circle cx="119.6781" cy="198.2753" r="14.0917"/>
        <circle class="cls-9" cx="119.6781" cy="198.2753" r="10.0419"/>
        <line class="cls-9" x1="120.1334" y1="188.2488" x2="119.6781" y2="208.3172"/>
        <path class="cls-9" d="M110.4722,202.289c3.2204-1.3379,6.4408-2.6758,9.6612-4.0137"/>
        <path class="cls-9" d="M129.72,202.289c-3.2204-1.3379-6.4408-2.6758-9.6612-4.0137"/>
        <circle class="cls-11" cx="376.093" cy="199.0253" r="14.0917"/>
        <circle cx="375.9805" cy="197.5253" r="14.0917"/>
        <circle class="cls-9" cx="375.9805" cy="197.5253" r="10.0419"/>
        <path class="cls-2" d="M202.5653,136.2825c15.9741,14.3225,31.9482,28.6456,47.9223,42.968,21.0292-23.0511,42.0581-46.1021,63.0873-69.1532"/>
        <path d="M186.0255,174.0594c1.528-2.1095,3.8051-3.2798,6.2176-4.0276.7845-.1579,1.7596-.5147,2.5815-.3219-2.1721,2.6017-5.3734,4.3255-8.7991,4.3495h0Z"/>
        <path d="M185.5678,107.9055c3.445-.0135,6.6866,1.675,8.9132,4.2561-1.6673.2027-3.3981-.506-4.924-1.1573-1.5458-.7462-2.9311-1.6551-3.9891-3.0988h0Z"/>
        <path d="M249.1763,197.8554c1.5139,2.8081,1.4137,6.2142.0661,9.0628-1.5105-2.5527-1.5082-6.4004-.0661-9.0628h0Z"/>
        <path d="M302.9175,168.8541c3.5132.0374,6.8048,1.7731,9.0848,4.3991-1.7028.1796-3.461-.5571-5.0152-1.2314-1.5727-.7696-2.9867-1.701-4.0696-3.1677h0Z"/>
        <path d="M293.7414,128.3897c1.7037-2.1453,4.5122-3.552,7.1987-3.5353-1.8008,2.1003-4.4042,3.4936-7.1987,3.5353h0Z"/>
        <path d="M248.2825,83.2872c-1.5209-2.8309-1.4285-6.26-.0875-9.1378,1.5171,2.5753,1.5235,6.4458.0875,9.1378h0Z"/>
        <path class="cls-14" d="M228.1235,280.4312l-63.0524-25.9364s15.7577,41.2179,41.5877,38.9047c8.8386-.7915,21.4646-12.9682,21.4646-12.9682Z"/>
        <path class="cls-14" d="M269.7584,282.2366l63.0524-25.9364s-15.7577,41.2179-41.5877,38.9047c-8.8386-.7915-21.4646-12.9682-21.4646-12.9682Z"/>
        <path d="M198.1557,365.1344l50.4141-19.849.3931-.1548.3877.1636,47.0994,19.8578s-47.9027-17.8328-47.9027-17.8328l.7805.0088c-.0141-.0343-51.2041,17.9333-51.172,17.8064h0Z"/>
        <path class="cls-11" d="M199.1751,371.9218c1.5139-.7921,3.0279-1.5841,4.5419-2.3762-.3096-2.0367-.6192-4.0734-.9288-6.1102-1.542.5722-3.0839,1.1443-4.6259,1.7165.3376,2.2566.6752,4.5132,1.0128,6.7698Z"/>
        <path class="cls-11" d="M295.4839,371.744l-3.0282-1.677c.3096-2.0367.6192-4.0734.9288-6.1102,1.0218.3984,2.0436.7967,3.0654,1.1951-.322,2.1973-.644,4.3947-.9661,6.592Z"/>
        <path class="cls-11" d="M217.483,363.7453c1.9061-.0152,3.8117-.0306,5.7173-.0458l5.698-3.3242c.0068-2.0404.013-4.0808.0198-6.1211-1.9519.7452-3.9038,1.4904-5.8557,2.2359-1.9061.6693-3.8117,1.3383-5.7178,2.0076.0463,1.7491.0926,3.4983.1384,5.2477Z"/>
        <path class="cls-11" d="M278.7162,363.9521c-1.6878-.0136-3.3756-.0272-5.0635-.0408-1.4958-1.0187-2.9917-2.0374-4.4875-3.0562.0381-1.9394.0762-3.8788.1143-5.8182,1.4941.5436,2.9976,1.0984,4.5101,1.6648,1.7318.6485,3.4449,1.3006,5.139,1.9557-.0708,1.7649-.1417,3.5298-.2125,5.2947Z"/>
        <path class="cls-11" d="M240.5748,356.474c2.835.5247,5.67,1.0494,8.5051,1.5741,2.8968-.5475,5.7936-1.095,8.6904-1.6425.0256-1.8719.0512-3.7439.0767-5.6158-2.9739-1.1085-5.9479-2.2169-8.9218-3.3254-2.7873.9712-5.5746,1.9423-8.3619,2.9135.0039,2.032.0077,4.0641.0116,6.0961Z"/>
        <path class="cls-11" d="M160.9293,60.6855c-4.2146,4.1386-6.8034,9.4437-9.8537,14.4744-4.4913,7.6074-9.3785,15.3281-15.2946,22.0139-5.4139,6.819-12.2148,12.7145-17.4552,19.589-3.2607,4.5461-6.0405,9.5684-7.7784,14.8195-.8392,2.6213-1.5605,5.5654-2.4868,8.4432-1.8288,5.561-4.2266,11.2885-6.7258,16.5575-3.7419,8.0551-7.5842,16.0577-11.8909,23.8251,1.8133-5.637,3.8393-11.1841,5.7187-16.761,1.8335-5.3726,4.0912-11.2079,5.8195-16.6405,2.0221-5.7071,3.1299-10.9924,4.6505-16.9336,1.7508-5.9871,4.6092-11.4825,8.2074-16.5534,3.0672-4.4418,8.4143-9.4362,12.1336-13.3222,4.002-4.1868,8.0433-8.52,11.8566-12.8607,3.3382-3.8166,7.6487-9.6966,10.8242-13.7493,2.7127-3.3289,5.4336-7.3845,8.7524-10.162,1.0943-.977,2.2093-2.0364,3.5225-2.74h0Z"/>
        <path class="cls-11" d="M340.3022,60.7598c2.5509,2.4108,4.9166,5.0794,6.8046,8.066,1.5656,2.5494,3.924,6.2863,5.6201,8.805,5.6031,8.6654,11.1878,17.2772,17.9447,25.0161,4.5755,5.1724,10.0452,10.1293,13.6488,16.2278,1.6198,2.6093,3.1421,5.413,4.5594,8.1156,2.0335,3.9398,4.4382,9.0179,6.1449,13.8836,2.8096,8.7495,4.9889,17.3964,7.261,26.2447,1.105,4.3904,2.1796,8.7874,3.1764,13.2155-1.8186-4.1564-3.5594-8.3439-5.1885-12.5643-3.3161-8.3203-6.3367-16.9907-9.565-25.2811-3.2273-7.4339-6.7862-13.8669-11.034-20.675-3.6037-5.8908-8.6751-10.2802-13.1192-15.656-2.2918-2.742-4.3839-5.6335-6.3538-8.57-4.9196-7.2908-8.8455-15.2265-12.71-23.0643-2.0177-4.8323-4.1713-9.4635-7.1895-13.7636h0Z"/>
        <path class="cls-1" d="M193.2919,115.6004c18.2704,16.6821,36.5404,33.3649,54.8108,50.047,24.8214-27.2438,49.6428-54.4884,74.4643-81.7322"/>
      </g>
    </g>
  </g>
</svg>