<?xml version="1.0" encoding="UTF-8"?>
<svg id="Layer_2" xmlns="http://www.w3.org/2000/svg" viewBox="0 0 468.6127 475.3666">
  <defs>
    <style>
      .cls-1 {
        stroke-width: 31.794px;
      }

      .cls-1, .cls-2, .cls-3, .cls-4, .cls-5, .cls-6, .cls-7, .cls-8, .cls-9, .cls-10 {
        stroke-miterlimit: 10;
      }

      .cls-1, .cls-2, .cls-4, .cls-7 {
        fill: none;
      }

      .cls-1, .cls-4 {
        stroke: #fff;
      }

      .cls-11, .cls-3 {
        fill: #1e1e1e;
      }

      .cls-12 {
        fill: #447294;
      }

      .cls-13 {
        font-family: HackerNoonV2-Regular, 'Hacker Noon V2';
        font-size: 38px;
        letter-spacing: .05em;
      }

      .cls-14, .cls-5, .cls-6, .cls-8, .cls-9 {
        fill: #4fb848;
      }

      .cls-2 {
        stroke: #1e1e1e;
        stroke-width: 15.5876px;
      }

      .cls-3 {
        stroke-width: 2.4426px;
      }

      .cls-3, .cls-7, .cls-10 {
        stroke: #000;
      }

      .cls-15 {
        fill: #fff;
      }

      .cls-4 {
        stroke-width: 1.7547px;
      }

      .cls-5 {
        opacity: .72;
      }

      .cls-5, .cls-6, .cls-8, .cls-9 {
        stroke: #4fb848;
      }

      .cls-5, .cls-6, .cls-9 {
        stroke-width: 5.3305px;
      }

      .cls-6 {
        opacity: .5;
      }

      .cls-7 {
        stroke-width: 4.8851px;
      }

      .cls-8 {
        stroke-width: 13.3543px;
      }

      .cls-10 {
        stroke-width: 1.9484px;
      }

      .cls-10, .cls-16 {
        fill: #999;
      }
    </style>
  </defs>
  <g id="Layer_1-2" data-name="Layer_1">
    <g>
      <path class="cls-8" d="M410.5532,312.3851c-58.6295,33.9792-117.2591,67.9588-175.8886,101.9543-58.7597-33.784-117.5032-67.5843-176.2467-101.3684-.114-67.7632-.3581-203.3063-.3581-203.3063L233.9645,7.71l176.2467,101.3521s.228,135.5431.3419,203.323Z"/>
      <g>
        <g id="head">
          <polygon class="cls-9" points="368.816 235.9952 362.7792 285.7275 346.4445 288.6966 352.8364 236.3663 368.816 235.9952"/>
          <path class="cls-9" d="M362.4241,207.9973c-12.1422,58.5374-14.0216,77.2782-12.138,79.7715.2086.2762,1.4267,4.3351,1.4267,4.3351,0,0-1.6392,2.5444-2.5607,3.1174-4.0985-4.1208-8.1969-8.2416-12.2954-12.3625,5.0898-25.0683,10.1796-50.1366,15.2694-75.2049l10.298.3434Z"/>
          <path class="cls-9" d="M340.2593,287.0267l8.7375,8.7303,16.6676,31.5547-68.5522,83.4141-18.8183-18.6584c.8805-22.3483,4.9448-40.0789,8.7276-52.5144,2.9393-9.6623,4.9519-16.1194,9.474-23.1862,12.443-19.4447,33.0656-26.596,43.7637-29.3401Z"/>
          <path class="cls-9" d="M345.9226,292.1639c-5.2952,2.1044-12.6414,5.6373-20.2072,11.5566-12.045,9.4237-18.1215,19.7912-21.9608,26.4909-6.0334,10.5288-8.5979,19.2223-13.727,36.6091-2.8272,9.5838-4.779,17.6657-6.0531,23.3727-1.6221-1.5238-3.2442-3.0476-4.8662-4.5715.513-7.3944,1.6183-18.0381,4.2612-30.6486,3.5828-17.0951,5.944-28.3612,12.6916-38.7362,3.6743-5.6496,15.3587-21.3511,44.4349-29.2102,1.8088,1.7124,3.6177,3.4248,5.4265,5.1372Z"/>
          <g>
            <path class="cls-14" d="M367.3108,241.2875c-1.7391,6.0337-3.3528,13.1214-4.3944,21.1192-1.0965,8.4187-1.3218,16.0245-1.1319,22.5357"/>
            <path class="cls-14" d="M367.5188,241.3475c-.0219,7.492-1.0599,14.5745-2.034,21.8864-1.0652,7.2993-1.9433,14.4352-3.7002,21.7085-3.1426-10.8786-2.4462-22.6039.7125-33.3816,1.1141-3.5855,2.5422-7.0887,4.6058-10.3333,0,0,.4159.1199.4159.1199h0Z"/>
          </g>
          <g>
            <path class="cls-14" d="M344.7841,292.9909l2.3304,4.1852c4.9936,9.1216,9.9872,18.2432,14.9809,27.3648-6.766,7.6713-12.2411,13.9923-15.9574,18.3076-16.4387,19.0884-21.9496,26.2059-30.0061,35.1986-2.8606,3.193-5.342,6.1041-10.3047,11.9261-5.2531,6.1627-2.5888,3.2727-3.7286,4.5501-1.401,1.5702-2.5319,2.6926-3.5038,4.652-.4953.9985-.7791,1.8713-.9405,2.4467"/>
            <path class="cls-14" d="M344.9006,292.926c2.516.316,3.358,1.5691,4.1141,2.8669.7981,1.2736,1.6226,2.5311,2.3901,3.8208,4.5658,7.3573,8.8617,16.0039,13.0269,23.6478,0,0,.8814,1.6493.8814,1.6493l-1.2202,1.3921c-13.1982,14.8496-28.3206,32.6559-41.1844,47.559-5.6701,6.4491-13.1831,14.5506-18.8346,21.049,0,0-.0968.1189-.0968.1189,0,0-.0215.0253-.0215.0253.0138-.0325-.0599.1072.0863-.1637.0221-.0477.0415-.0967.0579-.1461.9427.6188-1.2659-3.5986-1.6837-2.4129-1.0402.2501-.4542-.2306.9697.2717,1.2968.1701.5416,3.3849.5051,2.6049-.057.0778-.152.192-.1611.1995,0,0-.1558.1715-.1558.1715,0,0-.552.588-.552.588-1.9834,1.8865-2.7784,3.9571-5.368,5.4538-.6517-1.2795-.5844-2.5448-.2072-3.6675.7069-1.8542,2.213-3.2722,3.42-4.7635.0628-.0726.2383-.2959-.0975.131.1747-.3302.1431-.2414.1934-.3283,0,0,.0936-.1342.0936-.1342l.142-.1938c5.877-7.4526,12.0234-14.6302,18.1625-21.8526,12.4245-15.1863,27.7057-33.132,40.7367-48.0341-.0002,0-.3389,3.041-.3389,3.041-4.2493-7.5981-9.1-15.9108-12.8948-23.7018-.674-1.34-1.2844-2.716-1.9336-4.0689-.7029-1.3223-1.3197-2.6894-.2627-4.9935l.2332-.1299h0Z"/>
          </g>
          <g>
            <path class="cls-14" d="M342.8465,300.1738c-9.0654,7.4448-22.5179,20.3587-33.3796,39.8346-12.3475,22.14-15.6812,42.6009-16.6898,54.6008"/>
            <path class="cls-14" d="M342.8584,300.1883c-25.9589,26.629-43.297,57.7086-50.0808,94.4211-.7235-36.9632,18.9237-74.4976,50.0808-94.4211h0Z"/>
          </g>
          <polygon class="cls-9" points="98.0805 237.1327 104.1172 286.7139 120.4519 289.674 114.0601 237.5027 98.0805 237.1327"/>
          <path class="cls-9" d="M104.4723,208.9746c12.1422,58.5374,14.0216,77.2782,12.138,79.7715-.2086.2762-1.4267,4.3351-1.4267,4.3351,0,0,1.6392,2.5444,2.5607,3.1174,4.0985-4.1208,8.1969-8.2416,12.2954-12.3625-5.0898-25.0683-10.1796-50.1366-15.2694-75.2049l-10.298.3434Z"/>
          <path class="cls-9" d="M121.3397,209.6452s-4.8562,46.9353,12.7837,57.6915c10.9065,6.6504,22.3616,2.0704,36.5755,13.0493,9.9012,7.6477,8.2418,12.8816,14.9143,15.1097,16.081,5.3697,28.5685-24.0798,51.4898-23.3513,19.8036.6294,24.9619,23.0728,44.0326,20.9475,8.0625-.8985,7.8362-4.9874,28.4081-16.1399,19.3069-10.4667,29.1184-14.4229,29.1184-14.4229l5.3265-56.6612c-9.8688,1.8383-24.9778,4.7861-43.3224,8.9284-49.6797,11.218-46.3321,13.8644-60.3673,14.4229-30.6847,1.221-37.9176-11.777-86.2897-17.5135-13.8691-1.6447-25.3183-2.0045-32.6694-2.0604Z"/>
          <path class="cls-9" d="M116.9069,215.8361l10.6531,77.2653c29.3708,8.419,40.9648,23.5174,45.2755,30.391,5.8793,9.3747,8.2989,21.1292,13.1383,44.638,2.7814,13.5114,4.5133,24.8836,5.5928,32.9665,14.9718-5.7255,29.9435-11.4509,44.9152-17.1764,13.604,5.9005,27.208,11.801,40.812,17.7015.6738-6.2491,1.8057-15.1565,3.7584-25.765,4.4212-24.0203,6.901-37.6644,14.1153-49.9649,4.2454-7.2385,15.928-23.9678,44.9785-35.0108,4.0804-24.5681,8.1608-49.1362,12.2411-73.7043-3.3894-.447-6.7788-.8939-10.1682-1.3409-3.4328,17.4119-6.8656,34.8239-10.2984,52.2358-6.9093,3.5784-12.6759,5.6137-16.7786,6.8251-3.3741.9963-9.2388,2.5031-16.5392,6.0758-1.4189.6944-2.1284,1.0416-2.6633,1.3736-7.3974,4.592-8.1191,12.0763-11.8897,12.1316-.4036.0059-.7535-.0655-2.3969-.9658-5.7556-3.1533-8.8123-6.062-12.3191-8.5707-.6893-.4931-3.7079-2.1467-9.7209-5.4944-5.5646-3.0981-8.3812-4.6599-10.0656-5.2864-1.9335-.7192-6.747-2.3249-13.152-2.4015-1.461-.0175-6.6854.0006-13.0856,2.0386-3.0074.9576-5.9687,2.5345-11.7687,5.6492-4.7145,2.5318-8.1558,4.3798-12.8587,7.2763-8.3037,5.1142-8.7249,6.198-11.1107,6.2022-5.005.0087-5.8911-4.7761-13.7872-10.0641-2.7913-1.8693-4.1622-2.2636-20.1245-7.7887-6.1911-2.1429-11.7143-4.0668-16.4239-5.7132-3.9356-18.1846-7.8711-36.3692-11.8067-54.5537,0,0-3.8847-1.1802-8.5225,1.0302Z"/>
          <path class="cls-6" d="M116.0288,208.7679c3.7994,26.1323,7.5988,52.2646,11.3982,78.3968,6.5089,1.5771,19.6783,5.5211,31.3266,15.0667,2.6689,2.1872,8.2014,6.793,13.05,14.2941,2.6274,4.0647,4.206,7.6678,4.7606,8.9821,1.0304,2.4417,1.8883,5.3741,3.5621,11.1391,1.0857,3.7395,2.0222,6.965,3.1626,11.4932.6007,2.3851,1.6951,6.7533,2.7298,11.9761,1.1919,6.0158,1.4875,9.0411,2.63,17.095.5892,4.1535,1.4665,10.0877,2.6605,17.3176,14.9892-5.8477,29.9784-11.6953,44.9675-17.543,12.9788,6.0015,25.9576,12.003,38.9364,18.0044,1.4467-10.5237,2.8647-19.4733,4.031-26.4178.1175-.6996,2.0705-12.2177,5.3265-26.1629.9063-3.8815,2.1372-8.909,4.8827-15.1097.7161-1.6173,2.1234-4.7765,4.3944-8.4563,4.4376-7.1904,9.323-11.7606,12.1623-14.3799,11.7993-10.8855,26.657-17.2554,32.0035-19.4022.9248-5.4811,6.7479-40.0356,8.1673-48.4625.3221-1.9123,1.0219-6.0664,1.9087-11.6327.9585-6.0162,1.7091-11.0055,2.2194-14.4658-2.7227.0847-5.4453.1694-8.1679.2541-.5476,2.7029-1.3204,6.5621-2.2188,11.2069-.987,5.103-2.2372,11.5664-3.0627,16.4404-.9948,5.8732-2.1738,14.166-2.9296,24.5747-7.2789,4.7631-13.3386,7.5772-17.5776,9.2718-3.3483,1.3386-9.5571,3.5762-15.2694,5.4944-3.8594,1.296-3.5827,1.1334-4.0837,1.3736-8.0373,3.8539-9.1415,12.0894-13.4728,12.0456-.3022-.0031-.7446-.0477-3.2169-1.5718-6.3863-3.937-8.4444-6.7276-13.4939-10.302-1.1288-.7991-3.54-2.1788-8.3623-4.9383-5.2338-2.9949-7.895-4.5083-10.0656-5.2864-5.2928-1.8973-9.8367-1.9564-11.9333-1.9661-1.914-.0088-7.9169.1073-14.9143,2.9189-2.4234.9737-2.3365,1.2142-10.4755,5.8378-9.2621,5.2616-8.625,4.5244-12.0735,6.6963-9.8424,6.1991-10.3073,9.229-14.0265,9.1001-4.8898-.1694-5.299-5.4484-12.9376-10.7413-6.7086-4.6484-10.5307-3.4437-20.4419-7.1156-4.9493-1.8336-12.0239-5.1081-19.8857-11.3323-2.8408-17.9141-5.6816-35.8282-8.5224-53.7423-.3659-.7289-.8293-1.1006-1.1477-1.2951-1.5104-.9225-3.9479-.4163-6.0004,1.344Z"/>
          <path class="cls-9" d="M235.0166,312.3385c-16.4678,5.9094-32.9357,11.8187-49.4035,17.7281,3.0733,19.8651,6.1466,39.7301,9.2198,59.5952,13.5721-5.342,27.1442-10.6841,40.7163-16.0261,12.2066,5.3943,24.4133,10.7885,36.6199,16.1828,3.0184-19.9173,6.0367-39.8346,9.0551-59.7519-15.4025-5.9094-30.8051-11.8187-46.2076-17.7281Z"/>
          <path class="cls-9" d="M243.6784,315.6616c3.7084,1.4228,7.4168,2.8455,11.1252,4.2683-.3814,19.063-.7627,38.1259-1.1441,57.1889l-10.6531-6.1812c.224-18.4253.448-36.8507.6719-55.276Z"/>
          <path class="cls-9" d="M226.8563,315.2668c-3.8165,1.3695-7.6331,2.7391-11.4497,4.1086.3659,18.9617.7318,37.9233,1.0977,56.885l10.6531-6.1812c-.1004-18.2708-.2007-36.5416-.3011-54.8124Z"/>
          <path class="cls-9" d="M190.113,328.4518c4.7215-1.6943,9.4429-3.3885,14.1644-5.0828.6143,19.2738,1.2286,38.5476,1.8429,57.8214l-7.1908,3.3482c-2.9388-18.6956-5.8776-37.3912-8.8164-56.0868Z"/>
          <path class="cls-9" d="M278.2939,328.9423c-4.7161-1.8094-9.4322-3.6188-14.1483-5.4282-.6102,19.2254-1.2203,38.4509-1.8305,57.6763l7.1908,3.3482c2.9293-18.5321,5.8587-37.0642,8.788-55.5963Z"/>
          <path class="cls-9" d="M127.7039,288.004l-9.1044,8.5921-17.3675,31.0552,71.4308,82.0937,19.6085-18.3631c-.9175-21.9945-5.1525-39.4445-9.0941-51.6831-3.0627-9.5094-5.1598-15.8643-9.8718-22.8191-12.9655-19.1369-34.454-26.1749-45.6014-28.8756Z"/>
          <path class="cls-9" d="M120.9738,293.1412c5.2952,2.1044,12.6414,5.6373,20.2072,11.5566,12.045,9.4237,18.1215,19.7912,21.9608,26.4909,6.0334,10.5288,8.5979,19.2223,13.727,36.6091,2.8272,9.5838,4.779,17.6657,6.0531,23.3727,1.6221-1.5238,3.2442-3.0476,4.8662-4.5715-.513-7.3944-1.6183-18.0381-4.2612-30.6486-3.5828-17.0951-5.944-28.3612-12.6916-38.7362-3.6743-5.6496-15.3587-21.3511-44.4349-29.2102-1.8088,1.7124-3.6177,3.4248-5.4265,5.1372Z"/>
          <path class="cls-9" d="M16.9841,207.4293l16.6898,13.0493c17.8036-3.9316,57.3555-11.491,97.9437-8.4517,19.6808,1.4737,36.3291,5.1894,36.3292,5.1894,5.9755.9631,10.2383,2.4547,10.9673,2.6176,6.3838,1.4269,22.7602,6.254,30.8939,8.628,6.0623,1.7694,15.103,4.3818,26.3663,7.5334,9.6376-2.8815,17.2819-5.2025,21.9719-6.6319,22.1957-6.7649,28.1164-8.7666,38.9759-10.9809,7.0637-1.4403,13.8055-2.4696,15.7798-2.7687,3.4638-.5248,10.7272-1.5712,19.0575-2.3465,21.0967-1.9635,38.5331-1.2108,43.1963-.9802,14.6695.7256,25.733,2.3587,32.3143,3.3482,10.7314,1.6134,19.9928,3.5094,27.4316,5.2369,5.5757-4.3664,11.1514-8.7329,16.7272-13.0993-6.8012-2.6899-16.7807-6.7441-28.7632-12.0191-19.3954-8.5383-21.8136-10.491-23.2793-11.8174-8.87-8.0273-7.4551-15.3777-14.7167-41.4098-5.2241-18.7281-8.4964-30.4662-16.6898-43.612-4.6875-7.5208-6.8118-8.6519-12.3822-14.5244-2.888-3.0447-5.7213-6.2417-11.0546-12.9477-10.1713-12.7895-11.3157-21.606-22.0148-30.0298-5.5903-4.4014-11.8168-7.2324-15.3582-8.8426-4.0231-1.8292-8.3284-3.7867-14.3506-5.1839-6.1541-1.4278-23.3326-4.4174-26.6193-7.5322-.0097-.0092-.0216-.0205-.0429-.0408-.9209-.8735-2.522-2.2847-4.7509-3.7264,0,0-1.5051-.9736-3.0038-1.7309-2.6441-1.3363-7.7312-3.0321-24.67-3.0321-.0001,0-12.4309-.0119-18.4465,2.4272-3.0706,1.245-4.9928,2.5525-6.3918,3.434-9.8695,6.2184-19.3623,7.3997-28.4081,9.9587,0,0-15.4259,4.3638-30.1837,14.4229-12.5286,8.5397-8.3333,10.6109-30.1837,32.9665-12.2258,12.5084-19.488,17.9464-24.4554,30.4235-1.3077,3.2846-.7058,2.6602-4.0102,13.3739-4.2685,13.8399-6.3381,18.3358-10.5956,30.7207-9.7105,28.2477-7.6857,30.2884-13.1388,35.3704-4.7544,4.4308-7.6896,4.1806-25.2122,11.3322-11.3203,4.6202-20.267,8.8761-25.9224,11.6757Z"/>
          <path class="cls-9" d="M98.5381,162.2452c2.5207-27.5948,11.1706-45.8948,18.8868-57.6964,8.8672-13.5618,27.2761-35.0216,27.2764-35.022h0s12.2686,15.3931,21.3061,44.6422c8.8894,28.7699,6.8218,36.0896,5.3265,39.8346-6.1952,15.5166-23.4592,22.0032-29.4038,23.9535,26.2879-1.6125,52.5758-3.225,78.8637-4.8375-5.4264-10.1573-10.9047-20.3355-16.4354-30.5341-18.191-33.5442-36.5222-66.5216-54.9643-98.9355-5.5659,5.3715-13.0544,12.9774-21.3014,22.6005-7.9606,9.2889-18.6382,21.7482-28.056,38.1809-6.6803,11.6562-15.3992,29.9746-20.4099,54.8116,6.3038,1.0008,12.6075,2.0015,18.9113,3.0023Z"/>
          <path class="cls-9" d="M370.372,157.4343c-2.5002-12.2379-7.5618-29.5621-18.5131-48.1588-8.441-14.3339-17.8744-25.167-25.6764-32.8498-7.382,13.9518-13.3143,26.8848-18.0973,38.3872-5.9187,14.2338-9.5359,25.6867-5.9159,38.1449.1891.6507.3941,1.2007.5893,1.6897,6.1952,15.5166,23.4592,22.0032,29.4038,23.9535-26.2879-1.6125-52.5758-3.225-78.8636-4.8375,5.4673-10.1842,10.9458-20.3622,16.4354-30.5341,17.9293-33.222,35.9787-66.3811,54.1481-99.4774.8814,1.0759,2.1816,2.6887,3.7042,4.6794,8.7868,11.4882,12.8454,19.6963,16.4601,25.8172,11.4314,19.3571,17.2405,15.8373,26.1888,33.3958,2.3106,4.534,4.4108,10.5203,8.6112,22.4928,3.7999,10.8311,6.5887,19.8779,8.4214,26.1003-5.632.399-11.264.7979-16.896,1.1969Z"/>
          <path class="cls-9" d="M81.302,181.2449s-56.1061,26.7853-56.1061,26.7853l11.4938,7.1183c10.7707-2.5347,20.7039-4.3304,29.5753-5.6131.0001,0,11.6218-1.6756,23.2043-2.5353,31.5201-2.3398,91.7395,1.6383,125.706,10.9888,3.1068.8553,12.0641,3.4265,24.1021,3.3198,10.5116-.0932,18.3034-2.1834,21.351-2.9764,17.3427-4.5128,62.3696-16.2293,104.755-12.7059,4.7015.3908,12.9588,1.5197,29.4735,3.7774,17.415,2.3808,31.7447,4.6025,41.5469,6.1812l4.9714-8.2416-61.0775-24.3815s-15.7767.5492-19.1755,1.0302c-30.7125,4.3467-41.944.999-144.5264,3.0906-80.1791,1.6348-90.1415,4.023-110.4367-2.0604-5.5054-1.6503-13.6526-4.4879-24.8571-3.7774Z"/>
          <path class="cls-9" d="M119.4217,190.1565c1.1013.5007,4.8374,2.0673,4.8374,2.0673l115.5071-2.9948,103.2632,2.2125s5.0919-.9955,7.5887-1.5459c-.3752-3.0839-.7504-6.1678-1.1255-9.2517-47.4183-6.0562-85.9164-7.0598-112.2122-6.8681-51.6752.3769-117.2932,5.8156-117.2932,5.8156-.3411,1.1355-.6495,2.4857-.8168,4.0192-.2851,2.6143-.0618,4.863.2512,6.5458Z"/>
          <path class="cls-9" d="M185.6131,103.4736c.1315,17.3902.2629,34.7803.3944,52.1705,3.5887-1.8678,7.1775-3.7355,10.7662-5.6033-.1036-13.7055-.2072-27.4111-.3108-41.1166-3.6166-1.8168-7.2332-3.6337-10.8498-5.4505Z"/>
          <path class="cls-9" d="M236.7558,76.1078c-17.1612,9.0761-34.3224,18.1521-51.4837,27.2282,3.5506,2.0932,7.1012,4.1864,10.6519,6.2797,13.5251-7.153,27.0502-14.306,40.5753-21.4591.0855-4.0163.171-8.0325.2564-12.0488Z"/>
          <path class="cls-9" d="M288.5032,101.9284c-17.4178-8.6068-34.8356-17.2137-52.2534-25.8205.2099,4.0163.4197,8.0325.6296,12.0488,13.7273,6.7832,27.4546,13.5665,41.1819,20.3497,3.4806-2.1926,6.9612-4.3853,10.4418-6.5779Z"/>
          <path class="cls-9" d="M288.5032,154.9337c-.1315-17.5192-.2629-35.0385-.3944-52.5577-3.5887,1.8817-7.1775,3.7633-10.7662,5.6449.1036,13.8073.2072,27.6145.3108,41.4218,3.6166,1.8303,7.2332,3.6607,10.8498,5.491Z"/>
          <path class="cls-9" d="M237.1279,183.0269c17.2371-9.1155,34.4741-18.2311,51.7112-27.3466-3.5588-2.089-7.1175-4.178-10.6763-6.2669-13.5849,7.1841-27.1698,14.3683-40.7546,21.5524-.0934,4.0204-.1868,8.0408-.2802,12.0611Z"/>
          <path class="cls-9" d="M185.8355,155.8505c17.2097,9.0302,34.4193,18.0605,51.629,27.0907-.1089-4.0211-.2178-8.0421-.3267-12.0631-13.5633-7.1169-27.1266-14.2338-40.6898-21.3508-3.5375,2.1077-7.0749,4.2154-10.6124,6.3232Z"/>
          <polygon class="cls-9" points="288.0273 154.9229 237.2146 181.3687 186.0075 155.6441 185.6131 103.4736 236.4258 77.0277 287.6329 102.7524 288.0273 154.9229"/>
          <polygon class="cls-9" points="277.1775 149.4724 237.131 170.3149 196.7737 150.0407 196.4629 108.9241 236.5094 88.0816 276.8667 108.3557 277.1775 149.4724"/>
          <polygon class="cls-9" points="73.5785 157.2068 127.3764 157.7219 124.1805 190.6885 68.1188 184.4214 73.5785 157.2068"/>
          <polygon class="cls-9" points="394.1278 157.2068 340.3299 157.7219 343.5258 190.6885 399.5875 184.4214 394.1278 157.2068"/>
          <path class="cls-9" d="M307.757,73.6862c.7733-11.6901-6.4995-22.1044-16.9608-25.1928-8.1379-2.4025-17.237-.086-23.8017,5.8378V21.6223c3.5802,1.8437,9.0651,4.3609,16.0924,6.3645,8.2277,2.3458,12.1567,2.159,18.4512,3.8517,5.4637,1.4693,13.0248,4.4393,21.4121,11.1247-5.0644,10.241-10.1288,20.482-15.1932,30.723Z"/>
          <path class="cls-9" d="M165.3369,73.6862c-.7733-11.6901,6.4995-22.1044,16.9608-25.1928,8.1379-2.4025,17.2369-.086,23.8017,5.8378-.2478-11.2727-.4957-22.5453-.7435-33.8179-2.3063,1.447-6.0261,3.5642-10.9182,5.38-10.8483,4.0265-14.1873,1.6438-22.8819,5.9451-4.3986,2.176-5.1954,3.6028-12.4729,7.19-3.5235,1.7368-6.5258,2.9742-8.5569,3.7631,4.937,10.2982,9.8739,20.5965,14.8109,30.8947Z"/>
          <path class="cls-9" d="M206.0995,45.918c1.1232-1.3965,13.0023-15.6517,32.5707-14.7663,16.3304.7389,26.0897,11.4827,27.73,13.3497-.2848-7.9746-.5696-15.9491-.8545-23.9237-5.3605-2.5358-14.3458-5.9632-25.9656-6.6605-15.1349-.9083-26.864,3.2876-32.715,5.8449-.2552,8.7186-.5104,17.4372-.7657,26.1558Z"/>
          <path class="cls-9" d="M62.5703,200.3896c-.1061-2.0361,27.4614-5.1469,38.0847-6.1812,10.6895-1.0408,14.8347-1.0126,53.9485-2.1229,26.8834-.7632,30.4553-.9335,49.2772-1.3895,13.9065-.3369,20.7433-.5997,31.1534-.6709,12.0348-.0823,21.6526.0591,29.0296.1717,16.4801.2516,14.8964.4921,32.0479.7727,1.3587.0222,11.8844.2151,32.9357.6009,2.4428.0448,7.5535.1452,14.2929.6009,0,0,5.4412.4185,11.0692.9693,26.8416,2.6271,58.021,7.702,57.8475,9.3094-.146,1.3528-24.0538-.2769-46.0745-1.2877-41.1968-1.8911-58.1074-.8045-135.2938.2575-87.5341,1.2044-168.1439,2.3136-168.3182-1.0302Z"/>
          <path class="cls-9" d="M179.3559,218.6936c18.9827,5.4026,37.9653,10.8052,56.948,16.2079,18.2877-5.4944,36.5755-10.9889,54.8632-16.4833-18.2582,3.3196-36.5163,6.6391-54.7744,9.9587-19.0123-3.2277-38.0245-6.4555-57.0368-9.6832Z"/>
          <path class="cls-9" d="M136.0764,264.2622c-3.6398-11.2464-7.2796-22.4928-10.9194-33.7392,1.6867,12.1908,3.3735,24.3815,5.0602,36.5723l38.6173,16.7408,14.6479,15.4531c9.7356-7.2005,18.391-12.552,24.9459-16.3116,18.3136-10.5038,23.9913-10.7385,26.1888-10.7313,9.3007.0307,16.4304,4.5952,25.4786,10.3879,14.9395,9.5644,24.8571,16.3974,24.8571,16.3974,4.6163-4.9793,9.2327-9.9587,13.849-14.938l36.2204-16.2257s6.1928-36.514,5.0602-36.5723c-1.0619-.0546-9.3214,31.6788-9.3214,31.6788-12.0734,4.5071-24.1469,9.0143-36.2204,13.5214-3.8287,4.0207-7.6574,8.0413-11.4861,12.062-3.9822-3.0801-8.7353-6.5411-14.2361-10.1471-7.9113-5.1862-11.9919-7.8253-18.1113-10.0816-4.9675-1.8316-10.2771-3.7894-17.244-3.3372-4.9549.3216-8.4966,1.8026-15.5801,4.7647-6.6526,2.7819-11.3578,5.5326-17.0449,8.8855-4.0285,2.3751-9.3349,5.6671-15.4025,9.9157-3.8173-3.5771-7.6347-7.1542-11.452-10.7313-12.6357-4.5215-25.2714-9.0429-37.9071-13.5644Z"/>
          <g>
            <path class="cls-14" d="M156.7074,300.53c4.0424-5.5646,8.0847-11.1292,12.1271-16.6939"/>
            <path class="cls-14" d="M156.7074,300.53c.5308-7.0693,5.7242-13.7793,12.0586-16.7437.0002.0002.1368.0994.1368.0994-.167,2.0039-.736,3.7159-1.4171,5.3464-2.258,4.884-5.5791,9.2084-10.7783,11.2978h0Z"/>
          </g>
          <g>
            <path class="cls-14" d="M171.3495,315.9325c4.0331-5.5478,8.0663-11.0955,12.0994-16.6433"/>
            <path class="cls-14" d="M171.3495,315.9325c.5218-7.0527,5.7072-13.7468,12.0309-16.6931.0002.0002.1368.0995.1368.0995-.165,2-.7318,3.7079-1.4106,5.3344-2.2513,4.8721-5.5667,9.1835-10.7571,11.2593h0Z"/>
          </g>
          <g>
            <path class="cls-14" d="M310.97,300.7464c-4.0424-5.5646-8.0847-11.1292-12.1271-16.6939"/>
            <path class="cls-14" d="M310.97,300.7464c-6.5588-2.69-11.3347-9.7036-12.1957-16.6441.0002-.0002.1368-.0994.1368-.0994,1.8541.7784,3.3064,1.8488,4.6465,3.0005,3.9467,3.6573,7.0326,8.1525,7.4124,13.743h0Z"/>
          </g>
          <g>
            <path class="cls-14" d="M296.5595,314.9439c-3.8506-5.2967-7.7013-10.5935-11.5519-15.8902"/>
            <path class="cls-14" d="M296.5594,314.9439c-5.033-1.8838-8.2345-6.0019-10.3466-10.6943-.6331-1.5638-1.1542-3.2089-1.2736-5.1462,0,0,.1366-.0993.1366-.0993,6.1599,2.7198,11.1242,9.1127,11.4836,15.9398h0Z"/>
          </g>
          <g>
            <path class="cls-14" d="M168.8345,283.8361c1.7163-2.0032,3.4327-4.0064,5.149-6.0095"/>
            <path class="cls-14" d="M168.8346,283.8361c-1.4776-3.7712,1.2277-6.7107,5.0849-6.0644,0,0,.1281.1098.1281.1098.361,1.1776.3463,2.0336.2284,2.8009-.5215,2.6121-2.7014,3.6841-5.4414,3.1537h0Z"/>
          </g>
          <g>
            <path class="cls-14" d="M130.2172,267.0953c1.9531-.9444,3.9061-1.8887,5.8592-2.8331"/>
            <path class="cls-14" d="M130.2172,267.0953c-.146-3.889,2.8518-5.2085,5.8226-2.909,0,0,.0734.152.0734.152-.0354,1.1726-.2861,1.9001-.5961,2.505-1.2277,2.1206-3.3819,1.8264-5.2999.252h0Z"/>
          </g>
          <g>
            <path class="cls-14" d="M183.4825,299.2892c.651-3.5771,1.302-7.1542,1.9531-10.7313"/>
            <path class="cls-14" d="M183.4824,299.2892c-3.0702-3.4903-1.9804-8.4009,1.87-10.7464,0,0,.1663.0303.1663.0303,2.777,3.5519,2.0671,8.5309-2.0363,10.7162h0Z"/>
          </g>
          <g>
            <path class="cls-14" d="M284.9528,299.0317c-.6328-3.4913-1.2656-6.9825-1.8983-10.4738"/>
            <path class="cls-14" d="M284.9529,299.0317c-4.0796-2.0985-4.7756-6.999-1.9815-10.4587,0,0,.1662-.0301.1662-.0301,3.8306,2.2591,4.8987,7.0915,1.8153,10.4888h0Z"/>
          </g>
          <g>
            <path class="cls-14" d="M298.8428,284.0525c-1.4341-2.5189-2.8682-5.0377-4.3023-7.5566"/>
            <path class="cls-14" d="M298.8428,284.0525c-4.1708-.0694-6.1767-3.9103-4.3755-7.5149,0,0,.1467-.0835.1467-.0835,1.2626.1151,2.0955.4747,2.8101.9017,2.3357,1.5352,2.8145,4.0875,1.4188,6.6967h0Z"/>
          </g>
          <g>
            <path class="cls-14" d="M335.0222,267.868c-2.1538-1.3307-4.3076-2.6614-6.4614-3.992"/>
            <path class="cls-14" d="M335.0222,267.8679c-3.4096,2.0864-6.6316-.0632-6.5058-3.9203,0,.0001.0888-.1436.0888-.1436,1.0852-.5523,1.9105-.684,2.6643-.6999,2.6119.064,3.902,2.0461,3.7527,4.7637h0Z"/>
          </g>
          <path class="cls-14" d="M206.848,18.9269c2.2529,16.8514,2.0964,33.8499,1.6175,50.7955-.3244,7.6651-.7096,15.4502-1.6175,23.0889,0,0-1.4971,0-1.4971,0-.7295-6.157-1.1173-12.3141-1.4137-18.4711-.5449-12.2713-.713-24.6738-.1754-36.9422.2993-6.157.7066-12.3141,1.5891-18.4711h1.4971Z"/>
          <path class="cls-14" d="M267.1488,18.9269c2.2528,16.8514,2.0965,33.8499,1.6174,50.7955-.3244,7.6651-.7096,15.4502-1.6174,23.0889,0,0-1.4972,0-1.4972,0-.7294-6.157-1.1172-12.3141-1.4136-18.4711-.5449-12.2713-.7131-24.6738-.1756-36.9422.2995-6.157.7066-12.3141,1.5891-18.4711,0,0,1.4972,0,1.4972,0h0Z"/>
          <g>
            <path class="cls-14" d="M149.4041,42.329c6.9809,12.0759,14.2066,26.3591,20.7191,42.7813,7.6238,19.2245,12.5292,36.9903,15.7462,52.2808"/>
            <path class="cls-14" d="M150.0521,41.9544c19.6047,27.9452,31.8966,61.5405,36.5503,95.2825-.0004.0002-1.4655.3084-1.4655.3084-7.1511-24.4298-15.5508-48.3628-25.9307-71.6003-3.3762-7.7643-6.9668-15.4384-10.4503-23.2413,0,0,1.2961-.7493,1.2961-.7493h0Z"/>
          </g>
          <g>
            <path class="cls-14" d="M323.9621,42.329c-6.9809,12.0759-14.2066,26.3591-20.7192,42.7813-7.6237,19.2245-12.5292,36.9903-15.7462,52.2808"/>
            <path class="cls-14" d="M324.6102,42.7037c-7.0215,15.4969-14.0484,30.8287-20.1956,46.6533-6.1734,15.8164-11.3372,31.891-16.1853,48.1883,0,0-1.4652-.3082-1.4652-.3082,3.3479-25.5178,11.5116-50.3957,23.1769-73.3074,3.9672-7.6131,8.3397-15.0189,13.3731-21.9753l1.2961.7493h0Z"/>
          </g>
          <g>
            <path class="cls-14" d="M150.5261,42.7915c2.0058-.9686,4.5311-2.1667,7.4682-3.5092,3.0899-1.4123,5.4659-2.4497,6.3475-2.833,5.0854-2.2113,7.628-3.317,11.0525-4.5501,1.1098-.3996,4.5168-1.6083,7.901-2.5755.5743-.1642,2.5333-.7172,4.5719-1.2878,1.4916-.4174,1.9785-.5511,2.3082-.6439,1.2477-.3514,4.5805-1.2898,8.0342-2.8331,1.8687-.835,4.3665-2.1124,7.1464-4.0457"/>
            <path class="cls-14" d="M150.5261,42.7915c8.0389-5.9704,16.9217-10.9618,26.4196-14.1931,6.9994-2.5715,14.3474-3.4446,21.4246-5.5873,2.3187-.7035,4.6151-1.5769,6.9857-2.4978-3.3876,3.7943-7.9664,6.5327-12.7225,8.378-6.9424,2.5936-13.9239,4.5381-20.8514,7.0825-6.9688,2.5589-13.9891,5.0905-21.2559,6.8176h0Z"/>
          </g>
          <g>
            <path class="cls-14" d="M322.9502,42.9632c-1.7468-1.058-4.2579-2.4986-7.3906-4.0242-1.8809-.916-3.3324-1.5353-6.1588-2.7365-5.4347-2.3098-8.1521-3.4647-11.3237-4.4549-.6456-.2016-4.3874-1.3697-7.652-2.0483-1.6923-.3518-2.6818-.5779-4.6607-1.0302-.3168-.0724-.8127-.1864-1.4648-.3541-1.4136-.3637-2.4451-.6932-2.7964-.8048-3.0192-.9593-4.6653-1.3522-6.4584-1.9638-1.9127-.6524-4.6205-1.768-7.8233-3.7667"/>
            <path class="cls-14" d="M322.9502,42.9632c-4.1792-1.5145-10.0684-3.4019-14.1895-4.7946-4.6982-1.583-9.1445-3.3412-13.9221-4.6155-2.0451-.5827-4.9978-1.3233-7.0852-1.8284-4.9575-1.2278-9.7263-3.0982-14.3289-5.3388-2.2967-1.2516-4.4002-2.7803-6.2032-4.6063,2.433.812,4.791,1.5724,7.1591,2.1016,3.4448.6747,7.3779,1.4416,10.8441,2.2057,6.2313,1.0379,12.5772,2.3466,18.3558,4.9829,6.9016,3.2085,13.8031,6.6305,19.3699,11.8934h0Z"/>
          </g>
          <g>
            <path class="cls-14" d="M206.8652,19.7621c2.2333-1.2577,5.6904-2.9632,10.1648-4.2066,2.563-.7122,5.9019-1.3958,19.8857-1.3736,13.9829.0221,17.1008.7157,19.9745,1.7599,3.9031,1.4182,6.8152,3.2868,8.6556,4.6359"/>
            <path class="cls-14" d="M206.8651,19.7621c8.315-7.6875,18.9067-8.2909,29.5408-8.238,6.3868.1539,13.1731.1053,19.4419,2.2757,3.714,1.5123,7.0654,3.827,9.698,6.7778-2.3857-1.0402-4.7184-1.9741-7.1032-2.6384-7.1708-2.0897-14.5605-.8765-22.0381-1.0981-4.3505.0185-10.7283-.1038-14.9773.0189-5.0231.1926-9.6995,1.5124-14.5622,2.902h0Z"/>
          </g>
          <g>
            <path class="cls-14" d="M91.1569,199.2023c-3.2222.1195-6.4444.2389-9.667.3586-1.6154.7935-4.1433,2.0201-7.2633,3.4675-12.6998,5.8917-17.7215,6.635-25.4376,10.8973-2.9276,1.6171-7.3344,4.3281-12.2949,8.6219,3.2174,2.8386,6.4344,5.6772,9.6519,8.5158,4.2752-1.2501,8.9373-2.4311,13.9603-3.449,5.9618-1.2081,11.5579-2.0093,16.6913-2.5281,0,0,15.8935-2.085,29.4399-2.8224,10.592-.5766,42.7042,1.7829,85.4576,8.9446"/>
            <path class="cls-14" d="M91.1569,199.2023c-2.8432,1.9778-6.1908,2.7751-9.5677,3.0268,0,0,1.0779-.2716,1.0779-.2716-7.4129,3.9317-15.4188,7.6758-23.3438,10.5876-7.6578,2.8592-14.7147,6.8701-20.9605,12.1611,0,0,.0202-4.2993.0202-4.2993l9.5198,8.6653-2.5018-.5574c11.7563-3.357,24.3765-5.1072,36.5589-6.1875,9.2262-.8671,18.3703-1.8037,27.6751-1.8502,15.3836.4111,30.6516,2.4667,45.8391,4.545,12.1,1.8326,24.2867,3.7848,36.2188,6.2004-27.2017-3.6155-54.5934-7.2309-82.0453-7.3202-9.05.3104-18.1874,1.5108-27.1997,2.6249-5.2996.6848-12.8498,1.6462-18.0179,2.689-6.3909,1.2328-12.7004,2.8543-18.8967,4.8166-.4745-.3858-10.1982-8.735-10.9278-9.3444,0,0-2.4564-2.1005-2.4564-2.1005l2.4767-2.199c3.2812-2.9132,6.8055-5.5771,10.5698-7.8975,7.3386-4.6551,15.7599-6.9788,23.6033-10.2945,4.0316-1.6839,8.0847-3.5107,12.122-5.3027,3.542-.044,7.1151.4615,10.2361,2.3081h0Z"/>
          </g>
          <g>
            <path class="cls-14" d="M378.4145,197.9233c3.2847.1716,6.5694.3433,9.8541.5151,1.5809.8523,4.067,2.1663,7.1602,3.6812,12.5316,6.1373,18.0432,6.1822,25.4376,10.8973,2.7927,1.7808,6.8484,4.8374,10.9628,10.0426-2.913,2.1094-5.8255,4.2185-8.7385,6.3279-7.8144-1.6581-18.0877-3.5924-30.2329-5.2099,0,0-15.7732-2.1005-29.4403-2.8222-10.5713-.5582-41.8258,1.5593-83.3842,8.3953"/>
            <path class="cls-14" d="M378.4146,197.9233l9.9932-2.1465,1.1259.3156c3.7051,1.9077,7.4537,3.787,11.2145,5.4223,5.7448,2.5866,11.9987,4.1802,17.8151,6.9757,6.0795,2.9741,11.2976,7.5994,15.3957,12.8856,0,0,1.7571,2.251,1.7571,2.251l-2.2947,1.6312c-.5531.3878-9.5165,6.7688-9.7592,6.9374-12.0205-2.6651-24.1467-4.9669-36.3678-6.5652-8.8447-1.1244-17.8178-2.2511-26.7007-2.6302-14.9376-.2075-29.8776,1.1067-44.7792,2.521-11.9347,1.1296-23.9321,2.6964-35.7834,4.2153,23.6537-4.4719,47.4496-8.1152,71.5035-9.8154,6.015-.4451,12.2197-.4557,18.214-.0091,18.0935,1.1493,36.109,3.3059,53.8859,6.9124,0,0-2.0802.4409-2.0802.4409,0,0,8.6829-6.4044,8.6829-6.4044l-.5375,3.8819c-3.7512-4.6466-8.3231-8.5502-13.6372-11.1938-3.6458-1.801-7.6732-2.9721-11.5586-4.4469-6.0449-2.265-11.9039-5.1985-17.4999-8.3176,0,0,1.1254.3155,1.1254.3155l-9.7147-3.1767h0Z"/>
          </g>
          <g>
            <path class="cls-14" d="M85.3371,158.432c-3.1737.4507-6.3474.9014-9.5212,1.3521-1.4648,7.4475-2.9296,14.8951-4.3944,22.3426,2.6411.8371,5.2821,1.6741,7.9232,2.5111"/>
            <path class="cls-14" d="M85.3372,158.432l-9.1464,3.9909,2.2404-2.1243-4.3944,22.3423-1.8098-3.0549,7.1179,5.0518c-1.7783.0075-9.525.0312-11.1409.0378,0,0,.6024-3.0634.6024-3.0634.1835-.9665,4.8499-24.6335,4.8577-24.6981.9466.1394,10.4605,1.3485,11.6731,1.5179h0Z"/>
          </g>
          <g>
            <path class="cls-14" d="M382.1897,158.3112c3.1737.4507,6.3475.9014,9.5212,1.3521,1.4648,7.4475,2.9296,14.8951,4.3944,22.3426-2.6411.8371-5.2822,1.6741-7.9232,2.5111"/>
            <path class="cls-14" d="M382.1897,158.3112c1.2649-.1791,10.6812-1.3782,11.6731-1.5178-.1916-.9947,4.8061,24.4513,4.8577,24.6979,0,0,.6025,3.0634.6025,3.0634-1.5693-.0085-9.4068-.0296-11.1409-.0378,0,0,7.1178-5.0518,7.1178-5.0518l-1.8098,3.0549-4.3944-22.3423,2.2404,2.1243-9.1464-3.9909h0Z"/>
          </g>
          <g>
            <path class="cls-14" d="M99.5856,242.2649c1.7391,6.0337,3.3528,13.1214,4.3944,21.1192,1.0965,8.4187,1.3218,16.0245,1.1319,22.5357"/>
            <path class="cls-14" d="M99.7936,242.2049c7.4513,12.3733,9.2558,29.8915,5.3187,43.7148-2.4612-10.8214-3.7245-21.533-5.0495-32.487-.3733-3.6261-.7135-7.2761-.6852-11.108l.416-.1199h0Z"/>
          </g>
          <g>
            <path class="cls-14" d="M122.1124,293.9682l-2.3304,4.1852c-4.9936,9.1216-9.9872,18.2432-14.9809,27.3648,6.766,7.6713,12.2411,13.9923,15.9574,18.3076,16.4387,19.0884,21.9496,26.2059,30.0061,35.1986,2.8606,3.193,5.342,6.1041,10.3047,11.9261,5.2531,6.1627,2.5888,3.2727,3.7286,4.5501,1.401,1.5702,2.5319,2.6926,3.5038,4.652.4953.9985.7791,1.8713.9405,2.4467"/>
            <path class="cls-14" d="M122.229,294.0332c1.057,2.3041.4401,3.6712-.2627,4.9935-.6493,1.3529-1.2596,2.7289-1.9338,4.0688-3.7871,7.7785-8.6647,16.0988-12.8947,23.7019,0,0-.3389-3.041-.3389-3.041,9.7907,11.2758,23.4133,26.9827,32.7332,38.3509,8.7193,10.8818,18.151,21.1001,26.595,32.1921-.3361-.4269-.1606-.2034-.0977-.1309.4796.5644,1.0993,1.2902,1.5441,1.816,1.5363,1.7845,2.9505,4.1348,1.6686,6.615-2.1931-1.2712-2.8466-2.6539-4.321-4.335-.5669-.6234-1.3926-1.4454-1.9157-2.0778-.0366.7799-.7916-2.4349.505-2.605,1.4241-.5024,2.0099-.0216.9697-.2718-.4178-1.1857-2.6263,3.0318-1.6836,2.413.0162.0494.0356.0983.0579.1461.1461.2709.0724.1312.0862.1637,0,0-.0214-.0253-.0214-.0253l-.0968-.119c-5.6677-6.5189-13.1528-14.5893-18.8345-21.0493-12.8283-14.8612-28.0361-32.7608-41.1846-47.5587.0002,0-1.22-1.3921-1.22-1.3921,0,0,.8813-1.6493.8813-1.6493,4.1862-7.6379,8.4537-16.2781,13.0269-23.6478.7677-1.2898,1.5921-2.5473,2.3902-3.8209.7561-1.2979,1.5981-2.5509,4.114-2.867,0,0,.2333.1299.2333.1299h0Z"/>
          </g>
          <g>
            <path class="cls-14" d="M124.05,301.1511c9.0654,7.4448,22.5179,20.3587,33.3796,39.8346,12.3475,22.14,15.6812,42.6009,16.6898,54.6008"/>
            <path class="cls-14" d="M124.0619,301.1366c31.1552,20.0868,50.7809,57.4366,50.0577,94.4498-6.8868-37.0512-24.0586-67.5265-50.0577-94.4498h0Z"/>
          </g>
          <path class="cls-9" d="M235.0166,312.3385c.1776,20.4324.3551,40.8648.5327,61.2972-2.7973-1.1855-5.5946-2.371-8.3919-3.5565-.1004-18.2708-.2007-36.5416-.3011-54.8124,2.7201-.9761,5.4402-1.9522,8.1604-2.9283Z"/>
          <path class="cls-9" d="M235.0166,312.3385c.1776,20.4324.3551,40.8648.5327,61.2972,2.4857-.8993,4.9714-1.7987,7.4572-2.698.224-18.4253.448-36.8507.6719-55.276-2.8872-1.1077-5.7745-2.2155-8.6617-3.3232Z"/>
          <path class="cls-9" d="M210.0401,321.4225c.699,20.4761,1.398,40.9522,2.097,61.4282-2.0056-.5534-4.0113-1.1069-6.0169-1.6603-.6157-19.2774-1.2314-38.5549-1.847-57.8323,1.9223-.6452,3.8446-1.2904,5.7669-1.9356Z"/>
          <path class="cls-9" d="M210.0401,321.4225c.699,20.4761,1.398,40.9522,2.097,61.4282,1.4557-2.1968,2.9114-4.3936,4.3672-6.5904-.3659-18.9617-.7318-37.9233-1.0977-56.885-1.7888.6824-3.5777,1.3648-5.3665,2.0472Z"/>
          <path class="cls-9" d="M185.6131,330.0666c3.0733,19.8651,6.1466,39.7301,9.2198,59.5952,1.3655-1.7077,2.731-3.4154,4.0965-5.1232-2.9388-18.6956-5.8776-37.3912-8.8164-56.0868-1.5.5383-2.9999,1.0765-4.4999,1.6148Z"/>
          <path class="cls-9" d="M281.2242,330.0666c-3.0184,19.9173-6.0367,39.8346-9.0551,59.7519-.8878-1.7599-1.7755-3.5199-2.6633-5.2798,2.9293-18.5321,5.8587-37.0642,8.788-55.5963.9768.3747,1.9535.7495,2.9303,1.1243Z"/>
          <path class="cls-9" d="M259.1145,321.5839c-.6796,20.5215-1.3592,41.043-2.0388,61.5646,1.7465-.6527,3.4929-1.3053,5.2394-1.958.6102-19.2254,1.2203-38.4509,1.8305-57.6763-1.6771-.6434-3.3541-1.2868-5.0311-1.9303Z"/>
          <path class="cls-9" d="M259.1145,321.5839c-.6796,20.5215-1.3592,41.043-2.0388,61.5646-1.1387-2.0099-2.2775-4.0197-3.4162-6.0296.3814-19.063.7627-38.1259,1.1441-57.1889,1.437.5513,2.8739,1.1026,4.3109,1.6539Z"/>
          <path class="cls-9" d="M194.8329,389.6618c5.7681-2.2703,11.5361-4.5407,17.3042-6.811-2.0056-.5534-4.0113-1.1069-6.0169-1.6603-2.3969,1.1161-4.7939,2.2321-7.1908,3.3482-1.3655,1.7077-2.731,3.4154-4.0965,5.1232Z"/>
          <path class="cls-9" d="M212.1371,382.8508c7.804-3.0717,15.6081-6.1434,23.4122-9.2151-2.7973-1.1855-5.5946-2.371-8.3919-3.5565-3.5455,1.9206-7.0911,3.8412-10.6366,5.7618-1.4612,2.3366-2.9224,4.6732-4.3836,7.0098Z"/>
          <path class="cls-9" d="M257.0757,383.1484c-7.1755-3.1709-14.3509-6.3419-21.5264-9.5128,2.4857-.8993,4.9714-1.7987,7.4572-2.698,3.551,2.0604,7.1021,4.1208,10.6531,6.1812,1.1387,2.0099,2.2775,4.0197,3.4162,6.0296Z"/>
          <path class="cls-9" d="M272.1692,389.8184c-5.0312-2.2233-10.0623-4.4467-15.0935-6.67,1.7465-.6527,3.4929-1.3053,5.2394-1.958,2.3969,1.1161,4.7939,2.2321,7.1908,3.3482.8878,1.7599,1.7755,3.5199,2.6633,5.2798Z"/>
          <g>
            <path class="cls-14" d="M191.5355,377.126c14.7127-6.2474,29.4254-12.4948,44.138-18.7422,13.2553,6.4012,26.5106,12.8024,39.7658,19.2037"/>
            <polygon class="cls-14" points="191.5355 377.126 234.6317 355.9306 235.7526 355.3793 236.8326 355.9837 275.4393 377.5874 234.5146 360.7839 236.7152 360.8371 191.5355 377.126 191.5355 377.126"/>
          </g>
          <ellipse class="cls-9" cx="109.1567" cy="174.494" rx="13.708" ry="13.2563"/>
          <ellipse class="cls-9" cx="109.2662" cy="173.0829" rx="13.708" ry="13.2563"/>
          <ellipse class="cls-9" cx="109.2662" cy="173.0829" rx="9.7684" ry="9.4466"/>
          <line class="cls-9" x1="109.7091" y1="163.6509" x2="109.2662" y2="182.5295"/>
          <path class="cls-9" d="M100.311,176.8586c3.1327-1.2586,6.2654-2.5172,9.3981-3.7757"/>
          <path class="cls-9" d="M119.0346,176.8586c-3.1327-1.2586-6.2654-2.5172-9.3981-3.7757"/>
          <ellipse class="cls-9" cx="358.6985" cy="173.7884" rx="13.708" ry="13.2563"/>
          <ellipse class="cls-9" cx="358.589" cy="172.3774" rx="13.708" ry="13.2563"/>
          <ellipse class="cls-9" cx="358.589" cy="172.3774" rx="9.7684" ry="9.4466"/>
          <path class="cls-9" d="M210.9675,131.4294c8.2376,7.1327,16.4752,14.2655,24.7129,21.3982,10.8713-14.43,21.7426-28.86,32.6139-43.29"/>
          <path class="cls-9" d="M213.2646,128.5749c7.3388,6.4889,14.6775,12.9777,22.0163,19.4666,10.2388-13.2997,20.4775-26.5993,30.7163-39.899"/>
          <g>
            <path class="cls-14" d="M188.1828,154.3542c2.2721-1.0955,4.5442-2.191,6.8163-3.2865"/>
            <path class="cls-14" d="M188.1827,154.3542c.0683-3.9921,3.6042-5.5474,6.7797-3.3624,0-.0001.0733.152.0733.152-.1162,1.2109-.4473,1.9765-.8373,2.6194-1.4534,2.1658-3.8129,2.1793-6.0157.591h0Z"/>
          </g>
          <g>
            <path class="cls-14" d="M187.8277,104.7112c2.3017,1.0722,4.6034,2.1445,6.9051,3.2167"/>
            <path class="cls-14" d="M187.8276,104.7112c3.148-2.4693,6.6075-.708,6.9407,3.1403,0-.0001-.0714.153-.0714.153-1.0146.6749-1.8206.9016-2.569,1.0049-2.6053.2397-4.1263-1.5772-4.3004-4.2982h0Z"/>
          </g>
          <g>
            <path class="cls-14" d="M237.1868,172.2111c.0083,2.267.0166,4.534.025,6.801"/>
            <path class="cls-14" d="M237.1869,172.2111c3.5764,1.6287,3.4653,5.0336.1093,6.8007,0,0-.1688.0006-.1688.0006-1.0424-.5629-1.5902-1.1277-2.002-1.6929-1.3664-2.0845-.2268-3.9902,2.0615-5.1084h0Z"/>
          </g>
          <g>
            <path class="cls-14" d="M278.8891,150.448c2.346,1.108,4.6921,2.216,7.0381,3.324"/>
            <path class="cls-14" d="M278.889,150.448c3.2093-2.4348,6.7154-.6252,7.0742,3.2477,0-.0001-.0721.1526-.0721.1526-1.0308.6636-1.8503.8802-2.6118.9737-2.6348.204-4.2014-1.6178-4.3903-4.374h0Z"/>
          </g>
          <g>
            <path class="cls-14" d="M278.5895,107.3404c2.3304-1.116,4.6607-2.2321,6.9911-3.3482"/>
            <path class="cls-14" d="M278.5895,107.3404c.1277-4.0209,3.7331-5.594,6.9547-3.4242,0-.0001.0729.1522.0729.1522-.1333,1.2173-.4801,1.9886-.8857,2.6371-1.4978,2.1709-3.8933,2.2282-6.1418.6349h0Z"/>
          </g>
          <g>
            <path class="cls-14" d="M236.4933,86.2373c-.0139-2.2858-.0277-4.5715-.0416-6.8573"/>
            <path class="cls-14" d="M236.4933,86.2373c-3.5817-1.6357-3.4776-5.0659-.126-6.8568,0,0,.1689-.001.1689-.001,1.0437.5651,1.593,1.1332,2.0061,1.7022,1.3685,2.0929.244,4.0185-2.049,5.1556h0Z"/>
          </g>
          <path class="cls-9" d="M204.9613,249.412l-50.0694-19.9173s12.5131,31.6523,33.0245,29.8759c7.0186-.6078,17.0449-9.9587,17.0449-9.9587Z"/>
          <path class="cls-9" d="M263.1798,250.7984l50.0694-19.9173s-12.5131,31.6523-33.0245,29.8759c-7.0186-.6078-17.0449-9.9587-17.0449-9.9587Z"/>
          <ellipse class="cls-5" cx="180.4579" cy="247.0106" rx="36.0507" ry="34.8629"/>
          <ellipse class="cls-5" cx="289.1164" cy="247.9776" rx="36.0507" ry="34.8629"/>
          <g>
            <polyline class="cls-14" points="185.6131 330.0666 235.0166 312.3385 281.2242 330.0666"/>
            <path class="cls-14" d="M185.5975,330.0232l48.5188-20.1934.9369-.39.9182.4102,45.2528,20.2165-47.1622-15.2396,1.8547.0202c-.0314-.0849-50.4044,15.4799-50.3192,15.1761h0Z"/>
          </g>
          <path class="cls-9" d="M186.5983,336.4351c1.4727-.7451,2.9455-1.4902,4.4182-2.2353-.3012-1.916-.6024-3.8319-.9035-5.7479-1.5.5383-2.9999,1.0765-4.4999,1.6148.3284,2.1228.6568,4.2457.9852,6.3685Z"/>
          <path class="cls-9" d="M280.2845,336.2678c-.9819-.5259-1.9638-1.0517-2.9457-1.5776.3012-1.916.6023-3.8319.9035-5.7479.994.3747,1.988.7495,2.9819,1.1243-.3133,2.0671-.6265,4.1342-.9398,6.2012Z"/>
          <path class="cls-9" d="M204.523,328.7431c1.8347-.0143,3.6694-.0286,5.5041-.0429l5.4853-3.1271c.0062-1.9195.0125-3.8389.0187-5.7584-1.8791.7011-3.7582,1.4022-5.6372,2.1033-1.8347.6296-3.6694,1.2591-5.5041,1.8887.0444,1.6455.0888,3.2909.1332,4.9364Z"/>
          <path class="cls-9" d="M263.9734,328.9378c-1.6419-.0128-3.2837-.0256-4.9256-.0384-1.4551-.9583-2.9102-1.9167-4.3653-2.875.0371-1.8244.0741-3.6488.1111-5.4733,1.4535.5113,2.916,1.0333,4.3873,1.5661,1.6847.61,3.3511,1.2235,4.9991,1.8398-.0689,1.6603-.1378,3.3205-.2067,4.9808Z"/>
          <path class="cls-9" d="M226.8707,321.903c2.7578.4936,5.5156.9872,8.2734,1.4808,2.8179-.515,5.6358-1.0301,8.4537-1.5451.0249-1.761.0498-3.5219.0746-5.2829-2.893-1.0427-5.7859-2.0855-8.6788-3.1282-2.7114.9136-5.4228,1.8272-8.1342,2.7407.0038,1.9116.0075,3.8231.0112,5.7347Z"/>
          <g>
            <path class="cls-14" d="M144.976,163.9382c-1.4706-7.8989-4.3206-18.228-10.1204-29.3608-9.6809-18.5826-22.855-30.3337-31.2015-36.6532"/>
            <path class="cls-14" d="M144.976,163.9382c-9.2315-26.3697-21.6576-46.1714-41.3732-65.9464.0003-.0002.1024-.1349.1024-.1349,23.4816,13.0978,40.4537,38.9954,41.2709,66.0813h0Z"/>
          </g>
          <g>
            <path class="cls-14" d="M149.3942,43.65c-.601.5205-1.5217,1.3489-2.5705,2.4322-3.3156,3.4247-4.9661,6.2607-7.1171,9.6888-1.1088,1.7671-2.6922,3.8966-5.8592,8.1558-3.5261,4.7422-6.4086,7.8386-11.6242,13.4049-10.6441,11.3601-14.0794,13.6217-18.5691,20.5926-2.4568,3.8146-3.7925,6.8083-4.4568,8.418-1.5413,3.7347-1.8988,5.9071-3.0461,9.9479-1.1754,4.1397-2.3446,7.1614-4.6829,13.2049-1.75,4.5228-3.6299,8.7947-7.3184,17.154-1.7763,4.0257-3.2665,7.3471-4.2945,9.626"/>
            <path class="cls-14" d="M149.3942,43.65c-3.9146,4.1555-6.5246,8.832-9.198,13.8986-1.4934,2.4612-3.0549,4.7763-4.6032,7.1179-4.7236,7.0641-10.5904,13.3256-16.3428,19.5146-3.8293,4.1357-8.0135,7.9345-11.1955,12.0654-3.1781,4.2261-5.9156,8.9602-7.6432,13.9013-1.5636,5.1156-3.2317,10.9876-5.4904,15.9647-2.1257,5.1207-4.761,10.2977-7.187,15.2663-2.4776,5.0514-5.1042,10.0062-7.8787,14.896,2.7398-7.9658,5.5902-15.8321,8.506-23.708.7526-1.9606,2.1553-5.8922,2.8099-7.8833,3.047-7.9403,3.7416-16.6632,7.972-24.2139,2.6449-5.1301,6.3907-9.9643,10.4725-13.9558,2.9583-2.9355,8.8777-8.901,11.7977-11.8738,5.9218-5.8278,11.3971-12.1109,16.4915-18.6338,3.1622-4.5071,6.7974-9.2228,11.4892-12.3563h0Z"/>
          </g>
          <g>
            <path class="cls-14" d="M321.1022,162.5658c1.4706-7.8989,4.3206-18.228,10.1204-29.3608,9.6809-18.5826,22.855-30.3337,31.2015-36.6532"/>
            <path class="cls-14" d="M321.1022,162.5658c.8175-27.0863,17.7887-52.9829,41.2707-66.0815.0003.0002.1022.1348.1022.1348-19.7189,19.7778-32.145,39.5866-41.3729,65.9467h0Z"/>
          </g>
          <g>
            <path class="cls-14" d="M323.8823,43.7197c.5264.5825,1.3004,1.4686,2.175,2.5916,2.8159,3.6155,4.2342,6.552,5.6816,9.2719.6738,1.2661,2.2839,3.9347,5.5041,9.2718,1.4163,2.3473,5.2246,8.6249,9.9428,14.7663,7.9911,10.4012,12.061,11.9102,17.7607,20.9207,2.2886,3.618,4.5275,7.7425,4.5275,7.7426.7211,1.3284,2.6753,4.9442,4.522,9.1109,1.1017,2.4859,1.756,4.2447,4.9714,13.9078,2.5993,7.8114,3.6629,11.1436,5.8703,17.7227,1.0336,3.0806,1.8868,5.5883,2.4302,7.1792"/>
            <path class="cls-14" d="M323.8823,43.7197c5.0671,4.2775,8.315,10.4949,12.0681,15.8597,7.205,11.0385,14.725,21.4315,24.2503,30.5928,2.9145,3.0479,5.6461,6.5825,7.7076,10.2874.7976,1.3859,2.8176,4.9778,3.6237,6.4061,4.2499,7.564,7.0363,16.1646,9.2603,24.5151,2.3106,8.2337,4.5055,16.4936,6.4757,24.8242-1.7606-3.907-3.4469-7.8447-5.0275-11.8146-4.7116-11.3392-8.9759-24.9869-14.8246-34.6873-1.5215-2.4454-3.6454-6.1533-5.186-8.5142-3.5166-5.5418-8.4133-9.6336-12.7235-14.673-2.2255-2.5701-4.2608-5.2884-6.181-8.0509-4.7917-6.8605-8.6369-14.3544-12.4171-21.7587-1.9795-4.5709-4.0896-8.943-7.0261-12.9869h0Z"/>
          </g>
        </g>
        <polygon class="cls-10" points="357.657 240.8769 352.1071 284.6235 337.0896 287.2352 342.966 241.2034 357.657 240.8769"/>
        <path d="M351.7806,210.5155c-11.1631,55.6507-12.8909,73.4673-11.1592,75.8377.1918.2626,1.3117,4.1213,1.3117,4.1213,0,0-1.5071,2.4189-2.3542,2.9637-3.768-3.9176-7.5359-7.8352-11.3039-11.7528,4.6794-23.8321,9.3587-47.6642,14.0381-71.4963l9.4676.3265Z"/>
        <path class="cls-10" d="M331.6208,285.6477l7.9581,7.7905,15.1807,28.1578-62.4368,74.4345-17.1395-16.6498c.802-19.9425,4.5037-35.7644,7.9491-46.8612,2.677-8.6222,4.5101-14.3842,8.6289-20.6902,11.333-17.3514,30.1159-23.7329,39.8596-26.1816Z"/>
        <path d="M336.6098,290.5315c-4.8682,2.0006-11.622,5.3593-18.5777,10.9867-11.0737,8.959-16.6603,18.8152-20.1899,25.1846-5.5469,10.0096-7.9046,18.2743-12.62,34.8038-2.5992,9.1112-4.3937,16.7945-5.565,22.2201-1.4913-1.4487-2.9826-2.8973-4.4738-4.346.4716-7.0298,1.4878-17.1486,3.9176-29.1372,3.2939-16.2521,5.4647-26.9626,11.6682-36.826,3.378-5.371,14.1202-20.2982,40.8518-27.7698,1.663,1.6279,3.326,3.2559,4.9889,4.8839Z"/>
        <path class="cls-11" d="M356.4041,242.2005c-.499,6.106-1.8102,14.6007-2.5793,20.7259-.815,6.1398-1.7152,14.658-2.6321,20.7398-2.0564-10.4255-1.3542-21.3163,1.2914-31.5688.9053-3.4198,2.0663-6.7782,3.6585-9.9697,0,0,.2615.0728.2615.0728h0Z"/>
        <path class="cls-11" d="M333.7887,298.1547c-24.8672,24.0649-41.2469,55.4426-46.0386,89.7704.5826-34.6862,17.9785-69.2875,46.0386-89.7704h0Z"/>
        <polygon class="cls-10" points="108.7531 241.806 114.303 285.5526 129.3205 288.1644 123.4441 242.1325 108.7531 241.806"/>
        <path d="M114.6295,211.4446c11.1631,55.6507,12.8909,73.4673,11.1592,75.8377-.1918.2626-1.3117,4.1213-1.3117,4.1213,0,0,1.5071,2.4189,2.3542,2.9637,3.768-3.9176,7.5359-7.8352,11.3039-11.7528-4.6794-23.8321-9.3587-47.6642-14.0381-71.4963l-9.4676.3265Z"/>
        <path d="M130.1367,212.0821s-4.4647,44.6207,11.7528,54.8465c10.027,6.3224,20.5584,1.9683,33.6261,12.4057,9.1028,7.2705,7.5772,12.2464,13.7116,14.3646,14.7843,5.1049,26.2648-22.8923,47.3377-22.1998,18.2067.5984,22.949,21.935,40.4819,19.9145,7.4124-.8542,7.2043-4.7415,26.1174-15.344,17.7501-9.9505,26.7703-13.7116,26.7703-13.7116l4.897-53.8671c-9.073,1.7477-22.9636,4.5501-39.829,8.4881-45.6737,10.6648-42.596,13.1807-55.4994,13.7116-28.2103,1.1608-34.86-11.1962-79.3315-16.6498-12.7507-1.5636-23.2767-1.9056-30.035-1.9588Z"/>
        <path class="cls-10" d="M124.9953,213.1217l9.794,73.4551c27.0024,8.0038,37.6615,22.3577,41.6246,28.8923,5.4052,8.9124,7.6297,20.0872,12.0789,42.4368,2.5571,12.8451,4.1493,23.6565,5.1418,31.3408,13.7645-5.4431,27.5289-10.8863,41.2934-16.3294,12.507,5.6095,25.014,11.219,37.5211,16.8285.6194-5.9409,1.6601-14.409,3.4553-24.4945,4.0647-22.8358,6.3445-35.807,12.9771-47.501,3.903-6.8815,14.6436-22.7859,41.3516-33.2843,3.7513-23.3566,7.5027-46.7131,11.254-70.0697-3.1161-.4249-6.2322-.8498-9.3482-1.2748-3.156,16.5533-6.312,33.1066-9.468,49.6599-6.3521,3.4019-11.6537,5.3368-15.4256,6.4885-3.102.9472-8.4938,2.3797-15.2055,5.7762-1.3045.6601-1.9567.9902-2.4485,1.3059-6.8009,4.3655-7.4644,11.4808-10.9309,11.5333-.3711.0056-.6928-.0622-2.2036-.9182-5.2915-2.9978-8.1017-5.7631-11.3257-8.148-.6337-.4688-3.4089-2.0408-8.937-5.2235-5.1159-2.9453-7.7054-4.4301-9.254-5.0257-1.7776-.6837-6.2029-2.2102-12.0914-2.2831-1.3432-.0166-6.1463.0006-12.0304,1.9381-2.7649.9104-5.4874,2.4096-10.8197,5.3706-4.3343,2.4069-7.4981,4.1638-11.8218,6.9175-7.6341,4.862-8.0214,5.8924-10.2147,5.8963-4.6014.0083-5.4161-4.5406-12.6754-9.5678-2.5663-1.7772-3.8265-2.1519-18.5017-7.4046-5.6919-2.0373-10.7697-3.8662-15.0995-5.4315-3.6182-17.2878-7.2364-34.5757-10.8546-51.8635,0,0-3.5714-1.122-7.8352.9794Z"/>
        <path class="cls-12" d="M234.647,309.7112c-15.1399,5.618-30.2798,11.2359-45.4197,16.8539,2.8255,18.8855,5.6509,37.7709,8.4764,56.6564,12.4777-5.0786,24.9554-10.1572,37.4331-15.2358,11.2223,5.1283,22.4446,10.2565,33.6669,15.3848,2.775-18.9351,5.5499-37.8702,8.3249-56.8053-14.1605-5.618-28.321-11.2359-42.4815-16.8539Z"/>
        <path d="M242.6103,312.8705c3.4094,1.3526,6.8187,2.7052,10.2281,4.0578-.3506,18.1229-.7012,36.2458-1.0518,54.3687l-9.794-5.8764c.2059-17.5167.4118-35.0334.6177-52.5501Z"/>
        <path d="M227.1447,312.4951c-3.5088,1.302-7.0176,2.604-10.5264,3.906.3364,18.0266.6728,36.0532,1.0091,54.0798l9.794-5.8764c-.0923-17.3698-.1845-34.7396-.2768-52.1094Z"/>
        <path d="M193.3643,325.0299c4.3407-1.6107,8.6815-3.2214,13.0222-4.8321.5648,18.3233,1.1295,36.6467,1.6943,54.97l-6.611,3.1831c-2.7018-17.7737-5.4037-35.5473-8.1055-53.321Z"/>
        <path d="M274.4345,325.4963c-4.3358-1.7202-8.6716-3.4403-13.0074-5.1605-.561,18.2774-1.1219,36.5547-1.6829,54.8321l6.611,3.1831c2.6931-17.6182,5.3862-35.2364,8.0794-52.8547Z"/>
        <path class="cls-10" d="M134.7893,286.5768l-7.9581,7.7905-15.1807,28.1578,62.4368,74.4345,17.1395-16.6498c-.802-19.9425-4.5037-35.7644-7.9491-46.8612-2.677-8.6222-4.5101-14.3842-8.6289-20.6902-11.333-17.3514-30.1159-23.7329-39.8596-26.1816Z"/>
        <path d="M129.8004,291.4607c4.8682,2.0006,11.622,5.3593,18.5777,10.9867,11.0737,8.959,16.6603,18.8152,20.1899,25.1846,5.5469,10.0096,7.9046,18.2743,12.62,34.8038,2.5992,9.1112,4.3937,16.7945,5.565,22.2201,1.4913-1.4487,2.9826-2.8973,4.4738-4.346-.4716-7.0298-1.4878-17.1486-3.9176-29.1372-3.2939-16.2521-5.4647-26.9626-11.6682-36.826-3.378-5.371-14.1202-20.2982-40.8518-27.7698-1.663,1.6279-3.326,3.2559-4.9889,4.8839Z"/>
        <path class="cls-10" d="M34.1962,209.9755l15.344,12.4058c16.368-3.7377,52.7305-10.9244,90.0457-8.0349,18.0938,1.4011,33.3996,4.9335,33.3997,4.9335,5.4937.9156,9.4127,2.3337,10.0829,2.4886,5.8691,1.3566,20.9249,5.9456,28.4026,8.2025,5.5735,1.6821,13.8851,4.1657,24.2402,7.1619,8.8604-2.7394,15.8884-4.946,20.2001-6.3049,20.4059-6.4313,25.8492-8.3343,35.833-10.4394,6.4941-1.3693,12.6923-2.3478,14.5074-2.6322,3.1845-.4989,9.8622-1.4937,17.5207-2.2308,19.3955-1.8667,35.4259-1.1511,39.713-.9318,13.4866.6898,23.658,2.2424,29.7085,3.1831,9.8661,1.5338,18.3806,3.3364,25.2196,4.9786,5.1261-4.1511,10.2522-8.3022,15.3783-12.4533-6.2528-2.5573-15.4275-6.4115-26.4438-11.4264-17.8314-8.1172-20.0546-9.9736-21.4021-11.2346-8.1548-7.6314-6.8539-14.6194-13.5299-39.3678-4.8029-17.8045-7.8112-28.9638-15.344-41.4613-4.3095-7.1499-6.2625-8.2252-11.3837-13.8081-2.6552-2.8945-5.2599-5.9339-10.1631-12.3092-9.3511-12.1588-10.4032-20.5405-20.2396-28.5489-5.1395-4.1843-10.8639-6.8758-14.1197-8.4065-3.6987-1.739-7.6568-3.6-13.1934-4.9283-5.6578-1.3574-21.4511-4.1995-24.4728-7.1607-.0089-.0087-.0198-.0195-.0395-.0388-.8466-.8304-2.3186-2.172-4.3678-3.5427,0,0-1.3838-.9256-2.7616-1.6456-2.4309-1.2704-7.1078-2.8825-22.6807-2.8825-.0001,0-11.4285-.0113-16.959,2.3075-2.823,1.1836-4.5902,2.4267-5.8764,3.2647-9.0736,5.9118-17.801,7.0348-26.1174,9.4676,0,0-14.182,4.1486-27.7497,13.7116-11.5184,8.1186-7.6613,10.0877-27.7497,31.3408-11.2399,11.8916-17.9166,17.0614-22.4834,28.9232-1.2022,3.1227-.6489,2.529-3.6868,12.7144-3.9243,13.1574-5.827,17.4316-9.7412,29.2058-8.9275,26.8548-12.0793,33.6261-12.0793,33.6261,0,0-7.0695,3.9745-23.1792,10.7734-10.4074,4.3924-18.6327,8.4383-23.8321,11.0999Z"/>
        <path class="cls-11" d="M366.8978,166.7961c-1.7349-13.1058-4.8259-23.6933-7.5466-31.297-2.1579-6.0304-4.7807-13.2367-9.9887-21.7527-3.9454-6.4513-6.6401-9.1827-13.3178-17.5353-4.4046-5.5094-10.5626-13.4894-17.6224-23.6338-5.5025,9.3532-13.2609,23.599-20.7777,41.835-10.6972,25.9523-16.1268,39.6388-10.2146,50.4599,8.5496,15.648,36.8894,17.1941,35.1537,17.0842-24.1681-1.5328-48.3361-3.0659-72.5042-4.5989,4.9885-9.6564,10.0253-19.3326,15.11-29.0283,16.9522-32.3235,34.0381-64.0934,51.2306-95.3125,2.3256,3.7524,5.5198,8.8282,9.4143,14.7829,2.1984,3.3615,6.9968,10.6978,11.542,17.0913,11.8671,16.6931,13.3294,14.7497,19.7548,24.86,7.6863,12.0944,10.99,23.366,13.4623,31.8015,2.747,9.3718,4.1519,17.4988,4.9217,23.4951-2.8724.5828-5.7449,1.1656-8.6173,1.7484Z"/>
        <path class="cls-11" d="M98.9864,165.1684c3.6517-11.2175,6.613-20.414,8.6566-26.7839,6.4038-19.9607,7.2857-23.0423,10.5803-28.1156,5.1067-7.8631,8.1999-8.4847,18.349-20.1248,6.5901-7.5582,11.3126-14.2079,14.1798-18.4814,6.3115,10.4035,14.5731,25.23,22.5923,43.8595,11.3462,26.3576,16.2282,39.3455,10.8766,49.3502-8.3401,15.5919-36.8787,17.1935-35.1537,17.0842,24.1681-1.5328,48.3361-3.0659,72.5042-4.5989-5.2145-8.6184-10.3992-17.4192-15.543-26.4042-18.9031-33.0202-35.4707-65.4125-50.0209-96.8059-.2432.2232-.6365.5899-1.107,1.055-2.1868,2.1618-3.5887,4.0271-4.1756,4.8039-1.897,2.5104-7.1059,9.306-14.0047,18.4475l-.0056.0052c-10.8986,10.0602-16.4498,15.2236-21.4509,21.7473-2.866,3.7388-4.4016,5.7421-5.9191,9.0266-1.1152,2.4136-2.1984,5.8635-4.3654,12.763-.6736,2.1443-.8905,2.6773-1.4058,4.5504-.5533,2.0117-.9694,3.3492-4.6612,14.1688-3.1821,9.3269-5.9709,17.4134-8.1124,23.5952,2.7288.2859,5.4577.572,8.1865.8579Z"/>
        <path class="cls-16" d="M95.1007,183.972s-51.5818,25.4644-51.5818,25.4644l10.5669,6.7672c9.9022-2.4097,19.0344-4.1168,27.1904-5.3363,0,0,10.6847-1.5929,21.3332-2.4103,28.9784-2.2244,84.3418,1.5575,115.5694,10.4469,2.8563.8131,11.0913,3.2575,22.1585,3.1561,9.6639-.0886,16.8275-2.0757,19.6293-2.8296,15.9442-4.2903,57.3402-15.429,96.3078-12.0793,4.3224.3716,11.9139,1.4448,27.0968,3.5911,16.0107,2.2634,29.1849,4.3755,38.1966,5.8764l4.5705-7.8352-56.1523-23.1792s-14.5045.5221-17.6292.9794c-28.2359,4.1323-38.5617.9497-132.8721,2.9382-73.7136,1.5542-82.8727,3.8246-101.5313-1.9588-5.0615-1.5689-12.5517-4.2665-22.8527-3.5911Z"/>
        <path class="cls-10" d="M128.3733,193.5545c1.0125.4761,4.4473,1.9654,4.4473,1.9654l106.1928-2.8471,94.9363,2.1034s4.6813-.9464,6.9768-1.4697c-.3449-2.9318-.6898-5.8636-1.0348-8.7954-43.5946-5.7576-78.9883-6.7117-103.1636-6.5294-47.5082.3583-107.8349,5.5288-107.8349,5.5288-.3136,1.0795-.5971,2.3631-.7509,3.821-.2621,2.4854-.0568,4.6232.231,6.223Z"/>
        <path class="cls-16" d="M175.4115,95.0277c.1515,20.7252.303,41.4503.4545,62.1755,4.136-2.226,8.2721-4.4519,12.4081-6.6779-.1194-16.3339-.2388-32.6678-.3582-49.0018-4.1681-2.1653-8.3363-4.3305-12.5044-6.4958Z"/>
        <path class="cls-16" d="M234.3537,62.414c-19.7784,10.8166-39.5568,21.6332-59.3352,32.4498,4.0921,2.4947,8.1842,4.9893,12.2764,7.484,15.5878-8.5248,31.1755-17.0496,46.7633-25.5744.0985-4.7865.197-9.5729.2956-14.3594Z"/>
        <path class="cls-16" d="M283.8205,109.6772c-16.0133-8.1824-32.0265-16.3648-48.0398-24.5472.1929,3.8182.3859,7.6364.5788,11.4546,12.6204,6.4487,25.2407,12.8974,37.8611,19.3462,3.1999-2.0845,6.3999-4.169,9.5998-6.2535Z"/>
        <path class="cls-16" d="M293.993,156.3566c-.1515-20.879-.303-41.7579-.4545-62.6369-4.136,2.2425-8.2721,4.485-12.4081,6.7275.1194,16.4551.2388,32.9103.3582,49.3654,4.1681,2.1813,8.3363,4.3627,12.5044,6.544Z"/>
        <path class="cls-16" d="M234.7826,189.8374c19.8658-10.8637,39.7316-21.7273,59.5975-32.591-4.1015-2.4896-8.203-4.9792-12.3045-7.4688-15.6567,8.5619-31.3133,17.1238-46.97,25.6856-.1076,4.7914-.2153,9.5828-.3229,14.3742Z"/>
        <path class="cls-16" d="M175.6678,157.4492c19.8342,10.762,39.6685,21.524,59.5027,32.286-.1255-4.7922-.251-9.5843-.3766-14.3765-15.6318-8.4818-31.2635-16.9635-46.8953-25.4453-4.0769,2.5119-8.1539,5.0239-12.2308,7.5358Z"/>
        <polygon class="cls-7" points="293.4444 156.3437 234.8825 187.8612 175.866 157.2032 175.4115 95.0277 233.9734 63.5102 292.99 94.1682 293.4444 156.3437"/>
        <polygon class="cls-3" points="280.9401 149.8479 234.7862 174.6875 188.2741 150.5253 187.9159 101.5235 234.0698 76.684 280.5819 100.8461 280.9401 149.8479"/>
        <polygon class="cls-10" points="86.2269 162.2297 135.6866 162.7194 132.7484 194.0602 81.2074 188.1022 86.2269 162.2297"/>
        <polygon class="cls-10" points="380.9278 162.2297 331.468 162.7194 334.4062 194.0602 385.9472 188.1022 380.9278 162.2297"/>
        <path class="cls-11" d="M301.5219,82.8278c8.143-16.8714-.0505-33.79-10.1616-36.7758-8.7234-2.576-21.839,4.343-27.3139,18.3753v-31.096c3.2912,1.7527,8.334,4.1459,14.7943,6.0506,9.319,2.7476,9.1654,1.1635,16.9634,3.6618,8.1145,2.5997,13.6563,6.0744,16.4071,7.9698,1.4097.9714,2.543,1.8427,3.3291,2.4695-4.6728,9.7817-9.3457,19.5631-14.0185,29.3448Z"/>
        <path class="cls-11" d="M170.586,82.8278c-6.8786-17.9134,2.5426-34.2072,12.7468-36.3368,8.2642-1.7247,19.5008,5.3266,24.7287,17.9363-.2277-10.7168-.4554-21.4336-.6835-32.1502-2.1204,1.3754-5.5401,3.3884-10.0378,5.1146-9.9731,3.8278-13.0431,1.5628-21.0364,5.652-4.0441,2.0686-4.7768,3.4251-11.4674,6.8353-2.3752,1.2107-4.7945,1.5057-7.867,3.5775-.069.0466-.1255.0852-.1613.1097,4.5926,9.7539,9.1853,19.5077,13.7779,29.2616Z"/>
        <path class="cls-11" d="M208.0615,56.4288c.1621-.8396,3.8992-18.7015,19.2201-23.8474,2.0535-.6898,9.9861-3.217,18.6452.5919,6.2361,2.7431,9.642,7.3616,10.9874,9.4335,0,.0002,1.3554,1.9492,6.5858,12.4754-.2346-7.599-.4692-15.1978-.7038-22.7967-1.8698-1.0201-4.3977-2.2702-7.4914-3.4404-.7404-.2801-8.0688-3.004-16.0371-3.6625-14.2527-1.1777-26.9379,4.5512-30.6866,6.3631-.1734,8.2943-.3463,16.5889-.5196,24.8833Z"/>
        <path class="cls-11" d="M76.1062,203.283c-.091-1.4248,20.4017-4.4053,35.0136-5.8764,9.8278-.9895,13.6386-.9627,49.5983-2.0184,24.7157-.7256,27.9996-.8873,45.3037-1.3209,12.7852-.3204,19.0704-.5701,28.6412-.6378,11.0642-.0783,19.9066.0561,26.6886.1632,15.1514.2391,13.6951.4679,29.4636.7346,1.2493.0211,10.9262.2044,30.2799.5712,2.2459.0427,6.9442.138,13.1401.5714,0,0,5.0303.3519,10.1767.9215,8.0529.8916,53.3859,6.8273,53.1827,8.8502-.154,1.5352-22.7032-1.2223-65.3974-.7115-5.1739.0619-59.0837.707-79.0197,3.1075-1.7547.2113-7.6199.9627-15.5373.8879-6.8566-.0649-11.9387-.7182-13.3178-.8879-15.2152-1.8733-51.1154-2.9358-71.9168-3.5514-48.3124-1.43-76.1934.8556-76.2995-.8032Z"/>
        <path class="cls-11" d="M183.4745,220.6842c17.3912,5.1923,34.7829,10.3845,52.1741,15.5768,16.8737-5.2796,33.7475-10.559,50.6212-15.8386-16.7862,3.1558-33.572,6.3118-50.3577,9.4675-17.4792-3.0687-34.9584-6.1371-52.4376-9.2058Z"/>
        <path class="cls-11" d="M143.6851,264.0058c-3.3463-10.6918-6.6926-21.3836-10.0389-32.0754,1.5507,11.5896,3.1014,23.1792,4.6522,34.7687l35.5033,15.9153,13.4668,14.691c8.9505-6.8455,16.908-11.933,22.9343-15.5072,16.8368-9.9858,22.0567-10.209,24.077-10.2021,8.5507.0292,15.1055,4.3686,23.424,9.8756,13.7348,9.0927,22.8527,15.5888,22.8527,15.5888,4.2441-4.7338,8.4882-9.4676,12.7322-14.2013l33.2996-15.4256s5.6934-34.7134,4.6522-34.7687c-.9763-.0519-8.5698,30.1166-8.5698,30.1166-11.0999,4.2849-22.1998,8.5698-33.2996,12.8546-3.52,3.8224-7.0399,7.6448-10.5599,11.4672-3.6611-2.9282-8.0309-6.2185-13.0881-9.6467-7.2734-4.9304-11.0249-7.4394-16.6508-9.5845-4.567-1.7413-9.4484-3.6025-15.8535-3.1726-4.5554.3058-7.8115,1.7137-14.3237,4.5297-6.1161,2.6447-10.4419,5.2598-15.6704,8.4473-3.7036,2.2579-8.5822,5.3877-14.1605,9.4267-3.5095-3.4007-7.019-6.8014-10.5286-10.2021-11.6168-4.2985-23.2336-8.597-34.8504-12.8955Z"/>
        <path d="M173.8652,282.6144c.6653-2.4387,2.4978-4.6682,4.7522-5.698-.7626,2.4355-2.4289,4.5821-4.7522,5.698h0Z"/>
        <path d="M138.3619,266.6992c1.1575-1.7438,3.3553-2.847,5.3974-2.672-1.2478,1.7026-3.2604,2.8009-5.3974,2.672h0Z"/>
        <path d="M187.332,297.3054c-.4547-3.4453.185-7.198,1.819-10.198.37,3.4858-.1708,7.0829-1.819,10.198h0Z"/>
        <path d="M280.62,297.0606c-1.5865-3-2.25-6.668-1.7218-9.9614,1.5208,3.0673,2.2243,6.5554,1.7218,9.9614h0Z"/>
        <path d="M293.39,282.8202c-2.1557-1.7502-3.677-4.4833-3.9345-7.1955,2.1164,1.8382,3.6199,4.3866,3.9345,7.1955h0Z"/>
        <path d="M326.6519,267.4337c-2.3934-.2909-4.7345-1.7753-5.9275-3.8153,2.4027.3884,4.642,1.7175,5.9275,3.8153h0Z"/>
        <path d="M208.5485,30.7578c1.8264,11.4401,1.9166,23.0213,1.7096,34.5692-.1051,3.8478-.2696,7.6969-.6565,11.5511,0,0-.974.0222-.974.0222-.5623-3.8325-.9023-7.6701-1.1829-11.509-.7339-11.5266-1.1723-23.0994.1298-34.6112.0001,0,.974-.0222.974-.0222h0Z"/>
        <path d="M263.9871,30.7793c1.3156,11.6422.8906,23.3475.17,35.0067-.2762,3.8833-.6118,7.7654-1.1697,11.6426,0,0-.974-.0209-.974-.0209-.3912-3.8976-.5602-7.7905-.6697-11.682-.2206-11.6796-.1437-23.3919,1.6692-34.9673.0001,0,.9741.0209.9741.0209h0Z"/>
        <path d="M156.3793,52.8102c6.155,9.4541,10.7806,19.7394,15.1194,30.1137,1.4127,3.4712,2.7715,6.9675,3.929,10.5581l-.8822.4132c-2.0172-3.188-3.8331-6.4703-5.5951-9.7778-5.1918-9.9749-10.1314-20.1128-13.4535-30.894.0001,0,.8824-.4133.8824-.4133h0Z"/>
        <path d="M316.8452,53.2544c-4.2734,10.2319-10.1952,22.5782-14.6614,32.7648-2.8667,6.3614-5.6554,13.4597-8.6483,19.7542,0,0-.9232-.3116-.9232-.3116,3.5101-14.051,8.7982-27.6619,15.7124-40.3906,2.3274-4.2307,4.8288-8.3689,7.67-12.2919,0,0,.8505.4751.8505.4751h0Z"/>
        <path class="cls-11" d="M156.9694,53.4565c7.4723-5.3501,15.6982-9.96,24.4457-12.8537,3.8054-1.295,9.2785-2.6744,13.2194-3.6404,4.2924-1.2309,8.5116-2.8099,12.7436-4.6854-3.8521,3.5341-8.5532,6.1756-13.5068,7.9689-2.9028.9938-8.3708,2.7283-11.346,3.686-8.6863,2.751-16.9087,6.605-25.5559,9.5244h0Z"/>
        <path class="cls-11" d="M315.4896,53.6197c-4.2298-1.8814-8.5126-3.4743-12.8103-5.1097-4.2924-1.5994-8.4074-3.3516-12.8191-4.5705-6.7497-1.7634-13.3901-3.6446-19.7431-6.5602-2.1149-1.0811-4.1038-2.3543-5.8623-3.8984,2.1763.8509,4.3126,1.6713,6.4983,2.2473,6.6597,1.6877,13.4702,3.0445,20.1034,4.8462,4.4833,1.2717,8.7845,3.3524,12.9095,5.4748,4.1411,2.1469,8.2194,4.4685,11.7236,7.5704h0Z"/>
        <path class="cls-11" d="M208.7657,31.5628c6.322-5.2907,14.6313-7.2238,22.7278-7.1589,6.0023-.0337,11.994-.0764,17.958.9154,3.6012.5987,6.9347,1.9165,9.9102,4.0215,1.2333.8865,2.3942,1.8601,3.4345,2.9445-1.9746-1.0647-3.9389-2.0331-6.0536-2.7137-4.1169-1.6239-8.8161-1.6779-13.4371-1.7368,0,0-11.7888-.0411-11.7888-.0411-4.8422-.0754-9.6109-.0045-14.3469,1.0663-2.8757.6318-5.6164,1.7479-8.4041,2.7028h0Z"/>
        <path class="cls-11" d="M91.0437,190.2565c-2.8593,1.4985-6.1174,1.8677-9.3032,1.8439,0,0,.753-.1667.753-.1667-3.4859,1.838-7.1182,3.6045-10.6458,5.3313-10.7668,4.9486-21.5766,9.6748-32.3111,14.6644,0-.0001.3217-2.7185.3217-2.7185,0,0,11.2153,9.3146,11.2153,9.3146l-1.25-.3023c11.0565-2.1684,22.1316-3.8491,33.3153-5.2297,8.4007-.8954,16.7923-1.7748,25.2612-1.7789,14.0492.3109,28.0236,1.9903,41.9188,3.8487,11.0877,1.6149,22.2025,3.4554,33.1543,5.6292-11.0576-1.8199-22.1546-3.3808-33.2785-4.6624-13.8881-1.5755-27.8278-2.9711-41.7964-3.0039-8.3379.1701-16.6951,1.2129-24.9746,2.263-11.2626,1.6151-22.547,3.5734-33.6682,5.9949-1.8485-1.4718-12.2631-9.8174-13.9502-11.162,1.2666-.6213,11.4728-5.4953,13.0226-6.2488,7.2086-3.5119,16.9229-7.528,24.2519-10.9232,2.7489-1.3278,5.7036-2.5423,8.3856-3.9202,3.2016.1387,6.4359.4152,9.5782,1.2268h0Z"/>
        <path class="cls-11" d="M376.5531,190.1394c2.9639-.4788,6.0287-.8322,9.001-1.0943,0,.0001.4957-.0289.4957-.0289l.402.2136c14.0446,7.4546,28.6765,13.6536,43.1771,20.1593,0,0,2.4386,1.0854,2.4386,1.0854,0,0-2.0449,1.6478-2.0449,1.6478,0,0-11.2917,9.0992-11.2917,9.0992l-.5688.4583c-10.951-2.5036-22.0303-4.6174-33.177-5.9917-8.1787-.9671-16.4369-2.0375-24.6473-2.4381-13.7684-.1576-27.5188,1.3007-41.2171,2.7755-10.9688,1.2088-21.9643,2.7429-32.8523,4.389,21.7599-3.9844,43.6494-7.3602,65.7626-8.7219,5.5273-.3614,11.1741-.2959,16.6759.2034,16.5971,1.2069,33.1242,3.2633,49.4016,6.7351,0-.0001-1.2568.3017-1.2568.3017l11.1226-9.3052s.3937,2.733.3937,2.733l-11.0359-4.6653c-11.0241-4.7293-22.0004-9.73-32.3645-15.7954,0,0,.8973.1845.8973.1845-3.2067.1624-6.5556-.1473-9.3116-1.945h0Z"/>
        <path class="cls-11" d="M96.8749,163.3236l-8.5408,2.7311,1.2236-1.1751-4.035,21.4146-.9985-1.6648,6.8594,3.6835-7.7343-.8949s-1.2844-.1486-1.2844-.1486l.2856-1.5164,4.035-21.4146.2249-1.1932c.2171.0311,9.4516.1496,9.9645.1784h0Z"/>
        <path class="cls-11" d="M370.2114,163.2796c.5404-.0172,9.7228-.1684,9.9604-.1781,0,0,.2279,1.1885.2279,1.1885l4.1226,21.5003.2939,1.5331c-.6283.046-8.306.9126-9.1649.9895,0,0,7.0129-3.6461,7.0129-3.6461l-1.0123,1.6739-4.1226-21.5002,1.2227,1.1705-8.5406-2.7313h0Z"/>
        <path class="cls-11" d="M110.2676,243.0568c5.9568,12.7829,7.5139,27.7126,4.9503,41.5385-.9133-6.0474-1.8213-14.6224-2.6326-20.7398,0,0-1.3686-10.2888-1.3686-10.2888-.4625-3.4401-.9285-6.8896-1.2106-10.4371,0,0,.2615-.0728.2615-.0728h0Z"/>
        <path class="cls-11" d="M130.9581,291.9492c.4801,1.8923-.1488,3.1669-.8163,4.4245,0,0-1.8606,3.8566-1.8606,3.8566-2.4197,5.134-9.2145,17.5107-11.9797,22.7045,0,0-.2024-1.907-.2024-1.907,0,0,15.1287,18.1591,15.1287,18.1591,8.6757,10.5668,21.5634,26.0202,29.926,36.6169,2.1108,2.7345,5.1445,6.5611,7.382,9.2092,1.2522,1.5989,2.3608,3.1333,3.618,4.6943.9307,1.2445,1.8962,2.5687,2.0343,4.1762.7071,4.2139-2.9825-1.9218-3.8007-2.7866-1.2584-1.47-2.5094-3.0909-3.7301-4.5574-5.1372-5.8104-17.6272-20.9451-22.8515-27.0766-7.8932-9.5117-23.1062-27.6605-31.0741-37.1064,0,0,.5369-1.0283.5369-1.0283,2.7732-5.2526,9.1305-17.7136,12.0657-22.6859.6997-1.2449,1.4299-2.4713,2.159-3.7019.7094-1.2419,1.4572-2.467,3.3141-3.0742l.1508.083h0Z"/>
        <path class="cls-11" d="M335.6293,290.9238c1.8547.6527,2.5707,1.8986,3.2565,3.161.7151,1.247,1.4637,2.4762,2.1633,3.7311,3.3216,5.4774,9.5508,18.0877,12.6786,23.8615-7.9734,9.4457-23.1768,27.5986-31.0743,37.1063-5.2722,6.1842-17.632,21.1726-22.8511,27.0768-1.2206,1.4665-2.4716,3.0875-3.73,4.5575-.9577,1.0746-4.4763,6.9127-3.7995,2.7873.1391-1.6087,1.1018-2.9315,2.0336-4.1766,2.3705-3.1108,4.8932-6.2774,7.3734-9.2624,5.5606-7.2496,12.7059-15.896,18.522-23.02,7.4656-9.1066,22.6022-27.3678,30.1595-36.397,0,0-.1988,1.9134-.1988,1.9134-2.8202-5.2772-9.5861-17.6357-12.0792-22.8885-.6431-1.2863-1.2485-2.5922-1.8669-3.8913-.6461-1.2844-1.2621-2.5853-.7394-4.4794,0,0,.1525-.0797.1525-.0797h0Z"/>
        <path class="cls-11" d="M132.6355,299.0673c28.0564,20.5784,45.4432,55.0708,46.0249,89.7867-4.8451-34.5186-21.135-65.5507-46.0249-89.7867h0Z"/>
        <path class="cls-16" d="M234.647,310.4769c.1632,19.4248.3265,38.8496.4897,58.2744-2.5717-1.127-5.1435-2.2541-7.7152-3.3811-.0923-17.3698-.1845-34.7396-.2768-52.1094,2.5008-.928,5.0015-1.8559,7.5023-2.7839Z"/>
        <path class="cls-16" d="M234.647,310.4769c.1632,19.4248.3265,38.8496.4897,58.2744,2.2853-.855,4.5706-1.71,6.8558-2.565.2059-17.5167.4118-35.0334.6177-52.5501-2.6544-1.0531-5.3088-2.1062-7.9633-3.1593Z"/>
        <path class="cls-16" d="M211.6845,319.113c.6426,19.4663,1.2853,38.9327,1.9279,58.399-1.8439-.5261-3.6878-1.0523-5.5317-1.5784l-1.6981-54.9804c1.7673-.6134,3.5346-1.2268,5.3019-1.8402Z"/>
        <path class="cls-16" d="M211.6845,319.113c.6426,19.4663,1.2853,38.9327,1.9279,58.399,1.3383-2.0885,2.6767-4.177,4.015-6.2654-.3364-18.0266-.6728-36.0532-1.0091-54.0798-1.6446.6487-3.2892,1.2975-4.9338,1.9462Z"/>
        <path class="cls-16" d="M189.2273,327.3308c2.8255,18.8855,5.6509,37.7709,8.4764,56.6564,1.2554-1.6235,2.5108-3.247,3.7662-4.8705-2.7018-17.7737-5.4037-35.5473-8.1055-53.321-1.379.5117-2.758,1.0234-4.137,1.5351Z"/>
        <path class="cls-16" d="M277.1285,327.3308c-2.775,18.9351-5.5499,37.8702-8.3249,56.8053-.8162-1.6731-1.6323-3.3463-2.4485-5.0194,2.6931-17.6182,5.3862-35.2364,8.0794-52.8547.898.3563,1.796.7125,2.694,1.0688Z"/>
        <path class="cls-16" d="M256.8016,319.2664c-.6248,19.5095-1.2496,39.0191-1.8744,58.5286,1.6056-.6205,3.2113-1.2409,4.8169-1.8614.561-18.2774,1.1219-36.5547,1.6829-54.8321-1.5418-.6117-3.0836-1.2234-4.6254-1.8351Z"/>
        <path class="cls-16" d="M256.8016,319.2664c-.6248,19.5095-1.2496,39.0191-1.8744,58.5286-1.0469-1.9107-2.0938-3.8215-3.1407-5.7322.3506-18.1229.7012-36.2458,1.0518-54.3687,1.3211.5241,2.6422,1.0482,3.9633,1.5724Z"/>
        <path class="cls-16" d="M197.7036,383.2214c5.3029-2.1584,10.6059-4.3167,15.9088-6.4751-1.8439-.5261-3.6878-1.0523-5.5317-1.5784-2.2037,1.061-4.4073,2.122-6.611,3.1831-1.2554,1.6235-2.5108,3.247-3.7662,4.8705Z"/>
        <path class="cls-16" d="M213.6124,376.7463c7.1747-2.9202,14.3495-5.8405,21.5243-8.7607-2.5717-1.127-5.1435-2.2541-7.7152-3.3811-3.2596,1.8259-6.5193,3.6518-9.7789,5.4777-1.3434,2.2214-2.6867,4.4428-4.0301,6.6642Z"/>
        <path class="cls-16" d="M254.9272,377.0293c-6.5969-3.0146-13.1937-6.0291-19.7905-9.0437,2.2853-.855,4.5706-1.71,6.8558-2.565,3.2647,1.9588,6.5294,3.9176,9.794,5.8764,1.0469,1.9107,2.0938,3.8215,3.1407,5.7322Z"/>
        <path class="cls-16" d="M268.8036,383.3704c-4.6255-2.1137-9.2509-4.2274-13.8764-6.3411,1.6056-.6205,3.2113-1.2409,4.8169-1.8614,2.2037,1.061,4.4073,2.122,6.611,3.1831.8162,1.6731,1.6323,3.3463,2.4485,5.0194Z"/>
        <polygon class="cls-11" points="194.4641 387.8483 234.3522 368.4574 235.0936 368.0969 235.8107 368.4934 271.6022 388.287 234.2755 371.5674 235.7336 371.6034 194.4641 387.8483 194.4641 387.8483"/>
        <circle class="cls-11" cx="118.9361" cy="178.6643" r="12.6026"/>
        <circle cx="119.0368" cy="177.3228" r="12.6026"/>
        <circle class="cls-4" cx="119.0368" cy="177.3228" r="8.9807"/>
        <line class="cls-4" x1="119.444" y1="168.3559" x2="119.0368" y2="186.3036"/>
        <path class="cls-4" d="M110.8037,180.9124c2.8801-1.1965,5.7602-2.393,8.6402-3.5895"/>
        <path class="cls-4" d="M128.0175,180.9124c-2.8801-1.1965-5.7602-2.393-8.6402-3.5895"/>
        <circle class="cls-11" cx="348.3554" cy="177.9936" r="12.6026"/>
        <circle cx="348.2548" cy="176.6521" r="12.6026"/>
        <circle class="cls-4" cx="348.2548" cy="176.6521" r="8.9807"/>
        <path class="cls-2" d="M193.165,121.8811c14.2861,12.809,28.5721,25.6185,42.8582,38.4275,18.807-20.6152,37.6137-41.2303,56.4206-61.8455"/>
        <path d="M178.373,155.666c1.8607-2.4338,4.8151-3.7924,7.8422-3.9438-1.68,2.3464-4.8979,3.9307-7.8422,3.9438h0Z"/>
        <path d="M177.9637,96.5027c3.0809-.0121,5.9799,1.4981,7.9713,3.8063-2.9015.1013-6.1397-1.4787-7.9713-3.8063h0Z"/>
        <path d="M234.8505,176.9473c1.354,2.5113,1.2644,5.5576.0591,8.1051-1.3562-2.3437-1.3537-5.664-.0591-8.1051h0Z"/>
        <path d="M282.9126,151.0106c3.0496.0373,6.2961,1.6017,8.0984,3.9883-3.1062-.1638-6.1399-1.5309-8.0984-3.9883h0Z"/>
        <path d="M274.7062,114.8223c1.5231-1.9187,4.0368-3.175,6.4379-3.1617-1.6112,1.8764-3.939,3.1249-6.4379,3.1617h0Z"/>
        <path d="M234.0511,74.486c-1.3602-2.5318-1.2775-5.5984-.0783-8.1722,1.3596,2.3327,1.3649,5.7354.0783,8.1722h0Z"/>
        <path class="cls-15" d="M216.0224,250.797l-56.3894-23.1956s14.0925,36.8622,37.193,34.7935c7.9046-.7079,19.1964-11.5978,19.1964-11.5978Z"/>
        <path class="cls-15" d="M253.2576,252.4117l56.3894-23.1956s-14.0925,36.8622-37.193,34.7935c-7.9046-.7079-19.1964-11.5978-19.1964-11.5978Z"/>
        <path d="M189.2214,326.5493l45.0865-17.7514.3516-.1384s.3468.1462.3468.1462l42.1222,17.7594-42.8407-15.9483.698.0078c-.012-.031-45.7936,16.0383-45.7644,15.9247h0Z"/>
        <path class="cls-11" d="M190.133,332.6195c1.354-.7084,2.7079-1.4167,4.0619-2.1251-.2769-1.8215-.5538-3.643-.8307-5.4645-1.379.5117-2.758,1.0234-4.137,1.5351.3019,2.0181.6039,4.0363.9058,6.0544Z"/>
        <path class="cls-11" d="M276.2645,332.4605l-2.7082-1.4998c.2769-1.8215.5538-3.643.8307-5.4645.9138.3563,1.8277.7125,2.7415,1.0688-.288,1.9651-.576,3.9303-.864,5.8954Z"/>
        <path class="cls-11" d="M206.5063,325.307c1.7047-.0136,3.4089-.0274,5.1131-.041,1.6986-.991,3.3973-1.9819,5.0959-2.9729.006-1.8248.0116-3.6495.0177-5.4743-1.7456.6665-3.4913,1.3329-5.2369,1.9996-1.7047.5986-3.4089,1.1969-5.1136,1.7954.0414,1.5643.0828,3.1286.1238,4.6931Z"/>
        <path class="cls-11" d="M261.2688,325.492c-1.5095-.0122-3.0189-.0243-4.5284-.0365-1.3378-.9111-2.6755-1.8221-4.0133-2.7332.0341-1.7344.0681-3.4689.1022-5.2033,1.3363.4861,2.6809.9823,4.0335,1.4888,1.5488.5799,3.0808,1.1631,4.596,1.749-.0633,1.5784-.1267,3.1568-.19,4.7352Z"/>
        <path class="cls-11" d="M227.1579,318.8041c2.5354.4693,5.0709.9385,7.6063,1.4078,2.5907-.4896,5.1814-.9793,7.772-1.4689.0229-1.6741.0458-3.3483.0686-5.0224-2.6597-.9913-5.3193-1.9827-7.979-2.974-2.4928.8685-4.9855,1.7371-7.4783,2.6056.0034,1.8173.0069,3.6346.0103,5.4519Z"/>
        <path class="cls-11" d="M155.9288,54.2726c-3.7693,3.7012-6.0844,8.4457-8.8125,12.9449-4.0167,6.8035-8.3875,13.7084-13.6783,19.6876-4.8418,6.0985-10.9239,11.3709-15.6107,17.5189-2.916,4.0657-5.402,8.5573-6.9562,13.2535-2.0115,7.4617-4.8265,15.3479-8.2393,22.3587-3.3464,7.2038-6.7825,14.361-10.6343,21.3075,2.491-7.5314,5.0913-14.9705,7.7512-22.4192.6945-1.858,1.9722-5.5657,2.5827-7.4472,2.7833-7.508,3.4-15.6986,7.2137-22.8807,2.422-4.883,5.7874-9.5236,9.6061-13.3491,0,0,5.5158-5.6382,5.5158-5.6382,3.5792-3.7444,7.1933-7.6197,10.6037-11.5017,3.9384-4.5598,8.3272-10.7018,12.1368-15.4163,1.6081-2.0987,3.3191-4.2463,5.3712-5.9683.9786-.8737,1.9758-1.8212,3.1502-2.4504h0Z"/>
        <path class="cls-11" d="M316.3467,54.339c3.5244,3.1503,6.1728,7.1724,8.5644,11.2026,4.2212,6.3876,8.3612,13.0755,12.903,19.1538,5.3055,7.7612,12.9095,13.5601,17.8991,21.6161,1.4042,2.3006,3.1706,5.7448,4.4964,8.1102,5.8601,10.8591,8.4273,23.1834,11.5708,35.0368.9882,3.9265,1.9493,7.8589,2.8408,11.819-1.6263-3.7172-3.1832-7.4621-4.6401-11.2365-4.5482-11.1601-7.7546-22.7428-13.7912-33.233-2.4546-4.1712-5.9691-10.7606-10.0638-14.8857-8.86-8.8775-15.8803-19.7764-21.2546-31.0738-.0002.0001-2.095-4.2005-2.095-4.2005-1.8043-4.3217-3.7304-8.4634-6.4297-12.3089h0Z"/>
        <path class="cls-1" d="M184.8716,103.3845c16.3397,14.9192,32.679,29.8391,49.0187,44.7584,22.1985-24.3649,44.3969-48.7304,66.5954-73.0953"/>
      </g>
    </g>
    <text class="cls-13" transform="translate(.0001 461.645)"><tspan x="0" y="0">Validator Info</tspan></text>
  </g>
</svg>