<?xml version="1.0" encoding="UTF-8"?>
<svg id="Layer_2" data-name="Layer 2" xmlns="http://www.w3.org/2000/svg" viewBox="0 0 251.89 238.94">
  <defs>
    <style>
      .cls-1 {
        stroke-width: 15.94px;
      }

      .cls-1, .cls-2, .cls-3, .cls-4, .cls-5, .cls-6, .cls-7, .cls-8, .cls-9, .cls-10, .cls-11 {
        stroke-miterlimit: 10;
      }

      .cls-1, .cls-2, .cls-4, .cls-5, .cls-11 {
        fill: none;
      }

      .cls-1, .cls-5 {
        stroke: #fff;
      }

      .cls-12, .cls-9 {
        fill: #1e1e1e;
      }

      .cls-2 {
        stroke: #fcfcfc;
        stroke-width: 3.76px;
      }

      .cls-13 {
        fill: #447294;
      }

      .cls-3 {
        opacity: .5;
      }

      .cls-3, .cls-14, .cls-7, .cls-8, .cls-10 {
        fill: #4fb848;
      }

      .cls-3, .cls-7, .cls-8 {
        stroke-width: 3.02px;
      }

      .cls-3, .cls-7, .cls-8, .cls-10 {
        stroke: #4fb848;
      }

      .cls-4 {
        stroke: #1e1e1e;
        stroke-width: 8.82px;
      }

      .cls-15 {
        fill: #fff;
      }

      .cls-5 {
        stroke-width: .99px;
      }

      .cls-6 {
        stroke-width: 1.1px;
      }

      .cls-6, .cls-9, .cls-11 {
        stroke: #000;
      }

      .cls-6, .cls-16 {
        fill: #999;
      }

      .cls-7 {
        opacity: .72;
      }

      .cls-9 {
        stroke-width: 1.38px;
      }

      .cls-10 {
        stroke-width: 7.56px;
      }

      .cls-11 {
        stroke-width: 2.77px;
      }
    </style>
  </defs>
  <g id="Layer_1-2" data-name="Layer 1">
    <path class="cls-10" d="M225.64,176.86c-33.19,19.24-66.39,38.47-99.58,57.72-33.27-19.13-66.52-38.26-99.78-57.39-.06-38.36-.2-115.1-.2-115.1L125.66,4.36l99.78,57.38s.13,76.74.19,115.11Z"/>
    <g>
      <g id="head">
        <polygon class="cls-8" points="202.01 133.61 198.59 161.76 189.34 163.44 192.96 133.82 202.01 133.61"/>
        <path class="cls-8" d="M198.39,117.76c-6.87,33.14-7.94,43.75-6.87,45.16.12.16.81,2.45.81,2.45,0,0-.93,1.44-1.45,1.76-2.32-2.33-4.64-4.67-6.96-7,2.88-14.19,5.76-28.38,8.64-42.58l5.83.19Z"/>
        <path class="cls-8" d="M185.84,162.5l4.95,4.94,9.44,17.86-38.81,47.22-10.65-10.56c.5-12.65,2.8-22.69,4.94-29.73,1.66-5.47,2.8-9.13,5.36-13.13,7.04-11.01,18.72-15.06,24.78-16.61Z"/>
        <path class="cls-8" d="M189.05,165.41c-3,1.19-7.16,3.19-11.44,6.54-6.82,5.34-10.26,11.2-12.43,15-3.42,5.96-4.87,10.88-7.77,20.73-1.6,5.43-2.71,10-3.43,13.23-.92-.86-1.84-1.73-2.75-2.59.29-4.19.92-10.21,2.41-17.35,2.03-9.68,3.37-16.06,7.19-21.93,2.08-3.2,8.7-12.09,25.16-16.54,1.02.97,2.05,1.94,3.07,2.91Z"/>
        <g>
          <path class="cls-14" d="M201.15,136.6c-.98,3.42-1.9,7.43-2.49,11.96-.62,4.77-.75,9.07-.64,12.76"/>
          <path class="cls-14" d="M201.27,136.64c-.29,8.39-1.57,16.47-3.25,24.68-1.77-6.16-1.39-12.8.4-18.9.63-2.03,1.44-4.01,2.61-5.85l.24.07h0Z"/>
        </g>
        <g>
          <path class="cls-14" d="M188.4,165.88l1.32,2.37c2.83,5.16,5.65,10.33,8.48,15.49-3.83,4.34-6.93,7.92-9.03,10.36-9.31,10.81-12.43,14.84-16.99,19.93-1.62,1.81-3.02,3.46-5.83,6.75-2.97,3.49-1.47,1.85-2.11,2.58-.79.89-1.43,1.52-1.98,2.63-.28.57-.44,1.06-.53,1.39"/>
          <path class="cls-14" d="M188.47,165.84c1.43.18,1.9.89,2.33,1.62.45.72.92,1.43,1.35,2.16,2.85,4.65,5.27,9.54,7.88,14.32,0,0-.69.79-.69.79-8.8,9.82-19.27,22.53-28.09,32.24-2.14,2.4-6.13,6.72-8.07,9.18-.35.41-.7.82-1.46,1.22-.65-1.4.04-2.74.95-3.74,0,0,.59-.7.59-.7,0,0,.28-.33.28-.33.04-.05.12-.15-.05.06.81-1.24,4.93-6.04,5.92-7.3,8.78-10.49,18.57-22.3,27.65-32.63,0,0-.19,1.72-.19,1.72-2.46-4.46-5.08-8.83-7.3-13.42-.38-.76-.73-1.54-1.09-2.3-.4-.75-.75-1.52-.15-2.83,0,0,.13-.07.13-.07h0Z"/>
        </g>
        <g>
          <path class="cls-14" d="M187.3,169.94c-5.13,4.21-12.75,11.53-18.9,22.55-6.99,12.53-8.88,24.12-9.45,30.91"/>
          <path class="cls-14" d="M187.31,169.95c-14.64,14.97-24.57,32.78-28.35,53.46-.4-20.92,10.72-42.17,28.35-53.46h0Z"/>
        </g>
        <polygon class="cls-8" points="48.73 134.25 52.15 162.32 61.4 164 57.78 134.46 48.73 134.25"/>
        <path class="cls-8" d="M52.35,118.31c6.87,33.14,7.94,43.75,6.87,45.16-.12.16-.81,2.45-.81,2.45,0,0,.93,1.44,1.45,1.76,2.32-2.33,4.64-4.67,6.96-7-2.88-14.19-5.76-28.38-8.64-42.58l-5.83.19Z"/>
        <path class="cls-8" d="M61.9,118.69s-2.75,26.57,7.24,32.66c6.17,3.77,12.66,1.17,20.71,7.39,5.61,4.33,4.67,7.29,8.44,8.55,9.1,3.04,16.17-13.63,29.15-13.22,11.21.36,14.13,13.06,24.93,11.86,4.56-.51,4.44-2.82,16.08-9.14,10.93-5.93,16.49-8.17,16.49-8.17l3.02-32.08c-5.59,1.04-14.14,2.71-24.53,5.05-28.13,6.35-26.23,7.85-34.18,8.17-17.37.69-21.47-6.67-48.85-9.92-7.85-.93-14.33-1.13-18.5-1.17Z"/>
        <path class="cls-8" d="M59.39,122.19l6.03,43.74c16.63,4.77,23.19,13.31,25.63,17.21,3.33,5.31,4.7,11.96,7.44,25.27,1.57,7.65,2.56,14.09,3.17,18.66,8.48-3.24,16.95-6.48,25.43-9.72,7.7,3.34,15.4,6.68,23.11,10.02.38-3.54,1.02-8.58,2.13-14.59,2.5-13.6,3.91-21.32,7.99-28.29,2.4-4.1,9.02-13.57,25.46-19.82,2.31-13.91,4.62-27.82,6.93-41.73-1.92-.25-3.84-.51-5.76-.76-1.94,9.86-3.89,19.72-5.83,29.57-3.91,2.03-7.18,3.18-9.5,3.86-1.91.56-5.23,1.42-9.36,3.44-.8.39-1.2.59-1.51.78-4.19,2.6-4.6,6.84-6.73,6.87-.23,0-.43-.04-1.36-.55-3.26-1.79-4.99-3.43-6.97-4.85-.39-.28-2.1-1.22-5.5-3.11-3.15-1.75-4.74-2.64-5.7-2.99-1.09-.41-3.82-1.32-7.45-1.36-.83,0-3.78,0-7.41,1.15-1.7.54-3.38,1.43-6.66,3.2-2.67,1.43-4.62,2.48-7.28,4.12-4.7,2.9-4.94,3.51-6.29,3.51-2.83,0-3.34-2.7-7.81-5.7-1.58-1.06-2.36-1.28-11.39-4.41-3.51-1.21-6.63-2.3-9.3-3.23-2.23-10.3-4.46-20.59-6.68-30.89,0,0-2.2-.67-4.82.58Z"/>
        <path class="cls-3" d="M58.89,118.19c2.15,14.79,4.3,29.59,6.45,44.38,3.68.89,11.14,3.13,17.74,8.53,1.51,1.24,4.64,3.85,7.39,8.09,1.49,2.3,2.38,4.34,2.7,5.09.58,1.38,1.07,3.04,2.02,6.31.61,2.12,1.14,3.94,1.79,6.51.34,1.35.96,3.82,1.55,6.78.67,3.41.84,5.12,1.49,9.68.33,2.35.83,5.71,1.51,9.8,8.49-3.31,16.97-6.62,25.46-9.93,7.35,3.4,14.7,6.8,22.04,10.19.82-5.96,1.62-11.02,2.28-14.96.07-.4,1.17-6.92,3.02-14.81.51-2.2,1.21-5.04,2.76-8.55.41-.92,1.2-2.7,2.49-4.79,2.51-4.07,5.28-6.66,6.89-8.14,6.68-6.16,15.09-9.77,18.12-10.98.52-3.1,3.82-22.67,4.62-27.44.18-1.08.58-3.43,1.08-6.59.54-3.41.97-6.23,1.26-8.19-1.54.05-3.08.1-4.62.14-.31,1.53-.75,3.72-1.26,6.34-.56,2.89-1.27,6.55-1.73,9.31-.56,3.33-1.23,8.02-1.66,13.91-4.12,2.7-7.55,4.29-9.95,5.25-1.9.76-5.41,2.02-8.64,3.11-2.18.73-2.03.64-2.31.78-4.55,2.18-5.18,6.84-7.63,6.82-.17,0-.42-.03-1.82-.89-3.62-2.23-4.78-3.81-7.64-5.83-.64-.45-2-1.23-4.73-2.8-2.96-1.7-4.47-2.55-5.7-2.99-3-1.07-5.57-1.11-6.76-1.11-1.08,0-4.48.06-8.44,1.65-1.37.55-1.32.69-5.93,3.31-5.24,2.98-4.88,2.56-6.84,3.79-5.57,3.51-5.84,5.22-7.94,5.15-2.77-.1-3-3.08-7.32-6.08-3.8-2.63-5.96-1.95-11.57-4.03-2.8-1.04-6.81-2.89-11.26-6.42-1.61-10.14-3.22-20.28-4.82-30.43-.21-.41-.47-.62-.65-.73-.86-.52-2.24-.24-3.4.76Z"/>
        <path class="cls-8" d="M126.26,176.83c-9.32,3.35-18.65,6.69-27.97,10.04,1.74,11.25,3.48,22.49,5.22,33.74,7.68-3.02,15.37-6.05,23.05-9.07,6.91,3.05,13.82,6.11,20.73,9.16,1.71-11.28,3.42-22.55,5.13-33.83-8.72-3.35-17.44-6.69-26.16-10.04Z"/>
        <path class="cls-8" d="M131.16,178.71c2.1.81,4.2,1.61,6.3,2.42-.22,10.79-.43,21.58-.65,32.38l-6.03-3.5c.13-10.43.25-20.86.38-31.29Z"/>
        <path class="cls-8" d="M121.64,178.49c-2.16.78-4.32,1.55-6.48,2.33.21,10.74.41,21.47.62,32.21l6.03-3.5c-.06-10.34-.11-20.69-.17-31.03Z"/>
        <path class="cls-8" d="M100.83,185.95c2.67-.96,5.35-1.92,8.02-2.88.35,10.91.7,21.82,1.04,32.74l-4.07,1.9c-1.66-10.58-3.33-21.17-4.99-31.75Z"/>
        <path class="cls-8" d="M150.76,186.23c-2.67-1.02-5.34-2.05-8.01-3.07-.35,10.88-.69,21.77-1.04,32.65l4.07,1.9c1.66-10.49,3.32-20.98,4.98-31.48Z"/>
        <path class="cls-8" d="M65.5,163.05l-5.15,4.86-9.83,17.58,40.44,46.48,11.1-10.4c-.52-12.45-2.92-22.33-5.15-29.26-1.73-5.38-2.92-8.98-5.59-12.92-7.34-10.83-19.51-14.82-25.82-16.35Z"/>
        <path class="cls-8" d="M61.69,165.96c3,1.19,7.16,3.19,11.44,6.54,6.82,5.34,10.26,11.2,12.43,15,3.42,5.96,4.87,10.88,7.77,20.73,1.6,5.43,2.71,10,3.43,13.23.92-.86,1.84-1.73,2.75-2.59-.29-4.19-.92-10.21-2.41-17.35-2.03-9.68-3.37-16.06-7.19-21.93-2.08-3.2-8.7-12.09-25.16-16.54-1.02.97-2.05,1.94-3.07,2.91Z"/>
        <path class="cls-8" d="M2.82,117.44l9.45,7.39c10.08-2.23,32.47-6.51,55.45-4.78,11.14.83,20.57,2.94,20.57,2.94,3.38.55,5.8,1.39,6.21,1.48,3.61.81,12.89,3.54,17.49,4.88,3.43,1,8.55,2.48,14.93,4.26,5.46-1.63,9.78-2.95,12.44-3.75,12.57-3.83,15.92-4.96,22.07-6.22,4-.82,7.82-1.4,8.93-1.57,1.96-.3,6.07-.89,10.79-1.33,11.94-1.11,21.82-.69,24.46-.55,8.31.41,14.57,1.34,18.29,1.9,6.08.91,11.32,1.99,15.53,2.96,3.16-2.47,6.31-4.94,9.47-7.42-3.85-1.52-9.5-3.82-16.28-6.8-10.98-4.83-12.35-5.94-13.18-6.69-5.02-4.54-4.22-8.71-8.33-23.44-2.96-10.6-4.81-17.25-9.45-24.69-2.65-4.26-3.86-4.9-7.01-8.22-1.64-1.72-3.24-3.53-6.26-7.33-5.76-7.24-6.41-12.23-12.46-17-3.16-2.49-6.69-4.09-8.69-5.01-2.28-1.04-4.72-2.14-8.12-2.93-3.48-.81-13.21-2.5-15.07-4.26,0,0-.01-.01-.02-.02-.52-.49-1.43-1.29-2.69-2.11,0,0-.85-.55-1.7-.98-1.5-.76-4.38-1.72-13.97-1.72,0,0-7.04,0-10.44,1.37-1.74.7-2.83,1.45-3.62,1.94-5.59,3.52-10.96,4.19-16.08,5.64,0,0-8.73,2.47-17.09,8.17-7.09,4.83-4.72,6.01-17.09,18.66-6.92,7.08-11.03,10.16-13.85,17.22-.74,1.86-.4,1.51-2.27,7.57-2.42,7.84-3.59,10.38-6,17.39-5.5,15.99-4.35,17.15-7.44,20.02-2.69,2.51-4.35,2.37-14.27,6.42-6.41,2.62-11.47,5.03-14.68,6.61Z"/>
        <path class="cls-8" d="M48.99,91.85c1.43-15.62,6.32-25.98,10.69-32.66,5.02-7.68,15.44-19.83,15.44-19.83h0s6.95,8.71,12.06,25.27c5.03,16.29,3.86,20.43,3.02,22.55-3.51,8.78-13.28,12.46-16.65,13.56,14.88-.91,29.77-1.83,44.65-2.74-3.07-5.75-6.17-11.51-9.3-17.29-10.3-18.99-20.68-37.66-31.12-56.01-3.15,3.04-7.39,7.35-12.06,12.8-4.51,5.26-10.55,12.31-15.88,21.62-3.78,6.6-8.72,16.97-11.55,31.03,3.57.57,7.14,1.13,10.71,1.7Z"/>
        <path class="cls-8" d="M202.89,89.13c-1.42-6.93-4.28-16.74-10.48-27.26-4.78-8.12-10.12-14.25-14.54-18.6-4.18,7.9-7.54,15.22-10.25,21.73-3.35,8.06-5.4,14.54-3.35,21.6.11.37.22.68.33.96,3.51,8.78,13.28,12.46,16.65,13.56l-44.65-2.74c3.1-5.77,6.2-11.53,9.3-17.29,10.15-18.81,20.37-37.58,30.66-56.32.5.61,1.24,1.52,2.1,2.65,4.97,6.5,7.27,11.15,9.32,14.62,6.47,10.96,9.76,8.97,14.83,18.91,1.31,2.57,2.5,5.96,4.88,12.73,2.15,6.13,3.73,11.25,4.77,14.78-3.19.23-6.38.45-9.57.68Z"/>
        <path class="cls-8" d="M39.23,102.61s-31.76,15.16-31.76,15.16l6.51,4.03c6.1-1.43,11.72-2.45,16.74-3.18,0,0,6.58-.95,13.14-1.44,17.84-1.32,51.94.93,71.17,6.22,1.76.48,6.83,1.94,13.65,1.88,5.95-.05,10.36-1.24,12.09-1.69,9.82-2.55,35.31-9.19,59.31-7.19,2.66.22,7.34.86,16.69,2.14,9.86,1.35,17.97,2.61,23.52,3.5l2.81-4.67-34.58-13.8s-8.93.31-10.86.58c-17.39,2.46-23.75.57-81.82,1.75-45.39.93-51.03,2.28-62.52-1.17-3.12-.93-7.73-2.54-14.07-2.14Z"/>
        <path class="cls-8" d="M60.81,107.66c.62.28,2.74,1.17,2.74,1.17l65.39-1.7,58.46,1.25s2.88-.56,4.3-.88c-.21-1.75-.42-3.49-.64-5.24-26.85-3.43-48.64-4-63.53-3.89-29.26.21-66.4,3.29-66.4,3.29-.19.64-.37,1.41-.46,2.28-.16,1.48-.04,2.75.14,3.71Z"/>
        <path class="cls-8" d="M98.29,58.58c.07,9.85.15,19.69.22,29.54,2.03-1.06,4.06-2.11,6.1-3.17-.06-7.76-.12-15.52-.18-23.28-2.05-1.03-4.1-2.06-6.14-3.09Z"/>
        <path class="cls-8" d="M127.24,43.09c-9.72,5.14-19.43,10.28-29.15,15.42,2.01,1.19,4.02,2.37,6.03,3.56,7.66-4.05,15.31-8.1,22.97-12.15.05-2.27.1-4.55.15-6.82Z"/>
        <path class="cls-8" d="M156.54,57.71c-9.86-4.87-19.72-9.75-29.58-14.62.12,2.27.24,4.55.36,6.82,7.77,3.84,15.54,7.68,23.31,11.52,1.97-1.24,3.94-2.48,5.91-3.72Z"/>
        <path class="cls-8" d="M156.54,87.71c-.07-9.92-.15-19.84-.22-29.76-2.03,1.07-4.06,2.13-6.1,3.2.06,7.82.12,15.63.18,23.45,2.05,1.04,4.1,2.07,6.14,3.11Z"/>
        <path class="cls-8" d="M127.45,103.62c9.76-5.16,19.52-10.32,29.28-15.48-2.01-1.18-4.03-2.37-6.04-3.55-7.69,4.07-15.38,8.13-23.07,12.2-.05,2.28-.11,4.55-.16,6.83Z"/>
        <path class="cls-8" d="M98.41,88.23c9.74,5.11,19.49,10.22,29.23,15.34-.06-2.28-.12-4.55-.18-6.83-7.68-4.03-15.36-8.06-23.04-12.09-2,1.19-4.01,2.39-6.01,3.58Z"/>
        <polygon class="cls-8" points="156.27 87.71 127.5 102.68 98.51 88.12 98.29 58.58 127.05 43.61 156.05 58.17 156.27 87.71"/>
        <polygon class="cls-8" points="150.13 84.62 127.45 96.42 104.61 84.94 104.43 61.67 127.1 49.87 149.95 61.35 150.13 84.62"/>
        <polygon class="cls-8" points="34.86 89 65.32 89.29 63.51 107.96 31.77 104.41 34.86 89"/>
        <polygon class="cls-8" points="216.34 89 185.88 89.29 187.69 107.96 219.43 104.41 216.34 89"/>
        <path class="cls-8" d="M167.44,41.72c.44-6.62-3.68-12.51-9.6-14.26-4.61-1.36-9.76-.05-13.48,3.31V12.24c2.03,1.04,5.13,2.47,9.11,3.6,4.66,1.33,6.88,1.22,10.45,2.18,3.09.83,7.37,2.51,12.12,6.3-2.87,5.8-5.73,11.6-8.6,17.39Z"/>
        <path class="cls-8" d="M86.81,41.72c-.44-6.62,3.68-12.51,9.6-14.26,4.61-1.36,9.76-.05,13.48,3.31-.14-6.38-.28-12.76-.42-19.15-1.31.82-3.41,2.02-6.18,3.05-6.14,2.28-8.03.93-12.95,3.37-2.49,1.23-2.94,2.04-7.06,4.07-1.99.98-3.69,1.68-4.84,2.13,2.8,5.83,5.59,11.66,8.39,17.49Z"/>
        <path class="cls-8" d="M109.89,26c.64-.79,7.36-8.86,18.44-8.36,9.25.42,14.77,6.5,15.7,7.56-.16-4.51-.32-9.03-.48-13.54-3.03-1.44-8.12-3.38-14.7-3.77-8.57-.51-15.21,1.86-18.52,3.31-.14,4.94-.29,9.87-.43,14.81Z"/>
        <path class="cls-8" d="M28.63,113.45c-.06-1.15,15.55-2.91,21.56-3.5,6.05-.59,8.4-.57,30.54-1.2,15.22-.43,17.24-.53,27.9-.79,7.87-.19,11.74-.34,17.64-.38,6.81-.05,12.26.03,16.43.1,9.33.14,8.43.28,18.14.44.77.01,6.73.12,18.65.34,1.38.03,4.28.08,8.09.34,0,0,3.08.24,6.27.55,15.2,1.49,32.85,4.36,32.75,5.27-.08.77-13.62-.16-26.08-.73-23.32-1.07-32.9-.46-76.6.15-49.56.68-95.19,1.31-95.29-.58Z"/>
        <path class="cls-8" d="M94.74,123.81c10.75,3.06,21.49,6.12,32.24,9.18,10.35-3.11,20.71-6.22,31.06-9.33-10.34,1.88-20.67,3.76-31.01,5.64-10.76-1.83-21.53-3.65-32.29-5.48Z"/>
        <path class="cls-8" d="M70.24,149.61c-2.06-6.37-4.12-12.73-6.18-19.1.95,6.9,1.91,13.8,2.86,20.71l21.86,9.48,8.29,8.75c5.51-4.08,10.41-7.11,14.12-9.23,10.37-5.95,13.58-6.08,14.83-6.08,5.27.02,9.3,2.6,14.42,5.88,8.46,5.41,14.07,9.28,14.07,9.28,2.61-2.82,5.23-5.64,7.84-8.46l20.51-9.19s3.51-20.67,2.86-20.71c-.6-.03-5.28,17.93-5.28,17.93-6.84,2.55-13.67,5.1-20.51,7.66-2.17,2.28-4.34,4.55-6.5,6.83-2.25-1.74-4.95-3.7-8.06-5.74-4.48-2.94-6.79-4.43-10.25-5.71-2.81-1.04-5.82-2.15-9.76-1.89-2.81.18-4.81,1.02-8.82,2.7-3.77,1.57-6.43,3.13-9.65,5.03-2.28,1.34-5.28,3.21-8.72,5.61-2.16-2.03-4.32-4.05-6.48-6.08-7.15-2.56-14.31-5.12-21.46-7.68Z"/>
        <g>
          <path class="cls-14" d="M81.92,170.14c2.29-3.15,4.58-6.3,6.87-9.45"/>
          <path class="cls-14" d="M81.92,170.14c.38-4.15,3.14-7.68,6.83-9.48.22.75-.47,2.4-.72,3.08-1.28,2.76-3.16,5.21-6.1,6.4h0Z"/>
        </g>
        <g>
          <path class="cls-14" d="M90.21,178.86c2.28-3.14,4.57-6.28,6.85-9.42"/>
          <path class="cls-14" d="M90.21,178.86c.38-4.14,3.13-7.66,6.81-9.45.22.74-.47,2.4-.72,3.08-1.28,2.76-3.15,5.2-6.09,6.37h0Z"/>
        </g>
        <g>
          <path class="cls-14" d="M169.26,170.27c-2.29-3.15-4.58-6.3-6.87-9.45"/>
          <path class="cls-14" d="M169.26,170.27c-3.82-1.64-6.33-5.36-6.9-9.42.78.02,2.14,1.19,2.71,1.64,2.23,2.07,3.98,4.62,4.2,7.78h0Z"/>
        </g>
        <g>
          <path class="cls-14" d="M161.1,178.3c-2.18-3-4.36-6-6.54-9"/>
          <path class="cls-14" d="M161.1,178.3c-3.71-1.49-6.12-5.06-6.58-8.97,3.39,1.09,6.46,5.33,6.58,8.97h0Z"/>
        </g>
        <g>
          <path class="cls-14" d="M88.79,160.69c.97-1.13,1.94-2.27,2.92-3.4"/>
          <path class="cls-14" d="M88.79,160.69c-.85-2.11.72-3.81,2.88-3.43.89,2.03-.63,3.96-2.88,3.43h0Z"/>
        </g>
        <g>
          <path class="cls-14" d="M66.92,151.21l3.32-1.6"/>
          <path class="cls-14" d="M66.92,151.21c-.1-2.18,1.64-2.95,3.3-1.65.15,2.13-1.6,3.12-3.3,1.65h0Z"/>
        </g>
        <g>
          <path class="cls-14" d="M97.08,169.44c.37-2.03.74-4.05,1.11-6.08"/>
          <path class="cls-14" d="M97.08,169.44c-1.74-1.97-1.12-4.76,1.06-6.08,1.75,1.81,1.24,4.9-1.06,6.08h0Z"/>
        </g>
        <g>
          <path class="cls-14" d="M154.53,169.3c-.36-1.98-.72-3.95-1.07-5.93"/>
          <path class="cls-14" d="M154.53,169.3c-2.31-1.19-2.7-3.96-1.12-5.92,2.26,1.03,2.87,4.05,1.12,5.92h0Z"/>
        </g>
        <g>
          <path class="cls-14" d="M162.39,160.81c-.81-1.43-1.62-2.85-2.44-4.28"/>
          <path class="cls-14" d="M162.39,160.81c-2.36-.04-3.5-2.22-2.48-4.25,2.27-.07,3.68,2.24,2.48,4.25h0Z"/>
        </g>
        <g>
          <path class="cls-14" d="M182.87,151.65c-1.22-.75-2.44-1.51-3.66-2.26"/>
          <path class="cls-14" d="M182.87,151.65c-1.9,1.19-3.77-.06-3.68-2.22.82-.61,1.9-.6,2.64-.19.82.53,1.06,1.26,1.04,2.41h0Z"/>
        </g>
        <path class="cls-14" d="M110.31,10.72c1.36,10.41,1.21,20.91.8,31.37-.17,3.49-.39,6.97-.8,10.46h-.85c-.41-3.49-.63-6.97-.8-10.46-.41-10.47-.56-20.96.8-31.37,0,0,.85,0,.85,0h0Z"/>
        <path class="cls-14" d="M144.45,10.72c1.36,10.41,1.21,20.91.8,31.37-.17,3.49-.39,6.97-.8,10.46h-.85c-.41-3.49-.63-6.97-.8-10.46-.41-10.47-.56-20.96.8-31.37,0,0,.85,0,.85,0h0Z"/>
        <g>
          <path class="cls-14" d="M77.79,23.96c3.95,6.84,8.04,14.92,11.73,24.22,4.32,10.88,7.09,20.94,8.91,29.6"/>
          <path class="cls-14" d="M78.15,23.75c11.13,15.9,18.03,34.76,20.69,53.94,0,0-.83.17-.83.17-4.05-13.83-8.8-27.38-14.68-40.54-1.91-4.4-3.94-8.74-5.92-13.16,0,0,.73-.42.73-.42h0Z"/>
        </g>
        <g>
          <path class="cls-14" d="M176.61,23.96c-3.95,6.84-8.04,14.92-11.73,24.22-4.32,10.88-7.09,20.94-8.91,29.6"/>
          <path class="cls-14" d="M176.98,24.18c-8.15,17.42-15.34,35.17-20.6,53.69,0,0-.83-.17-.83-.17,1.89-14.45,6.52-28.53,13.12-41.5,2.25-4.31,4.72-8.5,7.57-12.44l.73.42h0Z"/>
        </g>
        <g>
          <path class="cls-14" d="M78.42,24.23c1.14-.55,2.57-1.23,4.23-1.99,1.75-.8,3.09-1.39,3.59-1.6,2.88-1.25,4.32-1.88,6.26-2.58.63-.23,2.56-.91,4.47-1.46.33-.09,1.43-.41,2.59-.73.84-.24,1.12-.31,1.31-.36.71-.2,2.59-.73,4.55-1.6,1.06-.47,2.47-1.2,4.05-2.29"/>
          <path class="cls-14" d="M78.42,24.23c6.8-5.12,14.77-8.66,23.13-10.17,2.67-.57,5.24-1.36,7.91-2.44-1.92,2.15-4.51,3.7-7.2,4.74-8.01,2.61-15.67,5.74-23.84,7.87h0Z"/>
        </g>
        <g>
          <path class="cls-14" d="M176.04,24.32c-.99-.6-2.41-1.41-4.18-2.28-1.06-.52-1.89-.87-3.49-1.55-3.08-1.31-4.62-1.96-6.41-2.52-.37-.11-2.48-.78-4.33-1.16-.96-.2-1.52-.33-2.64-.58-.18-.04-.46-.11-.83-.2-.8-.21-1.38-.39-1.58-.46-1.71-.54-2.64-.77-3.66-1.11-1.08-.37-2.62-1-4.43-2.13"/>
          <path class="cls-14" d="M176.04,24.32c-7.5-2.48-14.26-5.11-22.01-6.94-3.37-1.2-6.98-2.43-9.54-5.06,1.38.45,2.71.9,4.05,1.19,1.94.4,4.18.81,6.14,1.25,7.8,1.09,15.39,4.39,21.36,9.55h0Z"/>
        </g>
        <g>
          <path class="cls-14" d="M110.32,11.19c1.26-.71,3.22-1.68,5.75-2.38,1.45-.4,3.34-.79,11.26-.78,7.92.01,9.68.41,11.31,1,2.21.8,3.86,1.86,4.9,2.62"/>
          <path class="cls-14" d="M110.32,11.19c4.43-4.24,10.95-4.76,16.72-4.66,4.3.14,9.18-.04,13.06,2.31,1.28.78,2.47,1.7,3.44,2.82-1.35-.59-2.67-1.12-4.02-1.49-4.09-1.2-8.23-.49-12.48-.62-5.8-.06-11.19-.31-16.72,1.65h0Z"/>
        </g>
        <g>
          <path class="cls-14" d="M44.81,112.78c-1.82.07-3.65.14-5.47.2-.91.45-2.35,1.14-4.11,1.96-7.19,3.34-10.03,3.76-14.4,6.17-1.66.92-4.15,2.45-6.96,4.88,1.82,1.61,3.64,3.21,5.46,4.82,2.42-.71,5.06-1.38,7.9-1.95,3.38-.68,6.54-1.14,9.45-1.43,0,0,9-1.18,16.67-1.6,6-.33,24.18,1.01,48.38,5.06"/>
          <path class="cls-14" d="M44.81,112.78c-1.6,1.11-3.52,1.58-5.42,1.71,0,0,.61-.15.61-.15-4.23,2.24-8.73,4.35-13.22,5.99-4.37,1.63-8.31,3.88-11.87,6.88,0,0,.01-2.43.01-2.43l5.39,4.91-1.42-.32c3.07-.67,7.25-1.79,10.3-2.26,6.79-1.03,13.96-1.63,20.8-2.11,10.43-.66,20.91,1.08,31.21,2.39,6.85,1.04,13.74,2.17,20.5,3.51-6.86-.98-13.74-1.83-20.63-2.54-10.3-.94-20.61-2.21-30.94-1.28-8.41.92-17.29,1.65-25.47,3.86-.42.11-5.45,1.44-5.75,1.51,0,0-.62-.53-.62-.53-.97-.84-6.05-5.17-6.93-5.93,4.06-3.81,8.86-7.1,14.11-8.97,4.52-1.66,8.79-3.43,13.16-5.42,0,0,.34-.15.34-.15,1.99-.04,4.04.27,5.8,1.3h0Z"/>
        </g>
        <g>
          <path class="cls-14" d="M207.44,112.05c1.86.1,3.72.19,5.58.29.9.48,2.3,1.23,4.05,2.08,7.09,3.47,10.22,3.5,14.4,6.17,1.58,1.01,3.88,2.74,6.21,5.69-1.65,1.19-3.3,2.39-4.95,3.58-4.42-.94-10.24-2.03-17.12-2.95,0,0-8.93-1.19-16.67-1.6-5.98-.32-23.68.88-47.21,4.75"/>
          <path class="cls-14" d="M207.44,112.05l5.66-1.22.19-.04.45.22c2.12,1.03,4.21,2.16,6.35,3.07,2.15.93,4.31,1.7,6.61,2.5,2.3.79,4.72,1.92,6.77,3.43,2.07,1.5,3.87,3.33,5.42,5.31l.99,1.27-1.3.92-4.98,3.54-.55.39-.63-.14c-6.6-1.45-13.25-2.7-19.96-3.58-3.36-.44-6.72-.84-10.09-1.14-1.68-.15-3.38-.3-5.02-.34-1.67-.04-3.36-.01-5.05.02-6.76.19-13.54.74-20.3,1.41-6.76.66-13.52,1.46-20.26,2.4v-.02c6.68-1.26,13.4-2.39,20.14-3.37,6.75-.92,13.52-1.74,20.34-2.19,1.71-.1,3.42-.2,5.15-.2,1.76,0,3.45.1,5.16.2,3.41.21,6.82.5,10.21.85,6.81.71,13.58,1.7,20.29,3.06l-1.18.25,4.92-3.63-.3,2.2c-1.42-1.76-3.05-3.34-4.87-4.62-1.82-1.32-3.78-2.24-6-3.01-2.22-.78-4.57-1.6-6.8-2.62-2.25-1-4.37-2.17-6.51-3.31l.64.18-5.5-1.8Z"/>
        </g>
        <g>
          <path class="cls-14" d="M41.52,89.7c-1.8.26-3.59.51-5.39.77-.83,4.22-1.66,8.43-2.49,12.65,1.5.47,2.99.95,4.49,1.42"/>
          <path class="cls-14" d="M41.52,89.7l-5.18,2.26,1.27-1.2-2.49,12.65-1.02-1.73,4.03,2.86c-1.01,0-5.39.02-6.31.02.42-2.13,2.66-13.54,3.09-15.72.54.08,5.92.76,6.61.86h0Z"/>
        </g>
        <g>
          <path class="cls-14" d="M209.58,89.63c1.8.26,3.59.51,5.39.77.83,4.22,1.66,8.43,2.49,12.65-1.5.47-2.99.95-4.49,1.42"/>
          <path class="cls-14" d="M209.58,89.63c.72-.1,6.05-.78,6.61-.86.43,2.18,2.67,13.58,3.09,15.72-.89,0-5.33-.02-6.31-.02,0,0,4.03-2.86,4.03-2.86l-1.02,1.73-2.49-12.65,1.27,1.2-5.18-2.26h0Z"/>
        </g>
        <g>
          <path class="cls-14" d="M49.58,137.16c.98,3.42,1.9,7.43,2.49,11.96.62,4.77.75,9.07.64,12.76"/>
          <path class="cls-14" d="M49.7,137.12c4.29,7.35,5.21,16.58,3.01,24.75-1.39-6.13-2.11-12.19-2.86-18.39-.21-2.05-.4-4.12-.39-6.29l.24-.07h0Z"/>
        </g>
        <g>
          <path class="cls-14" d="M62.34,166.43l-1.32,2.37c-2.83,5.16-5.65,10.33-8.48,15.49,3.83,4.34,6.93,7.92,9.03,10.36,9.31,10.81,12.43,14.84,16.99,19.93,1.62,1.81,3.02,3.46,5.83,6.75,2.97,3.49,1.47,1.85,2.11,2.58.79.89,1.43,1.52,1.98,2.63.28.57.44,1.06.53,1.39"/>
          <path class="cls-14" d="M62.4,166.47c.6,1.31.25,2.08-.15,2.83-.37.77-.71,1.54-1.09,2.3-2.22,4.59-4.84,8.96-7.3,13.42,0,0-.19-1.72-.19-1.72,9.09,10.35,18.86,22.12,27.65,32.63.99,1.25,5.08,6.02,5.92,7.3-.17-.21-.09-.11-.05-.06,0,0,.28.33.28.33,0,0,.59.7.59.7.9,1,1.6,2.35.95,3.74-.76-.4-1.11-.81-1.46-1.22-1.92-2.45-5.93-6.78-8.07-9.18-8.8-9.69-19.31-22.43-28.09-32.24,0,0-.69-.79-.69-.79,2.61-4.78,5.03-9.67,7.88-14.32.43-.73.9-1.44,1.35-2.16.43-.73.9-1.44,2.33-1.62l.13.07h0Z"/>
        </g>
        <g>
          <path class="cls-14" d="M63.43,170.5c5.13,4.21,12.75,11.53,18.9,22.55,6.99,12.53,8.88,24.12,9.45,30.91"/>
          <path class="cls-14" d="M63.44,170.49c17.63,11.38,28.74,32.52,28.34,53.47-3.84-20.87-13.67-38.34-28.34-53.47h0Z"/>
        </g>
        <path class="cls-8" d="M126.26,176.83c.1,11.57.2,23.14.3,34.7-1.58-.67-3.17-1.34-4.75-2.01-.06-10.34-.11-20.69-.17-31.03l4.62-1.66Z"/>
        <path class="cls-8" d="M126.26,176.83c.1,11.57.2,23.14.3,34.7,1.41-.51,2.81-1.02,4.22-1.53.13-10.43.25-20.86.38-31.29-1.63-.63-3.27-1.25-4.9-1.88Z"/>
        <path class="cls-8" d="M112.12,181.97c.4,11.59.79,23.18,1.19,34.78-1.14-.31-2.27-.63-3.41-.94-.35-10.91-.7-21.83-1.05-32.74,1.09-.37,2.18-.73,3.26-1.1Z"/>
        <path class="cls-8" d="M112.12,181.97c.4,11.59.79,23.18,1.19,34.78.82-1.24,1.65-2.49,2.47-3.73-.21-10.74-.41-21.47-.62-32.21-1.01.39-2.03.77-3.04,1.16Z"/>
        <path class="cls-8" d="M98.29,186.87c1.74,11.25,3.48,22.49,5.22,33.74.77-.97,1.55-1.93,2.32-2.9-1.66-10.58-3.33-21.17-4.99-31.75-.85.3-1.7.61-2.55.91Z"/>
        <path class="cls-8" d="M152.42,186.87c-1.71,11.28-3.42,22.55-5.13,33.83-.5-1-1.01-1.99-1.51-2.99,1.66-10.49,3.32-20.98,4.98-31.48.55.21,1.11.42,1.66.64Z"/>
        <path class="cls-8" d="M139.9,182.06c-.38,11.62-.77,23.24-1.15,34.85.99-.37,1.98-.74,2.97-1.11.35-10.88.69-21.77,1.04-32.65-.95-.36-1.9-.73-2.85-1.09Z"/>
        <path class="cls-8" d="M139.9,182.06c-.38,11.62-.77,23.24-1.15,34.85-.64-1.14-1.29-2.28-1.93-3.41.22-10.79.43-21.58.65-32.38.81.31,1.63.62,2.44.94Z"/>
        <path class="cls-8" d="M103.51,220.6c3.27-1.29,6.53-2.57,9.8-3.86-1.14-.31-2.27-.63-3.41-.94-1.36.63-2.71,1.26-4.07,1.9-.77.97-1.55,1.93-2.32,2.9Z"/>
        <path class="cls-8" d="M113.3,216.75c4.42-1.74,8.84-3.48,13.25-5.22-1.58-.67-3.17-1.34-4.75-2.01-2.01,1.09-4.01,2.17-6.02,3.26-.83,1.32-1.65,2.65-2.48,3.97Z"/>
        <path class="cls-8" d="M138.75,216.92c-4.06-1.8-8.12-3.59-12.19-5.39,1.41-.51,2.81-1.02,4.22-1.53,2.01,1.17,4.02,2.33,6.03,3.5.64,1.14,1.29,2.28,1.93,3.41Z"/>
        <path class="cls-8" d="M147.29,220.69c-2.85-1.26-5.7-2.52-8.55-3.78.99-.37,1.98-.74,2.97-1.11,1.36.63,2.71,1.26,4.07,1.9.5,1,1.01,1.99,1.51,2.99Z"/>
        <g>
          <path class="cls-14" d="M101.64,213.51c8.33-3.54,16.66-7.07,24.99-10.61,7.5,3.62,15.01,7.25,22.51,10.87"/>
          <polygon class="cls-14" points="101.64 213.51 126.04 201.51 126.67 201.2 127.28 201.54 149.14 213.77 125.97 204.26 127.22 204.29 101.64 213.51 101.64 213.51"/>
        </g>
        <ellipse class="cls-8" cx="55" cy="98.79" rx="7.76" ry="7.5"/>
        <ellipse class="cls-8" cx="55.06" cy="97.99" rx="7.76" ry="7.5"/>
        <ellipse class="cls-8" cx="55.06" cy="97.99" rx="5.53" ry="5.35"/>
        <line class="cls-8" x1="55.31" y1="92.65" x2="55.06" y2="103.34"/>
        <path class="cls-8" d="M49.99,100.13c1.77-.71,3.55-1.43,5.32-2.14"/>
        <path class="cls-8" d="M60.59,100.13l-5.32-2.14"/>
        <ellipse class="cls-8" cx="196.28" cy="98.39" rx="7.76" ry="7.5"/>
        <ellipse class="cls-8" cx="196.22" cy="97.59" rx="7.76" ry="7.5"/>
        <ellipse class="cls-8" cx="196.22" cy="97.59" rx="5.53" ry="5.35"/>
        <path class="cls-8" d="M112.64,74.41c4.66,4.04,9.33,8.08,13.99,12.11,6.15-8.17,12.31-16.34,18.46-24.51"/>
        <path class="cls-8" d="M113.94,72.79c4.15,3.67,8.31,7.35,12.46,11.02,5.8-7.53,11.59-15.06,17.39-22.59"/>
        <g>
          <path class="cls-14" d="M99.74,87.39c1.29-.62,2.57-1.24,3.86-1.86"/>
          <path class="cls-14" d="M99.74,87.39c.02-2.24,2.07-3.14,3.84-1.9.07,1.02-.51,1.92-1.26,2.33-.88.41-1.62.22-2.58-.42h0Z"/>
        </g>
        <g>
          <path class="cls-14" d="M99.54,59.28c1.3.61,2.61,1.21,3.91,1.82"/>
          <path class="cls-14" d="M99.54,59.28c1.75-1.4,3.76-.38,3.93,1.78-.75.7-1.82.82-2.61.5-.88-.43-1.21-1.12-1.32-2.27h0Z"/>
        </g>
        <g>
          <path class="cls-14" d="M127.49,97.5c0,1.28,0,2.57.01,3.85"/>
          <path class="cls-14" d="M127.49,97.5c2.02.9,1.95,2.87.06,3.85-.91-.32-1.51-1.12-1.56-1.92.02-.91.53-1.41,1.5-1.93h0Z"/>
        </g>
        <g>
          <path class="cls-14" d="M151.09,85.18c1.33.63,2.66,1.25,3.98,1.88"/>
          <path class="cls-14" d="M151.09,85.18c1.79-1.38,3.82-.34,4,1.84-.4.46-1.17.58-1.52.64-1.49.11-2.38-.91-2.49-2.48h0Z"/>
        </g>
        <g>
          <path class="cls-14" d="M150.93,60.77c1.32-.63,2.64-1.26,3.96-1.9"/>
          <path class="cls-14" d="M150.93,60.77c.05-2.26,2.14-3.17,3.94-1.94.1.61-.28,1.26-.46,1.58-.85,1.22-2.2,1.26-3.48.36h0Z"/>
        </g>
        <g>
          <path class="cls-14" d="M127.09,48.82c0-1.29-.02-2.59-.02-3.88"/>
          <path class="cls-14" d="M127.09,48.82c-2.02-.9-1.96-2.89-.07-3.88.92.33,1.51,1.13,1.56,1.93-.02.92-.53,1.42-1.49,1.95h0Z"/>
        </g>
        <path class="cls-8" d="M109.24,141.2l-28.35-11.28s7.08,17.92,18.7,16.91c3.97-.34,9.65-5.64,9.65-5.64Z"/>
        <path class="cls-8" d="M142.2,141.99l28.35-11.28s-7.08,17.92-18.7,16.91c-3.97-.34-9.65-5.64-9.65-5.64Z"/>
        <ellipse class="cls-7" cx="95.37" cy="139.84" rx="20.41" ry="19.74"/>
        <ellipse class="cls-7" cx="156.88" cy="140.39" rx="20.41" ry="19.74"/>
        <g>
          <polyline class="cls-14" points="98.29 186.87 126.26 176.83 152.42 186.87"/>
          <path class="cls-14" d="M98.28,186.84l27.47-11.43s.53-.22.53-.22c0,0,.52.23.52.23l25.62,11.45-26.7-8.63h1.05s-28.54,8.78-28.49,8.6h0Z"/>
        </g>
        <path class="cls-8" d="M98.84,190.47c.83-.42,1.67-.84,2.5-1.27-.17-1.08-.34-2.17-.51-3.25-.85.3-1.7.61-2.55.91.19,1.2.37,2.4.56,3.61Z"/>
        <path class="cls-8" d="M151.88,190.38l-1.67-.89c.17-1.08.34-2.17.51-3.25.56.21,1.13.42,1.69.64-.18,1.17-.35,2.34-.53,3.51Z"/>
        <path class="cls-8" d="M108.99,186.12c1.04,0,2.08-.02,3.12-.02l3.11-1.77c0-1.09,0-2.17.01-3.26-1.06.4-2.13.79-3.19,1.19-1.04.36-2.08.71-3.12,1.07.03.93.05,1.86.08,2.79Z"/>
        <path class="cls-8" d="M142.65,186.23c-.93,0-1.86-.01-2.79-.02-.82-.54-1.65-1.09-2.47-1.63.02-1.03.04-2.07.06-3.1.82.29,1.65.58,2.48.89.95.35,1.9.69,2.83,1.04-.04.94-.08,1.88-.12,2.82Z"/>
        <path class="cls-8" d="M121.64,182.24c1.56.28,3.12.56,4.68.84,1.6-.29,3.19-.58,4.79-.87.01-1,.03-1.99.04-2.99-1.64-.59-3.28-1.18-4.91-1.77-1.54.52-3.07,1.03-4.61,1.55,0,1.08,0,2.16,0,3.25Z"/>
        <g>
          <path class="cls-14" d="M75.28,92.81c-.83-4.47-2.45-10.32-5.73-16.62-5.48-10.52-12.94-17.17-17.66-20.75"/>
          <path class="cls-14" d="M75.28,92.81c-2.56-7.06-5.47-13.78-9.45-20.08-3.92-6.33-8.75-11.88-13.97-17.26,0,0,.06-.08.06-.08,13.29,7.42,22.9,22.08,23.37,37.41h0Z"/>
        </g>
        <g>
          <path class="cls-14" d="M77.78,24.71c-.34.29-.86.76-1.46,1.38-1.88,1.94-2.81,3.54-4.03,5.49-.63,1-1.52,2.21-3.32,4.62-2,2.68-3.63,4.44-6.58,7.59-6.03,6.43-7.97,7.71-10.51,11.66-1.39,2.16-2.15,3.85-2.52,4.77-.87,2.11-1.07,3.34-1.72,5.63-.67,2.34-1.33,4.05-2.65,7.48-.99,2.56-2.06,4.98-4.14,9.71-1.01,2.28-1.85,4.16-2.43,5.45"/>
          <path class="cls-14" d="M77.78,24.71c-2.24,2.34-3.66,5.03-5.22,7.84,0,0-2.59,4.06-2.59,4.06-4.33,6.55-10.61,12-15.6,17.88-1.82,2.38-3.33,5.09-4.33,7.87-.89,2.9-1.82,6.22-3.11,9.04-1.17,2.86-2.71,5.88-4.06,8.65-1.4,2.86-2.89,5.66-4.46,8.43,2.03-6.02,4.32-11.89,6.42-17.88,1.12-3.07,1.72-5.89,2.58-9.09.98-3.24,2.62-6.14,4.59-8.82,1.71-2.35,4.61-4.98,6.63-7.06,2.21-2.23,4.46-4.49,6.6-6.75,2.16-2.23,4.01-4.74,6.02-7.18,1.87-2.54,3.85-5.21,6.54-6.99h0Z"/>
        </g>
        <g>
          <path class="cls-14" d="M174.99,92.04c.83-4.47,2.45-10.32,5.73-16.62,5.48-10.52,12.94-17.17,17.66-20.75"/>
          <path class="cls-14" d="M174.99,92.04c.47-15.33,10.08-29.99,23.37-37.41,0,0,.06.08.06.08-5.22,5.37-10.05,10.93-13.97,17.26-3.98,6.3-6.89,13.02-9.45,20.08h0Z"/>
        </g>
        <g>
          <path class="cls-14" d="M176.57,24.75c.3.33.74.83,1.23,1.47,1.59,2.05,2.4,3.71,3.22,5.25.38.72,1.29,2.23,3.12,5.25.8,1.33,2.96,4.88,5.63,8.36,4.52,5.89,6.83,6.74,10.06,11.84,1.3,2.05,2.56,4.38,2.56,4.38.41.75,1.51,2.8,2.56,5.16.62,1.41.99,2.4,2.81,7.87,1.47,4.42,2.07,6.31,3.32,10.03.59,1.74,1.07,3.16,1.38,4.06"/>
          <path class="cls-14" d="M176.57,24.75c2.15,1.86,3.79,4.25,5.26,6.66,2.6,3.81,5.13,7.77,7.93,11.42,2.27,2.99,4.68,5.54,7.36,8.22,2.69,2.71,4.6,6.15,6.41,9.45.95,2.03,2.38,4.77,3.13,6.88,2.26,6.97,4.05,13.94,5.78,21.05-3-6.58-5.43-13.47-8.1-20.15-.63-1.55-2.67-5.16-3.13-6.18-1.93-3.16-3.63-6.36-6.28-8.99-2.58-2.65-5.28-5.57-7.35-8.7-2.72-3.87-4.89-8.12-7.04-12.31-1.13-2.59-2.29-5.05-3.98-7.35h0Z"/>
        </g>
      </g>
      <polygon class="cls-6" points="195.69 136.37 192.55 161.14 184.04 162.62 187.37 136.56 195.69 136.37"/>
      <path d="M192.36,119.18c-6.32,31.51-7.3,41.59-6.32,42.94.11.15.74,2.33.74,2.33,0,0-.85,1.37-1.33,1.68-2.13-2.22-4.27-4.44-6.4-6.65,2.65-13.49,5.3-26.98,7.95-40.48l5.36.18Z"/>
      <path class="cls-6" d="M180.95,161.72l4.51,4.41,8.59,15.94-35.35,42.14-9.7-9.43c.45-11.29,2.55-20.25,4.5-26.53,1.52-4.88,2.55-8.14,4.89-11.71,6.42-9.82,17.05-13.44,22.57-14.82Z"/>
      <path d="M183.77,164.48c-2.76,1.13-6.58,3.03-10.52,6.22-6.27,5.07-9.43,10.65-11.43,14.26-3.14,5.67-4.48,10.35-7.14,19.7-1.47,5.16-2.49,9.51-3.15,12.58-.84-.82-1.69-1.64-2.53-2.46.27-3.98.84-9.71,2.22-16.5,1.86-9.2,3.09-15.26,6.61-20.85,1.91-3.04,7.99-11.49,23.13-15.72.94.92,1.88,1.84,2.82,2.76Z"/>
      <path class="cls-12" d="M194.98,137.12c-.28,3.46-1.03,8.27-1.46,11.73-.46,3.48-.97,8.3-1.49,11.74-1.17-5.9-.75-12.07.73-17.87.51-1.94,1.17-3.84,2.07-5.64,0,0,.15.04.15.04h0Z"/>
      <path class="cls-12" d="M183.22,164.9c1.04.35,1.46,1.04,1.85,1.74l1.21,2.08c2.49,4.37,4.73,8.87,7.07,13.32,0,0-.43.5-.43.5-8.4,9.72-17.41,21.05-25.78,30.72-2.89,3.35-5.86,6.77-8.5,10.13-.14-.61-.1-1.25.1-1.82.38-.96,1.25-1.83,1.84-2.57.13-.1-.26.05,0,.72.02.42,1.14.21.66.29.08.13-.86,0-.76-.83.1-.26.12-.23.22-.4.63-.88,4.5-5.6,5.26-6.55,8.13-9.92,17.13-21.15,25.49-30.97,0,0-.12,1.09-.12,1.09-2.26-4.24-4.61-8.43-6.72-12.75,0,0-1.04-2.17-1.04-2.17-.37-.71-.71-1.43-.43-2.49l.09-.05h0Z"/>
      <path class="cls-12" d="M182.18,168.8c-14.04,13.57-23.37,31.4-26.06,50.82.34-19.64,10.18-39.22,26.06-50.82h0Z"/>
      <polygon class="cls-6" points="54.77 136.9 57.92 161.66 66.42 163.14 63.09 137.08 54.77 136.9"/>
      <path d="M58.1,119.71c6.32,31.51,7.3,41.59,6.32,42.94-.11.15-.74,2.33-.74,2.33,0,0,.85,1.37,1.33,1.68,2.13-2.22,4.27-4.44,6.4-6.65-2.65-13.49-5.3-26.98-7.95-40.48l-5.36.18Z"/>
      <path d="M66.88,120.07s-2.53,25.26,6.65,31.05c5.68,3.58,11.64,1.11,19.04,7.02,5.15,4.12,4.29,6.93,7.76,8.13,8.37,2.89,14.87-12.96,26.8-12.57,10.31.34,12.99,12.42,22.92,11.27,4.2-.48,4.08-2.68,14.79-8.69,10.05-5.63,15.16-7.76,15.16-7.76l2.77-30.5c-5.14.99-13,2.58-22.55,4.81-25.86,6.04-24.12,7.46-31.42,7.76-15.97.66-19.74-6.34-44.91-9.43-7.22-.89-13.18-1.08-17-1.11Z"/>
      <path class="cls-6" d="M63.97,120.66l5.54,41.59c15.29,4.53,21.32,12.66,23.57,16.36,3.06,5.05,4.32,11.37,6.84,24.03,1.45,7.27,2.35,13.39,2.91,17.74,7.79-3.08,15.59-6.16,23.38-9.24,7.08,3.18,14.16,6.35,21.24,9.53.35-3.36.94-8.16,1.96-13.87,2.3-12.93,3.59-20.27,7.35-26.89,2.21-3.9,8.29-12.9,23.41-18.84,2.12-13.22,4.25-26.45,6.37-39.67-1.76-.24-3.53-.48-5.29-.72-1.79,9.37-3.57,18.74-5.36,28.11-3.6,1.93-6.6,3.02-8.73,3.67-1.76.54-4.81,1.35-8.61,3.27-.74.37-1.11.56-1.39.74-3.85,2.47-4.23,6.5-6.19,6.53-.21,0-.39-.04-1.25-.52-3-1.7-4.59-3.26-6.41-4.61-.36-.27-1.93-1.16-5.06-2.96-2.9-1.67-4.36-2.51-5.24-2.85-1.01-.39-3.51-1.25-6.85-1.29-.76,0-3.48,0-6.81,1.1-1.57.52-3.11,1.36-6.13,3.04-2.45,1.36-4.25,2.36-6.69,3.92-4.32,2.75-4.54,3.34-5.78,3.34-2.61,0-3.07-2.57-7.18-5.42-1.45-1.01-2.17-1.22-10.47-4.19-3.22-1.15-6.1-2.19-8.55-3.07-2.05-9.79-4.1-19.57-6.15-29.36,0,0-2.02-.64-4.44.55Z"/>
      <path class="cls-13" d="M126.05,175.34c-8.57,3.18-17.14,6.36-25.71,9.54,1.6,10.69,3.2,21.38,4.8,32.08,7.06-2.88,14.13-5.75,21.19-8.63,6.35,2.9,12.71,5.81,19.06,8.71,1.57-10.72,3.14-21.44,4.71-32.16-8.02-3.18-16.03-6.36-24.05-9.54Z"/>
      <path d="M130.56,177.13c1.93.77,3.86,1.53,5.79,2.3-.2,10.26-.4,20.52-.6,30.78l-5.54-3.33c.12-9.92.23-19.83.35-29.75Z"/>
      <path d="M121.8,176.92c-1.99.74-3.97,1.47-5.96,2.21.19,10.21.38,20.41.57,30.62l5.54-3.33c-.05-9.83-.1-19.67-.16-29.5Z"/>
      <path d="M102.68,184.01c2.46-.91,4.91-1.82,7.37-2.74.32,10.37.64,20.75.96,31.12l-3.74,1.8c-1.53-10.06-3.06-20.12-4.59-30.19Z"/>
      <path d="M148.57,184.28c-2.45-.97-4.91-1.95-7.36-2.92-.32,10.35-.64,20.7-.95,31.04l3.74,1.8c1.52-9.97,3.05-19.95,4.57-29.92Z"/>
      <path class="cls-6" d="M69.51,162.24l-4.51,4.41-8.59,15.94,35.35,42.14,9.7-9.43c-.45-11.29-2.55-20.25-4.5-26.53-1.52-4.88-2.55-8.14-4.89-11.71-6.42-9.82-17.05-13.44-22.57-14.82Z"/>
      <path d="M66.69,165.01c2.76,1.13,6.58,3.03,10.52,6.22,6.27,5.07,9.43,10.65,11.43,14.26,3.14,5.67,4.48,10.35,7.14,19.7,1.47,5.16,2.49,9.51,3.15,12.58.84-.82,1.69-1.64,2.53-2.46-.27-3.98-.84-9.71-2.22-16.5-1.86-9.2-3.09-15.26-6.61-20.85-1.91-3.04-7.99-11.49-23.13-15.72-.94.92-1.88,1.84-2.82,2.76Z"/>
      <path class="cls-6" d="M12.56,118.88l8.69,7.02c9.27-2.12,29.85-6.18,50.98-4.55,10.24.79,18.91,2.79,18.91,2.79,3.11.52,5.33,1.32,5.71,1.41,3.32.77,11.85,3.37,16.08,4.64,3.16.95,7.86,2.36,13.72,4.05,5.02-1.55,9-2.8,11.44-3.57,11.55-3.64,14.63-4.72,20.29-5.91,3.68-.78,7.19-1.33,8.21-1.49,1.8-.28,5.58-.85,9.92-1.26,10.98-1.06,20.06-.65,22.48-.53,7.64.39,13.39,1.27,16.82,1.8,5.59.87,10.41,1.89,14.28,2.82,2.9-2.35,5.8-4.7,8.71-7.05-3.54-1.45-8.73-3.63-14.97-6.47-10.1-4.6-11.35-5.65-12.12-6.36-4.62-4.32-3.88-8.28-7.66-22.29-2.72-10.08-4.42-16.4-8.69-23.47-2.44-4.05-3.55-4.66-6.44-7.82-1.5-1.64-2.98-3.36-5.75-6.97-5.29-6.88-5.89-11.63-11.46-16.16-2.91-2.37-6.15-3.89-7.99-4.76-2.09-.98-4.33-2.04-7.47-2.79-3.2-.77-12.14-2.38-13.86-4.05,0,0-.01-.01-.02-.02-.48-.47-1.31-1.23-2.47-2.01,0,0-.78-.52-1.56-.93-1.38-.72-4.02-1.63-12.84-1.63,0,0-6.47,0-9.6,1.31-1.6.67-2.6,1.37-3.33,1.85-5.14,3.35-10.08,3.98-14.79,5.36,0,0-8.03,2.35-15.71,7.76-6.52,4.6-4.34,5.71-15.71,17.74-6.36,6.73-10.14,9.66-12.73,16.37-.68,1.77-.37,1.43-2.09,7.2-2.22,7.45-3.3,9.87-5.51,16.53-5.05,15.2-6.84,19.04-6.84,19.04,0,0-4,2.25-13.12,6.1-5.89,2.49-10.55,4.78-13.49,6.28Z"/>
      <path class="cls-12" d="M200.92,94.43c-.98-7.42-2.73-13.41-4.27-17.72-1.22-3.41-2.71-7.49-5.66-12.32-2.23-3.65-3.76-5.2-7.54-9.93-2.49-3.12-5.98-7.64-9.98-13.38-3.12,5.3-7.51,13.36-11.76,23.68-6.06,14.69-9.13,22.44-5.78,28.57,4.84,8.86,20.88,9.73,19.9,9.67-13.68-.87-27.37-1.74-41.05-2.6,2.82-5.47,5.68-10.95,8.55-16.43,9.6-18.3,19.27-36.29,29-53.96,1.32,2.12,3.12,5,5.33,8.37,1.24,1.9,3.96,6.06,6.53,9.68,6.72,9.45,7.55,8.35,11.18,14.07,4.35,6.85,6.22,13.23,7.62,18,1.56,5.31,2.35,9.91,2.79,13.3l-4.88.99Z"/>
      <path class="cls-12" d="M49.24,93.51c2.07-6.35,3.74-11.56,4.9-15.16,3.63-11.3,4.12-13.05,5.99-15.92,2.89-4.45,4.64-4.8,10.39-11.39,3.73-4.28,6.4-8.04,8.03-10.46,3.57,5.89,8.25,14.28,12.79,24.83,6.42,14.92,9.19,22.28,6.16,27.94-4.72,8.83-20.88,9.73-19.9,9.67,13.68-.87,27.37-1.74,41.05-2.6-2.95-4.88-5.89-9.86-8.8-14.95-10.7-18.69-20.08-37.03-28.32-54.81-.14.13-.36.33-.63.6-1.24,1.22-2.03,2.28-2.36,2.72-1.07,1.42-4.02,5.27-7.93,10.44h0c-6.17,5.7-9.31,8.62-12.14,12.32-1.62,2.12-2.49,3.25-3.35,5.11-.63,1.37-1.24,3.32-2.47,7.23-.38,1.21-.5,1.52-.8,2.58-.31,1.14-.55,1.9-2.64,8.02-1.8,5.28-3.38,9.86-4.59,13.36,1.54.16,3.09.32,4.63.49Z"/>
      <path class="cls-16" d="M47.04,104.15s-29.2,14.42-29.2,14.42l5.98,3.83c5.61-1.36,10.78-2.33,15.39-3.02,0,0,6.05-.9,12.08-1.36,16.41-1.26,47.75.88,65.43,5.91,1.62.46,6.28,1.84,12.54,1.79,5.47-.05,9.53-1.18,11.11-1.6,9.03-2.43,32.46-8.74,54.52-6.84,2.45.21,6.74.82,15.34,2.03,9.06,1.28,16.52,2.48,21.62,3.33l2.59-4.44-31.79-13.12s-8.21.3-9.98.55c-15.99,2.34-21.83.54-75.22,1.66-41.73.88-46.92,2.17-57.48-1.11-2.87-.89-7.11-2.42-12.94-2.03Z"/>
      <path class="cls-6" d="M65.88,109.58c.57.27,2.52,1.11,2.52,1.11l60.12-1.61,53.75,1.19s2.65-.54,3.95-.83c-.2-1.66-.39-3.32-.59-4.98-24.68-3.26-44.72-3.8-58.41-3.7-26.9.2-61.05,3.13-61.05,3.13-.18.61-.34,1.34-.43,2.16-.15,1.41-.03,2.62.13,3.52Z"/>
      <path class="cls-16" d="M92.51,53.8c.09,11.73.17,23.47.26,35.2,2.34-1.26,4.68-2.52,7.02-3.78-.07-9.25-.14-18.49-.2-27.74-2.36-1.23-4.72-2.45-7.08-3.68Z"/>
      <path class="cls-16" d="M125.88,35.34c-11.2,6.12-22.39,12.25-33.59,18.37,2.32,1.41,4.63,2.82,6.95,4.24,8.82-4.83,17.65-9.65,26.47-14.48.06-2.71.11-5.42.17-8.13Z"/>
      <path class="cls-16" d="M153.89,62.09c-9.07-4.63-18.13-9.26-27.2-13.9.11,2.16.22,4.32.33,6.48,7.14,3.65,14.29,7.3,21.43,10.95,1.81-1.18,3.62-2.36,5.43-3.54Z"/>
      <path class="cls-16" d="M159.65,88.52c-.09-11.82-.17-23.64-.26-35.46-2.34,1.27-4.68,2.54-7.02,3.81.07,9.32.14,18.63.2,27.95,2.36,1.23,4.72,2.47,7.08,3.7Z"/>
      <path class="cls-16" d="M126.12,107.48c11.25-6.15,22.49-12.3,33.74-18.45-2.32-1.41-4.64-2.82-6.97-4.23-8.86,4.85-17.73,9.69-26.59,14.54-.06,2.71-.12,5.43-.18,8.14Z"/>
      <path class="cls-16" d="M92.66,89.14c11.23,6.09,22.46,12.19,33.69,18.28-.07-2.71-.14-5.43-.21-8.14-8.85-4.8-17.7-9.6-26.55-14.41-2.31,1.42-4.62,2.84-6.92,4.27Z"/>
      <polygon class="cls-11" points="159.34 88.51 126.18 106.36 92.77 89 92.51 53.8 125.67 35.96 159.08 53.31 159.34 88.51"/>
      <polygon class="cls-9" points="152.26 84.84 126.13 98.9 99.79 85.22 99.59 57.48 125.72 43.41 152.05 57.09 152.26 84.84"/>
      <polygon class="cls-6" points="42.02 91.85 70.02 92.12 68.36 109.87 39.18 106.49 42.02 91.85"/>
      <polygon class="cls-6" points="208.86 91.85 180.86 92.12 182.53 109.87 211.71 106.49 208.86 91.85"/>
      <path class="cls-12" d="M163.91,46.89c4.61-9.55-.03-19.13-5.75-20.82-4.94-1.46-12.36,2.46-15.46,10.4v-17.6c1.86.99,4.72,2.35,8.38,3.43,5.28,1.56,5.19.66,9.6,2.07,4.59,1.47,7.73,3.44,9.29,4.51.8.55,1.44,1.04,1.88,1.4-2.65,5.54-5.29,11.08-7.94,16.61Z"/>
      <path class="cls-12" d="M89.78,46.89c-3.89-10.14,1.44-19.37,7.22-20.57,4.68-.98,11.04,3.02,14,10.15-.13-6.07-.26-12.13-.39-18.2-1.2.78-3.14,1.92-5.68,2.9-5.65,2.17-7.38.88-11.91,3.2-2.29,1.17-2.7,1.94-6.49,3.87-1.34.69-2.71.85-4.45,2.03-.04.03-.07.05-.09.06l7.8,16.57Z"/>
      <path class="cls-12" d="M111,31.95c.09-.48,2.21-10.59,10.88-13.5,1.16-.39,5.65-1.82,10.56.34,3.53,1.55,5.46,4.17,6.22,5.34,0,0,.77,1.1,3.73,7.06-.13-4.3-.27-8.6-.4-12.91-1.06-.58-2.49-1.29-4.24-1.95-.42-.16-4.57-1.7-9.08-2.07-8.07-.67-15.25,2.58-17.37,3.6-.1,4.7-.2,9.39-.29,14.09Z"/>
      <path class="cls-12" d="M36.29,115.09c-.05-.81,11.55-2.49,19.82-3.33,5.56-.56,7.72-.55,28.08-1.14,13.99-.41,15.85-.5,25.65-.75,7.24-.18,10.8-.32,16.22-.36,6.26-.04,11.27.03,15.11.09,8.58.14,7.75.26,16.68.42.71.01,6.19.12,17.14.32,1.27.02,3.93.08,7.44.32,0,0,2.85.2,5.76.52,4.56.5,30.22,3.87,30.11,5.01-.09.87-12.85-.69-37.02-.4-2.93.04-33.45.4-44.74,1.76-.99.12-4.31.55-8.8.5-3.88-.04-6.76-.41-7.54-.5-8.61-1.06-28.94-1.66-40.72-2.01-27.35-.81-43.14.48-43.2-.45Z"/>
      <path class="cls-12" d="M97.08,124.94c9.85,2.94,19.69,5.88,29.54,8.82,9.55-2.99,19.11-5.98,28.66-8.97-9.5,1.79-19.01,3.57-28.51,5.36-9.9-1.74-19.79-3.47-29.69-5.21Z"/>
      <path class="cls-12" d="M74.55,149.47c-1.89-6.05-3.79-12.11-5.68-18.16.88,6.56,1.76,13.12,2.63,19.68l20.1,9.01,7.62,8.32c5.07-3.88,9.57-6.76,12.98-8.78,9.53-5.65,12.49-5.78,13.63-5.78,4.84.02,8.55,2.47,13.26,5.59,7.78,5.15,12.94,8.83,12.94,8.83,2.4-2.68,4.81-5.36,7.21-8.04l18.85-8.73s3.22-19.65,2.63-19.68c-.55-.03-4.85,17.05-4.85,17.05-6.28,2.43-12.57,4.85-18.85,7.28-1.99,2.16-3.99,4.33-5.98,6.49-2.07-1.66-4.55-3.52-7.41-5.46-4.12-2.79-6.24-4.21-9.43-5.43-2.59-.99-5.35-2.04-8.98-1.8-2.58.17-4.42.97-8.11,2.56-3.46,1.5-5.91,2.98-8.87,4.78-2.1,1.28-4.86,3.05-8.02,5.34-1.99-1.93-3.97-3.85-5.96-5.78-6.58-2.43-13.15-4.87-19.73-7.3Z"/>
      <path d="M91.64,160c.41-1.43,1.38-2.6,2.69-3.23-.47,1.42-1.33,2.55-2.69,3.23h0Z"/>
      <path d="M71.54,150.99c.72-1.02,1.84-1.58,3.06-1.51-.76.99-1.78,1.56-3.06,1.51h0Z"/>
      <path d="M99.26,168.32c-.25-2,.1-4.03,1.03-5.77.2,2.02-.09,3.97-1.03,5.77h0Z"/>
      <path d="M152.07,168.18c-.91-1.74-1.27-3.73-.98-5.64.87,1.78,1.25,3.67.98,5.64h0Z"/>
      <path d="M159.3,160.12c-1.25-1.04-2.06-2.49-2.23-4.07,1.22,1.09,2.02,2.43,2.23,4.07h0Z"/>
      <path d="M178.14,151.41c-1.41-.2-2.63-.97-3.36-2.16,1.41.25,2.58.94,3.36,2.16h0Z"/>
      <path d="M111.27,17.41c1.03,6.48,1.08,13.03.97,19.57-.05,2.18-.17,4.36-.37,6.54,0,0-.55.01-.55.01-.3-2.17-.52-4.34-.67-6.52-.42-6.53-.66-13.08.07-19.59,0,0,.55-.01.55-.01h0Z"/>
      <path d="M142.66,17.43c.74,6.59.5,13.22.1,19.82-.15,2.2-.36,4.4-.66,6.59h-.55c-.2-2.22-.32-4.42-.38-6.63-.12-6.61-.08-13.24.95-19.8,0,0,.55.01.55.01h0Z"/>
      <path d="M81.74,29.9c3.48,5.35,6.1,11.17,8.56,17.05.81,1.96,1.55,3.95,2.22,5.98l-.5.23c-1.13-1.81-2.18-3.66-3.17-5.54-2.94-5.65-5.74-11.39-7.62-17.49,0,0,.5-.23.5-.23h0Z"/>
      <path d="M172.58,30.15c-4.28,9.8-8.95,19.92-13.2,29.73,0,0-.52-.18-.52-.18,1.35-5.3,3.07-10.5,5.3-15.5,2.19-5.01,4.75-9.87,7.94-14.33,0,0,.48.27.48.27h0Z"/>
      <path class="cls-12" d="M82.07,30.26c6.28-4.66,13.71-7.69,21.32-9.34,2.43-.7,4.82-1.59,7.21-2.65-1.93,1.78-4.24,3.14-6.7,4.15-7.46,2.39-14.53,5.11-21.84,7.84h0Z"/>
      <path class="cls-12" d="M171.82,30.36c-4.8-1.89-9.62-4.01-14.51-5.48-3.79-.99-7.6-2.06-11.18-3.71-1.2-.61-2.32-1.33-3.32-2.21,1.23.48,2.44.95,3.68,1.27,2.12.52,5.39,1.27,7.54,1.8,6.43,1.26,12.64,4.26,17.78,8.33h0Z"/>
      <path class="cls-12" d="M111.39,17.87c3.51-2.95,8.36-4.12,12.87-4.04,4.51.02,9.2-.2,13.5,1.45,0,0,.05.02.05.02l1.13.64c1.13.62,2.15,1.42,3.04,2.34-1.12-.61-2.23-1.15-3.43-1.54-2.32-.92-5-.95-7.61-.98,0,0-6.67-.03-6.67-.03-4.44-.18-8.76.42-12.88,2.14h0Z"/>
      <path class="cls-12" d="M44.75,107.71c-1.65.86-3.45,1.05-5.27,1.04,0,0,.43-.09.43-.09-7.94,4.14-16.22,7.52-24.32,11.32,0,0,.18-1.54.18-1.54,0,0,6.35,5.27,6.35,5.27,0,0-.71-.17-.71-.17,6.26-1.23,12.53-2.18,18.86-2.96,3.16-.36,6.33-.65,9.51-.85,9.54-.56,19.09.85,28.52,2.02,6.28.91,12.57,1.96,18.77,3.19-6.26-1.03-12.54-1.91-18.84-2.64-9.42-.98-18.91-2.2-28.37-1.45-3.15.26-6.29.61-9.43,1.03-6.38.91-12.76,2.02-19.06,3.39,0,0-.32-.26-.32-.26l-6.44-5.16s-1.13-.91-1.13-.91c4.1-1.95,9.35-4.55,13.48-6.33,3.61-1.56,8.68-3.81,12.17-5.51,0,0,.2-.1.2-.1,1.83.08,3.6.23,5.42.69h0Z"/>
      <path class="cls-12" d="M206.39,107.65c1.86-.28,3.57-.52,5.39-.63,0,0,.22.11.22.11,5.95,3.17,12.18,5.77,18.27,8.67.9.41,6.76,3,7.56,3.36,0,0-1.16.93-1.16.93l-6.39,5.15-.32.26c-6.2-1.42-12.47-2.61-18.78-3.39-4.63-.55-9.31-1.15-13.95-1.38-7.79-.09-15.58.74-23.33,1.57-6.21.69-12.41,1.53-18.6,2.49,6.13-1.16,12.34-2.16,18.53-3.04,7.76-1,15.57-1.98,23.42-2.05,4.73.14,9.39.65,14.08,1.11,6.26.65,12.45,1.69,18.6,2.96l-.71.17,6.3-5.27.22,1.55c-8.25-3.47-16.8-7.18-24.57-11.58,0,0,.51.1.51.1-1.82.09-3.69-.08-5.27-1.1h0Z"/>
      <path class="cls-12" d="M48.05,92.46l-4.84,1.55.69-.67-2.28,12.12-.57-.94s3.88,2.09,3.88,2.09c-.5-.05-4.74-.55-5.11-.59,0,0,.16-.86.16-.86l2.28-12.12s.13-.68.13-.68c.12.02,5.35.08,5.64.1h0Z"/>
      <path class="cls-12" d="M202.8,92.44c.31,0,5.5-.1,5.64-.1,0,0,.13.67.13.67l2.33,12.17.17.87c-.36.03-4.7.52-5.19.56,0,0,3.97-2.06,3.97-2.06l-.57.95-2.33-12.17s.69.66.69.66l-4.84-1.55h0Z"/>
      <path class="cls-12" d="M55.63,137.61c3.37,7.25,4.25,15.67,2.8,23.52-.52-3.42-1.03-8.28-1.49-11.74,0,0-.78-5.82-.78-5.82-.26-1.95-.53-3.9-.69-5.91,0,0,.15-.04.15-.04h0Z"/>
      <path class="cls-12" d="M67.32,165.48c.28,1.06-.06,1.78-.43,2.49-2.37,5.07-5.13,9.99-7.76,14.92,0,0-.12-1.09-.12-1.09,8.38,9.83,17.35,21.03,25.49,30.97.75.93,4.6,5.65,5.26,6.55,0,0,.07.1.07.1.07.12.07.06.15.3.1.82-.84.95-.76.83-.48-.08.64.13.66-.29.25-.67-.14-.83,0-.72.59.73,1.46,1.61,1.84,2.57.2.57.23,1.21.1,1.82-2.64-3.36-5.61-6.78-8.5-10.13-8.35-9.66-17.39-21.01-25.78-30.72,0,0-.42-.5-.42-.5,2.34-4.45,4.59-8.95,7.07-13.32,0,0,1.21-2.08,1.21-2.08.39-.7.81-1.39,1.85-1.74,0,0,.09.05.09.05h0Z"/>
      <path class="cls-12" d="M68.29,169.32c15.89,11.66,25.72,31.17,26.06,50.83-2.68-19.43-12.06-37.26-26.06-50.83h0Z"/>
      <path class="cls-16" d="M126.05,175.77c.09,11,.18,21.99.28,32.99-1.46-.64-2.91-1.28-4.37-1.91-.05-9.83-.1-19.67-.16-29.5l4.25-1.58Z"/>
      <path class="cls-16" d="M126.05,175.77c.09,11,.18,21.99.28,32.99,1.29-.48,2.59-.97,3.88-1.45.12-9.92.23-19.83.35-29.75-1.5-.6-3.01-1.19-4.51-1.79Z"/>
      <path class="cls-16" d="M113.05,180.66c.36,11.02.73,22.04,1.09,33.06-1.04-.3-2.09-.6-3.13-.89-.32-10.38-.64-20.75-.96-31.13,1-.35,2-.69,3-1.04Z"/>
      <path class="cls-16" d="M113.05,180.66c.36,11.02.73,22.04,1.09,33.06.76-1.18,1.52-2.36,2.27-3.55-.19-10.21-.38-20.41-.57-30.62-.93.37-1.86.73-2.79,1.1Z"/>
      <path class="cls-16" d="M100.33,185.32c1.6,10.69,3.2,21.38,4.8,32.08.71-.92,1.42-1.84,2.13-2.76-1.53-10.06-3.06-20.12-4.59-30.19-.78.29-1.56.58-2.34.87Z"/>
      <path class="cls-16" d="M150.1,185.32c-1.57,10.72-3.14,21.44-4.71,32.16-.46-.95-.92-1.89-1.39-2.84,1.52-9.97,3.05-19.95,4.57-29.92.51.2,1.02.4,1.53.61Z"/>
      <path class="cls-16" d="M138.59,180.75c-.35,11.05-.71,22.09-1.06,33.14.91-.35,1.82-.7,2.73-1.05.32-10.35.64-20.7.95-31.04-.87-.35-1.75-.69-2.62-1.04Z"/>
      <path class="cls-16" d="M138.59,180.75c-.35,11.05-.71,22.09-1.06,33.14-.59-1.08-1.19-2.16-1.78-3.25.2-10.26.4-20.52.6-30.78.75.3,1.5.59,2.24.89Z"/>
      <path class="cls-16" d="M105.13,216.96c3-1.22,6-2.44,9.01-3.67-1.04-.3-2.09-.6-3.13-.89-1.25.6-2.5,1.2-3.74,1.8-.71.92-1.42,1.84-2.13,2.76Z"/>
      <path class="cls-16" d="M114.14,213.29c4.06-1.65,8.12-3.31,12.19-4.96-1.46-.64-2.91-1.28-4.37-1.91-1.85,1.03-3.69,2.07-5.54,3.1-.76,1.26-1.52,2.52-2.28,3.77Z"/>
      <path class="cls-16" d="M137.53,213.45c-3.73-1.71-7.47-3.41-11.2-5.12,1.29-.48,2.59-.97,3.88-1.45,1.85,1.11,3.7,2.22,5.54,3.33.59,1.08,1.19,2.16,1.78,3.25Z"/>
      <path class="cls-16" d="M145.38,217.04c-2.62-1.2-5.24-2.39-7.86-3.59.91-.35,1.82-.7,2.73-1.05,1.25.6,2.5,1.2,3.74,1.8.46.95.92,1.89,1.39,2.84Z"/>
      <polygon class="cls-12" points="103.3 219.58 125.88 208.6 126.3 208.4 126.71 208.62 146.97 219.83 125.84 210.36 126.66 210.38 103.3 219.58 103.3 219.58"/>
      <circle class="cls-12" cx="60.54" cy="101.15" r="7.13"/>
      <circle cx="60.6" cy="100.39" r="7.13"/>
      <circle class="cls-5" cx="60.6" cy="100.39" r="5.08"/>
      <line class="cls-5" x1="60.83" y1="95.31" x2="60.6" y2="105.47"/>
      <path class="cls-5" d="M55.93,102.42c1.63-.68,3.26-1.35,4.89-2.03"/>
      <path class="cls-5" d="M65.68,102.42l-4.89-2.03"/>
      <circle class="cls-12" cx="190.42" cy="100.77" r="7.13"/>
      <circle cx="190.37" cy="100.01" r="7.13"/>
      <circle class="cls-5" cx="190.37" cy="100.01" r="5.08"/>
      <path class="cls-4" d="M102.56,69c8.09,7.25,16.18,14.5,24.26,21.76,10.65-11.67,21.29-23.34,31.94-35.01"/>
      <path d="M94.19,88.13c1.12-1.42,2.66-2.11,4.44-2.23-1.05,1.38-2.67,2.18-4.44,2.23h0Z"/>
      <path d="M93.96,54.63c1.82.02,3.32.82,4.51,2.15-1.74.01-3.38-.78-4.51-2.15h0Z"/>
      <path d="M126.16,100.18c.77,1.51.72,3.07.03,4.59-.77-1.42-.77-3.1-.03-4.59h0Z"/>
      <path d="M153.37,85.49c1.85.05,3.38.87,4.6,2.23-1.78-.01-3.44-.83-4.6-2.23h0Z"/>
      <path d="M148.73,65.01c.92-1.12,2.23-1.77,3.64-1.79-.96,1.09-2.17,1.74-3.64,1.79h0Z"/>
      <path d="M125.71,42.17c-.78-1.52-.72-3.09-.04-4.63.77,1.44.78,3.13.04,4.63h0Z"/>
      <path class="cls-15" d="M115.5,141.99l-31.92-13.13s7.98,20.87,21.06,19.7c4.48-.4,10.87-6.57,10.87-6.57Z"/>
      <path class="cls-15" d="M136.58,142.9l31.92-13.13s-7.98,20.87-21.06,19.7c-4.48-.4-10.87-6.57-10.87-6.57Z"/>
      <path d="M100.33,184.87l25.53-10.05s.2-.08.2-.08l.2.08,23.85,10.05-24.25-9.03h.4s-25.93,9.09-25.91,9.02h0Z"/>
      <path class="cls-12" d="M100.85,188.31c.77-.4,1.53-.8,2.3-1.2-.16-1.03-.31-2.06-.47-3.09-.78.29-1.56.58-2.34.87.17,1.14.34,2.29.51,3.43Z"/>
      <path class="cls-12" d="M149.61,188.22l-1.53-.85c.16-1.03.31-2.06.47-3.09.52.2,1.03.4,1.55.61-.16,1.11-.33,2.23-.49,3.34Z"/>
      <path class="cls-12" d="M110.12,184.17c.97,0,1.93-.02,2.89-.02l2.89-1.68c0-1.03,0-2.07.01-3.1-.99.38-1.98.75-2.96,1.13-.97.34-1.93.68-2.9,1.02.02.89.05,1.77.07,2.66Z"/>
      <path class="cls-12" d="M141.12,184.28c-.85,0-1.71-.01-2.56-.02-.76-.52-1.51-1.03-2.27-1.55.02-.98.04-1.96.06-2.95.76.28,1.52.56,2.28.84.88.33,1.74.66,2.6.99-.04.89-.07,1.79-.11,2.68Z"/>
      <path class="cls-12" d="M121.81,180.49c1.44.27,2.87.53,4.31.8,1.47-.28,2.93-.55,4.4-.83.01-.95.03-1.9.04-2.84-1.51-.56-3.01-1.12-4.52-1.68l-4.23,1.48c0,1.03,0,2.06,0,3.09Z"/>
      <path class="cls-12" d="M81.48,30.73c-1.87,1.74-3.67,5.12-4.99,7.33-2.97,5.22-6.6,10.14-10.72,14.55-4.16,4.24-8,8.38-9.8,14.02-.95,3.49-2.22,7.27-3.71,10.62-.63,1.38-2.21,4.72-2.87,6.11-1.29,2.71-2.66,5.37-4.1,7.99,1.85-5.69,3.94-11.25,5.85-16.91,1.01-2.89,1.59-5.57,2.35-8.57.87-3.06,2.37-5.82,4.15-8.38,1.54-2.26,4.26-4.78,6.14-6.75,3.03-3.22,6.13-6.38,8.76-9.95,2.75-3.32,5.27-7.66,8.94-10.06h0Z"/>
      <path class="cls-12" d="M172.3,30.76c1.99,1.79,3.5,4.06,4.85,6.34,2.39,3.62,4.72,7.38,7.3,10.85,2.09,2.84,4.32,5.29,6.79,7.85,2.48,2.59,4.22,5.85,5.89,8.98.87,1.93,2.19,4.54,2.88,6.55,2.07,6.62,3.71,13.23,5.29,19.98-3.68-8.07-6.33-17.75-10.36-25.06-1.77-3-3.32-6.04-5.77-8.55-2.38-2.53-4.88-5.33-6.78-8.3-2.5-3.68-4.48-7.71-6.44-11.67-1.03-2.45-2.09-4.77-3.64-6.97h0Z"/>
      <path class="cls-1" d="M97.87,58.53c9.25,8.45,18.5,16.89,27.75,25.34,12.57-13.79,25.14-27.59,37.7-41.38"/>
      <path class="cls-2" d="M103.04,52.72l-10.71,11.74,33.79,30.64,42.93-47.34-11.97-10.55c-10.69,11.71-21.37,23.42-32.06,35.13-7.33-6.54-14.65-13.08-21.98-19.61Z"/>
    </g>
  </g>
</svg>