<svg width="178" height="49" viewBox="0 0 178 49" fill="none" xmlns="http://www.w3.org/2000/svg">
<g filter="url(#filter0_ddd_3379_282803)">
<path d="M7 16.6484L10.8372 18.4589L17.936 16.6484L30.0233 13.8504L37.6977 16.3192L45.3721 19.1995L53.0465 33.6833L64.75 35L72.8081 28.8279L83.7442 27.3466L87.3895 23.7257L91.4186 22.5736L95.4477 21.586L102.93 19.8579L106.767 18.4589L110.605 12.2868L114.442 7.43142L118.279 7.26683L125.953 6.44389L129.791 5.04489L133.628 4.13965L137.657 2L141.302 4.13965H145.14L156.267 5.45636L160.68 5.04489L164.134 4.55112H172" stroke="url(#paint0_linear_3379_282803)" stroke-width="3"/>
</g>
<defs>
<filter id="filter0_ddd_3379_282803" x="0.359985" y="0.282227" width="177.64" height="48.2759" filterUnits="userSpaceOnUse" color-interpolation-filters="sRGB">
<feFlood flood-opacity="0" result="BackgroundImageFix"/>
<feColorMatrix in="SourceAlpha" type="matrix" values="0 0 0 0 0 0 0 0 0 0 0 0 0 0 0 0 0 0 127 0" result="hardAlpha"/>
<feOffset dy="4"/>
<feGaussianBlur stdDeviation="2"/>
<feColorMatrix type="matrix" values="0 0 0 0 0 0 0 0 0 0 0 0 0 0 0 0 0 0 0.25 0"/>
<feBlend mode="normal" in2="BackgroundImageFix" result="effect1_dropShadow_3379_282803"/>
<feColorMatrix in="SourceAlpha" type="matrix" values="0 0 0 0 0 0 0 0 0 0 0 0 0 0 0 0 0 0 127 0" result="hardAlpha"/>
<feOffset dy="4"/>
<feGaussianBlur stdDeviation="2"/>
<feComposite in2="hardAlpha" operator="out"/>
<feColorMatrix type="matrix" values="0 0 0 0 0 0 0 0 0 0 0 0 0 0 0 0 0 0 0.25 0"/>
<feBlend mode="normal" in2="effect1_dropShadow_3379_282803" result="effect2_dropShadow_3379_282803"/>
<feColorMatrix in="SourceAlpha" type="matrix" values="0 0 0 0 0 0 0 0 0 0 0 0 0 0 0 0 0 0 127 0" result="hardAlpha"/>
<feOffset dy="6"/>
<feGaussianBlur stdDeviation="3"/>
<feComposite in2="hardAlpha" operator="out"/>
<feColorMatrix type="matrix" values="0 0 0 0 0 0 0 0 0 0 0 0 0 0 0 0 0 0 0.25 0"/>
<feBlend mode="normal" in2="effect2_dropShadow_3379_282803" result="effect3_dropShadow_3379_282803"/>
<feBlend mode="normal" in="SourceGraphic" in2="effect3_dropShadow_3379_282803" result="shape"/>
</filter>
<linearGradient id="paint0_linear_3379_282803" x1="7" y1="18.5" x2="172" y2="18.5" gradientUnits="userSpaceOnUse">
<stop stop-color="#3E3E3E"/>
<stop offset="1" stop-color="#4FB848"/>
</linearGradient>
</defs>
</svg>
