<svg width="68" height="61" viewBox="0 0 68 61" fill="none" xmlns="http://www.w3.org/2000/svg">
<mask id="path-1-outside-1_2704_2679" maskUnits="userSpaceOnUse" x="10" y="5" width="11" height="9" fill="black">
<rect fill="white" x="10" y="5" width="11" height="9"/>
<path d="M16.7413 5.35603C14.4433 6.61649 12.3268 8.12395 10.4391 9.84468L14.6924 13.5734C16.2393 12.1633 17.9737 10.928 19.8568 9.89505L16.7413 5.35603Z"/>
</mask>
<path d="M16.7413 5.35603C14.4433 6.61649 12.3268 8.12395 10.4391 9.84468L14.6924 13.5734C16.2393 12.1633 17.9737 10.928 19.8568 9.89505L16.7413 5.35603Z" fill="#EB1616"/>
<path d="M16.7413 5.35603C14.4433 6.61649 12.3268 8.12395 10.4391 9.84468L14.6924 13.5734C16.2393 12.1633 17.9737 10.928 19.8568 9.89505L16.7413 5.35603Z" stroke="white" stroke-opacity="0.9" stroke-width="0.4" mask="url(#path-1-outside-1_2704_2679)"/>
<mask id="path-2-outside-2_2704_2679" maskUnits="userSpaceOnUse" x="16" y="0" width="49" height="21" fill="black">
<rect fill="white" x="16" width="49" height="21"/>
<path d="M63.8861 17.9906C61.9152 14.2278 59.0775 10.8797 55.5586 8.16538C52.0398 5.45108 47.9193 3.43186 43.4669 2.23995C39.0145 1.04804 34.3307 0.710321 29.7222 1.24891C25.1137 1.7875 20.6844 3.19025 16.7244 5.3653L19.8807 9.95757C23.1172 8.17991 26.7372 7.03345 30.5038 6.59327C34.2703 6.15308 38.0983 6.42909 41.7372 7.40323C45.3761 8.37738 48.7438 10.0277 51.6197 12.246C54.4957 14.4644 56.815 17.2008 58.4257 20.2761L63.8861 17.9906Z"/>
</mask>
<path d="M63.8861 17.9906C61.9152 14.2278 59.0775 10.8797 55.5586 8.16538C52.0398 5.45108 47.9193 3.43186 43.4669 2.23995C39.0145 1.04804 34.3307 0.710321 29.7222 1.24891C25.1137 1.7875 20.6844 3.19025 16.7244 5.3653L19.8807 9.95757C23.1172 8.17991 26.7372 7.03345 30.5038 6.59327C34.2703 6.15308 38.0983 6.42909 41.7372 7.40323C45.3761 8.37738 48.7438 10.0277 51.6197 12.246C54.4957 14.4644 56.815 17.2008 58.4257 20.2761L63.8861 17.9906Z" fill="#4FB848"/>
<path d="M63.8861 17.9906C61.9152 14.2278 59.0775 10.8797 55.5586 8.16538C52.0398 5.45108 47.9193 3.43186 43.4669 2.23995C39.0145 1.04804 34.3307 0.710321 29.7222 1.24891C25.1137 1.7875 20.6844 3.19025 16.7244 5.3653L19.8807 9.95757C23.1172 8.17991 26.7372 7.03345 30.5038 6.59327C34.2703 6.15308 38.0983 6.42909 41.7372 7.40323C45.3761 8.37738 48.7438 10.0277 51.6197 12.246C54.4957 14.4644 56.815 17.2008 58.4257 20.2761L63.8861 17.9906Z" stroke="white" stroke-opacity="0.9" stroke-width="0.4" mask="url(#path-2-outside-2_2704_2679)"/>
<mask id="path-3-outside-3_2704_2679" maskUnits="userSpaceOnUse" x="57" y="17" width="11" height="14" fill="black">
<rect fill="white" x="57" y="17" width="11" height="14"/>
<path d="M67 30.5C67 26.0556 65.8766 21.6686 63.7138 17.6668L58.1384 20.0748C59.8954 23.3257 60.808 26.8895 60.808 30.5H67Z"/>
</mask>
<path d="M67 30.5C67 26.0556 65.8766 21.6686 63.7138 17.6668L58.1384 20.0748C59.8954 23.3257 60.808 26.8895 60.808 30.5H67Z" fill="#F3B101"/>
<path d="M67 30.5C67 26.0556 65.8766 21.6686 63.7138 17.6668L58.1384 20.0748C59.8954 23.3257 60.808 26.8895 60.808 30.5H67Z" stroke="white" stroke-opacity="0.9" stroke-width="0.4" mask="url(#path-3-outside-3_2704_2679)"/>
<mask id="path-4-outside-4_2704_2679" maskUnits="userSpaceOnUse" x="0" y="9" width="68" height="52" fill="black">
<rect fill="white" y="9" width="68" height="52"/>
<path d="M67 30.5C67 35.3513 65.6616 40.1277 63.1034 44.4062C60.5452 48.6847 56.8461 52.3331 52.3338 55.0284C47.8215 57.7236 42.6353 59.3824 37.2345 59.858C31.8338 60.3335 26.3852 59.611 21.3714 57.7544C16.3576 55.8979 11.9334 52.9647 8.49063 49.2146C5.04786 45.4645 2.6928 41.0132 1.63408 36.2551C0.575352 31.497 0.845634 26.579 2.42098 21.9366C3.99633 17.2942 6.82812 13.0707 10.6655 9.64032L14.7526 13.2939C11.5873 16.1235 9.25149 19.6072 7.95207 23.4365C6.65264 27.2657 6.4297 31.3224 7.30299 35.2471C8.17628 39.1718 10.1188 42.8434 12.9586 45.9367C15.7984 49.03 19.4477 51.4495 23.5833 52.9808C27.7189 54.5122 32.2132 55.1081 36.668 54.7159C41.1228 54.3237 45.4007 52.9554 49.1226 50.7322C52.8446 48.509 55.8958 45.4996 58.0059 41.9705C60.1161 38.4414 61.22 34.5016 61.22 30.5H67Z"/>
</mask>
<path d="M67 30.5C67 35.3513 65.6616 40.1277 63.1034 44.4062C60.5452 48.6847 56.8461 52.3331 52.3338 55.0284C47.8215 57.7236 42.6353 59.3824 37.2345 59.858C31.8338 60.3335 26.3852 59.611 21.3714 57.7544C16.3576 55.8979 11.9334 52.9647 8.49063 49.2146C5.04786 45.4645 2.6928 41.0132 1.63408 36.2551C0.575352 31.497 0.845634 26.579 2.42098 21.9366C3.99633 17.2942 6.82812 13.0707 10.6655 9.64032L14.7526 13.2939C11.5873 16.1235 9.25149 19.6072 7.95207 23.4365C6.65264 27.2657 6.4297 31.3224 7.30299 35.2471C8.17628 39.1718 10.1188 42.8434 12.9586 45.9367C15.7984 49.03 19.4477 51.4495 23.5833 52.9808C27.7189 54.5122 32.2132 55.1081 36.668 54.7159C41.1228 54.3237 45.4007 52.9554 49.1226 50.7322C52.8446 48.509 55.8958 45.4996 58.0059 41.9705C60.1161 38.4414 61.22 34.5016 61.22 30.5H67Z" fill="#777676"/>
<path d="M67 30.5C67 35.3513 65.6616 40.1277 63.1034 44.4062C60.5452 48.6847 56.8461 52.3331 52.3338 55.0284C47.8215 57.7236 42.6353 59.3824 37.2345 59.858C31.8338 60.3335 26.3852 59.611 21.3714 57.7544C16.3576 55.8979 11.9334 52.9647 8.49063 49.2146C5.04786 45.4645 2.6928 41.0132 1.63408 36.2551C0.575352 31.497 0.845634 26.579 2.42098 21.9366C3.99633 17.2942 6.82812 13.0707 10.6655 9.64032L14.7526 13.2939C11.5873 16.1235 9.25149 19.6072 7.95207 23.4365C6.65264 27.2657 6.4297 31.3224 7.30299 35.2471C8.17628 39.1718 10.1188 42.8434 12.9586 45.9367C15.7984 49.03 19.4477 51.4495 23.5833 52.9808C27.7189 54.5122 32.2132 55.1081 36.668 54.7159C41.1228 54.3237 45.4007 52.9554 49.1226 50.7322C52.8446 48.509 55.8958 45.4996 58.0059 41.9705C60.1161 38.4414 61.22 34.5016 61.22 30.5H67Z" stroke="white" stroke-opacity="0.9" stroke-width="0.4" mask="url(#path-4-outside-4_2704_2679)"/>
</svg>
