<svg width="418" height="260" viewBox="0 0 418 260" fill="none" xmlns="http://www.w3.org/2000/svg">
<g clip-path="url(#clip0_2138_124856)">
<path d="M323.836 211V201.234H320.383V199.727H329.031V201.234H325.586V211H323.836ZM334.95 211.164C332.536 211.164 331.075 209.516 331.075 206.922V206.914C331.075 204.344 332.559 202.625 334.864 202.625C337.169 202.625 338.583 204.281 338.583 206.75V207.32H332.762C332.794 208.875 333.645 209.781 334.989 209.781C335.989 209.781 336.653 209.266 336.864 208.648L336.887 208.586H338.489L338.473 208.672C338.208 209.977 336.942 211.164 334.95 211.164ZM334.872 204.008C333.778 204.008 332.934 204.75 332.786 206.125H336.911C336.77 204.703 335.973 204.008 334.872 204.008ZM342.337 211L345.056 206.898L342.377 202.781H344.275L346.064 205.758H346.103L347.869 202.781H349.736L347.033 206.844L349.705 211H347.845L346.025 207.977H345.986L344.166 211H342.337ZM356.881 211.164C355.256 211.164 354.475 210.477 354.475 208.836V204.125H353.295V202.781H354.475V200.641H356.202V202.781H357.741V204.125H356.202V208.734C356.202 209.57 356.577 209.82 357.287 209.82C357.467 209.82 357.616 209.805 357.741 209.789V211.094C357.545 211.125 357.225 211.164 356.881 211.164Z" fill="white"/>
<rect x="285.5" y="58.5" width="22" height="22" fill="#4FB848" fill-opacity="0.7" stroke="white"/>
<rect x="285.5" y="101.5" width="22" height="22" fill="#EB1616" fill-opacity="0.7" stroke="white"/>
<rect x="285.5" y="149.5" width="22" height="23" fill="#E5C46B" fill-opacity="0.7" stroke="white"/>
<rect x="285.5" y="194.5" width="22" height="23" fill="#2077E0" fill-opacity="0.7" stroke="white"/>
<path d="M71 38C88.4048 38 105.419 43.1611 119.89 52.8307C134.362 62.5002 145.641 76.244 152.301 92.3239C158.962 108.404 160.705 126.098 157.309 143.168C153.914 160.238 145.532 175.918 133.225 188.225L124.779 179.779C135.416 169.143 142.659 155.591 145.594 140.838C148.529 126.084 147.022 110.792 141.266 96.8949C135.51 82.9976 125.761 71.1193 113.254 62.7623C100.747 54.4052 86.0423 49.9446 71 49.9446L71 38Z" fill="#EB1616" fill-opacity="0.7"/>
<path d="M71.5 15C88.0469 15 104.386 18.6663 119.333 25.7331C134.28 32.7998 147.46 43.0897 157.916 55.8566C168.372 68.6234 175.843 83.547 179.787 99.545C183.731 115.543 184.048 132.214 180.716 148.35C177.385 164.485 170.488 179.68 160.525 192.832C150.562 205.984 137.784 216.764 123.117 224.39C108.45 232.015 92.2617 236.296 75.7267 236.92C59.1917 237.545 42.7244 234.498 27.5192 228L32.7454 215.879C46.1438 221.605 60.6543 224.29 75.2245 223.74C89.7946 223.189 104.059 219.418 116.983 212.698C129.907 205.979 141.167 196.48 149.946 184.89C158.725 173.301 164.803 159.912 167.738 145.694C170.674 131.476 170.394 116.786 166.919 102.689C163.444 88.5917 156.861 75.4414 147.647 64.1916C138.433 52.9419 126.82 43.8747 113.649 37.6477C100.478 31.4207 86.0806 28.19 71.5 28.19L71.5 15Z" fill="#4FB848" fill-opacity="0.7"/>
<path d="M71.5 59C82.4479 59 93.2157 61.8083 102.789 67.1603C112.363 72.5123 120.427 80.232 126.222 89.5922C132.017 98.9525 135.353 109.645 135.915 120.663C136.477 131.682 134.247 142.663 129.434 152.572C124.622 162.482 117.386 170.994 108.407 177.307C99.4285 183.62 89.0032 187.526 78.113 188.657C67.2227 189.789 56.226 188.108 46.1585 183.773C36.091 179.438 27.284 172.593 20.5669 163.88L29.2524 157.08C34.824 164.306 42.1292 169.985 50.4799 173.58C58.8306 177.176 67.9521 178.57 76.9853 177.632C86.0184 176.693 94.6659 173.453 102.113 168.217C109.561 162.981 115.563 155.92 119.555 147.7C123.547 139.48 125.397 130.372 124.93 121.232C124.464 112.093 121.697 103.224 116.89 95.4597C112.083 87.6956 105.394 81.2924 97.4535 76.853C89.5126 72.4136 80.581 70.0842 71.5 70.0842L71.5 59Z" fill="#E5C46B" fill-opacity="0.7"/>
<path d="M71.5 81C81.5784 81 91.3124 84.6234 98.885 91.1937C106.458 97.7641 111.351 106.832 112.653 116.706C113.954 126.58 111.574 136.584 105.957 144.851C100.34 153.118 91.8696 159.083 82.1273 161.633L79.4047 151.48C86.6512 149.583 92.9515 145.146 97.1296 138.997C101.308 132.848 103.078 125.406 102.11 118.062C101.142 110.718 97.502 103.973 91.8694 99.0858C86.2367 94.1987 78.9965 91.5036 71.5 91.5036L71.5 81Z" fill="#2077E0" fill-opacity="0.7"/>
<path d="M323.836 74V64.2344H320.383V62.7266H329.031V64.2344H325.586V74H323.836ZM334.95 74.1641C332.536 74.1641 331.075 72.5156 331.075 69.9219V69.9141C331.075 67.3438 332.559 65.625 334.864 65.625C337.169 65.625 338.583 67.2812 338.583 69.75V70.3203H332.762C332.794 71.875 333.645 72.7812 334.989 72.7812C335.989 72.7812 336.653 72.2656 336.864 71.6484L336.887 71.5859H338.489L338.473 71.6719C338.208 72.9766 336.942 74.1641 334.95 74.1641ZM334.872 67.0078C333.778 67.0078 332.934 67.75 332.786 69.125H336.911C336.77 67.7031 335.973 67.0078 334.872 67.0078ZM342.337 74L345.056 69.8984L342.377 65.7812H344.275L346.064 68.7578H346.103L347.869 65.7812H349.736L347.033 69.8438L349.705 74H347.845L346.025 70.9766H345.986L344.166 74H342.337ZM356.881 74.1641C355.256 74.1641 354.475 73.4766 354.475 71.8359V67.125H353.295V65.7812H354.475V63.6406H356.202V65.7812H357.741V67.125H356.202V71.7344C356.202 72.5703 356.577 72.8203 357.287 72.8203C357.467 72.8203 357.616 72.8047 357.741 72.7891V74.0938C357.545 74.125 357.225 74.1641 356.881 74.1641Z" fill="white"/>
<path d="M323.836 118V108.234H320.383V106.727H329.031V108.234H325.586V118H323.836ZM334.95 118.164C332.536 118.164 331.075 116.516 331.075 113.922V113.914C331.075 111.344 332.559 109.625 334.864 109.625C337.169 109.625 338.583 111.281 338.583 113.75V114.32H332.762C332.794 115.875 333.645 116.781 334.989 116.781C335.989 116.781 336.653 116.266 336.864 115.648L336.887 115.586H338.489L338.473 115.672C338.208 116.977 336.942 118.164 334.95 118.164ZM334.872 111.008C333.778 111.008 332.934 111.75 332.786 113.125H336.911C336.77 111.703 335.973 111.008 334.872 111.008ZM342.337 118L345.056 113.898L342.377 109.781H344.275L346.064 112.758H346.103L347.869 109.781H349.736L347.033 113.844L349.705 118H347.845L346.025 114.977H345.986L344.166 118H342.337ZM356.881 118.164C355.256 118.164 354.475 117.477 354.475 115.836V111.125H353.295V109.781H354.475V107.641H356.202V109.781H357.741V111.125H356.202V115.734C356.202 116.57 356.577 116.82 357.287 116.82C357.467 116.82 357.616 116.805 357.741 116.789V118.094C357.545 118.125 357.225 118.164 356.881 118.164Z" fill="white"/>
<path d="M323.836 166V156.234H320.383V154.727H329.031V156.234H325.586V166H323.836ZM334.95 166.164C332.536 166.164 331.075 164.516 331.075 161.922V161.914C331.075 159.344 332.559 157.625 334.864 157.625C337.169 157.625 338.583 159.281 338.583 161.75V162.32H332.762C332.794 163.875 333.645 164.781 334.989 164.781C335.989 164.781 336.653 164.266 336.864 163.648L336.887 163.586H338.489L338.473 163.672C338.208 164.977 336.942 166.164 334.95 166.164ZM334.872 159.008C333.778 159.008 332.934 159.75 332.786 161.125H336.911C336.77 159.703 335.973 159.008 334.872 159.008ZM342.337 166L345.056 161.898L342.377 157.781H344.275L346.064 160.758H346.103L347.869 157.781H349.736L347.033 161.844L349.705 166H347.845L346.025 162.977H345.986L344.166 166H342.337ZM356.881 166.164C355.256 166.164 354.475 165.477 354.475 163.836V159.125H353.295V157.781H354.475V155.641H356.202V157.781H357.741V159.125H356.202V163.734C356.202 164.57 356.577 164.82 357.287 164.82C357.467 164.82 357.616 164.805 357.741 164.789V166.094C357.545 166.125 357.225 166.164 356.881 166.164Z" fill="white"/>
</g>
<defs>
<clipPath id="clip0_2138_124856">
<rect width="418" height="260" fill="white"/>
</clipPath>
</defs>
</svg>
