<svg width="200" height="199" viewBox="0 0 200 199" fill="none" xmlns="http://www.w3.org/2000/svg">
<path d="M100 0C118.145 2.15291e-07 135.947 4.9121 151.501 14.21C167.054 23.5079 179.772 36.8411 188.291 52.7812C196.811 68.7212 200.811 86.6673 199.864 104.697C198.916 122.726 193.056 140.159 182.912 155.128C172.768 170.097 158.722 182.037 142.278 189.67C125.835 197.303 107.615 200.34 89.5689 198.457C71.5232 196.574 54.3326 189.841 39.8389 178.98C25.3451 168.118 14.0945 153.538 7.29254 136.8L43.6741 122.162C47.8068 132.331 54.6422 141.19 63.4481 147.789C72.254 154.388 82.6985 158.479 93.6624 159.623C104.626 160.767 115.697 158.922 125.687 154.284C135.677 149.647 144.211 142.392 150.374 133.297C156.538 124.203 160.098 113.611 160.674 102.657C161.249 91.7033 158.819 80.7999 153.643 71.1152C148.467 61.4306 140.74 53.3298 131.29 47.6807C121.84 42.0316 111.024 39.0472 100 39.0472L100 0Z" fill="url(#paint0_linear_2161_221252)"/>
<path d="M67.6824 109.141C67.6824 109.141 67.6824 109.056 67.6824 108.885V108.294V107.703V107.447H67.9382H68.5294H69.1206H69.3765C69.3765 107.447 69.3765 107.532 69.3765 107.703V108.294V108.885V109.141C69.3765 109.141 69.2912 109.141 69.1206 109.141H68.5294H67.9382H67.6824ZM69.0941 109.141C69.0941 109.141 69.0941 109.056 69.0941 108.885V108.294V107.703V107.447H69.35H69.9412H70.5324H70.7882C70.7882 107.447 70.7882 107.532 70.7882 107.703V108.294V108.885V109.141C70.7882 109.141 70.7029 109.141 70.5324 109.141H69.9412H69.35H69.0941ZM70.5059 109.141C70.5059 109.141 70.5059 109.056 70.5059 108.885V108.294V107.703V107.447H70.7618H71.3529H71.9441H72.2C72.2 107.447 72.2 107.532 72.2 107.703V108.294V108.885V109.141C72.2 109.141 72.1147 109.141 71.9441 109.141H71.3529H70.7618H70.5059ZM66.2706 107.729C66.2706 107.729 66.2706 107.644 66.2706 107.474V106.882V106.291V106.035H66.5265H67.1176H67.7088H67.9647C67.9647 106.035 67.9647 106.121 67.9647 106.291V106.882V107.474V107.729C67.9647 107.729 67.8794 107.729 67.7088 107.729H67.1176H66.5265H66.2706ZM71.9176 107.729C71.9176 107.729 71.9176 107.644 71.9176 107.474V106.882V106.291V106.035H72.1735H72.7647H73.3559H73.6118C73.6118 106.035 73.6118 106.121 73.6118 106.291V106.882V107.474V107.729C73.6118 107.729 73.5265 107.729 73.3559 107.729H72.7647H72.1735H71.9176ZM66.2706 106.318C66.2706 106.318 66.2706 106.232 66.2706 106.062V105.471V104.879V104.624H66.5265H67.1176H67.7088H67.9647C67.9647 104.624 67.9647 104.709 67.9647 104.879V105.471V106.062V106.318C67.9647 106.318 67.8794 106.318 67.7088 106.318H67.1176H66.5265H66.2706ZM71.9176 106.318C71.9176 106.318 71.9176 106.232 71.9176 106.062V105.471V104.879V104.624H72.1735H72.7647H73.3559H73.6118C73.6118 104.624 73.6118 104.709 73.6118 104.879V105.471V106.062V106.318C73.6118 106.318 73.5265 106.318 73.3559 106.318H72.7647H72.1735H71.9176ZM66.2706 104.906C66.2706 104.906 66.2706 104.821 66.2706 104.65V104.059V103.468V103.212H66.5265H67.1176H67.7088H67.9647C67.9647 103.212 67.9647 103.297 67.9647 103.468V104.059V104.65V104.906C67.9647 104.906 67.8794 104.906 67.7088 104.906H67.1176H66.5265H66.2706ZM71.9176 104.906C71.9176 104.906 71.9176 104.821 71.9176 104.65V104.059V103.468V103.212H72.1735H72.7647H73.3559H73.6118C73.6118 103.212 73.6118 103.297 73.6118 103.468V104.059V104.65V104.906C73.6118 104.906 73.5265 104.906 73.3559 104.906H72.7647H72.1735H71.9176ZM66.2706 103.494C66.2706 103.494 66.2706 103.409 66.2706 103.238V102.647V102.056V101.8H66.5265H67.1176H67.7088H67.9647C67.9647 101.8 67.9647 101.885 67.9647 102.056V102.647V103.238V103.494C67.9647 103.494 67.8794 103.494 67.7088 103.494H67.1176H66.5265H66.2706ZM71.9176 103.494C71.9176 103.494 71.9176 103.409 71.9176 103.238V102.647V102.056V101.8H72.1735H72.7647H73.3559H73.6118C73.6118 101.8 73.6118 101.885 73.6118 102.056V102.647V103.238V103.494C73.6118 103.494 73.5265 103.494 73.3559 103.494H72.7647H72.1735H71.9176ZM66.2706 102.082C66.2706 102.082 66.2706 101.997 66.2706 101.826V101.235V100.644V100.388H66.5265H67.1176H67.7088H67.9647C67.9647 100.388 67.9647 100.474 67.9647 100.644V101.235V101.826V102.082C67.9647 102.082 67.8794 102.082 67.7088 102.082H67.1176H66.5265H66.2706ZM71.9176 102.082C71.9176 102.082 71.9176 101.997 71.9176 101.826V101.235V100.644V100.388H72.1735H72.7647H73.3559H73.6118C73.6118 100.388 73.6118 100.474 73.6118 100.644V101.235V101.826V102.082C73.6118 102.082 73.5265 102.082 73.3559 102.082H72.7647H72.1735H71.9176ZM66.2706 100.671C66.2706 100.671 66.2706 100.585 66.2706 100.415V99.8235V99.2324V98.9765H66.5265H67.1176H67.7088H67.9647C67.9647 98.9765 67.9647 99.0618 67.9647 99.2324V99.8235V100.415V100.671C67.9647 100.671 67.8794 100.671 67.7088 100.671H67.1176H66.5265H66.2706ZM71.9176 100.671C71.9176 100.671 71.9176 100.585 71.9176 100.415V99.8235V99.2324V98.9765H72.1735H72.7647H73.3559H73.6118C73.6118 98.9765 73.6118 99.0618 73.6118 99.2324V99.8235V100.415V100.671C73.6118 100.671 73.5265 100.671 73.3559 100.671H72.7647H72.1735H71.9176ZM66.2706 99.2588C66.2706 99.2588 66.2706 99.1735 66.2706 99.0029V98.4118V97.8206V97.5647H66.5265H67.1176H67.7088H67.9647C67.9647 97.5647 67.9647 97.65 67.9647 97.8206V98.4118V99.0029V99.2588C67.9647 99.2588 67.8794 99.2588 67.7088 99.2588H67.1176H66.5265H66.2706ZM71.9176 99.2588C71.9176 99.2588 71.9176 99.1735 71.9176 99.0029V98.4118V97.8206V97.5647H72.1735H72.7647H73.3559H73.6118C73.6118 97.5647 73.6118 97.65 73.6118 97.8206V98.4118V99.0029V99.2588C73.6118 99.2588 73.5265 99.2588 73.3559 99.2588H72.7647H72.1735H71.9176ZM66.2706 97.8471C66.2706 97.8471 66.2706 97.7618 66.2706 97.5912V97V96.4088V96.1529H66.5265H67.1176H67.7088H67.9647C67.9647 96.1529 67.9647 96.2382 67.9647 96.4088V97V97.5912V97.8471C67.9647 97.8471 67.8794 97.8471 67.7088 97.8471H67.1176H66.5265H66.2706ZM71.9176 97.8471C71.9176 97.8471 71.9176 97.7618 71.9176 97.5912V97V96.4088V96.1529H72.1735H72.7647H73.3559H73.6118C73.6118 96.1529 73.6118 96.2382 73.6118 96.4088V97V97.5912V97.8471C73.6118 97.8471 73.5265 97.8471 73.3559 97.8471H72.7647H72.1735H71.9176ZM66.2706 96.4353C66.2706 96.4353 66.2706 96.35 66.2706 96.1794V95.5882V94.9971V94.7412H66.5265H67.1176H67.7088H67.9647C67.9647 94.7412 67.9647 94.8265 67.9647 94.9971V95.5882V96.1794V96.4353C67.9647 96.4353 67.8794 96.4353 67.7088 96.4353H67.1176H66.5265H66.2706ZM71.9176 96.4353C71.9176 96.4353 71.9176 96.35 71.9176 96.1794V95.5882V94.9971V94.7412H72.1735H72.7647H73.3559H73.6118C73.6118 94.7412 73.6118 94.8265 73.6118 94.9971V95.5882V96.1794V96.4353C73.6118 96.4353 73.5265 96.4353 73.3559 96.4353H72.7647H72.1735H71.9176ZM67.6824 95.0235C67.6824 95.0235 67.6824 94.9382 67.6824 94.7676V94.1765V93.5853V93.3294H67.9382H68.5294H69.1206H69.3765C69.3765 93.3294 69.3765 93.4147 69.3765 93.5853V94.1765V94.7676V95.0235C69.3765 95.0235 69.2912 95.0235 69.1206 95.0235H68.5294H67.9382H67.6824ZM69.0941 95.0235C69.0941 95.0235 69.0941 94.9382 69.0941 94.7676V94.1765V93.5853V93.3294H69.35H69.9412H70.5324H70.7882C70.7882 93.3294 70.7882 93.4147 70.7882 93.5853V94.1765V94.7676V95.0235C70.7882 95.0235 70.7029 95.0235 70.5324 95.0235H69.9412H69.35H69.0941ZM70.5059 95.0235C70.5059 95.0235 70.5059 94.9382 70.5059 94.7676V94.1765V93.5853V93.3294H70.7618H71.3529H71.9441H72.2C72.2 93.3294 72.2 93.4147 72.2 93.5853V94.1765V94.7676V95.0235C72.2 95.0235 72.1147 95.0235 71.9441 95.0235H71.3529H70.7618H70.5059ZM69.0941 103.494C69.0941 103.494 69.0941 103.409 69.0941 103.238V102.647V102.056V101.8H69.35H69.9412H70.5324H70.7882C70.7882 101.8 70.7882 101.885 70.7882 102.056V102.647V103.238V103.494C70.7882 103.494 70.7029 103.494 70.5324 103.494H69.9412H69.35H69.0941ZM69.0941 102.082C69.0941 102.082 69.0941 101.997 69.0941 101.826V101.235V100.644V100.388H69.35H69.9412H70.5324H70.7882C70.7882 100.388 70.7882 100.474 70.7882 100.644V101.235V101.826V102.082C70.7882 102.082 70.7029 102.082 70.5324 102.082H69.9412H69.35H69.0941ZM69.0941 100.671C69.0941 100.671 69.0941 100.585 69.0941 100.415V99.8235V99.2324V98.9765H69.35H69.9412H70.5324H70.7882C70.7882 98.9765 70.7882 99.0618 70.7882 99.2324V99.8235V100.415V100.671C70.7882 100.671 70.7029 100.671 70.5324 100.671H69.9412H69.35H69.0941ZM80.9612 109.141C80.9612 109.141 80.9612 109.056 80.9612 108.885V108.294V107.703V107.447H81.2171H81.8083H82.3994H82.6553C82.6553 107.447 82.6553 107.532 82.6553 107.703V108.294V108.885V109.141C82.6553 109.141 82.57 109.141 82.3994 109.141H81.8083H81.2171H80.9612ZM80.9612 107.729C80.9612 107.729 80.9612 107.644 80.9612 107.474V106.882V106.291V106.035H81.2171H81.8083H82.3994H82.6553C82.6553 106.035 82.6553 106.121 82.6553 106.291V106.882V107.474V107.729C82.6553 107.729 82.57 107.729 82.3994 107.729H81.8083H81.2171H80.9612ZM91.4152 109.141C91.4152 109.141 91.4152 109.056 91.4152 108.885V108.294V107.703V107.447H91.671H92.2622H92.8534H93.1093C93.1093 107.447 93.1093 107.532 93.1093 107.703V108.294V108.885V109.141C93.1093 109.141 93.024 109.141 92.8534 109.141H92.2622H91.671H91.4152ZM92.8269 109.141C92.8269 109.141 92.8269 109.056 92.8269 108.885V108.294V107.703V107.447H93.0828H93.674H94.2652H94.521C94.521 107.447 94.521 107.532 94.521 107.703V108.294V108.885V109.141C94.521 109.141 94.4358 109.141 94.2652 109.141H93.674H93.0828H92.8269ZM94.2387 109.141C94.2387 109.141 94.2387 109.056 94.2387 108.885V108.294V107.703V107.447H94.4946H95.0858H95.6769H95.9328C95.9328 107.447 95.9328 107.532 95.9328 107.703V108.294V108.885V109.141C95.9328 109.141 95.8475 109.141 95.6769 109.141H95.0858H94.4946H94.2387ZM90.0034 107.729C90.0034 107.729 90.0034 107.644 90.0034 107.474V106.882V106.291V106.035H90.2593H90.8505H91.4416H91.6975C91.6975 106.035 91.6975 106.121 91.6975 106.291V106.882V107.474V107.729C91.6975 107.729 91.6122 107.729 91.4416 107.729H90.8505H90.2593H90.0034ZM95.6505 107.729C95.6505 107.729 95.6505 107.644 95.6505 107.474V106.882V106.291V106.035H95.9063H96.4975H97.0887H97.3446C97.3446 106.035 97.3446 106.121 97.3446 106.291V106.882V107.474V107.729C97.3446 107.729 97.2593 107.729 97.0887 107.729H96.4975H95.9063H95.6505ZM90.0034 106.318C90.0034 106.318 90.0034 106.232 90.0034 106.062V105.471V104.879V104.624H90.2593H90.8505H91.4416H91.6975C91.6975 104.624 91.6975 104.709 91.6975 104.879V105.471V106.062V106.318C91.6975 106.318 91.6122 106.318 91.4416 106.318H90.8505H90.2593H90.0034ZM95.6505 106.318C95.6505 106.318 95.6505 106.232 95.6505 106.062V105.471V104.879V104.624H95.9063H96.4975H97.0887H97.3446C97.3446 104.624 97.3446 104.709 97.3446 104.879V105.471V106.062V106.318C97.3446 106.318 97.2593 106.318 97.0887 106.318H96.4975H95.9063H95.6505ZM90.0034 104.906C90.0034 104.906 90.0034 104.821 90.0034 104.65V104.059V103.468V103.212H90.2593H90.8505H91.4416H91.6975C91.6975 103.212 91.6975 103.297 91.6975 103.468V104.059V104.65V104.906C91.6975 104.906 91.6122 104.906 91.4416 104.906H90.8505H90.2593H90.0034ZM95.6505 104.906C95.6505 104.906 95.6505 104.821 95.6505 104.65V104.059V103.468V103.212H95.9063H96.4975H97.0887H97.3446C97.3446 103.212 97.3446 103.297 97.3446 103.468V104.059V104.65V104.906C97.3446 104.906 97.2593 104.906 97.0887 104.906H96.4975H95.9063H95.6505ZM90.0034 103.494C90.0034 103.494 90.0034 103.409 90.0034 103.238V102.647V102.056V101.8H90.2593H90.8505H91.4416H91.6975C91.6975 101.8 91.6975 101.885 91.6975 102.056V102.647V103.238V103.494C91.6975 103.494 91.6122 103.494 91.4416 103.494H90.8505H90.2593H90.0034ZM95.6505 103.494C95.6505 103.494 95.6505 103.409 95.6505 103.238V102.647V102.056V101.8H95.9063H96.4975H97.0887H97.3446C97.3446 101.8 97.3446 101.885 97.3446 102.056V102.647V103.238V103.494C97.3446 103.494 97.2593 103.494 97.0887 103.494H96.4975H95.9063H95.6505ZM90.0034 102.082C90.0034 102.082 90.0034 101.997 90.0034 101.826V101.235V100.644V100.388H90.2593H90.8505H91.4416H91.6975C91.6975 100.388 91.6975 100.474 91.6975 100.644V101.235V101.826V102.082C91.6975 102.082 91.6122 102.082 91.4416 102.082H90.8505H90.2593H90.0034ZM91.4152 102.082C91.4152 102.082 91.4152 101.997 91.4152 101.826V101.235V100.644V100.388H91.671H92.2622H92.8534H93.1093C93.1093 100.388 93.1093 100.474 93.1093 100.644V101.235V101.826V102.082C93.1093 102.082 93.024 102.082 92.8534 102.082H92.2622H91.671H91.4152ZM92.8269 102.082C92.8269 102.082 92.8269 101.997 92.8269 101.826V101.235V100.644V100.388H93.0828H93.674H94.2652H94.521C94.521 100.388 94.521 100.474 94.521 100.644V101.235V101.826V102.082C94.521 102.082 94.4358 102.082 94.2652 102.082H93.674H93.0828H92.8269ZM94.2387 102.082C94.2387 102.082 94.2387 101.997 94.2387 101.826V101.235V100.644V100.388H94.4946H95.0858H95.6769H95.9328C95.9328 100.388 95.9328 100.474 95.9328 100.644V101.235V101.826V102.082C95.9328 102.082 95.8475 102.082 95.6769 102.082H95.0858H94.4946H94.2387ZM90.0034 100.671C90.0034 100.671 90.0034 100.585 90.0034 100.415V99.8235V99.2324V98.9765H90.2593H90.8505H91.4416H91.6975C91.6975 98.9765 91.6975 99.0618 91.6975 99.2324V99.8235V100.415V100.671C91.6975 100.671 91.6122 100.671 91.4416 100.671H90.8505H90.2593H90.0034ZM90.0034 99.2588C90.0034 99.2588 90.0034 99.1735 90.0034 99.0029V98.4118V97.8206V97.5647H90.2593H90.8505H91.4416H91.6975C91.6975 97.5647 91.6975 97.65 91.6975 97.8206V98.4118V99.0029V99.2588C91.6975 99.2588 91.6122 99.2588 91.4416 99.2588H90.8505H90.2593H90.0034ZM90.0034 97.8471C90.0034 97.8471 90.0034 97.7618 90.0034 97.5912V97V96.4088V96.1529H90.2593H90.8505H91.4416H91.6975C91.6975 96.1529 91.6975 96.2382 91.6975 96.4088V97V97.5912V97.8471C91.6975 97.8471 91.6122 97.8471 91.4416 97.8471H90.8505H90.2593H90.0034ZM95.6505 97.8471C95.6505 97.8471 95.6505 97.7618 95.6505 97.5912V97V96.4088V96.1529H95.9063H96.4975H97.0887H97.3446C97.3446 96.1529 97.3446 96.2382 97.3446 96.4088V97V97.5912V97.8471C97.3446 97.8471 97.2593 97.8471 97.0887 97.8471H96.4975H95.9063H95.6505ZM90.0034 96.4353C90.0034 96.4353 90.0034 96.35 90.0034 96.1794V95.5882V94.9971V94.7412H90.2593H90.8505H91.4416H91.6975C91.6975 94.7412 91.6975 94.8265 91.6975 94.9971V95.5882V96.1794V96.4353C91.6975 96.4353 91.6122 96.4353 91.4416 96.4353H90.8505H90.2593H90.0034ZM95.6505 96.4353C95.6505 96.4353 95.6505 96.35 95.6505 96.1794V95.5882V94.9971V94.7412H95.9063H96.4975H97.0887H97.3446C97.3446 94.7412 97.3446 94.8265 97.3446 94.9971V95.5882V96.1794V96.4353C97.3446 96.4353 97.2593 96.4353 97.0887 96.4353H96.4975H95.9063H95.6505ZM91.4152 95.0235C91.4152 95.0235 91.4152 94.9382 91.4152 94.7676V94.1765V93.5853V93.3294H91.671H92.2622H92.8534H93.1093C93.1093 93.3294 93.1093 93.4147 93.1093 93.5853V94.1765V94.7676V95.0235C93.1093 95.0235 93.024 95.0235 92.8534 95.0235H92.2622H91.671H91.4152ZM92.8269 95.0235C92.8269 95.0235 92.8269 94.9382 92.8269 94.7676V94.1765V93.5853V93.3294H93.0828H93.674H94.2652H94.521C94.521 93.3294 94.521 93.4147 94.521 93.5853V94.1765V94.7676V95.0235C94.521 95.0235 94.4358 95.0235 94.2652 95.0235H93.674H93.0828H92.8269ZM94.2387 95.0235C94.2387 95.0235 94.2387 94.9382 94.2387 94.7676V94.1765V93.5853V93.3294H94.4946H95.0858H95.6769H95.9328C95.9328 93.3294 95.9328 93.4147 95.9328 93.5853V94.1765V94.7676V95.0235C95.9328 95.0235 95.8475 95.0235 95.6769 95.0235H95.0858H94.4946H94.2387ZM106.106 109.141C106.106 109.141 106.106 109.056 106.106 108.885V108.294V107.703V107.447H106.362H106.953H107.544H107.8C107.8 107.447 107.8 107.532 107.8 107.703V108.294V108.885V109.141C107.8 109.141 107.715 109.141 107.544 109.141H106.953H106.362H106.106ZM107.518 109.141C107.518 109.141 107.518 109.056 107.518 108.885V108.294V107.703V107.447H107.773H108.365H108.956H109.212C109.212 107.447 109.212 107.532 109.212 107.703V108.294V108.885V109.141C109.212 109.141 109.126 109.141 108.956 109.141H108.365H107.773H107.518ZM108.929 109.141C108.929 109.141 108.929 109.056 108.929 108.885V108.294V107.703V107.447H109.185H109.776H110.368H110.623C110.623 107.447 110.623 107.532 110.623 107.703V108.294V108.885V109.141C110.623 109.141 110.538 109.141 110.368 109.141H109.776H109.185H108.929ZM104.694 107.729C104.694 107.729 104.694 107.644 104.694 107.474V106.882V106.291V106.035H104.95H105.541H106.132H106.388C106.388 106.035 106.388 106.121 106.388 106.291V106.882V107.474V107.729C106.388 107.729 106.303 107.729 106.132 107.729H105.541H104.95H104.694ZM110.341 107.729C110.341 107.729 110.341 107.644 110.341 107.474V106.882V106.291V106.035H110.597H111.188H111.779H112.035C112.035 106.035 112.035 106.121 112.035 106.291V106.882V107.474V107.729C112.035 107.729 111.95 107.729 111.779 107.729H111.188H110.597H110.341ZM104.694 106.318C104.694 106.318 104.694 106.232 104.694 106.062V105.471V104.879V104.624H104.95H105.541H106.132H106.388C106.388 104.624 106.388 104.709 106.388 104.879V105.471V106.062V106.318C106.388 106.318 106.303 106.318 106.132 106.318H105.541H104.95H104.694ZM110.341 106.318C110.341 106.318 110.341 106.232 110.341 106.062V105.471V104.879V104.624H110.597H111.188H111.779H112.035C112.035 104.624 112.035 104.709 112.035 104.879V105.471V106.062V106.318C112.035 106.318 111.95 106.318 111.779 106.318H111.188H110.597H110.341ZM110.341 104.906C110.341 104.906 110.341 104.821 110.341 104.65V104.059V103.468V103.212H110.597H111.188H111.779H112.035C112.035 103.212 112.035 103.297 112.035 103.468V104.059V104.65V104.906C112.035 104.906 111.95 104.906 111.779 104.906H111.188H110.597H110.341ZM110.341 103.494C110.341 103.494 110.341 103.409 110.341 103.238V102.647V102.056V101.8H110.597H111.188H111.779H112.035C112.035 101.8 112.035 101.885 112.035 102.056V102.647V103.238V103.494C112.035 103.494 111.95 103.494 111.779 103.494H111.188H110.597H110.341ZM106.106 102.082C106.106 102.082 106.106 101.997 106.106 101.826V101.235V100.644V100.388H106.362H106.953H107.544H107.8C107.8 100.388 107.8 100.474 107.8 100.644V101.235V101.826V102.082C107.8 102.082 107.715 102.082 107.544 102.082H106.953H106.362H106.106ZM107.518 102.082C107.518 102.082 107.518 101.997 107.518 101.826V101.235V100.644V100.388H107.773H108.365H108.956H109.212C109.212 100.388 109.212 100.474 109.212 100.644V101.235V101.826V102.082C109.212 102.082 109.126 102.082 108.956 102.082H108.365H107.773H107.518ZM108.929 102.082C108.929 102.082 108.929 101.997 108.929 101.826V101.235V100.644V100.388H109.185H109.776H110.368H110.623C110.623 100.388 110.623 100.474 110.623 100.644V101.235V101.826V102.082C110.623 102.082 110.538 102.082 110.368 102.082H109.776H109.185H108.929ZM110.341 102.082C110.341 102.082 110.341 101.997 110.341 101.826V101.235V100.644V100.388H110.597H111.188H111.779H112.035C112.035 100.388 112.035 100.474 112.035 100.644V101.235V101.826V102.082C112.035 102.082 111.95 102.082 111.779 102.082H111.188H110.597H110.341ZM104.694 100.671C104.694 100.671 104.694 100.585 104.694 100.415V99.8235V99.2324V98.9765H104.95H105.541H106.132H106.388C106.388 98.9765 106.388 99.0618 106.388 99.2324V99.8235V100.415V100.671C106.388 100.671 106.303 100.671 106.132 100.671H105.541H104.95H104.694ZM110.341 100.671C110.341 100.671 110.341 100.585 110.341 100.415V99.8235V99.2324V98.9765H110.597H111.188H111.779H112.035C112.035 98.9765 112.035 99.0618 112.035 99.2324V99.8235V100.415V100.671C112.035 100.671 111.95 100.671 111.779 100.671H111.188H110.597H110.341ZM104.694 99.2588C104.694 99.2588 104.694 99.1735 104.694 99.0029V98.4118V97.8206V97.5647H104.95H105.541H106.132H106.388C106.388 97.5647 106.388 97.65 106.388 97.8206V98.4118V99.0029V99.2588C106.388 99.2588 106.303 99.2588 106.132 99.2588H105.541H104.95H104.694ZM110.341 99.2588C110.341 99.2588 110.341 99.1735 110.341 99.0029V98.4118V97.8206V97.5647H110.597H111.188H111.779H112.035C112.035 97.5647 112.035 97.65 112.035 97.8206V98.4118V99.0029V99.2588C112.035 99.2588 111.95 99.2588 111.779 99.2588H111.188H110.597H110.341ZM104.694 97.8471C104.694 97.8471 104.694 97.7618 104.694 97.5912V97V96.4088V96.1529H104.95H105.541H106.132H106.388C106.388 96.1529 106.388 96.2382 106.388 96.4088V97V97.5912V97.8471C106.388 97.8471 106.303 97.8471 106.132 97.8471H105.541H104.95H104.694ZM110.341 97.8471C110.341 97.8471 110.341 97.7618 110.341 97.5912V97V96.4088V96.1529H110.597H111.188H111.779H112.035C112.035 96.1529 112.035 96.2382 112.035 96.4088V97V97.5912V97.8471C112.035 97.8471 111.95 97.8471 111.779 97.8471H111.188H110.597H110.341ZM104.694 96.4353C104.694 96.4353 104.694 96.35 104.694 96.1794V95.5882V94.9971V94.7412H104.95H105.541H106.132H106.388C106.388 94.7412 106.388 94.8265 106.388 94.9971V95.5882V96.1794V96.4353C106.388 96.4353 106.303 96.4353 106.132 96.4353H105.541H104.95H104.694ZM110.341 96.4353C110.341 96.4353 110.341 96.35 110.341 96.1794V95.5882V94.9971V94.7412H110.597H111.188H111.779H112.035C112.035 94.7412 112.035 94.8265 112.035 94.9971V95.5882V96.1794V96.4353C112.035 96.4353 111.95 96.4353 111.779 96.4353H111.188H110.597H110.341ZM106.106 95.0235C106.106 95.0235 106.106 94.9382 106.106 94.7676V94.1765V93.5853V93.3294H106.362H106.953H107.544H107.8C107.8 93.3294 107.8 93.4147 107.8 93.5853V94.1765V94.7676V95.0235C107.8 95.0235 107.715 95.0235 107.544 95.0235H106.953H106.362H106.106ZM107.518 95.0235C107.518 95.0235 107.518 94.9382 107.518 94.7676V94.1765V93.5853V93.3294H107.773H108.365H108.956H109.212C109.212 93.3294 109.212 93.4147 109.212 93.5853V94.1765V94.7676V95.0235C109.212 95.0235 109.126 95.0235 108.956 95.0235H108.365H107.773H107.518ZM108.929 95.0235C108.929 95.0235 108.929 94.9382 108.929 94.7676V94.1765V93.5853V93.3294H109.185H109.776H110.368H110.623C110.623 93.3294 110.623 93.4147 110.623 93.5853V94.1765V94.7676V95.0235C110.623 95.0235 110.538 95.0235 110.368 95.0235H109.776H109.185H108.929ZM120.796 100.671C120.796 100.671 120.796 100.585 120.796 100.415V99.8235V99.2324V98.9765H121.052H121.643H122.235H122.491C122.491 98.9765 122.491 99.0618 122.491 99.2324V99.8235V100.415V100.671C122.491 100.671 122.405 100.671 122.235 100.671H121.643H121.052H120.796ZM119.385 99.9647C119.385 99.9647 119.385 99.8794 119.385 99.7088V99.1176V98.5265V98.2706H119.641H120.232H120.823H121.079C121.079 98.2706 121.079 98.3559 121.079 98.5265V99.1176V99.7088V99.9647C121.079 99.9647 120.993 99.9647 120.823 99.9647H120.232H119.641H119.385ZM122.208 99.9647C122.208 99.9647 122.208 99.8794 122.208 99.7088V99.1176V98.5265V98.2706H122.464H123.055H123.646H123.902C123.902 98.2706 123.902 98.3559 123.902 98.5265V99.1176V99.7088V99.9647C123.902 99.9647 123.817 99.9647 123.646 99.9647H123.055H122.464H122.208ZM119.385 98.5529C119.385 98.5529 119.385 98.4676 119.385 98.2971V97.7059V97.1147V96.8588H119.641H120.232H120.823H121.079C121.079 96.8588 121.079 96.9441 121.079 97.1147V97.7059V98.2971V98.5529C121.079 98.5529 120.993 98.5529 120.823 98.5529H120.232H119.641H119.385ZM122.208 98.5529C122.208 98.5529 122.208 98.4676 122.208 98.2971V97.7059V97.1147V96.8588H122.464H123.055H123.646H123.902C123.902 96.8588 123.902 96.9441 123.902 97.1147V97.7059V98.2971V98.5529C123.902 98.5529 123.817 98.5529 123.646 98.5529H123.055H122.464H122.208ZM119.385 97.1412C119.385 97.1412 119.385 97.0559 119.385 96.8853V96.2941V95.7029V95.4471H119.641H120.232H120.823H121.079C121.079 95.4471 121.079 95.5324 121.079 95.7029V96.2941V96.8853V97.1412C121.079 97.1412 120.993 97.1412 120.823 97.1412H120.232H119.641H119.385ZM122.208 97.1412C122.208 97.1412 122.208 97.0559 122.208 96.8853V96.2941V95.7029V95.4471H122.464H123.055H123.646H123.902C123.902 95.4471 123.902 95.5324 123.902 95.7029V96.2941V96.8853V97.1412C123.902 97.1412 123.817 97.1412 123.646 97.1412H123.055H122.464H122.208ZM120.796 96.4353C120.796 96.4353 120.796 96.35 120.796 96.1794V95.5882V94.9971V94.7412H121.052H121.643H122.235H122.491C122.491 94.7412 122.491 94.8265 122.491 94.9971V95.5882V96.1794V96.4353C122.491 96.4353 122.405 96.4353 122.235 96.4353H121.643H121.052H120.796ZM121.502 109.141C121.502 109.141 121.502 109.056 121.502 108.885V108.294V107.703V107.447H121.758H122.349H122.941H123.196C123.196 107.447 123.196 107.532 123.196 107.703V108.294V108.885V109.141C123.196 109.141 123.111 109.141 122.941 109.141H122.349H121.758H121.502ZM122.208 107.729C122.208 107.729 122.208 107.644 122.208 107.474V106.882V106.291V106.035H122.464H123.055H123.646H123.902C123.902 106.035 123.902 106.121 123.902 106.291V106.882V107.474V107.729C123.902 107.729 123.817 107.729 123.646 107.729H123.055H122.464H122.208ZM122.914 106.318C122.914 106.318 122.914 106.232 122.914 106.062V105.471V104.879V104.624H123.17H123.761H124.352H124.608C124.608 104.624 124.608 104.709 124.608 104.879V105.471V106.062V106.318C124.608 106.318 124.523 106.318 124.352 106.318H123.761H123.17H122.914ZM123.62 104.906C123.62 104.906 123.62 104.821 123.62 104.65V104.059V103.468V103.212H123.876H124.467H125.058H125.314C125.314 103.212 125.314 103.297 125.314 103.468V104.059V104.65V104.906C125.314 104.906 125.229 104.906 125.058 104.906H124.467H123.876H123.62ZM124.326 103.494C124.326 103.494 124.326 103.409 124.326 103.238V102.647V102.056V101.8H124.582H125.173H125.764H126.02C126.02 101.8 126.02 101.885 126.02 102.056V102.647V103.238V103.494C126.02 103.494 125.935 103.494 125.764 103.494H125.173H124.582H124.326ZM125.032 102.082C125.032 102.082 125.032 101.997 125.032 101.826V101.235V100.644V100.388H125.288H125.879H126.47H126.726C126.726 100.388 126.726 100.474 126.726 100.644V101.235V101.826V102.082C126.726 102.082 126.641 102.082 126.47 102.082H125.879H125.288H125.032ZM125.738 100.671C125.738 100.671 125.738 100.585 125.738 100.415V99.8235V99.2324V98.9765H125.993H126.585H127.176H127.432C127.432 98.9765 127.432 99.0618 127.432 99.2324V99.8235V100.415V100.671C127.432 100.671 127.346 100.671 127.176 100.671H126.585H125.993H125.738ZM126.443 99.2588C126.443 99.2588 126.443 99.1735 126.443 99.0029V98.4118V97.8206V97.5647H126.699H127.291H127.882H128.138C128.138 97.5647 128.138 97.65 128.138 97.8206V98.4118V99.0029V99.2588C128.138 99.2588 128.052 99.2588 127.882 99.2588H127.291H126.699H126.443ZM127.149 97.8471C127.149 97.8471 127.149 97.7618 127.149 97.5912V97V96.4088V96.1529H127.405H127.996H128.588H128.843C128.843 96.1529 128.843 96.2382 128.843 96.4088V97V97.5912V97.8471C128.843 97.8471 128.758 97.8471 128.588 97.8471H127.996H127.405H127.149ZM127.855 96.4353C127.855 96.4353 127.855 96.35 127.855 96.1794V95.5882V94.9971V94.7412H128.111H128.702H129.293H129.549C129.549 94.7412 129.549 94.8265 129.549 94.9971V95.5882V96.1794V96.4353C129.549 96.4353 129.464 96.4353 129.293 96.4353H128.702H128.111H127.855ZM128.561 95.0235C128.561 95.0235 128.561 94.9382 128.561 94.7676V94.1765V93.5853V93.3294H128.817H129.408H129.999H130.255C130.255 93.3294 130.255 93.4147 130.255 93.5853V94.1765V94.7676V95.0235C130.255 95.0235 130.17 95.0235 129.999 95.0235H129.408H128.817H128.561ZM129.267 107.729C129.267 107.729 129.267 107.644 129.267 107.474V106.882V106.291V106.035H129.523H130.114H130.705H130.961C130.961 106.035 130.961 106.121 130.961 106.291V106.882V107.474V107.729C130.961 107.729 130.876 107.729 130.705 107.729H130.114H129.523H129.267ZM127.855 107.024C127.855 107.024 127.855 106.938 127.855 106.768V106.176V105.585V105.329H128.111H128.702H129.293H129.549C129.549 105.329 129.549 105.415 129.549 105.585V106.176V106.768V107.024C129.549 107.024 129.464 107.024 129.293 107.024H128.702H128.111H127.855ZM130.679 107.024C130.679 107.024 130.679 106.938 130.679 106.768V106.176V105.585V105.329H130.935H131.526H132.117H132.373C132.373 105.329 132.373 105.415 132.373 105.585V106.176V106.768V107.024C132.373 107.024 132.288 107.024 132.117 107.024H131.526H130.935H130.679ZM127.855 105.612C127.855 105.612 127.855 105.526 127.855 105.356V104.765V104.174V103.918H128.111H128.702H129.293H129.549C129.549 103.918 129.549 104.003 129.549 104.174V104.765V105.356V105.612C129.549 105.612 129.464 105.612 129.293 105.612H128.702H128.111H127.855ZM130.679 105.612C130.679 105.612 130.679 105.526 130.679 105.356V104.765V104.174V103.918H130.935H131.526H132.117H132.373C132.373 103.918 132.373 104.003 132.373 104.174V104.765V105.356V105.612C132.373 105.612 132.288 105.612 132.117 105.612H131.526H130.935H130.679ZM127.855 104.2C127.855 104.2 127.855 104.115 127.855 103.944V103.353V102.762V102.506H128.111H128.702H129.293H129.549C129.549 102.506 129.549 102.591 129.549 102.762V103.353V103.944V104.2C129.549 104.2 129.464 104.2 129.293 104.2H128.702H128.111H127.855ZM130.679 104.2C130.679 104.2 130.679 104.115 130.679 103.944V103.353V102.762V102.506H130.935H131.526H132.117H132.373C132.373 102.506 132.373 102.591 132.373 102.762V103.353V103.944V104.2C132.373 104.2 132.288 104.2 132.117 104.2H131.526H130.935H130.679ZM129.267 103.494C129.267 103.494 129.267 103.409 129.267 103.238V102.647V102.056V101.8H129.523H130.114H130.705H130.961C130.961 101.8 130.961 101.885 130.961 102.056V102.647V103.238V103.494C130.961 103.494 130.876 103.494 130.705 103.494H130.114H129.523H129.267Z" fill="white"/>
<defs>
<linearGradient id="paint0_linear_2161_221252" x1="100" y1="-4.85985e-06" x2="-63.3094" y2="121.011" gradientUnits="userSpaceOnUse">
<stop stop-color="#3E3E3E"/>
<stop offset="1" stop-color="#4FB848"/>
</linearGradient>
</defs>
</svg>
