<svg width="1347" height="287" viewBox="0 0 1347 287" fill="none" xmlns="http://www.w3.org/2000/svg">
<line x1="1342" y1="274.558" x2="79.5249" y2="274.558" stroke="#3E3E3E"/>
<line x1="79.0249" y1="275.363" x2="79.0249" y2="26" stroke="#3E3E3E"/>
<path d="M22.6176 270.976C22.6176 270.976 22.6176 270.935 22.6176 270.854V270.571V270.29V270.167H22.739H23.0221H23.3035H23.4265C23.4265 270.167 23.4265 270.208 23.4265 270.29V270.167H23.5478H23.8309H24.1123H24.2353C24.2353 270.167 24.2353 270.208 24.2353 270.29V270.167H24.3566H24.6397H24.9211H25.0441C25.0441 270.167 25.0441 270.208 25.0441 270.29V270.571V270.854V270.976C25.0441 270.976 25.0031 270.976 24.9211 270.976H24.6397H24.3566H24.2353C24.2353 270.976 24.2353 270.935 24.2353 270.854V270.976C24.2353 270.976 24.1943 270.976 24.1123 270.976H23.8309H23.5478H23.4265C23.4265 270.976 23.4265 270.935 23.4265 270.854V270.976C23.4265 270.976 23.3855 270.976 23.3035 270.976H23.0221H22.739H22.6176ZM21.8088 270.167C21.8088 270.167 21.8088 270.126 21.8088 270.045V269.762V269.481V269.358C21.8088 269.358 21.8088 269.317 21.8088 269.237V268.954V268.672V268.549C21.8088 268.549 21.8088 268.509 21.8088 268.428V268.145V267.863V267.74C21.8088 267.74 21.8088 267.7 21.8088 267.619V267.336V267.054V266.931C21.8088 266.931 21.8088 266.891 21.8088 266.81V266.527V266.246V266.123C21.8088 266.123 21.8088 266.082 21.8088 266.001V265.718V265.437V265.314C21.8088 265.314 21.8088 265.273 21.8088 265.192V264.909V264.628V264.505C21.8088 264.505 21.8088 264.465 21.8088 264.384V264.101V263.819V263.696C21.8088 263.696 21.8088 263.656 21.8088 263.575V263.292V263.01V262.887H21.9301H22.2132H22.4946H22.6176C22.6176 262.887 22.6176 262.928 22.6176 263.01V263.292V263.575V263.696C22.6176 263.696 22.5766 263.696 22.4946 263.696H22.6176C22.6176 263.696 22.6176 263.737 22.6176 263.819V264.101V264.384V264.505C22.6176 264.505 22.5766 264.505 22.4946 264.505H22.6176C22.6176 264.505 22.6176 264.546 22.6176 264.628V264.909V265.192V265.314C22.6176 265.314 22.5766 265.314 22.4946 265.314H22.6176C22.6176 265.314 22.6176 265.355 22.6176 265.437V265.718V266.001V266.123C22.6176 266.123 22.5766 266.123 22.4946 266.123H22.6176C22.6176 266.123 22.6176 266.164 22.6176 266.246V266.527V266.81V266.931C22.6176 266.931 22.5766 266.931 22.4946 266.931H22.6176C22.6176 266.931 22.6176 266.972 22.6176 267.054V267.336V267.619V267.74C22.6176 267.74 22.5766 267.74 22.4946 267.74H22.6176C22.6176 267.74 22.6176 267.781 22.6176 267.863V268.145V268.428V268.549C22.6176 268.549 22.5766 268.549 22.4946 268.549H22.6176C22.6176 268.549 22.6176 268.59 22.6176 268.672V268.954V269.237V269.358C22.6176 269.358 22.5766 269.358 22.4946 269.358H22.6176C22.6176 269.358 22.6176 269.399 22.6176 269.481V269.762V270.045V270.167C22.6176 270.167 22.5766 270.167 22.4946 270.167H22.2132H21.9301H21.8088ZM25.0441 270.167C25.0441 270.167 25.0441 270.126 25.0441 270.045V269.762V269.481V269.358C25.0441 269.358 25.0441 269.317 25.0441 269.237V268.954V268.672V268.549C25.0441 268.549 25.0441 268.509 25.0441 268.428V268.145V267.863V267.74C25.0441 267.74 25.0441 267.7 25.0441 267.619V267.336V267.054V266.931C25.0441 266.931 25.0441 266.891 25.0441 266.81V266.527V266.246V266.123C25.0441 266.123 25.0441 266.082 25.0441 266.001V265.718V265.437V265.314C25.0441 265.314 25.0441 265.273 25.0441 265.192V264.909V264.628V264.505C25.0441 264.505 25.0441 264.465 25.0441 264.384V264.101V263.819V263.696C25.0441 263.696 25.0441 263.656 25.0441 263.575V263.292V263.01V262.887H25.1654H25.4485H25.7299H25.8529C25.8529 262.887 25.8529 262.928 25.8529 263.01V263.292V263.575V263.696C25.8529 263.696 25.8119 263.696 25.7299 263.696H25.8529C25.8529 263.696 25.8529 263.737 25.8529 263.819V264.101V264.384V264.505C25.8529 264.505 25.8119 264.505 25.7299 264.505H25.8529C25.8529 264.505 25.8529 264.546 25.8529 264.628V264.909V265.192V265.314C25.8529 265.314 25.8119 265.314 25.7299 265.314H25.8529C25.8529 265.314 25.8529 265.355 25.8529 265.437V265.718V266.001V266.123C25.8529 266.123 25.8119 266.123 25.7299 266.123H25.8529C25.8529 266.123 25.8529 266.164 25.8529 266.246V266.527V266.81V266.931C25.8529 266.931 25.8119 266.931 25.7299 266.931H25.8529C25.8529 266.931 25.8529 266.972 25.8529 267.054V267.336V267.619V267.74C25.8529 267.74 25.8119 267.74 25.7299 267.74H25.8529C25.8529 267.74 25.8529 267.781 25.8529 267.863V268.145V268.428V268.549C25.8529 268.549 25.8119 268.549 25.7299 268.549H25.8529C25.8529 268.549 25.8529 268.59 25.8529 268.672V268.954V269.237V269.358C25.8529 269.358 25.8119 269.358 25.7299 269.358H25.8529C25.8529 269.358 25.8529 269.399 25.8529 269.481V269.762V270.045V270.167C25.8529 270.167 25.8119 270.167 25.7299 270.167H25.4485H25.1654H25.0441ZM22.6176 262.887C22.6176 262.887 22.6176 262.847 22.6176 262.766V262.483V262.202V262.079H22.739H23.0221H23.3035H23.4265C23.4265 262.079 23.4265 262.12 23.4265 262.202V262.079H23.5478H23.8309H24.1123H24.2353C24.2353 262.079 24.2353 262.12 24.2353 262.202V262.079H24.3566H24.6397H24.9211H25.0441C25.0441 262.079 25.0441 262.12 25.0441 262.202V262.483V262.766V262.887C25.0441 262.887 25.0031 262.887 24.9211 262.887H24.6397H24.3566H24.2353C24.2353 262.887 24.2353 262.847 24.2353 262.766V262.887C24.2353 262.887 24.1943 262.887 24.1123 262.887H23.8309H23.5478H23.4265C23.4265 262.887 23.4265 262.847 23.4265 262.766V262.887C23.4265 262.887 23.3855 262.887 23.3035 262.887H23.0221H22.739H22.6176ZM23.4265 267.74C23.4265 267.74 23.4265 267.7 23.4265 267.619V267.336V267.054V266.931C23.4265 266.931 23.4265 266.891 23.4265 266.81V266.527V266.246V266.123C23.4265 266.123 23.4265 266.082 23.4265 266.001V265.718V265.437V265.314H23.5478H23.8309H24.1123H24.2353C24.2353 265.314 24.2353 265.355 24.2353 265.437V265.718V266.001V266.123C24.2353 266.123 24.1943 266.123 24.1123 266.123H24.2353C24.2353 266.123 24.2353 266.164 24.2353 266.246V266.527V266.81V266.931C24.2353 266.931 24.1943 266.931 24.1123 266.931H24.2353C24.2353 266.931 24.2353 266.972 24.2353 267.054V267.336V267.619V267.74C24.2353 267.74 24.1943 267.74 24.1123 267.74H23.8309H23.5478H23.4265ZM31.0342 266.123C31.0342 266.123 31.0342 266.082 31.0342 266.001V265.718V265.437V265.314H31.1555H31.4386H31.72H31.843C31.843 265.314 31.843 265.355 31.843 265.437V265.718V266.001V266.123C31.843 266.123 31.802 266.123 31.72 266.123H31.4386H31.1555H31.0342ZM30.2253 265.718C30.2253 265.718 30.2253 265.678 30.2253 265.597V265.314V265.032V264.909C30.2253 264.909 30.2253 264.869 30.2253 264.788V264.505V264.224V264.101C30.2253 264.101 30.2253 264.06 30.2253 263.979V263.696V263.415V263.292H30.3467H30.6297H30.9111H31.0342C31.0342 263.292 31.0342 263.333 31.0342 263.415V263.696V263.979V264.101C31.0342 264.101 30.9931 264.101 30.9111 264.101H31.0342C31.0342 264.101 31.0342 264.142 31.0342 264.224V264.505V264.788V264.909C31.0342 264.909 30.9931 264.909 30.9111 264.909H31.0342C31.0342 264.909 31.0342 264.95 31.0342 265.032V265.314V265.597V265.718C31.0342 265.718 30.9931 265.718 30.9111 265.718H30.6297H30.3467H30.2253ZM31.843 265.718C31.843 265.718 31.843 265.678 31.843 265.597V265.314V265.032V264.909C31.843 264.909 31.843 264.869 31.843 264.788V264.505V264.224V264.101C31.843 264.101 31.843 264.06 31.843 263.979V263.696V263.415V263.292H31.9643H32.2474H32.5288H32.6518C32.6518 263.292 32.6518 263.333 32.6518 263.415V263.696V263.979V264.101C32.6518 264.101 32.6108 264.101 32.5288 264.101H32.6518C32.6518 264.101 32.6518 264.142 32.6518 264.224V264.505V264.788V264.909C32.6518 264.909 32.6108 264.909 32.5288 264.909H32.6518C32.6518 264.909 32.6518 264.95 32.6518 265.032V265.314V265.597V265.718C32.6518 265.718 32.6108 265.718 32.5288 265.718H32.2474H31.9643H31.843ZM31.0342 263.696C31.0342 263.696 31.0342 263.656 31.0342 263.575V263.292V263.01V262.887H31.1555H31.4386H31.72H31.843C31.843 262.887 31.843 262.928 31.843 263.01V263.292V263.575V263.696C31.843 263.696 31.802 263.696 31.72 263.696H31.4386H31.1555H31.0342ZM31.4386 270.976C31.4386 270.976 31.4386 270.935 31.4386 270.854V270.571V270.29V270.167H31.5599H31.843H32.1244H32.2474C32.2474 270.167 32.2474 270.208 32.2474 270.29V270.571V270.854V270.976C32.2474 270.976 32.2064 270.976 32.1244 270.976H31.843H31.5599H31.4386ZM31.843 270.167C31.843 270.167 31.843 270.126 31.843 270.045V269.762V269.481V269.358H31.9643H32.2474H32.5288H32.6518C32.6518 269.358 32.6518 269.399 32.6518 269.481V269.762V270.045V270.167C32.6518 270.167 32.6108 270.167 32.5288 270.167H32.2474H31.9643H31.843ZM32.2474 269.358C32.2474 269.358 32.2474 269.317 32.2474 269.237V268.954V268.672V268.549H32.3687H32.6518H32.9332H33.0562C33.0562 268.549 33.0562 268.59 33.0562 268.672V268.954V269.237V269.358C33.0562 269.358 33.0152 269.358 32.9332 269.358H32.6518H32.3687H32.2474ZM32.6518 268.549C32.6518 268.549 32.6518 268.509 32.6518 268.428V268.145V267.863V267.74H32.7731H33.0562H33.3376H33.4606C33.4606 267.74 33.4606 267.781 33.4606 267.863V268.145V268.428V268.549C33.4606 268.549 33.4196 268.549 33.3376 268.549H33.0562H32.7731H32.6518ZM33.0562 267.74C33.0562 267.74 33.0562 267.7 33.0562 267.619V267.336V267.054V266.931H33.1775H33.4606H33.742H33.865C33.865 266.931 33.865 266.972 33.865 267.054V267.336V267.619V267.74C33.865 267.74 33.824 267.74 33.742 267.74H33.4606H33.1775H33.0562ZM33.4606 266.931C33.4606 266.931 33.4606 266.891 33.4606 266.81V266.527V266.246V266.123H33.5819H33.865H34.1464H34.2694C34.2694 266.123 34.2694 266.164 34.2694 266.246V266.527V266.81V266.931C34.2694 266.931 34.2284 266.931 34.1464 266.931H33.865H33.5819H33.4606ZM33.865 266.123C33.865 266.123 33.865 266.082 33.865 266.001V265.718V265.437V265.314H33.9864H34.2694H34.5508H34.6739C34.6739 265.314 34.6739 265.355 34.6739 265.437V265.718V266.001V266.123C34.6739 266.123 34.6329 266.123 34.5508 266.123H34.2694H33.9864H33.865ZM34.2694 265.314C34.2694 265.314 34.2694 265.273 34.2694 265.192V264.909V264.628V264.505H34.3908H34.6739H34.9553H35.0783C35.0783 264.505 35.0783 264.546 35.0783 264.628V264.909V265.192V265.314C35.0783 265.314 35.0373 265.314 34.9553 265.314H34.6739H34.3908H34.2694ZM34.6739 264.505C34.6739 264.505 34.6739 264.465 34.6739 264.384V264.101V263.819V263.696H34.7952H35.0783H35.3597H35.4827C35.4827 263.696 35.4827 263.737 35.4827 263.819V264.101V264.384V264.505C35.4827 264.505 35.4417 264.505 35.3597 264.505H35.0783H34.7952H34.6739ZM35.0783 263.696C35.0783 263.696 35.0783 263.656 35.0783 263.575V263.292V263.01V262.887H35.1996H35.4827H35.7641H35.8871C35.8871 262.887 35.8871 262.928 35.8871 263.01V263.292V263.575V263.696C35.8871 263.696 35.8461 263.696 35.7641 263.696H35.4827H35.1996H35.0783ZM35.4827 262.887C35.4827 262.887 35.4827 262.847 35.4827 262.766V262.483V262.202V262.079H35.604H35.8871H36.1685H36.2915C36.2915 262.079 36.2915 262.12 36.2915 262.202V262.483V262.766V262.887C36.2915 262.887 36.2505 262.887 36.1685 262.887H35.8871H35.604H35.4827ZM35.8871 270.167C35.8871 270.167 35.8871 270.126 35.8871 270.045V269.762V269.481V269.358H36.0084H36.2915H36.5729H36.6959C36.6959 269.358 36.6959 269.399 36.6959 269.481V269.762V270.045V270.167C36.6959 270.167 36.6549 270.167 36.5729 270.167H36.2915H36.0084H35.8871ZM35.0783 269.762C35.0783 269.762 35.0783 269.722 35.0783 269.641V269.358V269.077V268.954C35.0783 268.954 35.0783 268.913 35.0783 268.832V268.549V268.268V268.145C35.0783 268.145 35.0783 268.104 35.0783 268.023V267.74V267.459V267.336H35.1996H35.4827H35.7641H35.8871C35.8871 267.336 35.8871 267.377 35.8871 267.459V267.74V268.023V268.145C35.8871 268.145 35.8461 268.145 35.7641 268.145H35.8871C35.8871 268.145 35.8871 268.186 35.8871 268.268V268.549V268.832V268.954C35.8871 268.954 35.8461 268.954 35.7641 268.954H35.8871C35.8871 268.954 35.8871 268.995 35.8871 269.077V269.358V269.641V269.762C35.8871 269.762 35.8461 269.762 35.7641 269.762H35.4827H35.1996H35.0783ZM36.6959 269.762C36.6959 269.762 36.6959 269.722 36.6959 269.641V269.358V269.077V268.954C36.6959 268.954 36.6959 268.913 36.6959 268.832V268.549V268.268V268.145C36.6959 268.145 36.6959 268.104 36.6959 268.023V267.74V267.459V267.336H36.8172H37.1003H37.3817H37.5047C37.5047 267.336 37.5047 267.377 37.5047 267.459V267.74V268.023V268.145C37.5047 268.145 37.4637 268.145 37.3817 268.145H37.5047C37.5047 268.145 37.5047 268.186 37.5047 268.268V268.549V268.832V268.954C37.5047 268.954 37.4637 268.954 37.3817 268.954H37.5047C37.5047 268.954 37.5047 268.995 37.5047 269.077V269.358V269.641V269.762C37.5047 269.762 37.4637 269.762 37.3817 269.762H37.1003H36.8172H36.6959ZM35.8871 267.74C35.8871 267.74 35.8871 267.7 35.8871 267.619V267.336V267.054V266.931H36.0084H36.2915H36.5729H36.6959C36.6959 266.931 36.6959 266.972 36.6959 267.054V267.336V267.619V267.74C36.6959 267.74 36.6549 267.74 36.5729 267.74H36.2915H36.0084H35.8871Z" fill="white" fill-opacity="0.9"/>
<path d="M21.4044 180.58C21.4044 180.58 21.4044 180.539 21.4044 180.458V180.175V179.894V179.771C21.4044 179.771 21.4044 179.73 21.4044 179.649V179.366V179.085V178.962C21.4044 178.962 21.4044 178.922 21.4044 178.841V178.558V178.276V178.153H21.5257H21.8088H22.0902H22.2132C22.2132 178.153 22.2132 178.194 22.2132 178.276V178.558V178.841V178.962C22.2132 178.962 22.1722 178.962 22.0902 178.962H22.2132C22.2132 178.962 22.2132 179.003 22.2132 179.085V179.366V179.649V179.771C22.2132 179.771 22.1722 179.771 22.0902 179.771H22.2132C22.2132 179.771 22.2132 179.812 22.2132 179.894V179.771H22.3346H22.6176H22.8991H23.0221C23.0221 179.771 23.0221 179.812 23.0221 179.894V179.771H23.1434H23.4265H23.7079H23.8309C23.8309 179.771 23.8309 179.812 23.8309 179.894V179.771C23.8309 179.771 23.8309 179.73 23.8309 179.649V179.366V179.085V178.962C23.8309 178.962 23.8309 178.922 23.8309 178.841V178.558V178.276V178.153H23.9522H24.2353H24.5167H24.6397C24.6397 178.153 24.6397 178.194 24.6397 178.276V178.558V178.841V178.962C24.6397 178.962 24.5987 178.962 24.5167 178.962H24.6397C24.6397 178.962 24.6397 179.003 24.6397 179.085V179.366V179.649V179.771C24.6397 179.771 24.5987 179.771 24.5167 179.771H24.6397C24.6397 179.771 24.6397 179.812 24.6397 179.894V179.771H24.761H25.0441H25.3255H25.4485C25.4485 179.771 25.4485 179.812 25.4485 179.894V179.771H25.5699H25.8529H26.1343H26.2574C26.2574 179.771 26.2574 179.812 26.2574 179.894V180.175V180.458V180.58C26.2574 180.58 26.2164 180.58 26.1343 180.58H25.8529H25.5699H25.4485C25.4485 180.58 25.4485 180.539 25.4485 180.458V180.58C25.4485 180.58 25.4075 180.58 25.3255 180.58H25.0441H24.761H24.6397C24.6397 180.58 24.6397 180.539 24.6397 180.458V180.58C24.6397 180.58 24.5987 180.58 24.5167 180.58H24.6397C24.6397 180.58 24.6397 180.621 24.6397 180.703V180.984V181.267V181.388C24.6397 181.388 24.5987 181.388 24.5167 181.388H24.6397C24.6397 181.388 24.6397 181.429 24.6397 181.511V181.793V182.076V182.197C24.6397 182.197 24.5987 182.197 24.5167 182.197H24.2353H23.9522H23.8309C23.8309 182.197 23.8309 182.157 23.8309 182.076V181.793V181.511V181.388C23.8309 181.388 23.8309 181.348 23.8309 181.267V180.984V180.703V180.58C23.8309 180.58 23.8309 180.539 23.8309 180.458V180.58C23.8309 180.58 23.7899 180.58 23.7079 180.58H23.4265H23.1434H23.0221C23.0221 180.58 23.0221 180.539 23.0221 180.458V180.58C23.0221 180.58 22.9811 180.58 22.8991 180.58H22.6176H22.3346H22.2132C22.2132 180.58 22.2132 180.539 22.2132 180.458V180.58C22.2132 180.58 22.1722 180.58 22.0902 180.58H21.8088H21.5257H21.4044ZM21.8088 178.153C21.8088 178.153 21.8088 178.113 21.8088 178.032V177.749V177.467V177.344H21.9301H22.2132H22.4946H22.6176C22.6176 177.344 22.6176 177.385 22.6176 177.467V177.749V178.032V178.153C22.6176 178.153 22.5766 178.153 22.4946 178.153H22.2132H21.9301H21.8088ZM22.2132 177.344C22.2132 177.344 22.2132 177.304 22.2132 177.223V176.94V176.659V176.536H22.3346H22.6176H22.8991H23.0221C23.0221 176.536 23.0221 176.577 23.0221 176.659V176.94V177.223V177.344C23.0221 177.344 22.9811 177.344 22.8991 177.344H22.6176H22.3346H22.2132ZM22.6176 176.536C22.6176 176.536 22.6176 176.495 22.6176 176.414V176.131V175.85V175.727H22.739H23.0221H23.3035H23.4265C23.4265 175.727 23.4265 175.768 23.4265 175.85V176.131V176.414V176.536C23.4265 176.536 23.3855 176.536 23.3035 176.536H23.0221H22.739H22.6176ZM23.0221 175.727C23.0221 175.727 23.0221 175.686 23.0221 175.605V175.322V175.041V174.918H23.1434H23.4265H23.7079H23.8309C23.8309 174.918 23.8309 174.959 23.8309 175.041V175.322V175.605V175.727C23.8309 175.727 23.7899 175.727 23.7079 175.727H23.4265H23.1434H23.0221ZM23.4265 174.918C23.4265 174.918 23.4265 174.877 23.4265 174.797V174.513V174.232V174.109H23.5478H23.8309H24.1123H24.2353C24.2353 174.109 24.2353 174.15 24.2353 174.232V174.513V174.797V174.918C24.2353 174.918 24.1943 174.918 24.1123 174.918H23.8309H23.5478H23.4265ZM23.8309 174.109C23.8309 174.109 23.8309 174.069 23.8309 173.988V173.705V173.423V173.3H23.9522H24.2353H24.5167H24.6397C24.6397 173.3 24.6397 173.341 24.6397 173.423V173.705V173.988V174.109C24.6397 174.109 24.5987 174.109 24.5167 174.109H24.2353H23.9522H23.8309ZM31.0342 177.344C31.0342 177.344 31.0342 177.304 31.0342 177.223V176.94V176.659V176.536H31.1555H31.4386H31.72H31.843C31.843 176.536 31.843 176.577 31.843 176.659V176.94V177.223V177.344C31.843 177.344 31.802 177.344 31.72 177.344H31.4386H31.1555H31.0342ZM30.2253 176.94C30.2253 176.94 30.2253 176.899 30.2253 176.819V176.536V176.254V176.131C30.2253 176.131 30.2253 176.091 30.2253 176.01V175.727V175.445V175.322C30.2253 175.322 30.2253 175.282 30.2253 175.201V174.918V174.636V174.513H30.3467H30.6297H30.9111H31.0342C31.0342 174.513 31.0342 174.554 31.0342 174.636V174.918V175.201V175.322C31.0342 175.322 30.9931 175.322 30.9111 175.322H31.0342C31.0342 175.322 31.0342 175.363 31.0342 175.445V175.727V176.01V176.131C31.0342 176.131 30.9931 176.131 30.9111 176.131H31.0342C31.0342 176.131 31.0342 176.172 31.0342 176.254V176.536V176.819V176.94C31.0342 176.94 30.9931 176.94 30.9111 176.94H30.6297H30.3467H30.2253ZM31.843 176.94C31.843 176.94 31.843 176.899 31.843 176.819V176.536V176.254V176.131C31.843 176.131 31.843 176.091 31.843 176.01V175.727V175.445V175.322C31.843 175.322 31.843 175.282 31.843 175.201V174.918V174.636V174.513H31.9643H32.2474H32.5288H32.6518C32.6518 174.513 32.6518 174.554 32.6518 174.636V174.918V175.201V175.322C32.6518 175.322 32.6108 175.322 32.5288 175.322H32.6518C32.6518 175.322 32.6518 175.363 32.6518 175.445V175.727V176.01V176.131C32.6518 176.131 32.6108 176.131 32.5288 176.131H32.6518C32.6518 176.131 32.6518 176.172 32.6518 176.254V176.536V176.819V176.94C32.6518 176.94 32.6108 176.94 32.5288 176.94H32.2474H31.9643H31.843ZM31.0342 174.918C31.0342 174.918 31.0342 174.877 31.0342 174.797V174.513V174.232V174.109H31.1555H31.4386H31.72H31.843C31.843 174.109 31.843 174.15 31.843 174.232V174.513V174.797V174.918C31.843 174.918 31.802 174.918 31.72 174.918H31.4386H31.1555H31.0342ZM31.4386 182.197C31.4386 182.197 31.4386 182.157 31.4386 182.076V181.793V181.511V181.388H31.5599H31.843H32.1244H32.2474C32.2474 181.388 32.2474 181.429 32.2474 181.511V181.793V182.076V182.197C32.2474 182.197 32.2064 182.197 32.1244 182.197H31.843H31.5599H31.4386ZM31.843 181.388C31.843 181.388 31.843 181.348 31.843 181.267V180.984V180.703V180.58H31.9643H32.2474H32.5288H32.6518C32.6518 180.58 32.6518 180.621 32.6518 180.703V180.984V181.267V181.388C32.6518 181.388 32.6108 181.388 32.5288 181.388H32.2474H31.9643H31.843ZM32.2474 180.58C32.2474 180.58 32.2474 180.539 32.2474 180.458V180.175V179.894V179.771H32.3687H32.6518H32.9332H33.0562C33.0562 179.771 33.0562 179.812 33.0562 179.894V180.175V180.458V180.58C33.0562 180.58 33.0152 180.58 32.9332 180.58H32.6518H32.3687H32.2474ZM32.6518 179.771C32.6518 179.771 32.6518 179.73 32.6518 179.649V179.366V179.085V178.962H32.7731H33.0562H33.3376H33.4606C33.4606 178.962 33.4606 179.003 33.4606 179.085V179.366V179.649V179.771C33.4606 179.771 33.4196 179.771 33.3376 179.771H33.0562H32.7731H32.6518ZM33.0562 178.962C33.0562 178.962 33.0562 178.922 33.0562 178.841V178.558V178.276V178.153H33.1775H33.4606H33.742H33.865C33.865 178.153 33.865 178.194 33.865 178.276V178.558V178.841V178.962C33.865 178.962 33.824 178.962 33.742 178.962H33.4606H33.1775H33.0562ZM33.4606 178.153C33.4606 178.153 33.4606 178.113 33.4606 178.032V177.749V177.467V177.344H33.5819H33.865H34.1464H34.2694C34.2694 177.344 34.2694 177.385 34.2694 177.467V177.749V178.032V178.153C34.2694 178.153 34.2284 178.153 34.1464 178.153H33.865H33.5819H33.4606ZM33.865 177.344C33.865 177.344 33.865 177.304 33.865 177.223V176.94V176.659V176.536H33.9864H34.2694H34.5508H34.6739C34.6739 176.536 34.6739 176.577 34.6739 176.659V176.94V177.223V177.344C34.6739 177.344 34.6329 177.344 34.5508 177.344H34.2694H33.9864H33.865ZM34.2694 176.536C34.2694 176.536 34.2694 176.495 34.2694 176.414V176.131V175.85V175.727H34.3908H34.6739H34.9553H35.0783C35.0783 175.727 35.0783 175.768 35.0783 175.85V176.131V176.414V176.536C35.0783 176.536 35.0373 176.536 34.9553 176.536H34.6739H34.3908H34.2694ZM34.6739 175.727C34.6739 175.727 34.6739 175.686 34.6739 175.605V175.322V175.041V174.918H34.7952H35.0783H35.3597H35.4827C35.4827 174.918 35.4827 174.959 35.4827 175.041V175.322V175.605V175.727C35.4827 175.727 35.4417 175.727 35.3597 175.727H35.0783H34.7952H34.6739ZM35.0783 174.918C35.0783 174.918 35.0783 174.877 35.0783 174.797V174.513V174.232V174.109H35.1996H35.4827H35.7641H35.8871C35.8871 174.109 35.8871 174.15 35.8871 174.232V174.513V174.797V174.918C35.8871 174.918 35.8461 174.918 35.7641 174.918H35.4827H35.1996H35.0783ZM35.4827 174.109C35.4827 174.109 35.4827 174.069 35.4827 173.988V173.705V173.423V173.3H35.604H35.8871H36.1685H36.2915C36.2915 173.3 36.2915 173.341 36.2915 173.423V173.705V173.988V174.109C36.2915 174.109 36.2505 174.109 36.1685 174.109H35.8871H35.604H35.4827ZM35.8871 181.388C35.8871 181.388 35.8871 181.348 35.8871 181.267V180.984V180.703V180.58H36.0084H36.2915H36.5729H36.6959C36.6959 180.58 36.6959 180.621 36.6959 180.703V180.984V181.267V181.388C36.6959 181.388 36.6549 181.388 36.5729 181.388H36.2915H36.0084H35.8871ZM35.0783 180.984C35.0783 180.984 35.0783 180.944 35.0783 180.863V180.58V180.298V180.175C35.0783 180.175 35.0783 180.135 35.0783 180.054V179.771V179.489V179.366C35.0783 179.366 35.0783 179.326 35.0783 179.245V178.962V178.681V178.558H35.1996H35.4827H35.7641H35.8871C35.8871 178.558 35.8871 178.599 35.8871 178.681V178.962V179.245V179.366C35.8871 179.366 35.8461 179.366 35.7641 179.366H35.8871C35.8871 179.366 35.8871 179.407 35.8871 179.489V179.771V180.054V180.175C35.8871 180.175 35.8461 180.175 35.7641 180.175H35.8871C35.8871 180.175 35.8871 180.216 35.8871 180.298V180.58V180.863V180.984C35.8871 180.984 35.8461 180.984 35.7641 180.984H35.4827H35.1996H35.0783ZM36.6959 180.984C36.6959 180.984 36.6959 180.944 36.6959 180.863V180.58V180.298V180.175C36.6959 180.175 36.6959 180.135 36.6959 180.054V179.771V179.489V179.366C36.6959 179.366 36.6959 179.326 36.6959 179.245V178.962V178.681V178.558H36.8172H37.1003H37.3817H37.5047C37.5047 178.558 37.5047 178.599 37.5047 178.681V178.962V179.245V179.366C37.5047 179.366 37.4637 179.366 37.3817 179.366H37.5047C37.5047 179.366 37.5047 179.407 37.5047 179.489V179.771V180.054V180.175C37.5047 180.175 37.4637 180.175 37.3817 180.175H37.5047C37.5047 180.175 37.5047 180.216 37.5047 180.298V180.58V180.863V180.984C37.5047 180.984 37.4637 180.984 37.3817 180.984H37.1003H36.8172H36.6959ZM35.8871 178.962C35.8871 178.962 35.8871 178.922 35.8871 178.841V178.558V178.276V178.153H36.0084H36.2915H36.5729H36.6959C36.6959 178.153 36.6959 178.194 36.6959 178.276V178.558V178.841V178.962C36.6959 178.962 36.6549 178.962 36.5729 178.962H36.2915H36.0084H35.8871Z" fill="white" fill-opacity="0.9"/>
<path d="M22.6176 93.4185C22.6176 93.4185 22.6176 93.378 22.6176 93.2971V93.014V92.7326V92.6096H22.739H23.0221H23.3035H23.4265C23.4265 92.6096 23.4265 92.6506 23.4265 92.7326V92.6096H23.5478H23.8309H24.1123H24.2353C24.2353 92.6096 24.2353 92.6506 24.2353 92.7326V92.6096H24.3566H24.6397H24.9211H25.0441C25.0441 92.6096 25.0441 92.6506 25.0441 92.7326V93.014V93.2971V93.4185C25.0441 93.4185 25.0031 93.4185 24.9211 93.4185H24.6397H24.3566H24.2353C24.2353 93.4185 24.2353 93.378 24.2353 93.2971V93.4185C24.2353 93.4185 24.1943 93.4185 24.1123 93.4185H23.8309H23.5478H23.4265C23.4265 93.4185 23.4265 93.378 23.4265 93.2971V93.4185C23.4265 93.4185 23.3855 93.4185 23.3035 93.4185H23.0221H22.739H22.6176ZM21.8088 92.6096C21.8088 92.6096 21.8088 92.5692 21.8088 92.4883V92.2052V91.9238V91.8008C21.8088 91.8008 21.8088 91.7604 21.8088 91.6795V91.3964V91.115V90.992C21.8088 90.992 21.8088 90.9515 21.8088 90.8707V90.5876V90.3062V90.1832C21.8088 90.1832 21.8088 90.1427 21.8088 90.0618V89.7788V89.4973V89.3743H21.9301H22.2132H22.4946H22.6176C22.6176 89.3743 22.6176 89.4153 22.6176 89.4973V89.7788V90.0618V90.1832C22.6176 90.1832 22.5766 90.1832 22.4946 90.1832H22.6176C22.6176 90.1832 22.6176 90.2242 22.6176 90.3062V90.5876V90.8707V90.992C22.6176 90.992 22.5766 90.992 22.4946 90.992H22.6176C22.6176 90.992 22.6176 91.033 22.6176 91.115V91.3964V91.6795V91.8008C22.6176 91.8008 22.5766 91.8008 22.4946 91.8008H22.6176C22.6176 91.8008 22.6176 91.8418 22.6176 91.9238V92.2052V92.4883V92.6096C22.6176 92.6096 22.5766 92.6096 22.4946 92.6096H22.2132H21.9301H21.8088ZM25.0441 92.6096C25.0441 92.6096 25.0441 92.5692 25.0441 92.4883V92.2052V91.9238V91.8008C25.0441 91.8008 25.0441 91.7604 25.0441 91.6795V91.3964V91.115V90.992C25.0441 90.992 25.0441 90.9515 25.0441 90.8707V90.5876V90.3062V90.1832C25.0441 90.1832 25.0441 90.1427 25.0441 90.0618V89.7788V89.4973V89.3743H25.1654H25.4485H25.7299H25.8529C25.8529 89.3743 25.8529 89.4153 25.8529 89.4973V89.7788V90.0618V90.1832C25.8529 90.1832 25.8119 90.1832 25.7299 90.1832H25.8529C25.8529 90.1832 25.8529 90.2242 25.8529 90.3062V90.5876V90.8707V90.992C25.8529 90.992 25.8119 90.992 25.7299 90.992H25.8529C25.8529 90.992 25.8529 91.033 25.8529 91.115V91.3964V91.6795V91.8008C25.8529 91.8008 25.8119 91.8008 25.7299 91.8008H25.8529C25.8529 91.8008 25.8529 91.8418 25.8529 91.9238V92.2052V92.4883V92.6096C25.8529 92.6096 25.8119 92.6096 25.7299 92.6096H25.4485H25.1654H25.0441ZM22.6176 89.3743C22.6176 89.3743 22.6176 89.3339 22.6176 89.253V88.9699V88.6885V88.5655H22.739H23.0221H23.3035H23.4265C23.4265 88.5655 23.4265 88.6065 23.4265 88.6885V88.5655H23.5478H23.8309H24.1123H24.2353C24.2353 88.5655 24.2353 88.6065 24.2353 88.6885V88.5655H24.3566H24.6397H24.9211H25.0441C25.0441 88.5655 25.0441 88.6065 25.0441 88.6885V88.9699V89.253V89.3743C25.0441 89.3743 25.0031 89.3743 24.9211 89.3743H24.6397H24.3566H24.2353C24.2353 89.3743 24.2353 89.3339 24.2353 89.253V89.3743C24.2353 89.3743 24.1943 89.3743 24.1123 89.3743H23.8309H23.5478H23.4265C23.4265 89.3743 23.4265 89.3339 23.4265 89.253V89.3743C23.4265 89.3743 23.3855 89.3743 23.3035 89.3743H23.0221H22.739H22.6176ZM21.8088 88.5655C21.8088 88.5655 21.8088 88.5251 21.8088 88.4442V88.1611V87.8797V87.7567C21.8088 87.7567 21.8088 87.7163 21.8088 87.6354V87.3523V87.0709V86.9479C21.8088 86.9479 21.8088 86.9074 21.8088 86.8265V86.5435V86.2621V86.139C21.8088 86.139 21.8088 86.0986 21.8088 86.0177V85.7346V85.4532V85.3302H21.9301H22.2132H22.4946H22.6176C22.6176 85.3302 22.6176 85.3712 22.6176 85.4532V85.7346V86.0177V86.139C22.6176 86.139 22.5766 86.139 22.4946 86.139H22.6176C22.6176 86.139 22.6176 86.18 22.6176 86.2621V86.5435V86.8265V86.9479C22.6176 86.9479 22.5766 86.9479 22.4946 86.9479H22.6176C22.6176 86.9479 22.6176 86.9889 22.6176 87.0709V87.3523V87.6354V87.7567C22.6176 87.7567 22.5766 87.7567 22.4946 87.7567H22.6176C22.6176 87.7567 22.6176 87.7977 22.6176 87.8797V88.1611V88.4442V88.5655C22.6176 88.5655 22.5766 88.5655 22.4946 88.5655H22.2132H21.9301H21.8088ZM25.0441 88.5655C25.0441 88.5655 25.0441 88.5251 25.0441 88.4442V88.1611V87.8797V87.7567C25.0441 87.7567 25.0441 87.7163 25.0441 87.6354V87.3523V87.0709V86.9479C25.0441 86.9479 25.0441 86.9074 25.0441 86.8265V86.5435V86.2621V86.139C25.0441 86.139 25.0441 86.0986 25.0441 86.0177V85.7346V85.4532V85.3302H25.1654H25.4485H25.7299H25.8529C25.8529 85.3302 25.8529 85.3712 25.8529 85.4532V85.7346V86.0177V86.139C25.8529 86.139 25.8119 86.139 25.7299 86.139H25.8529C25.8529 86.139 25.8529 86.18 25.8529 86.2621V86.5435V86.8265V86.9479C25.8529 86.9479 25.8119 86.9479 25.7299 86.9479H25.8529C25.8529 86.9479 25.8529 86.9889 25.8529 87.0709V87.3523V87.6354V87.7567C25.8529 87.7567 25.8119 87.7567 25.7299 87.7567H25.8529C25.8529 87.7567 25.8529 87.7977 25.8529 87.8797V88.1611V88.4442V88.5655C25.8529 88.5655 25.8119 88.5655 25.7299 88.5655H25.4485H25.1654H25.0441ZM22.6176 85.3302C22.6176 85.3302 22.6176 85.2898 22.6176 85.2089V84.9258V84.6444V84.5214H22.739H23.0221H23.3035H23.4265C23.4265 84.5214 23.4265 84.5624 23.4265 84.6444V84.5214H23.5478H23.8309H24.1123H24.2353C24.2353 84.5214 24.2353 84.5624 24.2353 84.6444V84.5214H24.3566H24.6397H24.9211H25.0441C25.0441 84.5214 25.0441 84.5624 25.0441 84.6444V84.9258V85.2089V85.3302C25.0441 85.3302 25.0031 85.3302 24.9211 85.3302H24.6397H24.3566H24.2353C24.2353 85.3302 24.2353 85.2898 24.2353 85.2089V85.3302C24.2353 85.3302 24.1943 85.3302 24.1123 85.3302H23.8309H23.5478H23.4265C23.4265 85.3302 23.4265 85.2898 23.4265 85.2089V85.3302C23.4265 85.3302 23.3855 85.3302 23.3035 85.3302H23.0221H22.739H22.6176ZM31.0342 88.5655C31.0342 88.5655 31.0342 88.5251 31.0342 88.4442V88.1611V87.8797V87.7567H31.1555H31.4386H31.72H31.843C31.843 87.7567 31.843 87.7977 31.843 87.8797V88.1611V88.4442V88.5655C31.843 88.5655 31.802 88.5655 31.72 88.5655H31.4386H31.1555H31.0342ZM30.2253 88.1611C30.2253 88.1611 30.2253 88.1207 30.2253 88.0398V87.7567V87.4753V87.3523C30.2253 87.3523 30.2253 87.3118 30.2253 87.231V86.9479V86.6665V86.5435C30.2253 86.5435 30.2253 86.503 30.2253 86.4221V86.139V85.8576V85.7346H30.3467H30.6297H30.9111H31.0342C31.0342 85.7346 31.0342 85.7756 31.0342 85.8576V86.139V86.4221V86.5435C31.0342 86.5435 30.9931 86.5435 30.9111 86.5435H31.0342C31.0342 86.5435 31.0342 86.5845 31.0342 86.6665V86.9479V87.231V87.3523C31.0342 87.3523 30.9931 87.3523 30.9111 87.3523H31.0342C31.0342 87.3523 31.0342 87.3933 31.0342 87.4753V87.7567V88.0398V88.1611C31.0342 88.1611 30.9931 88.1611 30.9111 88.1611H30.6297H30.3467H30.2253ZM31.843 88.1611C31.843 88.1611 31.843 88.1207 31.843 88.0398V87.7567V87.4753V87.3523C31.843 87.3523 31.843 87.3118 31.843 87.231V86.9479V86.6665V86.5435C31.843 86.5435 31.843 86.503 31.843 86.4221V86.139V85.8576V85.7346H31.9643H32.2474H32.5288H32.6518C32.6518 85.7346 32.6518 85.7756 32.6518 85.8576V86.139V86.4221V86.5435C32.6518 86.5435 32.6108 86.5435 32.5288 86.5435H32.6518C32.6518 86.5435 32.6518 86.5845 32.6518 86.6665V86.9479V87.231V87.3523C32.6518 87.3523 32.6108 87.3523 32.5288 87.3523H32.6518C32.6518 87.3523 32.6518 87.3933 32.6518 87.4753V87.7567V88.0398V88.1611C32.6518 88.1611 32.6108 88.1611 32.5288 88.1611H32.2474H31.9643H31.843ZM31.0342 86.139C31.0342 86.139 31.0342 86.0986 31.0342 86.0177V85.7346V85.4532V85.3302H31.1555H31.4386H31.72H31.843C31.843 85.3302 31.843 85.3712 31.843 85.4532V85.7346V86.0177V86.139C31.843 86.139 31.802 86.139 31.72 86.139H31.4386H31.1555H31.0342ZM31.4386 93.4185C31.4386 93.4185 31.4386 93.378 31.4386 93.2971V93.014V92.7326V92.6096H31.5599H31.843H32.1244H32.2474C32.2474 92.6096 32.2474 92.6506 32.2474 92.7326V93.014V93.2971V93.4185C32.2474 93.4185 32.2064 93.4185 32.1244 93.4185H31.843H31.5599H31.4386ZM31.843 92.6096C31.843 92.6096 31.843 92.5692 31.843 92.4883V92.2052V91.9238V91.8008H31.9643H32.2474H32.5288H32.6518C32.6518 91.8008 32.6518 91.8418 32.6518 91.9238V92.2052V92.4883V92.6096C32.6518 92.6096 32.6108 92.6096 32.5288 92.6096H32.2474H31.9643H31.843ZM32.2474 91.8008C32.2474 91.8008 32.2474 91.7604 32.2474 91.6795V91.3964V91.115V90.992H32.3687H32.6518H32.9332H33.0562C33.0562 90.992 33.0562 91.033 33.0562 91.115V91.3964V91.6795V91.8008C33.0562 91.8008 33.0152 91.8008 32.9332 91.8008H32.6518H32.3687H32.2474ZM32.6518 90.992C32.6518 90.992 32.6518 90.9515 32.6518 90.8707V90.5876V90.3062V90.1832H32.7731H33.0562H33.3376H33.4606C33.4606 90.1832 33.4606 90.2242 33.4606 90.3062V90.5876V90.8707V90.992C33.4606 90.992 33.4196 90.992 33.3376 90.992H33.0562H32.7731H32.6518ZM33.0562 90.1832C33.0562 90.1832 33.0562 90.1427 33.0562 90.0618V89.7788V89.4973V89.3743H33.1775H33.4606H33.742H33.865C33.865 89.3743 33.865 89.4153 33.865 89.4973V89.7788V90.0618V90.1832C33.865 90.1832 33.824 90.1832 33.742 90.1832H33.4606H33.1775H33.0562ZM33.4606 89.3743C33.4606 89.3743 33.4606 89.3339 33.4606 89.253V88.9699V88.6885V88.5655H33.5819H33.865H34.1464H34.2694C34.2694 88.5655 34.2694 88.6065 34.2694 88.6885V88.9699V89.253V89.3743C34.2694 89.3743 34.2284 89.3743 34.1464 89.3743H33.865H33.5819H33.4606ZM33.865 88.5655C33.865 88.5655 33.865 88.5251 33.865 88.4442V88.1611V87.8797V87.7567H33.9864H34.2694H34.5508H34.6739C34.6739 87.7567 34.6739 87.7977 34.6739 87.8797V88.1611V88.4442V88.5655C34.6739 88.5655 34.6329 88.5655 34.5508 88.5655H34.2694H33.9864H33.865ZM34.2694 87.7567C34.2694 87.7567 34.2694 87.7163 34.2694 87.6354V87.3523V87.0709V86.9479H34.3908H34.6739H34.9553H35.0783C35.0783 86.9479 35.0783 86.9889 35.0783 87.0709V87.3523V87.6354V87.7567C35.0783 87.7567 35.0373 87.7567 34.9553 87.7567H34.6739H34.3908H34.2694ZM34.6739 86.9479C34.6739 86.9479 34.6739 86.9074 34.6739 86.8265V86.5435V86.2621V86.139H34.7952H35.0783H35.3597H35.4827C35.4827 86.139 35.4827 86.18 35.4827 86.2621V86.5435V86.8265V86.9479C35.4827 86.9479 35.4417 86.9479 35.3597 86.9479H35.0783H34.7952H34.6739ZM35.0783 86.139C35.0783 86.139 35.0783 86.0986 35.0783 86.0177V85.7346V85.4532V85.3302H35.1996H35.4827H35.7641H35.8871C35.8871 85.3302 35.8871 85.3712 35.8871 85.4532V85.7346V86.0177V86.139C35.8871 86.139 35.8461 86.139 35.7641 86.139H35.4827H35.1996H35.0783ZM35.4827 85.3302C35.4827 85.3302 35.4827 85.2898 35.4827 85.2089V84.9258V84.6444V84.5214H35.604H35.8871H36.1685H36.2915C36.2915 84.5214 36.2915 84.5624 36.2915 84.6444V84.9258V85.2089V85.3302C36.2915 85.3302 36.2505 85.3302 36.1685 85.3302H35.8871H35.604H35.4827ZM35.8871 92.6096C35.8871 92.6096 35.8871 92.5692 35.8871 92.4883V92.2052V91.9238V91.8008H36.0084H36.2915H36.5729H36.6959C36.6959 91.8008 36.6959 91.8418 36.6959 91.9238V92.2052V92.4883V92.6096C36.6959 92.6096 36.6549 92.6096 36.5729 92.6096H36.2915H36.0084H35.8871ZM35.0783 92.2052C35.0783 92.2052 35.0783 92.1648 35.0783 92.0839V91.8008V91.5194V91.3964C35.0783 91.3964 35.0783 91.356 35.0783 91.2751V90.992V90.7106V90.5876C35.0783 90.5876 35.0783 90.5471 35.0783 90.4663V90.1832V89.9018V89.7788H35.1996H35.4827H35.7641H35.8871C35.8871 89.7788 35.8871 89.8198 35.8871 89.9018V90.1832V90.4663V90.5876C35.8871 90.5876 35.8461 90.5876 35.7641 90.5876H35.8871C35.8871 90.5876 35.8871 90.6286 35.8871 90.7106V90.992V91.2751V91.3964C35.8871 91.3964 35.8461 91.3964 35.7641 91.3964H35.8871C35.8871 91.3964 35.8871 91.4374 35.8871 91.5194V91.8008V92.0839V92.2052C35.8871 92.2052 35.8461 92.2052 35.7641 92.2052H35.4827H35.1996H35.0783ZM36.6959 92.2052C36.6959 92.2052 36.6959 92.1648 36.6959 92.0839V91.8008V91.5194V91.3964C36.6959 91.3964 36.6959 91.356 36.6959 91.2751V90.992V90.7106V90.5876C36.6959 90.5876 36.6959 90.5471 36.6959 90.4663V90.1832V89.9018V89.7788H36.8172H37.1003H37.3817H37.5047C37.5047 89.7788 37.5047 89.8198 37.5047 89.9018V90.1832V90.4663V90.5876C37.5047 90.5876 37.4637 90.5876 37.3817 90.5876H37.5047C37.5047 90.5876 37.5047 90.6286 37.5047 90.7106V90.992V91.2751V91.3964C37.5047 91.3964 37.4637 91.3964 37.3817 91.3964H37.5047C37.5047 91.3964 37.5047 91.4374 37.5047 91.5194V91.8008V92.0839V92.2052C37.5047 92.2052 37.4637 92.2052 37.3817 92.2052H37.1003H36.8172H36.6959ZM35.8871 90.1832C35.8871 90.1832 35.8871 90.1427 35.8871 90.0618V89.7788V89.4973V89.3743H36.0084H36.2915H36.5729H36.6959C36.6959 89.3743 36.6959 89.4153 36.6959 89.4973V89.7788V90.0618V90.1832C36.6959 90.1832 36.6549 90.1832 36.5729 90.1832H36.2915H36.0084H35.8871Z" fill="white" fill-opacity="0.9"/>
<rect x="120" y="63" width="27" height="211" fill="#EB1616" fill-opacity="0.7"/>
<rect x="249" y="137" width="27" height="137" fill="#EB1616" fill-opacity="0.7"/>
<rect x="378" y="155" width="27" height="119" fill="#E5C46B" fill-opacity="0.7"/>
<rect x="507" y="187" width="27" height="87" fill="#E5C46B" fill-opacity="0.7"/>
<rect x="636" y="203" width="27" height="71" fill="#E5C46B" fill-opacity="0.7"/>
<rect x="765" y="211" width="27" height="63" fill="#E5C46B" fill-opacity="0.7"/>
<rect x="894" y="230" width="27" height="44" fill="#4FB848" fill-opacity="0.7"/>
<rect x="1023" y="243" width="27" height="31" fill="#4FB848" fill-opacity="0.7"/>
<rect x="1152" y="250" width="27" height="24" fill="#4FB848" fill-opacity="0.7"/>
<rect x="163" y="105" width="27" height="169" fill="#EB1616" fill-opacity="0.7"/>
<rect x="292" y="143" width="27" height="131" fill="#EB1616" fill-opacity="0.7"/>
<rect x="421" y="170" width="27" height="104" fill="#E5C46B" fill-opacity="0.7"/>
<rect x="550" y="193" width="27" height="81" fill="#E5C46B" fill-opacity="0.7"/>
<rect x="680" y="204" width="25" height="69" fill="#E5C46B" stroke="white" stroke-width="2"/>
<rect x="808" y="211" width="27" height="63" fill="#4FB848" fill-opacity="0.7"/>
<rect x="937" y="238" width="27" height="36" fill="#4FB848" fill-opacity="0.7"/>
<rect x="1066" y="243" width="27" height="31" fill="#4FB848" fill-opacity="0.7"/>
<rect x="1195" y="258" width="27" height="16" fill="#4FB848" fill-opacity="0.7"/>
<rect x="206" y="128" width="27" height="146" fill="#EB1616" fill-opacity="0.7"/>
<rect x="335" y="143" width="27" height="131" fill="#EB1616" fill-opacity="0.7"/>
<rect x="464" y="170" width="27" height="104" fill="#E5C46B" fill-opacity="0.7"/>
<rect x="593" y="203" width="27" height="71" fill="#E5C46B" fill-opacity="0.7"/>
<rect x="722" y="206" width="27" height="68" fill="#E5C46B" fill-opacity="0.7"/>
<rect x="851" y="220" width="27" height="54" fill="#4FB848" fill-opacity="0.7"/>
<rect x="980" y="238" width="27" height="36" fill="#4FB848" fill-opacity="0.7"/>
<rect x="1109" y="250" width="27" height="24" fill="#4FB848" fill-opacity="0.7"/>
<path d="M52.2188 22L48.2031 10.7266H50.0859L53.1641 20.0547H53.2031L56.2812 10.7266H58.1641L54.1484 22H52.2188ZM62.6141 22V10.7266H66.8094C69.0203 10.7266 70.5516 12.2109 70.5516 14.4219V14.4375C70.5516 16.6406 69.0203 18.1484 66.8094 18.1484H64.3641V22H62.6141ZM66.3719 12.2031H64.3641V16.6797H66.3719C67.8953 16.6797 68.7703 15.8594 68.7703 14.4453V14.4297C68.7703 13.0234 67.8953 12.2031 66.3719 12.2031Z" fill="white"/>
<g filter="url(#filter0_ddd_2053_124854)">
<rect x="692" y="160" width="251" height="78" fill="#1E1E1E"/>
</g>
<path d="M886.847 206.094C886.847 206.094 886.847 206.037 886.847 205.924V205.529V205.135V204.965H887.018H887.412H887.806H887.976C887.976 204.965 887.976 205.022 887.976 205.135V205.529V205.924V206.094C887.976 206.094 887.92 206.094 887.806 206.094H887.412H887.018H886.847ZM887.788 206.094C887.788 206.094 887.788 206.037 887.788 205.924V205.529V205.135V204.965H887.959H888.353H888.747H888.918C888.918 204.965 888.918 205.022 888.918 205.135V205.529V205.924V206.094C888.918 206.094 888.861 206.094 888.747 206.094H888.353H887.959H887.788ZM888.729 206.094C888.729 206.094 888.729 206.037 888.729 205.924V205.529V205.135V204.965H888.9H889.294H889.688H889.859C889.859 204.965 889.859 205.022 889.859 205.135V205.529V205.924V206.094C889.859 206.094 889.802 206.094 889.688 206.094H889.294H888.9H888.729ZM889.671 206.094C889.671 206.094 889.671 206.037 889.671 205.924V205.529V205.135V204.965H889.841H890.235H890.629H890.8C890.8 204.965 890.8 205.022 890.8 205.135V205.529V205.924V206.094C890.8 206.094 890.743 206.094 890.629 206.094H890.235H889.841H889.671ZM890.612 206.094C890.612 206.094 890.612 206.037 890.612 205.924V205.529V205.135V204.965H890.782H891.176H891.571H891.741C891.741 204.965 891.741 205.022 891.741 205.135V205.529V205.924V206.094C891.741 206.094 891.684 206.094 891.571 206.094H891.176H890.782H890.612ZM887.788 205.153C887.788 205.153 887.788 205.096 887.788 204.982V204.588V204.194V204.024H887.959H888.353H888.747H888.918C888.918 204.024 888.918 204.08 888.918 204.194V204.588V204.982V205.153C888.918 205.153 888.861 205.153 888.747 205.153H888.353H887.959H887.788ZM888.259 204.212C888.259 204.212 888.259 204.155 888.259 204.041V203.647V203.253V203.082H888.429H888.824H889.218H889.388C889.388 203.082 889.388 203.139 889.388 203.253V203.647V204.041V204.212C889.388 204.212 889.331 204.212 889.218 204.212H888.824H888.429H888.259ZM888.729 203.271C888.729 203.271 888.729 203.214 888.729 203.1V202.706V202.312V202.141H888.9H889.294H889.688H889.859C889.859 202.141 889.859 202.198 889.859 202.312V202.706V203.1V203.271C889.859 203.271 889.802 203.271 889.688 203.271H889.294H888.9H888.729ZM889.2 202.329C889.2 202.329 889.2 202.273 889.2 202.159V201.765V201.371V201.2H889.371H889.765H890.159H890.329C890.329 201.2 890.329 201.257 890.329 201.371V201.765V202.159V202.329C890.329 202.329 890.273 202.329 890.159 202.329H889.765H889.371H889.2ZM889.671 201.388C889.671 201.388 889.671 201.331 889.671 201.218V200.824V200.429V200.259H889.841H890.235H890.629H890.8C890.8 200.259 890.8 200.316 890.8 200.429V200.824V201.218V201.388C890.8 201.388 890.743 201.388 890.629 201.388H890.235H889.841H889.671ZM890.141 200.447C890.141 200.447 890.141 200.39 890.141 200.276V199.882V199.488V199.318H890.312H890.706H891.1H891.271C891.271 199.318 891.271 199.375 891.271 199.488V199.882V200.276V200.447C891.271 200.447 891.214 200.447 891.1 200.447H890.706H890.312H890.141ZM886.847 199.506C886.847 199.506 886.847 199.449 886.847 199.335V198.941V198.547V198.376H887.018H887.412H887.806H887.976C887.976 198.376 887.976 198.433 887.976 198.547V198.941V199.335V199.506C887.976 199.506 887.92 199.506 887.806 199.506H887.412H887.018H886.847ZM890.612 199.506C890.612 199.506 890.612 199.449 890.612 199.335V198.941V198.547V198.376H890.782H891.176H891.571H891.741C891.741 198.376 891.741 198.433 891.741 198.547V198.941V199.335V199.506C891.741 199.506 891.684 199.506 891.571 199.506H891.176H890.782H890.612ZM886.847 198.565C886.847 198.565 886.847 198.508 886.847 198.394V198V197.606V197.435H887.018H887.412H887.806H887.976C887.976 197.435 887.976 197.492 887.976 197.606V198V198.394V198.565C887.976 198.565 887.92 198.565 887.806 198.565H887.412H887.018H886.847ZM890.612 198.565C890.612 198.565 890.612 198.508 890.612 198.394V198V197.606V197.435H890.782H891.176H891.571H891.741C891.741 197.435 891.741 197.492 891.741 197.606V198V198.394V198.565C891.741 198.565 891.684 198.565 891.571 198.565H891.176H890.782H890.612ZM886.847 197.624C886.847 197.624 886.847 197.567 886.847 197.453V197.059V196.665V196.494H887.018H887.412H887.806H887.976C887.976 196.494 887.976 196.551 887.976 196.665V197.059V197.453V197.624C887.976 197.624 887.92 197.624 887.806 197.624H887.412H887.018H886.847ZM890.612 197.624C890.612 197.624 890.612 197.567 890.612 197.453V197.059V196.665V196.494H890.782H891.176H891.571H891.741C891.741 196.494 891.741 196.551 891.741 196.665V197.059V197.453V197.624C891.741 197.624 891.684 197.624 891.571 197.624H891.176H890.782H890.612ZM887.788 196.682C887.788 196.682 887.788 196.625 887.788 196.512V196.118V195.724V195.553H887.959H888.353H888.747H888.918C888.918 195.553 888.918 195.61 888.918 195.724V196.118V196.512V196.682C888.918 196.682 888.861 196.682 888.747 196.682H888.353H887.959H887.788ZM888.729 196.682C888.729 196.682 888.729 196.625 888.729 196.512V196.118V195.724V195.553H888.9H889.294H889.688H889.859C889.859 195.553 889.859 195.61 889.859 195.724V196.118V196.512V196.682C889.859 196.682 889.802 196.682 889.688 196.682H889.294H888.9H888.729ZM889.671 196.682C889.671 196.682 889.671 196.625 889.671 196.512V196.118V195.724V195.553H889.841H890.235H890.629H890.8C890.8 195.553 890.8 195.61 890.8 195.724V196.118V196.512V196.682C890.8 196.682 890.743 196.682 890.629 196.682H890.235H889.841H889.671ZM896.641 206.094C896.641 206.094 896.641 206.037 896.641 205.924V205.529V205.135V204.965H896.811H897.206H897.6H897.77C897.77 204.965 897.77 205.022 897.77 205.135V205.529V205.924V206.094C897.77 206.094 897.713 206.094 897.6 206.094H897.206H896.811H896.641ZM896.641 205.153C896.641 205.153 896.641 205.096 896.641 204.982V204.588V204.194V204.024H896.811H897.206H897.6H897.77C897.77 204.024 897.77 204.08 897.77 204.194V204.588V204.982V205.153C897.77 205.153 897.713 205.153 897.6 205.153H897.206H896.811H896.641ZM903.61 206.094C903.61 206.094 903.61 206.037 903.61 205.924V205.529V205.135V204.965H903.781H904.175H904.569H904.74C904.74 204.965 904.74 205.022 904.74 205.135V205.529V205.924V206.094C904.74 206.094 904.683 206.094 904.569 206.094H904.175H903.781H903.61ZM904.551 206.094C904.551 206.094 904.551 206.037 904.551 205.924V205.529V205.135V204.965H904.722H905.116H905.51H905.681C905.681 204.965 905.681 205.022 905.681 205.135V205.529V205.924V206.094C905.681 206.094 905.624 206.094 905.51 206.094H905.116H904.722H904.551ZM905.492 206.094C905.492 206.094 905.492 206.037 905.492 205.924V205.529V205.135V204.965H905.663H906.057H906.451H906.622C906.622 204.965 906.622 205.022 906.622 205.135V205.529V205.924V206.094C906.622 206.094 906.565 206.094 906.451 206.094H906.057H905.663H905.492ZM902.669 205.153C902.669 205.153 902.669 205.096 902.669 204.982V204.588V204.194V204.024H902.84H903.234H903.628H903.798C903.798 204.024 903.798 204.08 903.798 204.194V204.588V204.982V205.153C903.798 205.153 903.741 205.153 903.628 205.153H903.234H902.84H902.669ZM906.434 205.153C906.434 205.153 906.434 205.096 906.434 204.982V204.588V204.194V204.024H906.604H906.998H907.392H907.563C907.563 204.024 907.563 204.08 907.563 204.194V204.588V204.982V205.153C907.563 205.153 907.506 205.153 907.392 205.153H906.998H906.604H906.434ZM902.669 204.212C902.669 204.212 902.669 204.155 902.669 204.041V203.647V203.253V203.082H902.84H903.234H903.628H903.798C903.798 203.082 903.798 203.139 903.798 203.253V203.647V204.041V204.212C903.798 204.212 903.741 204.212 903.628 204.212H903.234H902.84H902.669ZM906.434 204.212C906.434 204.212 906.434 204.155 906.434 204.041V203.647V203.253V203.082H906.604H906.998H907.392H907.563C907.563 203.082 907.563 203.139 907.563 203.253V203.647V204.041V204.212C907.563 204.212 907.506 204.212 907.392 204.212H906.998H906.604H906.434ZM906.434 203.271C906.434 203.271 906.434 203.214 906.434 203.1V202.706V202.312V202.141H906.604H906.998H907.392H907.563C907.563 202.141 907.563 202.198 907.563 202.312V202.706V203.1V203.271C907.563 203.271 907.506 203.271 907.392 203.271H906.998H906.604H906.434ZM906.434 202.329C906.434 202.329 906.434 202.273 906.434 202.159V201.765V201.371V201.2H906.604H906.998H907.392H907.563C907.563 201.2 907.563 201.257 907.563 201.371V201.765V202.159V202.329C907.563 202.329 907.506 202.329 907.392 202.329H906.998H906.604H906.434ZM903.61 201.388C903.61 201.388 903.61 201.331 903.61 201.218V200.824V200.429V200.259H903.781H904.175H904.569H904.74C904.74 200.259 904.74 200.316 904.74 200.429V200.824V201.218V201.388C904.74 201.388 904.683 201.388 904.569 201.388H904.175H903.781H903.61ZM904.551 201.388C904.551 201.388 904.551 201.331 904.551 201.218V200.824V200.429V200.259H904.722H905.116H905.51H905.681C905.681 200.259 905.681 200.316 905.681 200.429V200.824V201.218V201.388C905.681 201.388 905.624 201.388 905.51 201.388H905.116H904.722H904.551ZM905.492 201.388C905.492 201.388 905.492 201.331 905.492 201.218V200.824V200.429V200.259H905.663H906.057H906.451H906.622C906.622 200.259 906.622 200.316 906.622 200.429V200.824V201.218V201.388C906.622 201.388 906.565 201.388 906.451 201.388H906.057H905.663H905.492ZM906.434 200.447C906.434 200.447 906.434 200.39 906.434 200.276V199.882V199.488V199.318H906.604H906.998H907.392H907.563C907.563 199.318 907.563 199.375 907.563 199.488V199.882V200.276V200.447C907.563 200.447 907.506 200.447 907.392 200.447H906.998H906.604H906.434ZM906.434 199.506C906.434 199.506 906.434 199.449 906.434 199.335V198.941V198.547V198.376H906.604H906.998H907.392H907.563C907.563 198.376 907.563 198.433 907.563 198.547V198.941V199.335V199.506C907.563 199.506 907.506 199.506 907.392 199.506H906.998H906.604H906.434ZM902.669 198.565C902.669 198.565 902.669 198.508 902.669 198.394V198V197.606V197.435H902.84H903.234H903.628H903.798C903.798 197.435 903.798 197.492 903.798 197.606V198V198.394V198.565C903.798 198.565 903.741 198.565 903.628 198.565H903.234H902.84H902.669ZM906.434 198.565C906.434 198.565 906.434 198.508 906.434 198.394V198V197.606V197.435H906.604H906.998H907.392H907.563C907.563 197.435 907.563 197.492 907.563 197.606V198V198.394V198.565C907.563 198.565 907.506 198.565 907.392 198.565H906.998H906.604H906.434ZM902.669 197.624C902.669 197.624 902.669 197.567 902.669 197.453V197.059V196.665V196.494H902.84H903.234H903.628H903.798C903.798 196.494 903.798 196.551 903.798 196.665V197.059V197.453V197.624C903.798 197.624 903.741 197.624 903.628 197.624H903.234H902.84H902.669ZM906.434 197.624C906.434 197.624 906.434 197.567 906.434 197.453V197.059V196.665V196.494H906.604H906.998H907.392H907.563C907.563 196.494 907.563 196.551 907.563 196.665V197.059V197.453V197.624C907.563 197.624 907.506 197.624 907.392 197.624H906.998H906.604H906.434ZM903.61 196.682C903.61 196.682 903.61 196.625 903.61 196.512V196.118V195.724V195.553H903.781H904.175H904.569H904.74C904.74 195.553 904.74 195.61 904.74 195.724V196.118V196.512V196.682C904.74 196.682 904.683 196.682 904.569 196.682H904.175H903.781H903.61ZM904.551 196.682C904.551 196.682 904.551 196.625 904.551 196.512V196.118V195.724V195.553H904.722H905.116H905.51H905.681C905.681 195.553 905.681 195.61 905.681 195.724V196.118V196.512V196.682C905.681 196.682 905.624 196.682 905.51 196.682H905.116H904.722H904.551ZM905.492 196.682C905.492 196.682 905.492 196.625 905.492 196.512V196.118V195.724V195.553H905.663H906.057H906.451H906.622C906.622 195.553 906.622 195.61 906.622 195.724V196.118V196.512V196.682C906.622 196.682 906.565 196.682 906.451 196.682H906.057H905.663H905.492ZM913.404 200.447C913.404 200.447 913.404 200.39 913.404 200.276V199.882V199.488V199.318H913.574H913.969H914.363H914.533C914.533 199.318 914.533 199.375 914.533 199.488V199.882V200.276V200.447C914.533 200.447 914.476 200.447 914.363 200.447H913.969H913.574H913.404ZM912.463 199.976C912.463 199.976 912.463 199.92 912.463 199.806V199.412V199.018V198.847H912.633H913.027H913.422H913.592C913.592 198.847 913.592 198.904 913.592 199.018V199.412V199.806V199.976C913.592 199.976 913.535 199.976 913.422 199.976H913.027H912.633H912.463ZM914.345 199.976C914.345 199.976 914.345 199.92 914.345 199.806V199.412V199.018V198.847H914.516H914.91H915.304H915.474C915.474 198.847 915.474 198.904 915.474 199.018V199.412V199.806V199.976C915.474 199.976 915.418 199.976 915.304 199.976H914.91H914.516H914.345ZM912.463 199.035C912.463 199.035 912.463 198.978 912.463 198.865V198.471V198.076V197.906H912.633H913.027H913.422H913.592C913.592 197.906 913.592 197.963 913.592 198.076V198.471V198.865V199.035C913.592 199.035 913.535 199.035 913.422 199.035H913.027H912.633H912.463ZM914.345 199.035C914.345 199.035 914.345 198.978 914.345 198.865V198.471V198.076V197.906H914.516H914.91H915.304H915.474C915.474 197.906 915.474 197.963 915.474 198.076V198.471V198.865V199.035C915.474 199.035 915.418 199.035 915.304 199.035H914.91H914.516H914.345ZM912.463 198.094C912.463 198.094 912.463 198.037 912.463 197.924V197.529V197.135V196.965H912.633H913.027H913.422H913.592C913.592 196.965 913.592 197.022 913.592 197.135V197.529V197.924V198.094C913.592 198.094 913.535 198.094 913.422 198.094H913.027H912.633H912.463ZM914.345 198.094C914.345 198.094 914.345 198.037 914.345 197.924V197.529V197.135V196.965H914.516H914.91H915.304H915.474C915.474 196.965 915.474 197.022 915.474 197.135V197.529V197.924V198.094C915.474 198.094 915.418 198.094 915.304 198.094H914.91H914.516H914.345ZM913.404 197.624C913.404 197.624 913.404 197.567 913.404 197.453V197.059V196.665V196.494H913.574H913.969H914.363H914.533C914.533 196.494 914.533 196.551 914.533 196.665V197.059V197.453V197.624C914.533 197.624 914.476 197.624 914.363 197.624H913.969H913.574H913.404ZM913.874 206.094C913.874 206.094 913.874 206.037 913.874 205.924V205.529V205.135V204.965H914.045H914.439H914.833H915.004C915.004 204.965 915.004 205.022 915.004 205.135V205.529V205.924V206.094C915.004 206.094 914.947 206.094 914.833 206.094H914.439H914.045H913.874ZM914.345 205.153C914.345 205.153 914.345 205.096 914.345 204.982V204.588V204.194V204.024H914.516H914.91H915.304H915.474C915.474 204.024 915.474 204.08 915.474 204.194V204.588V204.982V205.153C915.474 205.153 915.418 205.153 915.304 205.153H914.91H914.516H914.345ZM914.816 204.212C914.816 204.212 914.816 204.155 914.816 204.041V203.647V203.253V203.082H914.986H915.38H915.774H915.945C915.945 203.082 915.945 203.139 915.945 203.253V203.647V204.041V204.212C915.945 204.212 915.888 204.212 915.774 204.212H915.38H914.986H914.816ZM915.286 203.271C915.286 203.271 915.286 203.214 915.286 203.1V202.706V202.312V202.141H915.457H915.851H916.245H916.416C916.416 202.141 916.416 202.198 916.416 202.312V202.706V203.1V203.271C916.416 203.271 916.359 203.271 916.245 203.271H915.851H915.457H915.286ZM915.757 202.329C915.757 202.329 915.757 202.273 915.757 202.159V201.765V201.371V201.2H915.927H916.322H916.716H916.886C916.886 201.2 916.886 201.257 916.886 201.371V201.765V202.159V202.329C916.886 202.329 916.829 202.329 916.716 202.329H916.322H915.927H915.757ZM916.227 201.388C916.227 201.388 916.227 201.331 916.227 201.218V200.824V200.429V200.259H916.398H916.792H917.186H917.357C917.357 200.259 917.357 200.316 917.357 200.429V200.824V201.218V201.388C917.357 201.388 917.3 201.388 917.186 201.388H916.792H916.398H916.227ZM916.698 200.447C916.698 200.447 916.698 200.39 916.698 200.276V199.882V199.488V199.318H916.869H917.263H917.657H917.827C917.827 199.318 917.827 199.375 917.827 199.488V199.882V200.276V200.447C917.827 200.447 917.771 200.447 917.657 200.447H917.263H916.869H916.698ZM917.169 199.506C917.169 199.506 917.169 199.449 917.169 199.335V198.941V198.547V198.376H917.339H917.733H918.127H918.298C918.298 198.376 918.298 198.433 918.298 198.547V198.941V199.335V199.506C918.298 199.506 918.241 199.506 918.127 199.506H917.733H917.339H917.169ZM917.639 198.565C917.639 198.565 917.639 198.508 917.639 198.394V198V197.606V197.435H917.81H918.204H918.598H918.769C918.769 197.435 918.769 197.492 918.769 197.606V198V198.394V198.565C918.769 198.565 918.712 198.565 918.598 198.565H918.204H917.81H917.639ZM918.11 197.624C918.11 197.624 918.11 197.567 918.11 197.453V197.059V196.665V196.494H918.28H918.674H919.069H919.239C919.239 196.494 919.239 196.551 919.239 196.665V197.059V197.453V197.624C919.239 197.624 919.182 197.624 919.069 197.624H918.674H918.28H918.11ZM918.58 196.682C918.58 196.682 918.58 196.625 918.58 196.512V196.118V195.724V195.553H918.751H919.145H919.539H919.71C919.71 195.553 919.71 195.61 919.71 195.724V196.118V196.512V196.682C919.71 196.682 919.653 196.682 919.539 196.682H919.145H918.751H918.58ZM919.051 205.153C919.051 205.153 919.051 205.096 919.051 204.982V204.588V204.194V204.024H919.222H919.616H920.01H920.18C920.18 204.024 920.18 204.08 920.18 204.194V204.588V204.982V205.153C920.18 205.153 920.123 205.153 920.01 205.153H919.616H919.222H919.051ZM918.11 204.682C918.11 204.682 918.11 204.625 918.11 204.512V204.118V203.724V203.553H918.28H918.674H919.069H919.239C919.239 203.553 919.239 203.61 919.239 203.724V204.118V204.512V204.682C919.239 204.682 919.182 204.682 919.069 204.682H918.674H918.28H918.11ZM919.992 204.682C919.992 204.682 919.992 204.625 919.992 204.512V204.118V203.724V203.553H920.163H920.557H920.951H921.122C921.122 203.553 921.122 203.61 921.122 203.724V204.118V204.512V204.682C921.122 204.682 921.065 204.682 920.951 204.682H920.557H920.163H919.992ZM918.11 203.741C918.11 203.741 918.11 203.684 918.11 203.571V203.176V202.782V202.612H918.28H918.674H919.069H919.239C919.239 202.612 919.239 202.669 919.239 202.782V203.176V203.571V203.741C919.239 203.741 919.182 203.741 919.069 203.741H918.674H918.28H918.11ZM919.992 203.741C919.992 203.741 919.992 203.684 919.992 203.571V203.176V202.782V202.612H920.163H920.557H920.951H921.122C921.122 202.612 921.122 202.669 921.122 202.782V203.176V203.571V203.741C921.122 203.741 921.065 203.741 920.951 203.741H920.557H920.163H919.992ZM918.11 202.8C918.11 202.8 918.11 202.743 918.11 202.629V202.235V201.841V201.671H918.28H918.674H919.069H919.239C919.239 201.671 919.239 201.727 919.239 201.841V202.235V202.629V202.8C919.239 202.8 919.182 202.8 919.069 202.8H918.674H918.28H918.11ZM919.992 202.8C919.992 202.8 919.992 202.743 919.992 202.629V202.235V201.841V201.671H920.163H920.557H920.951H921.122C921.122 201.671 921.122 201.727 921.122 201.841V202.235V202.629V202.8C921.122 202.8 921.065 202.8 920.951 202.8H920.557H920.163H919.992ZM919.051 202.329C919.051 202.329 919.051 202.273 919.051 202.159V201.765V201.371V201.2H919.222H919.616H920.01H920.18C920.18 201.2 920.18 201.257 920.18 201.371V201.765V202.159V202.329C920.18 202.329 920.123 202.329 920.01 202.329H919.616H919.222H919.051Z" fill="#50B849"/>
<path d="M720.127 206.164C717.331 206.164 715.554 204.195 715.554 201.064V201.058C715.554 197.927 717.331 195.972 720.127 195.972C722.301 195.972 723.935 197.312 724.242 199.26L724.256 199.321H722.738L722.697 199.185C722.369 198.029 721.453 197.325 720.127 197.325C718.295 197.325 717.119 198.774 717.119 201.058V201.064C717.119 203.348 718.302 204.811 720.127 204.811C721.439 204.811 722.349 204.127 722.718 202.876L722.738 202.814H724.256L724.249 202.883C723.941 204.845 722.308 206.164 720.127 206.164ZM731.356 206.144C729.291 206.144 727.945 204.715 727.945 202.404V202.391C727.945 200.094 729.305 198.672 731.349 198.672C733.4 198.672 734.767 200.087 734.767 202.391V202.404C734.767 204.722 733.413 206.144 731.356 206.144ZM731.363 204.906C732.518 204.906 733.256 203.99 733.256 202.404V202.391C733.256 200.818 732.504 199.909 731.349 199.909C730.214 199.909 729.455 200.818 729.455 202.391V202.404C729.455 203.997 730.207 204.906 731.363 204.906ZM739.508 197.701C739.03 197.701 738.647 197.318 738.647 196.854C738.647 196.382 739.03 195.999 739.508 195.999C739.994 195.999 740.37 196.382 740.37 196.854C740.37 197.318 739.994 197.701 739.508 197.701ZM738.77 206V198.809H740.246V206H738.77ZM744.571 206V198.809H746.047V199.896H746.082C746.458 199.164 747.196 198.672 748.283 198.672C749.862 198.672 750.771 199.69 750.771 201.345V206H749.288V201.625C749.288 200.545 748.782 199.937 747.756 199.937C746.717 199.937 746.047 200.688 746.047 201.81V206H744.571ZM758.821 206.144C757.789 206.144 756.989 205.624 756.565 204.783H756.531V206H755.054V196.136H756.531V200.032H756.565C756.996 199.185 757.816 198.672 758.835 198.672C760.639 198.672 761.829 200.107 761.829 202.397V202.404C761.829 204.694 760.646 206.144 758.821 206.144ZM758.431 204.872C759.594 204.872 760.318 203.936 760.318 202.404V202.397C760.318 200.88 759.594 199.937 758.431 199.937C757.317 199.937 756.524 200.907 756.524 202.397V202.404C756.524 203.901 757.31 204.872 758.431 204.872ZM767.883 206.13C766.447 206.13 765.483 205.248 765.483 203.956V203.942C765.483 202.691 766.454 201.926 768.156 201.823L770.111 201.707V201.167C770.111 200.374 769.599 199.896 768.683 199.896C767.828 199.896 767.302 200.299 767.179 200.873L767.165 200.935H765.771L765.777 200.859C765.88 199.622 766.953 198.672 768.724 198.672C770.48 198.672 771.595 199.602 771.595 201.044V206H770.111V204.865H770.084C769.667 205.638 768.833 206.13 767.883 206.13ZM766.974 203.922C766.974 204.551 767.493 204.947 768.286 204.947C769.325 204.947 770.111 204.243 770.111 203.307V202.746L768.354 202.855C767.466 202.91 766.974 203.3 766.974 203.908V203.922ZM778.524 206.144C776.726 206.144 775.673 205.255 775.523 203.942L775.516 203.881H776.979L776.992 203.949C777.129 204.612 777.621 205.002 778.53 205.002C779.419 205.002 779.952 204.633 779.952 204.052V204.045C779.952 203.58 779.693 203.313 778.92 203.129L777.744 202.862C776.377 202.548 775.7 201.892 775.7 200.846V200.839C775.7 199.554 776.821 198.672 778.476 198.672C780.178 198.672 781.203 199.622 781.279 200.846L781.285 200.928H779.898L779.891 200.88C779.802 200.251 779.31 199.813 778.476 199.813C777.683 199.813 777.184 200.189 777.184 200.764V200.771C777.184 201.215 777.478 201.516 778.25 201.7L779.419 201.967C780.889 202.309 781.449 202.89 781.449 203.922V203.929C781.449 205.241 780.219 206.144 778.524 206.144ZM788.467 206.144C786.355 206.144 785.077 204.701 785.077 202.432V202.425C785.077 200.176 786.375 198.672 788.392 198.672C790.409 198.672 791.646 200.121 791.646 202.281V202.78H786.553C786.58 204.141 787.326 204.934 788.501 204.934C789.376 204.934 789.957 204.482 790.142 203.942L790.162 203.888H791.564L791.55 203.963C791.318 205.104 790.21 206.144 788.467 206.144ZM788.399 199.882C787.442 199.882 786.704 200.531 786.574 201.734H790.183C790.06 200.49 789.363 199.882 788.399 199.882ZM805.634 206.164C802.838 206.164 801.06 204.195 801.06 201.064V201.058C801.06 197.927 802.838 195.972 805.634 195.972C807.807 195.972 809.441 197.312 809.749 199.26L809.762 199.321H808.245L808.204 199.185C807.876 198.029 806.96 197.325 805.634 197.325C803.802 197.325 802.626 198.774 802.626 201.058V201.064C802.626 203.348 803.808 204.811 805.634 204.811C806.946 204.811 807.855 204.127 808.224 202.876L808.245 202.814H809.762L809.756 202.883C809.448 204.845 807.814 206.164 805.634 206.164ZM816.22 206.144C814.641 206.144 813.738 205.125 813.738 203.471V198.809H815.215V203.184C815.215 204.271 815.721 204.872 816.746 204.872C817.785 204.872 818.455 204.127 818.455 203.006V198.809H819.938V206H818.455V204.92H818.421C818.045 205.645 817.313 206.144 816.22 206.144ZM826.895 206.144C825.097 206.144 824.044 205.255 823.894 203.942L823.887 203.881H825.35L825.363 203.949C825.5 204.612 825.992 205.002 826.902 205.002C827.79 205.002 828.323 204.633 828.323 204.052V204.045C828.323 203.58 828.064 203.313 827.291 203.129L826.115 202.862C824.748 202.548 824.071 201.892 824.071 200.846V200.839C824.071 199.554 825.193 198.672 826.847 198.672C828.549 198.672 829.574 199.622 829.65 200.846L829.656 200.928H828.269L828.262 200.88C828.173 200.251 827.681 199.813 826.847 199.813C826.054 199.813 825.555 200.189 825.555 200.764V200.771C825.555 201.215 825.849 201.516 826.621 201.7L827.79 201.967C829.26 202.309 829.821 202.89 829.821 203.922V203.929C829.821 205.241 828.59 206.144 826.895 206.144ZM836.291 206.144C834.87 206.144 834.186 205.542 834.186 204.106V199.984H833.154V198.809H834.186V196.936H835.697V198.809H837.043V199.984H835.697V204.018C835.697 204.749 836.025 204.968 836.647 204.968C836.804 204.968 836.934 204.954 837.043 204.94V206.082C836.872 206.109 836.592 206.144 836.291 206.144ZM843.979 206.144C841.915 206.144 840.568 204.715 840.568 202.404V202.391C840.568 200.094 841.928 198.672 843.972 198.672C846.023 198.672 847.39 200.087 847.39 202.391V202.404C847.39 204.722 846.037 206.144 843.979 206.144ZM843.986 204.906C845.141 204.906 845.879 203.99 845.879 202.404V202.391C845.879 200.818 845.128 199.909 843.972 199.909C842.838 199.909 842.079 200.818 842.079 202.391V202.404C842.079 203.997 842.831 204.906 843.986 204.906ZM854.018 206.144C852.186 206.144 851.011 204.694 851.011 202.404V202.397C851.011 200.107 852.2 198.672 854.005 198.672C855.023 198.672 855.844 199.185 856.274 200.032H856.302V196.136H857.785V206H856.302V204.783H856.274C855.844 205.624 855.051 206.144 854.018 206.144ZM854.408 204.872C855.522 204.872 856.308 203.901 856.308 202.404V202.397C856.308 200.907 855.515 199.937 854.408 199.937C853.246 199.937 852.521 200.88 852.521 202.397V202.404C852.521 203.936 853.239 204.872 854.408 204.872ZM862.95 208.399C862.663 208.399 862.355 208.365 862.178 208.331V207.176C862.294 207.203 862.465 207.23 862.663 207.23C863.36 207.23 863.743 207.046 863.989 206.349L864.112 206.007L861.494 198.809H863.094L864.905 204.66H864.953L866.765 198.809H868.323L865.644 206.335C865.11 207.825 864.358 208.399 862.95 208.399Z" fill="white"/>
<defs>
<filter id="filter0_ddd_2053_124854" x="686" y="160" width="263" height="90" filterUnits="userSpaceOnUse" color-interpolation-filters="sRGB">
<feFlood flood-opacity="0" result="BackgroundImageFix"/>
<feColorMatrix in="SourceAlpha" type="matrix" values="0 0 0 0 0 0 0 0 0 0 0 0 0 0 0 0 0 0 127 0" result="hardAlpha"/>
<feOffset dy="4"/>
<feGaussianBlur stdDeviation="2"/>
<feComposite in2="hardAlpha" operator="out"/>
<feColorMatrix type="matrix" values="0 0 0 0 0 0 0 0 0 0 0 0 0 0 0 0 0 0 1 0"/>
<feBlend mode="normal" in2="BackgroundImageFix" result="effect1_dropShadow_2053_124854"/>
<feColorMatrix in="SourceAlpha" type="matrix" values="0 0 0 0 0 0 0 0 0 0 0 0 0 0 0 0 0 0 127 0" result="hardAlpha"/>
<feOffset dy="4"/>
<feGaussianBlur stdDeviation="2"/>
<feComposite in2="hardAlpha" operator="out"/>
<feColorMatrix type="matrix" values="0 0 0 0 0 0 0 0 0 0 0 0 0 0 0 0 0 0 0.25 0"/>
<feBlend mode="normal" in2="effect1_dropShadow_2053_124854" result="effect2_dropShadow_2053_124854"/>
<feColorMatrix in="SourceAlpha" type="matrix" values="0 0 0 0 0 0 0 0 0 0 0 0 0 0 0 0 0 0 127 0" result="hardAlpha"/>
<feOffset dy="6"/>
<feGaussianBlur stdDeviation="3"/>
<feComposite in2="hardAlpha" operator="out"/>
<feColorMatrix type="matrix" values="0 0 0 0 0 0 0 0 0 0 0 0 0 0 0 0 0 0 0.25 0"/>
<feBlend mode="normal" in2="effect2_dropShadow_2053_124854" result="effect3_dropShadow_2053_124854"/>
<feBlend mode="normal" in="SourceGraphic" in2="effect3_dropShadow_2053_124854" result="shape"/>
</filter>
</defs>
</svg>
