<svg width="1195" height="424" viewBox="0 0 1195 424" fill="none" xmlns="http://www.w3.org/2000/svg">
<mask id="path-1-inside-1_2943_254171" fill="white">
<path d="M0 0H1195V424H0V0Z"/>
</mask>
<path d="M0 0H1195V424H0V0Z" fill="#1E1E1E"/>
<path d="M1195 423H0V425H1195V423Z" fill="#3E3E3E" mask="url(#path-1-inside-1_2943_254171)"/>
<mask id="path-3-outside-2_2943_254171" maskUnits="userSpaceOnUse" x="386" y="154" width="278" height="199" fill="black">
<rect fill="white" x="386" y="154" width="278" height="199"/>
<path d="M387.164 276.174C395.657 292.231 407.438 306.562 421.835 318.348C436.232 330.133 452.962 339.144 471.07 344.864C489.179 350.584 508.311 352.902 527.374 351.685C546.437 350.469 565.058 345.742 582.174 337.774C599.29 329.806 614.566 318.754 627.129 305.248C639.692 291.741 649.296 276.046 655.393 259.058C661.49 242.07 663.961 224.121 662.665 206.237C661.368 188.353 656.329 170.883 647.836 154.826L623.38 166.211C630.28 179.255 634.373 193.447 635.426 207.975C636.48 222.503 634.473 237.084 629.519 250.885C624.566 264.685 616.764 277.436 606.558 288.408C596.353 299.38 583.943 308.358 570.039 314.831C556.135 321.304 541.007 325.144 525.521 326.132C510.035 327.12 494.493 325.237 479.782 320.59C465.072 315.944 451.481 308.624 439.785 299.05C428.09 289.475 418.519 277.834 411.62 264.789L387.164 276.174Z"/>
</mask>
<path d="M387.164 276.174C395.657 292.231 407.438 306.562 421.835 318.348C436.232 330.133 452.962 339.144 471.07 344.864C489.179 350.584 508.311 352.902 527.374 351.685C546.437 350.469 565.058 345.742 582.174 337.774C599.29 329.806 614.566 318.754 627.129 305.248C639.692 291.741 649.296 276.046 655.393 259.058C661.49 242.07 663.961 224.121 662.665 206.237C661.368 188.353 656.329 170.883 647.836 154.826L623.38 166.211C630.28 179.255 634.373 193.447 635.426 207.975C636.48 222.503 634.473 237.084 629.519 250.885C624.566 264.685 616.764 277.436 606.558 288.408C596.353 299.38 583.943 308.358 570.039 314.831C556.135 321.304 541.007 325.144 525.521 326.132C510.035 327.12 494.493 325.237 479.782 320.59C465.072 315.944 451.481 308.624 439.785 299.05C428.09 289.475 418.519 277.834 411.62 264.789L387.164 276.174Z" fill="#E5C46B"/>
<path d="M387.164 276.174C395.657 292.231 407.438 306.562 421.835 318.348C436.232 330.133 452.962 339.144 471.07 344.864C489.179 350.584 508.311 352.902 527.374 351.685C546.437 350.469 565.058 345.742 582.174 337.774C599.29 329.806 614.566 318.754 627.129 305.248C639.692 291.741 649.296 276.046 655.393 259.058C661.49 242.07 663.961 224.121 662.665 206.237C661.368 188.353 656.329 170.883 647.836 154.826L623.38 166.211C630.28 179.255 634.373 193.447 635.426 207.975C636.48 222.503 634.473 237.084 629.519 250.885C624.566 264.685 616.764 277.436 606.558 288.408C596.353 299.38 583.943 308.358 570.039 314.831C556.135 321.304 541.007 325.144 525.521 326.132C510.035 327.12 494.493 325.237 479.782 320.59C465.072 315.944 451.481 308.624 439.785 299.05C428.09 289.475 418.519 277.834 411.62 264.789L387.164 276.174Z" stroke="white" stroke-opacity="0.9" stroke-width="0.4" mask="url(#path-3-outside-2_2943_254171)"/>
<mask id="path-4-outside-3_2943_254171" maskUnits="userSpaceOnUse" x="441" y="78" width="209" height="91" fill="black">
<rect fill="white" x="441" y="78" width="209" height="91"/>
<path d="M649.271 157.617C640.581 140.207 628.069 124.714 612.554 112.155C597.039 99.5957 578.871 90.2525 559.24 84.7374C539.609 79.2223 518.958 77.6596 498.639 80.1517C478.319 82.6439 458.79 89.1346 441.33 99.1988L455.247 120.448C469.517 112.222 485.478 106.918 502.085 104.881C518.692 102.844 535.57 104.121 551.614 108.629C567.658 113.136 582.507 120.772 595.187 131.037C607.867 141.302 618.093 153.963 625.195 168.193L649.271 157.617Z"/>
</mask>
<path d="M649.271 157.617C640.581 140.207 628.069 124.714 612.554 112.155C597.039 99.5957 578.871 90.2525 559.24 84.7374C539.609 79.2223 518.958 77.6596 498.639 80.1517C478.319 82.6439 458.79 89.1346 441.33 99.1988L455.247 120.448C469.517 112.222 485.478 106.918 502.085 104.881C518.692 102.844 535.57 104.121 551.614 108.629C567.658 113.136 582.507 120.772 595.187 131.037C607.867 141.302 618.093 153.963 625.195 168.193L649.271 157.617Z" fill="#4FB848"/>
<path d="M649.271 157.617C640.581 140.207 628.069 124.714 612.554 112.155C597.039 99.5957 578.871 90.2525 559.24 84.7374C539.609 79.2223 518.958 77.6596 498.639 80.1517C478.319 82.6439 458.79 89.1346 441.33 99.1988L455.247 120.448C469.517 112.222 485.478 106.918 502.085 104.881C518.692 102.844 535.57 104.121 551.614 108.629C567.658 113.136 582.507 120.772 595.187 131.037C607.867 141.302 618.093 153.963 625.195 168.193L649.271 157.617Z" stroke="white" stroke-opacity="0.9" stroke-width="0.4" mask="url(#path-4-outside-3_2943_254171)"/>
<mask id="path-5-outside-4_2943_254171" maskUnits="userSpaceOnUse" x="371" y="98" width="85" height="180" fill="black">
<rect fill="white" x="371" y="98" width="85" height="180"/>
<path d="M441.405 99.1559C410.306 117.057 387.512 145.267 377.54 178.192C367.568 211.118 371.146 246.357 387.564 276.925L411.02 265.836C397.566 240.787 394.634 211.909 402.806 184.927C410.978 157.945 429.657 134.828 455.142 120.158L441.405 99.1559Z"/>
</mask>
<path d="M441.405 99.1559C410.306 117.057 387.512 145.267 377.54 178.192C367.568 211.118 371.146 246.357 387.564 276.925L411.02 265.836C397.566 240.787 394.634 211.909 402.806 184.927C410.978 157.945 429.657 134.828 455.142 120.158L441.405 99.1559Z" fill="#EB1616"/>
<path d="M441.405 99.1559C410.306 117.057 387.512 145.267 377.54 178.192C367.568 211.118 371.146 246.357 387.564 276.925L411.02 265.836C397.566 240.787 394.634 211.909 402.806 184.927C410.978 157.945 429.657 134.828 455.142 120.158L441.405 99.1559Z" stroke="white" stroke-opacity="0.9" stroke-width="0.4" mask="url(#path-5-outside-4_2943_254171)"/>
<rect x="704.5" y="154.5" width="24" height="24" fill="#4FB848" stroke="white"/>
<rect x="704.5" y="199.5" width="24" height="24" fill="#EB1616" stroke="white"/>
<rect x="704.5" y="251.5" width="24" height="24" fill="#E5C46B" stroke="white"/>
<path d="M746.712 256.736H747.416V258.144H746.712H740.984V261.856H746.712H747.416V263.264H746.712H740.984V266.976H746.712H747.416V268.384H746.712H740.28H739.576V267.68V263.264V261.856V257.44V256.736H740.28H746.712ZM753.056 258.144H750.224H749.52V256.736H750.224H753.056H754.464H757.264H757.968V258.144H757.264H754.464V267.68V268.384H753.056V267.68V258.144ZM767.113 263.28H761.481V267.68V268.384H760.073V267.68V263.28V261.872V257.44V256.736H761.481V257.44V261.872H767.113V257.44V256.736H768.521V257.44V261.872V263.28V267.68V268.384H767.113V267.68V263.28Z" fill="white" fill-opacity="0.9"/>
<path d="M747.32 211.28H746.616H740.984V215.68V216.384H739.576V215.68V211.28V209.872V205.44V204.736H740.28H747.32H748.024V205.44V209.872V210.576V211.28H747.32ZM746.616 209.872V206.144H740.984V209.872H746.616ZM752.178 214.976H755.57V209.664H752.178V214.976ZM751.474 216.384H750.77V215.68V208.96V208.256H751.474H756.274H756.978V208.96V215.68V216.384H756.274H751.474ZM759.729 205.184V204.48H761.137V205.184V215.68V216.384H759.729V215.68V205.184ZM765.444 213.024H765.3V215.68V216.384H763.892V215.68V213.024V211.616V205.184V204.48H765.3V205.184V211.616H765.444L768.58 208.464L768.788 208.256H770.772L769.572 209.456L766.724 212.32L769.572 215.184L770.772 216.384H768.788L768.58 216.176L765.444 213.024ZM777.01 213.024H773.618V214.976H777.01V213.024ZM778.418 213.024V215.68V216.384H777.714H772.914H772.21V215.68V212.32V211.616H772.914H777.01V209.664H772.914H772.21V208.256H772.914H777.714H778.418V208.96V211.616V213.024ZM787.378 208.256V209.664V215.68V216.384H786.674H781.874H781.17V215.68V208.96V208.256H781.874H785.97V205.184V204.48H787.378V205.184V208.256ZM785.97 209.664H782.578V214.976H785.97V209.664ZM791.537 214.976H794.929V209.664H791.537V214.976ZM790.833 216.384H790.129V215.68V208.96V208.256H790.833H795.633H796.337V208.96V215.68V216.384H795.633H790.833ZM801.217 208.256H802.673H803.377V209.664H802.673H801.217V214.976H802.673H803.377V216.384H802.673H800.513H799.809V215.68V209.664H799.793H799.089V208.256H799.793H799.809V205.184V204.48H801.217V205.184V208.256Z" fill="white" fill-opacity="0.9"/>
<path d="M746.712 159.736H747.416V161.144H746.712H740.984V169.976H746.712H747.416V171.384H746.712H740.28H739.576V170.68V160.44V159.736H740.28H746.712ZM751.256 169.976H754.648V164.664H751.256V169.976ZM750.552 171.384H749.848V170.68V163.96V163.256H750.552H755.352H756.056V163.96V170.68V171.384H755.352H750.552ZM763.671 163.256H764.375V164.664H763.671H760.535V166.616H763.991H764.695V167.32V170.68V171.384H763.991H759.511H758.807V169.976H759.511H763.287V168.024H759.831H759.127V167.32V163.96V163.256H759.831H763.671ZM776.542 170.68V171.384H775.134V170.68V164.664H772.702V170.68V171.384H771.294V170.68V164.664H768.862V170.68V171.384H767.454V170.68V163.96V163.256H768.158H771.294H771.998H772.702H775.838H776.542V163.96V170.68ZM780.697 169.976H784.089V164.664H780.697V169.976ZM779.993 171.384H779.289V170.68V163.96V163.256H779.993H784.793H785.497V163.96V170.68V171.384H784.793H779.993Z" fill="white" fill-opacity="0.9"/>
<mask id="path-12-inside-5_2943_254171" fill="white">
<path d="M0 0H159V48H0V0Z"/>
</mask>
<path d="M0 0H159V48H0V0Z" fill="#1E1E1E"/>
<path d="M159 47H0V49H159V47Z" fill="#3E3E3E" mask="url(#path-12-inside-5_2943_254171)"/>
<path d="M38.2011 18.45H34.8823H34.0573V16.8H34.8823H38.2011H39.8511H43.1323H43.9573V18.45H43.1323H39.8511V29.625V30.45H38.2011V29.625V18.45ZM45.711 17.8875L45.336 16.8H47.0798L47.286 17.3625L50.6235 27.0937L53.961 17.3625L54.1673 16.8H55.911L55.536 17.8875L51.411 29.8875L51.2048 30.45H50.0423L49.836 29.8875L45.711 17.8875ZM65.9897 16.8H66.8147V18.45H65.9897H60.0647V22.8187H66.3647H67.1897V23.6437V29.625V30.45H66.3647H58.8647H58.0397V28.8H58.8647H65.5397V24.4687H59.2397H58.4147V23.6437V17.625V16.8H59.2397H65.9897ZM87.7288 16.8H88.5538V18.45H87.7288H80.3038V28.8H86.9038V24.4687L83.6225 24.45H82.7975V22.8H83.6225L87.7288 22.8187H88.5538V23.6437V29.625V30.45H87.7288H79.4788H78.6538V29.625V17.625V16.8H79.4788H87.7288ZM96.3652 20.925H97.1902V22.575H96.3652H93.4214V29.625V30.45H91.7714V29.625V21.75V20.925H92.5964H96.3652ZM101.321 28.8H105.296V22.575H101.321V28.8ZM100.496 30.45H99.6706V29.625V21.75V20.925H100.496H106.121H106.946V21.75V29.625V30.45H106.121H100.496ZM110.17 21.75V20.925H111.82V21.75V28.8H114.107V21.75V20.925H115.757V21.75V28.8H118.045V21.75V20.925H119.695V21.75V29.625V30.45H118.87H115.757H114.951H114.107H110.995H110.17V29.625V21.75ZM125.415 20.925H127.121H127.946V22.575H127.121H125.415V28.8H127.121H127.946V30.45H127.121H124.59H123.765V29.625V22.575H123.746H122.921V20.925H123.746H123.765V17.325V16.5H125.415V17.325V20.925Z" fill="#E5C46B"/>
</svg>
