<svg width="1195" height="408" viewBox="0 0 1195 408" fill="none" xmlns="http://www.w3.org/2000/svg">
<path d="M2.5 0.5H1194.5V407.5H2.5V0.5Z" fill="#1E1E1E" stroke="none"/>
<g filter="url(#filter0_dddddd_2943_254170)">
<path d="M141 226.571H193H229L275.5 216.571L323 209.071H370L465 185.857L489.5 170.143L504.5 181.929L524.5 193H546L586.07 164.071L606.209 140.857L646.488 123L666.628 129.071L686.767 185.857L706.907 188L744.165 209.071L765.312 216.571L788.472 226.571L802.57 216.571L823.716 226.571L847.884 233L882.121 226.571L925.421 209.071L945.56 226.571L1009 233" stroke="#EB1616" stroke-width="2"/>
</g>
<g filter="url(#filter1_dddddd_2943_254170)">
<path d="M141 254.571H193H229L275.5 244.571L323 237.071H370L465 213.857L489.5 198.143L504.5 209.929L524.5 221H546L586.07 192.071L606.209 168.857L646.488 151L666.628 157.071L686.767 213.857L706.907 216L744.165 237.071L765.312 244.571L788.472 254.571L802.57 244.571L823.716 254.571L847.884 261L882.121 254.571L925.421 237.071L945.56 254.571L1009 261" stroke="#4FB848" stroke-width="2"/>
</g>
<g filter="url(#filter2_dddddd_2943_254170)">
<path d="M141 247.571H193H229L275.5 237.571L323 230.071H370L465 206.857L489.5 191.143L504.5 202.929L524.5 214H546L586.07 185.071L606.209 161.857L646.488 144L666.628 150.071L686.767 206.857L706.907 209L744.165 230.071L765.312 237.571L788.472 247.571L802.57 237.571L823.716 247.571L847.884 254L882.121 247.571L925.421 230.071L945.56 247.571L1009 254" stroke="#E5C46B" stroke-width="2"/>
</g>
<g filter="url(#filter3_d_2943_254170)">
<rect x="637" y="104" width="130" height="120" fill="#1E1E1E"/>
</g>
<line x1="625.5" y1="112" x2="625.5" y2="285" stroke="#E5C46B" stroke-dasharray="2 2"/>
<mask id="path-7-inside-1_2943_254170" fill="white">
<path d="M0 16H177V64H0V16Z"/>
</mask>
<path d="M0 16H177V64H0V16Z" fill="#1E1E1E"/>
<path d="M177 63H0V65H177V63Z" fill="#3E3E3E" mask="url(#path-7-inside-1_2943_254170)"/>
<path d="M39.2401 33.8H40.0651V35.45H39.2401H31.8151V45.8H38.4151V41.4687L35.1339 41.45H34.3089V39.8H35.1339L39.2401 39.8187H40.0651V40.6437V46.625V47.45H39.2401H30.9901H30.1651V46.625V34.625V33.8H30.9901H39.2401ZM43.2828 34.325V33.5H44.9328V34.325V46.625V47.45H43.2828V46.625V34.325ZM49.8107 45.8H53.7857V39.575H49.8107V45.8ZM48.9857 47.45H48.1607V46.625V38.75V37.925H48.9857H54.6107H55.4357V38.75V46.625V47.45H54.6107H48.9857ZM60.31 39.575V45.8H64.285V39.575H60.31ZM60.31 37.925H65.11H65.935V38.75V46.625V47.45H65.11H59.485H58.66V46.625V39.575V37.925V34.325V33.5H60.31V34.325V37.925ZM74.7843 43.5125H70.8093V45.8H74.7843V43.5125ZM76.4343 43.5125V46.625V47.45H75.6093H69.9843H69.1593V46.625V42.6875V41.8625H69.9843H74.7843V39.575H69.9843H69.1593V37.925H69.9843H75.6093H76.4343V38.75V41.8625V43.5125ZM79.6585 34.325V33.5H81.3085V34.325V46.625V47.45H79.6585V46.625V34.325ZM107.184 46.625V47.45H105.534V46.625V35.45H100.809V46.625V47.45H99.1585V46.625V35.45H94.4335V46.625V47.45H92.7835V46.625V34.625V33.8H93.6085H99.1585H99.9835H100.809H106.359H107.184V34.625V46.625ZM112.056 41.8812H116.031V39.575H112.056V41.8812ZM110.406 41.8812V38.75V37.925H111.231H116.856H117.681V38.75V42.7062V43.5312H116.856H112.056V45.8H116.856H117.681V47.45H116.856H111.231H110.406V46.625V43.5312V41.8812ZM123.399 37.925H125.105H125.93V39.575H125.105H123.399V45.8H125.105H125.93V47.45H125.105H122.574H121.749V46.625V39.575H121.73H120.905V37.925H121.73H121.749V34.325V33.5H123.399V34.325V37.925ZM132.995 37.925H133.82V39.575H132.995H130.051V46.625V47.45H128.401V46.625V38.75V37.925H129.226H132.995ZM137.163 34.55H137.988V36.2H137.163H137.125H136.3V34.55H137.125H137.163ZM136.3 38.75V37.925H137.95V38.75V46.625V47.45H136.3V46.625V38.75ZM147.253 37.925H148.078V39.575H147.253H142.828V45.8H147.253H148.078V47.45H147.253H142.003H141.178V46.625V38.75V37.925H142.003H147.253ZM156.627 37.925H157.452V39.575H156.627H152.952V41.8625H157.002H157.827V42.6875V46.625V47.45H157.002H151.752H150.927V45.8H151.752H156.177V43.5125H152.127H151.302V42.6875V38.75V37.925H152.127H156.627Z" fill="#E5C46B"/>
<rect x="442.5" y="350.5" width="24" height="24" fill="#4FB848" stroke="white"/>
<rect x="-0.5" y="0.5" width="6" height="6" transform="matrix(-1 0 0 1 628 158)" fill="#4FB848" stroke="white"/>
<rect x="-0.5" y="0.5" width="8" height="8" transform="matrix(-1 0 0 1 654 168)" fill="#4FB848" stroke="white"/>
<rect x="565.5" y="351.5" width="24" height="24" fill="#EB1616" stroke="white"/>
<rect x="622.5" y="128.5" width="6" height="6" fill="#EB1616" stroke="white"/>
<rect x="646.5" y="146.5" width="8" height="8" fill="#EB1616" stroke="white"/>
<rect x="688.5" y="350.5" width="24" height="24" fill="#E5C46B" stroke="white"/>
<path d="M730.712 355.736H731.416V357.144H730.712H724.984V360.856H730.712H731.416V362.264H730.712H724.984V365.976H730.712H731.416V367.384H730.712H724.28H723.576V366.68V362.264V360.856V356.44V355.736H724.28H730.712ZM737.056 357.144H734.224H733.52V355.736H734.224H737.056H738.464H741.264H741.968V357.144H741.264H738.464V366.68V367.384H737.056V366.68V357.144ZM751.113 362.28H745.481V366.68V367.384H744.073V366.68V362.28V360.872V356.44V355.736H745.481V356.44V360.872H751.113V356.44V355.736H752.521V356.44V360.872V362.28V366.68V367.384H751.113V366.68V362.28Z" fill="white" fill-opacity="0.9"/>
<path d="M608.32 363.28H607.616H601.984V367.68V368.384H600.576V367.68V363.28V361.872V357.44V356.736H601.28H608.32H609.024V357.44V361.872V362.576V363.28H608.32ZM607.616 361.872V358.144H601.984V361.872H607.616ZM613.178 366.976H616.57V361.664H613.178V366.976ZM612.474 368.384H611.77V367.68V360.96V360.256H612.474H617.274H617.978V360.96V367.68V368.384H617.274H612.474ZM620.729 357.184V356.48H622.137V357.184V367.68V368.384H620.729V367.68V357.184ZM626.444 365.024H626.3V367.68V368.384H624.892V367.68V365.024V363.616V357.184V356.48H626.3V357.184V363.616H626.444L629.58 360.464L629.788 360.256H631.772L630.572 361.456L627.724 364.32L630.572 367.184L631.772 368.384H629.788L629.58 368.176L626.444 365.024ZM638.01 365.024H634.618V366.976H638.01V365.024ZM639.418 365.024V367.68V368.384H638.714H633.914H633.21V367.68V364.32V363.616H633.914H638.01V361.664H633.914H633.21V360.256H633.914H638.714H639.418V360.96V363.616V365.024ZM648.378 360.256V361.664V367.68V368.384H647.674H642.874H642.17V367.68V360.96V360.256H642.874H646.97V357.184V356.48H648.378V357.184V360.256ZM646.97 361.664H643.578V366.976H646.97V361.664ZM652.537 366.976H655.929V361.664H652.537V366.976ZM651.833 368.384H651.129V367.68V360.96V360.256H651.833H656.633H657.337V360.96V367.68V368.384H656.633H651.833ZM662.217 360.256H663.673H664.377V361.664H663.673H662.217V366.976H663.673H664.377V368.384H663.673H661.513H660.809V367.68V361.664H660.793H660.089V360.256H660.793H660.809V357.184V356.48H662.217V357.184V360.256Z" fill="white" fill-opacity="0.9"/>
<path d="M484.712 355.736H485.416V357.144H484.712H478.984V365.976H484.712H485.416V367.384H484.712H478.28H477.576V366.68V356.44V355.736H478.28H484.712ZM489.256 365.976H492.648V360.664H489.256V365.976ZM488.552 367.384H487.848V366.68V359.96V359.256H488.552H493.352H494.056V359.96V366.68V367.384H493.352H488.552ZM501.671 359.256H502.375V360.664H501.671H498.535V362.616H501.991H502.695V363.32V366.68V367.384H501.991H497.511H496.807V365.976H497.511H501.287V364.024H497.831H497.127V363.32V359.96V359.256H497.831H501.671ZM514.542 366.68V367.384H513.134V366.68V360.664H510.702V366.68V367.384H509.294V366.68V360.664H506.862V366.68V367.384H505.454V366.68V359.96V359.256H506.158H509.294H509.998H510.702H513.838H514.542V359.96V366.68ZM518.697 365.976H522.089V360.664H518.697V365.976ZM517.993 367.384H517.289V366.68V359.96V359.256H517.993H522.793H523.497V359.96V366.68V367.384H522.793H517.993ZM531.112 359.256H531.816V360.664H531.112H527.976V362.616H531.432H532.136V363.32V366.68V367.384H531.432H526.952H526.248V365.976H526.952H530.728V364.024H527.272H526.568V363.32V359.96V359.256H527.272H531.112Z" fill="white" fill-opacity="0.9"/>
<rect x="-0.5" y="0.5" width="6" height="6" transform="matrix(-1 0 0 1 628 149)" fill="#E5C46B" stroke="white"/>
<path d="M152.055 306.725V307.33H150.845V306.725V298.53H147.38V306.725V307.33H146.17V306.725V298.53H142.705V306.725V307.33H141.495V306.725V297.925V297.32H142.1H146.17H146.775H147.38H151.45H152.055V297.925V306.725ZM157.855 304.442H154.94V306.12H157.855V304.442ZM159.065 304.442V306.725V307.33H158.46H154.335H153.73V306.725V303.837V303.232H154.335H157.855V301.555H154.335H153.73V300.345H154.335H158.46H159.065V300.95V303.232V304.442ZM161.347 309.791H160.742V308.581H161.347H164.317V307.33H161.347H160.742V306.725V300.95V300.345H161.952V300.95V306.12H164.317V300.95V300.345H165.527V300.95V306.12V307.33V309.186V309.791H164.922H161.347ZM175.837 307.33H174.627H172.619H172.014V306.12H172.619H174.627L174.64 297.98H173.925H173.32V296.77H173.925H174.64H175.245H175.85V297.375V297.98L175.837 306.12H177.844H178.449V307.33H177.844H175.837Z" fill="white" fill-opacity="0.9"/>
<path d="M294.055 303.725V304.33H292.845V303.725V295.53H289.38V303.725V304.33H288.17V303.725V295.53H284.705V303.725V304.33H283.495V303.725V294.925V294.32H284.1H288.17H288.775H289.38H293.45H294.055V294.925V303.725ZM299.855 301.442H296.94V303.12H299.855V301.442ZM301.065 301.442V303.725V304.33H300.46H296.335H295.73V303.725V300.837V300.232H296.335H299.855V298.555H296.335H295.73V297.345H296.335H300.46H301.065V297.95V300.232V301.442ZM303.347 306.791H302.742V305.581H303.347H306.317V304.33H303.347H302.742V303.725V297.95V297.345H303.952V297.95V303.12H306.317V297.95V297.345H307.527V297.95V303.12V304.33V306.186V306.791H306.922H303.347ZM315.169 304.33H314.564V303.725V299.655V299.05V298.445V294.375V293.77H315.169H320.394H320.999V294.375V298.445V299.05V299.655V303.725V304.33H320.394H315.169ZM319.789 299.655H315.774V303.12H319.789V299.655ZM319.789 298.445V294.98H315.774V298.445H319.789Z" fill="white" fill-opacity="0.9"/>
<path d="M416.055 303.725V304.33H414.845V303.725V295.53H411.38V303.725V304.33H410.17V303.725V295.53H406.705V303.725V304.33H405.495V303.725V294.925V294.32H406.1H410.17H410.775H411.38H415.45H416.055V294.925V303.725ZM421.855 301.442H418.94V303.12H421.855V301.442ZM423.065 301.442V303.725V304.33H422.46H418.335H417.73V303.725V300.837V300.232H418.335H421.855V298.555H418.335H417.73V297.345H418.335H422.46H423.065V297.95V300.232V301.442ZM425.347 306.791H424.742V305.581H425.347H428.317V304.33H425.347H424.742V303.725V297.95V297.345H425.952V297.95V303.12H428.317V297.95V297.345H429.527V297.95V303.12V304.33V306.186V306.791H428.922H425.347ZM439.837 304.33H438.627H436.619H436.014V303.12H436.619H438.627L438.64 294.98H437.925H437.32V293.77H437.925H438.64H439.245H439.85V294.375V294.98L439.837 303.12H441.844H442.449V304.33H441.844H439.837ZM443.576 294.375V293.77H444.786V294.375V298.445H448.801V294.375V293.77H450.011V294.375V298.445V299.655V303.725V304.33H448.801V303.725V299.655H444.181H443.576V299.05V294.375Z" fill="white" fill-opacity="0.9"/>
<path d="M557.055 303.725V304.33H555.845V303.725V295.53H552.38V303.725V304.33H551.17V303.725V295.53H547.705V303.725V304.33H546.495V303.725V294.925V294.32H547.1H551.17H551.775H552.38H556.45H557.055V294.925V303.725ZM562.855 301.442H559.94V303.12H562.855V301.442ZM564.065 301.442V303.725V304.33H563.46H559.335H558.73V303.725V300.837V300.232H559.335H562.855V298.555H559.335H558.73V297.345H559.335H563.46H564.065V297.95V300.232V301.442ZM566.347 306.791H565.742V305.581H566.347H569.317V304.33H566.347H565.742V303.725V297.95V297.345H566.952V297.95V303.12H569.317V297.95V297.345H570.527V297.95V303.12V304.33V306.186V306.791H569.922H566.347ZM583.394 303.12H583.999V304.33H583.394H578.169H577.564V303.725V299.05V298.445H578.169H582.789V294.98H578.169H577.564V293.77H578.169H583.394H583.999V294.375V299.05V299.655H583.394H578.774V303.12H583.394ZM588.95 304.33H587.74H585.732H585.127V303.12H585.732H587.74L587.753 294.98H587.038H586.433V293.77H587.038H587.753H588.358H588.963V294.375V294.98L588.95 303.12H590.957H591.562V304.33H590.957H588.95Z" fill="white" fill-opacity="0.9"/>
<path d="M698.055 304.725V305.33H696.845V304.725V296.53H693.38V304.725V305.33H692.17V304.725V296.53H688.705V304.725V305.33H687.495V304.725V295.925V295.32H688.1H692.17H692.775H693.38H697.45H698.055V295.925V304.725ZM703.855 302.442H700.94V304.12H703.855V302.442ZM705.065 302.442V304.725V305.33H704.46H700.335H699.73V304.725V301.837V301.232H700.335H703.855V299.555H700.335H699.73V298.345H700.335H704.46H705.065V298.95V301.232V302.442ZM707.347 307.791H706.742V306.581H707.347H710.317V305.33H707.347H706.742V304.725V298.95V298.345H707.952V298.95V304.12H710.317V298.95V298.345H711.527V298.95V304.12V305.33V307.186V307.791H710.922H707.347ZM724.394 304.12H724.999V305.33H724.394H719.169H718.564V304.725V300.05V299.445H719.169H723.789V295.98H719.169H718.564V294.77H719.169H724.394H724.999V295.375V300.05V300.655H724.394H719.774V304.12H724.394ZM727.282 305.33H726.677V304.725V300.655V300.05V299.445V295.375V294.77H727.282H732.507H733.112V295.375V299.445V300.05V300.655V304.725V305.33H732.507H727.282ZM731.902 300.655H727.887V304.12H731.902V300.655ZM731.902 299.445V295.98H727.887V299.445H731.902Z" fill="white" fill-opacity="0.9"/>
<path d="M992.984 298.53H990.55H989.945V297.32H990.55H992.984H994.194H996.6H997.205V298.53H996.6H994.194V306.725V307.33H992.984V306.725V298.53ZM999.536 306.12H1002.45V301.555H999.536V306.12ZM998.931 307.33H998.326V306.725V300.95V300.345H998.931H1003.06H1003.66V300.95V306.725V307.33H1003.06H998.931ZM1010.67 300.345V301.555V306.725V307.33H1010.07H1005.94H1005.34V306.725V300.95V300.345H1005.94H1009.46V297.705V297.1H1010.67V297.705V300.345ZM1009.46 301.555H1006.55V306.12H1009.46V301.555ZM1016.47 304.442H1013.56V306.12H1016.47V304.442ZM1017.68 304.442V306.725V307.33H1017.08H1012.95H1012.35V306.725V303.837V303.232H1012.95H1016.47V301.555H1012.95H1012.35V300.345H1012.95H1017.08H1017.68V300.95V303.232V304.442ZM1019.97 309.791H1019.36V308.581H1019.97H1022.94V307.33H1019.97H1019.36V306.725V300.95V300.345H1020.57V300.95V306.12H1022.94V300.95V300.345H1024.15V300.95V306.12V307.33V309.186V309.791H1023.54H1019.97Z" fill="white" fill-opacity="0.9"/>
<line x1="1070" y1="285.5" x2="123" y2="285.5" stroke="white" stroke-opacity="0.9"/>
<line x1="122.5" y1="286" x2="122.5" y2="95" stroke="white" stroke-opacity="0.9"/>
<line x1="141.5" y1="286" x2="141.5" y2="290" stroke="white" stroke-opacity="0.9"/>
<line x1="607.5" y1="286" x2="607.5" y2="290" stroke="white" stroke-opacity="0.9"/>
<line x1="384.5" y1="286" x2="384.5" y2="290" stroke="white" stroke-opacity="0.9"/>
<line x1="850.5" y1="286" x2="850.5" y2="290" stroke="white" stroke-opacity="0.9"/>
<line x1="263.5" y1="286" x2="263.5" y2="290" stroke="white" stroke-opacity="0.9"/>
<line x1="727.5" y1="286" x2="727.5" y2="290" stroke="white" stroke-opacity="0.9"/>
<line x1="506.5" y1="286" x2="506.5" y2="290" stroke="white" stroke-opacity="0.9"/>
<line x1="970.5" y1="286" x2="970.5" y2="290" stroke="white" stroke-opacity="0.9"/>
<line x1="203.5" y1="286" x2="203.5" y2="290" stroke="white" stroke-opacity="0.9"/>
<line x1="667.5" y1="286" x2="667.5" y2="290" stroke="white" stroke-opacity="0.9"/>
<line x1="444.5" y1="286" x2="444.5" y2="290" stroke="white" stroke-opacity="0.9"/>
<line x1="908.5" y1="286" x2="908.5" y2="290" stroke="white" stroke-opacity="0.9"/>
<line x1="323.5" y1="286" x2="323.5" y2="290" stroke="white" stroke-opacity="0.9"/>
<line x1="789.5" y1="286" x2="789.5" y2="290" stroke="white" stroke-opacity="0.9"/>
<line x1="565.5" y1="286" x2="565.5" y2="290" stroke="white" stroke-opacity="0.9"/>
<line x1="163.5" y1="286" x2="163.5" y2="290" stroke="white" stroke-opacity="0.9"/>
<line x1="625.5" y1="286" x2="625.5" y2="290" stroke="white" stroke-opacity="0.9"/>
<line x1="405.5" y1="286" x2="405.5" y2="290" stroke="white" stroke-opacity="0.9"/>
<line x1="867.5" y1="286" x2="867.5" y2="290" stroke="white" stroke-opacity="0.9"/>
<line x1="283.5" y1="286" x2="283.5" y2="290" stroke="white" stroke-opacity="0.9"/>
<line x1="749.5" y1="286" x2="749.5" y2="290" stroke="white" stroke-opacity="0.9"/>
<line x1="524.5" y1="286" x2="524.5" y2="290" stroke="white" stroke-opacity="0.9"/>
<line x1="990.5" y1="286" x2="990.5" y2="290" stroke="white" stroke-opacity="0.9"/>
<line x1="223.5" y1="286" x2="223.5" y2="290" stroke="white" stroke-opacity="0.9"/>
<line x1="686.5" y1="286" x2="686.5" y2="290" stroke="white" stroke-opacity="0.9"/>
<line x1="463.5" y1="286" x2="463.5" y2="290" stroke="white" stroke-opacity="0.9"/>
<line x1="927.5" y1="286" x2="927.5" y2="290" stroke="white" stroke-opacity="0.9"/>
<line x1="344.5" y1="286" x2="344.5" y2="290" stroke="white" stroke-opacity="0.9"/>
<line x1="806.5" y1="286" x2="806.5" y2="290" stroke="white" stroke-opacity="0.9"/>
<line x1="585.5" y1="286" x2="585.5" y2="290" stroke="white" stroke-opacity="0.9"/>
<line x1="181.5" y1="286" x2="181.5" y2="290" stroke="white" stroke-opacity="0.9"/>
<line x1="645.5" y1="286" x2="645.5" y2="290" stroke="white" stroke-opacity="0.9"/>
<line x1="424.5" y1="286" x2="424.5" y2="290" stroke="white" stroke-opacity="0.9"/>
<line x1="887.5" y1="286" x2="887.5" y2="290" stroke="white" stroke-opacity="0.9"/>
<line x1="304.5" y1="286" x2="304.5" y2="290" stroke="white" stroke-opacity="0.9"/>
<line x1="766.5" y1="286" x2="766.5" y2="290" stroke="white" stroke-opacity="0.9"/>
<line x1="546.5" y1="286" x2="546.5" y2="290" stroke="white" stroke-opacity="0.9"/>
<line x1="243.5" y1="286" x2="243.5" y2="290" stroke="white" stroke-opacity="0.9"/>
<line x1="705.5" y1="286" x2="705.5" y2="290" stroke="white" stroke-opacity="0.9"/>
<line x1="486.5" y1="286" x2="486.5" y2="290" stroke="white" stroke-opacity="0.9"/>
<line x1="947.5" y1="286" x2="947.5" y2="290" stroke="white" stroke-opacity="0.9"/>
<line x1="364.5" y1="286" x2="364.5" y2="290" stroke="white" stroke-opacity="0.9"/>
<line x1="826.5" y1="286" x2="826.5" y2="290" stroke="white" stroke-opacity="0.9"/>
<line x1="607.5" y1="286" x2="607.5" y2="290" stroke="white" stroke-opacity="0.9"/>
<path d="M105.72 284.12V275.98H101.705V284.12H105.72ZM106.93 284.725V285.33H106.325H101.1H100.495V284.725V275.375V274.77H101.1H106.325H106.93V275.375V284.725ZM110.794 275.045C111.473 275.045 111.986 275.315 112.334 275.856C112.683 276.388 112.857 277.14 112.857 278.111C112.857 279.083 112.687 279.844 112.348 280.394C112.018 280.935 111.5 281.205 110.794 281.205C110.363 281.205 109.997 281.081 109.694 280.834C109.392 280.586 109.163 280.233 109.007 279.775C108.86 279.307 108.787 278.753 108.787 278.111C108.787 277.14 108.947 276.388 109.268 275.856C109.589 275.315 110.098 275.045 110.794 275.045ZM110.794 275.897C110.446 275.897 110.189 276.085 110.024 276.461C109.868 276.828 109.791 277.378 109.791 278.111C109.791 278.845 109.868 279.399 110.024 279.775C110.189 280.151 110.446 280.339 110.794 280.339C111.152 280.339 111.418 280.155 111.592 279.789C111.766 279.413 111.853 278.854 111.853 278.111C111.853 277.378 111.766 276.828 111.592 276.461C111.418 276.085 111.152 275.897 110.794 275.897ZM117.078 275.182L111.633 285H110.574L116.019 275.182H117.078ZM116.803 278.977C117.252 278.977 117.628 279.101 117.931 279.349C118.233 279.587 118.462 279.935 118.618 280.394C118.783 280.843 118.866 281.393 118.866 282.044C118.866 283.015 118.696 283.776 118.357 284.326C118.027 284.867 117.509 285.138 116.803 285.138C116.372 285.138 116.006 285.014 115.703 284.766C115.401 284.519 115.171 284.166 115.016 283.707C114.869 283.24 114.796 282.685 114.796 282.044C114.796 281.072 114.956 280.32 115.277 279.789C115.598 279.248 116.106 278.977 116.803 278.977ZM116.803 279.844C116.455 279.844 116.198 280.027 116.033 280.394C115.877 280.76 115.799 281.31 115.799 282.044C115.799 282.786 115.877 283.345 116.033 283.721C116.198 284.088 116.455 284.271 116.803 284.271C117.161 284.271 117.426 284.088 117.601 283.721C117.775 283.355 117.862 282.795 117.862 282.044C117.862 281.31 117.775 280.76 117.601 280.394C117.426 280.027 117.161 279.844 116.803 279.844Z" fill="white" fill-opacity="0.9"/>
<path d="M98.325 250.12H98.93V251.33H98.325H93.1H92.495V250.725V246.05V245.445H93.1H97.72V241.98H93.1H92.495V240.77H93.1H98.325H98.93V241.375V246.05V246.655H98.325H93.705V250.12H98.325ZM105.833 250.12V241.98H101.818V250.12H105.833ZM107.043 250.725V251.33H106.438H101.213H100.608V250.725V241.375V240.77H101.213H106.438H107.043V241.375V250.725ZM110.907 241.045C111.586 241.045 112.099 241.315 112.447 241.856C112.796 242.388 112.97 243.14 112.97 244.111C112.97 245.083 112.8 245.844 112.461 246.394C112.131 246.935 111.613 247.205 110.907 247.205C110.476 247.205 110.11 247.081 109.807 246.834C109.505 246.586 109.276 246.233 109.12 245.775C108.973 245.307 108.9 244.753 108.9 244.111C108.9 243.14 109.06 242.388 109.381 241.856C109.702 241.315 110.211 241.045 110.907 241.045ZM110.907 241.897C110.559 241.897 110.302 242.085 110.137 242.461C109.981 242.828 109.904 243.378 109.904 244.111C109.904 244.845 109.981 245.399 110.137 245.775C110.302 246.151 110.559 246.339 110.907 246.339C111.265 246.339 111.531 246.155 111.705 245.789C111.879 245.413 111.966 244.854 111.966 244.111C111.966 243.378 111.879 242.828 111.705 242.461C111.531 242.085 111.265 241.897 110.907 241.897ZM117.191 241.182L111.746 251H110.687L116.132 241.182H117.191ZM116.916 244.977C117.365 244.977 117.741 245.101 118.044 245.349C118.346 245.587 118.575 245.935 118.731 246.394C118.896 246.843 118.979 247.393 118.979 248.044C118.979 249.015 118.809 249.776 118.47 250.326C118.14 250.867 117.622 251.138 116.916 251.138C116.485 251.138 116.119 251.014 115.816 250.766C115.514 250.519 115.284 250.166 115.129 249.707C114.982 249.24 114.909 248.685 114.909 248.044C114.909 247.072 115.069 246.32 115.39 245.789C115.711 245.248 116.219 244.977 116.916 244.977ZM116.916 245.844C116.568 245.844 116.311 246.027 116.146 246.394C115.99 246.76 115.912 247.31 115.912 248.044C115.912 248.786 115.99 249.345 116.146 249.721C116.311 250.088 116.568 250.271 116.916 250.271C117.274 250.271 117.539 250.088 117.714 249.721C117.888 249.355 117.975 248.795 117.975 248.044C117.975 247.31 117.888 246.76 117.714 246.394C117.539 246.027 117.274 245.844 116.916 245.844Z" fill="white" fill-opacity="0.9"/>
<path d="M92.495 207.375V206.77H93.705V207.375V211.445H97.72V207.375V206.77H98.93V207.375V211.445V212.655V216.725V217.33H97.72V216.725V212.655H93.1H92.495V212.05V207.375ZM105.833 216.12V207.98H101.818V216.12H105.833ZM107.043 216.725V217.33H106.438H101.213H100.608V216.725V207.375V206.77H101.213H106.438H107.043V207.375V216.725ZM110.907 207.045C111.586 207.045 112.099 207.315 112.447 207.856C112.796 208.388 112.97 209.14 112.97 210.111C112.97 211.083 112.8 211.844 112.461 212.394C112.131 212.935 111.613 213.205 110.907 213.205C110.476 213.205 110.11 213.081 109.807 212.834C109.505 212.586 109.276 212.233 109.12 211.775C108.973 211.307 108.9 210.753 108.9 210.111C108.9 209.14 109.06 208.388 109.381 207.856C109.702 207.315 110.211 207.045 110.907 207.045ZM110.907 207.897C110.559 207.897 110.302 208.085 110.137 208.461C109.981 208.828 109.904 209.378 109.904 210.111C109.904 210.845 109.981 211.399 110.137 211.775C110.302 212.151 110.559 212.339 110.907 212.339C111.265 212.339 111.531 212.155 111.705 211.789C111.879 211.413 111.966 210.854 111.966 210.111C111.966 209.378 111.879 208.828 111.705 208.461C111.531 208.085 111.265 207.897 110.907 207.897ZM117.191 207.182L111.746 217H110.687L116.132 207.182H117.191ZM116.916 210.977C117.365 210.977 117.741 211.101 118.044 211.349C118.346 211.587 118.575 211.935 118.731 212.394C118.896 212.843 118.979 213.393 118.979 214.044C118.979 215.015 118.809 215.776 118.47 216.326C118.14 216.867 117.622 217.138 116.916 217.138C116.485 217.138 116.119 217.014 115.816 216.766C115.514 216.519 115.284 216.166 115.129 215.707C114.982 215.24 114.909 214.685 114.909 214.044C114.909 213.072 115.069 212.32 115.39 211.789C115.711 211.248 116.219 210.977 116.916 210.977ZM116.916 211.844C116.568 211.844 116.311 212.027 116.146 212.394C115.99 212.76 115.912 213.31 115.912 214.044C115.912 214.786 115.99 215.345 116.146 215.721C116.311 216.088 116.568 216.271 116.916 216.271C117.274 216.271 117.539 216.088 117.714 215.721C117.888 215.355 117.975 214.795 117.975 214.044C117.975 213.31 117.888 212.76 117.714 212.394C117.539 212.027 117.274 211.844 116.916 211.844Z" fill="white" fill-opacity="0.9"/>
<path d="M97.325 172.77H97.93V173.98H97.325H92.705V177.445H97.325H97.93V178.05V182.725V183.33H97.325H92.1H91.495V182.725V178.655V177.445V173.375V172.77H92.1H97.325ZM92.705 178.655V182.12H96.72V178.655H92.705ZM104.833 182.12V173.98H100.818V182.12H104.833ZM106.043 182.725V183.33H105.438H100.213H99.608V182.725V173.375V172.77H100.213H105.438H106.043V173.375V182.725ZM109.907 173.045C110.586 173.045 111.099 173.315 111.447 173.856C111.796 174.388 111.97 175.14 111.97 176.111C111.97 177.083 111.8 177.844 111.461 178.394C111.131 178.935 110.613 179.205 109.907 179.205C109.476 179.205 109.11 179.081 108.807 178.834C108.505 178.586 108.276 178.233 108.12 177.775C107.973 177.307 107.9 176.753 107.9 176.111C107.9 175.14 108.06 174.388 108.381 173.856C108.702 173.315 109.211 173.045 109.907 173.045ZM109.907 173.897C109.559 173.897 109.302 174.085 109.137 174.461C108.981 174.828 108.904 175.378 108.904 176.111C108.904 176.845 108.981 177.399 109.137 177.775C109.302 178.151 109.559 178.339 109.907 178.339C110.265 178.339 110.531 178.155 110.705 177.789C110.879 177.413 110.966 176.854 110.966 176.111C110.966 175.378 110.879 174.828 110.705 174.461C110.531 174.085 110.265 173.897 109.907 173.897ZM116.191 173.182L110.746 183H109.687L115.132 173.182H116.191ZM115.916 176.977C116.365 176.977 116.741 177.101 117.044 177.349C117.346 177.587 117.575 177.935 117.731 178.394C117.896 178.843 117.979 179.393 117.979 180.044C117.979 181.015 117.809 181.776 117.47 182.326C117.14 182.867 116.622 183.138 115.916 183.138C115.485 183.138 115.119 183.014 114.816 182.766C114.514 182.519 114.284 182.166 114.129 181.707C113.982 181.24 113.909 180.685 113.909 180.044C113.909 179.072 114.069 178.32 114.39 177.789C114.711 177.248 115.219 176.977 115.916 176.977ZM115.916 177.844C115.568 177.844 115.311 178.027 115.146 178.394C114.99 178.76 114.912 179.31 114.912 180.044C114.912 180.786 114.99 181.345 115.146 181.721C115.311 182.088 115.568 182.271 115.916 182.271C116.274 182.271 116.539 182.088 116.714 181.721C116.888 181.355 116.975 180.795 116.975 180.044C116.975 179.31 116.888 178.76 116.714 178.394C116.539 178.027 116.274 177.844 115.916 177.844Z" fill="white" fill-opacity="0.9"/>
<path d="M92.1 149.33H91.495V148.725V144.655V144.05V143.445V139.375V138.77H92.1H97.325H97.93V139.375V143.445V144.05V144.655V148.725V149.33H97.325H92.1ZM96.72 144.655H92.705V148.12H96.72V144.655ZM96.72 143.445V139.98H92.705V143.445H96.72ZM104.833 148.12V139.98H100.818V148.12H104.833ZM106.043 148.725V149.33H105.438H100.213H99.608V148.725V139.375V138.77H100.213H105.438H106.043V139.375V148.725ZM109.907 139.045C110.586 139.045 111.099 139.315 111.447 139.856C111.796 140.388 111.97 141.14 111.97 142.111C111.97 143.083 111.8 143.844 111.461 144.394C111.131 144.935 110.613 145.205 109.907 145.205C109.476 145.205 109.11 145.081 108.807 144.834C108.505 144.586 108.276 144.233 108.12 143.775C107.973 143.307 107.9 142.753 107.9 142.111C107.9 141.14 108.06 140.388 108.381 139.856C108.702 139.315 109.211 139.045 109.907 139.045ZM109.907 139.897C109.559 139.897 109.302 140.085 109.137 140.461C108.981 140.828 108.904 141.378 108.904 142.111C108.904 142.845 108.981 143.399 109.137 143.775C109.302 144.151 109.559 144.339 109.907 144.339C110.265 144.339 110.531 144.155 110.705 143.789C110.879 143.413 110.966 142.854 110.966 142.111C110.966 141.378 110.879 140.828 110.705 140.461C110.531 140.085 110.265 139.897 109.907 139.897ZM116.191 139.182L110.746 149H109.687L115.132 139.182H116.191ZM115.916 142.977C116.365 142.977 116.741 143.101 117.044 143.349C117.346 143.587 117.575 143.935 117.731 144.394C117.896 144.843 117.979 145.393 117.979 146.044C117.979 147.015 117.809 147.776 117.47 148.326C117.14 148.867 116.622 149.138 115.916 149.138C115.485 149.138 115.119 149.014 114.816 148.766C114.514 148.519 114.284 148.166 114.129 147.707C113.982 147.24 113.909 146.685 113.909 146.044C113.909 145.072 114.069 144.32 114.39 143.789C114.711 143.248 115.219 142.977 115.916 142.977ZM115.916 143.844C115.568 143.844 115.311 144.027 115.146 144.394C114.99 144.76 114.912 145.31 114.912 146.044C114.912 146.786 114.99 147.345 115.146 147.721C115.311 148.088 115.568 148.271 115.916 148.271C116.274 148.271 116.539 148.088 116.714 147.721C116.888 147.355 116.975 146.795 116.975 146.044C116.975 145.31 116.888 144.76 116.714 144.394C116.539 144.027 116.274 143.844 115.916 143.844Z" fill="white" fill-opacity="0.9"/>
<path d="M87.7675 115.33H86.5575H84.55H83.945V114.12H84.55H86.5575L86.5713 105.98H85.8563H85.2513V104.77H85.8563H86.5713H87.1763H87.7813V105.375V105.98L87.7675 114.12H89.775H90.38V115.33H89.775H87.7675ZM96.732 114.12V105.98H92.717V114.12H96.732ZM97.942 114.725V115.33H97.337H92.112H91.507V114.725V105.375V104.77H92.112H97.337H97.942V105.375V114.725ZM104.845 114.12V105.98H100.83V114.12H104.845ZM106.055 114.725V115.33H105.45H100.225H99.62V114.725V105.375V104.77H100.225H105.45H106.055V105.375V114.725ZM109.919 105.045C110.598 105.045 111.111 105.315 111.459 105.856C111.808 106.388 111.982 107.14 111.982 108.111C111.982 109.083 111.812 109.844 111.473 110.394C111.143 110.935 110.625 111.205 109.919 111.205C109.488 111.205 109.122 111.081 108.819 110.834C108.517 110.586 108.288 110.233 108.132 109.775C107.985 109.307 107.912 108.753 107.912 108.111C107.912 107.14 108.072 106.388 108.393 105.856C108.714 105.315 109.223 105.045 109.919 105.045ZM109.919 105.897C109.571 105.897 109.314 106.085 109.149 106.461C108.993 106.828 108.916 107.378 108.916 108.111C108.916 108.845 108.993 109.399 109.149 109.775C109.314 110.151 109.571 110.339 109.919 110.339C110.277 110.339 110.543 110.155 110.717 109.789C110.891 109.413 110.978 108.854 110.978 108.111C110.978 107.378 110.891 106.828 110.717 106.461C110.543 106.085 110.277 105.897 109.919 105.897ZM116.203 105.182L110.758 115H109.699L115.144 105.182H116.203ZM115.928 108.977C116.377 108.977 116.753 109.101 117.056 109.349C117.358 109.587 117.587 109.935 117.743 110.394C117.908 110.843 117.991 111.393 117.991 112.044C117.991 113.015 117.821 113.776 117.482 114.326C117.152 114.867 116.634 115.138 115.928 115.138C115.497 115.138 115.131 115.014 114.828 114.766C114.526 114.519 114.296 114.166 114.141 113.707C113.994 113.24 113.921 112.685 113.921 112.044C113.921 111.072 114.081 110.32 114.402 109.789C114.723 109.248 115.231 108.977 115.928 108.977ZM115.928 109.844C115.58 109.844 115.323 110.027 115.158 110.394C115.002 110.76 114.924 111.31 114.924 112.044C114.924 112.786 115.002 113.345 115.158 113.721C115.323 114.088 115.58 114.271 115.928 114.271C116.286 114.271 116.551 114.088 116.726 113.721C116.9 113.355 116.987 112.795 116.987 112.044C116.987 111.31 116.9 110.76 116.726 110.394C116.551 110.027 116.286 109.844 115.928 109.844Z" fill="white" fill-opacity="0.9"/>
<path d="M655.256 131.72V132.336H654.024V131.72V123.376H650.496V131.72V132.336H649.264V131.72V123.376H645.736V131.72V132.336H644.504V131.72V122.76V122.144H645.12H649.264H649.88H650.496H654.64H655.256V122.76V131.72ZM661.162 129.396H658.194V131.104H661.162V129.396ZM662.394 129.396V131.72V132.336H661.778H657.578H656.962V131.72V128.78V128.164H657.578H661.162V126.456H657.578H656.962V125.224H657.578H661.778H662.394V125.84V128.164V129.396ZM664.717 134.842H664.101V133.61H664.717H667.741V132.336H664.717H664.101V131.72V125.84V125.224H665.333V125.84V131.104H667.741V125.84V125.224H668.973V125.84V131.104V132.336V134.226V134.842H668.357H664.717ZM682.074 131.104H682.69V132.336H682.074H676.754H676.138V131.72V126.96V126.344H676.754H681.458V122.816H676.754H676.138V121.584H676.754H682.074H682.69V122.2V126.96V127.576H682.074H677.37V131.104H682.074ZM685.015 132.336H684.399V131.104H685.015H689.719V127.576H685.015H684.399V126.344H685.015H689.719V122.816H685.015H684.399V121.584H685.015H690.335H690.951V122.2V126.344V126.96V127.576V131.72V132.336H690.335H685.015ZM693.541 130.88L693.681 130.474H694.997L694.689 131.3L693.849 133.61L693.709 134.016H692.393L692.701 133.19L693.541 130.88ZM707.829 131.104H708.445V132.336H707.829H702.509H701.893V131.72V126.96V126.344H702.509H707.213V122.816H702.509H701.893V121.584H702.509H707.829H708.445V122.2V126.96V127.576H707.829H703.125V131.104H707.829ZM715.474 131.104V122.816H711.386V131.104H715.474ZM716.706 131.72V132.336H716.09H710.77H710.154V131.72V122.2V121.584H710.77H716.09H716.706V122.2V131.72ZM724.35 131.104H724.966V132.336H724.35H719.03H718.414V131.72V126.96V126.344H719.03H723.734V122.816H719.03H718.414V121.584H719.03H724.35H724.966V122.2V126.96V127.576H724.35H719.646V131.104H724.35ZM727.291 132.336H726.675V131.104H727.291H731.995V127.576H727.291H726.675V126.344H727.291H731.995V122.816H727.291H726.675V121.584H727.291H732.611H733.227V122.2V126.344V126.96V127.576V131.72V132.336H732.611H727.291Z" fill="#E5C46B"/>
<path d="M666.28 150.87H665.664H660.736V154.72V155.336H659.504V154.72V150.87V149.638V145.76V145.144H660.12H666.28H666.896V145.76V149.638V150.254V150.87H666.28ZM665.664 149.638V146.376H660.736V149.638H665.664ZM669.831 154.104H672.799V149.456H669.831V154.104ZM669.215 155.336H668.599V154.72V148.84V148.224H669.215H673.415H674.031V148.84V154.72V155.336H673.415H669.215ZM675.738 145.536V144.92H676.97V145.536V154.72V155.336H675.738V154.72V145.536ZM680.038 152.396H679.912V154.72V155.336H678.68V154.72V152.396V151.164V145.536V144.92H679.912V145.536V151.164H680.038L682.782 148.406L682.964 148.224H684.7L683.65 149.274L681.158 151.78L683.65 154.286L684.7 155.336H682.964L682.782 155.154L680.038 152.396ZM689.459 152.396H686.491V154.104H689.459V152.396ZM690.691 152.396V154.72V155.336H690.075H685.875H685.259V154.72V151.78V151.164H685.875H689.459V149.456H685.875H685.259V148.224H685.875H690.075H690.691V148.84V151.164V152.396ZM697.831 148.224V149.456V154.72V155.336H697.215H693.015H692.399V154.72V148.84V148.224H693.015H696.599V145.536V144.92H697.831V145.536V148.224ZM696.599 149.456H693.631V154.104H696.599V149.456ZM700.77 154.104H703.738V149.456H700.77V154.104ZM700.154 155.336H699.538V154.72V148.84V148.224H700.154H704.354H704.97V148.84V154.72V155.336H704.354H700.154ZM708.539 148.224H709.813H710.429V149.456H709.813H708.539V154.104H709.813H710.429V155.336H709.813H707.923H707.307V154.72V149.456H707.293H706.677V148.224H707.293H707.307V145.536V144.92H708.539V145.536V148.224Z" fill="white" fill-opacity="0.9"/>
<path d="M723.636 149.911V146.093H719.818V149.911H723.636ZM718.543 155V153.729H717.271V152.457H719.818V153.729H723.636V151.182H718.543V149.911H717.271V146.093H718.543V144.821H724.907V146.093H726.179V153.729H724.907V155H718.543ZM735.15 153.729V149.911H733.875V151.182H732.604V152.457H731.332V153.729H735.15ZM732.604 149.911V148.639H733.875V147.364H735.15V146.093H731.332V149.911H732.604ZM730.057 155V153.729H728.786V146.093H730.057V144.821H736.422V146.093H737.693V153.729H736.422V155H730.057ZM745.39 155V152.457H746.665V153.729H747.936V155H745.39ZM747.936 153.729V152.457H746.665V151.182H749.208V153.729H747.936ZM740.3 148.639V146.093H741.572V147.364H742.847V148.639H740.3ZM742.847 147.364V146.093H741.572V144.821H744.118V147.364H742.847ZM740.3 155V152.457H741.572V151.182H742.847V149.911H744.118V148.639H745.39V147.364H746.665V144.821H749.208V147.364H747.936V148.639H746.665V149.911H745.39V151.182H744.118V152.457H742.847V155H740.3Z" fill="#E81E25"/>
<path d="M716.818 178V172.911H718.089V171.639H719.361V170.364H720.636V169.093H716.818V170.364H714.271V167.821H723.179V170.364H721.907V171.639H720.636V172.911H719.361V178H716.818ZM732.15 176.729V172.911H730.875V174.182H729.604V175.457H728.332V176.729H732.15ZM729.604 172.911V171.639H730.875V170.364H732.15V169.093H728.332V172.911H729.604ZM727.057 178V176.729H725.786V169.093H727.057V167.821H733.422V169.093H734.693V176.729H733.422V178H727.057ZM742.39 178V175.457H743.665V176.729H744.936V178H742.39ZM744.936 176.729V175.457H743.665V174.182H746.208V176.729H744.936ZM737.3 171.639V169.093H738.572V170.364H739.847V171.639H737.3ZM739.847 170.364V169.093H738.572V167.821H741.118V170.364H739.847ZM737.3 178V175.457H738.572V174.182H739.847V172.911H741.118V171.639H742.39V170.364H743.665V167.821H746.208V170.364H744.936V171.639H743.665V172.911H742.39V174.182H741.118V175.457H739.847V178H737.3Z" fill="#50B849"/>
<path d="M692.818 199V193.911H694.089V192.639H695.361V191.364H696.636V190.093H692.818V191.364H690.271V188.821H699.179V191.364H697.907V192.639H696.636V193.911H695.361V199H692.818ZM704.332 199V193.911H705.604V192.639H706.875V191.364H708.15V190.093H704.332V191.364H701.786V188.821H710.693V191.364H709.422V192.639H708.15V193.911H706.875V199H704.332ZM718.39 199V196.457H719.665V197.729H720.936V199H718.39ZM720.936 197.729V196.457H719.665V195.182H722.208V197.729H720.936ZM713.3 192.639V190.093H714.572V191.364H715.847V192.639H713.3ZM715.847 191.364V190.093H714.572V188.821H717.118V191.364H715.847ZM713.3 199V196.457H714.572V195.182H715.847V193.911H717.118V192.639H718.39V191.364H719.665V188.821H722.208V191.364H720.936V192.639H719.665V193.911H718.39V195.182H717.118V196.457H715.847V199H713.3Z" fill="#E5C46B"/>
<path d="M665.748 189.144H666.364V190.376H665.748H660.736V193.624H665.748H666.364V194.856H665.748H660.736V198.104H665.748H666.364V199.336H665.748H660.12H659.504V198.72V194.856V193.624V189.76V189.144H660.12H665.748ZM670.599 190.376H668.121H667.505V189.144H668.121H670.599H671.831H674.281H674.897V190.376H674.281H671.831V198.72V199.336H670.599V198.72V190.376ZM682.199 194.87H677.271V198.72V199.336H676.039V198.72V194.87V193.638V189.76V189.144H677.271V189.76V193.638H682.199V189.76V189.144H683.431V189.76V193.638V194.87V198.72V199.336H682.199V198.72V194.87Z" fill="white" fill-opacity="0.9"/>
<path d="M666.748 167.144H667.364V168.376H666.748H661.736V176.104H666.748H667.364V177.336H666.748H661.12H660.504V176.72V167.76V167.144H661.12H666.748ZM670.024 176.104H672.992V171.456H670.024V176.104ZM669.408 177.336H668.792V176.72V170.84V170.224H669.408H673.608H674.224V170.84V176.72V177.336H673.608H669.408ZM680.187 170.224H680.803V171.456H680.187H677.443V173.164H680.467H681.083V173.78V176.72V177.336H680.467H676.547H675.931V176.104H676.547H679.851V174.396H676.827H676.211V173.78V170.84V170.224H676.827H680.187ZM690.749 176.72V177.336H689.517V176.72V171.456H687.389V176.72V177.336H686.157V176.72V171.456H684.029V176.72V177.336H682.797V176.72V170.84V170.224H683.413H686.157H686.773H687.389H690.133H690.749V170.84V176.72ZM693.684 176.104H696.652V171.456H693.684V176.104ZM693.068 177.336H692.452V176.72V170.84V170.224H693.068H697.268H697.884V170.84V176.72V177.336H697.268H693.068ZM703.848 170.224H704.464V171.456H703.848H701.104V173.164H704.128H704.744V173.78V176.72V177.336H704.128H700.208H699.592V176.104H700.208H703.512V174.396H700.488H699.872V173.78V170.84V170.224H700.488H703.848Z" fill="white" fill-opacity="0.9"/>
<rect x="-0.5" y="0.5" width="8" height="8" transform="matrix(-1 0 0 1 654 190)" fill="#E5C46B" stroke="white"/>
<mask id="path-87-inside-2_2943_254170" fill="white">
<path d="M483 68H544V88H483V68Z"/>
</mask>
<path d="M483 68H544V88H483V68Z" fill="#1E1E1E"/>
<path d="M544 87H483V89H544V87Z" fill="#3E3E3E" mask="url(#path-87-inside-2_2943_254170)"/>
<rect x="624.5" y="68.5" width="87" height="19" fill="#1E1E1E" stroke="#E5C46B"/>
<path d="M495.196 83H491.587V72.8182H495.226C496.25 72.8182 497.131 73.022 497.871 73.4297C498.61 73.834 499.178 74.4157 499.576 75.1747C499.977 75.9337 500.177 76.8419 500.177 77.8991C500.177 78.9598 499.977 79.8712 499.576 80.6335C499.178 81.3958 498.606 81.9808 497.861 82.3885C497.118 82.7962 496.23 83 495.196 83ZM493.739 81.1555H495.106C495.743 81.1555 496.278 81.0429 496.712 80.8175C497.15 80.5888 497.478 80.2358 497.697 79.7585C497.919 79.2779 498.03 78.6581 498.03 77.8991C498.03 77.1468 497.919 76.532 497.697 76.0547C497.478 75.5774 497.151 75.2261 496.717 75.0007C496.283 74.7753 495.748 74.6626 495.111 74.6626H493.739V81.1555ZM503.653 83H501.346L504.861 72.8182H507.635L511.145 83H508.838L506.288 75.1449H506.208L503.653 83ZM503.509 78.9979H508.957V80.6783H503.509V78.9979ZM515.223 72.8182V83H513.07V72.8182H515.223ZM517.694 83V72.8182H519.847V81.2251H524.212V83H517.694ZM524.442 72.8182H526.853L529.175 77.2031H529.275L531.596 72.8182H534.008L530.294 79.4006V83H528.156V79.4006L524.442 72.8182Z" fill="white" fill-opacity="0.9"/>
<path d="M631.964 72.8182H634.618L637.422 79.6591H637.542L640.346 72.8182H643.001V83H640.913V76.3729H640.828L638.193 82.9503H636.771L634.136 76.348H634.052V83H631.964V72.8182ZM654.831 77.9091C654.831 79.0194 654.62 79.964 654.199 80.7429C653.782 81.5218 653.212 82.1167 652.489 82.5277C651.77 82.9354 650.961 83.1392 650.063 83.1392C649.158 83.1392 648.346 82.9337 647.627 82.5227C646.908 82.1117 646.339 81.5168 645.922 80.7379C645.504 79.959 645.295 79.0161 645.295 77.9091C645.295 76.7988 645.504 75.8542 645.922 75.0753C646.339 74.2964 646.908 73.7031 647.627 73.2955C648.346 72.8845 649.158 72.679 650.063 72.679C650.961 72.679 651.77 72.8845 652.489 73.2955C653.212 73.7031 653.782 74.2964 654.199 75.0753C654.62 75.8542 654.831 76.7988 654.831 77.9091ZM652.648 77.9091C652.648 77.1899 652.54 76.5833 652.325 76.0895C652.113 75.5956 651.813 75.2211 651.425 74.9659C651.037 74.7107 650.583 74.5831 650.063 74.5831C649.543 74.5831 649.089 74.7107 648.701 74.9659C648.313 75.2211 648.011 75.5956 647.796 76.0895C647.584 76.5833 647.478 77.1899 647.478 77.9091C647.478 78.6283 647.584 79.2348 647.796 79.7287C648.011 80.2225 648.313 80.5971 648.701 80.8523C649.089 81.1075 649.543 81.2351 650.063 81.2351C650.583 81.2351 651.037 81.1075 651.425 80.8523C651.813 80.5971 652.113 80.2225 652.325 79.7287C652.54 79.2348 652.648 78.6283 652.648 77.9091ZM665.642 72.8182V83H663.782L659.353 76.5916H659.278V83H657.125V72.8182H659.015L663.409 79.2216H663.499V72.8182H665.642ZM667.733 74.593V72.8182H676.095V74.593H672.978V83H670.85V74.593H667.733ZM678.172 83V72.8182H680.325V77.0192H684.695V72.8182H686.842V83H684.695V78.794H680.325V83H678.172ZM689.317 83V72.8182H691.47V81.2251H695.835V83H689.317ZM696.065 72.8182H698.476L700.798 77.2031H700.897L703.219 72.8182H705.63L701.917 79.4006V83H699.779V79.4006L696.065 72.8182Z" fill="#E5C46B"/>
<path d="M555.881 83L552.968 72.8182H555.319L557.005 79.8928H557.089L558.948 72.8182H560.962L562.816 79.9077H562.906L564.591 72.8182H566.943L564.029 83H561.931L559.992 76.343H559.913L557.979 83H555.881ZM568.795 83V72.8182H575.656V74.593H570.948V77.0192H575.303V78.794H570.948V81.2251H575.676V83H568.795ZM578.067 83V72.8182H584.928V74.593H580.22V77.0192H584.575V78.794H580.22V81.2251H584.948V83H578.067ZM587.339 83V72.8182H589.492V77.3075H589.626L593.29 72.8182H595.871L592.092 77.3771L595.915 83H593.34L590.551 78.8139L589.492 80.1065V83H587.339ZM597.692 83V72.8182H599.844V81.2251H604.21V83H597.692ZM604.44 72.8182H606.851L609.173 77.2031H609.272L611.594 72.8182H614.005L610.291 79.4006V83H608.153V79.4006L604.44 72.8182Z" fill="white" fill-opacity="0.9"/>
<defs>
<filter id="filter0_dddddd_2943_254170" x="112.121" y="93.0563" width="925.859" height="169.847" filterUnits="userSpaceOnUse" color-interpolation-filters="sRGB">
<feFlood flood-opacity="0" result="BackgroundImageFix"/>
<feColorMatrix in="SourceAlpha" type="matrix" values="0 0 0 0 0 0 0 0 0 0 0 0 0 0 0 0 0 0 127 0" result="hardAlpha"/>
<feOffset/>
<feGaussianBlur stdDeviation="0.3438"/>
<feColorMatrix type="matrix" values="0 0 0 0 0.921569 0 0 0 0 0.0862745 0 0 0 0 0.0862745 0 0 0 1 0"/>
<feBlend mode="normal" in2="BackgroundImageFix" result="effect1_dropShadow_2943_254170"/>
<feColorMatrix in="SourceAlpha" type="matrix" values="0 0 0 0 0 0 0 0 0 0 0 0 0 0 0 0 0 0 127 0" result="hardAlpha"/>
<feOffset/>
<feGaussianBlur stdDeviation="0.6876"/>
<feColorMatrix type="matrix" values="0 0 0 0 0.921569 0 0 0 0 0.0862745 0 0 0 0 0.0862745 0 0 0 1 0"/>
<feBlend mode="normal" in2="effect1_dropShadow_2943_254170" result="effect2_dropShadow_2943_254170"/>
<feColorMatrix in="SourceAlpha" type="matrix" values="0 0 0 0 0 0 0 0 0 0 0 0 0 0 0 0 0 0 127 0" result="hardAlpha"/>
<feOffset/>
<feGaussianBlur stdDeviation="2.4066"/>
<feColorMatrix type="matrix" values="0 0 0 0 0.921569 0 0 0 0 0.0862745 0 0 0 0 0.0862745 0 0 0 1 0"/>
<feBlend mode="normal" in2="effect2_dropShadow_2943_254170" result="effect3_dropShadow_2943_254170"/>
<feColorMatrix in="SourceAlpha" type="matrix" values="0 0 0 0 0 0 0 0 0 0 0 0 0 0 0 0 0 0 127 0" result="hardAlpha"/>
<feOffset/>
<feGaussianBlur stdDeviation="4.8132"/>
<feColorMatrix type="matrix" values="0 0 0 0 0.921569 0 0 0 0 0.0862745 0 0 0 0 0.0862745 0 0 0 1 0"/>
<feBlend mode="normal" in2="effect3_dropShadow_2943_254170" result="effect4_dropShadow_2943_254170"/>
<feColorMatrix in="SourceAlpha" type="matrix" values="0 0 0 0 0 0 0 0 0 0 0 0 0 0 0 0 0 0 127 0" result="hardAlpha"/>
<feOffset/>
<feGaussianBlur stdDeviation="8.2512"/>
<feColorMatrix type="matrix" values="0 0 0 0 0.921569 0 0 0 0 0.0862745 0 0 0 0 0.0862745 0 0 0 1 0"/>
<feBlend mode="normal" in2="effect4_dropShadow_2943_254170" result="effect5_dropShadow_2943_254170"/>
<feColorMatrix in="SourceAlpha" type="matrix" values="0 0 0 0 0 0 0 0 0 0 0 0 0 0 0 0 0 0 127 0" result="hardAlpha"/>
<feOffset/>
<feGaussianBlur stdDeviation="14.4396"/>
<feColorMatrix type="matrix" values="0 0 0 0 0.921569 0 0 0 0 0.0862745 0 0 0 0 0.0862745 0 0 0 1 0"/>
<feBlend mode="normal" in2="effect5_dropShadow_2943_254170" result="effect6_dropShadow_2943_254170"/>
<feBlend mode="normal" in="SourceGraphic" in2="effect6_dropShadow_2943_254170" result="shape"/>
</filter>
<filter id="filter1_dddddd_2943_254170" x="112.121" y="121.056" width="925.859" height="169.847" filterUnits="userSpaceOnUse" color-interpolation-filters="sRGB">
<feFlood flood-opacity="0" result="BackgroundImageFix"/>
<feColorMatrix in="SourceAlpha" type="matrix" values="0 0 0 0 0 0 0 0 0 0 0 0 0 0 0 0 0 0 127 0" result="hardAlpha"/>
<feOffset/>
<feGaussianBlur stdDeviation="0.3438"/>
<feColorMatrix type="matrix" values="0 0 0 0 0.309804 0 0 0 0 0.721569 0 0 0 0 0.282353 0 0 0 1 0"/>
<feBlend mode="normal" in2="BackgroundImageFix" result="effect1_dropShadow_2943_254170"/>
<feColorMatrix in="SourceAlpha" type="matrix" values="0 0 0 0 0 0 0 0 0 0 0 0 0 0 0 0 0 0 127 0" result="hardAlpha"/>
<feOffset/>
<feGaussianBlur stdDeviation="0.6876"/>
<feColorMatrix type="matrix" values="0 0 0 0 0.309804 0 0 0 0 0.721569 0 0 0 0 0.282353 0 0 0 1 0"/>
<feBlend mode="normal" in2="effect1_dropShadow_2943_254170" result="effect2_dropShadow_2943_254170"/>
<feColorMatrix in="SourceAlpha" type="matrix" values="0 0 0 0 0 0 0 0 0 0 0 0 0 0 0 0 0 0 127 0" result="hardAlpha"/>
<feOffset/>
<feGaussianBlur stdDeviation="2.4066"/>
<feColorMatrix type="matrix" values="0 0 0 0 0.309804 0 0 0 0 0.721569 0 0 0 0 0.282353 0 0 0 1 0"/>
<feBlend mode="normal" in2="effect2_dropShadow_2943_254170" result="effect3_dropShadow_2943_254170"/>
<feColorMatrix in="SourceAlpha" type="matrix" values="0 0 0 0 0 0 0 0 0 0 0 0 0 0 0 0 0 0 127 0" result="hardAlpha"/>
<feOffset/>
<feGaussianBlur stdDeviation="4.8132"/>
<feColorMatrix type="matrix" values="0 0 0 0 0.309804 0 0 0 0 0.721569 0 0 0 0 0.282353 0 0 0 1 0"/>
<feBlend mode="normal" in2="effect3_dropShadow_2943_254170" result="effect4_dropShadow_2943_254170"/>
<feColorMatrix in="SourceAlpha" type="matrix" values="0 0 0 0 0 0 0 0 0 0 0 0 0 0 0 0 0 0 127 0" result="hardAlpha"/>
<feOffset/>
<feGaussianBlur stdDeviation="8.2512"/>
<feColorMatrix type="matrix" values="0 0 0 0 0.309804 0 0 0 0 0.721569 0 0 0 0 0.282353 0 0 0 1 0"/>
<feBlend mode="normal" in2="effect4_dropShadow_2943_254170" result="effect5_dropShadow_2943_254170"/>
<feColorMatrix in="SourceAlpha" type="matrix" values="0 0 0 0 0 0 0 0 0 0 0 0 0 0 0 0 0 0 127 0" result="hardAlpha"/>
<feOffset/>
<feGaussianBlur stdDeviation="14.4396"/>
<feColorMatrix type="matrix" values="0 0 0 0 0.309804 0 0 0 0 0.721569 0 0 0 0 0.282353 0 0 0 1 0"/>
<feBlend mode="normal" in2="effect5_dropShadow_2943_254170" result="effect6_dropShadow_2943_254170"/>
<feBlend mode="normal" in="SourceGraphic" in2="effect6_dropShadow_2943_254170" result="shape"/>
</filter>
<filter id="filter2_dddddd_2943_254170" x="112.121" y="114.056" width="925.859" height="169.847" filterUnits="userSpaceOnUse" color-interpolation-filters="sRGB">
<feFlood flood-opacity="0" result="BackgroundImageFix"/>
<feColorMatrix in="SourceAlpha" type="matrix" values="0 0 0 0 0 0 0 0 0 0 0 0 0 0 0 0 0 0 127 0" result="hardAlpha"/>
<feOffset/>
<feGaussianBlur stdDeviation="0.3438"/>
<feColorMatrix type="matrix" values="0 0 0 0 0.952941 0 0 0 0 0.694118 0 0 0 0 0.00392157 0 0 0 1 0"/>
<feBlend mode="normal" in2="BackgroundImageFix" result="effect1_dropShadow_2943_254170"/>
<feColorMatrix in="SourceAlpha" type="matrix" values="0 0 0 0 0 0 0 0 0 0 0 0 0 0 0 0 0 0 127 0" result="hardAlpha"/>
<feOffset/>
<feGaussianBlur stdDeviation="0.6876"/>
<feColorMatrix type="matrix" values="0 0 0 0 0.952941 0 0 0 0 0.694118 0 0 0 0 0.00392157 0 0 0 1 0"/>
<feBlend mode="normal" in2="effect1_dropShadow_2943_254170" result="effect2_dropShadow_2943_254170"/>
<feColorMatrix in="SourceAlpha" type="matrix" values="0 0 0 0 0 0 0 0 0 0 0 0 0 0 0 0 0 0 127 0" result="hardAlpha"/>
<feOffset/>
<feGaussianBlur stdDeviation="2.4066"/>
<feColorMatrix type="matrix" values="0 0 0 0 0.952941 0 0 0 0 0.694118 0 0 0 0 0.00392157 0 0 0 1 0"/>
<feBlend mode="normal" in2="effect2_dropShadow_2943_254170" result="effect3_dropShadow_2943_254170"/>
<feColorMatrix in="SourceAlpha" type="matrix" values="0 0 0 0 0 0 0 0 0 0 0 0 0 0 0 0 0 0 127 0" result="hardAlpha"/>
<feOffset/>
<feGaussianBlur stdDeviation="4.8132"/>
<feColorMatrix type="matrix" values="0 0 0 0 0.952941 0 0 0 0 0.694118 0 0 0 0 0.00392157 0 0 0 1 0"/>
<feBlend mode="normal" in2="effect3_dropShadow_2943_254170" result="effect4_dropShadow_2943_254170"/>
<feColorMatrix in="SourceAlpha" type="matrix" values="0 0 0 0 0 0 0 0 0 0 0 0 0 0 0 0 0 0 127 0" result="hardAlpha"/>
<feOffset/>
<feGaussianBlur stdDeviation="8.2512"/>
<feColorMatrix type="matrix" values="0 0 0 0 0.952941 0 0 0 0 0.694118 0 0 0 0 0.00392157 0 0 0 1 0"/>
<feBlend mode="normal" in2="effect4_dropShadow_2943_254170" result="effect5_dropShadow_2943_254170"/>
<feColorMatrix in="SourceAlpha" type="matrix" values="0 0 0 0 0 0 0 0 0 0 0 0 0 0 0 0 0 0 127 0" result="hardAlpha"/>
<feOffset/>
<feGaussianBlur stdDeviation="14.4396"/>
<feColorMatrix type="matrix" values="0 0 0 0 0.952941 0 0 0 0 0.694118 0 0 0 0 0.00392157 0 0 0 1 0"/>
<feBlend mode="normal" in2="effect5_dropShadow_2943_254170" result="effect6_dropShadow_2943_254170"/>
<feBlend mode="normal" in="SourceGraphic" in2="effect6_dropShadow_2943_254170" result="shape"/>
</filter>
<filter id="filter3_d_2943_254170" x="627" y="94" width="150" height="140" filterUnits="userSpaceOnUse" color-interpolation-filters="sRGB">
<feFlood flood-opacity="0" result="BackgroundImageFix"/>
<feColorMatrix in="SourceAlpha" type="matrix" values="0 0 0 0 0 0 0 0 0 0 0 0 0 0 0 0 0 0 127 0" result="hardAlpha"/>
<feOffset/>
<feGaussianBlur stdDeviation="5"/>
<feComposite in2="hardAlpha" operator="out"/>
<feColorMatrix type="matrix" values="0 0 0 0 0.952941 0 0 0 0 0.694118 0 0 0 0 0.00392157 0 0 0 1 0"/>
<feBlend mode="normal" in2="BackgroundImageFix" result="effect1_dropShadow_2943_254170"/>
<feBlend mode="normal" in="SourceGraphic" in2="effect1_dropShadow_2943_254170" result="shape"/>
</filter>
</defs>
</svg>
