<svg width="296" height="156" viewBox="0 0 296 156" fill="none" xmlns="http://www.w3.org/2000/svg">
<g clip-path="url(#clip0_6217_456716)">
<path d="M3.96826 147.498C3.96826 68.0919 68.4534 3.72021 148 3.72021C227.546 3.72021 292.032 68.0919 292.032 147.498" fill="#3E3E3E"/>
<path d="M3.96826 147.739C3.96826 68.333 68.4534 3.96143 148 3.96143C227.546 3.96143 292.032 68.3331 292.032 147.739" stroke="#4F483F" stroke-width="8.0574" stroke-miterlimit="10"/>
<path d="M71.2617 132.737C71.2617 132.737 71.2617 132.683 71.2617 132.575V132.202V131.828V131.666H71.4234H71.797H72.1706H72.3323C72.3323 131.666 72.3323 131.72 72.3323 131.828V132.202V132.575V132.737C72.3323 132.737 72.2784 132.737 72.1706 132.737H71.797H71.4234H71.2617ZM72.1539 132.737C72.1539 132.737 72.1539 132.683 72.1539 132.575V132.202V131.828V131.666H72.3156H72.6892H73.0629H73.2246C73.2246 131.666 73.2246 131.72 73.2246 131.828V132.202V132.575V132.737C73.2246 132.737 73.1707 132.737 73.0629 132.737H72.6892H72.3156H72.1539ZM73.0461 132.737C73.0461 132.737 73.0461 132.683 73.0461 132.575V132.202V131.828V131.666H73.2078H73.5815H73.9551H74.1168C74.1168 131.666 74.1168 131.72 74.1168 131.828V132.202V132.575V132.737C74.1168 132.737 74.0629 132.737 73.9551 132.737H73.5815H73.2078H73.0461ZM70.3694 131.845C70.3694 131.845 70.3694 131.791 70.3694 131.683V131.31V130.936V130.774H70.5311H70.9048H71.2784H71.4401C71.4401 130.774 71.4401 130.828 71.4401 130.936V131.31V131.683V131.845C71.4401 131.845 71.3862 131.845 71.2784 131.845H70.9048H70.5311H70.3694ZM73.9384 131.845C73.9384 131.845 73.9384 131.791 73.9384 131.683V131.31V130.936V130.774H74.1001H74.4737H74.8473H75.009C75.009 130.774 75.009 130.828 75.009 130.936V131.31V131.683V131.845C75.009 131.845 74.9551 131.845 74.8473 131.845H74.4737H74.1001H73.9384ZM70.3694 130.953C70.3694 130.953 70.3694 130.899 70.3694 130.791V130.417V130.044V129.882H70.5311H70.9048H71.2784H71.4401C71.4401 129.882 71.4401 129.936 71.4401 130.044V130.417V130.791V130.953C71.4401 130.953 71.3862 130.953 71.2784 130.953H70.9048H70.5311H70.3694ZM73.9384 130.953C73.9384 130.953 73.9384 130.899 73.9384 130.791V130.417V130.044V129.882H74.1001H74.4737H74.8473H75.009C75.009 129.882 75.009 129.936 75.009 130.044V130.417V130.791V130.953C75.009 130.953 74.9551 130.953 74.8473 130.953H74.4737H74.1001H73.9384ZM70.3694 130.06C70.3694 130.06 70.3694 130.007 70.3694 129.899V129.525V129.151V128.99H70.5311H70.9048H71.2784H71.4401C71.4401 128.99 71.4401 129.044 71.4401 129.151V129.525V129.899V130.06C71.4401 130.06 71.3862 130.06 71.2784 130.06H70.9048H70.5311H70.3694ZM73.9384 130.06C73.9384 130.06 73.9384 130.007 73.9384 129.899V129.525V129.151V128.99H74.1001H74.4737H74.8473H75.009C75.009 128.99 75.009 129.044 75.009 129.151V129.525V129.899V130.06C75.009 130.06 74.9551 130.06 74.8473 130.06H74.4737H74.1001H73.9384ZM70.3694 129.168C70.3694 129.168 70.3694 129.114 70.3694 129.007V128.633V128.259V128.098H70.5311H70.9048H71.2784H71.4401C71.4401 128.098 71.4401 128.151 71.4401 128.259V128.633V129.007V129.168C71.4401 129.168 71.3862 129.168 71.2784 129.168H70.9048H70.5311H70.3694ZM73.9384 129.168C73.9384 129.168 73.9384 129.114 73.9384 129.007V128.633V128.259V128.098H74.1001H74.4737H74.8473H75.009C75.009 128.098 75.009 128.151 75.009 128.259V128.633V129.007V129.168C75.009 129.168 74.9551 129.168 74.8473 129.168H74.4737H74.1001H73.9384ZM70.3694 128.276C70.3694 128.276 70.3694 128.222 70.3694 128.114V127.741V127.367V127.205H70.5311H70.9048H71.2784H71.4401C71.4401 127.205 71.4401 127.259 71.4401 127.367V127.741V128.114V128.276C71.4401 128.276 71.3862 128.276 71.2784 128.276H70.9048H70.5311H70.3694ZM73.9384 128.276C73.9384 128.276 73.9384 128.222 73.9384 128.114V127.741V127.367V127.205H74.1001H74.4737H74.8473H75.009C75.009 127.205 75.009 127.259 75.009 127.367V127.741V128.114V128.276C75.009 128.276 74.9551 128.276 74.8473 128.276H74.4737H74.1001H73.9384ZM70.3694 127.384C70.3694 127.384 70.3694 127.33 70.3694 127.222V126.848V126.475V126.313H70.5311H70.9048H71.2784H71.4401C71.4401 126.313 71.4401 126.367 71.4401 126.475V126.848V127.222V127.384C71.4401 127.384 71.3862 127.384 71.2784 127.384H70.9048H70.5311H70.3694ZM73.9384 127.384C73.9384 127.384 73.9384 127.33 73.9384 127.222V126.848V126.475V126.313H74.1001H74.4737H74.8473H75.009C75.009 126.313 75.009 126.367 75.009 126.475V126.848V127.222V127.384C75.009 127.384 74.9551 127.384 74.8473 127.384H74.4737H74.1001H73.9384ZM70.3694 126.492C70.3694 126.492 70.3694 126.438 70.3694 126.33V125.956V125.583V125.421H70.5311H70.9048H71.2784H71.4401C71.4401 125.421 71.4401 125.475 71.4401 125.583V125.956V126.33V126.492C71.4401 126.492 71.3862 126.492 71.2784 126.492H70.9048H70.5311H70.3694ZM73.9384 126.492C73.9384 126.492 73.9384 126.438 73.9384 126.33V125.956V125.583V125.421H74.1001H74.4737H74.8473H75.009C75.009 125.421 75.009 125.475 75.009 125.583V125.956V126.33V126.492C75.009 126.492 74.9551 126.492 74.8473 126.492H74.4737H74.1001H73.9384ZM70.3694 125.599C70.3694 125.599 70.3694 125.545 70.3694 125.438V125.064V124.69V124.529H70.5311H70.9048H71.2784H71.4401C71.4401 124.529 71.4401 124.583 71.4401 124.69V125.064V125.438V125.599C71.4401 125.599 71.3862 125.599 71.2784 125.599H70.9048H70.5311H70.3694ZM73.9384 125.599C73.9384 125.599 73.9384 125.545 73.9384 125.438V125.064V124.69V124.529H74.1001H74.4737H74.8473H75.009C75.009 124.529 75.009 124.583 75.009 124.69V125.064V125.438V125.599C75.009 125.599 74.9551 125.599 74.8473 125.599H74.4737H74.1001H73.9384ZM70.3694 124.707C70.3694 124.707 70.3694 124.653 70.3694 124.545V124.172V123.798V123.636H70.5311H70.9048H71.2784H71.4401C71.4401 123.636 71.4401 123.69 71.4401 123.798V124.172V124.545V124.707C71.4401 124.707 71.3862 124.707 71.2784 124.707H70.9048H70.5311H70.3694ZM73.9384 124.707C73.9384 124.707 73.9384 124.653 73.9384 124.545V124.172V123.798V123.636H74.1001H74.4737H74.8473H75.009C75.009 123.636 75.009 123.69 75.009 123.798V124.172V124.545V124.707C75.009 124.707 74.9551 124.707 74.8473 124.707H74.4737H74.1001H73.9384ZM71.2617 123.815C71.2617 123.815 71.2617 123.761 71.2617 123.653V123.279V122.906V122.744H71.4234H71.797H72.1706H72.3323C72.3323 122.744 72.3323 122.798 72.3323 122.906V123.279V123.653V123.815C72.3323 123.815 72.2784 123.815 72.1706 123.815H71.797H71.4234H71.2617ZM72.1539 123.815C72.1539 123.815 72.1539 123.761 72.1539 123.653V123.279V122.906V122.744H72.3156H72.6892H73.0629H73.2246C73.2246 122.744 73.2246 122.798 73.2246 122.906V123.279V123.653V123.815C73.2246 123.815 73.1707 123.815 73.0629 123.815H72.6892H72.3156H72.1539ZM73.0461 123.815C73.0461 123.815 73.0461 123.761 73.0461 123.653V123.279V122.906V122.744H73.2078H73.5815H73.9551H74.1168C74.1168 122.744 74.1168 122.798 74.1168 122.906V123.279V123.653V123.815C74.1168 123.815 74.0629 123.815 73.9551 123.815H73.5815H73.2078H73.0461ZM72.1539 129.168C72.1539 129.168 72.1539 129.114 72.1539 129.007V128.633V128.259V128.098H72.3156H72.6892H73.0629H73.2246C73.2246 128.098 73.2246 128.151 73.2246 128.259V128.633V129.007V129.168C73.2246 129.168 73.1707 129.168 73.0629 129.168H72.6892H72.3156H72.1539ZM72.1539 128.276C72.1539 128.276 72.1539 128.222 72.1539 128.114V127.741V127.367V127.205H72.3156H72.6892H73.0629H73.2246C73.2246 127.205 73.2246 127.259 73.2246 127.367V127.741V128.114V128.276C73.2246 128.276 73.1707 128.276 73.0629 128.276H72.6892H72.3156H72.1539ZM72.1539 127.384C72.1539 127.384 72.1539 127.33 72.1539 127.222V126.848V126.475V126.313H72.3156H72.6892H73.0629H73.2246C73.2246 126.313 73.2246 126.367 73.2246 126.475V126.848V127.222V127.384C73.2246 127.384 73.1707 127.384 73.0629 127.384H72.6892H72.3156H72.1539Z" fill="white"/>
<path d="M208.876 132.737C208.876 132.737 208.876 132.683 208.876 132.575V132.202V131.828V131.666H209.038H209.412H209.785H209.947C209.947 131.666 209.947 131.72 209.947 131.828V132.202V132.575V132.737C209.947 132.737 209.893 132.737 209.785 132.737H209.412H209.038H208.876ZM209.768 132.737C209.768 132.737 209.768 132.683 209.768 132.575V132.202V131.828V131.666H209.93H210.304H210.677H210.839C210.839 131.666 210.839 131.72 210.839 131.828V132.202V132.575V132.737C210.839 132.737 210.785 132.737 210.677 132.737H210.304H209.93H209.768ZM210.661 132.737C210.661 132.737 210.661 132.683 210.661 132.575V132.202V131.828V131.666H210.822H211.196H211.57H211.731C211.731 131.666 211.731 131.72 211.731 131.828V132.202V132.575V132.737C211.731 132.737 211.678 132.737 211.57 132.737H211.196H210.822H210.661ZM211.553 132.737C211.553 132.737 211.553 132.683 211.553 132.575V132.202V131.828V131.666H211.715H212.088H212.462H212.624C212.624 131.666 212.624 131.72 212.624 131.828V132.202V132.575V132.737C212.624 132.737 212.57 132.737 212.462 132.737H212.088H211.715H211.553ZM212.445 132.737C212.445 132.737 212.445 132.683 212.445 132.575V132.202V131.828V131.666H212.607H212.981H213.354H213.516C213.516 131.666 213.516 131.72 213.516 131.828V132.202V132.575V132.737C213.516 132.737 213.462 132.737 213.354 132.737H212.981H212.607H212.445ZM210.661 131.845C210.661 131.845 210.661 131.791 210.661 131.683V131.31V130.936V130.774H210.822H211.196H211.57H211.731C211.731 130.774 211.731 130.828 211.731 130.936V131.31V131.683V131.845C211.731 131.845 211.678 131.845 211.57 131.845H211.196H210.822H210.661ZM210.661 130.953C210.661 130.953 210.661 130.899 210.661 130.791V130.417V130.044V129.882H210.822H211.196H211.57H211.731C211.731 129.882 211.731 129.936 211.731 130.044V130.417V130.791V130.953C211.731 130.953 211.678 130.953 211.57 130.953H211.196H210.822H210.661ZM210.661 130.06C210.661 130.06 210.661 130.007 210.661 129.899V129.525V129.151V128.99H210.822H211.196H211.57H211.731C211.731 128.99 211.731 129.044 211.731 129.151V129.525V129.899V130.06C211.731 130.06 211.678 130.06 211.57 130.06H211.196H210.822H210.661ZM210.661 129.168C210.661 129.168 210.661 129.114 210.661 129.007V128.633V128.259V128.098H210.822H211.196H211.57H211.731C211.731 128.098 211.731 128.151 211.731 128.259V128.633V129.007V129.168C211.731 129.168 211.678 129.168 211.57 129.168H211.196H210.822H210.661ZM210.661 128.276C210.661 128.276 210.661 128.222 210.661 128.114V127.741V127.367V127.205H210.822H211.196H211.57H211.731C211.731 127.205 211.731 127.259 211.731 127.367V127.741V128.114V128.276C211.731 128.276 211.678 128.276 211.57 128.276H211.196H210.822H210.661ZM210.661 127.384C210.661 127.384 210.661 127.33 210.661 127.222V126.848V126.475V126.313H210.822H211.196H211.57H211.731C211.731 126.313 211.731 126.367 211.731 126.475V126.848V127.222V127.384C211.731 127.384 211.678 127.384 211.57 127.384H211.196H210.822H210.661ZM210.661 126.492C210.661 126.492 210.661 126.438 210.661 126.33V125.956V125.583V125.421H210.822H211.196H211.57H211.731C211.731 125.421 211.731 125.475 211.731 125.583V125.956V126.33V126.492C211.731 126.492 211.678 126.492 211.57 126.492H211.196H210.822H210.661ZM210.661 125.599C210.661 125.599 210.661 125.545 210.661 125.438V125.064V124.69V124.529H210.822H211.196H211.57H211.731C211.731 124.529 211.731 124.583 211.731 124.69V125.064V125.438V125.599C211.731 125.599 211.678 125.599 211.57 125.599H211.196H210.822H210.661ZM208.876 124.707C208.876 124.707 208.876 124.653 208.876 124.545V124.172V123.798V123.636H209.038H209.412H209.785H209.947C209.947 123.636 209.947 123.69 209.947 123.798V124.172V124.545V124.707C209.947 124.707 209.893 124.707 209.785 124.707H209.412H209.038H208.876ZM210.661 124.707C210.661 124.707 210.661 124.653 210.661 124.545V124.172V123.798V123.636H210.822H211.196H211.57H211.731C211.731 123.636 211.731 123.69 211.731 123.798V124.172V124.545V124.707C211.731 124.707 211.678 124.707 211.57 124.707H211.196H210.822H210.661ZM209.768 124.261C209.768 124.261 209.768 124.207 209.768 124.099V123.726V123.352V123.19H209.93H210.304H210.677H210.839C210.839 123.19 210.839 123.244 210.839 123.352V123.726V124.099V124.261C210.839 124.261 210.785 124.261 210.677 124.261H210.304H209.93H209.768ZM210.661 123.815C210.661 123.815 210.661 123.761 210.661 123.653V123.279V122.906V122.744H210.822H211.196H211.57H211.731C211.731 122.744 211.731 122.798 211.731 122.906V123.279V123.653V123.815C211.731 123.815 211.678 123.815 211.57 123.815H211.196H210.822H210.661ZM216.019 132.737C216.019 132.737 216.019 132.683 216.019 132.575V132.202V131.828V131.666H216.181H216.555H216.928H217.09C217.09 131.666 217.09 131.72 217.09 131.828V132.202V132.575V132.737C217.09 132.737 217.036 132.737 216.928 132.737H216.555H216.181H216.019ZM216.912 132.737C216.912 132.737 216.912 132.683 216.912 132.575V132.202V131.828V131.666H217.073H217.447H217.821H217.982C217.982 131.666 217.982 131.72 217.982 131.828V132.202V132.575V132.737C217.982 132.737 217.928 132.737 217.821 132.737H217.447H217.073H216.912ZM217.804 132.737C217.804 132.737 217.804 132.683 217.804 132.575V132.202V131.828V131.666H217.966H218.339H218.713H218.875C218.875 131.666 218.875 131.72 218.875 131.828V132.202V132.575V132.737C218.875 132.737 218.821 132.737 218.713 132.737H218.339H217.966H217.804ZM215.127 131.845C215.127 131.845 215.127 131.791 215.127 131.683V131.31V130.936V130.774H215.289H215.662H216.036H216.198C216.198 130.774 216.198 130.828 216.198 130.936V131.31V131.683V131.845C216.198 131.845 216.144 131.845 216.036 131.845H215.662H215.289H215.127ZM218.696 131.845C218.696 131.845 218.696 131.791 218.696 131.683V131.31V130.936V130.774H218.858H219.231H219.605H219.767C219.767 130.774 219.767 130.828 219.767 130.936V131.31V131.683V131.845C219.767 131.845 219.713 131.845 219.605 131.845H219.231H218.858H218.696ZM215.127 130.953C215.127 130.953 215.127 130.899 215.127 130.791V130.417V130.044V129.882H215.289H215.662H216.036H216.198C216.198 129.882 216.198 129.936 216.198 130.044V130.417V130.791V130.953C216.198 130.953 216.144 130.953 216.036 130.953H215.662H215.289H215.127ZM218.696 130.953C218.696 130.953 218.696 130.899 218.696 130.791V130.417V130.044V129.882H218.858H219.231H219.605H219.767C219.767 129.882 219.767 129.936 219.767 130.044V130.417V130.791V130.953C219.767 130.953 219.713 130.953 219.605 130.953H219.231H218.858H218.696ZM215.127 130.06C215.127 130.06 215.127 130.007 215.127 129.899V129.525V129.151V128.99H215.289H215.662H216.036H216.198C216.198 128.99 216.198 129.044 216.198 129.151V129.525V129.899V130.06C216.198 130.06 216.144 130.06 216.036 130.06H215.662H215.289H215.127ZM218.696 130.06C218.696 130.06 218.696 130.007 218.696 129.899V129.525V129.151V128.99H218.858H219.231H219.605H219.767C219.767 128.99 219.767 129.044 219.767 129.151V129.525V129.899V130.06C219.767 130.06 219.713 130.06 219.605 130.06H219.231H218.858H218.696ZM215.127 129.168C215.127 129.168 215.127 129.114 215.127 129.007V128.633V128.259V128.098H215.289H215.662H216.036H216.198C216.198 128.098 216.198 128.151 216.198 128.259V128.633V129.007V129.168C216.198 129.168 216.144 129.168 216.036 129.168H215.662H215.289H215.127ZM218.696 129.168C218.696 129.168 218.696 129.114 218.696 129.007V128.633V128.259V128.098H218.858H219.231H219.605H219.767C219.767 128.098 219.767 128.151 219.767 128.259V128.633V129.007V129.168C219.767 129.168 219.713 129.168 219.605 129.168H219.231H218.858H218.696ZM215.127 128.276C215.127 128.276 215.127 128.222 215.127 128.114V127.741V127.367V127.205H215.289H215.662H216.036H216.198C216.198 127.205 216.198 127.259 216.198 127.367V127.741V128.114V128.276C216.198 128.276 216.144 128.276 216.036 128.276H215.662H215.289H215.127ZM218.696 128.276C218.696 128.276 218.696 128.222 218.696 128.114V127.741V127.367V127.205H218.858H219.231H219.605H219.767C219.767 127.205 219.767 127.259 219.767 127.367V127.741V128.114V128.276C219.767 128.276 219.713 128.276 219.605 128.276H219.231H218.858H218.696ZM215.127 127.384C215.127 127.384 215.127 127.33 215.127 127.222V126.848V126.475V126.313H215.289H215.662H216.036H216.198C216.198 126.313 216.198 126.367 216.198 126.475V126.848V127.222V127.384C216.198 127.384 216.144 127.384 216.036 127.384H215.662H215.289H215.127ZM218.696 127.384C218.696 127.384 218.696 127.33 218.696 127.222V126.848V126.475V126.313H218.858H219.231H219.605H219.767C219.767 126.313 219.767 126.367 219.767 126.475V126.848V127.222V127.384C219.767 127.384 219.713 127.384 219.605 127.384H219.231H218.858H218.696ZM215.127 126.492C215.127 126.492 215.127 126.438 215.127 126.33V125.956V125.583V125.421H215.289H215.662H216.036H216.198C216.198 125.421 216.198 125.475 216.198 125.583V125.956V126.33V126.492C216.198 126.492 216.144 126.492 216.036 126.492H215.662H215.289H215.127ZM218.696 126.492C218.696 126.492 218.696 126.438 218.696 126.33V125.956V125.583V125.421H218.858H219.231H219.605H219.767C219.767 125.421 219.767 125.475 219.767 125.583V125.956V126.33V126.492C219.767 126.492 219.713 126.492 219.605 126.492H219.231H218.858H218.696ZM215.127 125.599C215.127 125.599 215.127 125.545 215.127 125.438V125.064V124.69V124.529H215.289H215.662H216.036H216.198C216.198 124.529 216.198 124.583 216.198 124.69V125.064V125.438V125.599C216.198 125.599 216.144 125.599 216.036 125.599H215.662H215.289H215.127ZM218.696 125.599C218.696 125.599 218.696 125.545 218.696 125.438V125.064V124.69V124.529H218.858H219.231H219.605H219.767C219.767 124.529 219.767 124.583 219.767 124.69V125.064V125.438V125.599C219.767 125.599 219.713 125.599 219.605 125.599H219.231H218.858H218.696ZM215.127 124.707C215.127 124.707 215.127 124.653 215.127 124.545V124.172V123.798V123.636H215.289H215.662H216.036H216.198C216.198 123.636 216.198 123.69 216.198 123.798V124.172V124.545V124.707C216.198 124.707 216.144 124.707 216.036 124.707H215.662H215.289H215.127ZM218.696 124.707C218.696 124.707 218.696 124.653 218.696 124.545V124.172V123.798V123.636H218.858H219.231H219.605H219.767C219.767 123.636 219.767 123.69 219.767 123.798V124.172V124.545V124.707C219.767 124.707 219.713 124.707 219.605 124.707H219.231H218.858H218.696ZM216.019 123.815C216.019 123.815 216.019 123.761 216.019 123.653V123.279V122.906V122.744H216.181H216.555H216.928H217.09C217.09 122.744 217.09 122.798 217.09 122.906V123.279V123.653V123.815C217.09 123.815 217.036 123.815 216.928 123.815H216.555H216.181H216.019ZM216.912 123.815C216.912 123.815 216.912 123.761 216.912 123.653V123.279V122.906V122.744H217.073H217.447H217.821H217.982C217.982 122.744 217.982 122.798 217.982 122.906V123.279V123.653V123.815C217.982 123.815 217.928 123.815 217.821 123.815H217.447H217.073H216.912ZM217.804 123.815C217.804 123.815 217.804 123.761 217.804 123.653V123.279V122.906V122.744H217.966H218.339H218.713H218.875C218.875 122.744 218.875 122.798 218.875 122.906V123.279V123.653V123.815C218.875 123.815 218.821 123.815 218.713 123.815H218.339H217.966H217.804ZM216.912 129.168C216.912 129.168 216.912 129.114 216.912 129.007V128.633V128.259V128.098H217.073H217.447H217.821H217.982C217.982 128.098 217.982 128.151 217.982 128.259V128.633V129.007V129.168C217.982 129.168 217.928 129.168 217.821 129.168H217.447H217.073H216.912ZM216.912 128.276C216.912 128.276 216.912 128.222 216.912 128.114V127.741V127.367V127.205H217.073H217.447H217.821H217.982C217.982 127.205 217.982 127.259 217.982 127.367V127.741V128.114V128.276C217.982 128.276 217.928 128.276 217.821 128.276H217.447H217.073H216.912ZM216.912 127.384C216.912 127.384 216.912 127.33 216.912 127.222V126.848V126.475V126.313H217.073H217.447H217.821H217.982C217.982 126.313 217.982 126.367 217.982 126.475V126.848V127.222V127.384C217.982 127.384 217.928 127.384 217.821 127.384H217.447H217.073H216.912Z" fill="white"/>
<path d="M77.5306 114.649C77.5306 114.649 77.5306 114.595 77.5306 114.488V114.114V113.74V113.579H77.6923H78.0659H78.4395H78.6012C78.6012 113.579 78.6012 113.633 78.6012 113.74V114.114V114.488V114.649C78.6012 114.649 78.5473 114.649 78.4395 114.649H78.0659H77.6923H77.5306ZM78.4228 114.649C78.4228 114.649 78.4228 114.595 78.4228 114.488V114.114V113.74V113.579H78.5845H78.9581H79.3318H79.4935C79.4935 113.579 79.4935 113.633 79.4935 113.74V114.114V114.488V114.649C79.4935 114.649 79.4396 114.649 79.3318 114.649H78.9581H78.5845H78.4228ZM79.315 114.649C79.315 114.649 79.315 114.595 79.315 114.488V114.114V113.74V113.579H79.4767H79.8504H80.224H80.3857C80.3857 113.579 80.3857 113.633 80.3857 113.74V114.114V114.488V114.649C80.3857 114.649 80.3318 114.649 80.224 114.649H79.8504H79.4767H79.315ZM80.2073 114.649C80.2073 114.649 80.2073 114.595 80.2073 114.488V114.114V113.74V113.579H80.369H80.7426H81.1162H81.2779C81.2779 113.579 81.2779 113.633 81.2779 113.74V114.114V114.488V114.649C81.2779 114.649 81.224 114.649 81.1162 114.649H80.7426H80.369H80.2073ZM81.0995 114.649C81.0995 114.649 81.0995 114.595 81.0995 114.488V114.114V113.74V113.579H81.2612H81.6348H82.0085H82.1702C82.1702 113.579 82.1702 113.633 82.1702 113.74V114.114V114.488V114.649C82.1702 114.649 82.1163 114.649 82.0085 114.649H81.6348H81.2612H81.0995ZM79.315 113.757C79.315 113.757 79.315 113.703 79.315 113.595V113.222V112.848V112.686H79.4767H79.8504H80.224H80.3857C80.3857 112.686 80.3857 112.74 80.3857 112.848V113.222V113.595V113.757C80.3857 113.757 80.3318 113.757 80.224 113.757H79.8504H79.4767H79.315ZM79.315 112.865C79.315 112.865 79.315 112.811 79.315 112.703V112.329V111.956V111.794H79.4767H79.8504H80.224H80.3857C80.3857 111.794 80.3857 111.848 80.3857 111.956V112.329V112.703V112.865C80.3857 112.865 80.3318 112.865 80.224 112.865H79.8504H79.4767H79.315ZM79.315 111.973C79.315 111.973 79.315 111.919 79.315 111.811V111.437V111.064V110.902H79.4767H79.8504H80.224H80.3857C80.3857 110.902 80.3857 110.956 80.3857 111.064V111.437V111.811V111.973C80.3857 111.973 80.3318 111.973 80.224 111.973H79.8504H79.4767H79.315ZM79.315 111.08C79.315 111.08 79.315 111.026 79.315 110.919V110.545V110.171V110.01H79.4767H79.8504H80.224H80.3857C80.3857 110.01 80.3857 110.064 80.3857 110.171V110.545V110.919V111.08C80.3857 111.08 80.3318 111.08 80.224 111.08H79.8504H79.4767H79.315ZM79.315 110.188C79.315 110.188 79.315 110.134 79.315 110.026V109.653V109.279V109.117H79.4767H79.8504H80.224H80.3857C80.3857 109.117 80.3857 109.171 80.3857 109.279V109.653V110.026V110.188C80.3857 110.188 80.3318 110.188 80.224 110.188H79.8504H79.4767H79.315ZM79.315 109.296C79.315 109.296 79.315 109.242 79.315 109.134V108.761V108.387V108.225H79.4767H79.8504H80.224H80.3857C80.3857 108.225 80.3857 108.279 80.3857 108.387V108.761V109.134V109.296C80.3857 109.296 80.3318 109.296 80.224 109.296H79.8504H79.4767H79.315ZM79.315 108.404C79.315 108.404 79.315 108.35 79.315 108.242V107.868V107.495V107.333H79.4767H79.8504H80.224H80.3857C80.3857 107.333 80.3857 107.387 80.3857 107.495V107.868V108.242V108.404C80.3857 108.404 80.3318 108.404 80.224 108.404H79.8504H79.4767H79.315ZM79.315 107.511C79.315 107.511 79.315 107.457 79.315 107.35V106.976V106.602V106.441H79.4767H79.8504H80.224H80.3857C80.3857 106.441 80.3857 106.495 80.3857 106.602V106.976V107.35V107.511C80.3857 107.511 80.3318 107.511 80.224 107.511H79.8504H79.4767H79.315ZM77.5306 106.619C77.5306 106.619 77.5306 106.565 77.5306 106.457V106.084V105.71V105.548H77.6923H78.0659H78.4395H78.6012C78.6012 105.548 78.6012 105.602 78.6012 105.71V106.084V106.457V106.619C78.6012 106.619 78.5473 106.619 78.4395 106.619H78.0659H77.6923H77.5306ZM79.315 106.619C79.315 106.619 79.315 106.565 79.315 106.457V106.084V105.71V105.548H79.4767H79.8504H80.224H80.3857C80.3857 105.548 80.3857 105.602 80.3857 105.71V106.084V106.457V106.619C80.3857 106.619 80.3318 106.619 80.224 106.619H79.8504H79.4767H79.315ZM78.4228 106.173C78.4228 106.173 78.4228 106.119 78.4228 106.011V105.638V105.264V105.102H78.5845H78.9581H79.3318H79.4935C79.4935 105.102 79.4935 105.156 79.4935 105.264V105.638V106.011V106.173C79.4935 106.173 79.4396 106.173 79.3318 106.173H78.9581H78.5845H78.4228ZM79.315 105.727C79.315 105.727 79.315 105.673 79.315 105.565V105.192V104.818V104.656H79.4767H79.8504H80.224H80.3857C80.3857 104.656 80.3857 104.71 80.3857 104.818V105.192V105.565V105.727C80.3857 105.727 80.3318 105.727 80.224 105.727H79.8504H79.4767H79.315Z" fill="white"/>
<path d="M210.69 113.769C210.69 113.769 210.69 113.715 210.69 113.607V113.234V112.86V112.698H210.852H211.225H211.599H211.761C211.761 112.698 211.761 112.752 211.761 112.86V113.234V113.607V113.769C211.761 113.769 211.707 113.769 211.599 113.769H211.225H210.852H210.69ZM211.582 113.769C211.582 113.769 211.582 113.715 211.582 113.607V113.234V112.86V112.698H211.744H212.117H212.491H212.653C212.653 112.698 212.653 112.752 212.653 112.86V113.234V113.607V113.769C212.653 113.769 212.599 113.769 212.491 113.769H212.117H211.744H211.582ZM212.474 113.769C212.474 113.769 212.474 113.715 212.474 113.607V113.234V112.86V112.698H212.636H213.01H213.383H213.545C213.545 112.698 213.545 112.752 213.545 112.86V113.234V113.607V113.769C213.545 113.769 213.491 113.769 213.383 113.769H213.01H212.636H212.474ZM209.798 112.877C209.798 112.877 209.798 112.823 209.798 112.715V112.341V111.968V111.806H209.959H210.333H210.707H210.868C210.868 111.806 210.868 111.86 210.868 111.968V112.341V112.715V112.877C210.868 112.877 210.814 112.877 210.707 112.877H210.333H209.959H209.798ZM213.367 112.877C213.367 112.877 213.367 112.823 213.367 112.715V112.341V111.968V111.806H213.528H213.902H214.276H214.437C214.437 111.806 214.437 111.86 214.437 111.968V112.341V112.715V112.877C214.437 112.877 214.383 112.877 214.276 112.877H213.902H213.528H213.367ZM209.798 111.984C209.798 111.984 209.798 111.931 209.798 111.823V111.449V111.075V110.914H209.959H210.333H210.707H210.868C210.868 110.914 210.868 110.968 210.868 111.075V111.449V111.823V111.984C210.868 111.984 210.814 111.984 210.707 111.984H210.333H209.959H209.798ZM213.367 111.984C213.367 111.984 213.367 111.931 213.367 111.823V111.449V111.075V110.914H213.528H213.902H214.276H214.437C214.437 110.914 214.437 110.968 214.437 111.075V111.449V111.823V111.984C214.437 111.984 214.383 111.984 214.276 111.984H213.902H213.528H213.367ZM213.367 111.092C213.367 111.092 213.367 111.038 213.367 110.93V110.557V110.183V110.022H213.528H213.902H214.276H214.437C214.437 110.022 214.437 110.075 214.437 110.183V110.557V110.93V111.092C214.437 111.092 214.383 111.092 214.276 111.092H213.902H213.528H213.367ZM213.367 110.2C213.367 110.2 213.367 110.146 213.367 110.038V109.665V109.291V109.129H213.528H213.902H214.276H214.437C214.437 109.129 214.437 109.183 214.437 109.291V109.665V110.038V110.2C214.437 110.2 214.383 110.2 214.276 110.2H213.902H213.528H213.367ZM210.69 109.308C210.69 109.308 210.69 109.254 210.69 109.146V108.772V108.399V108.237H210.852H211.225H211.599H211.761C211.761 108.237 211.761 108.291 211.761 108.399V108.772V109.146V109.308C211.761 109.308 211.707 109.308 211.599 109.308H211.225H210.852H210.69ZM211.582 109.308C211.582 109.308 211.582 109.254 211.582 109.146V108.772V108.399V108.237H211.744H212.117H212.491H212.653C212.653 108.237 212.653 108.291 212.653 108.399V108.772V109.146V109.308C212.653 109.308 212.599 109.308 212.491 109.308H212.117H211.744H211.582ZM212.474 109.308C212.474 109.308 212.474 109.254 212.474 109.146V108.772V108.399V108.237H212.636H213.01H213.383H213.545C213.545 108.237 213.545 108.291 213.545 108.399V108.772V109.146V109.308C213.545 109.308 213.491 109.308 213.383 109.308H213.01H212.636H212.474ZM213.367 109.308C213.367 109.308 213.367 109.254 213.367 109.146V108.772V108.399V108.237H213.528H213.902H214.276H214.437C214.437 108.237 214.437 108.291 214.437 108.399V108.772V109.146V109.308C214.437 109.308 214.383 109.308 214.276 109.308H213.902H213.528H213.367ZM209.798 108.415C209.798 108.415 209.798 108.362 209.798 108.254V107.88V107.507V107.345H209.959H210.333H210.707H210.868C210.868 107.345 210.868 107.399 210.868 107.507V107.88V108.254V108.415C210.868 108.415 210.814 108.415 210.707 108.415H210.333H209.959H209.798ZM213.367 108.415C213.367 108.415 213.367 108.362 213.367 108.254V107.88V107.507V107.345H213.528H213.902H214.276H214.437C214.437 107.345 214.437 107.399 214.437 107.507V107.88V108.254V108.415C214.437 108.415 214.383 108.415 214.276 108.415H213.902H213.528H213.367ZM209.798 107.523C209.798 107.523 209.798 107.469 209.798 107.362V106.988V106.614V106.453H209.959H210.333H210.707H210.868C210.868 106.453 210.868 106.506 210.868 106.614V106.988V107.362V107.523C210.868 107.523 210.814 107.523 210.707 107.523H210.333H209.959H209.798ZM213.367 107.523C213.367 107.523 213.367 107.469 213.367 107.362V106.988V106.614V106.453H213.528H213.902H214.276H214.437C214.437 106.453 214.437 106.506 214.437 106.614V106.988V107.362V107.523C214.437 107.523 214.383 107.523 214.276 107.523H213.902H213.528H213.367ZM209.798 106.631C209.798 106.631 209.798 106.577 209.798 106.469V106.096V105.722V105.56H209.959H210.333H210.707H210.868C210.868 105.56 210.868 105.614 210.868 105.722V106.096V106.469V106.631C210.868 106.631 210.814 106.631 210.707 106.631H210.333H209.959H209.798ZM213.367 106.631C213.367 106.631 213.367 106.577 213.367 106.469V106.096V105.722V105.56H213.528H213.902H214.276H214.437C214.437 105.56 214.437 105.614 214.437 105.722V106.096V106.469V106.631C214.437 106.631 214.383 106.631 214.276 106.631H213.902H213.528H213.367ZM209.798 105.739C209.798 105.739 209.798 105.685 209.798 105.577V105.203V104.83V104.668H209.959H210.333H210.707H210.868C210.868 104.668 210.868 104.722 210.868 104.83V105.203V105.577V105.739C210.868 105.739 210.814 105.739 210.707 105.739H210.333H209.959H209.798ZM213.367 105.739C213.367 105.739 213.367 105.685 213.367 105.577V105.203V104.83V104.668H213.528H213.902H214.276H214.437C214.437 104.668 214.437 104.722 214.437 104.83V105.203V105.577V105.739C214.437 105.739 214.383 105.739 214.276 105.739H213.902H213.528H213.367ZM210.69 104.847C210.69 104.847 210.69 104.793 210.69 104.685V104.311V103.938V103.776H210.852H211.225H211.599H211.761C211.761 103.776 211.761 103.83 211.761 103.938V104.311V104.685V104.847C211.761 104.847 211.707 104.847 211.599 104.847H211.225H210.852H210.69ZM211.582 104.847C211.582 104.847 211.582 104.793 211.582 104.685V104.311V103.938V103.776H211.744H212.117H212.491H212.653C212.653 103.776 212.653 103.83 212.653 103.938V104.311V104.685V104.847C212.653 104.847 212.599 104.847 212.491 104.847H212.117H211.744H211.582ZM212.474 104.847C212.474 104.847 212.474 104.793 212.474 104.685V104.311V103.938V103.776H212.636H213.01H213.383H213.545C213.545 103.776 213.545 103.83 213.545 103.938V104.311V104.685V104.847C213.545 104.847 213.491 104.847 213.383 104.847H213.01H212.636H212.474Z" fill="white"/>
<path d="M89.2093 99.7762C89.2093 99.7762 89.2093 99.7223 89.2093 99.6145V99.2409V98.8673V98.7056H89.371H89.7446H90.1182H90.2799C90.2799 98.7056 90.2799 98.7595 90.2799 98.8673V99.2409V99.6145V99.7762C90.2799 99.7762 90.226 99.7762 90.1182 99.7762H89.7446H89.371H89.2093ZM90.1015 99.7762C90.1015 99.7762 90.1015 99.7223 90.1015 99.6145V99.2409V98.8673V98.7056H90.2632H90.6368H91.0105H91.1722C91.1722 98.7056 91.1722 98.7595 91.1722 98.8673V99.2409V99.6145V99.7762C91.1722 99.7762 91.1183 99.7762 91.0105 99.7762H90.6368H90.2632H90.1015ZM90.9937 99.7762C90.9937 99.7762 90.9937 99.7223 90.9937 99.6145V99.2409V98.8673V98.7056H91.1555H91.5291H91.9027H92.0644C92.0644 98.7056 92.0644 98.7595 92.0644 98.8673V99.2409V99.6145V99.7762C92.0644 99.7762 92.0105 99.7762 91.9027 99.7762H91.5291H91.1555H90.9937ZM91.886 99.7762C91.886 99.7762 91.886 99.7223 91.886 99.6145V99.2409V98.8673V98.7056H92.0477H92.4213H92.7949H92.9567C92.9567 98.7056 92.9567 98.7595 92.9567 98.8673V99.2409V99.6145V99.7762C92.9567 99.7762 92.9027 99.7762 92.7949 99.7762H92.4213H92.0477H91.886ZM92.7782 99.7762C92.7782 99.7762 92.7782 99.7223 92.7782 99.6145V99.2409V98.8673V98.7056H92.9399H93.3136H93.6872H93.8489C93.8489 98.7056 93.8489 98.7595 93.8489 98.8673V99.2409V99.6145V99.7762C93.8489 99.7762 93.795 99.7762 93.6872 99.7762H93.3136H92.9399H92.7782ZM90.1015 98.884C90.1015 98.884 90.1015 98.8301 90.1015 98.7223V98.3487V97.975V97.8133H90.2632H90.6368H91.0105H91.1722C91.1722 97.8133 91.1722 97.8672 91.1722 97.975V98.3487V98.7223V98.884C91.1722 98.884 91.1183 98.884 91.0105 98.884H90.6368H90.2632H90.1015ZM90.5476 97.9918C90.5476 97.9918 90.5476 97.9379 90.5476 97.83V97.4564V97.0828V96.9211H90.7093H91.083H91.4566H91.6183C91.6183 96.9211 91.6183 96.975 91.6183 97.0828V97.4564V97.83V97.9918C91.6183 97.9918 91.5644 97.9918 91.4566 97.9918H91.083H90.7093H90.5476ZM90.9937 97.0995C90.9937 97.0995 90.9937 97.0456 90.9937 96.9378V96.5642V96.1906V96.0288H91.1555H91.5291H91.9027H92.0644C92.0644 96.0288 92.0644 96.0827 92.0644 96.1906V96.5642V96.9378V97.0995C92.0644 97.0995 92.0105 97.0995 91.9027 97.0995H91.5291H91.1555H90.9937ZM91.4399 96.2073C91.4399 96.2073 91.4399 96.1534 91.4399 96.0456V95.6719V95.2983V95.1366H91.6016H91.9752H92.3488H92.5105C92.5105 95.1366 92.5105 95.1905 92.5105 95.2983V95.6719V96.0456V96.2073C92.5105 96.2073 92.4566 96.2073 92.3488 96.2073H91.9752H91.6016H91.4399ZM91.886 95.3151C91.886 95.3151 91.886 95.2611 91.886 95.1533V94.7797V94.4061V94.2444H92.0477H92.4213H92.7949H92.9567C92.9567 94.2444 92.9567 94.2983 92.9567 94.4061V94.7797V95.1533V95.3151C92.9567 95.3151 92.9027 95.3151 92.7949 95.3151H92.4213H92.0477H91.886ZM92.3321 94.4228C92.3321 94.4228 92.3321 94.3689 92.3321 94.2611V93.8875V93.5139V93.3521H92.4938H92.8674H93.2411H93.4028C93.4028 93.3521 93.4028 93.406 93.4028 93.5139V93.8875V94.2611V94.4228C93.4028 94.4228 93.3489 94.4228 93.2411 94.4228H92.8674H92.4938H92.3321ZM89.2093 93.5306C89.2093 93.5306 89.2093 93.4767 89.2093 93.3689V92.9952V92.6216V92.4599H89.371H89.7446H90.1182H90.2799C90.2799 92.4599 90.2799 92.5138 90.2799 92.6216V92.9952V93.3689V93.5306C90.2799 93.5306 90.226 93.5306 90.1182 93.5306H89.7446H89.371H89.2093ZM92.7782 93.5306C92.7782 93.5306 92.7782 93.4767 92.7782 93.3689V92.9952V92.6216V92.4599H92.9399H93.3136H93.6872H93.8489C93.8489 92.4599 93.8489 92.5138 93.8489 92.6216V92.9952V93.3689V93.5306C93.8489 93.5306 93.795 93.5306 93.6872 93.5306H93.3136H92.9399H92.7782ZM89.2093 92.6383C89.2093 92.6383 89.2093 92.5844 89.2093 92.4766V92.103V91.7294V91.5677H89.371H89.7446H90.1182H90.2799C90.2799 91.5677 90.2799 91.6216 90.2799 91.7294V92.103V92.4766V92.6383C90.2799 92.6383 90.226 92.6383 90.1182 92.6383H89.7446H89.371H89.2093ZM92.7782 92.6383C92.7782 92.6383 92.7782 92.5844 92.7782 92.4766V92.103V91.7294V91.5677H92.9399H93.3136H93.6872H93.8489C93.8489 91.5677 93.8489 91.6216 93.8489 91.7294V92.103V92.4766V92.6383C93.8489 92.6383 93.795 92.6383 93.6872 92.6383H93.3136H92.9399H92.7782ZM89.2093 91.7461C89.2093 91.7461 89.2093 91.6922 89.2093 91.5844V91.2108V90.8371V90.6754H89.371H89.7446H90.1182H90.2799C90.2799 90.6754 90.2799 90.7293 90.2799 90.8371V91.2108V91.5844V91.7461C90.2799 91.7461 90.226 91.7461 90.1182 91.7461H89.7446H89.371H89.2093ZM92.7782 91.7461C92.7782 91.7461 92.7782 91.6922 92.7782 91.5844V91.2108V90.8371V90.6754H92.9399H93.3136H93.6872H93.8489C93.8489 90.6754 93.8489 90.7293 93.8489 90.8371V91.2108V91.5844V91.7461C93.8489 91.7461 93.795 91.7461 93.6872 91.7461H93.3136H92.9399H92.7782ZM90.1015 90.8539C90.1015 90.8539 90.1015 90.8 90.1015 90.6922V90.3185V89.9449V89.7832H90.2632H90.6368H91.0105H91.1722C91.1722 89.7832 91.1722 89.8371 91.1722 89.9449V90.3185V90.6922V90.8539C91.1722 90.8539 91.1183 90.8539 91.0105 90.8539H90.6368H90.2632H90.1015ZM90.9937 90.8539C90.9937 90.8539 90.9937 90.8 90.9937 90.6922V90.3185V89.9449V89.7832H91.1555H91.5291H91.9027H92.0644C92.0644 89.7832 92.0644 89.8371 92.0644 89.9449V90.3185V90.6922V90.8539C92.0644 90.8539 92.0105 90.8539 91.9027 90.8539H91.5291H91.1555H90.9937ZM91.886 90.8539C91.886 90.8539 91.886 90.8 91.886 90.6922V90.3185V89.9449V89.7832H92.0477H92.4213H92.7949H92.9567C92.9567 89.7832 92.9567 89.8371 92.9567 89.9449V90.3185V90.6922V90.8539C92.9567 90.8539 92.9027 90.8539 92.7949 90.8539H92.4213H92.0477H91.886Z" fill="white"/>
<path d="M198.957 99.7762C198.957 99.7762 198.957 99.7223 198.957 99.6145V99.2409V98.8673V98.7056H199.119H199.493H199.866H200.028C200.028 98.7056 200.028 98.7595 200.028 98.8673V99.2409V99.6145V99.7762C200.028 99.7762 199.974 99.7762 199.866 99.7762H199.493H199.119H198.957ZM199.85 99.7762C199.85 99.7762 199.85 99.7223 199.85 99.6145V99.2409V98.8673V98.7056H200.011H200.385H200.759H200.92C200.92 98.7056 200.92 98.7595 200.92 98.8673V99.2409V99.6145V99.7762C200.92 99.7762 200.866 99.7762 200.759 99.7762H200.385H200.011H199.85ZM200.742 99.7762C200.742 99.7762 200.742 99.7223 200.742 99.6145V99.2409V98.8673V98.7056H200.904H201.277H201.651H201.813C201.813 98.7056 201.813 98.7595 201.813 98.8673V99.2409V99.6145V99.7762C201.813 99.7762 201.759 99.7762 201.651 99.7762H201.277H200.904H200.742ZM198.065 98.884C198.065 98.884 198.065 98.8301 198.065 98.7223V98.3487V97.975V97.8133H198.227H198.601H198.974H199.136C199.136 97.8133 199.136 97.8672 199.136 97.975V98.3487V98.7223V98.884C199.136 98.884 199.082 98.884 198.974 98.884H198.601H198.227H198.065ZM201.634 98.884C201.634 98.884 201.634 98.8301 201.634 98.7223V98.3487V97.975V97.8133H201.796H202.17H202.543H202.705C202.705 97.8133 202.705 97.8672 202.705 97.975V98.3487V98.7223V98.884C202.705 98.884 202.651 98.884 202.543 98.884H202.17H201.796H201.634ZM198.065 97.9918C198.065 97.9918 198.065 97.9379 198.065 97.83V97.4564V97.0828V96.9211H198.227H198.601H198.974H199.136C199.136 96.9211 199.136 96.975 199.136 97.0828V97.4564V97.83V97.9918C199.136 97.9918 199.082 97.9918 198.974 97.9918H198.601H198.227H198.065ZM201.634 97.9918C201.634 97.9918 201.634 97.9379 201.634 97.83V97.4564V97.0828V96.9211H201.796H202.17H202.543H202.705C202.705 96.9211 202.705 96.975 202.705 97.0828V97.4564V97.83V97.9918C202.705 97.9918 202.651 97.9918 202.543 97.9918H202.17H201.796H201.634ZM198.065 97.0995C198.065 97.0995 198.065 97.0456 198.065 96.9378V96.5642V96.1906V96.0288H198.227H198.601H198.974H199.136C199.136 96.0288 199.136 96.0827 199.136 96.1906V96.5642V96.9378V97.0995C199.136 97.0995 199.082 97.0995 198.974 97.0995H198.601H198.227H198.065ZM201.634 97.0995C201.634 97.0995 201.634 97.0456 201.634 96.9378V96.5642V96.1906V96.0288H201.796H202.17H202.543H202.705C202.705 96.0288 202.705 96.0827 202.705 96.1906V96.5642V96.9378V97.0995C202.705 97.0995 202.651 97.0995 202.543 97.0995H202.17H201.796H201.634ZM198.065 96.2073C198.065 96.2073 198.065 96.1534 198.065 96.0456V95.6719V95.2983V95.1366H198.227H198.601H198.974H199.136C199.136 95.1366 199.136 95.1905 199.136 95.2983V95.6719V96.0456V96.2073C199.136 96.2073 199.082 96.2073 198.974 96.2073H198.601H198.227H198.065ZM201.634 96.2073C201.634 96.2073 201.634 96.1534 201.634 96.0456V95.6719V95.2983V95.1366H201.796H202.17H202.543H202.705C202.705 95.1366 202.705 95.1905 202.705 95.2983V95.6719V96.0456V96.2073C202.705 96.2073 202.651 96.2073 202.543 96.2073H202.17H201.796H201.634ZM198.957 95.3151C198.957 95.3151 198.957 95.2611 198.957 95.1533V94.7797V94.4061V94.2444H199.119H199.493H199.866H200.028C200.028 94.2444 200.028 94.2983 200.028 94.4061V94.7797V95.1533V95.3151C200.028 95.3151 199.974 95.3151 199.866 95.3151H199.493H199.119H198.957ZM199.85 95.3151C199.85 95.3151 199.85 95.2611 199.85 95.1533V94.7797V94.4061V94.2444H200.011H200.385H200.759H200.92C200.92 94.2444 200.92 94.2983 200.92 94.4061V94.7797V95.1533V95.3151C200.92 95.3151 200.866 95.3151 200.759 95.3151H200.385H200.011H199.85ZM200.742 95.3151C200.742 95.3151 200.742 95.2611 200.742 95.1533V94.7797V94.4061V94.2444H200.904H201.277H201.651H201.813C201.813 94.2444 201.813 94.2983 201.813 94.4061V94.7797V95.1533V95.3151C201.813 95.3151 201.759 95.3151 201.651 95.3151H201.277H200.904H200.742ZM198.065 94.4228C198.065 94.4228 198.065 94.3689 198.065 94.2611V93.8875V93.5139V93.3521H198.227H198.601H198.974H199.136C199.136 93.3521 199.136 93.406 199.136 93.5139V93.8875V94.2611V94.4228C199.136 94.4228 199.082 94.4228 198.974 94.4228H198.601H198.227H198.065ZM201.634 94.4228C201.634 94.4228 201.634 94.3689 201.634 94.2611V93.8875V93.5139V93.3521H201.796H202.17H202.543H202.705C202.705 93.3521 202.705 93.406 202.705 93.5139V93.8875V94.2611V94.4228C202.705 94.4228 202.651 94.4228 202.543 94.4228H202.17H201.796H201.634ZM198.065 93.5306C198.065 93.5306 198.065 93.4767 198.065 93.3689V92.9952V92.6216V92.4599H198.227H198.601H198.974H199.136C199.136 92.4599 199.136 92.5138 199.136 92.6216V92.9952V93.3689V93.5306C199.136 93.5306 199.082 93.5306 198.974 93.5306H198.601H198.227H198.065ZM201.634 93.5306C201.634 93.5306 201.634 93.4767 201.634 93.3689V92.9952V92.6216V92.4599H201.796H202.17H202.543H202.705C202.705 92.4599 202.705 92.5138 202.705 92.6216V92.9952V93.3689V93.5306C202.705 93.5306 202.651 93.5306 202.543 93.5306H202.17H201.796H201.634ZM198.065 92.6383C198.065 92.6383 198.065 92.5844 198.065 92.4766V92.103V91.7294V91.5677H198.227H198.601H198.974H199.136C199.136 91.5677 199.136 91.6216 199.136 91.7294V92.103V92.4766V92.6383C199.136 92.6383 199.082 92.6383 198.974 92.6383H198.601H198.227H198.065ZM201.634 92.6383C201.634 92.6383 201.634 92.5844 201.634 92.4766V92.103V91.7294V91.5677H201.796H202.17H202.543H202.705C202.705 91.5677 202.705 91.6216 202.705 91.7294V92.103V92.4766V92.6383C202.705 92.6383 202.651 92.6383 202.543 92.6383H202.17H201.796H201.634ZM198.065 91.7461C198.065 91.7461 198.065 91.6922 198.065 91.5844V91.2108V90.8371V90.6754H198.227H198.601H198.974H199.136C199.136 90.6754 199.136 90.7293 199.136 90.8371V91.2108V91.5844V91.7461C199.136 91.7461 199.082 91.7461 198.974 91.7461H198.601H198.227H198.065ZM201.634 91.7461C201.634 91.7461 201.634 91.6922 201.634 91.5844V91.2108V90.8371V90.6754H201.796H202.17H202.543H202.705C202.705 90.6754 202.705 90.7293 202.705 90.8371V91.2108V91.5844V91.7461C202.705 91.7461 202.651 91.7461 202.543 91.7461H202.17H201.796H201.634ZM198.957 90.8539C198.957 90.8539 198.957 90.8 198.957 90.6922V90.3185V89.9449V89.7832H199.119H199.493H199.866H200.028C200.028 89.7832 200.028 89.8371 200.028 89.9449V90.3185V90.6922V90.8539C200.028 90.8539 199.974 90.8539 199.866 90.8539H199.493H199.119H198.957ZM199.85 90.8539C199.85 90.8539 199.85 90.8 199.85 90.6922V90.3185V89.9449V89.7832H200.011H200.385H200.759H200.92C200.92 89.7832 200.92 89.8371 200.92 89.9449V90.3185V90.6922V90.8539C200.92 90.8539 200.866 90.8539 200.759 90.8539H200.385H200.011H199.85ZM200.742 90.8539C200.742 90.8539 200.742 90.8 200.742 90.6922V90.3185V89.9449V89.7832H200.904H201.277H201.651H201.813C201.813 89.7832 201.813 89.8371 201.813 89.9449V90.3185V90.6922V90.8539C201.813 90.8539 201.759 90.8539 201.651 90.8539H201.277H200.904H200.742Z" fill="white"/>
<path d="M105.229 88.1581C105.229 88.1581 105.229 88.1042 105.229 87.9964V87.6227V87.2491V87.0874H105.391H105.765H106.138H106.3C106.3 87.0874 106.3 87.1413 106.3 87.2491V87.6227V87.9964V88.1581C106.3 88.1581 106.246 88.1581 106.138 88.1581H105.765H105.391H105.229ZM106.122 88.1581C106.122 88.1581 106.122 88.1042 106.122 87.9964V87.6227V87.2491V87.0874H106.283H106.657H107.031H107.192C107.192 87.0874 107.192 87.1413 107.192 87.2491V87.6227V87.9964V88.1581C107.192 88.1581 107.138 88.1581 107.031 88.1581H106.657H106.283H106.122ZM107.014 88.1581C107.014 88.1581 107.014 88.1042 107.014 87.9964V87.6227V87.2491V87.0874H107.176H107.549H107.923H108.085C108.085 87.0874 108.085 87.1413 108.085 87.2491V87.6227V87.9964V88.1581C108.085 88.1581 108.031 88.1581 107.923 88.1581H107.549H107.176H107.014ZM104.337 87.2658C104.337 87.2658 104.337 87.2119 104.337 87.1041V86.7305V86.3569V86.1952H104.499H104.873H105.246H105.408C105.408 86.1952 105.408 86.2491 105.408 86.3569V86.7305V87.1041V87.2658C105.408 87.2658 105.354 87.2658 105.246 87.2658H104.873H104.499H104.337ZM107.906 87.2658C107.906 87.2658 107.906 87.2119 107.906 87.1041V86.7305V86.3569V86.1952H108.068H108.441H108.815H108.977C108.977 86.1952 108.977 86.2491 108.977 86.3569V86.7305V87.1041V87.2658C108.977 87.2658 108.923 87.2658 108.815 87.2658H108.441H108.068H107.906ZM104.337 86.3736C104.337 86.3736 104.337 86.3197 104.337 86.2119V85.8383V85.4646V85.3029H104.499H104.873H105.246H105.408C105.408 85.3029 105.408 85.3568 105.408 85.4646V85.8383V86.2119V86.3736C105.408 86.3736 105.354 86.3736 105.246 86.3736H104.873H104.499H104.337ZM107.906 86.3736C107.906 86.3736 107.906 86.3197 107.906 86.2119V85.8383V85.4646V85.3029H108.068H108.441H108.815H108.977C108.977 85.3029 108.977 85.3568 108.977 85.4646V85.8383V86.2119V86.3736C108.977 86.3736 108.923 86.3736 108.815 86.3736H108.441H108.068H107.906ZM107.906 85.4814C107.906 85.4814 107.906 85.4275 107.906 85.3196V84.946V84.5724V84.4107H108.068H108.441H108.815H108.977C108.977 84.4107 108.977 84.4646 108.977 84.5724V84.946V85.3196V85.4814C108.977 85.4814 108.923 85.4814 108.815 85.4814H108.441H108.068H107.906ZM107.906 84.5891C107.906 84.5891 107.906 84.5352 107.906 84.4274V84.0538V83.6802V83.5184H108.068H108.441H108.815H108.977C108.977 83.5184 108.977 83.5723 108.977 83.6802V84.0538V84.4274V84.5891C108.977 84.5891 108.923 84.5891 108.815 84.5891H108.441H108.068H107.906ZM105.229 83.6969C105.229 83.6969 105.229 83.643 105.229 83.5352V83.1615V82.7879V82.6262H105.391H105.765H106.138H106.3C106.3 82.6262 106.3 82.6801 106.3 82.7879V83.1615V83.5352V83.6969C106.3 83.6969 106.246 83.6969 106.138 83.6969H105.765H105.391H105.229ZM106.122 83.6969C106.122 83.6969 106.122 83.643 106.122 83.5352V83.1615V82.7879V82.6262H106.283H106.657H107.031H107.192C107.192 82.6262 107.192 82.6801 107.192 82.7879V83.1615V83.5352V83.6969C107.192 83.6969 107.138 83.6969 107.031 83.6969H106.657H106.283H106.122ZM107.014 83.6969C107.014 83.6969 107.014 83.643 107.014 83.5352V83.1615V82.7879V82.6262H107.176H107.549H107.923H108.085C108.085 82.6262 108.085 82.6801 108.085 82.7879V83.1615V83.5352V83.6969C108.085 83.6969 108.031 83.6969 107.923 83.6969H107.549H107.176H107.014ZM107.906 82.8047C107.906 82.8047 107.906 82.7507 107.906 82.6429V82.2693V81.8957V81.734H108.068H108.441H108.815H108.977C108.977 81.734 108.977 81.7879 108.977 81.8957V82.2693V82.6429V82.8047C108.977 82.8047 108.923 82.8047 108.815 82.8047H108.441H108.068H107.906ZM107.906 81.9124C107.906 81.9124 107.906 81.8585 107.906 81.7507V81.3771V81.0035V80.8417H108.068H108.441H108.815H108.977C108.977 80.8417 108.977 80.8956 108.977 81.0035V81.3771V81.7507V81.9124C108.977 81.9124 108.923 81.9124 108.815 81.9124H108.441H108.068H107.906ZM104.337 81.0202C104.337 81.0202 104.337 80.9663 104.337 80.8585V80.4848V80.1112V79.9495H104.499H104.873H105.246H105.408C105.408 79.9495 105.408 80.0034 105.408 80.1112V80.4848V80.8585V81.0202C105.408 81.0202 105.354 81.0202 105.246 81.0202H104.873H104.499H104.337ZM107.906 81.0202C107.906 81.0202 107.906 80.9663 107.906 80.8585V80.4848V80.1112V79.9495H108.068H108.441H108.815H108.977C108.977 79.9495 108.977 80.0034 108.977 80.1112V80.4848V80.8585V81.0202C108.977 81.0202 108.923 81.0202 108.815 81.0202H108.441H108.068H107.906ZM104.337 80.1279C104.337 80.1279 104.337 80.074 104.337 79.9662V79.5926V79.219V79.0573H104.499H104.873H105.246H105.408C105.408 79.0573 105.408 79.1112 105.408 79.219V79.5926V79.9662V80.1279C105.408 80.1279 105.354 80.1279 105.246 80.1279H104.873H104.499H104.337ZM107.906 80.1279C107.906 80.1279 107.906 80.074 107.906 79.9662V79.5926V79.219V79.0573H108.068H108.441H108.815H108.977C108.977 79.0573 108.977 79.1112 108.977 79.219V79.5926V79.9662V80.1279C108.977 80.1279 108.923 80.1279 108.815 80.1279H108.441H108.068H107.906ZM105.229 79.2357C105.229 79.2357 105.229 79.1818 105.229 79.074V78.7004V78.3267V78.165H105.391H105.765H106.138H106.3C106.3 78.165 106.3 78.2189 106.3 78.3267V78.7004V79.074V79.2357C106.3 79.2357 106.246 79.2357 106.138 79.2357H105.765H105.391H105.229ZM106.122 79.2357C106.122 79.2357 106.122 79.1818 106.122 79.074V78.7004V78.3267V78.165H106.283H106.657H107.031H107.192C107.192 78.165 107.192 78.2189 107.192 78.3267V78.7004V79.074V79.2357C107.192 79.2357 107.138 79.2357 107.031 79.2357H106.657H106.283H106.122ZM107.014 79.2357C107.014 79.2357 107.014 79.1818 107.014 79.074V78.7004V78.3267V78.165H107.176H107.549H107.923H108.085C108.085 78.165 108.085 78.2189 108.085 78.3267V78.7004V79.074V79.2357C108.085 79.2357 108.031 79.2357 107.923 79.2357H107.549H107.176H107.014Z" fill="white"/>
<path d="M184.316 88.1581C184.316 88.1581 184.316 88.1042 184.316 87.9964V87.6227V87.2491V87.0874H184.478H184.852H185.225H185.387C185.387 87.0874 185.387 87.1413 185.387 87.2491V87.6227V87.9964V88.1581C185.387 88.1581 185.333 88.1581 185.225 88.1581H184.852H184.478H184.316ZM184.762 87.2658C184.762 87.2658 184.762 87.2119 184.762 87.1041V86.7305V86.3569V86.1952H184.924H185.298H185.671H185.833C185.833 86.1952 185.833 86.2491 185.833 86.3569V86.7305V87.1041V87.2658C185.833 87.2658 185.779 87.2658 185.671 87.2658H185.298H184.924H184.762ZM185.208 86.3736C185.208 86.3736 185.208 86.3197 185.208 86.2119V85.8383V85.4646V85.3029H185.37H185.744H186.117H186.279C186.279 85.3029 186.279 85.3568 186.279 85.4646V85.8383V86.2119V86.3736C186.279 86.3736 186.225 86.3736 186.117 86.3736H185.744H185.37H185.208ZM185.655 85.4814C185.655 85.4814 185.655 85.4275 185.655 85.3196V84.946V84.5724V84.4107H185.816H186.19H186.564H186.725C186.725 84.4107 186.725 84.4646 186.725 84.5724V84.946V85.3196V85.4814C186.725 85.4814 186.671 85.4814 186.564 85.4814H186.19H185.816H185.655ZM186.101 84.5891C186.101 84.5891 186.101 84.5352 186.101 84.4274V84.0538V83.6802V83.5184H186.262H186.636H187.01H187.171C187.171 83.5184 187.171 83.5723 187.171 83.6802V84.0538V84.4274V84.5891C187.171 84.5891 187.117 84.5891 187.01 84.5891H186.636H186.262H186.101ZM186.547 83.6969C186.547 83.6969 186.547 83.643 186.547 83.5352V83.1615V82.7879V82.6262H186.709H187.082H187.456H187.617C187.617 82.6262 187.617 82.6801 187.617 82.7879V83.1615V83.5352V83.6969C187.617 83.6969 187.564 83.6969 187.456 83.6969H187.082H186.709H186.547ZM186.993 82.8047C186.993 82.8047 186.993 82.7507 186.993 82.6429V82.2693V81.8957V81.734H187.155H187.528H187.902H188.064C188.064 81.734 188.064 81.7879 188.064 81.8957V82.2693V82.6429V82.8047C188.064 82.8047 188.01 82.8047 187.902 82.8047H187.528H187.155H186.993ZM187.439 81.9124C187.439 81.9124 187.439 81.8585 187.439 81.7507V81.3771V81.0035V80.8417H187.601H187.974H188.348H188.51C188.51 80.8417 188.51 80.8956 188.51 81.0035V81.3771V81.7507V81.9124C188.51 81.9124 188.456 81.9124 188.348 81.9124H187.974H187.601H187.439ZM183.424 81.0202C183.424 81.0202 183.424 80.9663 183.424 80.8585V80.4848V80.1112V79.9495H183.586H183.959H184.333H184.495C184.495 79.9495 184.495 80.0034 184.495 80.1112V80.4848V80.8585V81.0202C184.495 81.0202 184.441 81.0202 184.333 81.0202H183.959H183.586H183.424ZM187.885 81.0202C187.885 81.0202 187.885 80.9663 187.885 80.8585V80.4848V80.1112V79.9495H188.047H188.42H188.794H188.956C188.956 79.9495 188.956 80.0034 188.956 80.1112V80.4848V80.8585V81.0202C188.956 81.0202 188.902 81.0202 188.794 81.0202H188.42H188.047H187.885ZM183.424 80.1279C183.424 80.1279 183.424 80.074 183.424 79.9662V79.5926V79.219V79.0573H183.586H183.959H184.333H184.495C184.495 79.0573 184.495 79.1112 184.495 79.219V79.5926V79.9662V80.1279C184.495 80.1279 184.441 80.1279 184.333 80.1279H183.959H183.586H183.424ZM187.885 80.1279C187.885 80.1279 187.885 80.074 187.885 79.9662V79.5926V79.219V79.0573H188.047H188.42H188.794H188.956C188.956 79.0573 188.956 79.1112 188.956 79.219V79.5926V79.9662V80.1279C188.956 80.1279 188.902 80.1279 188.794 80.1279H188.42H188.047H187.885ZM183.424 79.2357C183.424 79.2357 183.424 79.1818 183.424 79.074V78.7004V78.3267V78.165H183.586H183.959H184.333H184.495C184.495 78.165 184.495 78.2189 184.495 78.3267V78.7004V79.074V79.2357C184.495 79.2357 184.441 79.2357 184.333 79.2357H183.959H183.586H183.424ZM184.316 79.2357C184.316 79.2357 184.316 79.1818 184.316 79.074V78.7004V78.3267V78.165H184.478H184.852H185.225H185.387C185.387 78.165 185.387 78.2189 185.387 78.3267V78.7004V79.074V79.2357C185.387 79.2357 185.333 79.2357 185.225 79.2357H184.852H184.478H184.316ZM185.208 79.2357C185.208 79.2357 185.208 79.1818 185.208 79.074V78.7004V78.3267V78.165H185.37H185.744H186.117H186.279C186.279 78.165 186.279 78.2189 186.279 78.3267V78.7004V79.074V79.2357C186.279 79.2357 186.225 79.2357 186.117 79.2357H185.744H185.37H185.208ZM186.101 79.2357C186.101 79.2357 186.101 79.1818 186.101 79.074V78.7004V78.3267V78.165H186.262H186.636H187.01H187.171C187.171 78.165 187.171 78.2189 187.171 78.3267V78.7004V79.074V79.2357C187.171 79.2357 187.117 79.2357 187.01 79.2357H186.636H186.262H186.101ZM186.993 79.2357C186.993 79.2357 186.993 79.1818 186.993 79.074V78.7004V78.3267V78.165H187.155H187.528H187.902H188.064C188.064 78.165 188.064 78.2189 188.064 78.3267V78.7004V79.074V79.2357C188.064 79.2357 188.01 79.2357 187.902 79.2357H187.528H187.155H186.993ZM187.885 79.2357C187.885 79.2357 187.885 79.1818 187.885 79.074V78.7004V78.3267V78.165H188.047H188.42H188.794H188.956C188.956 78.165 188.956 78.2189 188.956 78.3267V78.7004V79.074V79.2357C188.956 79.2357 188.902 79.2357 188.794 79.2357H188.42H188.047H187.885Z" fill="white"/>
<path d="M124.733 80.1517C124.733 80.1517 124.733 80.0978 124.733 79.99V79.6164V79.2428V79.081H124.895H125.268H125.642H125.804C125.804 79.081 125.804 79.1349 125.804 79.2428V79.6164V79.99V80.1517C125.804 80.1517 125.75 80.1517 125.642 80.1517H125.268H124.895H124.733ZM124.733 79.2595C124.733 79.2595 124.733 79.2056 124.733 79.0978V78.7241V78.3505V78.1888H124.895H125.268H125.642H125.804C125.804 78.1888 125.804 78.2427 125.804 78.3505V78.7241V79.0978V79.2595C125.804 79.2595 125.75 79.2595 125.642 79.2595H125.268H124.895H124.733ZM122.056 78.3673C122.056 78.3673 122.056 78.3133 122.056 78.2055V77.8319V77.4583V77.2966H122.218H122.591H122.965H123.127C123.127 77.2966 123.127 77.3505 123.127 77.4583V77.8319V78.2055V78.3673C123.127 78.3673 123.073 78.3673 122.965 78.3673H122.591H122.218H122.056ZM122.948 78.3673C122.948 78.3673 122.948 78.3133 122.948 78.2055V77.8319V77.4583V77.2966H123.11H123.484H123.857H124.019C124.019 77.2966 124.019 77.3505 124.019 77.4583V77.8319V78.2055V78.3673C124.019 78.3673 123.965 78.3673 123.857 78.3673H123.484H123.11H122.948ZM123.841 78.3673C123.841 78.3673 123.841 78.3133 123.841 78.2055V77.8319V77.4583V77.2966H124.002H124.376H124.75H124.911C124.911 77.2966 124.911 77.3505 124.911 77.4583V77.8319V78.2055V78.3673C124.911 78.3673 124.857 78.3673 124.75 78.3673H124.376H124.002H123.841ZM124.733 78.3673C124.733 78.3673 124.733 78.3133 124.733 78.2055V77.8319V77.4583V77.2966H124.895H125.268H125.642H125.804C125.804 77.2966 125.804 77.3505 125.804 77.4583V77.8319V78.2055V78.3673C125.804 78.3673 125.75 78.3673 125.642 78.3673H125.268H124.895H124.733ZM125.625 78.3673C125.625 78.3673 125.625 78.3133 125.625 78.2055V77.8319V77.4583V77.2966H125.787H126.16H126.534H126.696C126.696 77.2966 126.696 77.3505 126.696 77.4583V77.8319V78.2055V78.3673C126.696 78.3673 126.642 78.3673 126.534 78.3673H126.16H125.787H125.625ZM126.517 78.3673C126.517 78.3673 126.517 78.3133 126.517 78.2055V77.8319V77.4583V77.2966H126.679H127.053H127.426H127.588C127.588 77.2966 127.588 77.3505 127.588 77.4583V77.8319V78.2055V78.3673C127.588 78.3673 127.534 78.3673 127.426 78.3673H127.053H126.679H126.517ZM122.056 77.475C122.056 77.475 122.056 77.4211 122.056 77.3133V76.9397V76.566V76.4043H122.218H122.591H122.965H123.127C123.127 76.4043 123.127 76.4582 123.127 76.566V76.9397V77.3133V77.475C123.127 77.475 123.073 77.475 122.965 77.475H122.591H122.218H122.056ZM124.733 77.475C124.733 77.475 124.733 77.4211 124.733 77.3133V76.9397V76.566V76.4043H124.895H125.268H125.642H125.804C125.804 76.4043 125.804 76.4582 125.804 76.566V76.9397V77.3133V77.475C125.804 77.475 125.75 77.475 125.642 77.475H125.268H124.895H124.733ZM122.056 76.5828C122.056 76.5828 122.056 76.5289 122.056 76.4211V76.0474V75.6738V75.5121H122.218H122.591H122.965H123.127C123.127 75.5121 123.127 75.566 123.127 75.6738V76.0474V76.4211V76.5828C123.127 76.5828 123.073 76.5828 122.965 76.5828H122.591H122.218H122.056ZM124.733 76.5828C124.733 76.5828 124.733 76.5289 124.733 76.4211V76.0474V75.6738V75.5121H124.895H125.268H125.642H125.804C125.804 75.5121 125.804 75.566 125.804 75.6738V76.0474V76.4211V76.5828C125.804 76.5828 125.75 76.5828 125.642 76.5828H125.268H124.895H124.733ZM122.502 75.6905C122.502 75.6905 122.502 75.6366 122.502 75.5288V75.1552V74.7816V74.6199H122.664H123.038H123.411H123.573C123.573 74.6199 123.573 74.6738 123.573 74.7816V75.1552V75.5288V75.6905C123.573 75.6905 123.519 75.6905 123.411 75.6905H123.038H122.664H122.502ZM122.948 74.7983C122.948 74.7983 122.948 74.7444 122.948 74.6366V74.263V73.8893V73.7276H123.11H123.484H123.857H124.019C124.019 73.7276 124.019 73.7815 124.019 73.8893V74.263V74.6366V74.7983C124.019 74.7983 123.965 74.7983 123.857 74.7983H123.484H123.11H122.948ZM123.394 73.9061C123.394 73.9061 123.394 73.8522 123.394 73.7444V73.3707V72.9971V72.8354H123.556H123.93H124.303H124.465C124.465 72.8354 124.465 72.8893 124.465 72.9971V73.3707V73.7444V73.9061C124.465 73.9061 124.411 73.9061 124.303 73.9061H123.93H123.556H123.394ZM123.841 73.0138C123.841 73.0138 123.841 72.9599 123.841 72.8521V72.4785V72.1049V71.9431H124.002H124.376H124.75H124.911C124.911 71.9431 124.911 71.9971 124.911 72.1049V72.4785V72.8521V73.0138C124.911 73.0138 124.857 73.0138 124.75 73.0138H124.376H124.002H123.841ZM124.287 72.1216C124.287 72.1216 124.287 72.0677 124.287 71.9599V71.5863V71.2126V71.0509H124.448H124.822H125.196H125.357C125.357 71.0509 125.357 71.1048 125.357 71.2126V71.5863V71.9599V72.1216C125.357 72.1216 125.303 72.1216 125.196 72.1216H124.822H124.448H124.287ZM124.733 71.2294C124.733 71.2294 124.733 71.1755 124.733 71.0676V70.694V70.3204V70.1587H124.895H125.268H125.642H125.804C125.804 70.1587 125.804 70.2126 125.804 70.3204V70.694V71.0676V71.2294C125.804 71.2294 125.75 71.2294 125.642 71.2294H125.268H124.895H124.733Z" fill="white"/>
<path d="M165.738 80.1517C165.738 80.1517 165.738 80.0978 165.738 79.99V79.6164V79.2428V79.081H165.899H166.273H166.647H166.808C166.808 79.081 166.808 79.1349 166.808 79.2428V79.6164V79.99V80.1517C166.808 80.1517 166.755 80.1517 166.647 80.1517H166.273H165.899H165.738ZM166.63 80.1517C166.63 80.1517 166.63 80.0978 166.63 79.99V79.6164V79.2428V79.081H166.792H167.165H167.539H167.701C167.701 79.081 167.701 79.1349 167.701 79.2428V79.6164V79.99V80.1517C167.701 80.1517 167.647 80.1517 167.539 80.1517H167.165H166.792H166.63ZM167.522 80.1517C167.522 80.1517 167.522 80.0978 167.522 79.99V79.6164V79.2428V79.081H167.684H168.058H168.431H168.593C168.593 79.081 168.593 79.1349 168.593 79.2428V79.6164V79.99V80.1517C168.593 80.1517 168.539 80.1517 168.431 80.1517H168.058H167.684H167.522ZM164.845 79.2595C164.845 79.2595 164.845 79.2056 164.845 79.0978V78.7241V78.3505V78.1888H165.007H165.381H165.754H165.916C165.916 78.1888 165.916 78.2427 165.916 78.3505V78.7241V79.0978V79.2595C165.916 79.2595 165.862 79.2595 165.754 79.2595H165.381H165.007H164.845ZM168.414 79.2595C168.414 79.2595 168.414 79.2056 168.414 79.0978V78.7241V78.3505V78.1888H168.576H168.95H169.323H169.485C169.485 78.1888 169.485 78.2427 169.485 78.3505V78.7241V79.0978V79.2595C169.485 79.2595 169.431 79.2595 169.323 79.2595H168.95H168.576H168.414ZM164.845 78.3673C164.845 78.3673 164.845 78.3133 164.845 78.2055V77.8319V77.4583V77.2966H165.007H165.381H165.754H165.916C165.916 77.2966 165.916 77.3505 165.916 77.4583V77.8319V78.2055V78.3673C165.916 78.3673 165.862 78.3673 165.754 78.3673H165.381H165.007H164.845ZM168.414 78.3673C168.414 78.3673 168.414 78.3133 168.414 78.2055V77.8319V77.4583V77.2966H168.576H168.95H169.323H169.485C169.485 77.2966 169.485 77.3505 169.485 77.4583V77.8319V78.2055V78.3673C169.485 78.3673 169.431 78.3673 169.323 78.3673H168.95H168.576H168.414ZM164.845 77.475C164.845 77.475 164.845 77.4211 164.845 77.3133V76.9397V76.566V76.4043H165.007H165.381H165.754H165.916C165.916 76.4043 165.916 76.4582 165.916 76.566V76.9397V77.3133V77.475C165.916 77.475 165.862 77.475 165.754 77.475H165.381H165.007H164.845ZM168.414 77.475C168.414 77.475 168.414 77.4211 168.414 77.3133V76.9397V76.566V76.4043H168.576H168.95H169.323H169.485C169.485 76.4043 169.485 76.4582 169.485 76.566V76.9397V77.3133V77.475C169.485 77.475 169.431 77.475 169.323 77.475H168.95H168.576H168.414ZM164.845 76.5828C164.845 76.5828 164.845 76.5289 164.845 76.4211V76.0474V75.6738V75.5121H165.007H165.381H165.754H165.916C165.916 75.5121 165.916 75.566 165.916 75.6738V76.0474V76.4211V76.5828C165.916 76.5828 165.862 76.5828 165.754 76.5828H165.381H165.007H164.845ZM168.414 76.5828C168.414 76.5828 168.414 76.5289 168.414 76.4211V76.0474V75.6738V75.5121H168.576H168.95H169.323H169.485C169.485 75.5121 169.485 75.566 169.485 75.6738V76.0474V76.4211V76.5828C169.485 76.5828 169.431 76.5828 169.323 76.5828H168.95H168.576H168.414ZM164.845 75.6905C164.845 75.6905 164.845 75.6366 164.845 75.5288V75.1552V74.7816V74.6199H165.007H165.381H165.754H165.916C165.916 74.6199 165.916 74.6738 165.916 74.7816V75.1552V75.5288V75.6905C165.916 75.6905 165.862 75.6905 165.754 75.6905H165.381H165.007H164.845ZM165.738 75.6905C165.738 75.6905 165.738 75.6366 165.738 75.5288V75.1552V74.7816V74.6199H165.899H166.273H166.647H166.808C166.808 74.6199 166.808 74.6738 166.808 74.7816V75.1552V75.5288V75.6905C166.808 75.6905 166.755 75.6905 166.647 75.6905H166.273H165.899H165.738ZM166.63 75.6905C166.63 75.6905 166.63 75.6366 166.63 75.5288V75.1552V74.7816V74.6199H166.792H167.165H167.539H167.701C167.701 74.6199 167.701 74.6738 167.701 74.7816V75.1552V75.5288V75.6905C167.701 75.6905 167.647 75.6905 167.539 75.6905H167.165H166.792H166.63ZM167.522 75.6905C167.522 75.6905 167.522 75.6366 167.522 75.5288V75.1552V74.7816V74.6199H167.684H168.058H168.431H168.593C168.593 74.6199 168.593 74.6738 168.593 74.7816V75.1552V75.5288V75.6905C168.593 75.6905 168.539 75.6905 168.431 75.6905H168.058H167.684H167.522ZM164.845 74.7983C164.845 74.7983 164.845 74.7444 164.845 74.6366V74.263V73.8893V73.7276H165.007H165.381H165.754H165.916C165.916 73.7276 165.916 73.7815 165.916 73.8893V74.263V74.6366V74.7983C165.916 74.7983 165.862 74.7983 165.754 74.7983H165.381H165.007H164.845ZM164.845 73.9061C164.845 73.9061 164.845 73.8522 164.845 73.7444V73.3707V72.9971V72.8354H165.007H165.381H165.754H165.916C165.916 72.8354 165.916 72.8893 165.916 72.9971V73.3707V73.7444V73.9061C165.916 73.9061 165.862 73.9061 165.754 73.9061H165.381H165.007H164.845ZM164.845 73.0138C164.845 73.0138 164.845 72.9599 164.845 72.8521V72.4785V72.1049V71.9431H165.007H165.381H165.754H165.916C165.916 71.9431 165.916 71.9971 165.916 72.1049V72.4785V72.8521V73.0138C165.916 73.0138 165.862 73.0138 165.754 73.0138H165.381H165.007H164.845ZM168.414 73.0138C168.414 73.0138 168.414 72.9599 168.414 72.8521V72.4785V72.1049V71.9431H168.576H168.95H169.323H169.485C169.485 71.9431 169.485 71.9971 169.485 72.1049V72.4785V72.8521V73.0138C169.485 73.0138 169.431 73.0138 169.323 73.0138H168.95H168.576H168.414ZM164.845 72.1216C164.845 72.1216 164.845 72.0677 164.845 71.9599V71.5863V71.2126V71.0509H165.007H165.381H165.754H165.916C165.916 71.0509 165.916 71.1048 165.916 71.2126V71.5863V71.9599V72.1216C165.916 72.1216 165.862 72.1216 165.754 72.1216H165.381H165.007H164.845ZM168.414 72.1216C168.414 72.1216 168.414 72.0677 168.414 71.9599V71.5863V71.2126V71.0509H168.576H168.95H169.323H169.485C169.485 71.0509 169.485 71.1048 169.485 71.2126V71.5863V71.9599V72.1216C169.485 72.1216 169.431 72.1216 169.323 72.1216H168.95H168.576H168.414ZM165.738 71.2294C165.738 71.2294 165.738 71.1755 165.738 71.0676V70.694V70.3204V70.1587H165.899H166.273H166.647H166.808C166.808 70.1587 166.808 70.2126 166.808 70.3204V70.694V71.0676V71.2294C166.808 71.2294 166.755 71.2294 166.647 71.2294H166.273H165.899H165.738ZM166.63 71.2294C166.63 71.2294 166.63 71.1755 166.63 71.0676V70.694V70.3204V70.1587H166.792H167.165H167.539H167.701C167.701 70.1587 167.701 70.2126 167.701 70.3204V70.694V71.0676V71.2294C167.701 71.2294 167.647 71.2294 167.539 71.2294H167.165H166.792H166.63ZM167.522 71.2294C167.522 71.2294 167.522 71.1755 167.522 71.0676V70.694V70.3204V70.1587H167.684H168.058H168.431H168.593C168.593 70.1587 168.593 70.2126 168.593 70.3204V70.694V71.0676V71.2294C168.593 71.2294 168.539 71.2294 168.431 71.2294H168.058H167.684H167.522Z" fill="white"/>
<path d="M144.517 76.9916C144.517 76.9916 144.517 76.9377 144.517 76.8298V76.4562V76.0826V75.9209H144.679H145.052H145.426H145.588C145.588 75.9209 145.588 75.9748 145.588 76.0826V76.4562V76.8298V76.9916C145.588 76.9916 145.534 76.9916 145.426 76.9916H145.052H144.679H144.517ZM145.409 76.9916C145.409 76.9916 145.409 76.9377 145.409 76.8298V76.4562V76.0826V75.9209H145.571H145.945H146.318H146.48C146.48 75.9209 146.48 75.9748 146.48 76.0826V76.4562V76.8298V76.9916C146.48 76.9916 146.426 76.9916 146.318 76.9916H145.945H145.571H145.409ZM146.301 76.9916C146.301 76.9916 146.301 76.9377 146.301 76.8298V76.4562V76.0826V75.9209H146.463H146.837H147.21H147.372C147.372 75.9209 147.372 75.9748 147.372 76.0826V76.4562V76.8298V76.9916C147.372 76.9916 147.318 76.9916 147.21 76.9916H146.837H146.463H146.301ZM143.625 76.0993C143.625 76.0993 143.625 76.0454 143.625 75.9376V75.564V75.1904V75.0286H143.787H144.16H144.534H144.695C144.695 75.0286 144.695 75.0826 144.695 75.1904V75.564V75.9376V76.0993C144.695 76.0993 144.642 76.0993 144.534 76.0993H144.16H143.787H143.625ZM147.194 76.0993C147.194 76.0993 147.194 76.0454 147.194 75.9376V75.564V75.1904V75.0286H147.355H147.729H148.103H148.264C148.264 75.0286 148.264 75.0826 148.264 75.1904V75.564V75.9376V76.0993C148.264 76.0993 148.211 76.0993 148.103 76.0993H147.729H147.355H147.194ZM143.625 75.2071C143.625 75.2071 143.625 75.1532 143.625 75.0454V74.6718V74.2981V74.1364H143.787H144.16H144.534H144.695C144.695 74.1364 144.695 74.1903 144.695 74.2981V74.6718V75.0454V75.2071C144.695 75.2071 144.642 75.2071 144.534 75.2071H144.16H143.787H143.625ZM147.194 75.2071C147.194 75.2071 147.194 75.1532 147.194 75.0454V74.6718V74.2981V74.1364H147.355H147.729H148.103H148.264C148.264 74.1364 148.264 74.1903 148.264 74.2981V74.6718V75.0454V75.2071C148.264 75.2071 148.211 75.2071 148.103 75.2071H147.729H147.355H147.194ZM147.194 74.3149C147.194 74.3149 147.194 74.261 147.194 74.1531V73.7795V73.4059V73.2442H147.355H147.729H148.103H148.264C148.264 73.2442 148.264 73.2981 148.264 73.4059V73.7795V74.1531V74.3149C148.264 74.3149 148.211 74.3149 148.103 74.3149H147.729H147.355H147.194ZM147.194 73.4226C147.194 73.4226 147.194 73.3687 147.194 73.2609V72.8873V72.5137V72.3519H147.355H147.729H148.103H148.264C148.264 72.3519 148.264 72.4058 148.264 72.5137V72.8873V73.2609V73.4226C148.264 73.4226 148.211 73.4226 148.103 73.4226H147.729H147.355H147.194ZM143.625 72.5304C143.625 72.5304 143.625 72.4765 143.625 72.3687V71.995V71.6214V71.4597H143.787H144.16H144.534H144.695C144.695 71.4597 144.695 71.5136 144.695 71.6214V71.995V72.3687V72.5304C144.695 72.5304 144.642 72.5304 144.534 72.5304H144.16H143.787H143.625ZM147.194 72.5304C147.194 72.5304 147.194 72.4765 147.194 72.3687V71.995V71.6214V71.4597H147.355H147.729H148.103H148.264C148.264 71.4597 148.264 71.5136 148.264 71.6214V71.995V72.3687V72.5304C148.264 72.5304 148.211 72.5304 148.103 72.5304H147.729H147.355H147.194ZM144.517 72.0843C144.517 72.0843 144.517 72.0304 144.517 71.9225V71.5489V71.1753V71.0136H144.679H145.052H145.426H145.588C145.588 71.0136 145.588 71.0675 145.588 71.1753V71.5489V71.9225V72.0843C145.588 72.0843 145.534 72.0843 145.426 72.0843H145.052H144.679H144.517ZM143.625 71.6381C143.625 71.6381 143.625 71.5842 143.625 71.4764V71.1028V70.7292V70.5675H143.787H144.16H144.534H144.695C144.695 70.5675 144.695 70.6214 144.695 70.7292V71.1028V71.4764V71.6381C144.695 71.6381 144.642 71.6381 144.534 71.6381H144.16H143.787H143.625ZM145.409 71.6381C145.409 71.6381 145.409 71.5842 145.409 71.4764V71.1028V70.7292V70.5675H145.571H145.945H146.318H146.48C146.48 70.5675 146.48 70.6214 146.48 70.7292V71.1028V71.4764V71.6381C146.48 71.6381 146.426 71.6381 146.318 71.6381H145.945H145.571H145.409ZM146.301 71.6381C146.301 71.6381 146.301 71.5842 146.301 71.4764V71.1028V70.7292V70.5675H146.463H146.837H147.21H147.372C147.372 70.5675 147.372 70.6214 147.372 70.7292V71.1028V71.4764V71.6381C147.372 71.6381 147.318 71.6381 147.21 71.6381H146.837H146.463H146.301ZM143.625 70.7459C143.625 70.7459 143.625 70.692 143.625 70.5842V70.2106V69.8369V69.6752H143.787H144.16H144.534H144.695C144.695 69.6752 144.695 69.7291 144.695 69.8369V70.2106V70.5842V70.7459C144.695 70.7459 144.642 70.7459 144.534 70.7459H144.16H143.787H143.625ZM143.625 69.8537C143.625 69.8537 143.625 69.7998 143.625 69.692V69.3183V68.9447V68.783H143.787H144.16H144.534H144.695C144.695 68.783 144.695 68.8369 144.695 68.9447V69.3183V69.692V69.8537C144.695 69.8537 144.642 69.8537 144.534 69.8537H144.16H143.787H143.625ZM143.625 68.9614C143.625 68.9614 143.625 68.9075 143.625 68.7997V68.4261V68.0525V67.8908H143.787H144.16H144.534H144.695C144.695 67.8908 144.695 67.9447 144.695 68.0525V68.4261V68.7997V68.9614C144.695 68.9614 144.642 68.9614 144.534 68.9614H144.16H143.787H143.625ZM143.625 68.0692C143.625 68.0692 143.625 68.0153 143.625 67.9075V67.5339V67.1602V66.9985H143.787H144.16H144.534H144.695C144.695 66.9985 144.695 67.0524 144.695 67.1602V67.5339V67.9075V68.0692C144.695 68.0692 144.642 68.0692 144.534 68.0692H144.16H143.787H143.625ZM144.517 68.0692C144.517 68.0692 144.517 68.0153 144.517 67.9075V67.5339V67.1602V66.9985H144.679H145.052H145.426H145.588C145.588 66.9985 145.588 67.0524 145.588 67.1602V67.5339V67.9075V68.0692C145.588 68.0692 145.534 68.0692 145.426 68.0692H145.052H144.679H144.517ZM145.409 68.0692C145.409 68.0692 145.409 68.0153 145.409 67.9075V67.5339V67.1602V66.9985H145.571H145.945H146.318H146.48C146.48 66.9985 146.48 67.0524 146.48 67.1602V67.5339V67.9075V68.0692C146.48 68.0692 146.426 68.0692 146.318 68.0692H145.945H145.571H145.409ZM146.301 68.0692C146.301 68.0692 146.301 68.0153 146.301 67.9075V67.5339V67.1602V66.9985H146.463H146.837H147.21H147.372C147.372 66.9985 147.372 67.0524 147.372 67.1602V67.5339V67.9075V68.0692C147.372 68.0692 147.318 68.0692 147.21 68.0692H146.837H146.463H146.301ZM147.194 68.0692C147.194 68.0692 147.194 68.0153 147.194 67.9075V67.5339V67.1602V66.9985H147.355H147.729H148.103H148.264C148.264 66.9985 148.264 67.0524 148.264 67.1602V67.5339V67.9075V68.0692C148.264 68.0692 148.211 68.0692 148.103 68.0692H147.729H147.355H147.194Z" fill="white"/>
<path d="M139.35 151.8L200.003 93.2778L202.21 95.4811L143.555 156L139.35 151.8Z" fill="#E5C46B"/>
<path d="M140.789 147.498C140.789 143.523 144.017 140.3 148 140.3C151.982 140.3 155.211 143.523 155.211 147.498C155.211 151.474 151.983 154.697 148 154.697C144.017 154.697 140.789 151.474 140.789 147.498Z" fill="#1D1D1B"/>
<path d="M66.5274 101.842C66.2059 101.842 65.8796 101.76 65.5817 101.585L47.0263 90.7333C46.1344 90.211 45.8349 89.0672 46.3581 88.1753C46.8799 87.2849 48.0254 86.9844 48.9206 87.5082L67.4761 98.3603C68.368 98.8826 68.6675 100.026 68.1442 100.918C67.796 101.511 67.1704 101.842 66.5274 101.842Z" fill="#1E1E1E"/>
<path d="M84.7002 86.0842C84.2226 86.0842 83.7451 85.9033 83.3795 85.54L64.7611 67.0486C64.0283 66.3202 64.025 65.1372 64.7548 64.4056C65.4844 63.674 66.6696 63.671 67.4024 64.3993L86.0209 82.8905C86.7537 83.6189 86.7568 84.8019 86.0272 85.5335C85.6614 85.9002 85.1809 86.0842 84.7002 86.0842Z" fill="#1E1E1E"/>
<path d="M100.392 68.0401C99.7488 68.0401 99.1231 67.7097 98.7749 67.1166L87.9055 48.5939C87.3822 47.7018 87.6817 46.5565 88.5737 46.0358C89.4657 45.5104 90.613 45.8123 91.1362 46.7029L102.006 65.2256C102.529 66.1175 102.229 67.263 101.337 67.7836C101.039 67.9582 100.713 68.0401 100.392 68.0401Z" fill="#1E1E1E"/>
<path d="M122.911 58.5506C122.09 58.5506 121.335 58.0064 121.106 57.1773L115.403 36.4805C115.129 35.4846 115.715 34.4557 116.713 34.182C117.701 33.9114 118.741 34.4936 119.015 35.4893L124.719 56.1862C124.993 57.1819 124.406 58.2109 123.409 58.4845C123.243 58.5304 123.076 58.5506 122.911 58.5506Z" fill="#1E1E1E"/>
<path d="M148 57.9567C146.358 57.9567 145.026 56.6274 145.026 54.9881V28.7709C145.026 27.1315 146.358 25.8022 148 25.8022C149.642 25.8022 150.974 27.1316 150.974 28.7709V54.9881C150.974 56.6274 149.642 57.9567 148 57.9567Z" fill="#1E1E1E"/>
<path d="M173.089 58.5506C172.924 58.5506 172.757 58.5304 172.591 58.4846C171.594 58.2109 171.008 57.1819 171.282 56.1862L176.985 35.4893C177.261 34.4936 178.303 33.9113 179.288 34.182C180.285 34.4558 180.872 35.4847 180.597 36.4805L174.894 57.1773C174.665 58.0064 173.911 58.5506 173.089 58.5506Z" fill="#1E1E1E"/>
<path d="M195.609 68.0401C195.287 68.0401 194.961 67.9583 194.663 67.7837C193.771 67.263 193.472 66.1176 193.995 65.2257L204.864 46.703C205.386 45.8124 206.532 45.5103 207.427 46.0359C208.319 46.5565 208.618 47.7019 208.095 48.5939L197.226 67.1166C196.877 67.7097 196.252 68.0401 195.609 68.0401Z" fill="#1E1E1E"/>
<path d="M211.34 86.1255C210.861 86.1255 210.381 85.9431 210.016 85.5781C209.284 84.8482 209.284 83.6635 210.016 82.9336L228.595 64.403C229.326 63.6729 230.51 63.6729 231.244 64.403C231.974 65.1329 231.974 66.3175 231.243 67.0476L212.663 85.5781C212.298 85.9431 211.819 86.1255 211.34 86.1255Z" fill="#E5C46B"/>
<path d="M229.473 101.842C228.83 101.842 228.204 101.511 227.856 100.918C227.332 100.026 227.632 98.8826 228.524 98.3603L247.079 87.5082C247.971 86.9844 249.119 87.2849 249.642 88.1753C250.165 89.0672 249.866 90.211 248.974 90.7333L230.418 101.585C230.12 101.76 229.794 101.842 229.473 101.842Z" fill="#1E1E1E"/>
<path d="M235.455 126.399C234.149 126.399 232.953 125.534 232.588 124.217C232.154 122.636 233.083 121.002 234.667 120.566L261.876 113.095C263.465 112.659 265.098 113.589 265.534 115.17C265.969 116.751 265.039 118.385 263.455 118.821L236.246 126.292C235.982 126.365 235.717 126.399 235.455 126.399Z" fill="#4FB848"/>
<path d="M61.579 127.203C61.3174 127.203 61.0526 127.168 60.7877 127.096L33.5789 119.625C31.9949 119.189 31.0652 117.554 31.5001 115.974C31.9366 114.392 33.5726 113.463 35.1579 113.898L62.367 121.369C63.9507 121.805 64.8807 123.44 64.4456 125.021C64.0817 126.338 62.8854 127.203 61.579 127.203Z" fill="#EB1616"/>
</g>
<defs>
<clipPath id="clip0_6217_456716">
<rect width="296" height="156" fill="white"/>
</clipPath>
</defs>
</svg>
