<svg width="280" height="150" viewBox="0 0 280 150" fill="none" xmlns="http://www.w3.org/2000/svg">
<path d="M140.417 25.1103C140.417 25.1103 140.417 25.0437 140.417 24.9104V24.4485V23.9867V23.7868H140.616H141.078H141.54H141.74C141.74 23.7868 141.74 23.8534 141.74 23.9867V24.4485V24.9104V25.1103C141.74 25.1103 141.673 25.1103 141.54 25.1103H141.078H140.616H140.417ZM139.865 24.0074C139.865 24.0074 139.865 23.9407 139.865 23.8074V23.3456V22.8837V22.6838H140.065H140.527H140.989H141.189C141.189 22.6838 141.189 22.7505 141.189 22.8837V23.3456V23.8074V24.0074C141.189 24.0074 141.122 24.0074 140.989 24.0074H140.527H140.065H139.865ZM140.968 24.0074C140.968 24.0074 140.968 23.9407 140.968 23.8074V23.3456V22.8837V22.6838H141.168H141.63H142.092H142.292C142.292 22.6838 142.292 22.7505 142.292 22.8837V23.3456V23.8074V24.0074C142.292 24.0074 142.225 24.0074 142.092 24.0074H141.63H141.168H140.968ZM139.314 22.9044C139.314 22.9044 139.314 22.8378 139.314 22.7045V22.2426V21.7808V21.5809H139.514H139.975H140.437H140.637C140.637 21.5809 140.637 21.6475 140.637 21.7808V22.2426V22.7045V22.9044C140.637 22.9044 140.57 22.9044 140.437 22.9044H139.975H139.514H139.314ZM141.519 22.9044C141.519 22.9044 141.519 22.8378 141.519 22.7045V22.2426V21.7808V21.5809H141.719H142.181H142.643H142.843C142.843 21.5809 142.843 21.6475 142.843 21.7808V22.2426V22.7045V22.9044C142.843 22.9044 142.776 22.9044 142.643 22.9044H142.181H141.719H141.519ZM138.762 21.8015C138.762 21.8015 138.762 21.7348 138.762 21.6016V21.1397V20.6778V20.4779H138.962H139.424H139.886H140.086C140.086 20.4779 140.086 20.5446 140.086 20.6778V21.1397V21.6016V21.8015C140.086 21.8015 140.019 21.8015 139.886 21.8015H139.424H138.962H138.762ZM142.071 21.8015C142.071 21.8015 142.071 21.7348 142.071 21.6016V21.1397V20.6778V20.4779H142.271H142.733H143.195H143.394C143.394 20.4779 143.394 20.5446 143.394 20.6778V21.1397V21.6016V21.8015C143.394 21.8015 143.328 21.8015 143.195 21.8015H142.733H142.271H142.071ZM138.211 20.6985C138.211 20.6985 138.211 20.6319 138.211 20.4986V20.0368V19.5749V19.375H138.411H138.872H139.334H139.534C139.534 19.375 139.534 19.4416 139.534 19.5749V20.0368V20.4986V20.6985C139.534 20.6985 139.468 20.6985 139.334 20.6985H138.872H138.411H138.211ZM142.622 20.6985C142.622 20.6985 142.622 20.6319 142.622 20.4986V20.0368V19.5749V19.375H142.822H143.284H143.746H143.946C143.946 19.375 143.946 19.4416 143.946 19.5749V20.0368V20.4986V20.6985C143.946 20.6985 143.879 20.6985 143.746 20.6985H143.284H142.822H142.622ZM137.659 19.5956C137.659 19.5956 137.659 19.529 137.659 19.3957V18.9338V18.472V18.2721H137.859H138.321H138.783H138.983C138.983 18.2721 138.983 18.3387 138.983 18.472V18.9338V19.3957V19.5956C138.983 19.5956 138.916 19.5956 138.783 19.5956H138.321H137.859H137.659ZM143.174 19.5956C143.174 19.5956 143.174 19.529 143.174 19.3957V18.9338V18.472V18.2721H143.374H143.836H144.298H144.497C144.497 18.2721 144.497 18.3387 144.497 18.472V18.9338V19.3957V19.5956C144.497 19.5956 144.431 19.5956 144.298 19.5956H143.836H143.374H143.174ZM137.659 18.4926C137.659 18.4926 137.659 18.426 137.659 18.2927V17.8309V17.369V17.1691H137.859H138.321H138.783H138.983C138.983 17.1691 138.983 17.2358 138.983 17.369V17.8309V18.2927V18.4926C138.983 18.4926 138.916 18.4926 138.783 18.4926H138.321H137.859H137.659ZM143.174 18.4926C143.174 18.4926 143.174 18.426 143.174 18.2927V17.8309V17.369V17.1691H143.374H143.836H144.298H144.497C144.497 17.1691 144.497 17.2358 144.497 17.369V17.8309V18.2927V18.4926C144.497 18.4926 144.431 18.4926 144.298 18.4926H143.836H143.374H143.174ZM137.659 17.3897C137.659 17.3897 137.659 17.3231 137.659 17.1898V16.7279V16.2661V16.0662H137.859H138.321H138.783H138.983C138.983 16.0662 138.983 16.1328 138.983 16.2661V16.7279V17.1898V17.3897C138.983 17.3897 138.916 17.3897 138.783 17.3897H138.321H137.859H137.659ZM143.174 17.3897C143.174 17.3897 143.174 17.3231 143.174 17.1898V16.7279V16.2661V16.0662H143.374H143.836H144.298H144.497C144.497 16.0662 144.497 16.1328 144.497 16.2661V16.7279V17.1898V17.3897C144.497 17.3897 144.431 17.3897 144.298 17.3897H143.836H143.374H143.174ZM137.659 16.2868C137.659 16.2868 137.659 16.2201 137.659 16.0869V15.625V15.1631V14.9632H137.859H138.321H138.783H138.983C138.983 14.9632 138.983 15.0299 138.983 15.1631V15.625V16.0869V16.2868C138.983 16.2868 138.916 16.2868 138.783 16.2868H138.321H137.859H137.659ZM143.174 16.2868C143.174 16.2868 143.174 16.2201 143.174 16.0869V15.625V15.1631V14.9632H143.374H143.836H144.298H144.497C144.497 14.9632 144.497 15.0299 144.497 15.1631V15.625V16.0869V16.2868C144.497 16.2868 144.431 16.2868 144.298 16.2868H143.836H143.374H143.174ZM137.659 15.1838C137.659 15.1838 137.659 15.1172 137.659 14.9839V14.5221V14.0602V13.8603H137.859H138.321H138.783H138.983C138.983 13.8603 138.983 13.9269 138.983 14.0602V14.5221V14.9839V15.1838C138.983 15.1838 138.916 15.1838 138.783 15.1838H138.321H137.859H137.659ZM143.174 15.1838C143.174 15.1838 143.174 15.1172 143.174 14.9839V14.5221V14.0602V13.8603H143.374H143.836H144.298H144.497C144.497 13.8603 144.497 13.9269 144.497 14.0602V14.5221V14.9839V15.1838C144.497 15.1838 144.431 15.1838 144.298 15.1838H143.836H143.374H143.174ZM137.659 14.0809C137.659 14.0809 137.659 14.0142 137.659 13.881V13.4191V12.9573V12.7574H137.859H138.321H138.783H138.983C138.983 12.7574 138.983 12.824 138.983 12.9573V13.4191V13.881V14.0809C138.983 14.0809 138.916 14.0809 138.783 14.0809H138.321H137.859H137.659ZM143.174 14.0809C143.174 14.0809 143.174 14.0142 143.174 13.881V13.4191V12.9573V12.7574H143.374H143.836H144.298H144.497C144.497 12.7574 144.497 12.824 144.497 12.9573V13.4191V13.881V14.0809C144.497 14.0809 144.431 14.0809 144.298 14.0809H143.836H143.374H143.174ZM150.791 25.1103C150.791 25.1103 150.791 25.0437 150.791 24.9104V24.4485V23.9867V23.7868H150.991H151.452H151.914H152.114C152.114 23.7868 152.114 23.8534 152.114 23.9867V24.4485V24.9104V25.1103C152.114 25.1103 152.048 25.1103 151.914 25.1103H151.452H150.991H150.791ZM151.894 25.1103C151.894 25.1103 151.894 25.0437 151.894 24.9104V24.4485V23.9867V23.7868H152.094H152.555H153.017H153.217C153.217 23.7868 153.217 23.8534 153.217 23.9867V24.4485V24.9104V25.1103C153.217 25.1103 153.15 25.1103 153.017 25.1103H152.555H152.094H151.894ZM152.997 25.1103C152.997 25.1103 152.997 25.0437 152.997 24.9104V24.4485V23.9867V23.7868H153.196H153.658H154.12H154.32C154.32 23.7868 154.32 23.8534 154.32 23.9867V24.4485V24.9104V25.1103C154.32 25.1103 154.253 25.1103 154.12 25.1103H153.658H153.196H152.997ZM149.688 24.0074C149.688 24.0074 149.688 23.9407 149.688 23.8074V23.3456V22.8837V22.6838H149.888H150.349H150.811H151.011C151.011 22.6838 151.011 22.7505 151.011 22.8837V23.3456V23.8074V24.0074C151.011 24.0074 150.945 24.0074 150.811 24.0074H150.349H149.888H149.688ZM154.099 24.0074C154.099 24.0074 154.099 23.9407 154.099 23.8074V23.3456V22.8837V22.6838H154.299H154.761H155.223H155.423C155.423 22.6838 155.423 22.7505 155.423 22.8837V23.3456V23.8074V24.0074C155.423 24.0074 155.356 24.0074 155.223 24.0074H154.761H154.299H154.099ZM149.688 22.9044C149.688 22.9044 149.688 22.8378 149.688 22.7045V22.2426V21.7808V21.5809H149.888H150.349H150.811H151.011C151.011 21.5809 151.011 21.6475 151.011 21.7808V22.2426V22.7045V22.9044C151.011 22.9044 150.945 22.9044 150.811 22.9044H150.349H149.888H149.688ZM154.099 22.9044C154.099 22.9044 154.099 22.8378 154.099 22.7045V22.2426V21.7808V21.5809H154.299H154.761H155.223H155.423C155.423 21.5809 155.423 21.6475 155.423 21.7808V22.2426V22.7045V22.9044C155.423 22.9044 155.356 22.9044 155.223 22.9044H154.761H154.299H154.099ZM149.688 21.8015C149.688 21.8015 149.688 21.7348 149.688 21.6016V21.1397V20.6778V20.4779H149.888H150.349H150.811H151.011C151.011 20.4779 151.011 20.5446 151.011 20.6778V21.1397V21.6016V21.8015C151.011 21.8015 150.945 21.8015 150.811 21.8015H150.349H149.888H149.688ZM154.099 21.8015C154.099 21.8015 154.099 21.7348 154.099 21.6016V21.1397V20.6778V20.4779H154.299H154.761H155.223H155.423C155.423 20.4779 155.423 20.5446 155.423 20.6778V21.1397V21.6016V21.8015C155.423 21.8015 155.356 21.8015 155.223 21.8015H154.761H154.299H154.099ZM149.688 20.6985C149.688 20.6985 149.688 20.6319 149.688 20.4986V20.0368V19.5749V19.375H149.888H150.349H150.811H151.011C151.011 19.375 151.011 19.4416 151.011 19.5749V20.0368V20.4986V20.6985C151.011 20.6985 150.945 20.6985 150.811 20.6985H150.349H149.888H149.688ZM154.099 20.6985C154.099 20.6985 154.099 20.6319 154.099 20.4986V20.0368V19.5749V19.375H154.299H154.761H155.223H155.423C155.423 19.375 155.423 19.4416 155.423 19.5749V20.0368V20.4986V20.6985C155.423 20.6985 155.356 20.6985 155.223 20.6985H154.761H154.299H154.099ZM149.688 19.5956C149.688 19.5956 149.688 19.529 149.688 19.3957V18.9338V18.472V18.2721H149.888H150.349H150.811H151.011C151.011 18.2721 151.011 18.3387 151.011 18.472V18.9338V19.3957V19.5956C151.011 19.5956 150.945 19.5956 150.811 19.5956H150.349H149.888H149.688ZM154.099 19.5956C154.099 19.5956 154.099 19.529 154.099 19.3957V18.9338V18.472V18.2721H154.299H154.761H155.223H155.423C155.423 18.2721 155.423 18.3387 155.423 18.472V18.9338V19.3957V19.5956C155.423 19.5956 155.356 19.5956 155.223 19.5956H154.761H154.299H154.099ZM149.688 18.4926C149.688 18.4926 149.688 18.426 149.688 18.2927V17.8309V17.369V17.1691H149.888H150.349H150.811H151.011C151.011 17.1691 151.011 17.2358 151.011 17.369V17.8309V18.2927V18.4926C151.011 18.4926 150.945 18.4926 150.811 18.4926H150.349H149.888H149.688ZM154.099 18.4926C154.099 18.4926 154.099 18.426 154.099 18.2927V17.8309V17.369V17.1691H154.299H154.761H155.223H155.423C155.423 17.1691 155.423 17.2358 155.423 17.369V17.8309V18.2927V18.4926C155.423 18.4926 155.356 18.4926 155.223 18.4926H154.761H154.299H154.099ZM150.791 17.3897C150.791 17.3897 150.791 17.3231 150.791 17.1898V16.7279V16.2661V16.0662H150.991H151.452H151.914H152.114C152.114 16.0662 152.114 16.1328 152.114 16.2661V16.7279V17.1898V17.3897C152.114 17.3897 152.048 17.3897 151.914 17.3897H151.452H150.991H150.791ZM151.894 17.3897C151.894 17.3897 151.894 17.3231 151.894 17.1898V16.7279V16.2661V16.0662H152.094H152.555H153.017H153.217C153.217 16.0662 153.217 16.1328 153.217 16.2661V16.7279V17.1898V17.3897C153.217 17.3897 153.15 17.3897 153.017 17.3897H152.555H152.094H151.894ZM152.997 17.3897C152.997 17.3897 152.997 17.3231 152.997 17.1898V16.7279V16.2661V16.0662H153.196H153.658H154.12H154.32C154.32 16.0662 154.32 16.1328 154.32 16.2661V16.7279V17.1898V17.3897C154.32 17.3897 154.253 17.3897 154.12 17.3897H153.658H153.196H152.997ZM162.819 25.1103C162.819 25.1103 162.819 25.0437 162.819 24.9104V24.4485V23.9867V23.7868H163.019H163.481H163.943H164.143C164.143 23.7868 164.143 23.8534 164.143 23.9867V24.4485V24.9104V25.1103C164.143 25.1103 164.076 25.1103 163.943 25.1103H163.481H163.019H162.819ZM163.922 25.1103C163.922 25.1103 163.922 25.0437 163.922 24.9104V24.4485V23.9867V23.7868H164.122H164.584H165.046H165.246C165.246 23.7868 165.246 23.8534 165.246 23.9867V24.4485V24.9104V25.1103C165.246 25.1103 165.179 25.1103 165.046 25.1103H164.584H164.122H163.922ZM161.716 24.0074C161.716 24.0074 161.716 23.9407 161.716 23.8074V23.3456V22.8837V22.6838H161.916H162.378H162.84H163.04C163.04 22.6838 163.04 22.7505 163.04 22.8837V23.3456V23.8074V24.0074C163.04 24.0074 162.973 24.0074 162.84 24.0074H162.378H161.916H161.716ZM161.716 22.9044C161.716 22.9044 161.716 22.8378 161.716 22.7045V22.2426V21.7808V21.5809H161.916H162.378H162.84H163.04C163.04 21.5809 163.04 21.6475 163.04 21.7808V22.2426V22.7045V22.9044C163.04 22.9044 162.973 22.9044 162.84 22.9044H162.378H161.916H161.716ZM161.716 21.8015C161.716 21.8015 161.716 21.7348 161.716 21.6016V21.1397V20.6778V20.4779H161.916H162.378H162.84H163.04C163.04 20.4779 163.04 20.5446 163.04 20.6778V21.1397V21.6016V21.8015C163.04 21.8015 162.973 21.8015 162.84 21.8015H162.378H161.916H161.716ZM161.716 20.6985C161.716 20.6985 161.716 20.6319 161.716 20.4986V20.0368V19.5749V19.375H161.916H162.378H162.84H163.04C163.04 19.375 163.04 19.4416 163.04 19.5749V20.0368V20.4986V20.6985C163.04 20.6985 162.973 20.6985 162.84 20.6985H162.378H161.916H161.716ZM161.716 19.5956C161.716 19.5956 161.716 19.529 161.716 19.3957V18.9338V18.472V18.2721H161.916H162.378H162.84H163.04C163.04 18.2721 163.04 18.3387 163.04 18.472V18.9338V19.3957V19.5956C163.04 19.5956 162.973 19.5956 162.84 19.5956H162.378H161.916H161.716ZM161.716 18.4926C161.716 18.4926 161.716 18.426 161.716 18.2927V17.8309V17.369V17.1691H161.916H162.378H162.84H163.04C163.04 17.1691 163.04 17.2358 163.04 17.369V17.8309V18.2927V18.4926C163.04 18.4926 162.973 18.4926 162.84 18.4926H162.378H161.916H161.716ZM160.613 17.3897C160.613 17.3897 160.613 17.3231 160.613 17.1898V16.7279V16.2661V16.0662H160.813H161.275H161.737H161.937C161.937 16.0662 161.937 16.1328 161.937 16.2661V16.7279V17.1898V17.3897C161.937 17.3897 161.87 17.3897 161.737 17.3897H161.275H160.813H160.613ZM161.716 17.3897C161.716 17.3897 161.716 17.3231 161.716 17.1898V16.7279V16.2661V16.0662H161.916H162.378H162.84H163.04C163.04 16.0662 163.04 16.1328 163.04 16.2661V16.7279V17.1898V17.3897C163.04 17.3897 162.973 17.3897 162.84 17.3897H162.378H161.916H161.716ZM162.819 17.3897C162.819 17.3897 162.819 17.3231 162.819 17.1898V16.7279V16.2661V16.0662H163.019H163.481H163.943H164.143C164.143 16.0662 164.143 16.1328 164.143 16.2661V16.7279V17.1898V17.3897C164.143 17.3897 164.076 17.3897 163.943 17.3897H163.481H163.019H162.819ZM163.922 17.3897C163.922 17.3897 163.922 17.3231 163.922 17.1898V16.7279V16.2661V16.0662H164.122H164.584H165.046H165.246C165.246 16.0662 165.246 16.1328 165.246 16.2661V16.7279V17.1898V17.3897C165.246 17.3897 165.179 17.3897 165.046 17.3897H164.584H164.122H163.922ZM161.716 16.2868C161.716 16.2868 161.716 16.2201 161.716 16.0869V15.625V15.1631V14.9632H161.916H162.378H162.84H163.04C163.04 14.9632 163.04 15.0299 163.04 15.1631V15.625V16.0869V16.2868C163.04 16.2868 162.973 16.2868 162.84 16.2868H162.378H161.916H161.716ZM161.716 15.1838C161.716 15.1838 161.716 15.1172 161.716 14.9839V14.5221V14.0602V13.8603H161.916H162.378H162.84H163.04C163.04 13.8603 163.04 13.9269 163.04 14.0602V14.5221V14.9839V15.1838C163.04 15.1838 162.973 15.1838 162.84 15.1838H162.378H161.916H161.716ZM170.426 25.1103C170.426 25.1103 170.426 25.0437 170.426 24.9104V24.4485V23.9867V23.7868H170.626H171.088H171.55H171.75C171.75 23.7868 171.75 23.8534 171.75 23.9867V24.4485V24.9104V25.1103C171.75 25.1103 171.683 25.1103 171.55 25.1103H171.088H170.626H170.426ZM170.426 24.0074C170.426 24.0074 170.426 23.9407 170.426 23.8074V23.3456V22.8837V22.6838H170.626H171.088H171.55H171.75C171.75 22.6838 171.75 22.7505 171.75 22.8837V23.3456V23.8074V24.0074C171.75 24.0074 171.683 24.0074 171.55 24.0074H171.088H170.626H170.426ZM170.426 22.9044C170.426 22.9044 170.426 22.8378 170.426 22.7045V22.2426V21.7808V21.5809H170.626H171.088H171.55H171.75C171.75 21.5809 171.75 21.6475 171.75 21.7808V22.2426V22.7045V22.9044C171.75 22.9044 171.683 22.9044 171.55 22.9044H171.088H170.626H170.426ZM170.426 21.8015C170.426 21.8015 170.426 21.7348 170.426 21.6016V21.1397V20.6778V20.4779H170.626H171.088H171.55H171.75C171.75 20.4779 171.75 20.5446 171.75 20.6778V21.1397V21.6016V21.8015C171.75 21.8015 171.683 21.8015 171.55 21.8015H171.088H170.626H170.426ZM170.426 20.6985C170.426 20.6985 170.426 20.6319 170.426 20.4986V20.0368V19.5749V19.375H170.626H171.088H171.55H171.75C171.75 19.375 171.75 19.4416 171.75 19.5749V20.0368V20.4986V20.6985C171.75 20.6985 171.683 20.6985 171.55 20.6985H171.088H170.626H170.426ZM170.426 19.5956C170.426 19.5956 170.426 19.529 170.426 19.3957V18.9338V18.472V18.2721H170.626H171.088H171.55H171.75C171.75 18.2721 171.75 18.3387 171.75 18.472V18.9338V19.3957V19.5956C171.75 19.5956 171.683 19.5956 171.55 19.5956H171.088H170.626H170.426ZM170.426 18.4926C170.426 18.4926 170.426 18.426 170.426 18.2927V17.8309V17.369V17.1691H170.626H171.088H171.55H171.75C171.75 17.1691 171.75 17.2358 171.75 17.369V17.8309V18.2927V18.4926C171.75 18.4926 171.683 18.4926 171.55 18.4926H171.088H170.626H170.426ZM170.426 17.3897C170.426 17.3897 170.426 17.3231 170.426 17.1898V16.7279V16.2661V16.0662H170.626H171.088H171.55H171.75C171.75 16.0662 171.75 16.1328 171.75 16.2661V16.7279V17.1898V17.3897C171.75 17.3897 171.683 17.3897 171.55 17.3897H171.088H170.626H170.426ZM170.426 15.1838C170.426 15.1838 170.426 15.1172 170.426 14.9839V14.5221V14.0602V13.8603H170.626H171.088H171.55H171.75C171.75 13.8603 171.75 13.9269 171.75 14.0602V14.5221V14.9839V15.1838C171.75 15.1838 171.683 15.1838 171.55 15.1838H171.088H170.626H170.426ZM170.426 14.0809C170.426 14.0809 170.426 14.0142 170.426 13.881V13.4191V12.9573V12.7574H170.626H171.088H171.55H171.75C171.75 12.7574 171.75 12.824 171.75 12.9573V13.4191V13.881V14.0809C171.75 14.0809 171.683 14.0809 171.55 14.0809H171.088H170.626H170.426ZM177.49 25.1103C177.49 25.1103 177.49 25.0437 177.49 24.9104V24.4485V23.9867V23.7868H177.69H178.152H178.614H178.814C178.814 23.7868 178.814 23.8534 178.814 23.9867V24.4485V24.9104V25.1103C178.814 25.1103 178.747 25.1103 178.614 25.1103H178.152H177.69H177.49ZM181.902 25.1103C181.902 25.1103 181.902 25.0437 181.902 24.9104V24.4485V23.9867V23.7868H182.102H182.564H183.026H183.226C183.226 23.7868 183.226 23.8534 183.226 23.9867V24.4485V24.9104V25.1103C183.226 25.1103 183.159 25.1103 183.026 25.1103H182.564H182.102H181.902ZM177.49 24.0074C177.49 24.0074 177.49 23.9407 177.49 23.8074V23.3456V22.8837V22.6838H177.69H178.152H178.614H178.814C178.814 22.6838 178.814 22.7505 178.814 22.8837V23.3456V23.8074V24.0074C178.814 24.0074 178.747 24.0074 178.614 24.0074H178.152H177.69H177.49ZM181.902 24.0074C181.902 24.0074 181.902 23.9407 181.902 23.8074V23.3456V22.8837V22.6838H182.102H182.564H183.026H183.226C183.226 22.6838 183.226 22.7505 183.226 22.8837V23.3456V23.8074V24.0074C183.226 24.0074 183.159 24.0074 183.026 24.0074H182.564H182.102H181.902ZM177.49 22.9044C177.49 22.9044 177.49 22.8378 177.49 22.7045V22.2426V21.7808V21.5809H177.69H178.152H178.614H178.814C178.814 21.5809 178.814 21.6475 178.814 21.7808V22.2426V22.7045V22.9044C178.814 22.9044 178.747 22.9044 178.614 22.9044H178.152H177.69H177.49ZM181.902 22.9044C181.902 22.9044 181.902 22.8378 181.902 22.7045V22.2426V21.7808V21.5809H182.102H182.564H183.026H183.226C183.226 21.5809 183.226 21.6475 183.226 21.7808V22.2426V22.7045V22.9044C183.226 22.9044 183.159 22.9044 183.026 22.9044H182.564H182.102H181.902ZM177.49 21.8015C177.49 21.8015 177.49 21.7348 177.49 21.6016V21.1397V20.6778V20.4779H177.69H178.152H178.614H178.814C178.814 20.4779 178.814 20.5446 178.814 20.6778V21.1397V21.6016V21.8015C178.814 21.8015 178.747 21.8015 178.614 21.8015H178.152H177.69H177.49ZM181.902 21.8015C181.902 21.8015 181.902 21.7348 181.902 21.6016V21.1397V20.6778V20.4779H182.102H182.564H183.026H183.226C183.226 20.4779 183.226 20.5446 183.226 20.6778V21.1397V21.6016V21.8015C183.226 21.8015 183.159 21.8015 183.026 21.8015H182.564H182.102H181.902ZM177.49 20.6985C177.49 20.6985 177.49 20.6319 177.49 20.4986V20.0368V19.5749V19.375H177.69H178.152H178.614H178.814C178.814 19.375 178.814 19.4416 178.814 19.5749V20.0368V20.4986V20.6985C178.814 20.6985 178.747 20.6985 178.614 20.6985H178.152H177.69H177.49ZM181.902 20.6985C181.902 20.6985 181.902 20.6319 181.902 20.4986V20.0368V19.5749V19.375H182.102H182.564H183.026H183.226C183.226 19.375 183.226 19.4416 183.226 19.5749V20.0368V20.4986V20.6985C183.226 20.6985 183.159 20.6985 183.026 20.6985H182.564H182.102H181.902ZM177.49 19.5956C177.49 19.5956 177.49 19.529 177.49 19.3957V18.9338V18.472V18.2721H177.69H178.152H178.614H178.814C178.814 18.2721 178.814 18.3387 178.814 18.472V18.9338V19.3957V19.5956C178.814 19.5956 178.747 19.5956 178.614 19.5956H178.152H177.69H177.49ZM181.902 19.5956C181.902 19.5956 181.902 19.529 181.902 19.3957V18.9338V18.472V18.2721H182.102H182.564H183.026H183.226C183.226 18.2721 183.226 18.3387 183.226 18.472V18.9338V19.3957V19.5956C183.226 19.5956 183.159 19.5956 183.026 19.5956H182.564H182.102H181.902ZM177.49 18.4926C177.49 18.4926 177.49 18.426 177.49 18.2927V17.8309V17.369V17.1691H177.69H178.152H178.614H178.814C178.814 17.1691 178.814 17.2358 178.814 17.369V17.8309V18.2927V18.4926C178.814 18.4926 178.747 18.4926 178.614 18.4926H178.152H177.69H177.49ZM178.593 18.4926C178.593 18.4926 178.593 18.426 178.593 18.2927V17.8309V17.369V17.1691H178.793H179.255H179.717H179.917C179.917 17.1691 179.917 17.2358 179.917 17.369V17.8309V18.2927V18.4926C179.917 18.4926 179.85 18.4926 179.717 18.4926H179.255H178.793H178.593ZM181.902 18.4926C181.902 18.4926 181.902 18.426 181.902 18.2927V17.8309V17.369V17.1691H182.102H182.564H183.026H183.226C183.226 17.1691 183.226 17.2358 183.226 17.369V17.8309V18.2927V18.4926C183.226 18.4926 183.159 18.4926 183.026 18.4926H182.564H182.102H181.902ZM177.49 17.3897C177.49 17.3897 177.49 17.3231 177.49 17.1898V16.7279V16.2661V16.0662H177.69H178.152H178.614H178.814C178.814 16.0662 178.814 16.1328 178.814 16.2661V16.7279V17.1898V17.3897C178.814 17.3897 178.747 17.3897 178.614 17.3897H178.152H177.69H177.49ZM179.696 17.3897C179.696 17.3897 179.696 17.3231 179.696 17.1898V16.7279V16.2661V16.0662H179.896H180.358H180.82H181.02C181.02 16.0662 181.02 16.1328 181.02 16.2661V16.7279V17.1898V17.3897C181.02 17.3897 180.953 17.3897 180.82 17.3897H180.358H179.896H179.696ZM180.799 17.3897C180.799 17.3897 180.799 17.3231 180.799 17.1898V16.7279V16.2661V16.0662H180.999H181.461H181.923H182.123C182.123 16.0662 182.123 16.1328 182.123 16.2661V16.7279V17.1898V17.3897C182.123 17.3897 182.056 17.3897 181.923 17.3897H181.461H180.999H180.799ZM188.968 28.4191C188.968 28.4191 188.968 28.3525 188.968 28.2192V27.7574V27.2955V27.0956H189.167H189.629H190.091H190.291C190.291 27.0956 190.291 27.1622 190.291 27.2955V27.7574V28.2192V28.4191C190.291 28.4191 190.224 28.4191 190.091 28.4191H189.629H189.167H188.968ZM190.07 28.4191C190.07 28.4191 190.07 28.3525 190.07 28.2192V27.7574V27.2955V27.0956H190.27H190.732H191.194H191.394C191.394 27.0956 191.394 27.1622 191.394 27.2955V27.7574V28.2192V28.4191C191.394 28.4191 191.327 28.4191 191.194 28.4191H190.732H190.27H190.07ZM191.173 28.4191C191.173 28.4191 191.173 28.3525 191.173 28.2192V27.7574V27.2955V27.0956H191.373H191.835H192.297H192.497C192.497 27.0956 192.497 27.1622 192.497 27.2955V27.7574V28.2192V28.4191C192.497 28.4191 192.43 28.4191 192.297 28.4191H191.835H191.373H191.173ZM192.276 28.4191C192.276 28.4191 192.276 28.3525 192.276 28.2192V27.7574V27.2955V27.0956H192.476H192.938H193.4H193.6C193.6 27.0956 193.6 27.1622 193.6 27.2955V27.7574V28.2192V28.4191C193.6 28.4191 193.533 28.4191 193.4 28.4191H192.938H192.476H192.276ZM193.379 27.3162C193.379 27.3162 193.379 27.2495 193.379 27.1163V26.6544V26.1926V25.9926H193.579H194.041H194.503H194.703C194.703 25.9926 194.703 26.0593 194.703 26.1926V26.6544V27.1163V27.3162C194.703 27.3162 194.636 27.3162 194.503 27.3162H194.041H193.579H193.379ZM193.379 26.2132C193.379 26.2132 193.379 26.1466 193.379 26.0133V25.5515V25.0896V24.8897H193.579H194.041H194.503H194.703C194.703 24.8897 194.703 24.9563 194.703 25.0896V25.5515V26.0133V26.2132C194.703 26.2132 194.636 26.2132 194.503 26.2132H194.041H193.579H193.379ZM190.07 25.1103C190.07 25.1103 190.07 25.0437 190.07 24.9104V24.4485V23.9867V23.7868H190.27H190.732H191.194H191.394C191.394 23.7868 191.394 23.8534 191.394 23.9867V24.4485V24.9104V25.1103C191.394 25.1103 191.327 25.1103 191.194 25.1103H190.732H190.27H190.07ZM191.173 25.1103C191.173 25.1103 191.173 25.0437 191.173 24.9104V24.4485V23.9867V23.7868H191.373H191.835H192.297H192.497C192.497 23.7868 192.497 23.8534 192.497 23.9867V24.4485V24.9104V25.1103C192.497 25.1103 192.43 25.1103 192.297 25.1103H191.835H191.373H191.173ZM192.276 25.1103C192.276 25.1103 192.276 25.0437 192.276 24.9104V24.4485V23.9867V23.7868H192.476H192.938H193.4H193.6C193.6 23.7868 193.6 23.8534 193.6 23.9867V24.4485V24.9104V25.1103C193.6 25.1103 193.533 25.1103 193.4 25.1103H192.938H192.476H192.276ZM190.07 24.0074C190.07 24.0074 190.07 23.9407 190.07 23.8074V23.3456V22.8837V22.6838H190.27H190.732H191.194H191.394C191.394 22.6838 191.394 22.7505 191.394 22.8837V23.3456V23.8074V24.0074C191.394 24.0074 191.327 24.0074 191.194 24.0074H190.732H190.27H190.07ZM190.07 22.9044C190.07 22.9044 190.07 22.8378 190.07 22.7045V22.2426V21.7808V21.5809H190.27H190.732H191.194H191.394C191.394 21.5809 191.394 21.6475 191.394 21.7808V22.2426V22.7045V22.9044C191.394 22.9044 191.327 22.9044 191.194 22.9044H190.732H190.27H190.07ZM191.173 22.9044C191.173 22.9044 191.173 22.8378 191.173 22.7045V22.2426V21.7808V21.5809H191.373H191.835H192.297H192.497C192.497 21.5809 192.497 21.6475 192.497 21.7808V22.2426V22.7045V22.9044C192.497 22.9044 192.43 22.9044 192.297 22.9044H191.835H191.373H191.173ZM192.276 22.9044C192.276 22.9044 192.276 22.8378 192.276 22.7045V22.2426V21.7808V21.5809H192.476H192.938H193.4H193.6C193.6 21.5809 193.6 21.6475 193.6 21.7808V22.2426V22.7045V22.9044C193.6 22.9044 193.533 22.9044 193.4 22.9044H192.938H192.476H192.276ZM188.968 21.8015C188.968 21.8015 188.968 21.7348 188.968 21.6016V21.1397V20.6778V20.4779H189.167H189.629H190.091H190.291C190.291 20.4779 190.291 20.5446 190.291 20.6778V21.1397V21.6016V21.8015C190.291 21.8015 190.224 21.8015 190.091 21.8015H189.629H189.167H188.968ZM193.379 21.8015C193.379 21.8015 193.379 21.7348 193.379 21.6016V21.1397V20.6778V20.4779H193.579H194.041H194.503H194.703C194.703 20.4779 194.703 20.5446 194.703 20.6778V21.1397V21.6016V21.8015C194.703 21.8015 194.636 21.8015 194.503 21.8015H194.041H193.579H193.379ZM188.968 20.6985C188.968 20.6985 188.968 20.6319 188.968 20.4986V20.0368V19.5749V19.375H189.167H189.629H190.091H190.291C190.291 19.375 190.291 19.4416 190.291 19.5749V20.0368V20.4986V20.6985C190.291 20.6985 190.224 20.6985 190.091 20.6985H189.629H189.167H188.968ZM193.379 20.6985C193.379 20.6985 193.379 20.6319 193.379 20.4986V20.0368V19.5749V19.375H193.579H194.041H194.503H194.703C194.703 19.375 194.703 19.4416 194.703 19.5749V20.0368V20.4986V20.6985C194.703 20.6985 194.636 20.6985 194.503 20.6985H194.041H193.579H193.379ZM188.968 19.5956C188.968 19.5956 188.968 19.529 188.968 19.3957V18.9338V18.472V18.2721H189.167H189.629H190.091H190.291C190.291 18.2721 190.291 18.3387 190.291 18.472V18.9338V19.3957V19.5956C190.291 19.5956 190.224 19.5956 190.091 19.5956H189.629H189.167H188.968ZM193.379 19.5956C193.379 19.5956 193.379 19.529 193.379 19.3957V18.9338V18.472V18.2721H193.579H194.041H194.503H194.703C194.703 18.2721 194.703 18.3387 194.703 18.472V18.9338V19.3957V19.5956C194.703 19.5956 194.636 19.5956 194.503 19.5956H194.041H193.579H193.379ZM188.968 18.4926C188.968 18.4926 188.968 18.426 188.968 18.2927V17.8309V17.369V17.1691H189.167H189.629H190.091H190.291C190.291 17.1691 190.291 17.2358 190.291 17.369V17.8309V18.2927V18.4926C190.291 18.4926 190.224 18.4926 190.091 18.4926H189.629H189.167H188.968ZM193.379 18.4926C193.379 18.4926 193.379 18.426 193.379 18.2927V17.8309V17.369V17.1691H193.579H194.041H194.503H194.703C194.703 17.1691 194.703 17.2358 194.703 17.369V17.8309V18.2927V18.4926C194.703 18.4926 194.636 18.4926 194.503 18.4926H194.041H193.579H193.379ZM190.07 17.3897C190.07 17.3897 190.07 17.3231 190.07 17.1898V16.7279V16.2661V16.0662H190.27H190.732H191.194H191.394C191.394 16.0662 191.394 16.1328 191.394 16.2661V16.7279V17.1898V17.3897C191.394 17.3897 191.327 17.3897 191.194 17.3897H190.732H190.27H190.07ZM191.173 17.3897C191.173 17.3897 191.173 17.3231 191.173 17.1898V16.7279V16.2661V16.0662H191.373H191.835H192.297H192.497C192.497 16.0662 192.497 16.1328 192.497 16.2661V16.7279V17.1898V17.3897C192.497 17.3897 192.43 17.3897 192.297 17.3897H191.835H191.373H191.173ZM192.276 17.3897C192.276 17.3897 192.276 17.3231 192.276 17.1898V16.7279V16.2661V16.0662H192.476H192.938H193.4H193.6C193.6 16.0662 193.6 16.1328 193.6 16.2661V16.7279V17.1898V17.3897C193.6 17.3897 193.533 17.3897 193.4 17.3897H192.938H192.476H192.276ZM193.379 16.2868C193.379 16.2868 193.379 16.2201 193.379 16.0869V15.625V15.1631V14.9632H193.579H194.041H194.503H194.703C194.703 14.9632 194.703 15.0299 194.703 15.1631V15.625V16.0869V16.2868C194.703 16.2868 194.636 16.2868 194.503 16.2868H194.041H193.579H193.379ZM208.058 25.1103C208.058 25.1103 208.058 25.0437 208.058 24.9104V24.4485V23.9867V23.7868H208.258H208.72H209.182H209.382C209.382 23.7868 209.382 23.8534 209.382 23.9867V24.4485V24.9104V25.1103C209.382 25.1103 209.315 25.1103 209.182 25.1103H208.72H208.258H208.058ZM208.058 24.0074C208.058 24.0074 208.058 23.9407 208.058 23.8074V23.3456V22.8837V22.6838H208.258H208.72H209.182H209.382C209.382 22.6838 209.382 22.7505 209.382 22.8837V23.3456V23.8074V24.0074C209.382 24.0074 209.315 24.0074 209.182 24.0074H208.72H208.258H208.058ZM208.058 22.9044C208.058 22.9044 208.058 22.8378 208.058 22.7045V22.2426V21.7808V21.5809H208.258H208.72H209.182H209.382C209.382 21.5809 209.382 21.6475 209.382 21.7808V22.2426V22.7045V22.9044C209.382 22.9044 209.315 22.9044 209.182 22.9044H208.72H208.258H208.058ZM208.058 21.8015C208.058 21.8015 208.058 21.7348 208.058 21.6016V21.1397V20.6778V20.4779H208.258H208.72H209.182H209.382C209.382 20.4779 209.382 20.5446 209.382 20.6778V21.1397V21.6016V21.8015C209.382 21.8015 209.315 21.8015 209.182 21.8015H208.72H208.258H208.058ZM208.058 20.6985C208.058 20.6985 208.058 20.6319 208.058 20.4986V20.0368V19.5749V19.375H208.258H208.72H209.182H209.382C209.382 19.375 209.382 19.4416 209.382 19.5749V20.0368V20.4986V20.6985C209.382 20.6985 209.315 20.6985 209.182 20.6985H208.72H208.258H208.058ZM209.161 20.6985C209.161 20.6985 209.161 20.6319 209.161 20.4986V20.0368V19.5749V19.375H209.361H209.823H210.285H210.485C210.485 19.375 210.485 19.4416 210.485 19.5749V20.0368V20.4986V20.6985C210.485 20.6985 210.418 20.6985 210.285 20.6985H209.823H209.361H209.161ZM210.264 20.6985C210.264 20.6985 210.264 20.6319 210.264 20.4986V20.0368V19.5749V19.375H210.464H210.926H211.388H211.587C211.587 19.375 211.587 19.4416 211.587 19.5749V20.0368V20.4986V20.6985C211.587 20.6985 211.521 20.6985 211.388 20.6985H210.926H210.464H210.264ZM211.367 20.6985C211.367 20.6985 211.367 20.6319 211.367 20.4986V20.0368V19.5749V19.375H211.567H212.029H212.491H212.69C212.69 19.375 212.69 19.4416 212.69 19.5749V20.0368V20.4986V20.6985C212.69 20.6985 212.624 20.6985 212.491 20.6985H212.029H211.567H211.367ZM208.058 19.5956C208.058 19.5956 208.058 19.529 208.058 19.3957V18.9338V18.472V18.2721H208.258H208.72H209.182H209.382C209.382 18.2721 209.382 18.3387 209.382 18.472V18.9338V19.3957V19.5956C209.382 19.5956 209.315 19.5956 209.182 19.5956H208.72H208.258H208.058ZM212.47 19.5956C212.47 19.5956 212.47 19.529 212.47 19.3957V18.9338V18.472V18.2721H212.67H213.132H213.593H213.793C213.793 18.2721 213.793 18.3387 213.793 18.472V18.9338V19.3957V19.5956C213.793 19.5956 213.727 19.5956 213.593 19.5956H213.132H212.67H212.47ZM208.058 18.4926C208.058 18.4926 208.058 18.426 208.058 18.2927V17.8309V17.369V17.1691H208.258H208.72H209.182H209.382C209.382 17.1691 209.382 17.2358 209.382 17.369V17.8309V18.2927V18.4926C209.382 18.4926 209.315 18.4926 209.182 18.4926H208.72H208.258H208.058ZM212.47 18.4926C212.47 18.4926 212.47 18.426 212.47 18.2927V17.8309V17.369V17.1691H212.67H213.132H213.593H213.793C213.793 17.1691 213.793 17.2358 213.793 17.369V17.8309V18.2927V18.4926C213.793 18.4926 213.727 18.4926 213.593 18.4926H213.132H212.67H212.47ZM208.058 17.3897C208.058 17.3897 208.058 17.3231 208.058 17.1898V16.7279V16.2661V16.0662H208.258H208.72H209.182H209.382C209.382 16.0662 209.382 16.1328 209.382 16.2661V16.7279V17.1898V17.3897C209.382 17.3897 209.315 17.3897 209.182 17.3897H208.72H208.258H208.058ZM212.47 17.3897C212.47 17.3897 212.47 17.3231 212.47 17.1898V16.7279V16.2661V16.0662H212.67H213.132H213.593H213.793C213.793 16.0662 213.793 16.1328 213.793 16.2661V16.7279V17.1898V17.3897C213.793 17.3897 213.727 17.3897 213.593 17.3897H213.132H212.67H212.47ZM208.058 16.2868C208.058 16.2868 208.058 16.2201 208.058 16.0869V15.625V15.1631V14.9632H208.258H208.72H209.182H209.382C209.382 14.9632 209.382 15.0299 209.382 15.1631V15.625V16.0869V16.2868C209.382 16.2868 209.315 16.2868 209.182 16.2868H208.72H208.258H208.058ZM212.47 16.2868C212.47 16.2868 212.47 16.2201 212.47 16.0869V15.625V15.1631V14.9632H212.67H213.132H213.593H213.793C213.793 14.9632 213.793 15.0299 213.793 15.1631V15.625V16.0869V16.2868C213.793 16.2868 213.727 16.2868 213.593 16.2868H213.132H212.67H212.47ZM208.058 15.1838C208.058 15.1838 208.058 15.1172 208.058 14.9839V14.5221V14.0602V13.8603H208.258H208.72H209.182H209.382C209.382 13.8603 209.382 13.9269 209.382 14.0602V14.5221V14.9839V15.1838C209.382 15.1838 209.315 15.1838 209.182 15.1838H208.72H208.258H208.058ZM212.47 15.1838C212.47 15.1838 212.47 15.1172 212.47 14.9839V14.5221V14.0602V13.8603H212.67H213.132H213.593H213.793C213.793 13.8603 213.793 13.9269 213.793 14.0602V14.5221V14.9839V15.1838C213.793 15.1838 213.727 15.1838 213.593 15.1838H213.132H212.67H212.47ZM208.058 14.0809C208.058 14.0809 208.058 14.0142 208.058 13.881V13.4191V12.9573V12.7574H208.258H208.72H209.182H209.382C209.382 12.7574 209.382 12.824 209.382 12.9573V13.4191V13.881V14.0809C209.382 14.0809 209.315 14.0809 209.182 14.0809H208.72H208.258H208.058ZM209.161 14.0809C209.161 14.0809 209.161 14.0142 209.161 13.881V13.4191V12.9573V12.7574H209.361H209.823H210.285H210.485C210.485 12.7574 210.485 12.824 210.485 12.9573V13.4191V13.881V14.0809C210.485 14.0809 210.418 14.0809 210.285 14.0809H209.823H209.361H209.161ZM210.264 14.0809C210.264 14.0809 210.264 14.0142 210.264 13.881V13.4191V12.9573V12.7574H210.464H210.926H211.388H211.587C211.587 12.7574 211.587 12.824 211.587 12.9573V13.4191V13.881V14.0809C211.587 14.0809 211.521 14.0809 211.388 14.0809H210.926H210.464H210.264ZM211.367 14.0809C211.367 14.0809 211.367 14.0142 211.367 13.881V13.4191V12.9573V12.7574H211.567H212.029H212.491H212.69C212.69 12.7574 212.69 12.824 212.69 12.9573V13.4191V13.881V14.0809C212.69 14.0809 212.624 14.0809 212.491 14.0809H212.029H211.567H211.367ZM220.089 25.1103C220.089 25.1103 220.089 25.0437 220.089 24.9104V24.4485V23.9867V23.7868H220.289H220.751H221.212H221.412C221.412 23.7868 221.412 23.8534 221.412 23.9867V24.4485V24.9104V25.1103C221.412 25.1103 221.346 25.1103 221.212 25.1103H220.751H220.289H220.089ZM221.192 25.1103C221.192 25.1103 221.192 25.0437 221.192 24.9104V24.4485V23.9867V23.7868H221.392H221.853H222.315H222.515C222.515 23.7868 222.515 23.8534 222.515 23.9867V24.4485V24.9104V25.1103C222.515 25.1103 222.449 25.1103 222.315 25.1103H221.853H221.392H221.192ZM222.295 25.1103C222.295 25.1103 222.295 25.0437 222.295 24.9104V24.4485V23.9867V23.7868H222.495H222.956H223.418H223.618C223.618 23.7868 223.618 23.8534 223.618 23.9867V24.4485V24.9104V25.1103C223.618 25.1103 223.552 25.1103 223.418 25.1103H222.956H222.495H222.295ZM218.986 24.0074C218.986 24.0074 218.986 23.9407 218.986 23.8074V23.3456V22.8837V22.6838H219.186H219.648H220.109H220.309C220.309 22.6838 220.309 22.7505 220.309 22.8837V23.3456V23.8074V24.0074C220.309 24.0074 220.243 24.0074 220.109 24.0074H219.648H219.186H218.986ZM223.398 24.0074C223.398 24.0074 223.398 23.9407 223.398 23.8074V23.3456V22.8837V22.6838H223.597H224.059H224.521H224.721C224.721 22.6838 224.721 22.7505 224.721 22.8837V23.3456V23.8074V24.0074C224.721 24.0074 224.654 24.0074 224.521 24.0074H224.059H223.597H223.398ZM218.986 22.9044C218.986 22.9044 218.986 22.8378 218.986 22.7045V22.2426V21.7808V21.5809H219.186H219.648H220.109H220.309C220.309 21.5809 220.309 21.6475 220.309 21.7808V22.2426V22.7045V22.9044C220.309 22.9044 220.243 22.9044 220.109 22.9044H219.648H219.186H218.986ZM218.986 21.8015C218.986 21.8015 218.986 21.7348 218.986 21.6016V21.1397V20.6778V20.4779H219.186H219.648H220.109H220.309C220.309 20.4779 220.309 20.5446 220.309 20.6778V21.1397V21.6016V21.8015C220.309 21.8015 220.243 21.8015 220.109 21.8015H219.648H219.186H218.986ZM218.986 20.6985C218.986 20.6985 218.986 20.6319 218.986 20.4986V20.0368V19.5749V19.375H219.186H219.648H220.109H220.309C220.309 19.375 220.309 19.4416 220.309 19.5749V20.0368V20.4986V20.6985C220.309 20.6985 220.243 20.6985 220.109 20.6985H219.648H219.186H218.986ZM220.089 20.6985C220.089 20.6985 220.089 20.6319 220.089 20.4986V20.0368V19.5749V19.375H220.289H220.751H221.212H221.412C221.412 19.375 221.412 19.4416 221.412 19.5749V20.0368V20.4986V20.6985C221.412 20.6985 221.346 20.6985 221.212 20.6985H220.751H220.289H220.089ZM221.192 20.6985C221.192 20.6985 221.192 20.6319 221.192 20.4986V20.0368V19.5749V19.375H221.392H221.853H222.315H222.515C222.515 19.375 222.515 19.4416 222.515 19.5749V20.0368V20.4986V20.6985C222.515 20.6985 222.449 20.6985 222.315 20.6985H221.853H221.392H221.192ZM222.295 20.6985C222.295 20.6985 222.295 20.6319 222.295 20.4986V20.0368V19.5749V19.375H222.495H222.956H223.418H223.618C223.618 19.375 223.618 19.4416 223.618 19.5749V20.0368V20.4986V20.6985C223.618 20.6985 223.552 20.6985 223.418 20.6985H222.956H222.495H222.295ZM223.398 20.6985C223.398 20.6985 223.398 20.6319 223.398 20.4986V20.0368V19.5749V19.375H223.597H224.059H224.521H224.721C224.721 19.375 224.721 19.4416 224.721 19.5749V20.0368V20.4986V20.6985C224.721 20.6985 224.654 20.6985 224.521 20.6985H224.059H223.597H223.398ZM218.986 19.5956C218.986 19.5956 218.986 19.529 218.986 19.3957V18.9338V18.472V18.2721H219.186H219.648H220.109H220.309C220.309 18.2721 220.309 18.3387 220.309 18.472V18.9338V19.3957V19.5956C220.309 19.5956 220.243 19.5956 220.109 19.5956H219.648H219.186H218.986ZM223.398 19.5956C223.398 19.5956 223.398 19.529 223.398 19.3957V18.9338V18.472V18.2721H223.597H224.059H224.521H224.721C224.721 18.2721 224.721 18.3387 224.721 18.472V18.9338V19.3957V19.5956C224.721 19.5956 224.654 19.5956 224.521 19.5956H224.059H223.597H223.398ZM218.986 18.4926C218.986 18.4926 218.986 18.426 218.986 18.2927V17.8309V17.369V17.1691H219.186H219.648H220.109H220.309C220.309 17.1691 220.309 17.2358 220.309 17.369V17.8309V18.2927V18.4926C220.309 18.4926 220.243 18.4926 220.109 18.4926H219.648H219.186H218.986ZM223.398 18.4926C223.398 18.4926 223.398 18.426 223.398 18.2927V17.8309V17.369V17.1691H223.597H224.059H224.521H224.721C224.721 17.1691 224.721 17.2358 224.721 17.369V17.8309V18.2927V18.4926C224.721 18.4926 224.654 18.4926 224.521 18.4926H224.059H223.597H223.398ZM220.089 17.3897C220.089 17.3897 220.089 17.3231 220.089 17.1898V16.7279V16.2661V16.0662H220.289H220.751H221.212H221.412C221.412 16.0662 221.412 16.1328 221.412 16.2661V16.7279V17.1898V17.3897C221.412 17.3897 221.346 17.3897 221.212 17.3897H220.751H220.289H220.089ZM221.192 17.3897C221.192 17.3897 221.192 17.3231 221.192 17.1898V16.7279V16.2661V16.0662H221.392H221.853H222.315H222.515C222.515 16.0662 222.515 16.1328 222.515 16.2661V16.7279V17.1898V17.3897C222.515 17.3897 222.449 17.3897 222.315 17.3897H221.853H221.392H221.192ZM222.295 17.3897C222.295 17.3897 222.295 17.3231 222.295 17.1898V16.7279V16.2661V16.0662H222.495H222.956H223.418H223.618C223.618 16.0662 223.618 16.1328 223.618 16.2661V16.7279V17.1898V17.3897C223.618 17.3897 223.552 17.3897 223.418 17.3897H222.956H222.495H222.295ZM229.914 25.1103C229.914 25.1103 229.914 25.0437 229.914 24.9104V24.4485V23.9867V23.7868H230.113H230.575H231.037H231.237C231.237 23.7868 231.237 23.8534 231.237 23.9867V24.4485V24.9104V25.1103C231.237 25.1103 231.17 25.1103 231.037 25.1103H230.575H230.113H229.914ZM229.914 24.0074C229.914 24.0074 229.914 23.9407 229.914 23.8074V23.3456V22.8837V22.6838H230.113H230.575H231.037H231.237C231.237 22.6838 231.237 22.7505 231.237 22.8837V23.3456V23.8074V24.0074C231.237 24.0074 231.17 24.0074 231.037 24.0074H230.575H230.113H229.914ZM229.914 22.9044C229.914 22.9044 229.914 22.8378 229.914 22.7045V22.2426V21.7808V21.5809H230.113H230.575H231.037H231.237C231.237 21.5809 231.237 21.6475 231.237 21.7808V22.2426V22.7045V22.9044C231.237 22.9044 231.17 22.9044 231.037 22.9044H230.575H230.113H229.914ZM229.914 21.8015C229.914 21.8015 229.914 21.7348 229.914 21.6016V21.1397V20.6778V20.4779H230.113H230.575H231.037H231.237C231.237 20.4779 231.237 20.5446 231.237 20.6778V21.1397V21.6016V21.8015C231.237 21.8015 231.17 21.8015 231.037 21.8015H230.575H230.113H229.914ZM229.914 20.6985C229.914 20.6985 229.914 20.6319 229.914 20.4986V20.0368V19.5749V19.375H230.113H230.575H231.037H231.237C231.237 19.375 231.237 19.4416 231.237 19.5749V20.0368V20.4986V20.6985C231.237 20.6985 231.17 20.6985 231.037 20.6985H230.575H230.113H229.914ZM229.914 19.5956C229.914 19.5956 229.914 19.529 229.914 19.3957V18.9338V18.472V18.2721H230.113H230.575H231.037H231.237C231.237 18.2721 231.237 18.3387 231.237 18.472V18.9338V19.3957V19.5956C231.237 19.5956 231.17 19.5956 231.037 19.5956H230.575H230.113H229.914ZM233.222 19.5956C233.222 19.5956 233.222 19.529 233.222 19.3957V18.9338V18.472V18.2721H233.422H233.884H234.346H234.546C234.546 18.2721 234.546 18.3387 234.546 18.472V18.9338V19.3957V19.5956C234.546 19.5956 234.479 19.5956 234.346 19.5956H233.884H233.422H233.222ZM229.914 18.4926C229.914 18.4926 229.914 18.426 229.914 18.2927V17.8309V17.369V17.1691H230.113H230.575H231.037H231.237C231.237 17.1691 231.237 17.2358 231.237 17.369V17.8309V18.2927V18.4926C231.237 18.4926 231.17 18.4926 231.037 18.4926H230.575H230.113H229.914ZM233.222 18.4926C233.222 18.4926 233.222 18.426 233.222 18.2927V17.8309V17.369V17.1691H233.422H233.884H234.346H234.546C234.546 17.1691 234.546 17.2358 234.546 17.369V17.8309V18.2927V18.4926C234.546 18.4926 234.479 18.4926 234.346 18.4926H233.884H233.422H233.222ZM231.016 17.3897C231.016 17.3897 231.016 17.3231 231.016 17.1898V16.7279V16.2661V16.0662H231.216H231.678H232.14H232.34C232.34 16.0662 232.34 16.1328 232.34 16.2661V16.7279V17.1898V17.3897C232.34 17.3897 232.273 17.3897 232.14 17.3897H231.678H231.216H231.016ZM232.119 17.3897C232.119 17.3897 232.119 17.3231 232.119 17.1898V16.7279V16.2661V16.0662H232.319H232.781H233.243H233.443C233.443 16.0662 233.443 16.1328 233.443 16.2661V16.7279V17.1898V17.3897C233.443 17.3897 233.376 17.3897 233.243 17.3897H232.781H232.319H232.119ZM239.724 25.1103C239.724 25.1103 239.724 25.0437 239.724 24.9104V24.4485V23.9867V23.7868H239.924H240.386H240.848H241.048C241.048 23.7868 241.048 23.8534 241.048 23.9867V24.4485V24.9104V25.1103C241.048 25.1103 240.981 25.1103 240.848 25.1103H240.386H239.924H239.724ZM239.724 24.0074C239.724 24.0074 239.724 23.9407 239.724 23.8074V23.3456V22.8837V22.6838H239.924H240.386H240.848H241.048C241.048 22.6838 241.048 22.7505 241.048 22.8837V23.3456V23.8074V24.0074C241.048 24.0074 240.981 24.0074 240.848 24.0074H240.386H239.924H239.724ZM239.724 22.9044C239.724 22.9044 239.724 22.8378 239.724 22.7045V22.2426V21.7808V21.5809H239.924H240.386H240.848H241.048C241.048 21.5809 241.048 21.6475 241.048 21.7808V22.2426V22.7045V22.9044C241.048 22.9044 240.981 22.9044 240.848 22.9044H240.386H239.924H239.724ZM239.724 21.8015C239.724 21.8015 239.724 21.7348 239.724 21.6016V21.1397V20.6778V20.4779H239.924H240.386H240.848H241.048C241.048 20.4779 241.048 20.5446 241.048 20.6778V21.1397V21.6016V21.8015C241.048 21.8015 240.981 21.8015 240.848 21.8015H240.386H239.924H239.724ZM239.724 20.6985C239.724 20.6985 239.724 20.6319 239.724 20.4986V20.0368V19.5749V19.375H239.924H240.386H240.848H241.048C241.048 19.375 241.048 19.4416 241.048 19.5749V20.0368V20.4986V20.6985C241.048 20.6985 240.981 20.6985 240.848 20.6985H240.386H239.924H239.724ZM239.724 19.5956C239.724 19.5956 239.724 19.529 239.724 19.3957V18.9338V18.472V18.2721H239.924H240.386H240.848H241.048C241.048 18.2721 241.048 18.3387 241.048 18.472V18.9338V19.3957V19.5956C241.048 19.5956 240.981 19.5956 240.848 19.5956H240.386H239.924H239.724ZM239.724 18.4926C239.724 18.4926 239.724 18.426 239.724 18.2927V17.8309V17.369V17.1691H239.924H240.386H240.848H241.048C241.048 17.1691 241.048 17.2358 241.048 17.369V17.8309V18.2927V18.4926C241.048 18.4926 240.981 18.4926 240.848 18.4926H240.386H239.924H239.724ZM239.724 17.3897C239.724 17.3897 239.724 17.3231 239.724 17.1898V16.7279V16.2661V16.0662H239.924H240.386H240.848H241.048C241.048 16.0662 241.048 16.1328 241.048 16.2661V16.7279V17.1898V17.3897C241.048 17.3897 240.981 17.3897 240.848 17.3897H240.386H239.924H239.724ZM239.724 15.1838C239.724 15.1838 239.724 15.1172 239.724 14.9839V14.5221V14.0602V13.8603H239.924H240.386H240.848H241.048C241.048 13.8603 241.048 13.9269 241.048 14.0602V14.5221V14.9839V15.1838C241.048 15.1838 240.981 15.1838 240.848 15.1838H240.386H239.924H239.724ZM239.724 14.0809C239.724 14.0809 239.724 14.0142 239.724 13.881V13.4191V12.9573V12.7574H239.924H240.386H240.848H241.048C241.048 12.7574 241.048 12.824 241.048 12.9573V13.4191V13.881V14.0809C241.048 14.0809 240.981 14.0809 240.848 14.0809H240.386H239.924H239.724ZM247.891 25.1103C247.891 25.1103 247.891 25.0437 247.891 24.9104V24.4485V23.9867V23.7868H248.091H248.553H249.015H249.215C249.215 23.7868 249.215 23.8534 249.215 23.9867V24.4485V24.9104V25.1103C249.215 25.1103 249.148 25.1103 249.015 25.1103H248.553H248.091H247.891ZM248.994 25.1103C248.994 25.1103 248.994 25.0437 248.994 24.9104V24.4485V23.9867V23.7868H249.194H249.656H250.118H250.318C250.318 23.7868 250.318 23.8534 250.318 23.9867V24.4485V24.9104V25.1103C250.318 25.1103 250.251 25.1103 250.118 25.1103H249.656H249.194H248.994ZM250.097 25.1103C250.097 25.1103 250.097 25.0437 250.097 24.9104V24.4485V23.9867V23.7868H250.297H250.759H251.221H251.421C251.421 23.7868 251.421 23.8534 251.421 23.9867V24.4485V24.9104V25.1103C251.421 25.1103 251.354 25.1103 251.221 25.1103H250.759H250.297H250.097ZM246.789 24.0074C246.789 24.0074 246.789 23.9407 246.789 23.8074V23.3456V22.8837V22.6838H246.988H247.45H247.912H248.112C248.112 22.6838 248.112 22.7505 248.112 22.8837V23.3456V23.8074V24.0074C248.112 24.0074 248.045 24.0074 247.912 24.0074H247.45H246.988H246.789ZM251.2 24.0074C251.2 24.0074 251.2 23.9407 251.2 23.8074V23.3456V22.8837V22.6838H251.4H251.862H252.324H252.524C252.524 22.6838 252.524 22.7505 252.524 22.8837V23.3456V23.8074V24.0074C252.524 24.0074 252.457 24.0074 252.324 24.0074H251.862H251.4H251.2ZM246.789 22.9044C246.789 22.9044 246.789 22.8378 246.789 22.7045V22.2426V21.7808V21.5809H246.988H247.45H247.912H248.112C248.112 21.5809 248.112 21.6475 248.112 21.7808V22.2426V22.7045V22.9044C248.112 22.9044 248.045 22.9044 247.912 22.9044H247.45H246.988H246.789ZM251.2 22.9044C251.2 22.9044 251.2 22.8378 251.2 22.7045V22.2426V21.7808V21.5809H251.4H251.862H252.324H252.524C252.524 21.5809 252.524 21.6475 252.524 21.7808V22.2426V22.7045V22.9044C252.524 22.9044 252.457 22.9044 252.324 22.9044H251.862H251.4H251.2ZM246.789 21.8015C246.789 21.8015 246.789 21.7348 246.789 21.6016V21.1397V20.6778V20.4779H246.988H247.45H247.912H248.112C248.112 20.4779 248.112 20.5446 248.112 20.6778V21.1397V21.6016V21.8015C248.112 21.8015 248.045 21.8015 247.912 21.8015H247.45H246.988H246.789ZM251.2 21.8015C251.2 21.8015 251.2 21.7348 251.2 21.6016V21.1397V20.6778V20.4779H251.4H251.862H252.324H252.524C252.524 20.4779 252.524 20.5446 252.524 20.6778V21.1397V21.6016V21.8015C252.524 21.8015 252.457 21.8015 252.324 21.8015H251.862H251.4H251.2ZM246.789 20.6985C246.789 20.6985 246.789 20.6319 246.789 20.4986V20.0368V19.5749V19.375H246.988H247.45H247.912H248.112C248.112 19.375 248.112 19.4416 248.112 19.5749V20.0368V20.4986V20.6985C248.112 20.6985 248.045 20.6985 247.912 20.6985H247.45H246.988H246.789ZM251.2 20.6985C251.2 20.6985 251.2 20.6319 251.2 20.4986V20.0368V19.5749V19.375H251.4H251.862H252.324H252.524C252.524 19.375 252.524 19.4416 252.524 19.5749V20.0368V20.4986V20.6985C252.524 20.6985 252.457 20.6985 252.324 20.6985H251.862H251.4H251.2ZM246.789 19.5956C246.789 19.5956 246.789 19.529 246.789 19.3957V18.9338V18.472V18.2721H246.988H247.45H247.912H248.112C248.112 18.2721 248.112 18.3387 248.112 18.472V18.9338V19.3957V19.5956C248.112 19.5956 248.045 19.5956 247.912 19.5956H247.45H246.988H246.789ZM251.2 19.5956C251.2 19.5956 251.2 19.529 251.2 19.3957V18.9338V18.472V18.2721H251.4H251.862H252.324H252.524C252.524 18.2721 252.524 18.3387 252.524 18.472V18.9338V19.3957V19.5956C252.524 19.5956 252.457 19.5956 252.324 19.5956H251.862H251.4H251.2ZM246.789 18.4926C246.789 18.4926 246.789 18.426 246.789 18.2927V17.8309V17.369V17.1691H246.988H247.45H247.912H248.112C248.112 17.1691 248.112 17.2358 248.112 17.369V17.8309V18.2927V18.4926C248.112 18.4926 248.045 18.4926 247.912 18.4926H247.45H246.988H246.789ZM251.2 18.4926C251.2 18.4926 251.2 18.426 251.2 18.2927V17.8309V17.369V17.1691H251.4H251.862H252.324H252.524C252.524 17.1691 252.524 17.2358 252.524 17.369V17.8309V18.2927V18.4926C252.524 18.4926 252.457 18.4926 252.324 18.4926H251.862H251.4H251.2ZM247.891 17.3897C247.891 17.3897 247.891 17.3231 247.891 17.1898V16.7279V16.2661V16.0662H248.091H248.553H249.015H249.215C249.215 16.0662 249.215 16.1328 249.215 16.2661V16.7279V17.1898V17.3897C249.215 17.3897 249.148 17.3897 249.015 17.3897H248.553H248.091H247.891ZM248.994 17.3897C248.994 17.3897 248.994 17.3231 248.994 17.1898V16.7279V16.2661V16.0662H249.194H249.656H250.118H250.318C250.318 16.0662 250.318 16.1328 250.318 16.2661V16.7279V17.1898V17.3897C250.318 17.3897 250.251 17.3897 250.118 17.3897H249.656H249.194H248.994ZM250.097 17.3897C250.097 17.3897 250.097 17.3231 250.097 17.1898V16.7279V16.2661V16.0662H250.297H250.759H251.221H251.421C251.421 16.0662 251.421 16.1328 251.421 16.2661V16.7279V17.1898V17.3897C251.421 17.3897 251.354 17.3897 251.221 17.3897H250.759H250.297H250.097ZM259.369 25.1103C259.369 25.1103 259.369 25.0437 259.369 24.9104V24.4485V23.9867V23.7868H259.568H260.03H260.492H260.692C260.692 23.7868 260.692 23.8534 260.692 23.9867V24.4485V24.9104V25.1103C260.692 25.1103 260.625 25.1103 260.492 25.1103H260.03H259.568H259.369ZM260.471 25.1103C260.471 25.1103 260.471 25.0437 260.471 24.9104V24.4485V23.9867V23.7868H260.671H261.133H261.595H261.795C261.795 23.7868 261.795 23.8534 261.795 23.9867V24.4485V24.9104V25.1103C261.795 25.1103 261.728 25.1103 261.595 25.1103H261.133H260.671H260.471ZM262.677 25.1103C262.677 25.1103 262.677 25.0437 262.677 24.9104V24.4485V23.9867V23.7868H262.877H263.339H263.801H264.001C264.001 23.7868 264.001 23.8534 264.001 23.9867V24.4485V24.9104V25.1103C264.001 25.1103 263.934 25.1103 263.801 25.1103H263.339H262.877H262.677ZM258.266 24.0074C258.266 24.0074 258.266 23.9407 258.266 23.8074V23.3456V22.8837V22.6838H258.466H258.927H259.389H259.589C259.589 22.6838 259.589 22.7505 259.589 22.8837V23.3456V23.8074V24.0074C259.589 24.0074 259.522 24.0074 259.389 24.0074H258.927H258.466H258.266ZM261.574 24.0074C261.574 24.0074 261.574 23.9407 261.574 23.8074V23.3456V22.8837V22.6838H261.774H262.236H262.698H262.898C262.898 22.6838 262.898 22.7505 262.898 22.8837V23.3456V23.8074V24.0074C262.898 24.0074 262.831 24.0074 262.698 24.0074H262.236H261.774H261.574ZM262.677 24.0074C262.677 24.0074 262.677 23.9407 262.677 23.8074V23.3456V22.8837V22.6838H262.877H263.339H263.801H264.001C264.001 22.6838 264.001 22.7505 264.001 22.8837V23.3456V23.8074V24.0074C264.001 24.0074 263.934 24.0074 263.801 24.0074H263.339H262.877H262.677ZM258.266 22.9044C258.266 22.9044 258.266 22.8378 258.266 22.7045V22.2426V21.7808V21.5809H258.466H258.927H259.389H259.589C259.589 21.5809 259.589 21.6475 259.589 21.7808V22.2426V22.7045V22.9044C259.589 22.9044 259.522 22.9044 259.389 22.9044H258.927H258.466H258.266ZM262.677 22.9044C262.677 22.9044 262.677 22.8378 262.677 22.7045V22.2426V21.7808V21.5809H262.877H263.339H263.801H264.001C264.001 21.5809 264.001 21.6475 264.001 21.7808V22.2426V22.7045V22.9044C264.001 22.9044 263.934 22.9044 263.801 22.9044H263.339H262.877H262.677ZM258.266 21.8015C258.266 21.8015 258.266 21.7348 258.266 21.6016V21.1397V20.6778V20.4779H258.466H258.927H259.389H259.589C259.589 20.4779 259.589 20.5446 259.589 20.6778V21.1397V21.6016V21.8015C259.589 21.8015 259.522 21.8015 259.389 21.8015H258.927H258.466H258.266ZM262.677 21.8015C262.677 21.8015 262.677 21.7348 262.677 21.6016V21.1397V20.6778V20.4779H262.877H263.339H263.801H264.001C264.001 20.4779 264.001 20.5446 264.001 20.6778V21.1397V21.6016V21.8015C264.001 21.8015 263.934 21.8015 263.801 21.8015H263.339H262.877H262.677ZM258.266 20.6985C258.266 20.6985 258.266 20.6319 258.266 20.4986V20.0368V19.5749V19.375H258.466H258.927H259.389H259.589C259.589 19.375 259.589 19.4416 259.589 19.5749V20.0368V20.4986V20.6985C259.589 20.6985 259.522 20.6985 259.389 20.6985H258.927H258.466H258.266ZM262.677 20.6985C262.677 20.6985 262.677 20.6319 262.677 20.4986V20.0368V19.5749V19.375H262.877H263.339H263.801H264.001C264.001 19.375 264.001 19.4416 264.001 19.5749V20.0368V20.4986V20.6985C264.001 20.6985 263.934 20.6985 263.801 20.6985H263.339H262.877H262.677ZM258.266 19.5956C258.266 19.5956 258.266 19.529 258.266 19.3957V18.9338V18.472V18.2721H258.466H258.927H259.389H259.589C259.589 18.2721 259.589 18.3387 259.589 18.472V18.9338V19.3957V19.5956C259.589 19.5956 259.522 19.5956 259.389 19.5956H258.927H258.466H258.266ZM262.677 19.5956C262.677 19.5956 262.677 19.529 262.677 19.3957V18.9338V18.472V18.2721H262.877H263.339H263.801H264.001C264.001 18.2721 264.001 18.3387 264.001 18.472V18.9338V19.3957V19.5956C264.001 19.5956 263.934 19.5956 263.801 19.5956H263.339H262.877H262.677ZM258.266 18.4926C258.266 18.4926 258.266 18.426 258.266 18.2927V17.8309V17.369V17.1691H258.466H258.927H259.389H259.589C259.589 17.1691 259.589 17.2358 259.589 17.369V17.8309V18.2927V18.4926C259.589 18.4926 259.522 18.4926 259.389 18.4926H258.927H258.466H258.266ZM261.574 18.4926C261.574 18.4926 261.574 18.426 261.574 18.2927V17.8309V17.369V17.1691H261.774H262.236H262.698H262.898C262.898 17.1691 262.898 17.2358 262.898 17.369V17.8309V18.2927V18.4926C262.898 18.4926 262.831 18.4926 262.698 18.4926H262.236H261.774H261.574ZM262.677 18.4926C262.677 18.4926 262.677 18.426 262.677 18.2927V17.8309V17.369V17.1691H262.877H263.339H263.801H264.001C264.001 17.1691 264.001 17.2358 264.001 17.369V17.8309V18.2927V18.4926C264.001 18.4926 263.934 18.4926 263.801 18.4926H263.339H262.877H262.677ZM259.369 17.3897C259.369 17.3897 259.369 17.3231 259.369 17.1898V16.7279V16.2661V16.0662H259.568H260.03H260.492H260.692C260.692 16.0662 260.692 16.1328 260.692 16.2661V16.7279V17.1898V17.3897C260.692 17.3897 260.625 17.3897 260.492 17.3897H260.03H259.568H259.369ZM260.471 17.3897C260.471 17.3897 260.471 17.3231 260.471 17.1898V16.7279V16.2661V16.0662H260.671H261.133H261.595H261.795C261.795 16.0662 261.795 16.1328 261.795 16.2661V16.7279V17.1898V17.3897C261.795 17.3897 261.728 17.3897 261.595 17.3897H261.133H260.671H260.471ZM262.677 17.3897C262.677 17.3897 262.677 17.3231 262.677 17.1898V16.7279V16.2661V16.0662H262.877H263.339H263.801H264.001C264.001 16.0662 264.001 16.1328 264.001 16.2661V16.7279V17.1898V17.3897C264.001 17.3897 263.934 17.3897 263.801 17.3897H263.339H262.877H262.677ZM262.677 16.2868C262.677 16.2868 262.677 16.2201 262.677 16.0869V15.625V15.1631V14.9632H262.877H263.339H263.801H264.001C264.001 14.9632 264.001 15.0299 264.001 15.1631V15.625V16.0869V16.2868C264.001 16.2868 263.934 16.2868 263.801 16.2868H263.339H262.877H262.677ZM262.677 15.1838C262.677 15.1838 262.677 15.1172 262.677 14.9839V14.5221V14.0602V13.8603H262.877H263.339H263.801H264.001C264.001 13.8603 264.001 13.9269 264.001 14.0602V14.5221V14.9839V15.1838C264.001 15.1838 263.934 15.1838 263.801 15.1838H263.339H262.877H262.677ZM262.677 14.0809C262.677 14.0809 262.677 14.0142 262.677 13.881V13.4191V12.9573V12.7574H262.877H263.339H263.801H264.001C264.001 12.7574 264.001 12.824 264.001 12.9573V13.4191V13.881V14.0809C264.001 14.0809 263.934 14.0809 263.801 14.0809H263.339H262.877H262.677ZM262.677 12.9779C262.677 12.9779 262.677 12.9113 262.677 12.778V12.3162V11.8543V11.6544H262.877H263.339H263.801H264.001C264.001 11.6544 264.001 11.721 264.001 11.8543V12.3162V12.778V12.9779C264.001 12.9779 263.934 12.9779 263.801 12.9779H263.339H262.877H262.677Z" fill="#E5C46B"/>
<path d="M205.063 81.785V82.258H204.117V81.785V75.378H200.333V81.785V82.258H199.387V81.785V74.905V74.432H199.86H204.59H205.063V74.905V81.785ZM207.854 81.312H210.133V77.743H207.854V81.312ZM207.381 82.258H206.908V81.785V77.27V76.797H207.381H210.606H211.079V77.27V81.785V82.258H210.606H207.381Z" fill="white" fill-opacity="0.9"/>
<path d="M199.387 52.905V52.432H200.333V52.905V55.8827H201.559H202.505H203.687V52.905V52.432H204.633V52.905V56.3557V56.8287H204.16H202.505V59.785V60.258H201.559V59.785V56.8287H199.86H199.387V56.3557V52.905ZM207.423 57.0652H209.702V55.743H207.423V57.0652ZM206.477 57.0652V55.27V54.797H206.95H210.175H210.648V55.27V57.5382V58.0112H210.175H207.423V59.312H210.175H210.648V60.258H210.175H206.95H206.477V59.785V58.0112V57.0652ZM215.765 54.797H216.238V55.743H215.765H213.658V57.0545H215.98H216.453V57.5275V59.785V60.258H215.98H212.97H212.497V59.312H212.97H215.507V58.0005H213.185H212.712V57.5275V55.27V54.797H213.185H215.765Z" fill="white" fill-opacity="0.9"/>
<path d="M198.978 100.055L198.763 99.432H199.763L199.882 99.7545L201.795 105.334L203.709 99.7545L203.827 99.432H204.827L204.612 100.055L202.247 106.935L202.128 107.258H201.462L201.344 106.935L198.978 100.055ZM206.993 104.065H209.272V102.743H206.993V104.065ZM206.047 104.065V102.27V101.797H206.52H209.745H210.218V102.27V104.538V105.011H209.745H206.993V106.312H209.745H210.218V107.258H209.745H206.52H206.047V106.785V105.011V104.065ZM213.496 101.797H214.475H214.948V102.743H214.475H213.496V106.312H214.475H214.948V107.258H214.475H213.023H212.55V106.785V102.743H212.54H212.067V101.797H212.54H212.55V99.733V99.26H213.496V99.733V101.797ZM217.31 106.312H219.589V102.743H217.31V106.312ZM216.837 107.258H216.364V106.785V102.27V101.797H216.837H220.062H220.535V102.27V106.785V107.258H220.062H216.837Z" fill="white" fill-opacity="0.9"/>
<path d="M204.117 125.872V123.378H200.333V125.872H204.117ZM204.117 126.818H200.333V129.785V130.258H199.387V129.785V126.818V125.872V122.905V122.432H199.86H204.59H205.063V122.905V125.872V126.818V129.785V130.258H204.117V129.785V126.818ZM207.854 125.743V129.312H210.133V125.743H207.854ZM207.854 124.797H210.606H211.079V125.27V129.785V130.258H210.606H207.381H206.908V129.785V125.743V124.797V122.733V122.26H207.854V122.733V124.797ZM216.195 124.797H216.668V125.743H216.195H214.088V127.054H216.41H216.883V127.527V129.785V130.258H216.41H213.4H212.927V129.312H213.4H215.937V128H213.615H213.142V127.527V125.27V124.797H213.615H216.195ZM220.167 124.797H221.145H221.618V125.743H221.145H220.167V129.312H221.145H221.618V130.258H221.145H219.694H219.221V129.785V125.743H219.21H218.737V124.797H219.21H219.221V122.733V122.26H220.167V122.733V124.797ZM226.26 128H223.981V129.312H226.26V128ZM227.206 128V129.785V130.258H226.733H223.508H223.035V129.785V127.527V127.054H223.508H226.26V125.743H223.508H223.035V124.797H223.508H226.733H227.206V125.27V127.054V128ZM229.549 122.862H230.022V123.808H229.549H229.527H229.054V122.862H229.527H229.549ZM229.054 125.27V124.797H230V125.27V129.785V130.258H229.054V129.785V125.27ZM236.022 129.785V130.258H235.076V129.785V125.743H232.797V129.785V130.258H231.851V129.785V125.27V124.797H232.324H235.549H236.022V125.27V129.785Z" fill="white" fill-opacity="0.9"/>
<rect x="181.5" y="50.5" width="11" height="11" fill="#4FB848" stroke="white"/>
<rect x="181.5" y="72.5" width="11" height="11" fill="#EB1616" stroke="white"/>
<rect x="181.5" y="97.5" width="11" height="11" fill="#E5C46B" stroke="white"/>
<rect x="181.5" y="120.5" width="11" height="11" fill="#2077E0" stroke="white"/>
<path d="M72 40C80.9002 40 89.6004 42.6392 97.0007 47.5839C104.401 52.5285 110.169 59.5566 113.575 67.7792C116.981 76.0019 117.872 85.0499 116.135 93.7791C114.399 102.508 110.113 110.526 103.82 116.82L99.5008 112.501C104.94 107.062 108.644 100.132 110.145 92.5874C111.645 85.0431 110.875 77.2233 107.931 70.1167C104.988 63.0101 100.003 56.936 93.6072 52.6625C87.2115 48.389 79.6921 46.108 72 46.108L72 40Z" fill="#EB1616"/>
<path d="M72 28C80.4589 28 88.8118 29.8827 96.4528 33.5116C104.094 37.1404 110.831 42.4245 116.177 48.9804C121.522 55.5363 125.341 63.1998 127.357 71.415C129.374 79.6302 129.536 88.1911 127.833 96.4768C126.129 104.762 122.603 112.565 117.51 119.319C112.417 126.073 105.885 131.609 98.3871 135.524C90.8891 139.44 82.6136 141.638 74.1607 141.959C65.7079 142.28 57.2896 140.715 49.5165 137.378L52.1882 131.154C59.0376 134.094 66.4556 135.473 73.904 135.191C81.3524 134.908 88.6445 132.971 95.2515 129.521C101.858 126.07 107.615 121.192 112.102 115.241C116.59 109.29 119.697 102.414 121.198 95.113C122.699 87.8119 122.556 80.2683 120.779 73.0293C119.003 65.7903 115.638 59.0375 110.927 53.2606C106.217 47.4837 100.28 42.8275 93.5471 39.6299C86.8141 36.4322 79.4538 34.7733 72 34.7733L72 28Z" fill="#4FB848"/>
<path d="M72 51C77.6013 51 83.1103 52.4257 88.0084 55.1429C92.9065 57.8601 97.0323 61.7793 99.9973 66.5314C102.962 71.2836 104.669 76.7122 104.956 82.3061C105.244 87.9 104.103 93.475 101.641 98.506C99.1786 103.537 95.4763 107.859 90.8827 111.064C86.289 114.269 80.9551 116.252 75.3834 116.826C69.8116 117.4 64.1854 116.547 59.0346 114.346C53.8837 112.146 49.3778 108.67 45.9412 104.247L50.3849 100.794C53.2355 104.463 56.9731 107.346 61.2455 109.171C65.518 110.997 70.1848 111.705 74.8064 111.228C79.428 110.752 83.8523 109.107 87.6627 106.449C91.473 103.79 94.5439 100.206 96.5862 96.0324C98.6285 91.8592 99.575 87.2349 99.3365 82.5949C99.098 77.955 97.6824 73.4521 95.223 69.5103C92.7636 65.5685 89.3413 62.3177 85.2785 60.0638C81.2157 57.81 76.6461 56.6274 72 56.6274L72 51Z" fill="#E5C46B"/>
<path d="M72 62C77.0999 62 82.0255 63.8559 85.8574 67.2212C89.6894 70.5865 92.1657 75.2313 92.8242 80.2885C93.4827 85.3457 92.2784 90.4697 89.436 94.7041C86.5937 98.9385 82.3075 101.994 77.3777 103.3L76 98.0993C79.6669 97.1279 82.855 94.8553 84.9692 91.7057C87.0834 88.5561 87.9792 84.7447 87.4894 80.9831C86.9996 77.2215 85.1576 73.7666 82.3074 71.2635C79.4571 68.7603 75.7934 67.3799 72 67.3799L72 62Z" fill="#2077E0"/>
</svg>
