<svg width="40" height="40" viewBox="0 0 40 40" fill="none" xmlns="http://www.w3.org/2000/svg">
<g filter="url(#filter0_ddd_3057_359068)">
<path d="M33.9997 18.0005H32.9229V19.3339H33.9997V18.0005Z" fill="black"/>
<path d="M33.9997 16.6665H32.9229V17.9995H33.9997V16.6665Z" fill="black"/>
<path d="M32.9228 18.0005H31.8459V19.3339H32.9228V18.0005Z" fill="black"/>
<path d="M32.9228 16.6665H31.8459V17.9995H32.9228V16.6665Z" fill="#C38464"/>
<path d="M32.9228 15.333H31.8459V16.6665H32.9228V15.333Z" fill="black"/>
<path d="M31.8461 32.667H30.7693V34H31.8461V32.667Z" fill="black"/>
<path d="M31.8461 31.3335H30.7693V32.6669H31.8461V31.3335Z" fill="black"/>
<path d="M31.8461 30H30.7693V31.3335H31.8461V30Z" fill="black"/>
<path d="M31.8461 28.667H30.7693V30H31.8461V28.667Z" fill="black"/>
<path d="M31.8461 27.3335H30.7693V28.6669H31.8461V27.3335Z" fill="black"/>
<path d="M31.8461 25.9995H30.7693V27.333H31.8461V25.9995Z" fill="black"/>
<path d="M31.8461 24.667H30.7693V26H31.8461V24.667Z" fill="black"/>
<path d="M31.8461 23.3335H30.7693V24.6669H31.8461V23.3335Z" fill="black"/>
<path d="M31.8461 21.9995H30.7693V23.333H31.8461V21.9995Z" fill="black"/>
<path d="M31.8461 20.667H30.7693V22H31.8461V20.667Z" fill="black"/>
<path d="M31.8461 19.3335H30.7693V20.6669H31.8461V19.3335Z" fill="black"/>
<path d="M31.8461 18.0005H30.7693V19.3339H31.8461V18.0005Z" fill="black"/>
<path d="M31.8461 16.6665H30.7693V17.9995H31.8461V16.6665Z" fill="#C38464"/>
<path d="M31.8461 15.333H30.7693V16.6665H31.8461V15.333Z" fill="#C38464"/>
<path d="M31.8461 14.0005H30.7693V15.3339H31.8461V14.0005Z" fill="black"/>
<path d="M30.7692 32.667H29.6924V34H30.7692V32.667Z" fill="black"/>
<path d="M30.7692 31.3335H29.6924V32.6669H30.7692V31.3335Z" fill="#CCCCCC"/>
<path d="M30.7692 30H29.6924V31.3335H30.7692V30Z" fill="black"/>
<path d="M30.7692 28.667H29.6924V30H30.7692V28.667Z" fill="#CCCCCC"/>
<path d="M30.7692 27.3335H29.6924V28.6669H30.7692V27.3335Z" fill="#CCCCCC"/>
<path d="M30.7692 25.9995H29.6924V27.333H30.7692V25.9995Z" fill="#CCCCCC"/>
<path d="M30.7692 24.667H29.6924V26H30.7692V24.667Z" fill="black"/>
<path d="M30.7692 23.3335H29.6924V24.6669H30.7692V23.3335Z" fill="#CCCCCC"/>
<path d="M30.7692 21.9995H29.6924V23.333H30.7692V21.9995Z" fill="#CCCCCC"/>
<path d="M30.7692 20.667H29.6924V22H30.7692V20.667Z" fill="black"/>
<path d="M30.7692 19.3335H29.6924V20.6669H30.7692V19.3335Z" fill="#CCCCCC"/>
<path d="M30.7692 18.0005H29.6924V19.3339H30.7692V18.0005Z" fill="black"/>
<path d="M30.7692 16.6665H29.6924V17.9995H30.7692V16.6665Z" fill="#C38464"/>
<path d="M30.7692 15.333H29.6924V16.6665H30.7692V15.333Z" fill="#C38464"/>
<path d="M30.7692 14.0005H29.6924V15.3339H30.7692V14.0005Z" fill="#C38464"/>
<path d="M30.7692 12.6665H29.6924V13.9995H30.7692V12.6665Z" fill="black"/>
<path d="M29.6921 32.667H28.6152V34H29.6921V32.667Z" fill="black"/>
<path d="M29.6921 31.3335H28.6152V32.6669H29.6921V31.3335Z" fill="#CCCCCC"/>
<path d="M29.6921 30H28.6152V31.3335H29.6921V30Z" fill="#DBDDDD"/>
<path d="M29.6921 28.667H28.6152V30H29.6921V28.667Z" fill="#F1F2F2"/>
<path d="M29.6921 27.3335H28.6152V28.6669H29.6921V27.3335Z" fill="#DBDDDD"/>
<path d="M29.6921 25.9995H28.6152V27.333H29.6921V25.9995Z" fill="#F1F2F2"/>
<path d="M29.6921 24.667H28.6152V26H29.6921V24.667Z" fill="#DBDDDD"/>
<path d="M29.6921 23.3335H28.6152V24.6669H29.6921V23.3335Z" fill="#F1F2F2"/>
<path d="M29.6921 21.9995H28.6152V23.333H29.6921V21.9995Z" fill="#DBDDDD"/>
<path d="M29.6921 20.667H28.6152V22H29.6921V20.667Z" fill="black"/>
<path d="M29.6921 19.3335H28.6152V20.6669H29.6921V19.3335Z" fill="#CCCCCC"/>
<path d="M29.6921 18.0005H28.6152V19.3339H29.6921V18.0005Z" fill="black"/>
<path d="M29.6921 16.6665H28.6152V17.9995H29.6921V16.6665Z" fill="#C38464"/>
<path d="M29.6921 15.333H28.6152V16.6665H29.6921V15.333Z" fill="black"/>
<path d="M29.6921 14.0005H28.6152V15.3339H29.6921V14.0005Z" fill="#C38464"/>
<path d="M29.6921 12.6665H28.6152V13.9995H29.6921V12.6665Z" fill="#C38464"/>
<path d="M29.6921 11.333H28.6152V12.6665H29.6921V11.333Z" fill="black"/>
<path d="M28.6152 32.667H27.5383V34H28.6152V32.667Z" fill="black"/>
<path d="M28.6152 31.3335H27.5383V32.6669H28.6152V31.3335Z" fill="#CCCCCC"/>
<path d="M28.6152 30H27.5383V31.3335H28.6152V30Z" fill="#F1F2F2"/>
<path d="M28.6152 28.667H27.5383V30H28.6152V28.667Z" fill="black"/>
<path d="M28.6152 27.3335H27.5383V28.6669H28.6152V27.3335Z" fill="black"/>
<path d="M28.6152 25.9995H27.5383V27.333H28.6152V25.9995Z" fill="black"/>
<path d="M28.6152 24.667H27.5383V26H28.6152V24.667Z" fill="black"/>
<path d="M28.6152 23.3335H27.5383V24.6669H28.6152V23.3335Z" fill="black"/>
<path d="M28.6152 21.9995H27.5383V23.333H28.6152V21.9995Z" fill="#F1F2F2"/>
<path d="M28.6152 20.667H27.5383V22H28.6152V20.667Z" fill="#DBDDDD"/>
<path d="M28.6152 19.3335H27.5383V20.6669H28.6152V19.3335Z" fill="#CCCCCC"/>
<path d="M28.6152 18.0005H27.5383V19.3339H28.6152V18.0005Z" fill="black"/>
<path d="M28.6152 16.6665H27.5383V17.9995H28.6152V16.6665Z" fill="#C38464"/>
<path d="M28.6152 15.333H27.5383V16.6665H28.6152V15.333Z" fill="#E5C764"/>
<path d="M28.6152 14.0005H27.5383V15.3339H28.6152V14.0005Z" fill="black"/>
<path d="M28.6152 12.6665H27.5383V13.9995H28.6152V12.6665Z" fill="#C38464"/>
<path d="M28.6152 11.333H27.5383V12.6665H28.6152V11.333Z" fill="#C38464"/>
<path d="M28.6152 10H27.5383V11.3335H28.6152V10Z" fill="black"/>
<path d="M27.5385 32.667H26.4617V34H27.5385V32.667Z" fill="black"/>
<path d="M27.5385 31.3335H26.4617V32.6669H27.5385V31.3335Z" fill="black"/>
<path d="M27.5385 30H26.4617V31.3335H27.5385V30Z" fill="#F1F2F2"/>
<path d="M27.5385 28.667H26.4617V30H27.5385V28.667Z" fill="black"/>
<path d="M27.5385 27.3335H26.4617V28.6669H27.5385V27.3335Z" fill="#D7F6FF"/>
<path d="M27.5385 25.9995H26.4617V27.333H27.5385V25.9995Z" fill="black"/>
<path d="M27.5385 24.667H26.4617V26H27.5385V24.667Z" fill="#D7F6FF"/>
<path d="M27.5385 23.3335H26.4617V24.6669H27.5385V23.3335Z" fill="black"/>
<path d="M27.5385 21.9995H26.4617V23.333H27.5385V21.9995Z" fill="#DBDDDD"/>
<path d="M27.5385 20.667H26.4617V22H27.5385V20.667Z" fill="#F1F2F2"/>
<path d="M27.5385 19.3335H26.4617V20.6669H27.5385V19.3335Z" fill="#CCCCCC"/>
<path d="M27.5385 18.0005H26.4617V19.3339H27.5385V18.0005Z" fill="black"/>
<path d="M27.5385 16.6665H26.4617V17.9995H27.5385V16.6665Z" fill="#C38464"/>
<path d="M27.5385 15.333H26.4617V16.6665H27.5385V15.333Z" fill="#C38464"/>
<path d="M27.5385 14.0005H26.4617V15.3339H27.5385V14.0005Z" fill="black"/>
<path d="M27.5385 12.6665H26.4617V13.9995H27.5385V12.6665Z" fill="#E5C764"/>
<path d="M27.5385 11.333H26.4617V12.6665H27.5385V11.333Z" fill="#C38464"/>
<path d="M27.5385 10H26.4617V11.3335H27.5385V10Z" fill="#C38464"/>
<path d="M27.5385 8.6665H26.4617V9.99948H27.5385V8.6665Z" fill="black"/>
<path d="M26.4616 32.667H25.3848V34H26.4616V32.667Z" fill="black"/>
<path d="M26.4616 31.3335H25.3848V32.6669H26.4616V31.3335Z" fill="#CCCCCC"/>
<path d="M26.4616 30H25.3848V31.3335H26.4616V30Z" fill="#F1F2F2"/>
<path d="M26.4616 28.667H25.3848V30H26.4616V28.667Z" fill="black"/>
<path d="M26.4616 27.3335H25.3848V28.6669H26.4616V27.3335Z" fill="#EEFCFF"/>
<path d="M26.4616 25.9995H25.3848V27.333H26.4616V25.9995Z" fill="black"/>
<path d="M26.4616 24.667H25.3848V26H26.4616V24.667Z" fill="#EEFCFF"/>
<path d="M26.4616 23.3335H25.3848V24.6669H26.4616V23.3335Z" fill="black"/>
<path d="M26.4616 21.9995H25.3848V23.333H26.4616V21.9995Z" fill="#F1F2F2"/>
<path d="M26.4616 20.667H25.3848V22H26.4616V20.667Z" fill="#DBDDDD"/>
<path d="M26.4616 19.3335H25.3848V20.6669H26.4616V19.3335Z" fill="#CCCCCC"/>
<path d="M26.4616 18.0005H25.3848V19.3339H26.4616V18.0005Z" fill="black"/>
<path d="M26.4616 16.6665H25.3848V17.9995H26.4616V16.6665Z" fill="#C38464"/>
<path d="M26.4616 15.333H25.3848V16.6665H26.4616V15.333Z" fill="#E5C764"/>
<path d="M26.4616 14.0005H25.3848V15.3339H26.4616V14.0005Z" fill="#C38464"/>
<path d="M26.4616 12.6665H25.3848V13.9995H26.4616V12.6665Z" fill="#E5C764"/>
<path d="M26.4616 11.333H25.3848V12.6665H26.4616V11.333Z" fill="#E5C764"/>
<path d="M26.4616 10H25.3848V11.3335H26.4616V10Z" fill="#C38464"/>
<path d="M26.4616 8.6665H25.3848V9.99948H26.4616V8.6665Z" fill="#C38464"/>
<path d="M26.4616 7.3335H25.3848V8.66695H26.4616V7.3335Z" fill="black"/>
<path d="M25.3845 32.667H24.3076V34H25.3845V32.667Z" fill="black"/>
<path d="M25.3845 31.3335H24.3076V32.6669H25.3845V31.3335Z" fill="#CCCCCC"/>
<path d="M25.3845 30H24.3076V31.3335H25.3845V30Z" fill="#F1F2F2"/>
<path d="M25.3845 28.667H24.3076V30H25.3845V28.667Z" fill="black"/>
<path d="M25.3845 27.3335H24.3076V28.6669H25.3845V27.3335Z" fill="black"/>
<path d="M25.3845 25.9995H24.3076V27.333H25.3845V25.9995Z" fill="black"/>
<path d="M25.3845 24.667H24.3076V26H25.3845V24.667Z" fill="black"/>
<path d="M25.3845 23.3335H24.3076V24.6669H25.3845V23.3335Z" fill="black"/>
<path d="M25.3845 21.9995H24.3076V23.333H25.3845V21.9995Z" fill="#F1F2F2"/>
<path d="M25.3845 20.667H24.3076V22H25.3845V20.667Z" fill="black"/>
<path d="M25.3845 19.3335H24.3076V20.6669H25.3845V19.3335Z" fill="#CCCCCC"/>
<path d="M25.3845 18.0005H24.3076V19.3339H25.3845V18.0005Z" fill="black"/>
<path d="M25.3845 16.6665H24.3076V17.9995H25.3845V16.6665Z" fill="#C38464"/>
<path d="M25.3845 15.333H24.3076V16.6665H25.3845V15.333Z" fill="#C38464"/>
<path d="M25.3845 14.0005H24.3076V15.3339H25.3845V14.0005Z" fill="#E5C764"/>
<path d="M25.3845 12.6665H24.3076V13.9995H25.3845V12.6665Z" fill="#E5C764"/>
<path d="M25.3845 11.333H24.3076V12.6665H25.3845V11.333Z" fill="black"/>
<path d="M25.3845 10H24.3076V11.3335H25.3845V10Z" fill="#E5C764"/>
<path d="M25.3845 8.6665H24.3076V9.99948H25.3845V8.6665Z" fill="#C38464"/>
<path d="M25.3845 7.3335H24.3076V8.66695H25.3845V7.3335Z" fill="#C38464"/>
<path d="M25.3845 6H24.3076V7.33345H25.3845V6Z" fill="black"/>
<path d="M24.3076 32.667H23.2307V34H24.3076V32.667Z" fill="black"/>
<path d="M24.3076 31.3335H23.2307V32.6669H24.3076V31.3335Z" fill="#CCCCCC"/>
<path d="M24.3076 30H23.2307V31.3335H24.3076V30Z" fill="#F1F2F2"/>
<path d="M24.3076 28.667H23.2307V30H24.3076V28.667Z" fill="#F1F2F2"/>
<path d="M24.3076 27.3335H23.2307V28.6669H24.3076V27.3335Z" fill="#F1F2F2"/>
<path d="M24.3076 25.9995H23.2307V27.333H24.3076V25.9995Z" fill="#F1F2F2"/>
<path d="M24.3076 24.667H23.2307V26H24.3076V24.667Z" fill="#F1F2F2"/>
<path d="M24.3076 23.3335H23.2307V24.6669H24.3076V23.3335Z" fill="#F1F2F2"/>
<path d="M24.3076 21.9995H23.2307V23.333H24.3076V21.9995Z" fill="#F1F2F2"/>
<path d="M24.3076 20.667H23.2307V22H24.3076V20.667Z" fill="black"/>
<path d="M24.3076 19.3335H23.2307V20.6669H24.3076V19.3335Z" fill="#CCCCCC"/>
<path d="M24.3076 18.0005H23.2307V19.3339H24.3076V18.0005Z" fill="black"/>
<path d="M24.3076 16.6665H23.2307V17.9995H24.3076V16.6665Z" fill="#C38464"/>
<path d="M24.3076 15.333H23.2307V16.6665H24.3076V15.333Z" fill="#E5C764"/>
<path d="M24.3076 14.0005H23.2307V15.3339H24.3076V14.0005Z" fill="#C38464"/>
<path d="M24.3076 12.6665H23.2307V13.9995H24.3076V12.6665Z" fill="#E5C764"/>
<path d="M24.3076 11.333H23.2307V12.6665H24.3076V11.333Z" fill="black"/>
<path d="M24.3076 10H23.2307V11.3335H24.3076V10Z" fill="#E5C764"/>
<path d="M24.3076 8.6665H23.2307V9.99948H24.3076V8.6665Z" fill="black"/>
<path d="M24.3076 7.3335H23.2307V8.66695H24.3076V7.3335Z" fill="#C38464"/>
<path d="M24.3076 6H23.2307V7.33345H24.3076V6Z" fill="black"/>
<path d="M23.2304 32.667H22.1536V34H23.2304V32.667Z" fill="black"/>
<path d="M23.2304 31.3335H22.1536V32.6669H23.2304V31.3335Z" fill="black"/>
<path d="M23.2304 30H22.1536V31.3335H23.2304V30Z" fill="black"/>
<path d="M23.2304 28.667H22.1536V30H23.2304V28.667Z" fill="black"/>
<path d="M23.2304 27.3335H22.1536V28.6669H23.2304V27.3335Z" fill="black"/>
<path d="M23.2304 25.9995H22.1536V27.333H23.2304V25.9995Z" fill="black"/>
<path d="M23.2304 24.667H22.1536V26H23.2304V24.667Z" fill="black"/>
<path d="M23.2304 23.3335H22.1536V24.6669H23.2304V23.3335Z" fill="black"/>
<path d="M23.2304 21.9995H22.1536V23.333H23.2304V21.9995Z" fill="#F1F2F2"/>
<path d="M23.2304 20.667H22.1536V22H23.2304V20.667Z" fill="#F1F2F2"/>
<path d="M23.2304 19.3335H22.1536V20.6669H23.2304V19.3335Z" fill="#CCCCCC"/>
<path d="M23.2304 18.0005H22.1536V19.3339H23.2304V18.0005Z" fill="black"/>
<path d="M23.2304 16.6665H22.1536V17.9995H23.2304V16.6665Z" fill="#C38464"/>
<path d="M23.2304 15.333H22.1536V16.6665H23.2304V15.333Z" fill="#C38464"/>
<path d="M23.2304 14.0005H22.1536V15.3339H23.2304V14.0005Z" fill="#E5C764"/>
<path d="M23.2304 12.6665H22.1536V13.9995H23.2304V12.6665Z" fill="black"/>
<path d="M23.2304 11.333H22.1536V12.6665H23.2304V11.333Z" fill="#E5C764"/>
<path d="M23.2304 10H22.1536V11.3335H23.2304V10Z" fill="#E5C764"/>
<path d="M23.2304 8.6665H22.1536V9.99948H23.2304V8.6665Z" fill="#E5C764"/>
<path d="M23.2304 7.3335H22.1536V8.66695H23.2304V7.3335Z" fill="#C38464"/>
<path d="M23.2304 6H22.1536V7.33345H23.2304V6Z" fill="black"/>
<path d="M22.154 32.667H21.0771V34H22.154V32.667Z" fill="black"/>
<path d="M22.154 31.3335H21.0771V32.6669H22.154V31.3335Z" fill="#512C10"/>
<path d="M22.154 30H21.0771V31.3335H22.154V30Z" fill="#512C10"/>
<path d="M22.154 28.667H21.0771V30H22.154V28.667Z" fill="#512C10"/>
<path d="M22.154 27.3335H21.0771V28.6669H22.154V27.3335Z" fill="#512C10"/>
<path d="M22.154 25.9995H21.0771V27.333H22.154V25.9995Z" fill="black"/>
<path d="M22.154 24.667H21.0771V26H22.154V24.667Z" fill="#D7F6FF"/>
<path d="M22.154 23.3335H21.0771V24.6669H22.154V23.3335Z" fill="black"/>
<path d="M22.154 21.9995H21.0771V23.333H22.154V21.9995Z" fill="#F1F2F2"/>
<path d="M22.154 20.667H21.0771V22H22.154V20.667Z" fill="#F1F2F2"/>
<path d="M22.154 19.3335H21.0771V20.6669H22.154V19.3335Z" fill="#CCCCCC"/>
<path d="M22.154 18.0005H21.0771V19.3339H22.154V18.0005Z" fill="black"/>
<path d="M22.154 16.6665H21.0771V17.9995H22.154V16.6665Z" fill="#C38464"/>
<path d="M22.154 15.333H21.0771V16.6665H22.154V15.333Z" fill="#E5C764"/>
<path d="M22.154 14.0005H21.0771V15.3339H22.154V14.0005Z" fill="#C38464"/>
<path d="M22.154 12.6665H21.0771V13.9995H22.154V12.6665Z" fill="black"/>
<path d="M22.154 11.333H21.0771V12.6665H22.154V11.333Z" fill="#E5C764"/>
<path d="M22.154 10H21.0771V11.3335H22.154V10Z" fill="#E5C764"/>
<path d="M22.154 8.6665H21.0771V9.99948H22.154V8.6665Z" fill="#E5C764"/>
<path d="M22.154 7.3335H21.0771V8.66695H22.154V7.3335Z" fill="#C38464"/>
<path d="M22.154 6H21.0771V7.33345H22.154V6Z" fill="black"/>
<path d="M21.0769 32.667H20V34H21.0769V32.667Z" fill="black"/>
<path d="M21.0769 31.3335H20V32.6669H21.0769V31.3335Z" fill="#512C10"/>
<path d="M21.0769 30H20V31.3335H21.0769V30Z" fill="#77491F"/>
<path d="M21.0769 28.667H20V30H21.0769V28.667Z" fill="#633815"/>
<path d="M21.0769 27.3335H20V28.6669H21.0769V27.3335Z" fill="#77491F"/>
<path d="M21.0769 25.9995H20V27.333H21.0769V25.9995Z" fill="black"/>
<path d="M21.0769 24.667H20V26H21.0769V24.667Z" fill="#D7F6FF"/>
<path d="M21.0769 23.3335H20V24.6669H21.0769V23.3335Z" fill="black"/>
<path d="M21.0769 21.9995H20V23.333H21.0769V21.9995Z" fill="#F1F2F2"/>
<path d="M21.0769 20.667H20V22H21.0769V20.667Z" fill="#F1F2F2"/>
<path d="M21.0769 19.3335H20V20.6669H21.0769V19.3335Z" fill="#DBDDDD"/>
<path d="M21.0769 18.0005H20V19.3339H21.0769V18.0005Z" fill="black"/>
<path d="M21.0769 16.6665H20V17.9995H21.0769V16.6665Z" fill="#E5C764"/>
<path d="M21.0769 15.333H20V16.6665H21.0769V15.333Z" fill="#C38464"/>
<path d="M21.0769 14.0005H20V15.3339H21.0769V14.0005Z" fill="#E5C764"/>
<path d="M21.0769 12.6665H20V13.9995H21.0769V12.6665Z" fill="#E5C764"/>
<path d="M21.0769 11.333H20V12.6665H21.0769V11.333Z" fill="#E5C764"/>
<path d="M21.0769 10H20V11.3335H21.0769V10Z" fill="#E5C764"/>
<path d="M21.0769 8.6665H20V9.99948H21.0769V8.6665Z" fill="#E5C764"/>
<path d="M21.0769 7.3335H20V8.66695H21.0769V7.3335Z" fill="#C38464"/>
<path d="M21.0769 6H20V7.33345H21.0769V6Z" fill="black"/>
<path d="M19.9997 32.667H18.9229V34H19.9997V32.667Z" fill="black"/>
<path d="M19.9997 31.3335H18.9229V32.6669H19.9997V31.3335Z" fill="#77491F"/>
<path d="M19.9997 30H18.9229V31.3335H19.9997V30Z" fill="#633815"/>
<path d="M19.9997 28.667H18.9229V30H19.9997V28.667Z" fill="#77491F"/>
<path d="M19.9997 27.3335H18.9229V28.6669H19.9997V27.3335Z" fill="#8C582D"/>
<path d="M19.9997 25.9995H18.9229V27.333H19.9997V25.9995Z" fill="black"/>
<path d="M19.9997 24.667H18.9229V26H19.9997V24.667Z" fill="#EEFCFF"/>
<path d="M19.9997 23.3335H18.9229V24.6669H19.9997V23.3335Z" fill="black"/>
<path d="M19.9997 21.9995H18.9229V23.333H19.9997V21.9995Z" fill="#F1F2F2"/>
<path d="M19.9997 20.667H18.9229V22H19.9997V20.667Z" fill="#DBDDDD"/>
<path d="M19.9997 19.3335H18.9229V20.6669H19.9997V19.3335Z" fill="#DBDDDD"/>
<path d="M19.9997 18.0005H18.9229V19.3339H19.9997V18.0005Z" fill="black"/>
<path d="M19.9997 16.6665H18.9229V17.9995H19.9997V16.6665Z" fill="#C38464"/>
<path d="M19.9997 15.333H18.9229V16.6665H19.9997V15.333Z" fill="#E5C764"/>
<path d="M19.9997 14.0005H18.9229V15.3339H19.9997V14.0005Z" fill="#E5C764"/>
<path d="M19.9997 12.6665H18.9229V13.9995H19.9997V12.6665Z" fill="#E5C764"/>
<path d="M19.9997 11.333H18.9229V12.6665H19.9997V11.333Z" fill="#E5C764"/>
<path d="M19.9997 10H18.9229V11.3335H19.9997V10Z" fill="black"/>
<path d="M19.9997 8.6665H18.9229V9.99948H19.9997V8.6665Z" fill="#E5C764"/>
<path d="M19.9997 7.3335H18.9229V8.66695H19.9997V7.3335Z" fill="#C38464"/>
<path d="M19.9997 6H18.9229V7.33345H19.9997V6Z" fill="black"/>
<path d="M18.9233 32.667H17.8464V34H18.9233V32.667Z" fill="black"/>
<path d="M18.9233 31.3335H17.8464V32.6669H18.9233V31.3335Z" fill="#8C582D"/>
<path d="M18.9233 30H17.8464V31.3335H18.9233V30Z" fill="#8C582D"/>
<path d="M18.9233 28.667H17.8464V30H18.9233V28.667Z" fill="#FFCE00"/>
<path d="M18.9233 27.3335H17.8464V28.6669H18.9233V27.3335Z" fill="#8C582D"/>
<path d="M18.9233 25.9995H17.8464V27.333H18.9233V25.9995Z" fill="black"/>
<path d="M18.9233 24.667H17.8464V26H18.9233V24.667Z" fill="#EEFCFF"/>
<path d="M18.9233 23.3335H17.8464V24.6669H18.9233V23.3335Z" fill="black"/>
<path d="M18.9233 21.9995H17.8464V23.333H18.9233V21.9995Z" fill="#DBDDDD"/>
<path d="M18.9233 20.667H17.8464V22H18.9233V20.667Z" fill="#F1F2F2"/>
<path d="M18.9233 19.3335H17.8464V20.6669H18.9233V19.3335Z" fill="#DBDDDD"/>
<path d="M18.9233 18.0005H17.8464V19.3339H18.9233V18.0005Z" fill="black"/>
<path d="M18.9233 16.6665H17.8464V17.9995H18.9233V16.6665Z" fill="#E5C764"/>
<path d="M18.9233 15.333H17.8464V16.6665H18.9233V15.333Z" fill="black"/>
<path d="M18.9233 14.0005H17.8464V15.3339H18.9233V14.0005Z" fill="#E5C764"/>
<path d="M18.9233 12.6665H17.8464V13.9995H18.9233V12.6665Z" fill="#E5C764"/>
<path d="M18.9233 11.333H17.8464V12.6665H18.9233V11.333Z" fill="#E5C764"/>
<path d="M18.9233 10H17.8464V11.3335H18.9233V10Z" fill="black"/>
<path d="M18.9233 8.6665H17.8464V9.99948H18.9233V8.6665Z" fill="#C38464"/>
<path d="M18.9233 7.3335H17.8464V8.66695H18.9233V7.3335Z" fill="#C38464"/>
<path d="M18.9233 6H17.8464V7.33345H18.9233V6Z" fill="black"/>
<path d="M17.8461 32.667H16.7693V34H17.8461V32.667Z" fill="black"/>
<path d="M17.8461 31.3335H16.7693V32.6669H17.8461V31.3335Z" fill="black"/>
<path d="M17.8461 30H16.7693V31.3335H17.8461V30Z" fill="black"/>
<path d="M17.8461 28.667H16.7693V30H17.8461V28.667Z" fill="black"/>
<path d="M17.8461 27.3335H16.7693V28.6669H17.8461V27.3335Z" fill="black"/>
<path d="M17.8461 25.9995H16.7693V27.333H17.8461V25.9995Z" fill="black"/>
<path d="M17.8461 24.667H16.7693V26H17.8461V24.667Z" fill="black"/>
<path d="M17.8461 23.3335H16.7693V24.6669H17.8461V23.3335Z" fill="black"/>
<path d="M17.8461 21.9995H16.7693V23.333H17.8461V21.9995Z" fill="#F1F2F2"/>
<path d="M17.8461 20.667H16.7693V22H17.8461V20.667Z" fill="#DBDDDD"/>
<path d="M17.8461 19.3335H16.7693V20.6669H17.8461V19.3335Z" fill="#DBDDDD"/>
<path d="M17.8461 18.0005H16.7693V19.3339H17.8461V18.0005Z" fill="black"/>
<path d="M17.8461 16.6665H16.7693V17.9995H17.8461V16.6665Z" fill="#E5C764"/>
<path d="M17.8461 15.333H16.7693V16.6665H17.8461V15.333Z" fill="black"/>
<path d="M17.8461 14.0005H16.7693V15.3339H17.8461V14.0005Z" fill="#E5C764"/>
<path d="M17.8461 12.6665H16.7693V13.9995H17.8461V12.6665Z" fill="#E5C764"/>
<path d="M17.8461 11.333H16.7693V12.6665H17.8461V11.333Z" fill="#C38464"/>
<path d="M17.8461 10H16.7693V11.3335H17.8461V10Z" fill="#E5C764"/>
<path d="M17.8461 8.6665H16.7693V9.99948H17.8461V8.6665Z" fill="black"/>
<path d="M17.8461 7.3335H16.7693V8.66695H17.8461V7.3335Z" fill="#C38464"/>
<path d="M17.8461 6H16.7693V7.33345H17.8461V6Z" fill="black"/>
<path d="M16.7692 32.667H15.6924V34H16.7692V32.667Z" fill="black"/>
<path d="M16.7692 31.3335H15.6924V32.6669H16.7692V31.3335Z" fill="#F1F2F2"/>
<path d="M16.7692 30H15.6924V31.3335H16.7692V30Z" fill="#F1F2F2"/>
<path d="M16.7692 28.667H15.6924V30H16.7692V28.667Z" fill="#F1F2F2"/>
<path d="M16.7692 27.3335H15.6924V28.6669H16.7692V27.3335Z" fill="#F1F2F2"/>
<path d="M16.7692 25.9995H15.6924V27.333H16.7692V25.9995Z" fill="#F1F2F2"/>
<path d="M16.7692 24.667H15.6924V26H16.7692V24.667Z" fill="#F1F2F2"/>
<path d="M16.7692 23.3335H15.6924V24.6669H16.7692V23.3335Z" fill="#F1F2F2"/>
<path d="M16.7692 21.9995H15.6924V23.333H16.7692V21.9995Z" fill="#DBDDDD"/>
<path d="M16.7692 20.667H15.6924V22H16.7692V20.667Z" fill="#F1F2F2"/>
<path d="M16.7692 19.3335H15.6924V20.6669H16.7692V19.3335Z" fill="#DBDDDD"/>
<path d="M16.7692 18.0005H15.6924V19.3339H16.7692V18.0005Z" fill="black"/>
<path d="M16.7692 16.6665H15.6924V17.9995H16.7692V16.6665Z" fill="#E5C764"/>
<path d="M16.7692 15.333H15.6924V16.6665H16.7692V15.333Z" fill="#E5C764"/>
<path d="M16.7692 14.0005H15.6924V15.3339H16.7692V14.0005Z" fill="#E5C764"/>
<path d="M16.7692 12.6665H15.6924V13.9995H16.7692V12.6665Z" fill="#E5C764"/>
<path d="M16.7692 11.333H15.6924V12.6665H16.7692V11.333Z" fill="#E5C764"/>
<path d="M16.7692 10H15.6924V11.3335H16.7692V10Z" fill="#C38464"/>
<path d="M16.7692 8.6665H15.6924V9.99948H16.7692V8.6665Z" fill="black"/>
<path d="M16.7692 7.3335H15.6924V8.66695H16.7692V7.3335Z" fill="#C38464"/>
<path d="M16.7692 6H15.6924V7.33345H16.7692V6Z" fill="black"/>
<path d="M15.6921 32.667H14.6152V34H15.6921V32.667Z" fill="black"/>
<path d="M15.6921 31.3335H14.6152V32.6669H15.6921V31.3335Z" fill="#F1F2F2"/>
<path d="M15.6921 30H14.6152V31.3335H15.6921V30Z" fill="#F1F2F2"/>
<path d="M15.6921 28.667H14.6152V30H15.6921V28.667Z" fill="black"/>
<path d="M15.6921 27.3335H14.6152V28.6669H15.6921V27.3335Z" fill="black"/>
<path d="M15.6921 25.9995H14.6152V27.333H15.6921V25.9995Z" fill="black"/>
<path d="M15.6921 24.667H14.6152V26H15.6921V24.667Z" fill="black"/>
<path d="M15.6921 23.3335H14.6152V24.6669H15.6921V23.3335Z" fill="black"/>
<path d="M15.6921 21.9995H14.6152V23.333H15.6921V21.9995Z" fill="#F1F2F2"/>
<path d="M15.6921 20.667H14.6152V22H15.6921V20.667Z" fill="#DBDDDD"/>
<path d="M15.6921 19.3335H14.6152V20.6669H15.6921V19.3335Z" fill="black"/>
<path d="M15.6921 18.0005H14.6152V19.3339H15.6921V18.0005Z" fill="black"/>
<path d="M15.6921 16.6665H14.6152V17.9995H15.6921V16.6665Z" fill="#E5C764"/>
<path d="M15.6921 15.333H14.6152V16.6665H15.6921V15.333Z" fill="#E5C764"/>
<path d="M15.6921 14.0005H14.6152V15.3339H15.6921V14.0005Z" fill="#E5C764"/>
<path d="M15.6921 12.6665H14.6152V13.9995H15.6921V12.6665Z" fill="black"/>
<path d="M15.6921 11.333H14.6152V12.6665H15.6921V11.333Z" fill="#C38464"/>
<path d="M15.6921 10H14.6152V11.3335H15.6921V10Z" fill="#E5C764"/>
<path d="M15.6921 8.6665H14.6152V9.99948H15.6921V8.6665Z" fill="#C38464"/>
<path d="M15.6921 7.3335H14.6152V8.66695H15.6921V7.3335Z" fill="#C38464"/>
<path d="M15.6921 6H14.6152V7.33345H15.6921V6Z" fill="black"/>
<path d="M14.6152 32.667H13.5383V34H14.6152V32.667Z" fill="black"/>
<path d="M14.6152 31.3335H13.5383V32.6669H14.6152V31.3335Z" fill="#F1F2F2"/>
<path d="M14.6152 30H13.5383V31.3335H14.6152V30Z" fill="#F1F2F2"/>
<path d="M14.6152 28.667H13.5383V30H14.6152V28.667Z" fill="black"/>
<path d="M14.6152 27.3335H13.5383V28.6669H14.6152V27.3335Z" fill="#D7F6FF"/>
<path d="M14.6152 25.9995H13.5383V27.333H14.6152V25.9995Z" fill="black"/>
<path d="M14.6152 24.667H13.5383V26H14.6152V24.667Z" fill="#D7F6FF"/>
<path d="M14.6152 23.3335H13.5383V24.6669H14.6152V23.3335Z" fill="black"/>
<path d="M14.6152 21.9995H13.5383V23.333H14.6152V21.9995Z" fill="#DBDDDD"/>
<path d="M14.6152 20.667H13.5383V22H14.6152V20.667Z" fill="#F1F2F2"/>
<path d="M14.6152 19.3335H13.5383V20.6669H14.6152V19.3335Z" fill="black"/>
<path d="M14.6152 18.0005H13.5383V19.3339H14.6152V18.0005Z" fill="black"/>
<path d="M14.6152 16.6665H13.5383V17.9995H14.6152V16.6665Z" fill="#E5C764"/>
<path d="M14.6152 15.333H13.5383V16.6665H14.6152V15.333Z" fill="#E5C764"/>
<path d="M14.6152 14.0005H13.5383V15.3339H14.6152V14.0005Z" fill="#E5C764"/>
<path d="M14.6152 12.6665H13.5383V13.9995H14.6152V12.6665Z" fill="black"/>
<path d="M14.6152 11.333H13.5383V12.6665H14.6152V11.333Z" fill="#E5C764"/>
<path d="M14.6152 10H13.5383V11.3335H14.6152V10Z" fill="#C38464"/>
<path d="M14.6152 8.6665H13.5383V9.99948H14.6152V8.6665Z" fill="#C38464"/>
<path d="M14.6152 7.3335H13.5383V8.66695H14.6152V7.3335Z" fill="black"/>
<path d="M13.5385 32.667H12.4617V34H13.5385V32.667Z" fill="black"/>
<path d="M13.5385 31.3335H12.4617V32.6669H13.5385V31.3335Z" fill="#F1F2F2"/>
<path d="M13.5385 30H12.4617V31.3335H13.5385V30Z" fill="#F1F2F2"/>
<path d="M13.5385 28.667H12.4617V30H13.5385V28.667Z" fill="black"/>
<path d="M13.5385 27.3335H12.4617V28.6669H13.5385V27.3335Z" fill="#EEFCFF"/>
<path d="M13.5385 25.9995H12.4617V27.333H13.5385V25.9995Z" fill="black"/>
<path d="M13.5385 24.667H12.4617V26H13.5385V24.667Z" fill="#EEFCFF"/>
<path d="M13.5385 23.3335H12.4617V24.6669H13.5385V23.3335Z" fill="black"/>
<path d="M13.5385 21.9995H12.4617V23.333H13.5385V21.9995Z" fill="#F1F2F2"/>
<path d="M13.5385 20.667H12.4617V22H13.5385V20.667Z" fill="black"/>
<path d="M13.5385 19.3335H12.4617V20.6669H13.5385V19.3335Z" fill="#DBDDDD"/>
<path d="M13.5385 18.0005H12.4617V19.3339H13.5385V18.0005Z" fill="black"/>
<path d="M13.5385 16.6665H12.4617V17.9995H13.5385V16.6665Z" fill="#C38464"/>
<path d="M13.5385 15.333H12.4617V16.6665H13.5385V15.333Z" fill="#E5C764"/>
<path d="M13.5385 14.0005H12.4617V15.3339H13.5385V14.0005Z" fill="#C38464"/>
<path d="M13.5385 12.6665H12.4617V13.9995H13.5385V12.6665Z" fill="#E5C764"/>
<path d="M13.5385 11.333H12.4617V12.6665H13.5385V11.333Z" fill="#C38464"/>
<path d="M13.5385 10H12.4617V11.3335H13.5385V10Z" fill="#C38464"/>
<path d="M13.5385 8.6665H12.4617V9.99948H13.5385V8.6665Z" fill="black"/>
<path d="M12.4616 32.667H11.3848V34H12.4616V32.667Z" fill="black"/>
<path d="M12.4616 31.3335H11.3848V32.6669H12.4616V31.3335Z" fill="#F1F2F2"/>
<path d="M12.4616 30H11.3848V31.3335H12.4616V30Z" fill="#F1F2F2"/>
<path d="M12.4616 28.667H11.3848V30H12.4616V28.667Z" fill="black"/>
<path d="M12.4616 27.3335H11.3848V28.6669H12.4616V27.3335Z" fill="black"/>
<path d="M12.4616 25.9995H11.3848V27.333H12.4616V25.9995Z" fill="black"/>
<path d="M12.4616 24.667H11.3848V26H12.4616V24.667Z" fill="black"/>
<path d="M12.4616 23.3335H11.3848V24.6669H12.4616V23.3335Z" fill="black"/>
<path d="M12.4616 21.9995H11.3848V23.333H12.4616V21.9995Z" fill="#DBDDDD"/>
<path d="M12.4616 20.667H11.3848V22H12.4616V20.667Z" fill="black"/>
<path d="M12.4616 19.3335H11.3848V20.6669H12.4616V19.3335Z" fill="#DBDDDD"/>
<path d="M12.4616 18.0005H11.3848V19.3339H12.4616V18.0005Z" fill="black"/>
<path d="M12.4616 16.6665H11.3848V17.9995H12.4616V16.6665Z" fill="#E5C764"/>
<path d="M12.4616 15.333H11.3848V16.6665H12.4616V15.333Z" fill="black"/>
<path d="M12.4616 14.0005H11.3848V15.3339H12.4616V14.0005Z" fill="#E5C764"/>
<path d="M12.4616 12.6665H11.3848V13.9995H12.4616V12.6665Z" fill="#C38464"/>
<path d="M12.4616 11.333H11.3848V12.6665H12.4616V11.333Z" fill="#C38464"/>
<path d="M12.4616 10H11.3848V11.3335H12.4616V10Z" fill="black"/>
<path d="M11.3845 32.667H10.3076V34H11.3845V32.667Z" fill="black"/>
<path d="M11.3845 31.3335H10.3076V32.6669H11.3845V31.3335Z" fill="black"/>
<path d="M11.3845 30H10.3076V31.3335H11.3845V30Z" fill="#F1F2F2"/>
<path d="M11.3845 28.667H10.3076V30H11.3845V28.667Z" fill="#F1F2F2"/>
<path d="M11.3845 27.3335H10.3076V28.6669H11.3845V27.3335Z" fill="#F1F2F2"/>
<path d="M11.3845 25.9995H10.3076V27.333H11.3845V25.9995Z" fill="#F1F2F2"/>
<path d="M11.3845 24.667H10.3076V26H11.3845V24.667Z" fill="#F1F2F2"/>
<path d="M11.3845 23.3335H10.3076V24.6669H11.3845V23.3335Z" fill="#F1F2F2"/>
<path d="M11.3845 21.9995H10.3076V23.333H11.3845V21.9995Z" fill="#F1F2F2"/>
<path d="M11.3845 20.667H10.3076V22H11.3845V20.667Z" fill="#DBDDDD"/>
<path d="M11.3845 19.3335H10.3076V20.6669H11.3845V19.3335Z" fill="#DBDDDD"/>
<path d="M11.3845 18.0005H10.3076V19.3339H11.3845V18.0005Z" fill="black"/>
<path d="M11.3845 16.6665H10.3076V17.9995H11.3845V16.6665Z" fill="#C38464"/>
<path d="M11.3845 15.333H10.3076V16.6665H11.3845V15.333Z" fill="#E5C764"/>
<path d="M11.3845 14.0005H10.3076V15.3339H11.3845V14.0005Z" fill="#C38464"/>
<path d="M11.3845 12.6665H10.3076V13.9995H11.3845V12.6665Z" fill="#C38464"/>
<path d="M11.3845 11.333H10.3076V12.6665H11.3845V11.333Z" fill="black"/>
<path d="M10.3076 32.667H9.23071V34H10.3076V32.667Z" fill="black"/>
<path d="M10.3076 31.3335H9.23071V32.6669H10.3076V31.3335Z" fill="#F1F2F2"/>
<path d="M10.3076 30H9.23071V31.3335H10.3076V30Z" fill="#F1F2F2"/>
<path d="M10.3076 28.667H9.23071V30H10.3076V28.667Z" fill="#F1F2F2"/>
<path d="M10.3076 27.3335H9.23071V28.6669H10.3076V27.3335Z" fill="#F1F2F2"/>
<path d="M10.3076 25.9995H9.23071V27.333H10.3076V25.9995Z" fill="black"/>
<path d="M10.3076 24.667H9.23071V26H10.3076V24.667Z" fill="#F1F2F2"/>
<path d="M10.3076 23.3335H9.23071V24.6669H10.3076V23.3335Z" fill="#F1F2F2"/>
<path d="M10.3076 21.9995H9.23071V23.333H10.3076V21.9995Z" fill="black"/>
<path d="M10.3076 20.667H9.23071V22H10.3076V20.667Z" fill="#F1F2F2"/>
<path d="M10.3076 19.3335H9.23071V20.6669H10.3076V19.3335Z" fill="#DBDDDD"/>
<path d="M10.3076 18.0005H9.23071V19.3339H10.3076V18.0005Z" fill="black"/>
<path d="M10.3076 16.6665H9.23071V17.9995H10.3076V16.6665Z" fill="#C38464"/>
<path d="M10.3076 15.333H9.23071V16.6665H10.3076V15.333Z" fill="#C38464"/>
<path d="M10.3076 14.0005H9.23071V15.3339H10.3076V14.0005Z" fill="#C38464"/>
<path d="M10.3076 12.6665H9.23071V13.9995H10.3076V12.6665Z" fill="black"/>
<path d="M9.23091 32.667H8.15405V34H9.23091V32.667Z" fill="black"/>
<path d="M9.23091 31.3335H8.15405V32.6669H9.23091V31.3335Z" fill="black"/>
<path d="M9.23091 30H8.15405V31.3335H9.23091V30Z" fill="black"/>
<path d="M9.23091 28.667H8.15405V30H9.23091V28.667Z" fill="black"/>
<path d="M9.23091 27.3335H8.15405V28.6669H9.23091V27.3335Z" fill="black"/>
<path d="M9.23091 25.9995H8.15405V27.333H9.23091V25.9995Z" fill="black"/>
<path d="M9.23091 24.667H8.15405V26H9.23091V24.667Z" fill="black"/>
<path d="M9.23091 23.3335H8.15405V24.6669H9.23091V23.3335Z" fill="black"/>
<path d="M9.23091 21.9995H8.15405V23.333H9.23091V21.9995Z" fill="black"/>
<path d="M9.23091 20.667H8.15405V22H9.23091V20.667Z" fill="black"/>
<path d="M9.23091 19.3335H8.15405V20.6669H9.23091V19.3335Z" fill="black"/>
<path d="M9.23091 18.0005H8.15405V19.3339H9.23091V18.0005Z" fill="black"/>
<path d="M9.23091 16.6665H8.15405V17.9995H9.23091V16.6665Z" fill="#C38464"/>
<path d="M9.23091 15.333H8.15405V16.6665H9.23091V15.333Z" fill="#C38464"/>
<path d="M9.23091 14.0005H8.15405V15.3339H9.23091V14.0005Z" fill="black"/>
<path d="M8.154 18.0005H7.07715V19.3339H8.154V18.0005Z" fill="black"/>
<path d="M8.154 16.6665H7.07715V17.9995H8.154V16.6665Z" fill="#C38464"/>
<path d="M8.154 15.333H7.07715V16.6665H8.154V15.333Z" fill="black"/>
<path d="M7.07685 18.0005H6V19.3339H7.07685V18.0005Z" fill="black"/>
<path d="M7.07685 16.6665H6V17.9995H7.07685V16.6665Z" fill="black"/>
</g>
<defs>
<filter id="filter0_ddd_3057_359068" x="0" y="0" width="39.9998" height="40" filterUnits="userSpaceOnUse" color-interpolation-filters="sRGB">
<feFlood flood-opacity="0" result="BackgroundImageFix"/>
<feColorMatrix in="SourceAlpha" type="matrix" values="0 0 0 0 0 0 0 0 0 0 0 0 0 0 0 0 0 0 127 0" result="hardAlpha"/>
<feOffset/>
<feGaussianBlur stdDeviation="2"/>
<feComposite in2="hardAlpha" operator="out"/>
<feColorMatrix type="matrix" values="0 0 0 0 0.898039 0 0 0 0 0.768627 0 0 0 0 0.419608 0 0 0 1 0"/>
<feBlend mode="normal" in2="BackgroundImageFix" result="effect1_dropShadow_3057_359068"/>
<feColorMatrix in="SourceAlpha" type="matrix" values="0 0 0 0 0 0 0 0 0 0 0 0 0 0 0 0 0 0 127 0" result="hardAlpha"/>
<feOffset/>
<feGaussianBlur stdDeviation="2"/>
<feComposite in2="hardAlpha" operator="out"/>
<feColorMatrix type="matrix" values="0 0 0 0 0.898039 0 0 0 0 0.768627 0 0 0 0 0.419608 0 0 0 0.25 0"/>
<feBlend mode="normal" in2="effect1_dropShadow_3057_359068" result="effect2_dropShadow_3057_359068"/>
<feColorMatrix in="SourceAlpha" type="matrix" values="0 0 0 0 0 0 0 0 0 0 0 0 0 0 0 0 0 0 127 0" result="hardAlpha"/>
<feOffset/>
<feGaussianBlur stdDeviation="3"/>
<feComposite in2="hardAlpha" operator="out"/>
<feColorMatrix type="matrix" values="0 0 0 0 0.898039 0 0 0 0 0.768627 0 0 0 0 0.419608 0 0 0 0.25 0"/>
<feBlend mode="normal" in2="effect2_dropShadow_3057_359068" result="effect3_dropShadow_3057_359068"/>
<feBlend mode="normal" in="SourceGraphic" in2="effect3_dropShadow_3057_359068" result="shape"/>
</filter>
</defs>
</svg>
