<svg width="27" height="37" viewBox="0 0 27 37" fill="none" xmlns="http://www.w3.org/2000/svg">
<g filter="url(#filter0_ddd_4886_64367)">
<rect x="13.7805" y="21.7003" width="2.32093" height="2.32093" transform="rotate(45 13.7805 21.7003)" stroke="#E5C46B"/>
<rect x="16.1289" y="24.0484" width="2.32093" height="2.32093" transform="rotate(45 16.1289 24.0484)" stroke="#E2C781"/>
<rect x="18.4771" y="26.3968" width="2.32093" height="2.32093" transform="rotate(45 18.4771 26.3968)" stroke="#EAD08A"/>
<rect x="11.4324" y="24.0484" width="2.32093" height="2.32093" transform="rotate(45 11.4324 24.0484)" stroke="#E2C781"/>
<rect x="9.08423" y="26.3968" width="2.32093" height="2.32093" transform="rotate(45 9.08423 26.3968)" stroke="#EAD08A"/>
<rect x="13.7805" y="14.5321" width="2.32093" height="2.32093" transform="rotate(45 13.7805 14.5321)" stroke="#E5C46B"/>
<rect x="16.1289" y="16.8802" width="2.32093" height="2.32093" transform="rotate(45 16.1289 16.8802)" stroke="#E2C781"/>
<rect x="18.4771" y="19.2286" width="2.32093" height="2.32093" transform="rotate(45 18.4771 19.2286)" stroke="#EAD08A"/>
<rect x="11.4324" y="16.8802" width="2.32093" height="2.32093" transform="rotate(45 11.4324 16.8802)" stroke="#E2C781"/>
<rect x="9.08423" y="19.2286" width="2.32093" height="2.32093" transform="rotate(45 9.08423 19.2286)" stroke="#EAD08A"/>
<rect x="13.7805" y="7.53206" width="2.32093" height="2.32093" transform="rotate(45 13.7805 7.53206)" stroke="#E5C46B"/>
<rect x="16.1289" y="9.8802" width="2.32093" height="2.32093" transform="rotate(45 16.1289 9.8802)" stroke="#E2C781"/>
<rect x="18.4771" y="12.2286" width="2.32093" height="2.32093" transform="rotate(45 18.4771 12.2286)" stroke="#EAD08A"/>
<rect x="11.4324" y="9.8802" width="2.32093" height="2.32093" transform="rotate(45 11.4324 9.8802)" stroke="#E2C781"/>
<rect x="9.08423" y="12.2286" width="2.32093" height="2.32093" transform="rotate(45 9.08423 12.2286)" stroke="#EAD08A"/>
</g>
<defs>
<filter id="filter0_ddd_4886_64367" x="0.736084" y="0.824951" width="26.0891" height="35.5613" filterUnits="userSpaceOnUse" color-interpolation-filters="sRGB">
<feFlood flood-opacity="0" result="BackgroundImageFix"/>
<feColorMatrix in="SourceAlpha" type="matrix" values="0 0 0 0 0 0 0 0 0 0 0 0 0 0 0 0 0 0 127 0" result="hardAlpha"/>
<feOffset/>
<feGaussianBlur stdDeviation="2"/>
<feComposite in2="hardAlpha" operator="out"/>
<feColorMatrix type="matrix" values="0 0 0 0 0.898039 0 0 0 0 0.768627 0 0 0 0 0.419608 0 0 0 1 0"/>
<feBlend mode="normal" in2="BackgroundImageFix" result="effect1_dropShadow_4886_64367"/>
<feColorMatrix in="SourceAlpha" type="matrix" values="0 0 0 0 0 0 0 0 0 0 0 0 0 0 0 0 0 0 127 0" result="hardAlpha"/>
<feOffset/>
<feGaussianBlur stdDeviation="2"/>
<feComposite in2="hardAlpha" operator="out"/>
<feColorMatrix type="matrix" values="0 0 0 0 0.898039 0 0 0 0 0.768627 0 0 0 0 0.419608 0 0 0 0.05 0"/>
<feBlend mode="normal" in2="effect1_dropShadow_4886_64367" result="effect2_dropShadow_4886_64367"/>
<feColorMatrix in="SourceAlpha" type="matrix" values="0 0 0 0 0 0 0 0 0 0 0 0 0 0 0 0 0 0 127 0" result="hardAlpha"/>
<feOffset/>
<feGaussianBlur stdDeviation="3"/>
<feComposite in2="hardAlpha" operator="out"/>
<feColorMatrix type="matrix" values="0 0 0 0 0.898039 0 0 0 0 0.768627 0 0 0 0 0.419608 0 0 0 0.25 0"/>
<feBlend mode="normal" in2="effect2_dropShadow_4886_64367" result="effect3_dropShadow_4886_64367"/>
<feBlend mode="normal" in="SourceGraphic" in2="effect3_dropShadow_4886_64367" result="shape"/>
</filter>
</defs>
</svg>
