<svg width="27" height="36" viewBox="0 0 27 36" fill="none" xmlns="http://www.w3.org/2000/svg">
<g filter="url(#filter0_ddd_4886_64388)">
<rect x="13.7805" y="21.2616" width="2.32093" height="2.32093" transform="rotate(45 13.7805 21.2616)" fill="#E5C46B" stroke="#E5C46B"/>
<rect x="16.1289" y="23.6097" width="2.32093" height="2.32093" transform="rotate(45 16.1289 23.6097)" fill="#E2C781" stroke="#E2C781"/>
<rect x="18.4771" y="25.9581" width="2.32093" height="2.32093" transform="rotate(45 18.4771 25.9581)" fill="#EAD08A" stroke="#EAD08A"/>
<rect x="11.4324" y="23.6097" width="2.32093" height="2.32093" transform="rotate(45 11.4324 23.6097)" fill="#E2C781" stroke="#E2C781"/>
<rect x="9.08423" y="25.9581" width="2.32093" height="2.32093" transform="rotate(45 9.08423 25.9581)" fill="#EAD08A" stroke="#EAD08A"/>
<rect x="13.7805" y="14.0933" width="2.32093" height="2.32093" transform="rotate(45 13.7805 14.0933)" fill="#E5C46B" stroke="#E5C46B"/>
<rect x="16.1289" y="16.4415" width="2.32093" height="2.32093" transform="rotate(45 16.1289 16.4415)" fill="#E2C781" stroke="#E2C781"/>
<rect x="18.4771" y="18.7899" width="2.32093" height="2.32093" transform="rotate(45 18.4771 18.7899)" fill="#EAD08A" stroke="#EAD08A"/>
<rect x="11.4324" y="16.4415" width="2.32093" height="2.32093" transform="rotate(45 11.4324 16.4415)" fill="#E2C781" stroke="#E2C781"/>
<rect x="9.08423" y="18.7899" width="2.32093" height="2.32093" transform="rotate(45 9.08423 18.7899)" fill="#EAD08A" stroke="#EAD08A"/>
<rect x="13.7805" y="7.09334" width="2.32093" height="2.32093" transform="rotate(45 13.7805 7.09334)" fill="#E5C46B" stroke="#E5C46B"/>
<rect x="16.1289" y="9.44148" width="2.32093" height="2.32093" transform="rotate(45 16.1289 9.44148)" fill="#E2C781" stroke="#E2C781"/>
<rect x="18.4771" y="11.7899" width="2.32093" height="2.32093" transform="rotate(45 18.4771 11.7899)" fill="#EAD08A" stroke="#EAD08A"/>
<rect x="11.4324" y="9.44148" width="2.32093" height="2.32093" transform="rotate(45 11.4324 9.44148)" fill="#E2C781" stroke="#E2C781"/>
<rect x="9.08423" y="11.7899" width="2.32093" height="2.32093" transform="rotate(45 9.08423 11.7899)" fill="#EAD08A" stroke="#EAD08A"/>
</g>
<defs>
<filter id="filter0_ddd_4886_64388" x="0.736084" y="0.38623" width="26.0891" height="35.5613" filterUnits="userSpaceOnUse" color-interpolation-filters="sRGB">
<feFlood flood-opacity="0" result="BackgroundImageFix"/>
<feColorMatrix in="SourceAlpha" type="matrix" values="0 0 0 0 0 0 0 0 0 0 0 0 0 0 0 0 0 0 127 0" result="hardAlpha"/>
<feOffset/>
<feGaussianBlur stdDeviation="2"/>
<feComposite in2="hardAlpha" operator="out"/>
<feColorMatrix type="matrix" values="0 0 0 0 0.898039 0 0 0 0 0.768627 0 0 0 0 0.419608 0 0 0 1 0"/>
<feBlend mode="normal" in2="BackgroundImageFix" result="effect1_dropShadow_4886_64388"/>
<feColorMatrix in="SourceAlpha" type="matrix" values="0 0 0 0 0 0 0 0 0 0 0 0 0 0 0 0 0 0 127 0" result="hardAlpha"/>
<feOffset/>
<feGaussianBlur stdDeviation="2"/>
<feComposite in2="hardAlpha" operator="out"/>
<feColorMatrix type="matrix" values="0 0 0 0 0.898039 0 0 0 0 0.768627 0 0 0 0 0.419608 0 0 0 0.05 0"/>
<feBlend mode="normal" in2="effect1_dropShadow_4886_64388" result="effect2_dropShadow_4886_64388"/>
<feColorMatrix in="SourceAlpha" type="matrix" values="0 0 0 0 0 0 0 0 0 0 0 0 0 0 0 0 0 0 127 0" result="hardAlpha"/>
<feOffset/>
<feGaussianBlur stdDeviation="3"/>
<feComposite in2="hardAlpha" operator="out"/>
<feColorMatrix type="matrix" values="0 0 0 0 0.898039 0 0 0 0 0.768627 0 0 0 0 0.419608 0 0 0 0.25 0"/>
<feBlend mode="normal" in2="effect2_dropShadow_4886_64388" result="effect3_dropShadow_4886_64388"/>
<feBlend mode="normal" in="SourceGraphic" in2="effect3_dropShadow_4886_64388" result="shape"/>
</filter>
</defs>
</svg>
