<svg width="36" height="36" viewBox="0 0 36 36" fill="none" xmlns="http://www.w3.org/2000/svg">
<g filter="url(#filter0_ddd_3057_360201)">
<path d="M32 27.3335H31.1997V28.5003H32V27.3335Z" fill="black"/>
<path d="M31.1992 28.5H30.3994V29.6668H31.1992V28.5Z" fill="black"/>
<path d="M31.1992 27.3335H30.3994V28.5003H31.1992V27.3335Z" fill="#4FB848"/>
<path d="M31.1992 26.1665H30.3994V27.3333H31.1992V26.1665Z" fill="black"/>
<path d="M31.1992 25H30.3994V26.1668H31.1992V25Z" fill="black"/>
<path d="M31.1992 23.8335H30.3994V25.0003H31.1992V23.8335Z" fill="black"/>
<path d="M31.1992 22.6665H30.3994V23.8333H31.1992V22.6665Z" fill="black"/>
<path d="M31.1992 21.5H30.3994V22.6668H31.1992V21.5Z" fill="black"/>
<path d="M31.1992 20.3335H30.3994V21.5003H31.1992V20.3335Z" fill="black"/>
<path d="M31.1992 19.1665H30.3994V20.3333H31.1992V19.1665Z" fill="black"/>
<path d="M31.1992 18H30.3994V19.1668H31.1992V18Z" fill="black"/>
<path d="M31.1992 16.8335H30.3994V18.0003H31.1992V16.8335Z" fill="black"/>
<path d="M31.1992 15.6665H30.3994V16.8333H31.1992V15.6665Z" fill="black"/>
<path d="M31.1992 14.5H30.3994V15.6668H31.1992V14.5Z" fill="black"/>
<path d="M31.1992 13.3335H30.3994V14.5003H31.1992V13.3335Z" fill="black"/>
<path d="M31.1992 12.1665H30.3994V13.3333H31.1992V12.1665Z" fill="black"/>
<path d="M31.1992 11H30.3994V12.1668H31.1992V11Z" fill="black"/>
<path d="M31.1992 9.83301H30.3994V10.9998H31.1992V9.83301Z" fill="black"/>
<path d="M31.1992 8.6665H30.3994V9.83331H31.1992V8.6665Z" fill="black"/>
<path d="M30.3994 28.5H29.5996V29.6668H30.3994V28.5Z" fill="black"/>
<path d="M30.3994 27.3335H29.5996V28.5003H30.3994V27.3335Z" fill="#4FB848"/>
<path d="M30.3994 26.1665H29.5996V27.3333H30.3994V26.1665Z" fill="black"/>
<path d="M30.3994 25H29.5996V26.1668H30.3994V25Z" fill="#F8CB89"/>
<path d="M30.3994 23.8335H29.5996V25.0003H30.3994V23.8335Z" fill="black"/>
<path d="M30.3994 22.6665H29.5996V23.8333H30.3994V22.6665Z" fill="black"/>
<path d="M30.3994 21.5H29.5996V22.6668H30.3994V21.5Z" fill="black"/>
<path d="M30.3994 20.3335H29.5996V21.5003H30.3994V20.3335Z" fill="black"/>
<path d="M30.3994 19.1665H29.5996V20.3333H30.3994V19.1665Z" fill="black"/>
<path d="M30.3994 18H29.5996V19.1668H30.3994V18Z" fill="black"/>
<path d="M30.3994 16.8335H29.5996V18.0003H30.3994V16.8335Z" fill="black"/>
<path d="M30.3994 15.6665H29.5996V16.8333H30.3994V15.6665Z" fill="black"/>
<path d="M30.3994 14.5H29.5996V15.6668H30.3994V14.5Z" fill="black"/>
<path d="M30.3994 13.3335H29.5996V14.5003H30.3994V13.3335Z" fill="black"/>
<path d="M30.3994 12.1665H29.5996V13.3333H30.3994V12.1665Z" fill="black"/>
<path d="M30.3994 11H29.5996V12.1668H30.3994V11Z" fill="black"/>
<path d="M30.3994 9.83301H29.5996V10.9998H30.3994V9.83301Z" fill="black"/>
<path d="M30.3994 8.6665H29.5996V9.83331H30.3994V8.6665Z" fill="black"/>
<path d="M30.3994 7.5H29.5996V8.66681H30.3994V7.5Z" fill="black"/>
<path d="M30.3994 6.33301H29.5996V7.49981H30.3994V6.33301Z" fill="black"/>
<path d="M29.5996 28.5H28.7998V29.6668H29.5996V28.5Z" fill="black"/>
<path d="M29.5996 27.3335H28.7998V28.5003H29.5996V27.3335Z" fill="#4FB848"/>
<path d="M29.5996 26.1665H28.7998V27.3333H29.5996V26.1665Z" fill="black"/>
<path d="M29.5996 25H28.7998V26.1668H29.5996V25Z" fill="#F8CB89"/>
<path d="M29.5996 23.8335H28.7998V25.0003H29.5996V23.8335Z" fill="black"/>
<path d="M29.5996 22.6665H28.7998V23.8333H29.5996V22.6665Z" fill="#FADCB1"/>
<path d="M29.5996 21.5H28.7998V22.6668H29.5996V21.5Z" fill="black"/>
<path d="M29.5996 20.3335H28.7998V21.5003H29.5996V20.3335Z" fill="black"/>
<path d="M29.5996 19.1665H28.7998V20.3333H29.5996V19.1665Z" fill="black"/>
<path d="M29.5996 18H28.7998V19.1668H29.5996V18Z" fill="black"/>
<path d="M29.5996 16.8335H28.7998V18.0003H29.5996V16.8335Z" fill="black"/>
<path d="M29.5996 15.6665H28.7998V16.8333H29.5996V15.6665Z" fill="black"/>
<path d="M29.5996 14.5H28.7998V15.6668H29.5996V14.5Z" fill="black"/>
<path d="M29.5996 13.3335H28.7998V14.5003H29.5996V13.3335Z" fill="black"/>
<path d="M29.5996 12.1665H28.7998V13.3333H29.5996V12.1665Z" fill="black"/>
<path d="M29.5996 11H28.7998V12.1668H29.5996V11Z" fill="black"/>
<path d="M29.5996 9.83301H28.7998V10.9998H29.5996V9.83301Z" fill="black"/>
<path d="M29.5996 8.6665H28.7998V9.83331H29.5996V8.6665Z" fill="black"/>
<path d="M29.5996 7.5H28.7998V8.66681H29.5996V7.5Z" fill="black"/>
<path d="M29.5996 6.33301H28.7998V7.49981H29.5996V6.33301Z" fill="black"/>
<path d="M29.5996 5.1665H28.7998V6.33331H29.5996V5.1665Z" fill="black"/>
<path d="M29.5996 4H28.7998V5.16681H29.5996V4Z" fill="black"/>
<path d="M28.7996 28.5H27.9998V29.6668H28.7996V28.5Z" fill="black"/>
<path d="M28.7996 27.3335H27.9998V28.5003H28.7996V27.3335Z" fill="#4FB848"/>
<path d="M28.7996 26.1665H27.9998V27.3333H28.7996V26.1665Z" fill="black"/>
<path d="M28.7996 25H27.9998V26.1668H28.7996V25Z" fill="#F8CB89"/>
<path d="M28.7996 23.8335H27.9998V25.0003H28.7996V23.8335Z" fill="black"/>
<path d="M28.7996 22.6665H27.9998V23.8333H28.7996V22.6665Z" fill="#FADCB1"/>
<path d="M28.7996 21.5H27.9998V22.6668H28.7996V21.5Z" fill="black"/>
<path d="M28.7996 20.3335H27.9998V21.5003H28.7996V20.3335Z" fill="#FDEED8"/>
<path d="M28.7996 19.1665H27.9998V20.3333H28.7996V19.1665Z" fill="#FDEED8"/>
<path d="M28.7996 18H27.9998V19.1668H28.7996V18Z" fill="#FDEED8"/>
<path d="M28.7996 16.8335H27.9998V18.0003H28.7996V16.8335Z" fill="#FDEED8"/>
<path d="M28.7996 15.6665H27.9998V16.8333H28.7996V15.6665Z" fill="#FDEED8"/>
<path d="M28.7996 14.5H27.9998V15.6668H28.7996V14.5Z" fill="#FDEED8"/>
<path d="M28.7996 13.3335H27.9998V14.5003H28.7996V13.3335Z" fill="#FDEED8"/>
<path d="M28.7996 12.1665H27.9998V13.3333H28.7996V12.1665Z" fill="#FDEED8"/>
<path d="M28.7996 11H27.9998V12.1668H28.7996V11Z" fill="#FDEED8"/>
<path d="M28.7996 9.83301H27.9998V10.9998H28.7996V9.83301Z" fill="#FDEED8"/>
<path d="M28.7996 8.6665H27.9998V9.83331H28.7996V8.6665Z" fill="#FDEED8"/>
<path d="M28.7996 7.5H27.9998V8.66681H28.7996V7.5Z" fill="#FDEED8"/>
<path d="M28.7996 6.33301H27.9998V7.49981H28.7996V6.33301Z" fill="#FDEED8"/>
<path d="M28.7996 5.1665H27.9998V6.33331H28.7996V5.1665Z" fill="#FDEED8"/>
<path d="M28.7996 4H27.9998V5.16681H28.7996V4Z" fill="black"/>
<path d="M27.9995 28.5H27.1997V29.6668H27.9995V28.5Z" fill="black"/>
<path d="M27.9995 27.3335H27.1997V28.5003H27.9995V27.3335Z" fill="#4FB848"/>
<path d="M27.9995 26.1665H27.1997V27.3333H27.9995V26.1665Z" fill="black"/>
<path d="M27.9995 25H27.1997V26.1668H27.9995V25Z" fill="#F8CB89"/>
<path d="M27.9995 23.8335H27.1997V25.0003H27.9995V23.8335Z" fill="black"/>
<path d="M27.9995 22.6665H27.1997V23.8333H27.9995V22.6665Z" fill="#FADCB1"/>
<path d="M27.9995 21.5H27.1997V22.6668H27.9995V21.5Z" fill="black"/>
<path d="M27.9995 20.3335H27.1997V21.5003H27.9995V20.3335Z" fill="#FDEED8"/>
<path d="M27.9995 19.1665H27.1997V20.3333H27.9995V19.1665Z" fill="#FDEED8"/>
<path d="M27.9995 18H27.1997V19.1668H27.9995V18Z" fill="black"/>
<path d="M27.9995 16.8335H27.1997V18.0003H27.9995V16.8335Z" fill="#FDEED8"/>
<path d="M27.9995 15.6665H27.1997V16.8333H27.9995V15.6665Z" fill="#FDEED8"/>
<path d="M27.9995 14.5H27.1997V15.6668H27.9995V14.5Z" fill="#FDEED8"/>
<path d="M27.9995 13.3335H27.1997V14.5003H27.9995V13.3335Z" fill="black"/>
<path d="M27.9995 12.1665H27.1997V13.3333H27.9995V12.1665Z" fill="#FDEED8"/>
<path d="M27.9995 11H27.1997V12.1668H27.9995V11Z" fill="#FDEED8"/>
<path d="M27.9995 9.83301H27.1997V10.9998H27.9995V9.83301Z" fill="#FDEED8"/>
<path d="M27.9995 8.6665H27.1997V9.83331H27.9995V8.6665Z" fill="black"/>
<path d="M27.9995 7.5H27.1997V8.66681H27.9995V7.5Z" fill="#FDEED8"/>
<path d="M27.9995 6.33301H27.1997V7.49981H27.9995V6.33301Z" fill="#FDEED8"/>
<path d="M27.9995 5.1665H27.1997V6.33331H27.9995V5.1665Z" fill="#FDEED8"/>
<path d="M27.9995 4H27.1997V5.16681H27.9995V4Z" fill="black"/>
<path d="M27.1995 29.667H26.3997V30.8338H27.1995V29.667Z" fill="black"/>
<path d="M27.1995 28.5H26.3997V29.6668H27.1995V28.5Z" fill="#4FB848"/>
<path d="M27.1995 27.3335H26.3997V28.5003H27.1995V27.3335Z" fill="#4FB848"/>
<path d="M27.1995 26.1665H26.3997V27.3333H27.1995V26.1665Z" fill="black"/>
<path d="M27.1995 25H26.3997V26.1668H27.1995V25Z" fill="#F8CB89"/>
<path d="M27.1995 23.8335H26.3997V25.0003H27.1995V23.8335Z" fill="black"/>
<path d="M27.1995 22.6665H26.3997V23.8333H27.1995V22.6665Z" fill="#FADCB1"/>
<path d="M27.1995 21.5H26.3997V22.6668H27.1995V21.5Z" fill="black"/>
<path d="M27.1995 20.3335H26.3997V21.5003H27.1995V20.3335Z" fill="#FDEED8"/>
<path d="M27.1995 19.1665H26.3997V20.3333H27.1995V19.1665Z" fill="#FDEED8"/>
<path d="M27.1995 18H26.3997V19.1668H27.1995V18Z" fill="black"/>
<path d="M27.1995 16.8335H26.3997V18.0003H27.1995V16.8335Z" fill="#FDEED8"/>
<path d="M27.1995 15.6665H26.3997V16.8333H27.1995V15.6665Z" fill="#FDEED8"/>
<path d="M27.1995 14.5H26.3997V15.6668H27.1995V14.5Z" fill="#FDEED8"/>
<path d="M27.1995 13.3335H26.3997V14.5003H27.1995V13.3335Z" fill="black"/>
<path d="M27.1995 12.1665H26.3997V13.3333H27.1995V12.1665Z" fill="#FDEED8"/>
<path d="M27.1995 11H26.3997V12.1668H27.1995V11Z" fill="#FDEED8"/>
<path d="M27.1995 9.83301H26.3997V10.9998H27.1995V9.83301Z" fill="#FDEED8"/>
<path d="M27.1995 8.6665H26.3997V9.83331H27.1995V8.6665Z" fill="black"/>
<path d="M27.1995 7.5H26.3997V8.66681H27.1995V7.5Z" fill="#FDEED8"/>
<path d="M27.1995 6.33301H26.3997V7.49981H27.1995V6.33301Z" fill="#FDEED8"/>
<path d="M27.1995 5.1665H26.3997V6.33331H27.1995V5.1665Z" fill="#FDEED8"/>
<path d="M27.1995 4H26.3997V5.16681H27.1995V4Z" fill="black"/>
<path d="M26.3997 30.8335H25.5999V32.0003H26.3997V30.8335Z" fill="black"/>
<path d="M26.3997 29.667H25.5999V30.8338H26.3997V29.667Z" fill="#4FB848"/>
<path d="M26.3997 28.5H25.5999V29.6668H26.3997V28.5Z" fill="#4FB848"/>
<path d="M26.3997 27.3335H25.5999V28.5003H26.3997V27.3335Z" fill="black"/>
<path d="M26.3997 26.1665H25.5999V27.3333H26.3997V26.1665Z" fill="#F8CB89"/>
<path d="M26.3997 25H25.5999V26.1668H26.3997V25Z" fill="black"/>
<path d="M26.3997 23.8335H25.5999V25.0003H26.3997V23.8335Z" fill="#FADCB1"/>
<path d="M26.3997 22.6665H25.5999V23.8333H26.3997V22.6665Z" fill="black"/>
<path d="M26.3997 21.5H25.5999V22.6668H26.3997V21.5Z" fill="#FDEED8"/>
<path d="M26.3997 20.3335H25.5999V21.5003H26.3997V20.3335Z" fill="#FDEED8"/>
<path d="M26.3997 19.1665H25.5999V20.3333H26.3997V19.1665Z" fill="#FDEED8"/>
<path d="M26.3997 18H25.5999V19.1668H26.3997V18Z" fill="black"/>
<path d="M26.3997 16.8335H25.5999V18.0003H26.3997V16.8335Z" fill="#FDEED8"/>
<path d="M26.3997 15.6665H25.5999V16.8333H26.3997V15.6665Z" fill="#FDEED8"/>
<path d="M26.3997 14.5H25.5999V15.6668H26.3997V14.5Z" fill="#FDEED8"/>
<path d="M26.3997 13.3335H25.5999V14.5003H26.3997V13.3335Z" fill="black"/>
<path d="M26.3997 12.1665H25.5999V13.3333H26.3997V12.1665Z" fill="#FDEED8"/>
<path d="M26.3997 11H25.5999V12.1668H26.3997V11Z" fill="#FDEED8"/>
<path d="M26.3997 9.83301H25.5999V10.9998H26.3997V9.83301Z" fill="#FDEED8"/>
<path d="M26.3997 8.6665H25.5999V9.83331H26.3997V8.6665Z" fill="black"/>
<path d="M26.3997 7.5H25.5999V8.66681H26.3997V7.5Z" fill="#FDEED8"/>
<path d="M26.3997 6.33301H25.5999V7.49981H26.3997V6.33301Z" fill="#FDEED8"/>
<path d="M26.3997 5.1665H25.5999V6.33331H26.3997V5.1665Z" fill="black"/>
<path d="M25.5996 30.8335H24.7993V32.0003H25.5996V30.8335Z" fill="black"/>
<path d="M25.5996 29.667H24.7993V30.8338H25.5996V29.667Z" fill="#4FB848"/>
<path d="M25.5996 28.5H24.7993V29.6668H25.5996V28.5Z" fill="black"/>
<path d="M25.5996 27.3335H24.7993V28.5003H25.5996V27.3335Z" fill="black"/>
<path d="M25.5996 26.1665H24.7993V27.3333H25.5996V26.1665Z" fill="#F8CB89"/>
<path d="M25.5996 25H24.7993V26.1668H25.5996V25Z" fill="black"/>
<path d="M25.5996 23.8335H24.7993V25.0003H25.5996V23.8335Z" fill="#FADCB1"/>
<path d="M25.5996 22.6665H24.7993V23.8333H25.5996V22.6665Z" fill="black"/>
<path d="M25.5996 21.5H24.7993V22.6668H25.5996V21.5Z" fill="white"/>
<path d="M25.5996 20.3335H24.7993V21.5003H25.5996V20.3335Z" fill="white"/>
<path d="M25.5996 19.1665H24.7993V20.3333H25.5996V19.1665Z" fill="black"/>
<path d="M25.5996 18H24.7993V19.1668H25.5996V18Z" fill="#FDEED8"/>
<path d="M25.5996 16.8335H24.7993V18.0003H25.5996V16.8335Z" fill="white"/>
<path d="M25.5996 15.6665H24.7993V16.8333H25.5996V15.6665Z" fill="#FDEED8"/>
<path d="M25.5996 14.5H24.7993V15.6668H25.5996V14.5Z" fill="black"/>
<path d="M25.5996 13.3335H24.7993V14.5003H25.5996V13.3335Z" fill="#FDEED8"/>
<path d="M25.5996 12.1665H24.7993V13.3333H25.5996V12.1665Z" fill="white"/>
<path d="M25.5996 11H24.7993V12.1668H25.5996V11Z" fill="#FDEED8"/>
<path d="M25.5996 9.83301H24.7993V10.9998H25.5996V9.83301Z" fill="black"/>
<path d="M25.5996 8.6665H24.7993V9.83331H25.5996V8.6665Z" fill="#FDEED8"/>
<path d="M25.5996 7.5H24.7993V8.66681H25.5996V7.5Z" fill="#FDEED8"/>
<path d="M25.5996 6.33301H24.7993V7.49981H25.5996V6.33301Z" fill="#FDEED8"/>
<path d="M25.5996 5.1665H24.7993V6.33331H25.5996V5.1665Z" fill="black"/>
<path d="M24.7996 30.8335H23.9998V32.0003H24.7996V30.8335Z" fill="black"/>
<path d="M24.7996 29.667H23.9998V30.8338H24.7996V29.667Z" fill="#4FB848"/>
<path d="M24.7996 28.5H23.9998V29.6668H24.7996V28.5Z" fill="black"/>
<path d="M24.7996 27.3335H23.9998V28.5003H24.7996V27.3335Z" fill="black"/>
<path d="M24.7996 26.1665H23.9998V27.3333H24.7996V26.1665Z" fill="#F8CB89"/>
<path d="M24.7996 25H23.9998V26.1668H24.7996V25Z" fill="black"/>
<path d="M24.7996 23.8335H23.9998V25.0003H24.7996V23.8335Z" fill="#FADCB1"/>
<path d="M24.7996 22.6665H23.9998V23.8333H24.7996V22.6665Z" fill="black"/>
<path d="M24.7996 21.5H23.9998V22.6668H24.7996V21.5Z" fill="#FDEED8"/>
<path d="M24.7996 20.3335H23.9998V21.5003H24.7996V20.3335Z" fill="white"/>
<path d="M24.7996 19.1665H23.9998V20.3333H24.7996V19.1665Z" fill="black"/>
<path d="M24.7996 18H23.9998V19.1668H24.7996V18Z" fill="white"/>
<path d="M24.7996 16.8335H23.9998V18.0003H24.7996V16.8335Z" fill="#FDEED8"/>
<path d="M24.7996 15.6665H23.9998V16.8333H24.7996V15.6665Z" fill="white"/>
<path d="M24.7996 14.5H23.9998V15.6668H24.7996V14.5Z" fill="black"/>
<path d="M24.7996 13.3335H23.9998V14.5003H24.7996V13.3335Z" fill="white"/>
<path d="M24.7996 12.1665H23.9998V13.3333H24.7996V12.1665Z" fill="#FDEED8"/>
<path d="M24.7996 11H23.9998V12.1668H24.7996V11Z" fill="white"/>
<path d="M24.7996 9.83301H23.9998V10.9998H24.7996V9.83301Z" fill="black"/>
<path d="M24.7996 8.6665H23.9998V9.83331H24.7996V8.6665Z" fill="white"/>
<path d="M24.7996 7.5H23.9998V8.66681H24.7996V7.5Z" fill="#FDEED8"/>
<path d="M24.7996 6.33301H23.9998V7.49981H24.7996V6.33301Z" fill="white"/>
<path d="M24.7996 5.1665H23.9998V6.33331H24.7996V5.1665Z" fill="black"/>
<path d="M23.9998 30.8335H23.2V32.0003H23.9998V30.8335Z" fill="black"/>
<path d="M23.9998 29.667H23.2V30.8338H23.9998V29.667Z" fill="#4FB848"/>
<path d="M23.9998 28.5H23.2V29.6668H23.9998V28.5Z" fill="black"/>
<path d="M23.9998 27.3335H23.2V28.5003H23.9998V27.3335Z" fill="#F8CB89"/>
<path d="M23.9998 26.1665H23.2V27.3333H23.9998V26.1665Z" fill="black"/>
<path d="M23.9998 25H23.2V26.1668H23.9998V25Z" fill="#FADCB1"/>
<path d="M23.9998 23.8335H23.2V25.0003H23.9998V23.8335Z" fill="black"/>
<path d="M23.9998 22.6665H23.2V23.8333H23.9998V22.6665Z" fill="#FDEED8"/>
<path d="M23.9998 21.5H23.2V22.6668H23.9998V21.5Z" fill="#FDEED8"/>
<path d="M23.9998 20.3335H23.2V21.5003H23.9998V20.3335Z" fill="black"/>
<path d="M23.9998 19.1665H23.2V20.3333H23.9998V19.1665Z" fill="#FDEED8"/>
<path d="M23.9998 18H23.2V19.1668H23.9998V18Z" fill="#FDEED8"/>
<path d="M23.9998 16.8335H23.2V18.0003H23.9998V16.8335Z" fill="#FDEED8"/>
<path d="M23.9998 15.6665H23.2V16.8333H23.9998V15.6665Z" fill="black"/>
<path d="M23.9998 14.5H23.2V15.6668H23.9998V14.5Z" fill="#FDEED8"/>
<path d="M23.9998 13.3335H23.2V14.5003H23.9998V13.3335Z" fill="#FDEED8"/>
<path d="M23.9998 12.1665H23.2V13.3333H23.9998V12.1665Z" fill="#FDEED8"/>
<path d="M23.9998 11H23.2V12.1668H23.9998V11Z" fill="black"/>
<path d="M23.9998 9.83301H23.2V10.9998H23.9998V9.83301Z" fill="#FDEED8"/>
<path d="M23.9998 8.6665H23.2V9.83331H23.9998V8.6665Z" fill="#FDEED8"/>
<path d="M23.9998 7.5H23.2V8.66681H23.9998V7.5Z" fill="white"/>
<path d="M23.9998 6.33301H23.2V7.49981H23.9998V6.33301Z" fill="black"/>
<path d="M23.1992 30.8335H22.3994V32.0003H23.1992V30.8335Z" fill="black"/>
<path d="M23.1992 29.667H22.3994V30.8338H23.1992V29.667Z" fill="#4FB848"/>
<path d="M23.1992 28.5H22.3994V29.6668H23.1992V28.5Z" fill="black"/>
<path d="M23.1992 27.3335H22.3994V28.5003H23.1992V27.3335Z" fill="#F8CB89"/>
<path d="M23.1992 26.1665H22.3994V27.3333H23.1992V26.1665Z" fill="black"/>
<path d="M23.1992 25H22.3994V26.1668H23.1992V25Z" fill="#FADCB1"/>
<path d="M23.1992 23.8335H22.3994V25.0003H23.1992V23.8335Z" fill="black"/>
<path d="M23.1992 22.6665H22.3994V23.8333H23.1992V22.6665Z" fill="#FDEED8"/>
<path d="M23.1992 21.5H22.3994V22.6668H23.1992V21.5Z" fill="#FDEED8"/>
<path d="M23.1992 20.3335H22.3994V21.5003H23.1992V20.3335Z" fill="black"/>
<path d="M23.1992 19.1665H22.3994V20.3333H23.1992V19.1665Z" fill="#FDEED8"/>
<path d="M23.1992 18H22.3994V19.1668H23.1992V18Z" fill="#FDEED8"/>
<path d="M23.1992 16.8335H22.3994V18.0003H23.1992V16.8335Z" fill="#FDEED8"/>
<path d="M23.1992 15.6665H22.3994V16.8333H23.1992V15.6665Z" fill="black"/>
<path d="M23.1992 14.5H22.3994V15.6668H23.1992V14.5Z" fill="#FDEED8"/>
<path d="M23.1992 13.3335H22.3994V14.5003H23.1992V13.3335Z" fill="#FDEED8"/>
<path d="M23.1992 12.1665H22.3994V13.3333H23.1992V12.1665Z" fill="#FDEED8"/>
<path d="M23.1992 11H22.3994V12.1668H23.1992V11Z" fill="black"/>
<path d="M23.1992 9.83301H22.3994V10.9998H23.1992V9.83301Z" fill="#FDEED8"/>
<path d="M23.1992 8.6665H22.3994V9.83331H23.1992V8.6665Z" fill="#FDEED8"/>
<path d="M23.1992 7.5H22.3994V8.66681H23.1992V7.5Z" fill="#FDEED8"/>
<path d="M23.1992 6.33301H22.3994V7.49981H23.1992V6.33301Z" fill="black"/>
<path d="M22.3994 30.8335H21.5996V32.0003H22.3994V30.8335Z" fill="black"/>
<path d="M22.3994 29.667H21.5996V30.8338H22.3994V29.667Z" fill="#4FB848"/>
<path d="M22.3994 28.5H21.5996V29.6668H22.3994V28.5Z" fill="black"/>
<path d="M22.3994 27.3335H21.5996V28.5003H22.3994V27.3335Z" fill="black"/>
<path d="M22.3994 26.1665H21.5996V27.3333H22.3994V26.1665Z" fill="#FADCB1"/>
<path d="M22.3994 25H21.5996V26.1668H22.3994V25Z" fill="black"/>
<path d="M22.3994 23.8335H21.5996V25.0003H22.3994V23.8335Z" fill="#FDEED8"/>
<path d="M22.3994 22.6665H21.5996V23.8333H22.3994V22.6665Z" fill="#FDEED8"/>
<path d="M22.3994 21.5H21.5996V22.6668H22.3994V21.5Z" fill="#FDEED8"/>
<path d="M22.3994 20.3335H21.5996V21.5003H22.3994V20.3335Z" fill="black"/>
<path d="M22.3994 19.1665H21.5996V20.3333H22.3994V19.1665Z" fill="#FDEED8"/>
<path d="M22.3994 18H21.5996V19.1668H22.3994V18Z" fill="#FDEED8"/>
<path d="M22.3994 16.8335H21.5996V18.0003H22.3994V16.8335Z" fill="black"/>
<path d="M22.3994 15.6665H21.5996V16.8333H22.3994V15.6665Z" fill="#FDEED8"/>
<path d="M22.3994 14.5H21.5996V15.6668H22.3994V14.5Z" fill="#FDEED8"/>
<path d="M22.3994 13.3335H21.5996V14.5003H22.3994V13.3335Z" fill="#FDEED8"/>
<path d="M22.3994 12.1665H21.5996V13.3333H22.3994V12.1665Z" fill="black"/>
<path d="M22.3994 11H21.5996V12.1668H22.3994V11Z" fill="#FDEED8"/>
<path d="M22.3994 9.83301H21.5996V10.9998H22.3994V9.83301Z" fill="#FDEED8"/>
<path d="M22.3994 8.6665H21.5996V9.83331H22.3994V8.6665Z" fill="#FDEED8"/>
<path d="M22.3994 7.5H21.5996V8.66681H22.3994V7.5Z" fill="black"/>
<path d="M21.5996 30.8335H20.7998V32.0003H21.5996V30.8335Z" fill="black"/>
<path d="M21.5996 29.667H20.7998V30.8338H21.5996V29.667Z" fill="#4FB848"/>
<path d="M21.5996 28.5H20.7998V29.6668H21.5996V28.5Z" fill="black"/>
<path d="M21.5996 27.3335H20.7998V28.5003H21.5996V27.3335Z" fill="black"/>
<path d="M21.5996 26.1665H20.7998V27.3333H21.5996V26.1665Z" fill="#FADCB1"/>
<path d="M21.5996 25H20.7998V26.1668H21.5996V25Z" fill="black"/>
<path d="M21.5996 23.8335H20.7998V25.0003H21.5996V23.8335Z" fill="#FDEED8"/>
<path d="M21.5996 22.6665H20.7998V23.8333H21.5996V22.6665Z" fill="#FDEED8"/>
<path d="M21.5996 21.5H20.7998V22.6668H21.5996V21.5Z" fill="black"/>
<path d="M21.5996 20.3335H20.7998V21.5003H21.5996V20.3335Z" fill="#FDEED8"/>
<path d="M21.5996 19.1665H20.7998V20.3333H21.5996V19.1665Z" fill="#FDEED8"/>
<path d="M21.5996 18H20.7998V19.1668H21.5996V18Z" fill="#FDEED8"/>
<path d="M21.5996 16.8335H20.7998V18.0003H21.5996V16.8335Z" fill="black"/>
<path d="M21.5996 15.6665H20.7998V16.8333H21.5996V15.6665Z" fill="#FDEED8"/>
<path d="M21.5996 14.5H20.7998V15.6668H21.5996V14.5Z" fill="#FDEED8"/>
<path d="M21.5996 13.3335H20.7998V14.5003H21.5996V13.3335Z" fill="#FDEED8"/>
<path d="M21.5996 12.1665H20.7998V13.3333H21.5996V12.1665Z" fill="black"/>
<path d="M21.5996 11H20.7998V12.1668H21.5996V11Z" fill="#FDEED8"/>
<path d="M21.5996 9.83301H20.7998V10.9998H21.5996V9.83301Z" fill="#FDEED8"/>
<path d="M21.5996 8.6665H20.7998V9.83331H21.5996V8.6665Z" fill="#FDEED8"/>
<path d="M21.5996 7.5H20.7998V8.66681H21.5996V7.5Z" fill="black"/>
<path d="M20.7996 30.8335H19.9998V32.0003H20.7996V30.8335Z" fill="black"/>
<path d="M20.7996 29.667H19.9998V30.8338H20.7996V29.667Z" fill="#4FB848"/>
<path d="M20.7996 28.5H19.9998V29.6668H20.7996V28.5Z" fill="black"/>
<path d="M20.7996 27.3335H19.9998V28.5003H20.7996V27.3335Z" fill="#FADCB1"/>
<path d="M20.7996 26.1665H19.9998V27.3333H20.7996V26.1665Z" fill="black"/>
<path d="M20.7996 25H19.9998V26.1668H20.7996V25Z" fill="#FDEED8"/>
<path d="M20.7996 23.8335H19.9998V25.0003H20.7996V23.8335Z" fill="#FDEED8"/>
<path d="M20.7996 22.6665H19.9998V23.8333H20.7996V22.6665Z" fill="#FDEED8"/>
<path d="M20.7996 21.5H19.9998V22.6668H20.7996V21.5Z" fill="black"/>
<path d="M20.7996 20.3335H19.9998V21.5003H20.7996V20.3335Z" fill="#FDEED8"/>
<path d="M20.7996 19.1665H19.9998V20.3333H20.7996V19.1665Z" fill="#FDEED8"/>
<path d="M20.7996 18H19.9998V19.1668H20.7996V18Z" fill="black"/>
<path d="M20.7996 16.8335H19.9998V18.0003H20.7996V16.8335Z" fill="#FDEED8"/>
<path d="M20.7996 15.6665H19.9998V16.8333H20.7996V15.6665Z" fill="#FDEED8"/>
<path d="M20.7996 14.5H19.9998V15.6668H20.7996V14.5Z" fill="#FDEED8"/>
<path d="M20.7996 13.3335H19.9998V14.5003H20.7996V13.3335Z" fill="black"/>
<path d="M20.7996 12.1665H19.9998V13.3333H20.7996V12.1665Z" fill="#FDEED8"/>
<path d="M20.7996 11H19.9998V12.1668H20.7996V11Z" fill="#FDEED8"/>
<path d="M20.7996 9.83301H19.9998V10.9998H20.7996V9.83301Z" fill="#FDEED8"/>
<path d="M20.7996 8.6665H19.9998V9.83331H20.7996V8.6665Z" fill="black"/>
<path d="M20.0002 30.8335H19.2V32.0003H20.0002V30.8335Z" fill="black"/>
<path d="M20.0002 29.667H19.2V30.8338H20.0002V29.667Z" fill="#4FB848"/>
<path d="M20.0002 28.5H19.2V29.6668H20.0002V28.5Z" fill="black"/>
<path d="M20.0002 27.3335H19.2V28.5003H20.0002V27.3335Z" fill="black"/>
<path d="M20.0002 26.1665H19.2V27.3333H20.0002V26.1665Z" fill="#FDEED8"/>
<path d="M20.0002 25H19.2V26.1668H20.0002V25Z" fill="#FDEED8"/>
<path d="M20.0002 23.8335H19.2V25.0003H20.0002V23.8335Z" fill="#FDEED8"/>
<path d="M20.0002 22.6665H19.2V23.8333H20.0002V22.6665Z" fill="#FDEED8"/>
<path d="M20.0002 21.5H19.2V22.6668H20.0002V21.5Z" fill="#FDEED8"/>
<path d="M20.0002 20.3335H19.2V21.5003H20.0002V20.3335Z" fill="#FDEED8"/>
<path d="M20.0002 19.1665H19.2V20.3333H20.0002V19.1665Z" fill="#FDEED8"/>
<path d="M20.0002 18H19.2V19.1668H20.0002V18Z" fill="#FDEED8"/>
<path d="M20.0002 16.8335H19.2V18.0003H20.0002V16.8335Z" fill="#FDEED8"/>
<path d="M20.0002 15.6665H19.2V16.8333H20.0002V15.6665Z" fill="#FDEED8"/>
<path d="M20.0002 14.5H19.2V15.6668H20.0002V14.5Z" fill="#FDEED8"/>
<path d="M20.0002 13.3335H19.2V14.5003H20.0002V13.3335Z" fill="#FDEED8"/>
<path d="M20.0002 12.1665H19.2V13.3333H20.0002V12.1665Z" fill="#FDEED8"/>
<path d="M20.0002 11H19.2V12.1668H20.0002V11Z" fill="#FDEED8"/>
<path d="M20.0002 9.83301H19.2V10.9998H20.0002V9.83301Z" fill="black"/>
<path d="M19.1995 30.8335H18.3997V32.0003H19.1995V30.8335Z" fill="black"/>
<path d="M19.1995 29.667H18.3997V30.8338H19.1995V29.667Z" fill="#4FB848"/>
<path d="M19.1995 28.5H18.3997V29.6668H19.1995V28.5Z" fill="black"/>
<path d="M19.1995 27.3335H18.3997V28.5003H19.1995V27.3335Z" fill="#FDEED8"/>
<path d="M19.1995 26.1665H18.3997V27.3333H19.1995V26.1665Z" fill="#FDEED8"/>
<path d="M19.1995 25H18.3997V26.1668H19.1995V25Z" fill="#FDEED8"/>
<path d="M19.1995 23.8335H18.3997V25.0003H19.1995V23.8335Z" fill="#FDEED8"/>
<path d="M19.1995 22.6665H18.3997V23.8333H19.1995V22.6665Z" fill="#FDEED8"/>
<path d="M19.1995 21.5H18.3997V22.6668H19.1995V21.5Z" fill="#FDEED8"/>
<path d="M19.1995 20.3335H18.3997V21.5003H19.1995V20.3335Z" fill="#FDEED8"/>
<path d="M19.1995 19.1665H18.3997V20.3333H19.1995V19.1665Z" fill="#FDEED8"/>
<path d="M19.1995 18H18.3997V19.1668H19.1995V18Z" fill="#FDEED8"/>
<path d="M19.1995 16.8335H18.3997V18.0003H19.1995V16.8335Z" fill="#FDEED8"/>
<path d="M19.1995 15.6665H18.3997V16.8333H19.1995V15.6665Z" fill="#FDEED8"/>
<path d="M19.1995 14.5H18.3997V15.6668H19.1995V14.5Z" fill="#FDEED8"/>
<path d="M19.1995 13.3335H18.3997V14.5003H19.1995V13.3335Z" fill="#FDEED8"/>
<path d="M19.1995 12.1665H18.3997V13.3333H19.1995V12.1665Z" fill="#FDEED8"/>
<path d="M19.1995 11H18.3997V12.1668H19.1995V11Z" fill="black"/>
<path d="M18.3997 30.8335H17.5999V32.0003H18.3997V30.8335Z" fill="black"/>
<path d="M18.3997 29.667H17.5999V30.8338H18.3997V29.667Z" fill="black"/>
<path d="M18.3997 28.5H17.5999V29.6668H18.3997V28.5Z" fill="black"/>
<path d="M18.3997 27.3335H17.5999V28.5003H18.3997V27.3335Z" fill="black"/>
<path d="M18.3997 26.1665H17.5999V27.3333H18.3997V26.1665Z" fill="black"/>
<path d="M18.3997 25H17.5999V26.1668H18.3997V25Z" fill="black"/>
<path d="M18.3997 23.8335H17.5999V25.0003H18.3997V23.8335Z" fill="black"/>
<path d="M18.3997 22.6665H17.5999V23.8333H18.3997V22.6665Z" fill="black"/>
<path d="M18.3997 21.5H17.5999V22.6668H18.3997V21.5Z" fill="black"/>
<path d="M18.3997 20.3335H17.5999V21.5003H18.3997V20.3335Z" fill="black"/>
<path d="M18.3997 19.1665H17.5999V20.3333H18.3997V19.1665Z" fill="black"/>
<path d="M18.3997 18H17.5999V19.1668H18.3997V18Z" fill="black"/>
<path d="M18.3997 16.8335H17.5999V18.0003H18.3997V16.8335Z" fill="black"/>
<path d="M18.3997 15.6665H17.5999V16.8333H18.3997V15.6665Z" fill="black"/>
<path d="M18.3997 14.5H17.5999V15.6668H18.3997V14.5Z" fill="black"/>
<path d="M18.3997 13.3335H17.5999V14.5003H18.3997V13.3335Z" fill="black"/>
<path d="M18.3997 12.1665H17.5999V13.3333H18.3997V12.1665Z" fill="black"/>
<path d="M17.5994 30.8335H16.7996V32.0003H17.5994V30.8335Z" fill="black"/>
<path d="M17.5994 29.667H16.7996V30.8338H17.5994V29.667Z" fill="#E5C463"/>
<path d="M17.5994 28.5H16.7996V29.6668H17.5994V28.5Z" fill="black"/>
<path d="M17.5994 27.3335H16.7996V28.5003H17.5994V27.3335Z" fill="#FDEED8"/>
<path d="M17.5994 26.1665H16.7996V27.3333H17.5994V26.1665Z" fill="#FDEED8"/>
<path d="M17.5994 25H16.7996V26.1668H17.5994V25Z" fill="#FDEED8"/>
<path d="M17.5994 23.8335H16.7996V25.0003H17.5994V23.8335Z" fill="#FDEED8"/>
<path d="M17.5994 22.6665H16.7996V23.8333H17.5994V22.6665Z" fill="#FDEED8"/>
<path d="M17.5994 21.5H16.7996V22.6668H17.5994V21.5Z" fill="#FDEED8"/>
<path d="M17.5994 20.3335H16.7996V21.5003H17.5994V20.3335Z" fill="#FDEED8"/>
<path d="M17.5994 19.1665H16.7996V20.3333H17.5994V19.1665Z" fill="#FDEED8"/>
<path d="M17.5994 18H16.7996V19.1668H17.5994V18Z" fill="#FDEED8"/>
<path d="M17.5994 16.8335H16.7996V18.0003H17.5994V16.8335Z" fill="#FDEED8"/>
<path d="M17.5994 15.6665H16.7996V16.8333H17.5994V15.6665Z" fill="#FDEED8"/>
<path d="M17.5994 14.5H16.7996V15.6668H17.5994V14.5Z" fill="#FDEED8"/>
<path d="M17.5994 13.3335H16.7996V14.5003H17.5994V13.3335Z" fill="#FDEED8"/>
<path d="M17.5994 12.1665H16.7996V13.3333H17.5994V12.1665Z" fill="#FDEED8"/>
<path d="M17.5994 11H16.7996V12.1668H17.5994V11Z" fill="black"/>
<path d="M16.7996 30.8335H15.9998V32.0003H16.7996V30.8335Z" fill="black"/>
<path d="M16.7996 29.667H15.9998V30.8338H16.7996V29.667Z" fill="#E5C463"/>
<path d="M16.7996 28.5H15.9998V29.6668H16.7996V28.5Z" fill="black"/>
<path d="M16.7996 27.3335H15.9998V28.5003H16.7996V27.3335Z" fill="black"/>
<path d="M16.7996 26.1665H15.9998V27.3333H16.7996V26.1665Z" fill="#FDEED8"/>
<path d="M16.7996 25H15.9998V26.1668H16.7996V25Z" fill="#FDEED8"/>
<path d="M16.7996 23.8335H15.9998V25.0003H16.7996V23.8335Z" fill="#FDEED8"/>
<path d="M16.7996 22.6665H15.9998V23.8333H16.7996V22.6665Z" fill="#FDEED8"/>
<path d="M16.7996 21.5H15.9998V22.6668H16.7996V21.5Z" fill="#FDEED8"/>
<path d="M16.7996 20.3335H15.9998V21.5003H16.7996V20.3335Z" fill="#FDEED8"/>
<path d="M16.7996 19.1665H15.9998V20.3333H16.7996V19.1665Z" fill="#FDEED8"/>
<path d="M16.7996 18H15.9998V19.1668H16.7996V18Z" fill="#FDEED8"/>
<path d="M16.7996 16.8335H15.9998V18.0003H16.7996V16.8335Z" fill="#FDEED8"/>
<path d="M16.7996 15.6665H15.9998V16.8333H16.7996V15.6665Z" fill="#FDEED8"/>
<path d="M16.7996 14.5H15.9998V15.6668H16.7996V14.5Z" fill="#FDEED8"/>
<path d="M16.7996 13.3335H15.9998V14.5003H16.7996V13.3335Z" fill="#FDEED8"/>
<path d="M16.7996 12.1665H15.9998V13.3333H16.7996V12.1665Z" fill="#FDEED8"/>
<path d="M16.7996 11H15.9998V12.1668H16.7996V11Z" fill="#FDEED8"/>
<path d="M16.7996 9.83301H15.9998V10.9998H16.7996V9.83301Z" fill="black"/>
<path d="M15.9998 30.8335H15.2V32.0003H15.9998V30.8335Z" fill="black"/>
<path d="M15.9998 29.667H15.2V30.8338H15.9998V29.667Z" fill="#E5C463"/>
<path d="M15.9998 28.5H15.2V29.6668H15.9998V28.5Z" fill="black"/>
<path d="M15.9998 27.3335H15.2V28.5003H15.9998V27.3335Z" fill="#FADCB1"/>
<path d="M15.9998 26.1665H15.2V27.3333H15.9998V26.1665Z" fill="black"/>
<path d="M15.9998 25H15.2V26.1668H15.9998V25Z" fill="#FDEED8"/>
<path d="M15.9998 23.8335H15.2V25.0003H15.9998V23.8335Z" fill="#FDEED8"/>
<path d="M15.9998 22.6665H15.2V23.8333H15.9998V22.6665Z" fill="#FDEED8"/>
<path d="M15.9998 21.5H15.2V22.6668H15.9998V21.5Z" fill="black"/>
<path d="M15.9998 20.3335H15.2V21.5003H15.9998V20.3335Z" fill="#FDEED8"/>
<path d="M15.9998 19.1665H15.2V20.3333H15.9998V19.1665Z" fill="#FDEED8"/>
<path d="M15.9998 18H15.2V19.1668H15.9998V18Z" fill="black"/>
<path d="M15.9998 16.8335H15.2V18.0003H15.9998V16.8335Z" fill="#FDEED8"/>
<path d="M15.9998 15.6665H15.2V16.8333H15.9998V15.6665Z" fill="#FDEED8"/>
<path d="M15.9998 14.5H15.2V15.6668H15.9998V14.5Z" fill="#FDEED8"/>
<path d="M15.9998 13.3335H15.2V14.5003H15.9998V13.3335Z" fill="black"/>
<path d="M15.9998 12.1665H15.2V13.3333H15.9998V12.1665Z" fill="#FDEED8"/>
<path d="M15.9998 11H15.2V12.1668H15.9998V11Z" fill="#FDEED8"/>
<path d="M15.9998 9.83301H15.2V10.9998H15.9998V9.83301Z" fill="#FDEED8"/>
<path d="M15.9998 8.6665H15.2V9.83331H15.9998V8.6665Z" fill="black"/>
<path d="M15.1997 30.8335H14.3999V32.0003H15.1997V30.8335Z" fill="black"/>
<path d="M15.1997 29.667H14.3999V30.8338H15.1997V29.667Z" fill="#E5C463"/>
<path d="M15.1997 28.5H14.3999V29.6668H15.1997V28.5Z" fill="black"/>
<path d="M15.1997 27.3335H14.3999V28.5003H15.1997V27.3335Z" fill="black"/>
<path d="M15.1997 26.1665H14.3999V27.3333H15.1997V26.1665Z" fill="#FADCB1"/>
<path d="M15.1997 25H14.3999V26.1668H15.1997V25Z" fill="black"/>
<path d="M15.1997 23.8335H14.3999V25.0003H15.1997V23.8335Z" fill="#FDEED8"/>
<path d="M15.1997 22.6665H14.3999V23.8333H15.1997V22.6665Z" fill="#FDEED8"/>
<path d="M15.1997 21.5H14.3999V22.6668H15.1997V21.5Z" fill="black"/>
<path d="M15.1997 20.3335H14.3999V21.5003H15.1997V20.3335Z" fill="#FDEED8"/>
<path d="M15.1997 19.1665H14.3999V20.3333H15.1997V19.1665Z" fill="#FDEED8"/>
<path d="M15.1997 18H14.3999V19.1668H15.1997V18Z" fill="#FDEED8"/>
<path d="M15.1997 16.8335H14.3999V18.0003H15.1997V16.8335Z" fill="black"/>
<path d="M15.1997 15.6665H14.3999V16.8333H15.1997V15.6665Z" fill="#FDEED8"/>
<path d="M15.1997 14.5H14.3999V15.6668H15.1997V14.5Z" fill="#FDEED8"/>
<path d="M15.1997 13.3335H14.3999V14.5003H15.1997V13.3335Z" fill="#FDEED8"/>
<path d="M15.1997 12.1665H14.3999V13.3333H15.1997V12.1665Z" fill="black"/>
<path d="M15.1997 11H14.3999V12.1668H15.1997V11Z" fill="#FDEED8"/>
<path d="M15.1997 9.83301H14.3999V10.9998H15.1997V9.83301Z" fill="#FDEED8"/>
<path d="M15.1997 8.6665H14.3999V9.83331H15.1997V8.6665Z" fill="#FDEED8"/>
<path d="M15.1997 7.5H14.3999V8.66681H15.1997V7.5Z" fill="black"/>
<path d="M14.4004 30.8335H13.6001V32.0003H14.4004V30.8335Z" fill="black"/>
<path d="M14.4004 29.667H13.6001V30.8338H14.4004V29.667Z" fill="#E5C463"/>
<path d="M14.4004 28.5H13.6001V29.6668H14.4004V28.5Z" fill="black"/>
<path d="M14.4004 27.3335H13.6001V28.5003H14.4004V27.3335Z" fill="black"/>
<path d="M14.4004 26.1665H13.6001V27.3333H14.4004V26.1665Z" fill="#FADCB1"/>
<path d="M14.4004 25H13.6001V26.1668H14.4004V25Z" fill="black"/>
<path d="M14.4004 23.8335H13.6001V25.0003H14.4004V23.8335Z" fill="#FDEED8"/>
<path d="M14.4004 22.6665H13.6001V23.8333H14.4004V22.6665Z" fill="#FDEED8"/>
<path d="M14.4004 21.5H13.6001V22.6668H14.4004V21.5Z" fill="#FDEED8"/>
<path d="M14.4004 20.3335H13.6001V21.5003H14.4004V20.3335Z" fill="black"/>
<path d="M14.4004 19.1665H13.6001V20.3333H14.4004V19.1665Z" fill="#FDEED8"/>
<path d="M14.4004 18H13.6001V19.1668H14.4004V18Z" fill="#FDEED8"/>
<path d="M14.4004 16.8335H13.6001V18.0003H14.4004V16.8335Z" fill="black"/>
<path d="M14.4004 15.6665H13.6001V16.8333H14.4004V15.6665Z" fill="#FDEED8"/>
<path d="M14.4004 14.5H13.6001V15.6668H14.4004V14.5Z" fill="#FDEED8"/>
<path d="M14.4004 13.3335H13.6001V14.5003H14.4004V13.3335Z" fill="#FDEED8"/>
<path d="M14.4004 12.1665H13.6001V13.3333H14.4004V12.1665Z" fill="black"/>
<path d="M14.4004 11H13.6001V12.1668H14.4004V11Z" fill="#FDEED8"/>
<path d="M14.4004 9.83301H13.6001V10.9998H14.4004V9.83301Z" fill="#FDEED8"/>
<path d="M14.4004 8.6665H13.6001V9.83331H14.4004V8.6665Z" fill="#FDEED8"/>
<path d="M14.4004 7.5H13.6001V8.66681H14.4004V7.5Z" fill="black"/>
<path d="M13.5994 30.8335H12.7996V32.0003H13.5994V30.8335Z" fill="black"/>
<path d="M13.5994 29.667H12.7996V30.8338H13.5994V29.667Z" fill="#E5C463"/>
<path d="M13.5994 28.5H12.7996V29.6668H13.5994V28.5Z" fill="black"/>
<path d="M13.5994 27.3335H12.7996V28.5003H13.5994V27.3335Z" fill="#F8CB89"/>
<path d="M13.5994 26.1665H12.7996V27.3333H13.5994V26.1665Z" fill="black"/>
<path d="M13.5994 25H12.7996V26.1668H13.5994V25Z" fill="#FADCB1"/>
<path d="M13.5994 23.8335H12.7996V25.0003H13.5994V23.8335Z" fill="black"/>
<path d="M13.5994 22.6665H12.7996V23.8333H13.5994V22.6665Z" fill="#FDEED8"/>
<path d="M13.5994 21.5H12.7996V22.6668H13.5994V21.5Z" fill="#FDEED8"/>
<path d="M13.5994 20.3335H12.7996V21.5003H13.5994V20.3335Z" fill="black"/>
<path d="M13.5994 19.1665H12.7996V20.3333H13.5994V19.1665Z" fill="#FDEED8"/>
<path d="M13.5994 18H12.7996V19.1668H13.5994V18Z" fill="#FDEED8"/>
<path d="M13.5994 16.8335H12.7996V18.0003H13.5994V16.8335Z" fill="#FDEED8"/>
<path d="M13.5994 15.6665H12.7996V16.8333H13.5994V15.6665Z" fill="black"/>
<path d="M13.5994 14.5H12.7996V15.6668H13.5994V14.5Z" fill="#FDEED8"/>
<path d="M13.5994 13.3335H12.7996V14.5003H13.5994V13.3335Z" fill="#FDEED8"/>
<path d="M13.5994 12.1665H12.7996V13.3333H13.5994V12.1665Z" fill="#FDEED8"/>
<path d="M13.5994 11H12.7996V12.1668H13.5994V11Z" fill="black"/>
<path d="M13.5994 9.83301H12.7996V10.9998H13.5994V9.83301Z" fill="#FDEED8"/>
<path d="M13.5994 8.6665H12.7996V9.83331H13.5994V8.6665Z" fill="#FDEED8"/>
<path d="M13.5994 7.5H12.7996V8.66681H13.5994V7.5Z" fill="#FDEED8"/>
<path d="M13.5994 6.33301H12.7996V7.49981H13.5994V6.33301Z" fill="black"/>
<path d="M12.7996 30.8335H11.9998V32.0003H12.7996V30.8335Z" fill="black"/>
<path d="M12.7996 29.667H11.9998V30.8338H12.7996V29.667Z" fill="#E5C463"/>
<path d="M12.7996 28.5H11.9998V29.6668H12.7996V28.5Z" fill="black"/>
<path d="M12.7996 27.3335H11.9998V28.5003H12.7996V27.3335Z" fill="#F8CB89"/>
<path d="M12.7996 26.1665H11.9998V27.3333H12.7996V26.1665Z" fill="black"/>
<path d="M12.7996 25H11.9998V26.1668H12.7996V25Z" fill="#FADCB1"/>
<path d="M12.7996 23.8335H11.9998V25.0003H12.7996V23.8335Z" fill="black"/>
<path d="M12.7996 22.6665H11.9998V23.8333H12.7996V22.6665Z" fill="#FDEED8"/>
<path d="M12.7996 21.5H11.9998V22.6668H12.7996V21.5Z" fill="#FDEED8"/>
<path d="M12.7996 20.3335H11.9998V21.5003H12.7996V20.3335Z" fill="black"/>
<path d="M12.7996 19.1665H11.9998V20.3333H12.7996V19.1665Z" fill="#FDEED8"/>
<path d="M12.7996 18H11.9998V19.1668H12.7996V18Z" fill="#FDEED8"/>
<path d="M12.7996 16.8335H11.9998V18.0003H12.7996V16.8335Z" fill="#FDEED8"/>
<path d="M12.7996 15.6665H11.9998V16.8333H12.7996V15.6665Z" fill="black"/>
<path d="M12.7996 14.5H11.9998V15.6668H12.7996V14.5Z" fill="#FDEED8"/>
<path d="M12.7996 13.3335H11.9998V14.5003H12.7996V13.3335Z" fill="#FDEED8"/>
<path d="M12.7996 12.1665H11.9998V13.3333H12.7996V12.1665Z" fill="#FDEED8"/>
<path d="M12.7996 11H11.9998V12.1668H12.7996V11Z" fill="black"/>
<path d="M12.7996 9.83301H11.9998V10.9998H12.7996V9.83301Z" fill="#FDEED8"/>
<path d="M12.7996 8.6665H11.9998V9.83331H12.7996V8.6665Z" fill="#FDEED8"/>
<path d="M12.7996 7.5H11.9998V8.66681H12.7996V7.5Z" fill="#FDEED8"/>
<path d="M12.7996 6.33301H11.9998V7.49981H12.7996V6.33301Z" fill="black"/>
<path d="M11.9998 30.8335H11.2V32.0003H11.9998V30.8335Z" fill="black"/>
<path d="M11.9998 29.667H11.2V30.8338H11.9998V29.667Z" fill="#E5C463"/>
<path d="M11.9998 28.5H11.2V29.6668H11.9998V28.5Z" fill="black"/>
<path d="M11.9998 27.3335H11.2V28.5003H11.9998V27.3335Z" fill="black"/>
<path d="M11.9998 26.1665H11.2V27.3333H11.9998V26.1665Z" fill="#F8CB89"/>
<path d="M11.9998 25H11.2V26.1668H11.9998V25Z" fill="black"/>
<path d="M11.9998 23.8335H11.2V25.0003H11.9998V23.8335Z" fill="#FADCB1"/>
<path d="M11.9998 22.6665H11.2V23.8333H11.9998V22.6665Z" fill="black"/>
<path d="M11.9998 21.5H11.2V22.6668H11.9998V21.5Z" fill="#FDEED8"/>
<path d="M11.9998 20.3335H11.2V21.5003H11.9998V20.3335Z" fill="white"/>
<path d="M11.9998 19.1665H11.2V20.3333H11.9998V19.1665Z" fill="black"/>
<path d="M11.9998 18H11.2V19.1668H11.9998V18Z" fill="#FDEED8"/>
<path d="M11.9998 16.8335H11.2V18.0003H11.9998V16.8335Z" fill="#FDEED8"/>
<path d="M11.9998 15.6665H11.2V16.8333H11.9998V15.6665Z" fill="white"/>
<path d="M11.9998 14.5H11.2V15.6668H11.9998V14.5Z" fill="black"/>
<path d="M11.9998 13.3335H11.2V14.5003H11.9998V13.3335Z" fill="white"/>
<path d="M11.9998 12.1665H11.2V13.3333H11.9998V12.1665Z" fill="#FDEED8"/>
<path d="M11.9998 11H11.2V12.1668H11.9998V11Z" fill="white"/>
<path d="M11.9998 9.83301H11.2V10.9998H11.9998V9.83301Z" fill="black"/>
<path d="M11.9998 8.6665H11.2V9.83331H11.9998V8.6665Z" fill="white"/>
<path d="M11.9998 7.5H11.2V8.66681H11.9998V7.5Z" fill="#FDEED8"/>
<path d="M11.9998 6.33301H11.2V7.49981H11.9998V6.33301Z" fill="white"/>
<path d="M11.9998 5.1665H11.2V6.33331H11.9998V5.1665Z" fill="black"/>
<path d="M11.1995 30.8335H10.3997V32.0003H11.1995V30.8335Z" fill="black"/>
<path d="M11.1995 29.667H10.3997V30.8338H11.1995V29.667Z" fill="#E5C463"/>
<path d="M11.1995 28.5H10.3997V29.6668H11.1995V28.5Z" fill="black"/>
<path d="M11.1995 27.3335H10.3997V28.5003H11.1995V27.3335Z" fill="black"/>
<path d="M11.1995 26.1665H10.3997V27.3333H11.1995V26.1665Z" fill="#F8CB89"/>
<path d="M11.1995 25H10.3997V26.1668H11.1995V25Z" fill="black"/>
<path d="M11.1995 23.8335H10.3997V25.0003H11.1995V23.8335Z" fill="#FADCB1"/>
<path d="M11.1995 22.6665H10.3997V23.8333H11.1995V22.6665Z" fill="black"/>
<path d="M11.1995 21.5H10.3997V22.6668H11.1995V21.5Z" fill="white"/>
<path d="M11.1995 20.3335H10.3997V21.5003H11.1995V20.3335Z" fill="#FDEED8"/>
<path d="M11.1995 19.1665H10.3997V20.3333H11.1995V19.1665Z" fill="black"/>
<path d="M11.1995 18H10.3997V19.1668H11.1995V18Z" fill="#FDEED8"/>
<path d="M11.1995 16.8335H10.3997V18.0003H11.1995V16.8335Z" fill="white"/>
<path d="M11.1995 15.6665H10.3997V16.8333H11.1995V15.6665Z" fill="#FDEED8"/>
<path d="M11.1995 14.5H10.3997V15.6668H11.1995V14.5Z" fill="black"/>
<path d="M11.1995 13.3335H10.3997V14.5003H11.1995V13.3335Z" fill="#FDEED8"/>
<path d="M11.1995 12.1665H10.3997V13.3333H11.1995V12.1665Z" fill="white"/>
<path d="M11.1995 11H10.3997V12.1668H11.1995V11Z" fill="#FDEED8"/>
<path d="M11.1995 9.83301H10.3997V10.9998H11.1995V9.83301Z" fill="black"/>
<path d="M11.1995 8.6665H10.3997V9.83331H11.1995V8.6665Z" fill="#FDEED8"/>
<path d="M11.1995 7.5H10.3997V8.66681H11.1995V7.5Z" fill="white"/>
<path d="M11.1995 6.33301H10.3997V7.49981H11.1995V6.33301Z" fill="#FDEED8"/>
<path d="M11.1995 5.1665H10.3997V6.33331H11.1995V5.1665Z" fill="black"/>
<path d="M10.3997 30.8335H9.59985V32.0003H10.3997V30.8335Z" fill="black"/>
<path d="M10.3997 29.667H9.59985V30.8338H10.3997V29.667Z" fill="#E5C463"/>
<path d="M10.3997 28.5H9.59985V29.6668H10.3997V28.5Z" fill="#E5C463"/>
<path d="M10.3997 27.3335H9.59985V28.5003H10.3997V27.3335Z" fill="black"/>
<path d="M10.3997 26.1665H9.59985V27.3333H10.3997V26.1665Z" fill="#F8CB89"/>
<path d="M10.3997 25H9.59985V26.1668H10.3997V25Z" fill="black"/>
<path d="M10.3997 23.8335H9.59985V25.0003H10.3997V23.8335Z" fill="#FADCB1"/>
<path d="M10.3997 22.6665H9.59985V23.8333H10.3997V22.6665Z" fill="black"/>
<path d="M10.3997 21.5H9.59985V22.6668H10.3997V21.5Z" fill="#FDEED8"/>
<path d="M10.3997 20.3335H9.59985V21.5003H10.3997V20.3335Z" fill="#FDEED8"/>
<path d="M10.3997 19.1665H9.59985V20.3333H10.3997V19.1665Z" fill="#FDEED8"/>
<path d="M10.3997 18H9.59985V19.1668H10.3997V18Z" fill="black"/>
<path d="M10.3997 16.8335H9.59985V18.0003H10.3997V16.8335Z" fill="#FDEED8"/>
<path d="M10.3997 15.6665H9.59985V16.8333H10.3997V15.6665Z" fill="#FDEED8"/>
<path d="M10.3997 14.5H9.59985V15.6668H10.3997V14.5Z" fill="#FDEED8"/>
<path d="M10.3997 13.3335H9.59985V14.5003H10.3997V13.3335Z" fill="black"/>
<path d="M10.3997 12.1665H9.59985V13.3333H10.3997V12.1665Z" fill="#FDEED8"/>
<path d="M10.3997 11H9.59985V12.1668H10.3997V11Z" fill="#FDEED8"/>
<path d="M10.3997 9.83301H9.59985V10.9998H10.3997V9.83301Z" fill="#FDEED8"/>
<path d="M10.3997 8.6665H9.59985V9.83331H10.3997V8.6665Z" fill="black"/>
<path d="M10.3997 7.5H9.59985V8.66681H10.3997V7.5Z" fill="#FDEED8"/>
<path d="M10.3997 6.33301H9.59985V7.49981H10.3997V6.33301Z" fill="#FDEED8"/>
<path d="M10.3997 5.1665H9.59985V6.33331H10.3997V5.1665Z" fill="black"/>
<path d="M9.59961 29.667H8.7998V30.8338H9.59961V29.667Z" fill="black"/>
<path d="M9.59961 28.5H8.7998V29.6668H9.59961V28.5Z" fill="#E5C463"/>
<path d="M9.59961 27.3335H8.7998V28.5003H9.59961V27.3335Z" fill="#E5C463"/>
<path d="M9.59961 26.1665H8.7998V27.3333H9.59961V26.1665Z" fill="black"/>
<path d="M9.59961 25H8.7998V26.1668H9.59961V25Z" fill="#F8CB89"/>
<path d="M9.59961 23.8335H8.7998V25.0003H9.59961V23.8335Z" fill="black"/>
<path d="M9.59961 22.6665H8.7998V23.8333H9.59961V22.6665Z" fill="#FADCB1"/>
<path d="M9.59961 21.5H8.7998V22.6668H9.59961V21.5Z" fill="black"/>
<path d="M9.59961 20.3335H8.7998V21.5003H9.59961V20.3335Z" fill="#FDEED8"/>
<path d="M9.59961 19.1665H8.7998V20.3333H9.59961V19.1665Z" fill="#FDEED8"/>
<path d="M9.59961 18H8.7998V19.1668H9.59961V18Z" fill="black"/>
<path d="M9.59961 16.8335H8.7998V18.0003H9.59961V16.8335Z" fill="#FDEED8"/>
<path d="M9.59961 15.6665H8.7998V16.8333H9.59961V15.6665Z" fill="#FDEED8"/>
<path d="M9.59961 14.5H8.7998V15.6668H9.59961V14.5Z" fill="#FDEED8"/>
<path d="M9.59961 13.3335H8.7998V14.5003H9.59961V13.3335Z" fill="black"/>
<path d="M9.59961 12.1665H8.7998V13.3333H9.59961V12.1665Z" fill="#FDEED8"/>
<path d="M9.59961 11H8.7998V12.1668H9.59961V11Z" fill="#FDEED8"/>
<path d="M9.59961 9.83301H8.7998V10.9998H9.59961V9.83301Z" fill="#FDEED8"/>
<path d="M9.59961 8.6665H8.7998V9.83331H9.59961V8.6665Z" fill="black"/>
<path d="M9.59961 7.5H8.7998V8.66681H9.59961V7.5Z" fill="#FDEED8"/>
<path d="M9.59961 6.33301H8.7998V7.49981H9.59961V6.33301Z" fill="#FDEED8"/>
<path d="M9.59961 5.1665H8.7998V6.33331H9.59961V5.1665Z" fill="#FDEED8"/>
<path d="M9.59961 4H8.7998V5.16681H9.59961V4Z" fill="black"/>
<path d="M8.79981 28.5H8V29.6668H8.79981V28.5Z" fill="black"/>
<path d="M8.79981 27.3335H8V28.5003H8.79981V27.3335Z" fill="#E5C463"/>
<path d="M8.79981 26.1665H8V27.3333H8.79981V26.1665Z" fill="black"/>
<path d="M8.79981 25H8V26.1668H8.79981V25Z" fill="#F8CB89"/>
<path d="M8.79981 23.8335H8V25.0003H8.79981V23.8335Z" fill="black"/>
<path d="M8.79981 22.6665H8V23.8333H8.79981V22.6665Z" fill="#FADCB1"/>
<path d="M8.79981 21.5H8V22.6668H8.79981V21.5Z" fill="black"/>
<path d="M8.79981 20.3335H8V21.5003H8.79981V20.3335Z" fill="#FDEED8"/>
<path d="M8.79981 19.1665H8V20.3333H8.79981V19.1665Z" fill="#FDEED8"/>
<path d="M8.79981 18H8V19.1668H8.79981V18Z" fill="black"/>
<path d="M8.79981 16.8335H8V18.0003H8.79981V16.8335Z" fill="#FDEED8"/>
<path d="M8.79981 15.6665H8V16.8333H8.79981V15.6665Z" fill="#FDEED8"/>
<path d="M8.79981 14.5H8V15.6668H8.79981V14.5Z" fill="#FDEED8"/>
<path d="M8.79981 13.3335H8V14.5003H8.79981V13.3335Z" fill="black"/>
<path d="M8.79981 12.1665H8V13.3333H8.79981V12.1665Z" fill="#FDEED8"/>
<path d="M8.79981 11H8V12.1668H8.79981V11Z" fill="#FDEED8"/>
<path d="M8.79981 9.83301H8V10.9998H8.79981V9.83301Z" fill="#FDEED8"/>
<path d="M8.79981 8.6665H8V9.83331H8.79981V8.6665Z" fill="black"/>
<path d="M8.79981 7.5H8V8.66681H8.79981V7.5Z" fill="#FDEED8"/>
<path d="M8.79981 6.33301H8V7.49981H8.79981V6.33301Z" fill="#FDEED8"/>
<path d="M8.79981 5.1665H8V6.33331H8.79981V5.1665Z" fill="#FDEED8"/>
<path d="M8.79981 4H8V5.16681H8.79981V4Z" fill="black"/>
<path d="M8.00045 28.5H7.2002V29.6668H8.00045V28.5Z" fill="black"/>
<path d="M8.00045 27.3335H7.2002V28.5003H8.00045V27.3335Z" fill="#E5C463"/>
<path d="M8.00045 26.1665H7.2002V27.3333H8.00045V26.1665Z" fill="black"/>
<path d="M8.00045 25H7.2002V26.1668H8.00045V25Z" fill="#F8CB89"/>
<path d="M8.00045 23.8335H7.2002V25.0003H8.00045V23.8335Z" fill="black"/>
<path d="M8.00045 22.6665H7.2002V23.8333H8.00045V22.6665Z" fill="#FADCB1"/>
<path d="M8.00045 21.5H7.2002V22.6668H8.00045V21.5Z" fill="black"/>
<path d="M8.00045 20.3335H7.2002V21.5003H8.00045V20.3335Z" fill="#FDEED8"/>
<path d="M8.00045 19.1665H7.2002V20.3333H8.00045V19.1665Z" fill="#FDEED8"/>
<path d="M8.00045 18H7.2002V19.1668H8.00045V18Z" fill="#FDEED8"/>
<path d="M8.00045 16.8335H7.2002V18.0003H8.00045V16.8335Z" fill="#FDEED8"/>
<path d="M8.00045 15.6665H7.2002V16.8333H8.00045V15.6665Z" fill="#FDEED8"/>
<path d="M8.00045 14.5H7.2002V15.6668H8.00045V14.5Z" fill="#FDEED8"/>
<path d="M8.00045 13.3335H7.2002V14.5003H8.00045V13.3335Z" fill="#FDEED8"/>
<path d="M8.00045 12.1665H7.2002V13.3333H8.00045V12.1665Z" fill="#FDEED8"/>
<path d="M8.00045 11H7.2002V12.1668H8.00045V11Z" fill="#FDEED8"/>
<path d="M8.00045 9.83301H7.2002V10.9998H8.00045V9.83301Z" fill="#FDEED8"/>
<path d="M8.00045 8.6665H7.2002V9.83331H8.00045V8.6665Z" fill="#FDEED8"/>
<path d="M8.00045 7.5H7.2002V8.66681H8.00045V7.5Z" fill="#FDEED8"/>
<path d="M8.00045 6.33301H7.2002V7.49981H8.00045V6.33301Z" fill="#FDEED8"/>
<path d="M8.00045 5.1665H7.2002V6.33331H8.00045V5.1665Z" fill="#FDEED8"/>
<path d="M8.00045 4H7.2002V5.16681H8.00045V4Z" fill="black"/>
<path d="M7.19971 28.5H6.3999V29.6668H7.19971V28.5Z" fill="black"/>
<path d="M7.19971 27.3335H6.3999V28.5003H7.19971V27.3335Z" fill="#E5C463"/>
<path d="M7.19971 26.1665H6.3999V27.3333H7.19971V26.1665Z" fill="black"/>
<path d="M7.19971 25H6.3999V26.1668H7.19971V25Z" fill="#F8CB89"/>
<path d="M7.19971 23.8335H6.3999V25.0003H7.19971V23.8335Z" fill="black"/>
<path d="M7.19971 22.6665H6.3999V23.8333H7.19971V22.6665Z" fill="#FADCB1"/>
<path d="M7.19971 21.5H6.3999V22.6668H7.19971V21.5Z" fill="black"/>
<path d="M7.19971 20.3335H6.3999V21.5003H7.19971V20.3335Z" fill="black"/>
<path d="M7.19971 19.1665H6.3999V20.3333H7.19971V19.1665Z" fill="black"/>
<path d="M7.19971 18H6.3999V19.1668H7.19971V18Z" fill="black"/>
<path d="M7.19971 16.8335H6.3999V18.0003H7.19971V16.8335Z" fill="black"/>
<path d="M7.19971 15.6665H6.3999V16.8333H7.19971V15.6665Z" fill="black"/>
<path d="M7.19971 14.5H6.3999V15.6668H7.19971V14.5Z" fill="black"/>
<path d="M7.19971 13.3335H6.3999V14.5003H7.19971V13.3335Z" fill="black"/>
<path d="M7.19971 12.1665H6.3999V13.3333H7.19971V12.1665Z" fill="black"/>
<path d="M7.19971 11H6.3999V12.1668H7.19971V11Z" fill="black"/>
<path d="M7.19971 9.83301H6.3999V10.9998H7.19971V9.83301Z" fill="black"/>
<path d="M7.19971 8.6665H6.3999V9.83331H7.19971V8.6665Z" fill="black"/>
<path d="M7.19971 7.5H6.3999V8.66681H7.19971V7.5Z" fill="black"/>
<path d="M7.19971 6.33301H6.3999V7.49981H7.19971V6.33301Z" fill="black"/>
<path d="M7.19971 5.1665H6.3999V6.33331H7.19971V5.1665Z" fill="black"/>
<path d="M7.19971 4H6.3999V5.16681H7.19971V4Z" fill="black"/>
<path d="M6.3999 28.5H5.6001V29.6668H6.3999V28.5Z" fill="black"/>
<path d="M6.3999 27.3335H5.6001V28.5003H6.3999V27.3335Z" fill="#E5C463"/>
<path d="M6.3999 26.1665H5.6001V27.3333H6.3999V26.1665Z" fill="black"/>
<path d="M6.3999 25H5.6001V26.1668H6.3999V25Z" fill="#F8CB89"/>
<path d="M6.3999 23.8335H5.6001V25.0003H6.3999V23.8335Z" fill="black"/>
<path d="M6.3999 22.6665H5.6001V23.8333H6.3999V22.6665Z" fill="black"/>
<path d="M6.3999 21.5H5.6001V22.6668H6.3999V21.5Z" fill="black"/>
<path d="M6.3999 20.3335H5.6001V21.5003H6.3999V20.3335Z" fill="black"/>
<path d="M6.3999 19.1665H5.6001V20.3333H6.3999V19.1665Z" fill="black"/>
<path d="M6.3999 18H5.6001V19.1668H6.3999V18Z" fill="black"/>
<path d="M6.3999 16.8335H5.6001V18.0003H6.3999V16.8335Z" fill="black"/>
<path d="M6.3999 15.6665H5.6001V16.8333H6.3999V15.6665Z" fill="black"/>
<path d="M6.3999 14.5H5.6001V15.6668H6.3999V14.5Z" fill="black"/>
<path d="M6.3999 13.3335H5.6001V14.5003H6.3999V13.3335Z" fill="black"/>
<path d="M6.3999 12.1665H5.6001V13.3333H6.3999V12.1665Z" fill="black"/>
<path d="M6.3999 11H5.6001V12.1668H6.3999V11Z" fill="black"/>
<path d="M6.3999 9.83301H5.6001V10.9998H6.3999V9.83301Z" fill="black"/>
<path d="M6.3999 8.6665H5.6001V9.83331H6.3999V8.6665Z" fill="black"/>
<path d="M6.3999 7.5H5.6001V8.66681H6.3999V7.5Z" fill="black"/>
<path d="M6.3999 6.33301H5.6001V7.49981H6.3999V6.33301Z" fill="black"/>
<path d="M5.59961 28.5H4.7998V29.6668H5.59961V28.5Z" fill="black"/>
<path d="M5.59961 27.3335H4.7998V28.5003H5.59961V27.3335Z" fill="#E5C463"/>
<path d="M5.59961 26.1665H4.7998V27.3333H5.59961V26.1665Z" fill="black"/>
<path d="M5.59961 25H4.7998V26.1668H5.59961V25Z" fill="black"/>
<path d="M5.59961 23.8335H4.7998V25.0003H5.59961V23.8335Z" fill="black"/>
<path d="M5.59961 22.6665H4.7998V23.8333H5.59961V22.6665Z" fill="black"/>
<path d="M5.59961 21.5H4.7998V22.6668H5.59961V21.5Z" fill="black"/>
<path d="M5.59961 20.3335H4.7998V21.5003H5.59961V20.3335Z" fill="black"/>
<path d="M5.59961 19.1665H4.7998V20.3333H5.59961V19.1665Z" fill="black"/>
<path d="M5.59961 18H4.7998V19.1668H5.59961V18Z" fill="black"/>
<path d="M5.59961 16.8335H4.7998V18.0003H5.59961V16.8335Z" fill="black"/>
<path d="M5.59961 15.6665H4.7998V16.8333H5.59961V15.6665Z" fill="black"/>
<path d="M5.59961 14.5H4.7998V15.6668H5.59961V14.5Z" fill="black"/>
<path d="M5.59961 13.3335H4.7998V14.5003H5.59961V13.3335Z" fill="black"/>
<path d="M5.59961 12.1665H4.7998V13.3333H5.59961V12.1665Z" fill="black"/>
<path d="M5.59961 11H4.7998V12.1668H5.59961V11Z" fill="black"/>
<path d="M5.59961 9.83301H4.7998V10.9998H5.59961V9.83301Z" fill="black"/>
<path d="M5.59961 8.6665H4.7998V9.83331H5.59961V8.6665Z" fill="black"/>
<path d="M4.79981 27.3335H4V28.5003H4.79981V27.3335Z" fill="black"/>
</g>
</svg>
