<svg width="40" height="40" viewBox="0 0 40 40" fill="none" xmlns="http://www.w3.org/2000/svg">
<g filter="url(#filter0_ddd_3015_295989)">
<path d="M27.9127 6H27.3042V6.59581H27.9127V6Z" fill="#060608"/>
<path d="M28.5211 6H27.9126V6.59581H28.5211V6Z" fill="#060608"/>
<path d="M29.1302 6H28.5217V6.59581H29.1302V6Z" fill="#060608"/>
<path d="M29.7388 6H29.1304V6.59581H29.7388V6Z" fill="#060608"/>
<path d="M27.3043 6.59521H26.6958V7.19103H27.3043V6.59521Z" fill="#060608"/>
<path d="M27.9127 6.59521H27.3042V7.19103H27.9127V6.59521Z" fill="#333B41"/>
<path d="M28.5211 6.59521H27.9126V7.19103H28.5211V6.59521Z" fill="#4A5762"/>
<path d="M29.1302 6.59521H28.5217V7.19103H29.1302V6.59521Z" fill="#4A5762"/>
<path d="M29.7388 6.59521H29.1304V7.19103H29.7388V6.59521Z" fill="#4A5762"/>
<path d="M30.3477 6.59521H29.7393V7.19103H30.3477V6.59521Z" fill="#060608"/>
<path d="M26.6959 7.19141H26.0874V7.78722H26.6959V7.19141Z" fill="#060608"/>
<path d="M27.3043 7.19141H26.6958V7.78722H27.3043V7.19141Z" fill="#333B41"/>
<path d="M27.9127 7.19141H27.3042V7.78722H27.9127V7.19141Z" fill="#4A5762"/>
<path d="M28.5211 7.19141H27.9126V7.78722H28.5211V7.19141Z" fill="#4A5762"/>
<path d="M29.1302 7.19141H28.5217V7.78722H29.1302V7.19141Z" fill="#4A5762"/>
<path d="M29.7388 7.19141H29.1304V7.78722H29.7388V7.19141Z" fill="#4A5762"/>
<path d="M30.3477 7.19141H29.7393V7.78722H30.3477V7.19141Z" fill="#4A5762"/>
<path d="M30.9561 7.19141H30.3477V7.78722H30.9561V7.19141Z" fill="#060608"/>
<path d="M26.0875 7.78662H25.479V8.38243H26.0875V7.78662Z" fill="#060608"/>
<path d="M26.6959 7.78662H26.0874V8.38243H26.6959V7.78662Z" fill="#333B41"/>
<path d="M27.3043 7.78662H26.6958V8.38243H27.3043V7.78662Z" fill="#4A5762"/>
<path d="M27.9127 7.78662H27.3042V8.38243H27.9127V7.78662Z" fill="#4A5762"/>
<path d="M28.5211 7.78662H27.9126V8.38243H28.5211V7.78662Z" fill="#4A5762"/>
<path d="M29.1302 7.78662H28.5217V8.38243H29.1302V7.78662Z" fill="#4A5762"/>
<path d="M29.7388 7.78662H29.1304V8.38243H29.7388V7.78662Z" fill="#4A5762"/>
<path d="M30.3477 7.78662H29.7393V8.38243H30.3477V7.78662Z" fill="#4A5762"/>
<path d="M30.9561 7.78662H30.3477V8.38243H30.9561V7.78662Z" fill="#4A5762"/>
<path d="M31.565 7.78662H30.9565V8.38243H31.565V7.78662Z" fill="#060608"/>
<path d="M25.4784 8.3833H24.8699V8.97911H25.4784V8.3833Z" fill="#060608"/>
<path d="M26.0875 8.3833H25.479V8.97911H26.0875V8.3833Z" fill="#333B41"/>
<path d="M26.6959 8.3833H26.0874V8.97911H26.6959V8.3833Z" fill="#4A5762"/>
<path d="M27.3043 8.3833H26.6958V8.97911H27.3043V8.3833Z" fill="#4A5762"/>
<path d="M27.9127 8.3833H27.3042V8.97911H27.9127V8.3833Z" fill="#4A5762"/>
<path d="M28.5211 8.3833H27.9126V8.97911H28.5211V8.3833Z" fill="#333B41"/>
<path d="M29.1302 8.3833H28.5217V8.97911H29.1302V8.3833Z" fill="#060608"/>
<path d="M29.7388 8.3833H29.1304V8.97911H29.7388V8.3833Z" fill="#333B41"/>
<path d="M30.3477 8.3833H29.7393V8.97911H30.3477V8.3833Z" fill="#4A5762"/>
<path d="M30.9561 8.3833H30.3477V8.97911H30.9561V8.3833Z" fill="#4A5762"/>
<path d="M31.565 8.3833H30.9565V8.97911H31.565V8.3833Z" fill="#4A5762"/>
<path d="M32.1734 8.3833H31.5649V8.97911H32.1734V8.3833Z" fill="#060608"/>
<path d="M24.87 8.97852H24.2615V9.57433H24.87V8.97852Z" fill="#060608"/>
<path d="M25.4784 8.97852H24.8699V9.57433H25.4784V8.97852Z" fill="#333B41"/>
<path d="M26.0875 8.97852H25.479V9.57433H26.0875V8.97852Z" fill="#4A5762"/>
<path d="M26.6959 8.97852H26.0874V9.57433H26.6959V8.97852Z" fill="#6D798D"/>
<path d="M27.3043 8.97852H26.6958V9.57433H27.3043V8.97852Z" fill="#6D798D"/>
<path d="M27.9127 8.97852H27.3042V9.57433H27.9127V8.97852Z" fill="#333B41"/>
<path d="M28.5211 8.97852H27.9126V9.57433H28.5211V8.97852Z" fill="#060608"/>
<path d="M29.1302 8.97852H28.5217V9.57433H29.1302V8.97852Z" fill="#C4C8D1"/>
<path d="M29.7388 8.97852H29.1304V9.57433H29.7388V8.97852Z" fill="#060608"/>
<path d="M30.3477 8.97852H29.7393V9.57433H30.3477V8.97852Z" fill="#333B41"/>
<path d="M30.9561 8.97852H30.3477V9.57433H30.9561V8.97852Z" fill="#4A5762"/>
<path d="M31.565 8.97852H30.9565V9.57433H31.565V8.97852Z" fill="#4A5762"/>
<path d="M32.1734 8.97852H31.5649V9.57433H32.1734V8.97852Z" fill="#060608"/>
<path d="M24.2608 9.57471H23.6523V10.1705H24.2608V9.57471Z" fill="#060608"/>
<path d="M24.87 9.57471H24.2615V10.1705H24.87V9.57471Z" fill="#333B41"/>
<path d="M25.4784 9.57471H24.8699V10.1705H25.4784V9.57471Z" fill="#4A5762"/>
<path d="M26.0875 9.57471H25.479V10.1705H26.0875V9.57471Z" fill="#6D798D"/>
<path d="M26.6959 9.57471H26.0874V10.1705H26.6959V9.57471Z" fill="#6D798D"/>
<path d="M27.3043 9.57471H26.6958V10.1705H27.3043V9.57471Z" fill="#4A5762"/>
<path d="M27.9127 9.57471H27.3042V10.1705H27.9127V9.57471Z" fill="#060608"/>
<path d="M28.5211 9.57471H27.9126V10.1705H28.5211V9.57471Z" fill="#C4C8D1"/>
<path d="M29.1302 9.57471H28.5217V10.1705H29.1302V9.57471Z" fill="#DAE2EA"/>
<path d="M29.7388 9.57471H29.1304V10.1705H29.7388V9.57471Z" fill="#C4C8D1"/>
<path d="M30.3477 9.57471H29.7393V10.1705H30.3477V9.57471Z" fill="#060608"/>
<path d="M30.9561 9.57471H30.3477V10.1705H30.9561V9.57471Z" fill="#4A5762"/>
<path d="M31.565 9.57471H30.9565V10.1705H31.565V9.57471Z" fill="#4A5762"/>
<path d="M32.1734 9.57471H31.5649V10.1705H32.1734V9.57471Z" fill="#4A5762"/>
<path d="M32.7825 9.57471H32.1741V10.1705H32.7825V9.57471Z" fill="#060608"/>
<path d="M23.6522 10.1704H23.0437V10.7662H23.6522V10.1704Z" fill="#060608"/>
<path d="M24.2608 10.1704H23.6523V10.7662H24.2608V10.1704Z" fill="#C4C8D1"/>
<path d="M24.87 10.1704H24.2615V10.7662H24.87V10.1704Z" fill="#333B41"/>
<path d="M25.4784 10.1704H24.8699V10.7662H25.4784V10.1704Z" fill="#4A5762"/>
<path d="M26.0875 10.1704H25.479V10.7662H26.0875V10.1704Z" fill="#6D798D"/>
<path d="M26.6959 10.1704H26.0874V10.7662H26.6959V10.1704Z" fill="#6D798D"/>
<path d="M27.3043 10.1704H26.6958V10.7662H27.3043V10.1704Z" fill="#333B41"/>
<path d="M27.9127 10.1704H27.3042V10.7662H27.9127V10.1704Z" fill="#060608"/>
<path d="M28.5211 10.1704H27.9126V10.7662H28.5211V10.1704Z" fill="#DAE2EA"/>
<path d="M29.1302 10.1704H28.5217V10.7662H29.1302V10.1704Z" fill="#DAE2EA"/>
<path d="M29.7388 10.1704H29.1304V10.7662H29.7388V10.1704Z" fill="#DAE2EA"/>
<path d="M30.3477 10.1704H29.7393V10.7662H30.3477V10.1704Z" fill="#060608"/>
<path d="M30.9561 10.1704H30.3477V10.7662H30.9561V10.1704Z" fill="#333B41"/>
<path d="M31.565 10.1704H30.9565V10.7662H31.565V10.1704Z" fill="#4A5762"/>
<path d="M32.1734 10.1704H31.5649V10.7662H32.1734V10.1704Z" fill="#4A5762"/>
<path d="M32.7825 10.1704H32.1741V10.7662H32.7825V10.1704Z" fill="#060608"/>
<path d="M22.4351 10.7661H21.8267V11.3619H22.4351V10.7661Z" fill="#060608"/>
<path d="M23.0435 10.7661H22.4351V11.3619H23.0435V10.7661Z" fill="#060608"/>
<path d="M23.6522 10.7661H23.0437V11.3619H23.6522V10.7661Z" fill="#C4C8D1"/>
<path d="M24.2608 10.7661H23.6523V11.3619H24.2608V10.7661Z" fill="#C4C8D1"/>
<path d="M24.87 10.7661H24.2615V11.3619H24.87V10.7661Z" fill="#333B41"/>
<path d="M25.4784 10.7661H24.8699V11.3619H25.4784V10.7661Z" fill="#4A5762"/>
<path d="M26.0875 10.7661H25.479V11.3619H26.0875V10.7661Z" fill="#6D798D"/>
<path d="M26.6959 10.7661H26.0874V11.3619H26.6959V10.7661Z" fill="#6D798D"/>
<path d="M27.3043 10.7661H26.6958V11.3619H27.3043V10.7661Z" fill="#060608"/>
<path d="M27.9127 10.7661H27.3042V11.3619H27.9127V10.7661Z" fill="#C4C8D1"/>
<path d="M28.5211 10.7661H27.9126V11.3619H28.5211V10.7661Z" fill="#DAE2EA"/>
<path d="M29.1302 10.7661H28.5217V11.3619H29.1302V10.7661Z" fill="#DAE2EA"/>
<path d="M29.7388 10.7661H29.1304V11.3619H29.7388V10.7661Z" fill="#DAE2EA"/>
<path d="M30.3477 10.7661H29.7393V11.3619H30.3477V10.7661Z" fill="#C4C8D1"/>
<path d="M30.9561 10.7661H30.3477V11.3619H30.9561V10.7661Z" fill="#060608"/>
<path d="M31.565 10.7661H30.9565V11.3619H31.565V10.7661Z" fill="#4A5762"/>
<path d="M32.1734 10.7661H31.5649V11.3619H32.1734V10.7661Z" fill="#4A5762"/>
<path d="M32.7825 10.7661H32.1741V11.3619H32.7825V10.7661Z" fill="#4A5762"/>
<path d="M33.3909 10.7661H32.7825V11.3619H33.3909V10.7661Z" fill="#060608"/>
<path d="M21.2176 11.3613H20.6091V11.9571H21.2176V11.3613Z" fill="#060608"/>
<path d="M21.8263 11.3613H21.2178V11.9571H21.8263V11.3613Z" fill="#060608"/>
<path d="M22.4351 11.3613H21.8267V11.9571H22.4351V11.3613Z" fill="#C4C8D1"/>
<path d="M23.0435 11.3613H22.4351V11.9571H23.0435V11.3613Z" fill="#C4C8D1"/>
<path d="M23.6522 11.3613H23.0437V11.9571H23.6522V11.3613Z" fill="#C4C8D1"/>
<path d="M24.2608 11.3613H23.6523V11.9571H24.2608V11.3613Z" fill="#DAE2EA"/>
<path d="M24.87 11.3613H24.2615V11.9571H24.87V11.3613Z" fill="#333B41"/>
<path d="M25.4784 11.3613H24.8699V11.9571H25.4784V11.3613Z" fill="#6D798D"/>
<path d="M26.0875 11.3613H25.479V11.9571H26.0875V11.3613Z" fill="#6D798D"/>
<path d="M26.6959 11.3613H26.0874V11.9571H26.6959V11.3613Z" fill="#6D798D"/>
<path d="M27.3043 11.3613H26.6958V11.9571H27.3043V11.3613Z" fill="#060608"/>
<path d="M27.9127 11.3613H27.3042V11.9571H27.9127V11.3613Z" fill="#C4C8D1"/>
<path d="M28.5211 11.3613H27.9126V11.9571H28.5211V11.3613Z" fill="#DAE2EA"/>
<path d="M29.1302 11.3613H28.5217V11.9571H29.1302V11.3613Z" fill="#DAE2EA"/>
<path d="M29.7388 11.3613H29.1304V11.9571H29.7388V11.3613Z" fill="#DAE2EA"/>
<path d="M30.3477 11.3613H29.7393V11.9571H30.3477V11.3613Z" fill="#DAE2EA"/>
<path d="M30.9561 11.3613H30.3477V11.9571H30.9561V11.3613Z" fill="#060608"/>
<path d="M31.565 11.3613H30.9565V11.9571H31.565V11.3613Z" fill="#4A5762"/>
<path d="M32.1734 11.3613H31.5649V11.9571H32.1734V11.3613Z" fill="#4A5762"/>
<path d="M32.7825 11.3613H32.1741V11.9571H32.7825V11.3613Z" fill="#4A5762"/>
<path d="M33.3909 11.3613H32.7825V11.9571H33.3909V11.3613Z" fill="#060608"/>
<path d="M19.3907 11.957H18.7822V12.5528H19.3907V11.957Z" fill="#060608"/>
<path d="M20.0001 11.957H19.3916V12.5528H20.0001V11.957Z" fill="#060608"/>
<path d="M20.6085 11.957H20V12.5528H20.6085V11.957Z" fill="#060608"/>
<path d="M21.2176 11.957H20.6091V12.5528H21.2176V11.957Z" fill="#C4C8D1"/>
<path d="M21.8263 11.957H21.2178V12.5528H21.8263V11.957Z" fill="#C4C8D1"/>
<path d="M22.4351 11.957H21.8267V12.5528H22.4351V11.957Z" fill="#C4C8D1"/>
<path d="M23.0435 11.957H22.4351V12.5528H23.0435V11.957Z" fill="#DAE2EA"/>
<path d="M23.6522 11.957H23.0437V12.5528H23.6522V11.957Z" fill="#DAE2EA"/>
<path d="M24.2608 11.957H23.6523V12.5528H24.2608V11.957Z" fill="#333B41"/>
<path d="M24.87 11.957H24.2615V12.5528H24.87V11.957Z" fill="#4A5762"/>
<path d="M25.4784 11.957H24.8699V12.5528H25.4784V11.957Z" fill="#6D798D"/>
<path d="M26.0875 11.957H25.479V12.5528H26.0875V11.957Z" fill="#6D798D"/>
<path d="M26.6959 11.957H26.0874V12.5528H26.6959V11.957Z" fill="#6D798D"/>
<path d="M27.3043 11.957H26.6958V12.5528H27.3043V11.957Z" fill="#060608"/>
<path d="M27.9127 11.957H27.3042V12.5528H27.9127V11.957Z" fill="#DAE2EA"/>
<path d="M28.5211 11.957H27.9126V12.5528H28.5211V11.957Z" fill="#DAE2EA"/>
<path d="M29.1302 11.957H28.5217V12.5528H29.1302V11.957Z" fill="#DAE2EA"/>
<path d="M29.7388 11.957H29.1304V12.5528H29.7388V11.957Z" fill="#DAE2EA"/>
<path d="M30.3477 11.957H29.7393V12.5528H30.3477V11.957Z" fill="#DAE2EA"/>
<path d="M30.9561 11.957H30.3477V12.5528H30.9561V11.957Z" fill="#060608"/>
<path d="M31.565 11.957H30.9565V12.5528H31.565V11.957Z" fill="#4A5762"/>
<path d="M32.1734 11.957H31.5649V12.5528H32.1734V11.957Z" fill="#4A5762"/>
<path d="M32.7825 11.957H32.1741V12.5528H32.7825V11.957Z" fill="#4A5762"/>
<path d="M33.3909 11.957H32.7825V12.5528H33.3909V11.957Z" fill="#060608"/>
<path d="M11.4781 12.5532H10.8696V13.149H11.4781V12.5532Z" fill="#060608"/>
<path d="M12.087 12.5532H11.4785V13.149H12.087V12.5532Z" fill="#060608"/>
<path d="M12.6959 12.5532H12.0874V13.149H12.6959V12.5532Z" fill="#060608"/>
<path d="M13.3043 12.5532H12.6958V13.149H13.3043V12.5532Z" fill="#060608"/>
<path d="M13.9127 12.5532H13.3042V13.149H13.9127V12.5532Z" fill="#060608"/>
<path d="M14.5211 12.5532H13.9126V13.149H14.5211V12.5532Z" fill="#060608"/>
<path d="M16.9561 12.5532H16.3477V13.149H16.9561V12.5532Z" fill="#060608"/>
<path d="M17.565 12.5532H16.9565V13.149H17.565V12.5532Z" fill="#060608"/>
<path d="M18.1734 12.5532H17.5649V13.149H18.1734V12.5532Z" fill="#060608"/>
<path d="M18.7826 12.5532H18.1741V13.149H18.7826V12.5532Z" fill="#060608"/>
<path d="M19.3907 12.5532H18.7822V13.149H19.3907V12.5532Z" fill="#C4C8D1"/>
<path d="M20.0001 12.5532H19.3916V13.149H20.0001V12.5532Z" fill="#C4C8D1"/>
<path d="M20.6085 12.5532H20V13.149H20.6085V12.5532Z" fill="#C4C8D1"/>
<path d="M21.2176 12.5532H20.6091V13.149H21.2176V12.5532Z" fill="#DAE2EA"/>
<path d="M21.8263 12.5532H21.2178V13.149H21.8263V12.5532Z" fill="#DAE2EA"/>
<path d="M22.4351 12.5532H21.8267V13.149H22.4351V12.5532Z" fill="#DAE2EA"/>
<path d="M23.0435 12.5532H22.4351V13.149H23.0435V12.5532Z" fill="#DAE2EA"/>
<path d="M23.6522 12.5532H23.0437V13.149H23.6522V12.5532Z" fill="#DAE2EA"/>
<path d="M24.2608 12.5532H23.6523V13.149H24.2608V12.5532Z" fill="#333B41"/>
<path d="M24.87 12.5532H24.2615V13.149H24.87V12.5532Z" fill="#4A5762"/>
<path d="M25.4784 12.5532H24.8699V13.149H25.4784V12.5532Z" fill="#6D798D"/>
<path d="M26.0875 12.5532H25.479V13.149H26.0875V12.5532Z" fill="#6D798D"/>
<path d="M26.6959 12.5532H26.0874V13.149H26.6959V12.5532Z" fill="#4A5762"/>
<path d="M27.3043 12.5532H26.6958V13.149H27.3043V12.5532Z" fill="#060608"/>
<path d="M27.9127 12.5532H27.3042V13.149H27.9127V12.5532Z" fill="#DAE2EA"/>
<path d="M28.5211 12.5532H27.9126V13.149H28.5211V12.5532Z" fill="#DAE2EA"/>
<path d="M29.1302 12.5532H28.5217V13.149H29.1302V12.5532Z" fill="#DAE2EA"/>
<path d="M29.7388 12.5532H29.1304V13.149H29.7388V12.5532Z" fill="#DAE2EA"/>
<path d="M30.3477 12.5532H29.7393V13.149H30.3477V12.5532Z" fill="#DAE2EA"/>
<path d="M30.9561 12.5532H30.3477V13.149H30.9561V12.5532Z" fill="#060608"/>
<path d="M31.565 12.5532H30.9565V13.149H31.565V12.5532Z" fill="#333B41"/>
<path d="M32.1734 12.5532H31.5649V13.149H32.1734V12.5532Z" fill="#4A5762"/>
<path d="M32.7825 12.5532H32.1741V13.149H32.7825V12.5532Z" fill="#4A5762"/>
<path d="M33.3909 12.5532H32.7825V13.149H33.3909V12.5532Z" fill="#060608"/>
<path d="M9.65218 13.1484H9.0437V13.7443H9.65218V13.1484Z" fill="#060608"/>
<path d="M10.2608 13.1484H9.65234V13.7443H10.2608V13.1484Z" fill="#060608"/>
<path d="M10.8692 13.1484H10.2607V13.7443H10.8692V13.1484Z" fill="#060608"/>
<path d="M11.4781 13.1484H10.8696V13.7443H11.4781V13.1484Z" fill="#DEBC64"/>
<path d="M12.087 13.1484H11.4785V13.7443H12.087V13.1484Z" fill="#DEBC64"/>
<path d="M12.6959 13.1484H12.0874V13.7443H12.6959V13.1484Z" fill="#DEBC64"/>
<path d="M13.3043 13.1484H12.6958V13.7443H13.3043V13.1484Z" fill="#DEBC64"/>
<path d="M13.9127 13.1484H13.3042V13.7443H13.9127V13.1484Z" fill="#DEBC64"/>
<path d="M14.5211 13.1484H13.9126V13.7443H14.5211V13.1484Z" fill="#DEBC64"/>
<path d="M15.1302 13.1484H14.5217V13.7443H15.1302V13.1484Z" fill="#060608"/>
<path d="M15.7386 13.1484H15.1301V13.7443H15.7386V13.1484Z" fill="#060608"/>
<path d="M16.3477 13.1484H15.7393V13.7443H16.3477V13.1484Z" fill="#060608"/>
<path d="M16.9561 13.1484H16.3477V13.7443H16.9561V13.1484Z" fill="#C4C8D1"/>
<path d="M17.565 13.1484H16.9565V13.7443H17.565V13.1484Z" fill="#C4C8D1"/>
<path d="M18.1734 13.1484H17.5649V13.7443H18.1734V13.1484Z" fill="#C4C8D1"/>
<path d="M18.7826 13.1484H18.1741V13.7443H18.7826V13.1484Z" fill="#C4C8D1"/>
<path d="M19.3907 13.1484H18.7822V13.7443H19.3907V13.1484Z" fill="#C4C8D1"/>
<path d="M20.0001 13.1484H19.3916V13.7443H20.0001V13.1484Z" fill="#DAE2EA"/>
<path d="M20.6085 13.1484H20V13.7443H20.6085V13.1484Z" fill="#DAE2EA"/>
<path d="M21.2176 13.1484H20.6091V13.7443H21.2176V13.1484Z" fill="#DAE2EA"/>
<path d="M21.8263 13.1484H21.2178V13.7443H21.8263V13.1484Z" fill="#DAE2EA"/>
<path d="M22.4351 13.1484H21.8267V13.7443H22.4351V13.1484Z" fill="#DAE2EA"/>
<path d="M23.0435 13.1484H22.4351V13.7443H23.0435V13.1484Z" fill="#DAE2EA"/>
<path d="M23.6522 13.1484H23.0437V13.7443H23.6522V13.1484Z" fill="#DAE2EA"/>
<path d="M24.2608 13.1484H23.6523V13.7443H24.2608V13.1484Z" fill="#333B41"/>
<path d="M24.87 13.1484H24.2615V13.7443H24.87V13.1484Z" fill="#6D798D"/>
<path d="M25.4784 13.1484H24.8699V13.7443H25.4784V13.1484Z" fill="#6D798D"/>
<path d="M26.0875 13.1484H25.479V13.7443H26.0875V13.1484Z" fill="#6D798D"/>
<path d="M26.6959 13.1484H26.0874V13.7443H26.6959V13.1484Z" fill="#060608"/>
<path d="M27.3043 13.1484H26.6958V13.7443H27.3043V13.1484Z" fill="#C4C8D1"/>
<path d="M27.9127 13.1484H27.3042V13.7443H27.9127V13.1484Z" fill="#DAE2EA"/>
<path d="M28.5211 13.1484H27.9126V13.7443H28.5211V13.1484Z" fill="#DAE2EA"/>
<path d="M29.1302 13.1484H28.5217V13.7443H29.1302V13.1484Z" fill="#DAE2EA"/>
<path d="M29.7388 13.1484H29.1304V13.7443H29.7388V13.1484Z" fill="#DAE2EA"/>
<path d="M30.3477 13.1484H29.7393V13.7443H30.3477V13.1484Z" fill="#DAE2EA"/>
<path d="M30.9561 13.1484H30.3477V13.7443H30.9561V13.1484Z" fill="#DAE2EA"/>
<path d="M31.565 13.1484H30.9565V13.7443H31.565V13.1484Z" fill="#060608"/>
<path d="M32.1734 13.1484H31.5649V13.7443H32.1734V13.1484Z" fill="#4A5762"/>
<path d="M32.7825 13.1484H32.1741V13.7443H32.7825V13.1484Z" fill="#4A5762"/>
<path d="M33.3909 13.1484H32.7825V13.7443H33.3909V13.1484Z" fill="#060608"/>
<path d="M8.43465 13.7451H7.82617V14.3409H8.43465V13.7451Z" fill="#060608"/>
<path d="M9.04354 13.7451H8.43506V14.3409H9.04354V13.7451Z" fill="#060608"/>
<path d="M9.65218 13.7451H9.0437V14.3409H9.65218V13.7451Z" fill="#DEBC64"/>
<path d="M10.2608 13.7451H9.65234V14.3409H10.2608V13.7451Z" fill="#060608"/>
<path d="M10.8692 13.7451H10.2607V14.3409H10.8692V13.7451Z" fill="#DEBC64"/>
<path d="M11.4781 13.7451H10.8696V14.3409H11.4781V13.7451Z" fill="#DEBC64"/>
<path d="M12.087 13.7451H11.4785V14.3409H12.087V13.7451Z" fill="#DEBC64"/>
<path d="M12.6959 13.7451H12.0874V14.3409H12.6959V13.7451Z" fill="#DEBC64"/>
<path d="M13.3043 13.7451H12.6958V14.3409H13.3043V13.7451Z" fill="#DEBC64"/>
<path d="M13.9127 13.7451H13.3042V14.3409H13.9127V13.7451Z" fill="#E4A969"/>
<path d="M14.5211 13.7451H13.9126V14.3409H14.5211V13.7451Z" fill="#C4C8D1"/>
<path d="M15.1302 13.7451H14.5217V14.3409H15.1302V13.7451Z" fill="#C4C8D1"/>
<path d="M15.7386 13.7451H15.1301V14.3409H15.7386V13.7451Z" fill="#C4C8D1"/>
<path d="M16.3477 13.7451H15.7393V14.3409H16.3477V13.7451Z" fill="#C4C8D1"/>
<path d="M16.9561 13.7451H16.3477V14.3409H16.9561V13.7451Z" fill="#C4C8D1"/>
<path d="M17.565 13.7451H16.9565V14.3409H17.565V13.7451Z" fill="#DAE2EA"/>
<path d="M18.1734 13.7451H17.5649V14.3409H18.1734V13.7451Z" fill="#DAE2EA"/>
<path d="M18.7826 13.7451H18.1741V14.3409H18.7826V13.7451Z" fill="#DAE2EA"/>
<path d="M19.3907 13.7451H18.7822V14.3409H19.3907V13.7451Z" fill="#DAE2EA"/>
<path d="M20.0001 13.7451H19.3916V14.3409H20.0001V13.7451Z" fill="#DAE2EA"/>
<path d="M20.6085 13.7451H20V14.3409H20.6085V13.7451Z" fill="#DAE2EA"/>
<path d="M21.2176 13.7451H20.6091V14.3409H21.2176V13.7451Z" fill="#DAE2EA"/>
<path d="M21.8263 13.7451H21.2178V14.3409H21.8263V13.7451Z" fill="#DAE2EA"/>
<path d="M22.4351 13.7451H21.8267V14.3409H22.4351V13.7451Z" fill="#DAE2EA"/>
<path d="M23.0435 13.7451H22.4351V14.3409H23.0435V13.7451Z" fill="#DAE2EA"/>
<path d="M23.6522 13.7451H23.0437V14.3409H23.6522V13.7451Z" fill="white"/>
<path d="M24.2608 13.7451H23.6523V14.3409H24.2608V13.7451Z" fill="#333B41"/>
<path d="M24.87 13.7451H24.2615V14.3409H24.87V13.7451Z" fill="#6D798D"/>
<path d="M25.4784 13.7451H24.8699V14.3409H25.4784V13.7451Z" fill="#6D798D"/>
<path d="M26.0875 13.7451H25.479V14.3409H26.0875V13.7451Z" fill="#6D798D"/>
<path d="M26.6959 13.7451H26.0874V14.3409H26.6959V13.7451Z" fill="#060608"/>
<path d="M27.3043 13.7451H26.6958V14.3409H27.3043V13.7451Z" fill="#C4C8D1"/>
<path d="M27.9127 13.7451H27.3042V14.3409H27.9127V13.7451Z" fill="#DAE2EA"/>
<path d="M28.5211 13.7451H27.9126V14.3409H28.5211V13.7451Z" fill="#DAE2EA"/>
<path d="M29.1302 13.7451H28.5217V14.3409H29.1302V13.7451Z" fill="#DAE2EA"/>
<path d="M29.7388 13.7451H29.1304V14.3409H29.7388V13.7451Z" fill="#DAE2EA"/>
<path d="M30.3477 13.7451H29.7393V14.3409H30.3477V13.7451Z" fill="#DAE2EA"/>
<path d="M30.9561 13.7451H30.3477V14.3409H30.9561V13.7451Z" fill="#DAE2EA"/>
<path d="M31.565 13.7451H30.9565V14.3409H31.565V13.7451Z" fill="#060608"/>
<path d="M32.1734 13.7451H31.5649V14.3409H32.1734V13.7451Z" fill="#4A5762"/>
<path d="M32.7825 13.7451H32.1741V14.3409H32.7825V13.7451Z" fill="#4A5762"/>
<path d="M33.3909 13.7451H32.7825V14.3409H33.3909V13.7451Z" fill="#333B41"/>
<path d="M34.0001 13.7451H33.3916V14.3409H34.0001V13.7451Z" fill="#060608"/>
<path d="M7.82601 14.3408H7.21753V14.9366H7.82601V14.3408Z" fill="#060608"/>
<path d="M8.43465 14.3408H7.82617V14.9366H8.43465V14.3408Z" fill="#DEBC64"/>
<path d="M9.04354 14.3408H8.43506V14.9366H9.04354V14.3408Z" fill="#DEBC64"/>
<path d="M9.65218 14.3408H9.0437V14.9366H9.65218V14.3408Z" fill="#060608"/>
<path d="M10.2608 14.3408H9.65234V14.9366H10.2608V14.3408Z" fill="#B58B63"/>
<path d="M10.8692 14.3408H10.2607V14.9366H10.8692V14.3408Z" fill="#B58B63"/>
<path d="M11.4781 14.3408H10.8696V14.9366H11.4781V14.3408Z" fill="#B58B63"/>
<path d="M12.087 14.3408H11.4785V14.9366H12.087V14.3408Z" fill="#B58B63"/>
<path d="M12.6959 14.3408H12.0874V14.9366H12.6959V14.3408Z" fill="#B58B63"/>
<path d="M13.3043 14.3408H12.6958V14.9366H13.3043V14.3408Z" fill="#E4A969"/>
<path d="M13.9127 14.3408H13.3042V14.9366H13.9127V14.3408Z" fill="#C4C8D1"/>
<path d="M14.5211 14.3408H13.9126V14.9366H14.5211V14.3408Z" fill="#C4C8D1"/>
<path d="M15.1302 14.3408H14.5217V14.9366H15.1302V14.3408Z" fill="#DAE2EA"/>
<path d="M15.7386 14.3408H15.1301V14.9366H15.7386V14.3408Z" fill="#DAE2EA"/>
<path d="M16.3477 14.3408H15.7393V14.9366H16.3477V14.3408Z" fill="#DAE2EA"/>
<path d="M16.9561 14.3408H16.3477V14.9366H16.9561V14.3408Z" fill="#DAE2EA"/>
<path d="M17.565 14.3408H16.9565V14.9366H17.565V14.3408Z" fill="#DAE2EA"/>
<path d="M18.1734 14.3408H17.5649V14.9366H18.1734V14.3408Z" fill="#DAE2EA"/>
<path d="M18.7826 14.3408H18.1741V14.9366H18.7826V14.3408Z" fill="#DAE2EA"/>
<path d="M19.3907 14.3408H18.7822V14.9366H19.3907V14.3408Z" fill="#DAE2EA"/>
<path d="M20.0001 14.3408H19.3916V14.9366H20.0001V14.3408Z" fill="#DAE2EA"/>
<path d="M20.6085 14.3408H20V14.9366H20.6085V14.3408Z" fill="#DAE2EA"/>
<path d="M21.2176 14.3408H20.6091V14.9366H21.2176V14.3408Z" fill="#DAE2EA"/>
<path d="M21.8263 14.3408H21.2178V14.9366H21.8263V14.3408Z" fill="#DAE2EA"/>
<path d="M22.4351 14.3408H21.8267V14.9366H22.4351V14.3408Z" fill="white"/>
<path d="M23.0435 14.3408H22.4351V14.9366H23.0435V14.3408Z" fill="white"/>
<path d="M23.6522 14.3408H23.0437V14.9366H23.6522V14.3408Z" fill="white"/>
<path d="M24.2608 14.3408H23.6523V14.9366H24.2608V14.3408Z" fill="#333B41"/>
<path d="M24.87 14.3408H24.2615V14.9366H24.87V14.3408Z" fill="#6D798D"/>
<path d="M25.4784 14.3408H24.8699V14.9366H25.4784V14.3408Z" fill="#6D798D"/>
<path d="M26.0875 14.3408H25.479V14.9366H26.0875V14.3408Z" fill="#6D798D"/>
<path d="M26.6959 14.3408H26.0874V14.9366H26.6959V14.3408Z" fill="#060608"/>
<path d="M27.3043 14.3408H26.6958V14.9366H27.3043V14.3408Z" fill="#C4C8D1"/>
<path d="M27.9127 14.3408H27.3042V14.9366H27.9127V14.3408Z" fill="#DAE2EA"/>
<path d="M28.5211 14.3408H27.9126V14.9366H28.5211V14.3408Z" fill="#DAE2EA"/>
<path d="M29.1302 14.3408H28.5217V14.9366H29.1302V14.3408Z" fill="#DAE2EA"/>
<path d="M29.7388 14.3408H29.1304V14.9366H29.7388V14.3408Z" fill="#DAE2EA"/>
<path d="M30.3477 14.3408H29.7393V14.9366H30.3477V14.3408Z" fill="#DAE2EA"/>
<path d="M30.9561 14.3408H30.3477V14.9366H30.9561V14.3408Z" fill="#DAE2EA"/>
<path d="M31.565 14.3408H30.9565V14.9366H31.565V14.3408Z" fill="#060608"/>
<path d="M32.1734 14.3408H31.5649V14.9366H32.1734V14.3408Z" fill="#4A5762"/>
<path d="M32.7825 14.3408H32.1741V14.9366H32.7825V14.3408Z" fill="#4A5762"/>
<path d="M33.3909 14.3408H32.7825V14.9366H33.3909V14.3408Z" fill="#4A5762"/>
<path d="M34.0001 14.3408H33.3916V14.9366H34.0001V14.3408Z" fill="#060608"/>
<path d="M7.21688 14.936H6.6084V15.5318H7.21688V14.936Z" fill="#060608"/>
<path d="M7.82601 14.936H7.21753V15.5318H7.82601V14.936Z" fill="#DEBC64"/>
<path d="M8.43465 14.936H7.82617V15.5318H8.43465V14.936Z" fill="#DEBC64"/>
<path d="M9.04354 14.936H8.43506V15.5318H9.04354V14.936Z" fill="#060608"/>
<path d="M9.65218 14.936H9.0437V15.5318H9.65218V14.936Z" fill="#B58B63"/>
<path d="M10.2608 14.936H9.65234V15.5318H10.2608V14.936Z" fill="#B58B63"/>
<path d="M10.8692 14.936H10.2607V15.5318H10.8692V14.936Z" fill="#B58B63"/>
<path d="M11.4781 14.936H10.8696V15.5318H11.4781V14.936Z" fill="#B58B63"/>
<path d="M12.087 14.936H11.4785V15.5318H12.087V14.936Z" fill="#B58B63"/>
<path d="M12.6959 14.936H12.0874V15.5318H12.6959V14.936Z" fill="#E4A969"/>
<path d="M13.3043 14.936H12.6958V15.5318H13.3043V14.936Z" fill="#DAE2EA"/>
<path d="M13.9127 14.936H13.3042V15.5318H13.9127V14.936Z" fill="#DAE2EA"/>
<path d="M14.5211 14.936H13.9126V15.5318H14.5211V14.936Z" fill="#DAE2EA"/>
<path d="M15.1302 14.936H14.5217V15.5318H15.1302V14.936Z" fill="#DAE2EA"/>
<path d="M15.7386 14.936H15.1301V15.5318H15.7386V14.936Z" fill="#DAE2EA"/>
<path d="M16.3477 14.936H15.7393V15.5318H16.3477V14.936Z" fill="#DAE2EA"/>
<path d="M16.9561 14.936H16.3477V15.5318H16.9561V14.936Z" fill="#DAE2EA"/>
<path d="M17.565 14.936H16.9565V15.5318H17.565V14.936Z" fill="#DAE2EA"/>
<path d="M18.1734 14.936H17.5649V15.5318H18.1734V14.936Z" fill="#DAE2EA"/>
<path d="M18.7826 14.936H18.1741V15.5318H18.7826V14.936Z" fill="#DAE2EA"/>
<path d="M19.3907 14.936H18.7822V15.5318H19.3907V14.936Z" fill="#DAE2EA"/>
<path d="M20.0001 14.936H19.3916V15.5318H20.0001V14.936Z" fill="#DAE2EA"/>
<path d="M20.6085 14.936H20V15.5318H20.6085V14.936Z" fill="white"/>
<path d="M21.2176 14.936H20.6091V15.5318H21.2176V14.936Z" fill="white"/>
<path d="M21.8263 14.936H21.2178V15.5318H21.8263V14.936Z" fill="white"/>
<path d="M22.4351 14.936H21.8267V15.5318H22.4351V14.936Z" fill="white"/>
<path d="M23.0435 14.936H22.4351V15.5318H23.0435V14.936Z" fill="white"/>
<path d="M23.6522 14.936H23.0437V15.5318H23.6522V14.936Z" fill="white"/>
<path d="M24.2608 14.936H23.6523V15.5318H24.2608V14.936Z" fill="#333B41"/>
<path d="M24.87 14.936H24.2615V15.5318H24.87V14.936Z" fill="#6D798D"/>
<path d="M25.4784 14.936H24.8699V15.5318H25.4784V14.936Z" fill="#6D798D"/>
<path d="M26.0875 14.936H25.479V15.5318H26.0875V14.936Z" fill="#6D798D"/>
<path d="M26.6959 14.936H26.0874V15.5318H26.6959V14.936Z" fill="#060608"/>
<path d="M27.3043 14.936H26.6958V15.5318H27.3043V14.936Z" fill="#C4C8D1"/>
<path d="M27.9127 14.936H27.3042V15.5318H27.9127V14.936Z" fill="#C4C8D1"/>
<path d="M28.5211 14.936H27.9126V15.5318H28.5211V14.936Z" fill="#DAE2EA"/>
<path d="M29.1302 14.936H28.5217V15.5318H29.1302V14.936Z" fill="#DAE2EA"/>
<path d="M29.7388 14.936H29.1304V15.5318H29.7388V14.936Z" fill="#DAE2EA"/>
<path d="M30.3477 14.936H29.7393V15.5318H30.3477V14.936Z" fill="#DAE2EA"/>
<path d="M30.9561 14.936H30.3477V15.5318H30.9561V14.936Z" fill="#DAE2EA"/>
<path d="M31.565 14.936H30.9565V15.5318H31.565V14.936Z" fill="#060608"/>
<path d="M32.1734 14.936H31.5649V15.5318H32.1734V14.936Z" fill="#4A5762"/>
<path d="M32.7825 14.936H32.1741V15.5318H32.7825V14.936Z" fill="#4A5762"/>
<path d="M33.3909 14.936H32.7825V15.5318H33.3909V14.936Z" fill="#4A5762"/>
<path d="M34.0001 14.936H33.3916V15.5318H34.0001V14.936Z" fill="#060608"/>
<path d="M6.60848 15.5317H6V16.1276H6.60848V15.5317Z" fill="#060608"/>
<path d="M7.21688 15.5317H6.6084V16.1276H7.21688V15.5317Z" fill="#DEBC64"/>
<path d="M7.82601 15.5317H7.21753V16.1276H7.82601V15.5317Z" fill="#B58B63"/>
<path d="M8.43465 15.5317H7.82617V16.1276H8.43465V15.5317Z" fill="#B58B63"/>
<path d="M9.04354 15.5317H8.43506V16.1276H9.04354V15.5317Z" fill="#060608"/>
<path d="M9.65218 15.5317H9.0437V16.1276H9.65218V15.5317Z" fill="#B58B63"/>
<path d="M10.2608 15.5317H9.65234V16.1276H10.2608V15.5317Z" fill="#B58B63"/>
<path d="M10.8692 15.5317H10.2607V16.1276H10.8692V15.5317Z" fill="#B58B63"/>
<path d="M11.4781 15.5317H10.8696V16.1276H11.4781V15.5317Z" fill="#B58B63"/>
<path d="M12.087 15.5317H11.4785V16.1276H12.087V15.5317Z" fill="#E4C763"/>
<path d="M12.6959 15.5317H12.0874V16.1276H12.6959V15.5317Z" fill="#DAE2EA"/>
<path d="M13.3043 15.5317H12.6958V16.1276H13.3043V15.5317Z" fill="#DAE2EA"/>
<path d="M13.9127 15.5317H13.3042V16.1276H13.9127V15.5317Z" fill="#DAE2EA"/>
<path d="M14.5211 15.5317H13.9126V16.1276H14.5211V15.5317Z" fill="#DAE2EA"/>
<path d="M15.1302 15.5317H14.5217V16.1276H15.1302V15.5317Z" fill="#DAE2EA"/>
<path d="M15.7386 15.5317H15.1301V16.1276H15.7386V15.5317Z" fill="#DAE2EA"/>
<path d="M16.3477 15.5317H15.7393V16.1276H16.3477V15.5317Z" fill="#DAE2EA"/>
<path d="M16.9561 15.5317H16.3477V16.1276H16.9561V15.5317Z" fill="white"/>
<path d="M17.565 15.5317H16.9565V16.1276H17.565V15.5317Z" fill="white"/>
<path d="M18.1734 15.5317H17.5649V16.1276H18.1734V15.5317Z" fill="white"/>
<path d="M18.7826 15.5317H18.1741V16.1276H18.7826V15.5317Z" fill="white"/>
<path d="M19.3907 15.5317H18.7822V16.1276H19.3907V15.5317Z" fill="white"/>
<path d="M20.0001 15.5317H19.3916V16.1276H20.0001V15.5317Z" fill="white"/>
<path d="M20.6085 15.5317H20V16.1276H20.6085V15.5317Z" fill="white"/>
<path d="M21.2176 15.5317H20.6091V16.1276H21.2176V15.5317Z" fill="white"/>
<path d="M21.8263 15.5317H21.2178V16.1276H21.8263V15.5317Z" fill="white"/>
<path d="M22.4351 15.5317H21.8267V16.1276H22.4351V15.5317Z" fill="white"/>
<path d="M23.0435 15.5317H22.4351V16.1276H23.0435V15.5317Z" fill="white"/>
<path d="M23.6522 15.5317H23.0437V16.1276H23.6522V15.5317Z" fill="white"/>
<path d="M24.2608 15.5317H23.6523V16.1276H24.2608V15.5317Z" fill="#333B41"/>
<path d="M24.87 15.5317H24.2615V16.1276H24.87V15.5317Z" fill="#6D798D"/>
<path d="M25.4784 15.5317H24.8699V16.1276H25.4784V15.5317Z" fill="#6D798D"/>
<path d="M26.0875 15.5317H25.479V16.1276H26.0875V15.5317Z" fill="#6D798D"/>
<path d="M26.6959 15.5317H26.0874V16.1276H26.6959V15.5317Z" fill="#060608"/>
<path d="M27.3043 15.5317H26.6958V16.1276H27.3043V15.5317Z" fill="#060608"/>
<path d="M27.9127 15.5317H27.3042V16.1276H27.9127V15.5317Z" fill="#060608"/>
<path d="M28.5211 15.5317H27.9126V16.1276H28.5211V15.5317Z" fill="#C4C8D1"/>
<path d="M29.1302 15.5317H28.5217V16.1276H29.1302V15.5317Z" fill="#DAE2EA"/>
<path d="M29.7388 15.5317H29.1304V16.1276H29.7388V15.5317Z" fill="#DAE2EA"/>
<path d="M30.3477 15.5317H29.7393V16.1276H30.3477V15.5317Z" fill="#DAE2EA"/>
<path d="M30.9561 15.5317H30.3477V16.1276H30.9561V15.5317Z" fill="#DAE2EA"/>
<path d="M31.565 15.5317H30.9565V16.1276H31.565V15.5317Z" fill="#060608"/>
<path d="M32.1734 15.5317H31.5649V16.1276H32.1734V15.5317Z" fill="#4A5762"/>
<path d="M32.7825 15.5317H32.1741V16.1276H32.7825V15.5317Z" fill="#4A5762"/>
<path d="M33.3909 15.5317H32.7825V16.1276H33.3909V15.5317Z" fill="#4A5762"/>
<path d="M34.0001 15.5317H33.3916V16.1276H34.0001V15.5317Z" fill="#060608"/>
<path d="M6.60848 16.1274H6V16.7233H6.60848V16.1274Z" fill="#060608"/>
<path d="M7.21688 16.1274H6.6084V16.7233H7.21688V16.1274Z" fill="#B58B63"/>
<path d="M7.82601 16.1274H7.21753V16.7233H7.82601V16.1274Z" fill="#E4A969"/>
<path d="M8.43465 16.1274H7.82617V16.7233H8.43465V16.1274Z" fill="#060608"/>
<path d="M9.04354 16.1274H8.43506V16.7233H9.04354V16.1274Z" fill="#060608"/>
<path d="M9.65218 16.1274H9.0437V16.7233H9.65218V16.1274Z" fill="#E3C464"/>
<path d="M10.2608 16.1274H9.65234V16.7233H10.2608V16.1274Z" fill="#E3C464"/>
<path d="M10.8692 16.1274H10.2607V16.7233H10.8692V16.1274Z" fill="#E3C464"/>
<path d="M11.4781 16.1274H10.8696V16.7233H11.4781V16.1274Z" fill="#E3C464"/>
<path d="M12.087 16.1274H11.4785V16.7233H12.087V16.1274Z" fill="#E4C763"/>
<path d="M12.6959 16.1274H12.0874V16.7233H12.6959V16.1274Z" fill="white"/>
<path d="M13.3043 16.1274H12.6958V16.7233H13.3043V16.1274Z" fill="white"/>
<path d="M13.9127 16.1274H13.3042V16.7233H13.9127V16.1274Z" fill="white"/>
<path d="M14.5211 16.1274H13.9126V16.7233H14.5211V16.1274Z" fill="white"/>
<path d="M15.1302 16.1274H14.5217V16.7233H15.1302V16.1274Z" fill="white"/>
<path d="M15.7386 16.1274H15.1301V16.7233H15.7386V16.1274Z" fill="white"/>
<path d="M16.3477 16.1274H15.7393V16.7233H16.3477V16.1274Z" fill="white"/>
<path d="M16.9561 16.1274H16.3477V16.7233H16.9561V16.1274Z" fill="white"/>
<path d="M17.565 16.1274H16.9565V16.7233H17.565V16.1274Z" fill="white"/>
<path d="M18.1734 16.1274H17.5649V16.7233H18.1734V16.1274Z" fill="white"/>
<path d="M18.7826 16.1274H18.1741V16.7233H18.7826V16.1274Z" fill="white"/>
<path d="M19.3907 16.1274H18.7822V16.7233H19.3907V16.1274Z" fill="white"/>
<path d="M20.0001 16.1274H19.3916V16.7233H20.0001V16.1274Z" fill="white"/>
<path d="M20.6085 16.1274H20V16.7233H20.6085V16.1274Z" fill="white"/>
<path d="M21.2176 16.1274H20.6091V16.7233H21.2176V16.1274Z" fill="white"/>
<path d="M21.8263 16.1274H21.2178V16.7233H21.8263V16.1274Z" fill="white"/>
<path d="M22.4351 16.1274H21.8267V16.7233H22.4351V16.1274Z" fill="white"/>
<path d="M23.0435 16.1274H22.4351V16.7233H23.0435V16.1274Z" fill="white"/>
<path d="M23.6522 16.1274H23.0437V16.7233H23.6522V16.1274Z" fill="white"/>
<path d="M24.2608 16.1274H23.6523V16.7233H24.2608V16.1274Z" fill="#333B41"/>
<path d="M24.87 16.1274H24.2615V16.7233H24.87V16.1274Z" fill="#6D798D"/>
<path d="M25.4784 16.1274H24.8699V16.7233H25.4784V16.1274Z" fill="#6D798D"/>
<path d="M26.0875 16.1274H25.479V16.7233H26.0875V16.1274Z" fill="#6D798D"/>
<path d="M26.6959 16.1274H26.0874V16.7233H26.6959V16.1274Z" fill="#060608"/>
<path d="M27.3043 16.1274H26.6958V16.7233H27.3043V16.1274Z" fill="#DAE2EA"/>
<path d="M27.9127 16.1274H27.3042V16.7233H27.9127V16.1274Z" fill="white"/>
<path d="M28.5211 16.1274H27.9126V16.7233H28.5211V16.1274Z" fill="#060608"/>
<path d="M29.1302 16.1274H28.5217V16.7233H29.1302V16.1274Z" fill="#C4C8D1"/>
<path d="M29.7388 16.1274H29.1304V16.7233H29.7388V16.1274Z" fill="#C4C8D1"/>
<path d="M30.3477 16.1274H29.7393V16.7233H30.3477V16.1274Z" fill="#DAE2EA"/>
<path d="M30.9561 16.1274H30.3477V16.7233H30.9561V16.1274Z" fill="#DAE2EA"/>
<path d="M31.565 16.1274H30.9565V16.7233H31.565V16.1274Z" fill="#060608"/>
<path d="M32.1734 16.1274H31.5649V16.7233H32.1734V16.1274Z" fill="#4A5762"/>
<path d="M32.7825 16.1274H32.1741V16.7233H32.7825V16.1274Z" fill="#4A5762"/>
<path d="M33.3909 16.1274H32.7825V16.7233H33.3909V16.1274Z" fill="#4A5762"/>
<path d="M34.0001 16.1274H33.3916V16.7233H34.0001V16.1274Z" fill="#060608"/>
<path d="M6.60848 16.7241H6V17.3199H6.60848V16.7241Z" fill="#060608"/>
<path d="M7.21688 16.7241H6.6084V17.3199H7.21688V16.7241Z" fill="#B58B63"/>
<path d="M7.82601 16.7241H7.21753V17.3199H7.82601V16.7241Z" fill="#E3C464"/>
<path d="M8.43465 16.7241H7.82617V17.3199H8.43465V16.7241Z" fill="#E3C464"/>
<path d="M9.04354 16.7241H8.43506V17.3199H9.04354V16.7241Z" fill="#060608"/>
<path d="M9.65218 16.7241H9.0437V17.3199H9.65218V16.7241Z" fill="#E3C464"/>
<path d="M10.2608 16.7241H9.65234V17.3199H10.2608V16.7241Z" fill="#E3C464"/>
<path d="M10.8692 16.7241H10.2607V17.3199H10.8692V16.7241Z" fill="#E3C464"/>
<path d="M11.4781 16.7241H10.8696V17.3199H11.4781V16.7241Z" fill="#E3C464"/>
<path d="M12.087 16.7241H11.4785V17.3199H12.087V16.7241Z" fill="#E4C763"/>
<path d="M12.6959 16.7241H12.0874V17.3199H12.6959V16.7241Z" fill="white"/>
<path d="M13.3043 16.7241H12.6958V17.3199H13.3043V16.7241Z" fill="white"/>
<path d="M13.9127 16.7241H13.3042V17.3199H13.9127V16.7241Z" fill="white"/>
<path d="M14.5211 16.7241H13.9126V17.3199H14.5211V16.7241Z" fill="white"/>
<path d="M15.1302 16.7241H14.5217V17.3199H15.1302V16.7241Z" fill="white"/>
<path d="M15.7386 16.7241H15.1301V17.3199H15.7386V16.7241Z" fill="white"/>
<path d="M16.3477 16.7241H15.7393V17.3199H16.3477V16.7241Z" fill="white"/>
<path d="M16.9561 16.7241H16.3477V17.3199H16.9561V16.7241Z" fill="white"/>
<path d="M17.565 16.7241H16.9565V17.3199H17.565V16.7241Z" fill="white"/>
<path d="M18.1734 16.7241H17.5649V17.3199H18.1734V16.7241Z" fill="white"/>
<path d="M18.7826 16.7241H18.1741V17.3199H18.7826V16.7241Z" fill="white"/>
<path d="M19.3907 16.7241H18.7822V17.3199H19.3907V16.7241Z" fill="white"/>
<path d="M20.0001 16.7241H19.3916V17.3199H20.0001V16.7241Z" fill="white"/>
<path d="M20.6085 16.7241H20V17.3199H20.6085V16.7241Z" fill="white"/>
<path d="M21.2176 16.7241H20.6091V17.3199H21.2176V16.7241Z" fill="white"/>
<path d="M21.8263 16.7241H21.2178V17.3199H21.8263V16.7241Z" fill="white"/>
<path d="M22.4351 16.7241H21.8267V17.3199H22.4351V16.7241Z" fill="white"/>
<path d="M23.0435 16.7241H22.4351V17.3199H23.0435V16.7241Z" fill="white"/>
<path d="M23.6522 16.7241H23.0437V17.3199H23.6522V16.7241Z" fill="white"/>
<path d="M24.2608 16.7241H23.6523V17.3199H24.2608V16.7241Z" fill="#333B41"/>
<path d="M24.87 16.7241H24.2615V17.3199H24.87V16.7241Z" fill="#6D798D"/>
<path d="M25.4784 16.7241H24.8699V17.3199H25.4784V16.7241Z" fill="#6D798D"/>
<path d="M26.0875 16.7241H25.479V17.3199H26.0875V16.7241Z" fill="#6D798D"/>
<path d="M26.6959 16.7241H26.0874V17.3199H26.6959V16.7241Z" fill="#060608"/>
<path d="M27.3043 16.7241H26.6958V17.3199H27.3043V16.7241Z" fill="#DAE2EA"/>
<path d="M27.9127 16.7241H27.3042V17.3199H27.9127V16.7241Z" fill="#E5C463"/>
<path d="M28.5211 16.7241H27.9126V17.3199H28.5211V16.7241Z" fill="#E5C463"/>
<path d="M29.1302 16.7241H28.5217V17.3199H29.1302V16.7241Z" fill="#060608"/>
<path d="M29.7388 16.7241H29.1304V17.3199H29.7388V16.7241Z" fill="#C4C8D1"/>
<path d="M30.3477 16.7241H29.7393V17.3199H30.3477V16.7241Z" fill="#C4C8D1"/>
<path d="M30.9561 16.7241H30.3477V17.3199H30.9561V16.7241Z" fill="#C4C8D1"/>
<path d="M31.565 16.7241H30.9565V17.3199H31.565V16.7241Z" fill="#060608"/>
<path d="M32.1734 16.7241H31.5649V17.3199H32.1734V16.7241Z" fill="#4A5762"/>
<path d="M32.7825 16.7241H32.1741V17.3199H32.7825V16.7241Z" fill="#4A5762"/>
<path d="M33.3909 16.7241H32.7825V17.3199H33.3909V16.7241Z" fill="#4A5762"/>
<path d="M34.0001 16.7241H33.3916V17.3199H34.0001V16.7241Z" fill="#060608"/>
<path d="M6.60848 17.3188H6V17.9147H6.60848V17.3188Z" fill="#060608"/>
<path d="M7.21688 17.3188H6.6084V17.9147H7.21688V17.3188Z" fill="#B58B63"/>
<path d="M7.82601 17.3188H7.21753V17.9147H7.82601V17.3188Z" fill="#E4A969"/>
<path d="M8.43465 17.3188H7.82617V17.9147H8.43465V17.3188Z" fill="#060608"/>
<path d="M9.04354 17.3188H8.43506V17.9147H9.04354V17.3188Z" fill="#060608"/>
<path d="M9.65218 17.3188H9.0437V17.9147H9.65218V17.3188Z" fill="#E3C464"/>
<path d="M10.2608 17.3188H9.65234V17.9147H10.2608V17.3188Z" fill="#E3C464"/>
<path d="M10.8692 17.3188H10.2607V17.9147H10.8692V17.3188Z" fill="#E3C464"/>
<path d="M11.4781 17.3188H10.8696V17.9147H11.4781V17.3188Z" fill="#E3C464"/>
<path d="M12.087 17.3188H11.4785V17.9147H12.087V17.3188Z" fill="#E4C763"/>
<path d="M12.6959 17.3188H12.0874V17.9147H12.6959V17.3188Z" fill="white"/>
<path d="M13.3043 17.3188H12.6958V17.9147H13.3043V17.3188Z" fill="white"/>
<path d="M13.9127 17.3188H13.3042V17.9147H13.9127V17.3188Z" fill="white"/>
<path d="M14.5211 17.3188H13.9126V17.9147H14.5211V17.3188Z" fill="white"/>
<path d="M15.1302 17.3188H14.5217V17.9147H15.1302V17.3188Z" fill="white"/>
<path d="M15.7386 17.3188H15.1301V17.9147H15.7386V17.3188Z" fill="white"/>
<path d="M16.3477 17.3188H15.7393V17.9147H16.3477V17.3188Z" fill="white"/>
<path d="M16.9561 17.3188H16.3477V17.9147H16.9561V17.3188Z" fill="white"/>
<path d="M17.565 17.3188H16.9565V17.9147H17.565V17.3188Z" fill="white"/>
<path d="M18.1734 17.3188H17.5649V17.9147H18.1734V17.3188Z" fill="white"/>
<path d="M18.7826 17.3188H18.1741V17.9147H18.7826V17.3188Z" fill="white"/>
<path d="M19.3907 17.3188H18.7822V17.9147H19.3907V17.3188Z" fill="white"/>
<path d="M20.0001 17.3188H19.3916V17.9147H20.0001V17.3188Z" fill="white"/>
<path d="M20.6085 17.3188H20V17.9147H20.6085V17.3188Z" fill="white"/>
<path d="M21.2176 17.3188H20.6091V17.9147H21.2176V17.3188Z" fill="white"/>
<path d="M21.8263 17.3188H21.2178V17.9147H21.8263V17.3188Z" fill="white"/>
<path d="M22.4351 17.3188H21.8267V17.9147H22.4351V17.3188Z" fill="white"/>
<path d="M23.0435 17.3188H22.4351V17.9147H23.0435V17.3188Z" fill="white"/>
<path d="M23.6522 17.3188H23.0437V17.9147H23.6522V17.3188Z" fill="white"/>
<path d="M24.2608 17.3188H23.6523V17.9147H24.2608V17.3188Z" fill="#333B41"/>
<path d="M24.87 17.3188H24.2615V17.9147H24.87V17.3188Z" fill="#6D798D"/>
<path d="M25.4784 17.3188H24.8699V17.9147H25.4784V17.3188Z" fill="#6D798D"/>
<path d="M26.0875 17.3188H25.479V17.9147H26.0875V17.3188Z" fill="#6D798D"/>
<path d="M26.6959 17.3188H26.0874V17.9147H26.6959V17.3188Z" fill="#060608"/>
<path d="M27.3043 17.3188H26.6958V17.9147H27.3043V17.3188Z" fill="#DAE2EA"/>
<path d="M27.9127 17.3188H27.3042V17.9147H27.9127V17.3188Z" fill="#E5C463"/>
<path d="M28.5211 17.3188H27.9126V17.9147H28.5211V17.3188Z" fill="#E5C463"/>
<path d="M29.1302 17.3188H28.5217V17.9147H29.1302V17.3188Z" fill="#060608"/>
<path d="M29.7388 17.3188H29.1304V17.9147H29.7388V17.3188Z" fill="#C4C8D1"/>
<path d="M30.3477 17.3188H29.7393V17.9147H30.3477V17.3188Z" fill="#C4C8D1"/>
<path d="M30.9561 17.3188H30.3477V17.9147H30.9561V17.3188Z" fill="#C4C8D1"/>
<path d="M31.565 17.3188H30.9565V17.9147H31.565V17.3188Z" fill="#060608"/>
<path d="M32.1734 17.3188H31.5649V17.9147H32.1734V17.3188Z" fill="#4A5762"/>
<path d="M32.7825 17.3188H32.1741V17.9147H32.7825V17.3188Z" fill="#4A5762"/>
<path d="M33.3909 17.3188H32.7825V17.9147H33.3909V17.3188Z" fill="#4A5762"/>
<path d="M34.0001 17.3188H33.3916V17.9147H34.0001V17.3188Z" fill="#060608"/>
<path d="M6.60848 17.9146H6V18.5104H6.60848V17.9146Z" fill="#060608"/>
<path d="M7.21688 17.9146H6.6084V18.5104H7.21688V17.9146Z" fill="#B58B63"/>
<path d="M7.82601 17.9146H7.21753V18.5104H7.82601V17.9146Z" fill="#E3C464"/>
<path d="M8.43465 17.9146H7.82617V18.5104H8.43465V17.9146Z" fill="#E3C464"/>
<path d="M9.04354 17.9146H8.43506V18.5104H9.04354V17.9146Z" fill="#060608"/>
<path d="M9.65218 17.9146H9.0437V18.5104H9.65218V17.9146Z" fill="#E3C464"/>
<path d="M10.2608 17.9146H9.65234V18.5104H10.2608V17.9146Z" fill="#E3C464"/>
<path d="M10.8692 17.9146H10.2607V18.5104H10.8692V17.9146Z" fill="#E3C464"/>
<path d="M11.4781 17.9146H10.8696V18.5104H11.4781V17.9146Z" fill="#E3C464"/>
<path d="M12.087 17.9146H11.4785V18.5104H12.087V17.9146Z" fill="#E4C763"/>
<path d="M12.6959 17.9146H12.0874V18.5104H12.6959V17.9146Z" fill="white"/>
<path d="M13.3043 17.9146H12.6958V18.5104H13.3043V17.9146Z" fill="white"/>
<path d="M13.9127 17.9146H13.3042V18.5104H13.9127V17.9146Z" fill="white"/>
<path d="M14.5211 17.9146H13.9126V18.5104H14.5211V17.9146Z" fill="white"/>
<path d="M15.1302 17.9146H14.5217V18.5104H15.1302V17.9146Z" fill="white"/>
<path d="M15.7386 17.9146H15.1301V18.5104H15.7386V17.9146Z" fill="white"/>
<path d="M16.3477 17.9146H15.7393V18.5104H16.3477V17.9146Z" fill="white"/>
<path d="M16.9561 17.9146H16.3477V18.5104H16.9561V17.9146Z" fill="white"/>
<path d="M17.565 17.9146H16.9565V18.5104H17.565V17.9146Z" fill="white"/>
<path d="M18.1734 17.9146H17.5649V18.5104H18.1734V17.9146Z" fill="white"/>
<path d="M18.7826 17.9146H18.1741V18.5104H18.7826V17.9146Z" fill="white"/>
<path d="M19.3907 17.9146H18.7822V18.5104H19.3907V17.9146Z" fill="white"/>
<path d="M20.0001 17.9146H19.3916V18.5104H20.0001V17.9146Z" fill="white"/>
<path d="M20.6085 17.9146H20V18.5104H20.6085V17.9146Z" fill="white"/>
<path d="M21.2176 17.9146H20.6091V18.5104H21.2176V17.9146Z" fill="white"/>
<path d="M21.8263 17.9146H21.2178V18.5104H21.8263V17.9146Z" fill="white"/>
<path d="M22.4351 17.9146H21.8267V18.5104H22.4351V17.9146Z" fill="white"/>
<path d="M23.0435 17.9146H22.4351V18.5104H23.0435V17.9146Z" fill="white"/>
<path d="M23.6522 17.9146H23.0437V18.5104H23.6522V17.9146Z" fill="white"/>
<path d="M24.2608 17.9146H23.6523V18.5104H24.2608V17.9146Z" fill="#333B41"/>
<path d="M24.87 17.9146H24.2615V18.5104H24.87V17.9146Z" fill="#6D798D"/>
<path d="M25.4784 17.9146H24.8699V18.5104H25.4784V17.9146Z" fill="#6D798D"/>
<path d="M26.0875 17.9146H25.479V18.5104H26.0875V17.9146Z" fill="#6D798D"/>
<path d="M26.6959 17.9146H26.0874V18.5104H26.6959V17.9146Z" fill="#060608"/>
<path d="M27.3043 17.9146H26.6958V18.5104H27.3043V17.9146Z" fill="#DAE2EA"/>
<path d="M27.9127 17.9146H27.3042V18.5104H27.9127V17.9146Z" fill="#E5C463"/>
<path d="M28.5211 17.9146H27.9126V18.5104H28.5211V17.9146Z" fill="#E5C463"/>
<path d="M29.1302 17.9146H28.5217V18.5104H29.1302V17.9146Z" fill="#060608"/>
<path d="M29.7388 17.9146H29.1304V18.5104H29.7388V17.9146Z" fill="#C4C8D1"/>
<path d="M30.3477 17.9146H29.7393V18.5104H30.3477V17.9146Z" fill="#C4C8D1"/>
<path d="M30.9561 17.9146H30.3477V18.5104H30.9561V17.9146Z" fill="#C4C8D1"/>
<path d="M31.565 17.9146H30.9565V18.5104H31.565V17.9146Z" fill="#060608"/>
<path d="M32.1734 17.9146H31.5649V18.5104H32.1734V17.9146Z" fill="#4A5762"/>
<path d="M32.7825 17.9146H32.1741V18.5104H32.7825V17.9146Z" fill="#4A5762"/>
<path d="M33.3909 17.9146H32.7825V18.5104H33.3909V17.9146Z" fill="#4A5762"/>
<path d="M34.0001 17.9146H33.3916V18.5104H34.0001V17.9146Z" fill="#060608"/>
<path d="M6.60848 18.5103H6V19.1061H6.60848V18.5103Z" fill="#060608"/>
<path d="M7.21688 18.5103H6.6084V19.1061H7.21688V18.5103Z" fill="#B58B63"/>
<path d="M7.82601 18.5103H7.21753V19.1061H7.82601V18.5103Z" fill="#E4A969"/>
<path d="M8.43465 18.5103H7.82617V19.1061H8.43465V18.5103Z" fill="#060608"/>
<path d="M9.04354 18.5103H8.43506V19.1061H9.04354V18.5103Z" fill="#060608"/>
<path d="M9.65218 18.5103H9.0437V19.1061H9.65218V18.5103Z" fill="#E3C464"/>
<path d="M10.2608 18.5103H9.65234V19.1061H10.2608V18.5103Z" fill="#E3C464"/>
<path d="M10.8692 18.5103H10.2607V19.1061H10.8692V18.5103Z" fill="#E3C464"/>
<path d="M11.4781 18.5103H10.8696V19.1061H11.4781V18.5103Z" fill="#E3C464"/>
<path d="M12.087 18.5103H11.4785V19.1061H12.087V18.5103Z" fill="#E4C763"/>
<path d="M12.6959 18.5103H12.0874V19.1061H12.6959V18.5103Z" fill="white"/>
<path d="M13.3043 18.5103H12.6958V19.1061H13.3043V18.5103Z" fill="white"/>
<path d="M13.9127 18.5103H13.3042V19.1061H13.9127V18.5103Z" fill="white"/>
<path d="M14.5211 18.5103H13.9126V19.1061H14.5211V18.5103Z" fill="white"/>
<path d="M15.1302 18.5103H14.5217V19.1061H15.1302V18.5103Z" fill="white"/>
<path d="M15.7386 18.5103H15.1301V19.1061H15.7386V18.5103Z" fill="white"/>
<path d="M16.3477 18.5103H15.7393V19.1061H16.3477V18.5103Z" fill="white"/>
<path d="M16.9561 18.5103H16.3477V19.1061H16.9561V18.5103Z" fill="white"/>
<path d="M17.565 18.5103H16.9565V19.1061H17.565V18.5103Z" fill="white"/>
<path d="M18.1734 18.5103H17.5649V19.1061H18.1734V18.5103Z" fill="white"/>
<path d="M18.7826 18.5103H18.1741V19.1061H18.7826V18.5103Z" fill="white"/>
<path d="M19.3907 18.5103H18.7822V19.1061H19.3907V18.5103Z" fill="white"/>
<path d="M20.0001 18.5103H19.3916V19.1061H20.0001V18.5103Z" fill="white"/>
<path d="M20.6085 18.5103H20V19.1061H20.6085V18.5103Z" fill="white"/>
<path d="M21.2176 18.5103H20.6091V19.1061H21.2176V18.5103Z" fill="white"/>
<path d="M21.8263 18.5103H21.2178V19.1061H21.8263V18.5103Z" fill="white"/>
<path d="M22.4351 18.5103H21.8267V19.1061H22.4351V18.5103Z" fill="white"/>
<path d="M23.0435 18.5103H22.4351V19.1061H23.0435V18.5103Z" fill="white"/>
<path d="M23.6522 18.5103H23.0437V19.1061H23.6522V18.5103Z" fill="white"/>
<path d="M24.2608 18.5103H23.6523V19.1061H24.2608V18.5103Z" fill="#333B41"/>
<path d="M24.87 18.5103H24.2615V19.1061H24.87V18.5103Z" fill="#6D798D"/>
<path d="M25.4784 18.5103H24.8699V19.1061H25.4784V18.5103Z" fill="#6D798D"/>
<path d="M26.0875 18.5103H25.479V19.1061H26.0875V18.5103Z" fill="#6D798D"/>
<path d="M26.6959 18.5103H26.0874V19.1061H26.6959V18.5103Z" fill="#060608"/>
<path d="M27.3043 18.5103H26.6958V19.1061H27.3043V18.5103Z" fill="#DAE2EA"/>
<path d="M27.9127 18.5103H27.3042V19.1061H27.9127V18.5103Z" fill="#E5C463"/>
<path d="M28.5211 18.5103H27.9126V19.1061H28.5211V18.5103Z" fill="#E5C463"/>
<path d="M29.1302 18.5103H28.5217V19.1061H29.1302V18.5103Z" fill="#060608"/>
<path d="M29.7388 18.5103H29.1304V19.1061H29.7388V18.5103Z" fill="#C4C8D1"/>
<path d="M30.3477 18.5103H29.7393V19.1061H30.3477V18.5103Z" fill="#C4C8D1"/>
<path d="M30.9561 18.5103H30.3477V19.1061H30.9561V18.5103Z" fill="#C4C8D1"/>
<path d="M31.565 18.5103H30.9565V19.1061H31.565V18.5103Z" fill="#060608"/>
<path d="M32.1734 18.5103H31.5649V19.1061H32.1734V18.5103Z" fill="#4A5762"/>
<path d="M32.7825 18.5103H32.1741V19.1061H32.7825V18.5103Z" fill="#4A5762"/>
<path d="M33.3909 18.5103H32.7825V19.1061H33.3909V18.5103Z" fill="#4A5762"/>
<path d="M34.0001 18.5103H33.3916V19.1061H34.0001V18.5103Z" fill="#060608"/>
<path d="M6.60848 19.1055H6V19.7013H6.60848V19.1055Z" fill="#060608"/>
<path d="M7.21688 19.1055H6.6084V19.7013H7.21688V19.1055Z" fill="#B58B63"/>
<path d="M7.82601 19.1055H7.21753V19.7013H7.82601V19.1055Z" fill="#E3C464"/>
<path d="M8.43465 19.1055H7.82617V19.7013H8.43465V19.1055Z" fill="#E3C464"/>
<path d="M9.04354 19.1055H8.43506V19.7013H9.04354V19.1055Z" fill="#060608"/>
<path d="M9.65218 19.1055H9.0437V19.7013H9.65218V19.1055Z" fill="#E3C464"/>
<path d="M10.2608 19.1055H9.65234V19.7013H10.2608V19.1055Z" fill="#E3C464"/>
<path d="M10.8692 19.1055H10.2607V19.7013H10.8692V19.1055Z" fill="#E3C464"/>
<path d="M11.4781 19.1055H10.8696V19.7013H11.4781V19.1055Z" fill="#E3C464"/>
<path d="M12.087 19.1055H11.4785V19.7013H12.087V19.1055Z" fill="#E4C763"/>
<path d="M12.6959 19.1055H12.0874V19.7013H12.6959V19.1055Z" fill="white"/>
<path d="M13.3043 19.1055H12.6958V19.7013H13.3043V19.1055Z" fill="white"/>
<path d="M13.9127 19.1055H13.3042V19.7013H13.9127V19.1055Z" fill="white"/>
<path d="M14.5211 19.1055H13.9126V19.7013H14.5211V19.1055Z" fill="white"/>
<path d="M15.1302 19.1055H14.5217V19.7013H15.1302V19.1055Z" fill="white"/>
<path d="M15.7386 19.1055H15.1301V19.7013H15.7386V19.1055Z" fill="white"/>
<path d="M16.3477 19.1055H15.7393V19.7013H16.3477V19.1055Z" fill="white"/>
<path d="M16.9561 19.1055H16.3477V19.7013H16.9561V19.1055Z" fill="white"/>
<path d="M17.565 19.1055H16.9565V19.7013H17.565V19.1055Z" fill="white"/>
<path d="M18.1734 19.1055H17.5649V19.7013H18.1734V19.1055Z" fill="white"/>
<path d="M18.7826 19.1055H18.1741V19.7013H18.7826V19.1055Z" fill="white"/>
<path d="M19.3907 19.1055H18.7822V19.7013H19.3907V19.1055Z" fill="white"/>
<path d="M20.0001 19.1055H19.3916V19.7013H20.0001V19.1055Z" fill="white"/>
<path d="M20.6085 19.1055H20V19.7013H20.6085V19.1055Z" fill="white"/>
<path d="M21.2176 19.1055H20.6091V19.7013H21.2176V19.1055Z" fill="white"/>
<path d="M21.8263 19.1055H21.2178V19.7013H21.8263V19.1055Z" fill="white"/>
<path d="M22.4351 19.1055H21.8267V19.7013H22.4351V19.1055Z" fill="white"/>
<path d="M23.0435 19.1055H22.4351V19.7013H23.0435V19.1055Z" fill="white"/>
<path d="M23.6522 19.1055H23.0437V19.7013H23.6522V19.1055Z" fill="white"/>
<path d="M24.2608 19.1055H23.6523V19.7013H24.2608V19.1055Z" fill="#333B41"/>
<path d="M24.87 19.1055H24.2615V19.7013H24.87V19.1055Z" fill="#6D798D"/>
<path d="M25.4784 19.1055H24.8699V19.7013H25.4784V19.1055Z" fill="#6D798D"/>
<path d="M26.0875 19.1055H25.479V19.7013H26.0875V19.1055Z" fill="#6D798D"/>
<path d="M26.6959 19.1055H26.0874V19.7013H26.6959V19.1055Z" fill="#060608"/>
<path d="M27.3043 19.1055H26.6958V19.7013H27.3043V19.1055Z" fill="#DAE2EA"/>
<path d="M27.9127 19.1055H27.3042V19.7013H27.9127V19.1055Z" fill="white"/>
<path d="M28.5211 19.1055H27.9126V19.7013H28.5211V19.1055Z" fill="#060608"/>
<path d="M29.1302 19.1055H28.5217V19.7013H29.1302V19.1055Z" fill="#C4C8D1"/>
<path d="M29.7388 19.1055H29.1304V19.7013H29.7388V19.1055Z" fill="#C4C8D1"/>
<path d="M30.3477 19.1055H29.7393V19.7013H30.3477V19.1055Z" fill="#C4C8D1"/>
<path d="M30.9561 19.1055H30.3477V19.7013H30.9561V19.1055Z" fill="#C4C8D1"/>
<path d="M31.565 19.1055H30.9565V19.7013H31.565V19.1055Z" fill="#060608"/>
<path d="M32.1734 19.1055H31.5649V19.7013H32.1734V19.1055Z" fill="#4A5762"/>
<path d="M32.7825 19.1055H32.1741V19.7013H32.7825V19.1055Z" fill="#4A5762"/>
<path d="M33.3909 19.1055H32.7825V19.7013H33.3909V19.1055Z" fill="#4A5762"/>
<path d="M34.0001 19.1055H33.3916V19.7013H34.0001V19.1055Z" fill="#060608"/>
<path d="M6.60848 19.7017H6V20.2975H6.60848V19.7017Z" fill="#060608"/>
<path d="M7.21688 19.7017H6.6084V20.2975H7.21688V19.7017Z" fill="#B58B63"/>
<path d="M7.82601 19.7017H7.21753V20.2975H7.82601V19.7017Z" fill="#E4A969"/>
<path d="M8.43465 19.7017H7.82617V20.2975H8.43465V19.7017Z" fill="#060608"/>
<path d="M9.04354 19.7017H8.43506V20.2975H9.04354V19.7017Z" fill="#060608"/>
<path d="M9.65218 19.7017H9.0437V20.2975H9.65218V19.7017Z" fill="#B58B63"/>
<path d="M10.2608 19.7017H9.65234V20.2975H10.2608V19.7017Z" fill="#B58B63"/>
<path d="M10.8692 19.7017H10.2607V20.2975H10.8692V19.7017Z" fill="#B58B63"/>
<path d="M11.4781 19.7017H10.8696V20.2975H11.4781V19.7017Z" fill="#B58B63"/>
<path d="M12.087 19.7017H11.4785V20.2975H12.087V19.7017Z" fill="#E4C763"/>
<path d="M12.6959 19.7017H12.0874V20.2975H12.6959V19.7017Z" fill="#DAE2EA"/>
<path d="M13.3043 19.7017H12.6958V20.2975H13.3043V19.7017Z" fill="#DAE2EA"/>
<path d="M13.9127 19.7017H13.3042V20.2975H13.9127V19.7017Z" fill="#DAE2EA"/>
<path d="M14.5211 19.7017H13.9126V20.2975H14.5211V19.7017Z" fill="#DAE2EA"/>
<path d="M15.1302 19.7017H14.5217V20.2975H15.1302V19.7017Z" fill="#DAE2EA"/>
<path d="M15.7386 19.7017H15.1301V20.2975H15.7386V19.7017Z" fill="#DAE2EA"/>
<path d="M16.3477 19.7017H15.7393V20.2975H16.3477V19.7017Z" fill="#DAE2EA"/>
<path d="M16.9561 19.7017H16.3477V20.2975H16.9561V19.7017Z" fill="#DAE2EA"/>
<path d="M17.565 19.7017H16.9565V20.2975H17.565V19.7017Z" fill="white"/>
<path d="M18.1734 19.7017H17.5649V20.2975H18.1734V19.7017Z" fill="white"/>
<path d="M18.7826 19.7017H18.1741V20.2975H18.7826V19.7017Z" fill="white"/>
<path d="M19.3907 19.7017H18.7822V20.2975H19.3907V19.7017Z" fill="white"/>
<path d="M20.0001 19.7017H19.3916V20.2975H20.0001V19.7017Z" fill="white"/>
<path d="M20.6085 19.7017H20V20.2975H20.6085V19.7017Z" fill="white"/>
<path d="M21.2176 19.7017H20.6091V20.2975H21.2176V19.7017Z" fill="white"/>
<path d="M21.8263 19.7017H21.2178V20.2975H21.8263V19.7017Z" fill="white"/>
<path d="M22.4351 19.7017H21.8267V20.2975H22.4351V19.7017Z" fill="white"/>
<path d="M23.0435 19.7017H22.4351V20.2975H23.0435V19.7017Z" fill="white"/>
<path d="M23.6522 19.7017H23.0437V20.2975H23.6522V19.7017Z" fill="white"/>
<path d="M24.2608 19.7017H23.6523V20.2975H24.2608V19.7017Z" fill="#333B41"/>
<path d="M24.87 19.7017H24.2615V20.2975H24.87V19.7017Z" fill="#6D798D"/>
<path d="M25.4784 19.7017H24.8699V20.2975H25.4784V19.7017Z" fill="#6D798D"/>
<path d="M26.0875 19.7017H25.479V20.2975H26.0875V19.7017Z" fill="#6D798D"/>
<path d="M26.6959 19.7017H26.0874V20.2975H26.6959V19.7017Z" fill="#060608"/>
<path d="M27.3043 19.7017H26.6958V20.2975H27.3043V19.7017Z" fill="#060608"/>
<path d="M27.9127 19.7017H27.3042V20.2975H27.9127V19.7017Z" fill="#060608"/>
<path d="M28.5211 19.7017H27.9126V20.2975H28.5211V19.7017Z" fill="#8B97AF"/>
<path d="M29.1302 19.7017H28.5217V20.2975H29.1302V19.7017Z" fill="#C4C8D1"/>
<path d="M29.7388 19.7017H29.1304V20.2975H29.7388V19.7017Z" fill="#C4C8D1"/>
<path d="M30.3477 19.7017H29.7393V20.2975H30.3477V19.7017Z" fill="#C4C8D1"/>
<path d="M30.9561 19.7017H30.3477V20.2975H30.9561V19.7017Z" fill="#C4C8D1"/>
<path d="M31.565 19.7017H30.9565V20.2975H31.565V19.7017Z" fill="#060608"/>
<path d="M32.1734 19.7017H31.5649V20.2975H32.1734V19.7017Z" fill="#4A5762"/>
<path d="M32.7825 19.7017H32.1741V20.2975H32.7825V19.7017Z" fill="#4A5762"/>
<path d="M33.3909 19.7017H32.7825V20.2975H33.3909V19.7017Z" fill="#4A5762"/>
<path d="M34.0001 19.7017H33.3916V20.2975H34.0001V19.7017Z" fill="#060608"/>
<path d="M7.21688 20.2974H6.6084V20.8932H7.21688V20.2974Z" fill="#060608"/>
<path d="M7.82601 20.2974H7.21753V20.8932H7.82601V20.2974Z" fill="#B58B63"/>
<path d="M8.43465 20.2974H7.82617V20.8932H8.43465V20.2974Z" fill="#B58B63"/>
<path d="M9.04354 20.2974H8.43506V20.8932H9.04354V20.2974Z" fill="#060608"/>
<path d="M9.65218 20.2974H9.0437V20.8932H9.65218V20.2974Z" fill="#B58B63"/>
<path d="M10.2608 20.2974H9.65234V20.8932H10.2608V20.2974Z" fill="#B58B63"/>
<path d="M10.8692 20.2974H10.2607V20.8932H10.8692V20.2974Z" fill="#B58B63"/>
<path d="M11.4781 20.2974H10.8696V20.8932H11.4781V20.2974Z" fill="#B58B63"/>
<path d="M12.087 20.2974H11.4785V20.8932H12.087V20.2974Z" fill="#B58B63"/>
<path d="M12.6959 20.2974H12.0874V20.8932H12.6959V20.2974Z" fill="#E4A969"/>
<path d="M13.3043 20.2974H12.6958V20.8932H13.3043V20.2974Z" fill="#DAE2EA"/>
<path d="M13.9127 20.2974H13.3042V20.8932H13.9127V20.2974Z" fill="#DAE2EA"/>
<path d="M14.5211 20.2974H13.9126V20.8932H14.5211V20.2974Z" fill="#DAE2EA"/>
<path d="M15.1302 20.2974H14.5217V20.8932H15.1302V20.2974Z" fill="#DAE2EA"/>
<path d="M15.7386 20.2974H15.1301V20.8932H15.7386V20.2974Z" fill="#DAE2EA"/>
<path d="M16.3477 20.2974H15.7393V20.8932H16.3477V20.2974Z" fill="#DAE2EA"/>
<path d="M16.9561 20.2974H16.3477V20.8932H16.9561V20.2974Z" fill="#DAE2EA"/>
<path d="M17.565 20.2974H16.9565V20.8932H17.565V20.2974Z" fill="#DAE2EA"/>
<path d="M18.1734 20.2974H17.5649V20.8932H18.1734V20.2974Z" fill="#DAE2EA"/>
<path d="M18.7826 20.2974H18.1741V20.8932H18.7826V20.2974Z" fill="#DAE2EA"/>
<path d="M19.3907 20.2974H18.7822V20.8932H19.3907V20.2974Z" fill="#DAE2EA"/>
<path d="M20.0001 20.2974H19.3916V20.8932H20.0001V20.2974Z" fill="white"/>
<path d="M20.6085 20.2974H20V20.8932H20.6085V20.2974Z" fill="white"/>
<path d="M21.2176 20.2974H20.6091V20.8932H21.2176V20.2974Z" fill="white"/>
<path d="M21.8263 20.2974H21.2178V20.8932H21.8263V20.2974Z" fill="white"/>
<path d="M22.4351 20.2974H21.8267V20.8932H22.4351V20.2974Z" fill="white"/>
<path d="M23.0435 20.2974H22.4351V20.8932H23.0435V20.2974Z" fill="white"/>
<path d="M23.6522 20.2974H23.0437V20.8932H23.6522V20.2974Z" fill="white"/>
<path d="M24.2608 20.2974H23.6523V20.8932H24.2608V20.2974Z" fill="#333B41"/>
<path d="M24.87 20.2974H24.2615V20.8932H24.87V20.2974Z" fill="#6D798D"/>
<path d="M25.4784 20.2974H24.8699V20.8932H25.4784V20.2974Z" fill="#6D798D"/>
<path d="M26.0875 20.2974H25.479V20.8932H26.0875V20.2974Z" fill="#6D798D"/>
<path d="M26.6959 20.2974H26.0874V20.8932H26.6959V20.2974Z" fill="#060608"/>
<path d="M27.3043 20.2974H26.6958V20.8932H27.3043V20.2974Z" fill="#8B97AF"/>
<path d="M27.9127 20.2974H27.3042V20.8932H27.9127V20.2974Z" fill="#8B97AF"/>
<path d="M28.5211 20.2974H27.9126V20.8932H28.5211V20.2974Z" fill="#8B97AF"/>
<path d="M29.1302 20.2974H28.5217V20.8932H29.1302V20.2974Z" fill="#8B97AF"/>
<path d="M29.7388 20.2974H29.1304V20.8932H29.7388V20.2974Z" fill="#C4C8D1"/>
<path d="M30.3477 20.2974H29.7393V20.8932H30.3477V20.2974Z" fill="#C4C8D1"/>
<path d="M30.9561 20.2974H30.3477V20.8932H30.9561V20.2974Z" fill="#C4C8D1"/>
<path d="M31.565 20.2974H30.9565V20.8932H31.565V20.2974Z" fill="#060608"/>
<path d="M32.1734 20.2974H31.5649V20.8932H32.1734V20.2974Z" fill="#4A5762"/>
<path d="M32.7825 20.2974H32.1741V20.8932H32.7825V20.2974Z" fill="#4A5762"/>
<path d="M33.3909 20.2974H32.7825V20.8932H33.3909V20.2974Z" fill="#4A5762"/>
<path d="M34.0001 20.2974H33.3916V20.8932H34.0001V20.2974Z" fill="#060608"/>
<path d="M7.82601 20.8936H7.21753V21.4894H7.82601V20.8936Z" fill="#060608"/>
<path d="M8.43465 20.8936H7.82617V21.4894H8.43465V20.8936Z" fill="#DEBC64"/>
<path d="M9.04354 20.8936H8.43506V21.4894H9.04354V20.8936Z" fill="#DEBC64"/>
<path d="M9.65218 20.8936H9.0437V21.4894H9.65218V20.8936Z" fill="#060608"/>
<path d="M10.2608 20.8936H9.65234V21.4894H10.2608V20.8936Z" fill="#DEBC64"/>
<path d="M10.8692 20.8936H10.2607V21.4894H10.8692V20.8936Z" fill="#B58B63"/>
<path d="M11.4781 20.8936H10.8696V21.4894H11.4781V20.8936Z" fill="#B58B63"/>
<path d="M12.087 20.8936H11.4785V21.4894H12.087V20.8936Z" fill="#B58B63"/>
<path d="M12.6959 20.8936H12.0874V21.4894H12.6959V20.8936Z" fill="#B58B63"/>
<path d="M13.3043 20.8936H12.6958V21.4894H13.3043V20.8936Z" fill="#E4A969"/>
<path d="M13.9127 20.8936H13.3042V21.4894H13.9127V20.8936Z" fill="#C4C8D1"/>
<path d="M14.5211 20.8936H13.9126V21.4894H14.5211V20.8936Z" fill="#C4C8D1"/>
<path d="M15.1302 20.8936H14.5217V21.4894H15.1302V20.8936Z" fill="#DAE2EA"/>
<path d="M15.7386 20.8936H15.1301V21.4894H15.7386V20.8936Z" fill="#DAE2EA"/>
<path d="M16.3477 20.8936H15.7393V21.4894H16.3477V20.8936Z" fill="#DAE2EA"/>
<path d="M16.9561 20.8936H16.3477V21.4894H16.9561V20.8936Z" fill="#DAE2EA"/>
<path d="M17.565 20.8936H16.9565V21.4894H17.565V20.8936Z" fill="#DAE2EA"/>
<path d="M18.1734 20.8936H17.5649V21.4894H18.1734V20.8936Z" fill="#DAE2EA"/>
<path d="M18.7826 20.8936H18.1741V21.4894H18.7826V20.8936Z" fill="#DAE2EA"/>
<path d="M19.3907 20.8936H18.7822V21.4894H19.3907V20.8936Z" fill="#DAE2EA"/>
<path d="M20.0001 20.8936H19.3916V21.4894H20.0001V20.8936Z" fill="#DAE2EA"/>
<path d="M20.6085 20.8936H20V21.4894H20.6085V20.8936Z" fill="#DAE2EA"/>
<path d="M21.2176 20.8936H20.6091V21.4894H21.2176V20.8936Z" fill="#DAE2EA"/>
<path d="M21.8263 20.8936H21.2178V21.4894H21.8263V20.8936Z" fill="white"/>
<path d="M22.4351 20.8936H21.8267V21.4894H22.4351V20.8936Z" fill="white"/>
<path d="M23.0435 20.8936H22.4351V21.4894H23.0435V20.8936Z" fill="white"/>
<path d="M23.6522 20.8936H23.0437V21.4894H23.6522V20.8936Z" fill="white"/>
<path d="M24.2608 20.8936H23.6523V21.4894H24.2608V20.8936Z" fill="#333B41"/>
<path d="M24.87 20.8936H24.2615V21.4894H24.87V20.8936Z" fill="#6D798D"/>
<path d="M25.4784 20.8936H24.8699V21.4894H25.4784V20.8936Z" fill="#6D798D"/>
<path d="M26.0875 20.8936H25.479V21.4894H26.0875V20.8936Z" fill="#6D798D"/>
<path d="M26.6959 20.8936H26.0874V21.4894H26.6959V20.8936Z" fill="#060608"/>
<path d="M27.3043 20.8936H26.6958V21.4894H27.3043V20.8936Z" fill="#8B97AF"/>
<path d="M27.9127 20.8936H27.3042V21.4894H27.9127V20.8936Z" fill="#8B97AF"/>
<path d="M28.5211 20.8936H27.9126V21.4894H28.5211V20.8936Z" fill="#8B97AF"/>
<path d="M29.1302 20.8936H28.5217V21.4894H29.1302V20.8936Z" fill="#8B97AF"/>
<path d="M29.7388 20.8936H29.1304V21.4894H29.7388V20.8936Z" fill="#8B97AF"/>
<path d="M30.3477 20.8936H29.7393V21.4894H30.3477V20.8936Z" fill="#C4C8D1"/>
<path d="M30.9561 20.8936H30.3477V21.4894H30.9561V20.8936Z" fill="#C4C8D1"/>
<path d="M31.565 20.8936H30.9565V21.4894H31.565V20.8936Z" fill="#060608"/>
<path d="M32.1734 20.8936H31.5649V21.4894H32.1734V20.8936Z" fill="#4A5762"/>
<path d="M32.7825 20.8936H32.1741V21.4894H32.7825V20.8936Z" fill="#4A5762"/>
<path d="M33.3909 20.8936H32.7825V21.4894H33.3909V20.8936Z" fill="#4A5762"/>
<path d="M34.0001 20.8936H33.3916V21.4894H34.0001V20.8936Z" fill="#060608"/>
<path d="M8.43465 21.4888H7.82617V22.0846H8.43465V21.4888Z" fill="#060608"/>
<path d="M9.04354 21.4888H8.43506V22.0846H9.04354V21.4888Z" fill="#DEBC64"/>
<path d="M9.65218 21.4888H9.0437V22.0846H9.65218V21.4888Z" fill="#DEBC64"/>
<path d="M10.2608 21.4888H9.65234V22.0846H10.2608V21.4888Z" fill="#060608"/>
<path d="M10.8692 21.4888H10.2607V22.0846H10.8692V21.4888Z" fill="#DEBC64"/>
<path d="M11.4781 21.4888H10.8696V22.0846H11.4781V21.4888Z" fill="#DEBC64"/>
<path d="M12.087 21.4888H11.4785V22.0846H12.087V21.4888Z" fill="#DEBC64"/>
<path d="M12.6959 21.4888H12.0874V22.0846H12.6959V21.4888Z" fill="#DEBC64"/>
<path d="M13.3043 21.4888H12.6958V22.0846H13.3043V21.4888Z" fill="#DEBC64"/>
<path d="M13.9127 21.4888H13.3042V22.0846H13.9127V21.4888Z" fill="#E4A969"/>
<path d="M14.5211 21.4888H13.9126V22.0846H14.5211V21.4888Z" fill="#C4C8D1"/>
<path d="M15.1302 21.4888H14.5217V22.0846H15.1302V21.4888Z" fill="#C4C8D1"/>
<path d="M15.7386 21.4888H15.1301V22.0846H15.7386V21.4888Z" fill="#C4C8D1"/>
<path d="M16.3477 21.4888H15.7393V22.0846H16.3477V21.4888Z" fill="#C4C8D1"/>
<path d="M16.9561 21.4888H16.3477V22.0846H16.9561V21.4888Z" fill="#DAE2EA"/>
<path d="M17.565 21.4888H16.9565V22.0846H17.565V21.4888Z" fill="#DAE2EA"/>
<path d="M18.1734 21.4888H17.5649V22.0846H18.1734V21.4888Z" fill="#DAE2EA"/>
<path d="M18.7826 21.4888H18.1741V22.0846H18.7826V21.4888Z" fill="#DAE2EA"/>
<path d="M19.3907 21.4888H18.7822V22.0846H19.3907V21.4888Z" fill="#DAE2EA"/>
<path d="M20.0001 21.4888H19.3916V22.0846H20.0001V21.4888Z" fill="#DAE2EA"/>
<path d="M20.6085 21.4888H20V22.0846H20.6085V21.4888Z" fill="#DAE2EA"/>
<path d="M21.2176 21.4888H20.6091V22.0846H21.2176V21.4888Z" fill="#DAE2EA"/>
<path d="M21.8263 21.4888H21.2178V22.0846H21.8263V21.4888Z" fill="#DAE2EA"/>
<path d="M22.4351 21.4888H21.8267V22.0846H22.4351V21.4888Z" fill="#DAE2EA"/>
<path d="M23.0435 21.4888H22.4351V22.0846H23.0435V21.4888Z" fill="#DAE2EA"/>
<path d="M23.6522 21.4888H23.0437V22.0846H23.6522V21.4888Z" fill="white"/>
<path d="M24.2608 21.4888H23.6523V22.0846H24.2608V21.4888Z" fill="#333B41"/>
<path d="M24.87 21.4888H24.2615V22.0846H24.87V21.4888Z" fill="#4A5762"/>
<path d="M25.4784 21.4888H24.8699V22.0846H25.4784V21.4888Z" fill="#6D798D"/>
<path d="M26.0875 21.4888H25.479V22.0846H26.0875V21.4888Z" fill="#6D798D"/>
<path d="M26.6959 21.4888H26.0874V22.0846H26.6959V21.4888Z" fill="#060608"/>
<path d="M27.3043 21.4888H26.6958V22.0846H27.3043V21.4888Z" fill="#8B97AF"/>
<path d="M27.9127 21.4888H27.3042V22.0846H27.9127V21.4888Z" fill="#8B97AF"/>
<path d="M28.5211 21.4888H27.9126V22.0846H28.5211V21.4888Z" fill="#8B97AF"/>
<path d="M29.1302 21.4888H28.5217V22.0846H29.1302V21.4888Z" fill="#8B97AF"/>
<path d="M29.7388 21.4888H29.1304V22.0846H29.7388V21.4888Z" fill="#8B97AF"/>
<path d="M30.3477 21.4888H29.7393V22.0846H30.3477V21.4888Z" fill="#8B97AF"/>
<path d="M30.9561 21.4888H30.3477V22.0846H30.9561V21.4888Z" fill="#8B97AF"/>
<path d="M31.565 21.4888H30.9565V22.0846H31.565V21.4888Z" fill="#060608"/>
<path d="M32.1734 21.4888H31.5649V22.0846H32.1734V21.4888Z" fill="#4A5762"/>
<path d="M32.7825 21.4888H32.1741V22.0846H32.7825V21.4888Z" fill="#4A5762"/>
<path d="M33.3909 21.4888H32.7825V22.0846H33.3909V21.4888Z" fill="#333B41"/>
<path d="M34.0001 21.4888H33.3916V22.0846H34.0001V21.4888Z" fill="#060608"/>
<path d="M9.04354 22.0845H8.43506V22.6803H9.04354V22.0845Z" fill="#060608"/>
<path d="M9.65218 22.0845H9.0437V22.6803H9.65218V22.0845Z" fill="#060608"/>
<path d="M10.2608 22.0845H9.65234V22.6803H10.2608V22.0845Z" fill="#060608"/>
<path d="M10.8692 22.0845H10.2607V22.6803H10.8692V22.0845Z" fill="#060608"/>
<path d="M11.4781 22.0845H10.8696V22.6803H11.4781V22.0845Z" fill="#524489"/>
<path d="M12.087 22.0845H11.4785V22.6803H12.087V22.0845Z" fill="#DEBC64"/>
<path d="M12.6959 22.0845H12.0874V22.6803H12.6959V22.0845Z" fill="#DEBC64"/>
<path d="M13.3043 22.0845H12.6958V22.6803H13.3043V22.0845Z" fill="#DEBC64"/>
<path d="M13.9127 22.0845H13.3042V22.6803H13.9127V22.0845Z" fill="#E4C763"/>
<path d="M14.5211 22.0845H13.9126V22.6803H14.5211V22.0845Z" fill="#E4A969"/>
<path d="M15.1302 22.0845H14.5217V22.6803H15.1302V22.0845Z" fill="#060608"/>
<path d="M15.7386 22.0845H15.1301V22.6803H15.7386V22.0845Z" fill="#060608"/>
<path d="M16.3477 22.0845H15.7393V22.6803H16.3477V22.0845Z" fill="#060608"/>
<path d="M16.9561 22.0845H16.3477V22.6803H16.9561V22.0845Z" fill="#C4C8D1"/>
<path d="M17.565 22.0845H16.9565V22.6803H17.565V22.0845Z" fill="#C4C8D1"/>
<path d="M18.1734 22.0845H17.5649V22.6803H18.1734V22.0845Z" fill="#C4C8D1"/>
<path d="M18.7826 22.0845H18.1741V22.6803H18.7826V22.0845Z" fill="#C4C8D1"/>
<path d="M19.3907 22.0845H18.7822V22.6803H19.3907V22.0845Z" fill="#DAE2EA"/>
<path d="M20.0001 22.0845H19.3916V22.6803H20.0001V22.0845Z" fill="#DAE2EA"/>
<path d="M20.6085 22.0845H20V22.6803H20.6085V22.0845Z" fill="#DAE2EA"/>
<path d="M21.2176 22.0845H20.6091V22.6803H21.2176V22.0845Z" fill="#DAE2EA"/>
<path d="M21.8263 22.0845H21.2178V22.6803H21.8263V22.0845Z" fill="#DAE2EA"/>
<path d="M22.4351 22.0845H21.8267V22.6803H22.4351V22.0845Z" fill="#DAE2EA"/>
<path d="M23.0435 22.0845H22.4351V22.6803H23.0435V22.0845Z" fill="#DAE2EA"/>
<path d="M23.6522 22.0845H23.0437V22.6803H23.6522V22.0845Z" fill="#DAE2EA"/>
<path d="M24.2608 22.0845H23.6523V22.6803H24.2608V22.0845Z" fill="#333B41"/>
<path d="M24.87 22.0845H24.2615V22.6803H24.87V22.0845Z" fill="#4A5762"/>
<path d="M25.4784 22.0845H24.8699V22.6803H25.4784V22.0845Z" fill="#4A5762"/>
<path d="M26.0875 22.0845H25.479V22.6803H26.0875V22.0845Z" fill="#6D798D"/>
<path d="M26.6959 22.0845H26.0874V22.6803H26.6959V22.0845Z" fill="#060608"/>
<path d="M27.3043 22.0845H26.6958V22.6803H27.3043V22.0845Z" fill="#8B97AF"/>
<path d="M27.9127 22.0845H27.3042V22.6803H27.9127V22.0845Z" fill="#8B97AF"/>
<path d="M28.5211 22.0845H27.9126V22.6803H28.5211V22.0845Z" fill="#8B97AF"/>
<path d="M29.1302 22.0845H28.5217V22.6803H29.1302V22.0845Z" fill="#8B97AF"/>
<path d="M29.7388 22.0845H29.1304V22.6803H29.7388V22.0845Z" fill="#8B97AF"/>
<path d="M30.3477 22.0845H29.7393V22.6803H30.3477V22.0845Z" fill="#8B97AF"/>
<path d="M30.9561 22.0845H30.3477V22.6803H30.9561V22.0845Z" fill="#8B97AF"/>
<path d="M31.565 22.0845H30.9565V22.6803H31.565V22.0845Z" fill="#060608"/>
<path d="M32.1734 22.0845H31.5649V22.6803H32.1734V22.0845Z" fill="#4A5762"/>
<path d="M32.7825 22.0845H32.1741V22.6803H32.7825V22.0845Z" fill="#4A5762"/>
<path d="M33.3909 22.0845H32.7825V22.6803H33.3909V22.0845Z" fill="#060608"/>
<path d="M10.2608 22.6802H9.65234V23.276H10.2608V22.6802Z" fill="#060608"/>
<path d="M10.8692 22.6802H10.2607V23.276H10.8692V22.6802Z" fill="#E4C763"/>
<path d="M11.4781 22.6802H10.8696V23.276H11.4781V22.6802Z" fill="#E4C763"/>
<path d="M12.087 22.6802H11.4785V23.276H12.087V22.6802Z" fill="#E4C763"/>
<path d="M12.6959 22.6802H12.0874V23.276H12.6959V22.6802Z" fill="#E4C763"/>
<path d="M13.3043 22.6802H12.6958V23.276H13.3043V22.6802Z" fill="#E4C763"/>
<path d="M13.9127 22.6802H13.3042V23.276H13.9127V22.6802Z" fill="#E4C763"/>
<path d="M14.5211 22.6802H13.9126V23.276H14.5211V22.6802Z" fill="#E4A969"/>
<path d="M15.1302 22.6802H14.5217V23.276H15.1302V22.6802Z" fill="#060608"/>
<path d="M16.9561 22.6802H16.3477V23.276H16.9561V22.6802Z" fill="#060608"/>
<path d="M17.565 22.6802H16.9565V23.276H17.565V22.6802Z" fill="#060608"/>
<path d="M18.1734 22.6802H17.5649V23.276H18.1734V22.6802Z" fill="#060608"/>
<path d="M18.7826 22.6802H18.1741V23.276H18.7826V22.6802Z" fill="#060608"/>
<path d="M19.3907 22.6802H18.7822V23.276H19.3907V22.6802Z" fill="#C4C8D1"/>
<path d="M20.0001 22.6802H19.3916V23.276H20.0001V22.6802Z" fill="#C4C8D1"/>
<path d="M20.6085 22.6802H20V23.276H20.6085V22.6802Z" fill="#C4C8D1"/>
<path d="M21.2176 22.6802H20.6091V23.276H21.2176V22.6802Z" fill="#DAE2EA"/>
<path d="M21.8263 22.6802H21.2178V23.276H21.8263V22.6802Z" fill="#DAE2EA"/>
<path d="M22.4351 22.6802H21.8267V23.276H22.4351V22.6802Z" fill="#DAE2EA"/>
<path d="M23.0435 22.6802H22.4351V23.276H23.0435V22.6802Z" fill="#DAE2EA"/>
<path d="M23.6522 22.6802H23.0437V23.276H23.6522V22.6802Z" fill="#DAE2EA"/>
<path d="M24.2608 22.6802H23.6523V23.276H24.2608V22.6802Z" fill="#DAE2EA"/>
<path d="M24.87 22.6802H24.2615V23.276H24.87V22.6802Z" fill="#333B41"/>
<path d="M25.4784 22.6802H24.8699V23.276H25.4784V22.6802Z" fill="#4A5762"/>
<path d="M26.0875 22.6802H25.479V23.276H26.0875V22.6802Z" fill="#4A5762"/>
<path d="M26.6959 22.6802H26.0874V23.276H26.6959V22.6802Z" fill="#4A5762"/>
<path d="M27.3043 22.6802H26.6958V23.276H27.3043V22.6802Z" fill="#060608"/>
<path d="M27.9127 22.6802H27.3042V23.276H27.9127V22.6802Z" fill="#8B97AF"/>
<path d="M28.5211 22.6802H27.9126V23.276H28.5211V22.6802Z" fill="#8B97AF"/>
<path d="M29.1302 22.6802H28.5217V23.276H29.1302V22.6802Z" fill="#8B97AF"/>
<path d="M29.7388 22.6802H29.1304V23.276H29.7388V22.6802Z" fill="#8B97AF"/>
<path d="M30.3477 22.6802H29.7393V23.276H30.3477V22.6802Z" fill="#8B97AF"/>
<path d="M30.9561 22.6802H30.3477V23.276H30.9561V22.6802Z" fill="#060608"/>
<path d="M31.565 22.6802H30.9565V23.276H31.565V22.6802Z" fill="#333B41"/>
<path d="M32.1734 22.6802H31.5649V23.276H32.1734V22.6802Z" fill="#4A5762"/>
<path d="M32.7825 22.6802H32.1741V23.276H32.7825V22.6802Z" fill="#4A5762"/>
<path d="M33.3909 22.6802H32.7825V23.276H33.3909V22.6802Z" fill="#060608"/>
<path d="M10.2608 23.2754H9.65234V23.8712H10.2608V23.2754Z" fill="#060608"/>
<path d="M10.8692 23.2754H10.2607V23.8712H10.8692V23.2754Z" fill="#B58B63"/>
<path d="M11.4781 23.2754H10.8696V23.8712H11.4781V23.2754Z" fill="#060608"/>
<path d="M12.087 23.2754H11.4785V23.8712H12.087V23.2754Z" fill="#B58B63"/>
<path d="M12.6959 23.2754H12.0874V23.8712H12.6959V23.2754Z" fill="#B58B63"/>
<path d="M13.3043 23.2754H12.6958V23.8712H13.3043V23.2754Z" fill="#B58B63"/>
<path d="M13.9127 23.2754H13.3042V23.8712H13.9127V23.2754Z" fill="#DEBC64"/>
<path d="M14.5211 23.2754H13.9126V23.8712H14.5211V23.2754Z" fill="#E4A969"/>
<path d="M15.1302 23.2754H14.5217V23.8712H15.1302V23.2754Z" fill="#060608"/>
<path d="M19.3907 23.2754H18.7822V23.8712H19.3907V23.2754Z" fill="#060608"/>
<path d="M20.0001 23.2754H19.3916V23.8712H20.0001V23.2754Z" fill="#060608"/>
<path d="M20.6085 23.2754H20V23.8712H20.6085V23.2754Z" fill="#060608"/>
<path d="M21.2176 23.2754H20.6091V23.8712H21.2176V23.2754Z" fill="#C4C8D1"/>
<path d="M21.8263 23.2754H21.2178V23.8712H21.8263V23.2754Z" fill="#C4C8D1"/>
<path d="M22.4351 23.2754H21.8267V23.8712H22.4351V23.2754Z" fill="#C4C8D1"/>
<path d="M23.0435 23.2754H22.4351V23.8712H23.0435V23.2754Z" fill="#DAE2EA"/>
<path d="M23.6522 23.2754H23.0437V23.8712H23.6522V23.2754Z" fill="#DAE2EA"/>
<path d="M24.2608 23.2754H23.6523V23.8712H24.2608V23.2754Z" fill="#DAE2EA"/>
<path d="M24.87 23.2754H24.2615V23.8712H24.87V23.2754Z" fill="#333B41"/>
<path d="M25.4784 23.2754H24.8699V23.8712H25.4784V23.2754Z" fill="#4A5762"/>
<path d="M26.0875 23.2754H25.479V23.8712H26.0875V23.2754Z" fill="#4A5762"/>
<path d="M26.6959 23.2754H26.0874V23.8712H26.6959V23.2754Z" fill="#4A5762"/>
<path d="M27.3043 23.2754H26.6958V23.8712H27.3043V23.2754Z" fill="#060608"/>
<path d="M27.9127 23.2754H27.3042V23.8712H27.9127V23.2754Z" fill="#8B97AF"/>
<path d="M28.5211 23.2754H27.9126V23.8712H28.5211V23.2754Z" fill="#8B97AF"/>
<path d="M29.1302 23.2754H28.5217V23.8712H29.1302V23.2754Z" fill="#8B97AF"/>
<path d="M29.7388 23.2754H29.1304V23.8712H29.7388V23.2754Z" fill="#8B97AF"/>
<path d="M30.3477 23.2754H29.7393V23.8712H30.3477V23.2754Z" fill="#8B97AF"/>
<path d="M30.9561 23.2754H30.3477V23.8712H30.9561V23.2754Z" fill="#060608"/>
<path d="M31.565 23.2754H30.9565V23.8712H31.565V23.2754Z" fill="#4A5762"/>
<path d="M32.1734 23.2754H31.5649V23.8712H32.1734V23.2754Z" fill="#4A5762"/>
<path d="M32.7825 23.2754H32.1741V23.8712H32.7825V23.2754Z" fill="#4A5762"/>
<path d="M33.3909 23.2754H32.7825V23.8712H33.3909V23.2754Z" fill="#060608"/>
<path d="M10.2608 23.8721H9.65234V24.4679H10.2608V23.8721Z" fill="#060608"/>
<path d="M10.8692 23.8721H10.2607V24.4679H10.8692V23.8721Z" fill="#B58B63"/>
<path d="M11.4781 23.8721H10.8696V24.4679H11.4781V23.8721Z" fill="#B58B63"/>
<path d="M12.087 23.8721H11.4785V24.4679H12.087V23.8721Z" fill="#B58B63"/>
<path d="M12.6959 23.8721H12.0874V24.4679H12.6959V23.8721Z" fill="#060608"/>
<path d="M13.3043 23.8721H12.6958V24.4679H13.3043V23.8721Z" fill="#060608"/>
<path d="M13.9127 23.8721H13.3042V24.4679H13.9127V23.8721Z" fill="#FAF6EE"/>
<path d="M14.5211 23.8721H13.9126V24.4679H14.5211V23.8721Z" fill="#060608"/>
<path d="M15.1302 23.8721H14.5217V24.4679H15.1302V23.8721Z" fill="#F6EED9"/>
<path d="M15.7386 23.8721H15.1301V24.4679H15.7386V23.8721Z" fill="#060608"/>
<path d="M21.2176 23.8721H20.6091V24.4679H21.2176V23.8721Z" fill="#060608"/>
<path d="M21.8263 23.8721H21.2178V24.4679H21.8263V23.8721Z" fill="#060608"/>
<path d="M22.4351 23.8721H21.8267V24.4679H22.4351V23.8721Z" fill="#C4C8D1"/>
<path d="M23.0435 23.8721H22.4351V24.4679H23.0435V23.8721Z" fill="#C4C8D1"/>
<path d="M23.6522 23.8721H23.0437V24.4679H23.6522V23.8721Z" fill="#C4C8D1"/>
<path d="M24.2608 23.8721H23.6523V24.4679H24.2608V23.8721Z" fill="#DAE2EA"/>
<path d="M24.87 23.8721H24.2615V24.4679H24.87V23.8721Z" fill="#333B41"/>
<path d="M25.4784 23.8721H24.8699V24.4679H25.4784V23.8721Z" fill="#4A5762"/>
<path d="M26.0875 23.8721H25.479V24.4679H26.0875V23.8721Z" fill="#4A5762"/>
<path d="M26.6959 23.8721H26.0874V24.4679H26.6959V23.8721Z" fill="#4A5762"/>
<path d="M27.3043 23.8721H26.6958V24.4679H27.3043V23.8721Z" fill="#060608"/>
<path d="M27.9127 23.8721H27.3042V24.4679H27.9127V23.8721Z" fill="#8B97AF"/>
<path d="M28.5211 23.8721H27.9126V24.4679H28.5211V23.8721Z" fill="#8B97AF"/>
<path d="M29.1302 23.8721H28.5217V24.4679H29.1302V23.8721Z" fill="#8B97AF"/>
<path d="M29.7388 23.8721H29.1304V24.4679H29.7388V23.8721Z" fill="#8B97AF"/>
<path d="M30.3477 23.8721H29.7393V24.4679H30.3477V23.8721Z" fill="#8B97AF"/>
<path d="M30.9561 23.8721H30.3477V24.4679H30.9561V23.8721Z" fill="#060608"/>
<path d="M31.565 23.8721H30.9565V24.4679H31.565V23.8721Z" fill="#4A5762"/>
<path d="M32.1734 23.8721H31.5649V24.4679H32.1734V23.8721Z" fill="#4A5762"/>
<path d="M32.7825 23.8721H32.1741V24.4679H32.7825V23.8721Z" fill="#4A5762"/>
<path d="M33.3909 23.8721H32.7825V24.4679H33.3909V23.8721Z" fill="#060608"/>
<path d="M10.2608 24.4678H9.65234V25.0636H10.2608V24.4678Z" fill="#060608"/>
<path d="M10.8692 24.4678H10.2607V25.0636H10.8692V24.4678Z" fill="#B58B63"/>
<path d="M11.4781 24.4678H10.8696V25.0636H11.4781V24.4678Z" fill="#060608"/>
<path d="M12.087 24.4678H11.4785V25.0636H12.087V24.4678Z" fill="#060608"/>
<path d="M12.6959 24.4678H12.0874V25.0636H12.6959V24.4678Z" fill="white"/>
<path d="M13.3043 24.4678H12.6958V25.0636H13.3043V24.4678Z" fill="white"/>
<path d="M13.9127 24.4678H13.3042V25.0636H13.9127V24.4678Z" fill="white"/>
<path d="M14.5211 24.4678H13.9126V25.0636H14.5211V24.4678Z" fill="#C4C8D1"/>
<path d="M15.1302 24.4678H14.5217V25.0636H15.1302V24.4678Z" fill="white"/>
<path d="M15.7386 24.4678H15.1301V25.0636H15.7386V24.4678Z" fill="#060608"/>
<path d="M22.4351 24.4678H21.8267V25.0636H22.4351V24.4678Z" fill="#060608"/>
<path d="M23.0435 24.4678H22.4351V25.0636H23.0435V24.4678Z" fill="#060608"/>
<path d="M23.6522 24.4678H23.0437V25.0636H23.6522V24.4678Z" fill="#C4C8D1"/>
<path d="M24.2608 24.4678H23.6523V25.0636H24.2608V24.4678Z" fill="#C4C8D1"/>
<path d="M24.87 24.4678H24.2615V25.0636H24.87V24.4678Z" fill="#333B41"/>
<path d="M25.4784 24.4678H24.8699V25.0636H25.4784V24.4678Z" fill="#4A5762"/>
<path d="M26.0875 24.4678H25.479V25.0636H26.0875V24.4678Z" fill="#4A5762"/>
<path d="M26.6959 24.4678H26.0874V25.0636H26.6959V24.4678Z" fill="#4A5762"/>
<path d="M27.3043 24.4678H26.6958V25.0636H27.3043V24.4678Z" fill="#060608"/>
<path d="M27.9127 24.4678H27.3042V25.0636H27.9127V24.4678Z" fill="#8B97AF"/>
<path d="M28.5211 24.4678H27.9126V25.0636H28.5211V24.4678Z" fill="#8B97AF"/>
<path d="M29.1302 24.4678H28.5217V25.0636H29.1302V24.4678Z" fill="#8B97AF"/>
<path d="M29.7388 24.4678H29.1304V25.0636H29.7388V24.4678Z" fill="#8B97AF"/>
<path d="M30.3477 24.4678H29.7393V25.0636H30.3477V24.4678Z" fill="#8B97AF"/>
<path d="M30.9561 24.4678H30.3477V25.0636H30.9561V24.4678Z" fill="#060608"/>
<path d="M31.565 24.4678H30.9565V25.0636H31.565V24.4678Z" fill="#4A5762"/>
<path d="M32.1734 24.4678H31.5649V25.0636H32.1734V24.4678Z" fill="#4A5762"/>
<path d="M32.7825 24.4678H32.1741V25.0636H32.7825V24.4678Z" fill="#333B41"/>
<path d="M33.3909 24.4678H32.7825V25.0636H33.3909V24.4678Z" fill="#060608"/>
<path d="M10.8692 25.0635H10.2607V25.6593H10.8692V25.0635Z" fill="#060608"/>
<path d="M11.4781 25.0635H10.8696V25.6593H11.4781V25.0635Z" fill="white"/>
<path d="M12.087 25.0635H11.4785V25.6593H12.087V25.0635Z" fill="white"/>
<path d="M12.6959 25.0635H12.0874V25.6593H12.6959V25.0635Z" fill="white"/>
<path d="M13.3043 25.0635H12.6958V25.6593H13.3043V25.0635Z" fill="white"/>
<path d="M13.9127 25.0635H13.3042V25.6593H13.9127V25.0635Z" fill="white"/>
<path d="M14.5211 25.0635H13.9126V25.6593H14.5211V25.0635Z" fill="#C4C8D1"/>
<path d="M15.1302 25.0635H14.5217V25.6593H15.1302V25.0635Z" fill="white"/>
<path d="M15.7386 25.0635H15.1301V25.6593H15.7386V25.0635Z" fill="#060608"/>
<path d="M23.6522 25.0635H23.0437V25.6593H23.6522V25.0635Z" fill="#060608"/>
<path d="M24.2608 25.0635H23.6523V25.6593H24.2608V25.0635Z" fill="#C4C8D1"/>
<path d="M24.87 25.0635H24.2615V25.6593H24.87V25.0635Z" fill="#C4C8D1"/>
<path d="M25.4784 25.0635H24.8699V25.6593H25.4784V25.0635Z" fill="#333B41"/>
<path d="M26.0875 25.0635H25.479V25.6593H26.0875V25.0635Z" fill="#4A5762"/>
<path d="M26.6959 25.0635H26.0874V25.6593H26.6959V25.0635Z" fill="#4A5762"/>
<path d="M27.3043 25.0635H26.6958V25.6593H27.3043V25.0635Z" fill="#333B41"/>
<path d="M27.9127 25.0635H27.3042V25.6593H27.9127V25.0635Z" fill="#060608"/>
<path d="M28.5211 25.0635H27.9126V25.6593H28.5211V25.0635Z" fill="#8B97AF"/>
<path d="M29.1302 25.0635H28.5217V25.6593H29.1302V25.0635Z" fill="#8B97AF"/>
<path d="M29.7388 25.0635H29.1304V25.6593H29.7388V25.0635Z" fill="#8B97AF"/>
<path d="M30.3477 25.0635H29.7393V25.6593H30.3477V25.0635Z" fill="#060608"/>
<path d="M30.9561 25.0635H30.3477V25.6593H30.9561V25.0635Z" fill="#4A5762"/>
<path d="M31.565 25.0635H30.9565V25.6593H31.565V25.0635Z" fill="#4A5762"/>
<path d="M32.1734 25.0635H31.5649V25.6593H32.1734V25.0635Z" fill="#4A5762"/>
<path d="M32.7825 25.0635H32.1741V25.6593H32.7825V25.0635Z" fill="#060608"/>
<path d="M10.8692 25.6587H10.2607V26.2545H10.8692V25.6587Z" fill="#060608"/>
<path d="M11.4781 25.6587H10.8696V26.2545H11.4781V25.6587Z" fill="white"/>
<path d="M12.087 25.6587H11.4785V26.2545H12.087V25.6587Z" fill="white"/>
<path d="M12.6959 25.6587H12.0874V26.2545H12.6959V25.6587Z" fill="white"/>
<path d="M13.3043 25.6587H12.6958V26.2545H13.3043V25.6587Z" fill="white"/>
<path d="M13.9127 25.6587H13.3042V26.2545H13.9127V25.6587Z" fill="white"/>
<path d="M14.5211 25.6587H13.9126V26.2545H14.5211V25.6587Z" fill="#DAE2EA"/>
<path d="M15.1302 25.6587H14.5217V26.2545H15.1302V25.6587Z" fill="#060608"/>
<path d="M15.7386 25.6587H15.1301V26.2545H15.7386V25.6587Z" fill="#060608"/>
<path d="M24.2608 25.6587H23.6523V26.2545H24.2608V25.6587Z" fill="#060608"/>
<path d="M24.87 25.6587H24.2615V26.2545H24.87V25.6587Z" fill="#C4C8D1"/>
<path d="M25.4784 25.6587H24.8699V26.2545H25.4784V25.6587Z" fill="#333B41"/>
<path d="M26.0875 25.6587H25.479V26.2545H26.0875V25.6587Z" fill="#333B41"/>
<path d="M26.6959 25.6587H26.0874V26.2545H26.6959V25.6587Z" fill="#4A5762"/>
<path d="M27.3043 25.6587H26.6958V26.2545H27.3043V25.6587Z" fill="#333B41"/>
<path d="M27.9127 25.6587H27.3042V26.2545H27.9127V25.6587Z" fill="#060608"/>
<path d="M28.5211 25.6587H27.9126V26.2545H28.5211V25.6587Z" fill="#8B97AF"/>
<path d="M29.1302 25.6587H28.5217V26.2545H29.1302V25.6587Z" fill="#8B97AF"/>
<path d="M29.7388 25.6587H29.1304V26.2545H29.7388V25.6587Z" fill="#8B97AF"/>
<path d="M30.3477 25.6587H29.7393V26.2545H30.3477V25.6587Z" fill="#060608"/>
<path d="M30.9561 25.6587H30.3477V26.2545H30.9561V25.6587Z" fill="#4A5762"/>
<path d="M31.565 25.6587H30.9565V26.2545H31.565V25.6587Z" fill="#4A5762"/>
<path d="M32.1734 25.6587H31.5649V26.2545H32.1734V25.6587Z" fill="#333B41"/>
<path d="M32.7825 25.6587H32.1741V26.2545H32.7825V25.6587Z" fill="#060608"/>
<path d="M11.4781 26.2544H10.8696V26.8502H11.4781V26.2544Z" fill="#060608"/>
<path d="M12.087 26.2544H11.4785V26.8502H12.087V26.2544Z" fill="white"/>
<path d="M12.6959 26.2544H12.0874V26.8502H12.6959V26.2544Z" fill="white"/>
<path d="M13.3043 26.2544H12.6958V26.8502H13.3043V26.2544Z" fill="white"/>
<path d="M13.9127 26.2544H13.3042V26.8502H13.9127V26.2544Z" fill="white"/>
<path d="M14.5211 26.2544H13.9126V26.8502H14.5211V26.2544Z" fill="#DAE2EA"/>
<path d="M15.1302 26.2544H14.5217V26.8502H15.1302V26.2544Z" fill="#C4C8D1"/>
<path d="M15.7386 26.2544H15.1301V26.8502H15.7386V26.2544Z" fill="#060608"/>
<path d="M24.87 26.2544H24.2615V26.8502H24.87V26.2544Z" fill="#060608"/>
<path d="M25.4784 26.2544H24.8699V26.8502H25.4784V26.2544Z" fill="#C4C8D1"/>
<path d="M26.0875 26.2544H25.479V26.8502H26.0875V26.2544Z" fill="#333B41"/>
<path d="M26.6959 26.2544H26.0874V26.8502H26.6959V26.2544Z" fill="#333B41"/>
<path d="M27.3043 26.2544H26.6958V26.8502H27.3043V26.2544Z" fill="#333B41"/>
<path d="M27.9127 26.2544H27.3042V26.8502H27.9127V26.2544Z" fill="#333B41"/>
<path d="M28.5211 26.2544H27.9126V26.8502H28.5211V26.2544Z" fill="#060608"/>
<path d="M29.1302 26.2544H28.5217V26.8502H29.1302V26.2544Z" fill="#8B97AF"/>
<path d="M29.7388 26.2544H29.1304V26.8502H29.7388V26.2544Z" fill="#060608"/>
<path d="M30.3477 26.2544H29.7393V26.8502H30.3477V26.2544Z" fill="#4A5762"/>
<path d="M30.9561 26.2544H30.3477V26.8502H30.9561V26.2544Z" fill="#4A5762"/>
<path d="M31.565 26.2544H30.9565V26.8502H31.565V26.2544Z" fill="#4A5762"/>
<path d="M32.1734 26.2544H31.5649V26.8502H32.1734V26.2544Z" fill="#060608"/>
<path d="M11.4781 26.8511H10.8696V27.4469H11.4781V26.8511Z" fill="#060608"/>
<path d="M12.087 26.8511H11.4785V27.4469H12.087V26.8511Z" fill="white"/>
<path d="M12.6959 26.8511H12.0874V27.4469H12.6959V26.8511Z" fill="white"/>
<path d="M13.3043 26.8511H12.6958V27.4469H13.3043V26.8511Z" fill="white"/>
<path d="M13.9127 26.8511H13.3042V27.4469H13.9127V26.8511Z" fill="white"/>
<path d="M14.5211 26.8511H13.9126V27.4469H14.5211V26.8511Z" fill="white"/>
<path d="M15.1302 26.8511H14.5217V27.4469H15.1302V26.8511Z" fill="#C4C8D1"/>
<path d="M15.7386 26.8511H15.1301V27.4469H15.7386V26.8511Z" fill="#060608"/>
<path d="M25.4784 26.8511H24.8699V27.4469H25.4784V26.8511Z" fill="#060608"/>
<path d="M26.0875 26.8511H25.479V27.4469H26.0875V26.8511Z" fill="#060608"/>
<path d="M26.6959 26.8511H26.0874V27.4469H26.6959V26.8511Z" fill="#333B41"/>
<path d="M27.3043 26.8511H26.6958V27.4469H27.3043V26.8511Z" fill="#333B41"/>
<path d="M27.9127 26.8511H27.3042V27.4469H27.9127V26.8511Z" fill="#333B41"/>
<path d="M28.5211 26.8511H27.9126V27.4469H28.5211V26.8511Z" fill="#333B41"/>
<path d="M29.1302 26.8511H28.5217V27.4469H29.1302V26.8511Z" fill="#060608"/>
<path d="M29.7388 26.8511H29.1304V27.4469H29.7388V26.8511Z" fill="#4A5762"/>
<path d="M30.3477 26.8511H29.7393V27.4469H30.3477V26.8511Z" fill="#4A5762"/>
<path d="M30.9561 26.8511H30.3477V27.4469H30.9561V26.8511Z" fill="#4A5762"/>
<path d="M31.565 26.8511H30.9565V27.4469H31.565V26.8511Z" fill="#333B41"/>
<path d="M32.1734 26.8511H31.5649V27.4469H32.1734V26.8511Z" fill="#060608"/>
<path d="M11.4781 27.4463H10.8696V28.0421H11.4781V27.4463Z" fill="#060608"/>
<path d="M12.087 27.4463H11.4785V28.0421H12.087V27.4463Z" fill="white"/>
<path d="M12.6959 27.4463H12.0874V28.0421H12.6959V27.4463Z" fill="white"/>
<path d="M13.3043 27.4463H12.6958V28.0421H13.3043V27.4463Z" fill="white"/>
<path d="M13.9127 27.4463H13.3042V28.0421H13.9127V27.4463Z" fill="white"/>
<path d="M14.5211 27.4463H13.9126V28.0421H14.5211V27.4463Z" fill="white"/>
<path d="M15.1302 27.4463H14.5217V28.0421H15.1302V27.4463Z" fill="#DAE2EA"/>
<path d="M15.7386 27.4463H15.1301V28.0421H15.7386V27.4463Z" fill="#060608"/>
<path d="M26.0875 27.4463H25.479V28.0421H26.0875V27.4463Z" fill="#060608"/>
<path d="M26.6959 27.4463H26.0874V28.0421H26.6959V27.4463Z" fill="#333B41"/>
<path d="M27.3043 27.4463H26.6958V28.0421H27.3043V27.4463Z" fill="#333B41"/>
<path d="M27.9127 27.4463H27.3042V28.0421H27.9127V27.4463Z" fill="#333B41"/>
<path d="M28.5211 27.4463H27.9126V28.0421H28.5211V27.4463Z" fill="#333B41"/>
<path d="M29.1302 27.4463H28.5217V28.0421H29.1302V27.4463Z" fill="#333B41"/>
<path d="M29.7388 27.4463H29.1304V28.0421H29.7388V27.4463Z" fill="#4A5762"/>
<path d="M30.3477 27.4463H29.7393V28.0421H30.3477V27.4463Z" fill="#4A5762"/>
<path d="M30.9561 27.4463H30.3477V28.0421H30.9561V27.4463Z" fill="#333B41"/>
<path d="M31.565 27.4463H30.9565V28.0421H31.565V27.4463Z" fill="#060608"/>
<path d="M11.4781 28.0425H10.8696V28.6383H11.4781V28.0425Z" fill="#060608"/>
<path d="M12.087 28.0425H11.4785V28.6383H12.087V28.0425Z" fill="white"/>
<path d="M12.6959 28.0425H12.0874V28.6383H12.6959V28.0425Z" fill="white"/>
<path d="M13.3043 28.0425H12.6958V28.6383H13.3043V28.0425Z" fill="white"/>
<path d="M13.9127 28.0425H13.3042V28.6383H13.9127V28.0425Z" fill="white"/>
<path d="M14.5211 28.0425H13.9126V28.6383H14.5211V28.0425Z" fill="white"/>
<path d="M15.1302 28.0425H14.5217V28.6383H15.1302V28.0425Z" fill="white"/>
<path d="M15.7386 28.0425H15.1301V28.6383H15.7386V28.0425Z" fill="#060608"/>
<path d="M26.6959 28.0425H26.0874V28.6383H26.6959V28.0425Z" fill="#060608"/>
<path d="M27.3043 28.0425H26.6958V28.6383H27.3043V28.0425Z" fill="#333B41"/>
<path d="M27.9127 28.0425H27.3042V28.6383H27.9127V28.0425Z" fill="#333B41"/>
<path d="M28.5211 28.0425H27.9126V28.6383H28.5211V28.0425Z" fill="#333B41"/>
<path d="M29.1302 28.0425H28.5217V28.6383H29.1302V28.0425Z" fill="#333B41"/>
<path d="M29.7388 28.0425H29.1304V28.6383H29.7388V28.0425Z" fill="#333B41"/>
<path d="M30.3477 28.0425H29.7393V28.6383H30.3477V28.0425Z" fill="#333B41"/>
<path d="M30.9561 28.0425H30.3477V28.6383H30.9561V28.0425Z" fill="#060608"/>
<path d="M12.087 28.6382H11.4785V29.234H12.087V28.6382Z" fill="#060608"/>
<path d="M12.6959 28.6382H12.0874V29.234H12.6959V28.6382Z" fill="white"/>
<path d="M13.3043 28.6382H12.6958V29.234H13.3043V28.6382Z" fill="white"/>
<path d="M13.9127 28.6382H13.3042V29.234H13.9127V28.6382Z" fill="white"/>
<path d="M14.5211 28.6382H13.9126V29.234H14.5211V28.6382Z" fill="white"/>
<path d="M15.1302 28.6382H14.5217V29.234H15.1302V28.6382Z" fill="white"/>
<path d="M15.7386 28.6382H15.1301V29.234H15.7386V28.6382Z" fill="#C4C8D1"/>
<path d="M16.3477 28.6382H15.7393V29.234H16.3477V28.6382Z" fill="#060608"/>
<path d="M27.3043 28.6382H26.6958V29.234H27.3043V28.6382Z" fill="#060608"/>
<path d="M27.9127 28.6382H27.3042V29.234H27.9127V28.6382Z" fill="#333B41"/>
<path d="M28.5211 28.6382H27.9126V29.234H28.5211V28.6382Z" fill="#333B41"/>
<path d="M29.1302 28.6382H28.5217V29.234H29.1302V28.6382Z" fill="#333B41"/>
<path d="M29.7388 28.6382H29.1304V29.234H29.7388V28.6382Z" fill="#333B41"/>
<path d="M30.3477 28.6382H29.7393V29.234H30.3477V28.6382Z" fill="#060608"/>
<path d="M12.087 29.2334H11.4785V29.8292H12.087V29.2334Z" fill="#060608"/>
<path d="M12.6959 29.2334H12.0874V29.8292H12.6959V29.2334Z" fill="white"/>
<path d="M13.3043 29.2334H12.6958V29.8292H13.3043V29.2334Z" fill="white"/>
<path d="M13.9127 29.2334H13.3042V29.8292H13.9127V29.2334Z" fill="white"/>
<path d="M14.5211 29.2334H13.9126V29.8292H14.5211V29.2334Z" fill="white"/>
<path d="M15.1302 29.2334H14.5217V29.8292H15.1302V29.2334Z" fill="white"/>
<path d="M15.7386 29.2334H15.1301V29.8292H15.7386V29.2334Z" fill="white"/>
<path d="M16.3477 29.2334H15.7393V29.8292H16.3477V29.2334Z" fill="#060608"/>
<path d="M27.9127 29.2334H27.3042V29.8292H27.9127V29.2334Z" fill="#060608"/>
<path d="M28.5211 29.2334H27.9126V29.8292H28.5211V29.2334Z" fill="#060608"/>
<path d="M29.1302 29.2334H28.5217V29.8292H29.1302V29.2334Z" fill="#060608"/>
<path d="M29.7388 29.2334H29.1304V29.8292H29.7388V29.2334Z" fill="#060608"/>
<path d="M12.087 29.8291H11.4785V30.4249H12.087V29.8291Z" fill="#060608"/>
<path d="M12.6959 29.8291H12.0874V30.4249H12.6959V29.8291Z" fill="white"/>
<path d="M13.3043 29.8291H12.6958V30.4249H13.3043V29.8291Z" fill="white"/>
<path d="M13.9127 29.8291H13.3042V30.4249H13.9127V29.8291Z" fill="white"/>
<path d="M14.5211 29.8291H13.9126V30.4249H14.5211V29.8291Z" fill="white"/>
<path d="M15.1302 29.8291H14.5217V30.4249H15.1302V29.8291Z" fill="white"/>
<path d="M15.7386 29.8291H15.1301V30.4249H15.7386V29.8291Z" fill="white"/>
<path d="M16.3477 29.8291H15.7393V30.4249H16.3477V29.8291Z" fill="#060608"/>
<path d="M12.6959 30.4248H12.0874V31.0206H12.6959V30.4248Z" fill="#060608"/>
<path d="M13.3043 30.4248H12.6958V31.0206H13.3043V30.4248Z" fill="white"/>
<path d="M13.9127 30.4248H13.3042V31.0206H13.9127V30.4248Z" fill="white"/>
<path d="M14.5211 30.4248H13.9126V31.0206H14.5211V30.4248Z" fill="white"/>
<path d="M15.1302 30.4248H14.5217V31.0206H15.1302V30.4248Z" fill="white"/>
<path d="M15.7386 30.4248H15.1301V31.0206H15.7386V30.4248Z" fill="white"/>
<path d="M16.3477 30.4248H15.7393V31.0206H16.3477V30.4248Z" fill="#C4C8D1"/>
<path d="M16.9561 30.4248H16.3477V31.0206H16.9561V30.4248Z" fill="#060608"/>
<path d="M17.565 30.4248H16.9565V31.0206H17.565V30.4248Z" fill="#060608"/>
<path d="M12.6959 31.021H12.0874V31.6168H12.6959V31.021Z" fill="#060608"/>
<path d="M13.3043 31.021H12.6958V31.6168H13.3043V31.021Z" fill="white"/>
<path d="M13.9127 31.021H13.3042V31.6168H13.9127V31.021Z" fill="white"/>
<path d="M14.5211 31.021H13.9126V31.6168H14.5211V31.021Z" fill="white"/>
<path d="M15.1302 31.021H14.5217V31.6168H15.1302V31.021Z" fill="white"/>
<path d="M15.7386 31.021H15.1301V31.6168H15.7386V31.021Z" fill="white"/>
<path d="M16.3477 31.021H15.7393V31.6168H16.3477V31.021Z" fill="white"/>
<path d="M16.9561 31.021H16.3477V31.6168H16.9561V31.021Z" fill="white"/>
<path d="M17.565 31.021H16.9565V31.6168H17.565V31.021Z" fill="#DAE2EA"/>
<path d="M18.1734 31.021H17.5649V31.6168H18.1734V31.021Z" fill="#060608"/>
<path d="M12.6959 31.6162H12.0874V32.212H12.6959V31.6162Z" fill="#060608"/>
<path d="M13.3043 31.6162H12.6958V32.212H13.3043V31.6162Z" fill="white"/>
<path d="M13.9127 31.6162H13.3042V32.212H13.9127V31.6162Z" fill="white"/>
<path d="M14.5211 31.6162H13.9126V32.212H14.5211V31.6162Z" fill="white"/>
<path d="M15.1302 31.6162H14.5217V32.212H15.1302V31.6162Z" fill="white"/>
<path d="M15.7386 31.6162H15.1301V32.212H15.7386V31.6162Z" fill="white"/>
<path d="M16.3477 31.6162H15.7393V32.212H16.3477V31.6162Z" fill="white"/>
<path d="M16.9561 31.6162H16.3477V32.212H16.9561V31.6162Z" fill="#DAE2EA"/>
<path d="M17.565 31.6162H16.9565V32.212H17.565V31.6162Z" fill="#C4C8D1"/>
<path d="M18.1734 31.6162H17.5649V32.212H18.1734V31.6162Z" fill="#060608"/>
<path d="M12.087 32.2129H11.4785V32.8087H12.087V32.2129Z" fill="#060608"/>
<path d="M12.6959 32.2129H12.0874V32.8087H12.6959V32.2129Z" fill="#C4C8D1"/>
<path d="M13.3043 32.2129H12.6958V32.8087H13.3043V32.2129Z" fill="#060608"/>
<path d="M13.9127 32.2129H13.3042V32.8087H13.9127V32.2129Z" fill="white"/>
<path d="M14.5211 32.2129H13.9126V32.8087H14.5211V32.2129Z" fill="white"/>
<path d="M15.1302 32.2129H14.5217V32.8087H15.1302V32.2129Z" fill="white"/>
<path d="M15.7386 32.2129H15.1301V32.8087H15.7386V32.2129Z" fill="#DAE2EA"/>
<path d="M16.3477 32.2129H15.7393V32.8087H16.3477V32.2129Z" fill="#DAE2EA"/>
<path d="M16.9561 32.2129H16.3477V32.8087H16.9561V32.2129Z" fill="#060608"/>
<path d="M17.565 32.2129H16.9565V32.8087H17.565V32.2129Z" fill="#060608"/>
<path d="M12.087 32.8081H11.4785V33.4039H12.087V32.8081Z" fill="#060608"/>
<path d="M12.6959 32.8081H12.0874V33.4039H12.6959V32.8081Z" fill="#C4C8D1"/>
<path d="M13.3043 32.8081H12.6958V33.4039H13.3043V32.8081Z" fill="#060608"/>
<path d="M13.9127 32.8081H13.3042V33.4039H13.9127V32.8081Z" fill="#DAE2EA"/>
<path d="M14.5211 32.8081H13.9126V33.4039H14.5211V32.8081Z" fill="#DAE2EA"/>
<path d="M15.1302 32.8081H14.5217V33.4039H15.1302V32.8081Z" fill="#060608"/>
<path d="M15.7386 32.8081H15.1301V33.4039H15.7386V32.8081Z" fill="#060608"/>
<path d="M16.3477 32.8081H15.7393V33.4039H16.3477V32.8081Z" fill="#060608"/>
<path d="M12.6959 33.4043H12.0874V34.0001H12.6959V33.4043Z" fill="#060608"/>
<path d="M13.3043 33.4043H12.6958V34.0001H13.3043V33.4043Z" fill="#060608"/>
<path d="M13.9127 33.4043H13.3042V34.0001H13.9127V33.4043Z" fill="#060608"/>
<path d="M14.5211 33.4043H13.9126V34.0001H14.5211V33.4043Z" fill="#060608"/>
</g>
</svg>
