<svg width="40" height="40" viewBox="0 0 40 40" fill="none" xmlns="http://www.w3.org/2000/svg">
<g filter="url(#filter0_ddd_3015_292998)">
<path d="M33.9997 21.0767H32.9229V22.1539H33.9997V21.0767Z" fill="black"/>
<path d="M33.9997 20H32.9229V21.0768H33.9997V20Z" fill="black"/>
<path d="M33.9997 18.9233H32.9229V20.0001H33.9997V18.9233Z" fill="black"/>
<path d="M33.9997 17.8462H32.9229V18.9234H33.9997V17.8462Z" fill="black"/>
<path d="M32.923 24.3076H31.8457V25.3849H32.923V24.3076Z" fill="black"/>
<path d="M32.923 23.231H31.8457V24.3077H32.923V23.231Z" fill="black"/>
<path d="M32.923 22.1538H31.8457V23.2306H32.923V22.1538Z" fill="black"/>
<path d="M32.923 21.0767H31.8457V22.1539H32.923V21.0767Z" fill="#74B65F"/>
<path d="M32.923 20H31.8457V21.0768H32.923V20Z" fill="#74B65F"/>
<path d="M32.923 18.9233H31.8457V20.0001H32.923V18.9233Z" fill="#74B65F"/>
<path d="M32.923 17.8462H31.8457V18.9234H32.923V17.8462Z" fill="#74B65F"/>
<path d="M32.923 16.769H31.8457V17.8458H32.923V16.769Z" fill="black"/>
<path d="M32.923 15.6924H31.8457V16.7696H32.923V15.6924Z" fill="black"/>
<path d="M32.923 14.6162H31.8457V15.693H32.923V14.6162Z" fill="black"/>
<path d="M31.8461 26.4614H30.7693V27.5387H31.8461V26.4614Z" fill="black"/>
<path d="M31.8461 25.3848H30.7693V26.4615H31.8461V25.3848Z" fill="black"/>
<path d="M31.8461 24.3076H30.7693V25.3849H31.8461V24.3076Z" fill="#68A350"/>
<path d="M31.8461 23.231H30.7693V24.3077H31.8461V23.231Z" fill="#74B65F"/>
<path d="M31.8461 22.1538H30.7693V23.2306H31.8461V22.1538Z" fill="#74B65F"/>
<path d="M31.8461 21.0767H30.7693V22.1539H31.8461V21.0767Z" fill="#74B65F"/>
<path d="M31.8461 20H30.7693V21.0768H31.8461V20Z" fill="#74B65F"/>
<path d="M31.8461 18.9233H30.7693V20.0001H31.8461V18.9233Z" fill="#74B65F"/>
<path d="M31.8461 17.8462H30.7693V18.9234H31.8461V17.8462Z" fill="#74B65F"/>
<path d="M31.8461 16.769H30.7693V17.8458H31.8461V16.769Z" fill="#74B65F"/>
<path d="M31.8461 15.6924H30.7693V16.7696H31.8461V15.6924Z" fill="#74B65F"/>
<path d="M31.8461 14.6162H30.7693V15.693H31.8461V14.6162Z" fill="#82C66A"/>
<path d="M31.8461 13.5391H30.7693V14.6158H31.8461V13.5391Z" fill="black"/>
<path d="M31.8461 12.4614H30.7693V13.5387H31.8461V12.4614Z" fill="black"/>
<path d="M30.7692 27.5391H29.6919V28.6158H30.7692V27.5391Z" fill="black"/>
<path d="M30.7692 26.4614H29.6919V27.5387H30.7692V26.4614Z" fill="#468430"/>
<path d="M30.7692 25.3848H29.6919V26.4615H30.7692V25.3848Z" fill="#68A350"/>
<path d="M30.7692 24.3076H29.6919V25.3849H30.7692V24.3076Z" fill="#74B65F"/>
<path d="M30.7692 23.231H29.6919V24.3077H30.7692V23.231Z" fill="#74B65F"/>
<path d="M30.7692 22.1538H29.6919V23.2306H30.7692V22.1538Z" fill="#74B65F"/>
<path d="M30.7692 21.0767H29.6919V22.1539H30.7692V21.0767Z" fill="#74B65F"/>
<path d="M30.7692 20H29.6919V21.0768H30.7692V20Z" fill="#74B65F"/>
<path d="M30.7692 18.9233H29.6919V20.0001H30.7692V18.9233Z" fill="#74B65F"/>
<path d="M30.7692 17.8462H29.6919V18.9234H30.7692V17.8462Z" fill="#74B65F"/>
<path d="M30.7692 16.769H29.6919V17.8458H30.7692V16.769Z" fill="#74B65F"/>
<path d="M30.7692 15.6924H29.6919V16.7696H30.7692V15.6924Z" fill="#74B65F"/>
<path d="M30.7692 14.6162H29.6919V15.693H30.7692V14.6162Z" fill="#74B65F"/>
<path d="M30.7692 13.5391H29.6919V14.6158H30.7692V13.5391Z" fill="#82C66A"/>
<path d="M30.7692 12.4614H29.6919V13.5387H30.7692V12.4614Z" fill="#84D366"/>
<path d="M30.7692 11.3848H29.6919V12.4615H30.7692V11.3848Z" fill="black"/>
<path d="M29.6921 28.6162H28.6152V29.693H29.6921V28.6162Z" fill="black"/>
<path d="M29.6921 27.5391H28.6152V28.6158H29.6921V27.5391Z" fill="#468430"/>
<path d="M29.6921 26.4614H28.6152V27.5387H29.6921V26.4614Z" fill="#68A350"/>
<path d="M29.6921 25.3848H28.6152V26.4615H29.6921V25.3848Z" fill="#74B65F"/>
<path d="M29.6921 24.3076H28.6152V25.3849H29.6921V24.3076Z" fill="#74B65F"/>
<path d="M29.6921 23.231H28.6152V24.3077H29.6921V23.231Z" fill="#74B65F"/>
<path d="M29.6921 22.1538H28.6152V23.2306H29.6921V22.1538Z" fill="#74B65F"/>
<path d="M29.6921 21.0767H28.6152V22.1539H29.6921V21.0767Z" fill="#74B65F"/>
<path d="M29.6921 20H28.6152V21.0768H29.6921V20Z" fill="#74B65F"/>
<path d="M29.6921 18.9233H28.6152V20.0001H29.6921V18.9233Z" fill="#74B65F"/>
<path d="M29.6921 17.8462H28.6152V18.9234H29.6921V17.8462Z" fill="#74B65F"/>
<path d="M29.6921 16.769H28.6152V17.8458H29.6921V16.769Z" fill="white"/>
<path d="M29.6921 15.6924H28.6152V16.7696H29.6921V15.6924Z" fill="#74B65F"/>
<path d="M29.6921 14.6162H28.6152V15.693H29.6921V14.6162Z" fill="#74B65F"/>
<path d="M29.6921 13.5391H28.6152V14.6158H29.6921V13.5391Z" fill="#74B65F"/>
<path d="M29.6921 12.4614H28.6152V13.5387H29.6921V12.4614Z" fill="#82C66A"/>
<path d="M29.6921 11.3848H28.6152V12.4615H29.6921V11.3848Z" fill="#84D366"/>
<path d="M29.6921 10.3076H28.6152V11.3849H29.6921V10.3076Z" fill="black"/>
<path d="M28.6149 29.6924H27.5381V30.7696H28.6149V29.6924Z" fill="black"/>
<path d="M28.6149 28.6162H27.5381V29.693H28.6149V28.6162Z" fill="#468430"/>
<path d="M28.6149 27.5391H27.5381V28.6158H28.6149V27.5391Z" fill="#68A350"/>
<path d="M28.6149 26.4614H27.5381V27.5387H28.6149V26.4614Z" fill="#74B65F"/>
<path d="M28.6149 25.3848H27.5381V26.4615H28.6149V25.3848Z" fill="#74B65F"/>
<path d="M28.6149 24.3076H27.5381V25.3849H28.6149V24.3076Z" fill="#74B65F"/>
<path d="M28.6149 23.231H27.5381V24.3077H28.6149V23.231Z" fill="#74B65F"/>
<path d="M28.6149 22.1538H27.5381V23.2306H28.6149V22.1538Z" fill="#74B65F"/>
<path d="M28.6149 21.0767H27.5381V22.1539H28.6149V21.0767Z" fill="#74B65F"/>
<path d="M28.6149 20H27.5381V21.0768H28.6149V20Z" fill="#74B65F"/>
<path d="M28.6149 18.9233H27.5381V20.0001H28.6149V18.9233Z" fill="#74B65F"/>
<path d="M28.6149 17.8462H27.5381V18.9234H28.6149V17.8462Z" fill="white"/>
<path d="M28.6149 16.769H27.5381V17.8458H28.6149V16.769Z" fill="white"/>
<path d="M28.6149 15.6924H27.5381V16.7696H28.6149V15.6924Z" fill="white"/>
<path d="M28.6149 14.6162H27.5381V15.693H28.6149V14.6162Z" fill="#74B65F"/>
<path d="M28.6149 13.5391H27.5381V14.6158H28.6149V13.5391Z" fill="#74B65F"/>
<path d="M28.6149 12.4614H27.5381V13.5387H28.6149V12.4614Z" fill="#74B65F"/>
<path d="M28.6149 11.3848H27.5381V12.4615H28.6149V11.3848Z" fill="#82C66A"/>
<path d="M28.6149 10.3076H27.5381V11.3849H28.6149V10.3076Z" fill="#84D366"/>
<path d="M28.6149 9.23096H27.5381V10.3077H28.6149V9.23096Z" fill="black"/>
<path d="M27.5387 30.7695H26.4614V31.8463H27.5387V30.7695Z" fill="black"/>
<path d="M27.5387 29.6924H26.4614V30.7696H27.5387V29.6924Z" fill="#468430"/>
<path d="M27.5387 28.6162H26.4614V29.693H27.5387V28.6162Z" fill="#68A350"/>
<path d="M27.5387 27.5391H26.4614V28.6158H27.5387V27.5391Z" fill="#74B65F"/>
<path d="M27.5387 26.4614H26.4614V27.5387H27.5387V26.4614Z" fill="#74B65F"/>
<path d="M27.5387 25.3848H26.4614V26.4615H27.5387V25.3848Z" fill="#74B65F"/>
<path d="M27.5387 24.3076H26.4614V25.3849H27.5387V24.3076Z" fill="#74B65F"/>
<path d="M27.5387 23.231H26.4614V24.3077H27.5387V23.231Z" fill="#74B65F"/>
<path d="M27.5387 22.1538H26.4614V23.2306H27.5387V22.1538Z" fill="#74B65F"/>
<path d="M27.5387 21.0767H26.4614V22.1539H27.5387V21.0767Z" fill="#74B65F"/>
<path d="M27.5387 20H26.4614V21.0768H27.5387V20Z" fill="#74B65F"/>
<path d="M27.5387 18.9233H26.4614V20.0001H27.5387V18.9233Z" fill="white"/>
<path d="M27.5387 17.8462H26.4614V18.9234H27.5387V17.8462Z" fill="white"/>
<path d="M27.5387 16.769H26.4614V17.8458H27.5387V16.769Z" fill="white"/>
<path d="M27.5387 15.6924H26.4614V16.7696H27.5387V15.6924Z" fill="white"/>
<path d="M27.5387 14.6162H26.4614V15.693H27.5387V14.6162Z" fill="white"/>
<path d="M27.5387 13.5391H26.4614V14.6158H27.5387V13.5391Z" fill="#74B65F"/>
<path d="M27.5387 12.4614H26.4614V13.5387H27.5387V12.4614Z" fill="#74B65F"/>
<path d="M27.5387 11.3848H26.4614V12.4615H27.5387V11.3848Z" fill="#74B65F"/>
<path d="M27.5387 10.3076H26.4614V11.3849H27.5387V10.3076Z" fill="#ABF48E"/>
<path d="M27.5387 9.23096H26.4614V10.3077H27.5387V9.23096Z" fill="#84D366"/>
<path d="M27.5387 8.15381H26.4614V9.23058H27.5387V8.15381Z" fill="black"/>
<path d="M26.4614 30.7695H25.3845V31.8463H26.4614V30.7695Z" fill="black"/>
<path d="M26.4614 29.6924H25.3845V30.7696H26.4614V29.6924Z" fill="#468430"/>
<path d="M26.4614 28.6162H25.3845V29.693H26.4614V28.6162Z" fill="#68A350"/>
<path d="M26.4614 27.5391H25.3845V28.6158H26.4614V27.5391Z" fill="#74B65F"/>
<path d="M26.4614 26.4614H25.3845V27.5387H26.4614V26.4614Z" fill="#74B65F"/>
<path d="M26.4614 25.3848H25.3845V26.4615H26.4614V25.3848Z" fill="#74B65F"/>
<path d="M26.4614 24.3076H25.3845V25.3849H26.4614V24.3076Z" fill="#74B65F"/>
<path d="M26.4614 23.231H25.3845V24.3077H26.4614V23.231Z" fill="#74B65F"/>
<path d="M26.4614 22.1538H25.3845V23.2306H26.4614V22.1538Z" fill="#74B65F"/>
<path d="M26.4614 21.0767H25.3845V22.1539H26.4614V21.0767Z" fill="#74B65F"/>
<path d="M26.4614 20H25.3845V21.0768H26.4614V20Z" fill="white"/>
<path d="M26.4614 18.9233H25.3845V20.0001H26.4614V18.9233Z" fill="white"/>
<path d="M26.4614 17.8462H25.3845V18.9234H26.4614V17.8462Z" fill="white"/>
<path d="M26.4614 16.769H25.3845V17.8458H26.4614V16.769Z" fill="white"/>
<path d="M26.4614 15.6924H25.3845V16.7696H26.4614V15.6924Z" fill="white"/>
<path d="M26.4614 14.6162H25.3845V15.693H26.4614V14.6162Z" fill="white"/>
<path d="M26.4614 13.5391H25.3845V14.6158H26.4614V13.5391Z" fill="white"/>
<path d="M26.4614 12.4614H25.3845V13.5387H26.4614V12.4614Z" fill="#74B65F"/>
<path d="M26.4614 11.3848H25.3845V12.4615H26.4614V11.3848Z" fill="#74B65F"/>
<path d="M26.4614 10.3076H25.3845V11.3849H26.4614V10.3076Z" fill="#CBFFB0"/>
<path d="M26.4614 9.23096H25.3845V10.3077H26.4614V9.23096Z" fill="#84D366"/>
<path d="M26.4614 8.15381H25.3845V9.23058H26.4614V8.15381Z" fill="black"/>
<path d="M25.3847 31.8462H24.3074V32.9234H25.3847V31.8462Z" fill="black"/>
<path d="M25.3847 30.7695H24.3074V31.8463H25.3847V30.7695Z" fill="#468430"/>
<path d="M25.3847 29.6924H24.3074V30.7696H25.3847V29.6924Z" fill="#68A350"/>
<path d="M25.3847 28.6162H24.3074V29.693H25.3847V28.6162Z" fill="#74B65F"/>
<path d="M25.3847 27.5391H24.3074V28.6158H25.3847V27.5391Z" fill="#74B65F"/>
<path d="M25.3847 26.4614H24.3074V27.5387H25.3847V26.4614Z" fill="#74B65F"/>
<path d="M25.3847 25.3848H24.3074V26.4615H25.3847V25.3848Z" fill="#74B65F"/>
<path d="M25.3847 24.3076H24.3074V25.3849H25.3847V24.3076Z" fill="#74B65F"/>
<path d="M25.3847 23.231H24.3074V24.3077H25.3847V23.231Z" fill="#74B65F"/>
<path d="M25.3847 22.1538H24.3074V23.2306H25.3847V22.1538Z" fill="#74B65F"/>
<path d="M25.3847 21.0767H24.3074V22.1539H25.3847V21.0767Z" fill="white"/>
<path d="M25.3847 20H24.3074V21.0768H25.3847V20Z" fill="white"/>
<path d="M25.3847 18.9233H24.3074V20.0001H25.3847V18.9233Z" fill="white"/>
<path d="M25.3847 17.8462H24.3074V18.9234H25.3847V17.8462Z" fill="white"/>
<path d="M25.3847 16.769H24.3074V17.8458H25.3847V16.769Z" fill="white"/>
<path d="M25.3847 15.6924H24.3074V16.7696H25.3847V15.6924Z" fill="white"/>
<path d="M25.3847 14.6162H24.3074V15.693H25.3847V14.6162Z" fill="white"/>
<path d="M25.3847 13.5391H24.3074V14.6158H25.3847V13.5391Z" fill="#74B65F"/>
<path d="M25.3847 12.4614H24.3074V13.5387H25.3847V12.4614Z" fill="#74B65F"/>
<path d="M25.3847 11.3848H24.3074V12.4615H25.3847V11.3848Z" fill="#74B65F"/>
<path d="M25.3847 10.3076H24.3074V11.3849H25.3847V10.3076Z" fill="#74B65F"/>
<path d="M25.3847 9.23096H24.3074V10.3077H25.3847V9.23096Z" fill="#ABF48E"/>
<path d="M25.3847 8.15381H24.3074V9.23058H25.3847V8.15381Z" fill="#84D366"/>
<path d="M25.3847 7.07666H24.3074V8.15391H25.3847V7.07666Z" fill="black"/>
<path d="M24.3073 31.8462H23.2305V32.9234H24.3073V31.8462Z" fill="black"/>
<path d="M24.3073 30.7695H23.2305V31.8463H24.3073V30.7695Z" fill="#468430"/>
<path d="M24.3073 29.6924H23.2305V30.7696H24.3073V29.6924Z" fill="#68A350"/>
<path d="M24.3073 28.6162H23.2305V29.693H24.3073V28.6162Z" fill="#74B65F"/>
<path d="M24.3073 27.5391H23.2305V28.6158H24.3073V27.5391Z" fill="#74B65F"/>
<path d="M24.3073 26.4614H23.2305V27.5387H24.3073V26.4614Z" fill="#74B65F"/>
<path d="M24.3073 25.3848H23.2305V26.4615H24.3073V25.3848Z" fill="#74B65F"/>
<path d="M24.3073 24.3076H23.2305V25.3849H24.3073V24.3076Z" fill="#74B65F"/>
<path d="M24.3073 23.231H23.2305V24.3077H24.3073V23.231Z" fill="#74B65F"/>
<path d="M24.3073 22.1538H23.2305V23.2306H24.3073V22.1538Z" fill="white"/>
<path d="M24.3073 21.0767H23.2305V22.1539H24.3073V21.0767Z" fill="white"/>
<path d="M24.3073 20H23.2305V21.0768H24.3073V20Z" fill="white"/>
<path d="M24.3073 18.9233H23.2305V20.0001H24.3073V18.9233Z" fill="white"/>
<path d="M24.3073 17.8462H23.2305V18.9234H24.3073V17.8462Z" fill="white"/>
<path d="M24.3073 16.769H23.2305V17.8458H24.3073V16.769Z" fill="white"/>
<path d="M24.3073 15.6924H23.2305V16.7696H24.3073V15.6924Z" fill="white"/>
<path d="M24.3073 14.6162H23.2305V15.693H24.3073V14.6162Z" fill="#74B65F"/>
<path d="M24.3073 13.5391H23.2305V14.6158H24.3073V13.5391Z" fill="#74B65F"/>
<path d="M24.3073 12.4614H23.2305V13.5387H24.3073V12.4614Z" fill="#74B65F"/>
<path d="M24.3073 11.3848H23.2305V12.4615H24.3073V11.3848Z" fill="#74B65F"/>
<path d="M24.3073 10.3076H23.2305V11.3849H24.3073V10.3076Z" fill="#74B65F"/>
<path d="M24.3073 9.23096H23.2305V10.3077H24.3073V9.23096Z" fill="#CBFFB0"/>
<path d="M24.3073 8.15381H23.2305V9.23058H24.3073V8.15381Z" fill="#84D366"/>
<path d="M24.3073 7.07666H23.2305V8.15391H24.3073V7.07666Z" fill="black"/>
<path d="M23.2304 31.8462H22.1536V32.9234H23.2304V31.8462Z" fill="black"/>
<path d="M23.2304 30.7695H22.1536V31.8463H23.2304V30.7695Z" fill="#468430"/>
<path d="M23.2304 29.6924H22.1536V30.7696H23.2304V29.6924Z" fill="#68A350"/>
<path d="M23.2304 28.6162H22.1536V29.693H23.2304V28.6162Z" fill="#74B65F"/>
<path d="M23.2304 27.5391H22.1536V28.6158H23.2304V27.5391Z" fill="#74B65F"/>
<path d="M23.2304 26.4614H22.1536V27.5387H23.2304V26.4614Z" fill="#74B65F"/>
<path d="M23.2304 25.3848H22.1536V26.4615H23.2304V25.3848Z" fill="#74B65F"/>
<path d="M23.2304 24.3076H22.1536V25.3849H23.2304V24.3076Z" fill="#74B65F"/>
<path d="M23.2304 23.231H22.1536V24.3077H23.2304V23.231Z" fill="white"/>
<path d="M23.2304 22.1538H22.1536V23.2306H23.2304V22.1538Z" fill="white"/>
<path d="M23.2304 21.0767H22.1536V22.1539H23.2304V21.0767Z" fill="white"/>
<path d="M23.2304 20H22.1536V21.0768H23.2304V20Z" fill="white"/>
<path d="M23.2304 18.9233H22.1536V20.0001H23.2304V18.9233Z" fill="white"/>
<path d="M23.2304 17.8462H22.1536V18.9234H23.2304V17.8462Z" fill="white"/>
<path d="M23.2304 16.769H22.1536V17.8458H23.2304V16.769Z" fill="white"/>
<path d="M23.2304 15.6924H22.1536V16.7696H23.2304V15.6924Z" fill="#74B65F"/>
<path d="M23.2304 14.6162H22.1536V15.693H23.2304V14.6162Z" fill="#74B65F"/>
<path d="M23.2304 13.5391H22.1536V14.6158H23.2304V13.5391Z" fill="#74B65F"/>
<path d="M23.2304 12.4614H22.1536V13.5387H23.2304V12.4614Z" fill="#74B65F"/>
<path d="M23.2304 11.3848H22.1536V12.4615H23.2304V11.3848Z" fill="#74B65F"/>
<path d="M23.2304 10.3076H22.1536V11.3849H23.2304V10.3076Z" fill="#74B65F"/>
<path d="M23.2304 9.23096H22.1536V10.3077H23.2304V9.23096Z" fill="#ABF48E"/>
<path d="M23.2304 8.15381H22.1536V9.23058H23.2304V8.15381Z" fill="#84D366"/>
<path d="M23.2304 7.07666H22.1536V8.15391H23.2304V7.07666Z" fill="black"/>
<path d="M22.154 32.9233H21.0767V34.0001H22.154V32.9233Z" fill="black"/>
<path d="M22.154 31.8462H21.0767V32.9234H22.154V31.8462Z" fill="#468430"/>
<path d="M22.154 30.7695H21.0767V31.8463H22.154V30.7695Z" fill="#68A350"/>
<path d="M22.154 29.6924H21.0767V30.7696H22.154V29.6924Z" fill="#74B65F"/>
<path d="M22.154 28.6162H21.0767V29.693H22.154V28.6162Z" fill="#74B65F"/>
<path d="M22.154 27.5391H21.0767V28.6158H22.154V27.5391Z" fill="#74B65F"/>
<path d="M22.154 26.4614H21.0767V27.5387H22.154V26.4614Z" fill="#74B65F"/>
<path d="M22.154 25.3848H21.0767V26.4615H22.154V25.3848Z" fill="#74B65F"/>
<path d="M22.154 24.3076H21.0767V25.3849H22.154V24.3076Z" fill="white"/>
<path d="M22.154 23.231H21.0767V24.3077H22.154V23.231Z" fill="white"/>
<path d="M22.154 22.1538H21.0767V23.2306H22.154V22.1538Z" fill="white"/>
<path d="M22.154 21.0767H21.0767V22.1539H22.154V21.0767Z" fill="white"/>
<path d="M22.154 20H21.0767V21.0768H22.154V20Z" fill="white"/>
<path d="M22.154 18.9233H21.0767V20.0001H22.154V18.9233Z" fill="white"/>
<path d="M22.154 17.8462H21.0767V18.9234H22.154V17.8462Z" fill="white"/>
<path d="M22.154 16.769H21.0767V17.8458H22.154V16.769Z" fill="#74B65F"/>
<path d="M22.154 15.6924H21.0767V16.7696H22.154V15.6924Z" fill="#74B65F"/>
<path d="M22.154 14.6162H21.0767V15.693H22.154V14.6162Z" fill="#74B65F"/>
<path d="M22.154 13.5391H21.0767V14.6158H22.154V13.5391Z" fill="#74B65F"/>
<path d="M22.154 12.4614H21.0767V13.5387H22.154V12.4614Z" fill="#74B65F"/>
<path d="M22.154 11.3848H21.0767V12.4615H22.154V11.3848Z" fill="#74B65F"/>
<path d="M22.154 10.3076H21.0767V11.3849H22.154V10.3076Z" fill="#74B65F"/>
<path d="M22.154 9.23096H21.0767V10.3077H22.154V9.23096Z" fill="#82C66A"/>
<path d="M22.154 8.15381H21.0767V9.23058H22.154V8.15381Z" fill="#ABF48E"/>
<path d="M22.154 7.07666H21.0767V8.15391H22.154V7.07666Z" fill="#84D366"/>
<path d="M22.154 6H21.0767V7.07678H22.154V6Z" fill="black"/>
<path d="M21.0766 32.9233H19.9998V34.0001H21.0766V32.9233Z" fill="black"/>
<path d="M21.0766 31.8462H19.9998V32.9234H21.0766V31.8462Z" fill="#468430"/>
<path d="M21.0766 30.7695H19.9998V31.8463H21.0766V30.7695Z" fill="#68A350"/>
<path d="M21.0766 29.6924H19.9998V30.7696H21.0766V29.6924Z" fill="#74B65F"/>
<path d="M21.0766 28.6162H19.9998V29.693H21.0766V28.6162Z" fill="#74B65F"/>
<path d="M21.0766 27.5391H19.9998V28.6158H21.0766V27.5391Z" fill="#74B65F"/>
<path d="M21.0766 26.4614H19.9998V27.5387H21.0766V26.4614Z" fill="#74B65F"/>
<path d="M21.0766 25.3848H19.9998V26.4615H21.0766V25.3848Z" fill="white"/>
<path d="M21.0766 24.3076H19.9998V25.3849H21.0766V24.3076Z" fill="white"/>
<path d="M21.0766 23.231H19.9998V24.3077H21.0766V23.231Z" fill="white"/>
<path d="M21.0766 22.1538H19.9998V23.2306H21.0766V22.1538Z" fill="white"/>
<path d="M21.0766 21.0767H19.9998V22.1539H21.0766V21.0767Z" fill="white"/>
<path d="M21.0766 20H19.9998V21.0768H21.0766V20Z" fill="white"/>
<path d="M21.0766 18.9233H19.9998V20.0001H21.0766V18.9233Z" fill="white"/>
<path d="M21.0766 17.8462H19.9998V18.9234H21.0766V17.8462Z" fill="#74B65F"/>
<path d="M21.0766 16.769H19.9998V17.8458H21.0766V16.769Z" fill="#74B65F"/>
<path d="M21.0766 15.6924H19.9998V16.7696H21.0766V15.6924Z" fill="#74B65F"/>
<path d="M21.0766 14.6162H19.9998V15.693H21.0766V14.6162Z" fill="#74B65F"/>
<path d="M21.0766 13.5391H19.9998V14.6158H21.0766V13.5391Z" fill="#74B65F"/>
<path d="M21.0766 12.4614H19.9998V13.5387H21.0766V12.4614Z" fill="#74B65F"/>
<path d="M21.0766 11.3848H19.9998V12.4615H21.0766V11.3848Z" fill="#74B65F"/>
<path d="M21.0766 10.3076H19.9998V11.3849H21.0766V10.3076Z" fill="#74B65F"/>
<path d="M21.0766 9.23096H19.9998V10.3077H21.0766V9.23096Z" fill="#82C66A"/>
<path d="M21.0766 8.15381H19.9998V9.23058H21.0766V8.15381Z" fill="#ABF48E"/>
<path d="M21.0766 7.07666H19.9998V8.15391H21.0766V7.07666Z" fill="#84D366"/>
<path d="M21.0766 6H19.9998V7.07678H21.0766V6Z" fill="black"/>
<path d="M20.0004 32.9233H18.9231V34.0001H20.0004V32.9233Z" fill="black"/>
<path d="M20.0004 31.8462H18.9231V32.9234H20.0004V31.8462Z" fill="#468430"/>
<path d="M20.0004 30.7695H18.9231V31.8463H20.0004V30.7695Z" fill="#68A350"/>
<path d="M20.0004 29.6924H18.9231V30.7696H20.0004V29.6924Z" fill="#74B65F"/>
<path d="M20.0004 28.6162H18.9231V29.693H20.0004V28.6162Z" fill="#74B65F"/>
<path d="M20.0004 27.5391H18.9231V28.6158H20.0004V27.5391Z" fill="#74B65F"/>
<path d="M20.0004 26.4614H18.9231V27.5387H20.0004V26.4614Z" fill="white"/>
<path d="M20.0004 25.3848H18.9231V26.4615H20.0004V25.3848Z" fill="white"/>
<path d="M20.0004 24.3076H18.9231V25.3849H20.0004V24.3076Z" fill="white"/>
<path d="M20.0004 23.231H18.9231V24.3077H20.0004V23.231Z" fill="white"/>
<path d="M20.0004 22.1538H18.9231V23.2306H20.0004V22.1538Z" fill="white"/>
<path d="M20.0004 21.0767H18.9231V22.1539H20.0004V21.0767Z" fill="white"/>
<path d="M20.0004 20H18.9231V21.0768H20.0004V20Z" fill="white"/>
<path d="M20.0004 18.9233H18.9231V20.0001H20.0004V18.9233Z" fill="#74B65F"/>
<path d="M20.0004 17.8462H18.9231V18.9234H20.0004V17.8462Z" fill="#74B65F"/>
<path d="M20.0004 16.769H18.9231V17.8458H20.0004V16.769Z" fill="#74B65F"/>
<path d="M20.0004 15.6924H18.9231V16.7696H20.0004V15.6924Z" fill="#74B65F"/>
<path d="M20.0004 14.6162H18.9231V15.693H20.0004V14.6162Z" fill="#74B65F"/>
<path d="M20.0004 13.5391H18.9231V14.6158H20.0004V13.5391Z" fill="#74B65F"/>
<path d="M20.0004 12.4614H18.9231V13.5387H20.0004V12.4614Z" fill="#74B65F"/>
<path d="M20.0004 11.3848H18.9231V12.4615H20.0004V11.3848Z" fill="#74B65F"/>
<path d="M20.0004 10.3076H18.9231V11.3849H20.0004V10.3076Z" fill="#74B65F"/>
<path d="M20.0004 9.23096H18.9231V10.3077H20.0004V9.23096Z" fill="#82C66A"/>
<path d="M20.0004 8.15381H18.9231V9.23058H20.0004V8.15381Z" fill="#CBFFB0"/>
<path d="M20.0004 7.07666H18.9231V8.15391H20.0004V7.07666Z" fill="#84D366"/>
<path d="M20.0004 6H18.9231V7.07678H20.0004V6Z" fill="black"/>
<path d="M18.923 32.9233H17.8462V34.0001H18.923V32.9233Z" fill="black"/>
<path d="M18.923 31.8462H17.8462V32.9234H18.923V31.8462Z" fill="#468430"/>
<path d="M18.923 30.7695H17.8462V31.8463H18.923V30.7695Z" fill="#68A350"/>
<path d="M18.923 29.6924H17.8462V30.7696H18.923V29.6924Z" fill="#74B65F"/>
<path d="M18.923 28.6162H17.8462V29.693H18.923V28.6162Z" fill="#74B65F"/>
<path d="M18.923 27.5391H17.8462V28.6158H18.923V27.5391Z" fill="#74B65F"/>
<path d="M18.923 26.4614H17.8462V27.5387H18.923V26.4614Z" fill="#74B65F"/>
<path d="M18.923 25.3848H17.8462V26.4615H18.923V25.3848Z" fill="white"/>
<path d="M18.923 24.3076H17.8462V25.3849H18.923V24.3076Z" fill="white"/>
<path d="M18.923 23.231H17.8462V24.3077H18.923V23.231Z" fill="white"/>
<path d="M18.923 22.1538H17.8462V23.2306H18.923V22.1538Z" fill="white"/>
<path d="M18.923 21.0767H17.8462V22.1539H18.923V21.0767Z" fill="white"/>
<path d="M18.923 20H17.8462V21.0768H18.923V20Z" fill="white"/>
<path d="M18.923 18.9233H17.8462V20.0001H18.923V18.9233Z" fill="white"/>
<path d="M18.923 17.8462H17.8462V18.9234H18.923V17.8462Z" fill="#74B65F"/>
<path d="M18.923 16.769H17.8462V17.8458H18.923V16.769Z" fill="#74B65F"/>
<path d="M18.923 15.6924H17.8462V16.7696H18.923V15.6924Z" fill="#74B65F"/>
<path d="M18.923 14.6162H17.8462V15.693H18.923V14.6162Z" fill="#74B65F"/>
<path d="M18.923 13.5391H17.8462V14.6158H18.923V13.5391Z" fill="#74B65F"/>
<path d="M18.923 12.4614H17.8462V13.5387H18.923V12.4614Z" fill="#74B65F"/>
<path d="M18.923 11.3848H17.8462V12.4615H18.923V11.3848Z" fill="#74B65F"/>
<path d="M18.923 10.3076H17.8462V11.3849H18.923V10.3076Z" fill="#74B65F"/>
<path d="M18.923 9.23096H17.8462V10.3077H18.923V9.23096Z" fill="#82C66A"/>
<path d="M18.923 8.15381H17.8462V9.23058H18.923V8.15381Z" fill="#CBFFB0"/>
<path d="M18.923 7.07666H17.8462V8.15391H18.923V7.07666Z" fill="#84D366"/>
<path d="M18.923 6H17.8462V7.07678H18.923V6Z" fill="black"/>
<path d="M17.8457 31.8462H16.7688V32.9234H17.8457V31.8462Z" fill="black"/>
<path d="M17.8457 30.7695H16.7688V31.8463H17.8457V30.7695Z" fill="#468430"/>
<path d="M17.8457 29.6924H16.7688V30.7696H17.8457V29.6924Z" fill="#68A350"/>
<path d="M17.8457 28.6162H16.7688V29.693H17.8457V28.6162Z" fill="#74B65F"/>
<path d="M17.8457 27.5391H16.7688V28.6158H17.8457V27.5391Z" fill="#74B65F"/>
<path d="M17.8457 26.4614H16.7688V27.5387H17.8457V26.4614Z" fill="#74B65F"/>
<path d="M17.8457 25.3848H16.7688V26.4615H17.8457V25.3848Z" fill="#74B65F"/>
<path d="M17.8457 24.3076H16.7688V25.3849H17.8457V24.3076Z" fill="white"/>
<path d="M17.8457 23.231H16.7688V24.3077H17.8457V23.231Z" fill="white"/>
<path d="M17.8457 22.1538H16.7688V23.2306H17.8457V22.1538Z" fill="white"/>
<path d="M17.8457 21.0767H16.7688V22.1539H17.8457V21.0767Z" fill="white"/>
<path d="M17.8457 20H16.7688V21.0768H17.8457V20Z" fill="white"/>
<path d="M17.8457 18.9233H16.7688V20.0001H17.8457V18.9233Z" fill="white"/>
<path d="M17.8457 17.8462H16.7688V18.9234H17.8457V17.8462Z" fill="white"/>
<path d="M17.8457 16.769H16.7688V17.8458H17.8457V16.769Z" fill="#74B65F"/>
<path d="M17.8457 15.6924H16.7688V16.7696H17.8457V15.6924Z" fill="#74B65F"/>
<path d="M17.8457 14.6162H16.7688V15.693H17.8457V14.6162Z" fill="#74B65F"/>
<path d="M17.8457 13.5391H16.7688V14.6158H17.8457V13.5391Z" fill="#74B65F"/>
<path d="M17.8457 12.4614H16.7688V13.5387H17.8457V12.4614Z" fill="#74B65F"/>
<path d="M17.8457 11.3848H16.7688V12.4615H17.8457V11.3848Z" fill="#74B65F"/>
<path d="M17.8457 10.3076H16.7688V11.3849H17.8457V10.3076Z" fill="#74B65F"/>
<path d="M17.8457 9.23096H16.7688V10.3077H17.8457V9.23096Z" fill="#ABF48E"/>
<path d="M17.8457 8.15381H16.7688V9.23058H17.8457V8.15381Z" fill="#84D366"/>
<path d="M17.8457 7.07666H16.7688V8.15391H17.8457V7.07666Z" fill="black"/>
<path d="M16.7694 31.8462H15.6921V32.9234H16.7694V31.8462Z" fill="black"/>
<path d="M16.7694 30.7695H15.6921V31.8463H16.7694V30.7695Z" fill="#468430"/>
<path d="M16.7694 29.6924H15.6921V30.7696H16.7694V29.6924Z" fill="#68A350"/>
<path d="M16.7694 28.6162H15.6921V29.693H16.7694V28.6162Z" fill="#74B65F"/>
<path d="M16.7694 27.5391H15.6921V28.6158H16.7694V27.5391Z" fill="#74B65F"/>
<path d="M16.7694 26.4614H15.6921V27.5387H16.7694V26.4614Z" fill="#74B65F"/>
<path d="M16.7694 25.3848H15.6921V26.4615H16.7694V25.3848Z" fill="#74B65F"/>
<path d="M16.7694 24.3076H15.6921V25.3849H16.7694V24.3076Z" fill="#74B65F"/>
<path d="M16.7694 23.231H15.6921V24.3077H16.7694V23.231Z" fill="white"/>
<path d="M16.7694 22.1538H15.6921V23.2306H16.7694V22.1538Z" fill="white"/>
<path d="M16.7694 21.0767H15.6921V22.1539H16.7694V21.0767Z" fill="white"/>
<path d="M16.7694 20H15.6921V21.0768H16.7694V20Z" fill="white"/>
<path d="M16.7694 18.9233H15.6921V20.0001H16.7694V18.9233Z" fill="white"/>
<path d="M16.7694 17.8462H15.6921V18.9234H16.7694V17.8462Z" fill="white"/>
<path d="M16.7694 16.769H15.6921V17.8458H16.7694V16.769Z" fill="white"/>
<path d="M16.7694 15.6924H15.6921V16.7696H16.7694V15.6924Z" fill="#74B65F"/>
<path d="M16.7694 14.6162H15.6921V15.693H16.7694V14.6162Z" fill="#74B65F"/>
<path d="M16.7694 13.5391H15.6921V14.6158H16.7694V13.5391Z" fill="#74B65F"/>
<path d="M16.7694 12.4614H15.6921V13.5387H16.7694V12.4614Z" fill="#74B65F"/>
<path d="M16.7694 11.3848H15.6921V12.4615H16.7694V11.3848Z" fill="#74B65F"/>
<path d="M16.7694 10.3076H15.6921V11.3849H16.7694V10.3076Z" fill="#74B65F"/>
<path d="M16.7694 9.23096H15.6921V10.3077H16.7694V9.23096Z" fill="#CBFFB0"/>
<path d="M16.7694 8.15381H15.6921V9.23058H16.7694V8.15381Z" fill="#84D366"/>
<path d="M16.7694 7.07666H15.6921V8.15391H16.7694V7.07666Z" fill="black"/>
<path d="M15.6918 31.8462H14.615V32.9234H15.6918V31.8462Z" fill="black"/>
<path d="M15.6918 30.7695H14.615V31.8463H15.6918V30.7695Z" fill="#468430"/>
<path d="M15.6918 29.6924H14.615V30.7696H15.6918V29.6924Z" fill="#68A350"/>
<path d="M15.6918 28.6162H14.615V29.693H15.6918V28.6162Z" fill="#74B65F"/>
<path d="M15.6918 27.5391H14.615V28.6158H15.6918V27.5391Z" fill="#74B65F"/>
<path d="M15.6918 26.4614H14.615V27.5387H15.6918V26.4614Z" fill="#74B65F"/>
<path d="M15.6918 25.3848H14.615V26.4615H15.6918V25.3848Z" fill="#74B65F"/>
<path d="M15.6918 24.3076H14.615V25.3849H15.6918V24.3076Z" fill="#74B65F"/>
<path d="M15.6918 23.231H14.615V24.3077H15.6918V23.231Z" fill="#74B65F"/>
<path d="M15.6918 22.1538H14.615V23.2306H15.6918V22.1538Z" fill="white"/>
<path d="M15.6918 21.0767H14.615V22.1539H15.6918V21.0767Z" fill="white"/>
<path d="M15.6918 20H14.615V21.0768H15.6918V20Z" fill="white"/>
<path d="M15.6918 18.9233H14.615V20.0001H15.6918V18.9233Z" fill="white"/>
<path d="M15.6918 17.8462H14.615V18.9234H15.6918V17.8462Z" fill="white"/>
<path d="M15.6918 16.769H14.615V17.8458H15.6918V16.769Z" fill="#74B65F"/>
<path d="M15.6918 15.6924H14.615V16.7696H15.6918V15.6924Z" fill="#74B65F"/>
<path d="M15.6918 14.6162H14.615V15.693H15.6918V14.6162Z" fill="#74B65F"/>
<path d="M15.6918 13.5391H14.615V14.6158H15.6918V13.5391Z" fill="#74B65F"/>
<path d="M15.6918 12.4614H14.615V13.5387H15.6918V12.4614Z" fill="#74B65F"/>
<path d="M15.6918 11.3848H14.615V12.4615H15.6918V11.3848Z" fill="#74B65F"/>
<path d="M15.6918 10.3076H14.615V11.3849H15.6918V10.3076Z" fill="#74B65F"/>
<path d="M15.6918 9.23096H14.615V10.3077H15.6918V9.23096Z" fill="#CBFFB0"/>
<path d="M15.6918 8.15381H14.615V9.23058H15.6918V8.15381Z" fill="#84D366"/>
<path d="M15.6918 7.07666H14.615V8.15391H15.6918V7.07666Z" fill="black"/>
<path d="M14.6156 30.7695H13.5383V31.8463H14.6156V30.7695Z" fill="black"/>
<path d="M14.6156 29.6924H13.5383V30.7696H14.6156V29.6924Z" fill="#468430"/>
<path d="M14.6156 28.6162H13.5383V29.693H14.6156V28.6162Z" fill="#68A350"/>
<path d="M14.6156 27.5391H13.5383V28.6158H14.6156V27.5391Z" fill="#74B65F"/>
<path d="M14.6156 26.4614H13.5383V27.5387H14.6156V26.4614Z" fill="#74B65F"/>
<path d="M14.6156 25.3848H13.5383V26.4615H14.6156V25.3848Z" fill="#74B65F"/>
<path d="M14.6156 24.3076H13.5383V25.3849H14.6156V24.3076Z" fill="#74B65F"/>
<path d="M14.6156 23.231H13.5383V24.3077H14.6156V23.231Z" fill="#74B65F"/>
<path d="M14.6156 22.1538H13.5383V23.2306H14.6156V22.1538Z" fill="#74B65F"/>
<path d="M14.6156 21.0767H13.5383V22.1539H14.6156V21.0767Z" fill="white"/>
<path d="M14.6156 20H13.5383V21.0768H14.6156V20Z" fill="white"/>
<path d="M14.6156 18.9233H13.5383V20.0001H14.6156V18.9233Z" fill="white"/>
<path d="M14.6156 17.8462H13.5383V18.9234H14.6156V17.8462Z" fill="#74B65F"/>
<path d="M14.6156 16.769H13.5383V17.8458H14.6156V16.769Z" fill="#74B65F"/>
<path d="M14.6156 15.6924H13.5383V16.7696H14.6156V15.6924Z" fill="#74B65F"/>
<path d="M14.6156 14.6162H13.5383V15.693H14.6156V14.6162Z" fill="#74B65F"/>
<path d="M14.6156 13.5391H13.5383V14.6158H14.6156V13.5391Z" fill="#74B65F"/>
<path d="M14.6156 12.4614H13.5383V13.5387H14.6156V12.4614Z" fill="#74B65F"/>
<path d="M14.6156 11.3848H13.5383V12.4615H14.6156V11.3848Z" fill="#74B65F"/>
<path d="M14.6156 10.3076H13.5383V11.3849H14.6156V10.3076Z" fill="#ABF48E"/>
<path d="M14.6156 9.23096H13.5383V10.3077H14.6156V9.23096Z" fill="#84D366"/>
<path d="M14.6156 8.15381H13.5383V9.23058H14.6156V8.15381Z" fill="black"/>
<path d="M13.5383 30.7695H12.4614V31.8463H13.5383V30.7695Z" fill="black"/>
<path d="M13.5383 29.6924H12.4614V30.7696H13.5383V29.6924Z" fill="#468430"/>
<path d="M13.5383 28.6162H12.4614V29.693H13.5383V28.6162Z" fill="#68A350"/>
<path d="M13.5383 27.5391H12.4614V28.6158H13.5383V27.5391Z" fill="#74B65F"/>
<path d="M13.5383 26.4614H12.4614V27.5387H13.5383V26.4614Z" fill="#74B65F"/>
<path d="M13.5383 25.3848H12.4614V26.4615H13.5383V25.3848Z" fill="#74B65F"/>
<path d="M13.5383 24.3076H12.4614V25.3849H13.5383V24.3076Z" fill="#74B65F"/>
<path d="M13.5383 23.231H12.4614V24.3077H13.5383V23.231Z" fill="#74B65F"/>
<path d="M13.5383 22.1538H12.4614V23.2306H13.5383V22.1538Z" fill="#74B65F"/>
<path d="M13.5383 21.0767H12.4614V22.1539H13.5383V21.0767Z" fill="#74B65F"/>
<path d="M13.5383 20H12.4614V21.0768H13.5383V20Z" fill="white"/>
<path d="M13.5383 18.9233H12.4614V20.0001H13.5383V18.9233Z" fill="#74B65F"/>
<path d="M13.5383 17.8462H12.4614V18.9234H13.5383V17.8462Z" fill="#74B65F"/>
<path d="M13.5383 16.769H12.4614V17.8458H13.5383V16.769Z" fill="#74B65F"/>
<path d="M13.5383 15.6924H12.4614V16.7696H13.5383V15.6924Z" fill="#74B65F"/>
<path d="M13.5383 14.6162H12.4614V15.693H13.5383V14.6162Z" fill="#74B65F"/>
<path d="M13.5383 13.5391H12.4614V14.6158H13.5383V13.5391Z" fill="#74B65F"/>
<path d="M13.5383 12.4614H12.4614V13.5387H13.5383V12.4614Z" fill="#74B65F"/>
<path d="M13.5383 11.3848H12.4614V12.4615H13.5383V11.3848Z" fill="#74B65F"/>
<path d="M13.5383 10.3076H12.4614V11.3849H13.5383V10.3076Z" fill="#CBFFB0"/>
<path d="M13.5383 9.23096H12.4614V10.3077H13.5383V9.23096Z" fill="#84D366"/>
<path d="M13.5383 8.15381H12.4614V9.23058H13.5383V8.15381Z" fill="black"/>
<path d="M12.4614 29.6924H11.3845V30.7696H12.4614V29.6924Z" fill="black"/>
<path d="M12.4614 28.6162H11.3845V29.693H12.4614V28.6162Z" fill="#468430"/>
<path d="M12.4614 27.5391H11.3845V28.6158H12.4614V27.5391Z" fill="#68A350"/>
<path d="M12.4614 26.4614H11.3845V27.5387H12.4614V26.4614Z" fill="#74B65F"/>
<path d="M12.4614 25.3848H11.3845V26.4615H12.4614V25.3848Z" fill="#74B65F"/>
<path d="M12.4614 24.3076H11.3845V25.3849H12.4614V24.3076Z" fill="#74B65F"/>
<path d="M12.4614 23.231H11.3845V24.3077H12.4614V23.231Z" fill="#74B65F"/>
<path d="M12.4614 22.1538H11.3845V23.2306H12.4614V22.1538Z" fill="#74B65F"/>
<path d="M12.4614 21.0767H11.3845V22.1539H12.4614V21.0767Z" fill="#74B65F"/>
<path d="M12.4614 20H11.3845V21.0768H12.4614V20Z" fill="#74B65F"/>
<path d="M12.4614 18.9233H11.3845V20.0001H12.4614V18.9233Z" fill="#74B65F"/>
<path d="M12.4614 17.8462H11.3845V18.9234H12.4614V17.8462Z" fill="#74B65F"/>
<path d="M12.4614 16.769H11.3845V17.8458H12.4614V16.769Z" fill="#74B65F"/>
<path d="M12.4614 15.6924H11.3845V16.7696H12.4614V15.6924Z" fill="#74B65F"/>
<path d="M12.4614 14.6162H11.3845V15.693H12.4614V14.6162Z" fill="#74B65F"/>
<path d="M12.4614 13.5391H11.3845V14.6158H12.4614V13.5391Z" fill="#74B65F"/>
<path d="M12.4614 12.4614H11.3845V13.5387H12.4614V12.4614Z" fill="#74B65F"/>
<path d="M12.4614 11.3848H11.3845V12.4615H12.4614V11.3848Z" fill="#82C66A"/>
<path d="M12.4614 10.3076H11.3845V11.3849H12.4614V10.3076Z" fill="#84D366"/>
<path d="M12.4614 9.23096H11.3845V10.3077H12.4614V9.23096Z" fill="black"/>
<path d="M11.3847 28.6162H10.3074V29.693H11.3847V28.6162Z" fill="black"/>
<path d="M11.3847 27.5391H10.3074V28.6158H11.3847V27.5391Z" fill="#468430"/>
<path d="M11.3847 26.4614H10.3074V27.5387H11.3847V26.4614Z" fill="#68A350"/>
<path d="M11.3847 25.3848H10.3074V26.4615H11.3847V25.3848Z" fill="#74B65F"/>
<path d="M11.3847 24.3076H10.3074V25.3849H11.3847V24.3076Z" fill="#74B65F"/>
<path d="M11.3847 23.231H10.3074V24.3077H11.3847V23.231Z" fill="#74B65F"/>
<path d="M11.3847 22.1538H10.3074V23.2306H11.3847V22.1538Z" fill="#74B65F"/>
<path d="M11.3847 21.0767H10.3074V22.1539H11.3847V21.0767Z" fill="#74B65F"/>
<path d="M11.3847 20H10.3074V21.0768H11.3847V20Z" fill="#74B65F"/>
<path d="M11.3847 18.9233H10.3074V20.0001H11.3847V18.9233Z" fill="#74B65F"/>
<path d="M11.3847 17.8462H10.3074V18.9234H11.3847V17.8462Z" fill="#74B65F"/>
<path d="M11.3847 16.769H10.3074V17.8458H11.3847V16.769Z" fill="#74B65F"/>
<path d="M11.3847 15.6924H10.3074V16.7696H11.3847V15.6924Z" fill="#74B65F"/>
<path d="M11.3847 14.6162H10.3074V15.693H11.3847V14.6162Z" fill="#74B65F"/>
<path d="M11.3847 13.5391H10.3074V14.6158H11.3847V13.5391Z" fill="#74B65F"/>
<path d="M11.3847 12.4614H10.3074V13.5387H11.3847V12.4614Z" fill="#82C66A"/>
<path d="M11.3847 11.3848H10.3074V12.4615H11.3847V11.3848Z" fill="#84D366"/>
<path d="M11.3847 10.3076H10.3074V11.3849H11.3847V10.3076Z" fill="black"/>
<path d="M10.3071 27.5391H9.23022V28.6158H10.3071V27.5391Z" fill="black"/>
<path d="M10.3071 26.4614H9.23022V27.5387H10.3071V26.4614Z" fill="#468430"/>
<path d="M10.3071 25.3848H9.23022V26.4615H10.3071V25.3848Z" fill="#68A350"/>
<path d="M10.3071 24.3076H9.23022V25.3849H10.3071V24.3076Z" fill="#74B65F"/>
<path d="M10.3071 23.231H9.23022V24.3077H10.3071V23.231Z" fill="#74B65F"/>
<path d="M10.3071 22.1538H9.23022V23.2306H10.3071V22.1538Z" fill="#74B65F"/>
<path d="M10.3071 21.0767H9.23022V22.1539H10.3071V21.0767Z" fill="#74B65F"/>
<path d="M10.3071 20H9.23022V21.0768H10.3071V20Z" fill="#74B65F"/>
<path d="M10.3071 18.9233H9.23022V20.0001H10.3071V18.9233Z" fill="#74B65F"/>
<path d="M10.3071 17.8462H9.23022V18.9234H10.3071V17.8462Z" fill="#74B65F"/>
<path d="M10.3071 16.769H9.23022V17.8458H10.3071V16.769Z" fill="#74B65F"/>
<path d="M10.3071 15.6924H9.23022V16.7696H10.3071V15.6924Z" fill="#74B65F"/>
<path d="M10.3071 14.6162H9.23022V15.693H10.3071V14.6162Z" fill="#74B65F"/>
<path d="M10.3071 13.5391H9.23022V14.6158H10.3071V13.5391Z" fill="#82C66A"/>
<path d="M10.3071 12.4614H9.23022V13.5387H10.3071V12.4614Z" fill="#84D366"/>
<path d="M10.3071 11.3848H9.23022V12.4615H10.3071V11.3848Z" fill="black"/>
<path d="M9.23087 26.4614H8.15356V27.5387H9.23087V26.4614Z" fill="#201600"/>
<path d="M9.23087 25.3848H8.15356V26.4615H9.23087V25.3848Z" fill="black"/>
<path d="M9.23087 24.3076H8.15356V25.3849H9.23087V24.3076Z" fill="#68A350"/>
<path d="M9.23087 23.231H8.15356V24.3077H9.23087V23.231Z" fill="#74B65F"/>
<path d="M9.23087 22.1538H8.15356V23.2306H9.23087V22.1538Z" fill="#74B65F"/>
<path d="M9.23087 21.0767H8.15356V22.1539H9.23087V21.0767Z" fill="#74B65F"/>
<path d="M9.23087 20H8.15356V21.0768H9.23087V20Z" fill="#74B65F"/>
<path d="M9.23087 18.9233H8.15356V20.0001H9.23087V18.9233Z" fill="#74B65F"/>
<path d="M9.23087 17.8462H8.15356V18.9234H9.23087V17.8462Z" fill="#74B65F"/>
<path d="M9.23087 16.769H8.15356V17.8458H9.23087V16.769Z" fill="#74B65F"/>
<path d="M9.23087 15.6924H8.15356V16.7696H9.23087V15.6924Z" fill="#74B65F"/>
<path d="M9.23087 14.6162H8.15356V15.693H9.23087V14.6162Z" fill="#82C66A"/>
<path d="M9.23087 13.5391H8.15356V14.6158H9.23087V13.5391Z" fill="black"/>
<path d="M9.23087 12.4614H8.15356V13.5387H9.23087V12.4614Z" fill="black"/>
<path d="M8.15351 24.3076H7.07666V25.3849H8.15351V24.3076Z" fill="black"/>
<path d="M8.15351 23.231H7.07666V24.3077H8.15351V23.231Z" fill="black"/>
<path d="M8.15351 22.1538H7.07666V23.2306H8.15351V22.1538Z" fill="black"/>
<path d="M8.15351 21.0767H7.07666V22.1539H8.15351V21.0767Z" fill="#74B65F"/>
<path d="M8.15351 20H7.07666V21.0768H8.15351V20Z" fill="#74B65F"/>
<path d="M8.15351 18.9233H7.07666V20.0001H8.15351V18.9233Z" fill="#74B65F"/>
<path d="M8.15351 17.8462H7.07666V18.9234H8.15351V17.8462Z" fill="#74B65F"/>
<path d="M8.15351 16.769H7.07666V17.8458H8.15351V16.769Z" fill="black"/>
<path d="M8.15351 15.6924H7.07666V16.7696H8.15351V15.6924Z" fill="black"/>
<path d="M8.15351 14.6162H7.07666V15.693H8.15351V14.6162Z" fill="black"/>
<path d="M7.07661 21.0767H5.99976V22.1539H7.07661V21.0767Z" fill="black"/>
<path d="M7.07661 20H5.99976V21.0768H7.07661V20Z" fill="black"/>
<path d="M7.07661 18.9233H5.99976V20.0001H7.07661V18.9233Z" fill="black"/>
<path d="M7.07661 17.8462H5.99976V18.9234H7.07661V17.8462Z" fill="black"/>
</g>
<defs>
<filter id="filter0_ddd_3015_292998" x="-0.000244141" y="0" width="40.0002" height="40" filterUnits="userSpaceOnUse" color-interpolation-filters="sRGB">
<feFlood flood-opacity="0" result="BackgroundImageFix"/>
<feColorMatrix in="SourceAlpha" type="matrix" values="0 0 0 0 0 0 0 0 0 0 0 0 0 0 0 0 0 0 127 0" result="hardAlpha"/>
<feOffset/>
<feGaussianBlur stdDeviation="2"/>
<feComposite in2="hardAlpha" operator="out"/>
<feColorMatrix type="matrix" values="0 0 0 0 0.898039 0 0 0 0 0.768627 0 0 0 0 0.419608 0 0 0 1 0"/>
<feBlend mode="normal" in2="BackgroundImageFix" result="effect1_dropShadow_3015_292998"/>
<feColorMatrix in="SourceAlpha" type="matrix" values="0 0 0 0 0 0 0 0 0 0 0 0 0 0 0 0 0 0 127 0" result="hardAlpha"/>
<feOffset/>
<feGaussianBlur stdDeviation="2"/>
<feComposite in2="hardAlpha" operator="out"/>
<feColorMatrix type="matrix" values="0 0 0 0 0.898039 0 0 0 0 0.768627 0 0 0 0 0.419608 0 0 0 0.25 0"/>
<feBlend mode="normal" in2="effect1_dropShadow_3015_292998" result="effect2_dropShadow_3015_292998"/>
<feColorMatrix in="SourceAlpha" type="matrix" values="0 0 0 0 0 0 0 0 0 0 0 0 0 0 0 0 0 0 127 0" result="hardAlpha"/>
<feOffset/>
<feGaussianBlur stdDeviation="3"/>
<feComposite in2="hardAlpha" operator="out"/>
<feColorMatrix type="matrix" values="0 0 0 0 0.898039 0 0 0 0 0.768627 0 0 0 0 0.419608 0 0 0 0.25 0"/>
<feBlend mode="normal" in2="effect2_dropShadow_3015_292998" result="effect3_dropShadow_3015_292998"/>
<feBlend mode="normal" in="SourceGraphic" in2="effect3_dropShadow_3015_292998" result="shape"/>
</filter>
</defs>
</svg>
