<svg width="32" height="28" viewBox="0 0 32 28" fill="none" xmlns="http://www.w3.org/2000/svg">
<g clip-path="url(#clip0_642_257243)">
<path d="M10.9044 13.5672L12.3044 14.3019C13.8106 15.0923 14.5637 15.4875 14.9818 16.1977C15.4 16.9078 15.4 17.7915 15.4 19.5589V19.6408C15.4 21.4082 15.4 22.2919 14.9818 23.002C14.5637 23.7122 13.8106 24.1074 12.3044 24.8978L10.9044 25.6325C9.67548 26.2774 9.06101 26.5999 8.40002 26.5999C7.73903 26.5999 7.12456 26.2774 5.89563 25.6325L4.49563 24.8978C2.98946 24.1074 2.23638 23.7122 1.8182 23.002C1.40002 22.2919 1.40002 21.4082 1.40002 19.6408V19.5589C1.40002 17.7915 1.40002 16.9078 1.8182 16.1977C2.23638 15.4875 2.98946 15.0923 4.49563 14.3019L5.89563 13.5672C7.12456 12.9223 7.73903 12.5999 8.40002 12.5999C9.06101 12.5999 9.67548 12.9223 10.9044 13.5672Z" stroke="white" stroke-opacity="0.7" stroke-linecap="round"/>
<path opacity="0.5" d="M14.7 16.45L8.39998 19.6M8.39998 19.6L2.09998 16.45M8.39998 19.6V26.25" stroke="white" stroke-opacity="0.7" stroke-width="1.5" stroke-linecap="round"/>
</g>
<g clip-path="url(#clip1_642_257243)">
<path d="M25.6044 13.5672L27.0044 14.3019C28.5106 15.0923 29.2637 15.4875 29.6819 16.1977C30.1 16.9078 30.1 17.7915 30.1 19.5589V19.6408C30.1 21.4082 30.1 22.2919 29.6819 23.002C29.2637 23.7122 28.5106 24.1074 27.0044 24.8978L25.6044 25.6325C24.3755 26.2774 23.761 26.5999 23.1 26.5999C22.439 26.5999 21.8246 26.2774 20.5956 25.6325L19.1956 24.8978C17.6895 24.1074 16.9364 23.7122 16.5182 23.002C16.1 22.2919 16.1 21.4082 16.1 19.6408V19.5589C16.1 17.7915 16.1 16.9078 16.5182 16.1977C16.9364 15.4875 17.6895 15.0923 19.1956 14.3019L20.5956 13.5672C21.8246 12.9223 22.439 12.5999 23.1 12.5999C23.761 12.5999 24.3755 12.9223 25.6044 13.5672Z" stroke="white" stroke-opacity="0.7" stroke-linecap="round"/>
<path opacity="0.5" d="M29.4 16.45L23.1 19.6M23.1 19.6L16.8 16.45M23.1 19.6V26.25" stroke="white" stroke-opacity="0.7" stroke-width="1.5" stroke-linecap="round"/>
</g>
<path d="M17.9044 2.36728L19.3044 3.10197C20.8106 3.89237 21.5637 4.28757 21.9818 4.99772C22.4 5.70788 22.4 6.59157 22.4 8.35896V8.44084C22.4 10.2082 22.4 11.0919 21.9818 11.8021C21.5637 12.5122 20.8106 12.9074 19.3044 13.6978L17.9044 14.4325C16.6755 15.0774 16.061 15.3999 15.4 15.3999C14.739 15.3999 14.1246 15.0774 12.8956 14.4325L11.4956 13.6978C9.98946 12.9074 9.23638 12.5122 8.8182 11.8021C8.40002 11.0919 8.40002 10.2082 8.40002 8.44084V8.35896C8.40002 6.59157 8.40002 5.70788 8.8182 4.99772C9.23638 4.28757 9.98946 3.89237 11.4956 3.10196L12.8956 2.36728C14.1246 1.72236 14.739 1.3999 15.4 1.3999C16.061 1.3999 16.6755 1.72236 17.9044 2.36728Z" stroke="white" stroke-opacity="0.7" stroke-linecap="round"/>
<path opacity="0.5" d="M21.7 5.25L15.4 8.4M15.4 8.4L9.09998 5.25M15.4 8.4V15.05" stroke="white" stroke-opacity="0.7" stroke-width="1.5" stroke-linecap="round"/>
<defs>
<clipPath id="clip0_642_257243">
<rect width="16.8" height="16.8" fill="white" transform="translate(0 11.2)"/>
</clipPath>
<clipPath id="clip1_642_257243">
<rect width="16.8" height="16.8" fill="white" transform="translate(14.7 11.2)"/>
</clipPath>
</defs>
</svg>
