<svg width="38" height="38" viewBox="0 0 38 38" fill="none" xmlns="http://www.w3.org/2000/svg">
    <g filter="url(#filter0_ddd_coin)">
        <path fill-rule="evenodd" clip-rule="evenodd" d="M19 0C10.7144 0 4 6.71639 4 15C4 23.2836 10.7144 30 19 30C27.2856 30 34 23.2836 34 15C34 6.71639 27.2856 0 19 0ZM19 3.5C25.3513 3.5 30.5 8.64873 30.5 15C30.5 21.3513 25.3513 26.5 19 26.5C12.6487 26.5 7.5 21.3513 7.5 15C7.5 8.64873 12.6487 3.5 19 3.5ZM18 7V9.05C16.36 9.28 15 10.51 15 12.25C15 14.32 16.87 15.5 19 15.5C21 15.5 21 16.12 21 16.75C21 17.5 20.38 18 19 18C17.38 18 17 17.38 17 16.75H14C14 18.49 15.36 19.72 18 19.95V22H20V19.95C21.64 19.72 23 18.49 23 16.75C23 14.18 21.13 13.5 19 13.5C17 13.5 17 12.88 17 12.25C17 11.5 17.62 11 19 11C20.38 11 21 11.62 21 12.25H24C24 10.51 22.64 9.28 20 9.05V7H18Z" fill="#B39B58"/>
    </g>
    <defs>
        <filter id="filter0_ddd_coin" x="0" y="0" width="38" height="38" filterUnits="userSpaceOnUse" color-interpolation-filters="sRGB">
            <feFlood flood-opacity="0" result="BackgroundImageFix"/>
            <feColorMatrix in="SourceAlpha" type="matrix" values="0 0 0 0 0 0 0 0 0 0 0 0 0 0 0 0 0 0 127 0" result="hardAlpha"/>
            <feOffset dy="4"/>
            <feGaussianBlur stdDeviation="2"/>
            <feComposite in2="hardAlpha" operator="out"/>
            <feColorMatrix type="matrix" values="0 0 0 0 0 0 0 0 0 0 0 0 0 0 0 0 0 0 1 0"/>
            <feBlend mode="normal" in2="BackgroundImageFix" result="effect1_dropShadow"/>
            <feColorMatrix in="SourceAlpha" type="matrix" values="0 0 0 0 0 0 0 0 0 0 0 0 0 0 0 0 0 0 127 0" result="hardAlpha"/>
            <feOffset dy="4"/>
            <feGaussianBlur stdDeviation="2"/>
            <feComposite in2="hardAlpha" operator="out"/>
            <feColorMatrix type="matrix" values="0 0 0 0 0 0 0 0 0 0 0 0 0 0 0 0 0 0 0.25 0"/>
            <feBlend mode="normal" in2="effect1_dropShadow" result="effect2_dropShadow"/>
            <feColorMatrix in="SourceAlpha" type="matrix" values="0 0 0 0 0 0 0 0 0 0 0 0 0 0 0 0 0 0 127 0" result="hardAlpha"/>
            <feOffset dy="6"/>
            <feGaussianBlur stdDeviation="3"/>
            <feComposite in2="hardAlpha" operator="out"/>
            <feColorMatrix type="matrix" values="0 0 0 0 0 0 0 0 0 0 0 0 0 0 0 0 0 0 0.25 0"/>
            <feBlend mode="normal" in2="effect2_dropShadow" result="effect3_dropShadow"/>
            <feBlend mode="normal" in="SourceGraphic" in2="effect3_dropShadow" result="shape"/>
        </filter>
    </defs>
</svg>
