<svg width="28" height="28" viewBox="0 0 28 28" fill="none" xmlns="http://www.w3.org/2000/svg">
<path d="M15.2725 24.1816H16.2041L14 28L11.7949 24.1816H12.7275V20.3633H15.2725V24.1816ZM10.6104 19.2119L7.94434 21.9434L8.61133 22.5947L4.36816 23.7891L5.45605 19.5166L6.12207 20.167L8.78809 17.4346L10.6104 19.2119ZM21.9443 20.166L22.6113 19.5166L23.6992 23.7891L19.4551 22.5947L20.1221 21.9434L17.457 19.2109L19.2793 17.4336L21.9443 20.166ZM3.81836 12.7275H7.63574V15.2725H3.81836V16.2041L0 14L3.81836 11.7959V12.7275ZM28 14L24.1816 16.2041V15.2725H20.3643V12.7275H24.1816V11.7959L28 14ZM8.61133 5.5166L7.94434 6.16699L10.6104 8.90039L8.78809 10.6777L6.12207 7.94434L5.45605 8.5957L4.36816 4.32227L8.61133 5.5166ZM22.6113 8.5957L21.9443 7.94434L19.2793 10.6777L17.457 8.90039L20.1221 6.16699L19.4551 5.5166L23.6992 4.32227L22.6113 8.5957ZM16.2041 3.81836H15.2725V7.63672H12.7275V3.81836H11.7949L14 0L16.2041 3.81836Z" fill="#3E3E3E"/>
<circle cx="14" cy="14.0003" r="4.84091" fill="#E5C46B" stroke="black" stroke-width="0.5"/>
<path d="M12.6538 16.276C12.6538 16.276 12.6538 16.2454 12.6538 16.1843V15.6641C12.6538 15.6641 12.6538 15.6336 12.6538 15.5724V15.0523H13.2461C13.2461 15.0523 13.2461 15.0833 13.2461 15.1453V15.6641C13.2461 15.6641 13.2161 15.6641 13.156 15.6641H13.2461C13.2461 15.6641 13.2461 15.6952 13.2461 15.7572V16.276C13.2461 16.276 13.2161 16.276 13.156 16.276H12.6538ZM15.023 16.276C15.023 16.276 15.023 16.2454 15.023 16.1843V15.6641C15.023 15.6641 15.023 15.6336 15.023 15.5724V15.0523H15.6153C15.6153 15.0523 15.6153 15.0833 15.6153 15.1453V15.6641C15.6153 15.6641 15.5853 15.6641 15.5253 15.6641H15.6153C15.6153 15.6641 15.6153 15.6952 15.6153 15.7572V16.276C15.6153 16.276 15.5853 16.276 15.5253 16.276H15.023ZM12.6538 13.2166C12.6538 13.2166 12.6538 13.186 12.6538 13.1248V12.6047C12.6538 12.6047 12.6538 12.5741 12.6538 12.5129V11.9928H13.2461C13.2461 11.9928 13.2461 12.0238 13.2461 12.0859V12.6047C13.2461 12.6047 13.2161 12.6047 13.156 12.6047H13.2461C13.2461 12.6047 13.2461 12.6357 13.2461 12.6978V13.2166C13.2461 13.2166 13.2161 13.2166 13.156 13.2166H12.6538ZM15.023 13.2166C15.023 13.2166 15.023 13.186 15.023 13.1248V12.6047C15.023 12.6047 15.023 12.5741 15.023 12.5129V11.9928H15.6153C15.6153 11.9928 15.6153 12.0238 15.6153 12.0859V12.6047C15.6153 12.6047 15.5853 12.6047 15.5253 12.6047H15.6153C15.6153 12.6047 15.6153 12.6357 15.6153 12.6978V13.2166C15.6153 13.2166 15.5853 13.2166 15.5253 13.2166H15.023ZM13.2461 11.9928C13.2461 11.9928 13.2461 11.9622 13.2461 11.901V11.3809H13.8384C13.8384 11.3809 13.8384 11.412 13.8384 11.474V11.3809C13.8384 11.3809 13.8384 11.3503 13.8384 11.2891V10.769H14.4307C14.4307 10.769 14.4307 10.8001 14.4307 10.8621V11.3809C14.4307 11.3809 14.4007 11.3809 14.3407 11.3809H14.4307C14.4307 11.3809 14.4307 11.412 14.4307 11.474V11.3809H15.023C15.023 11.3809 15.023 11.412 15.023 11.474V11.9928C15.023 11.9928 14.993 11.9928 14.933 11.9928H14.4307C14.4307 11.9928 14.4307 11.9622 14.4307 11.901V11.9928C14.4307 11.9928 14.4007 11.9928 14.3407 11.9928H14.4307C14.4307 11.9928 14.4307 12.0238 14.4307 12.0859V12.6047C14.4307 12.6047 14.4007 12.6047 14.3407 12.6047H14.4307C14.4307 12.6047 14.4307 12.6357 14.4307 12.6978V13.2166C14.4307 13.2166 14.4007 13.2166 14.3407 13.2166H14.4307C14.4307 13.2166 14.4307 13.2476 14.4307 13.3097V13.8285C14.4307 13.8285 14.4007 13.8285 14.3407 13.8285H14.4307C14.4307 13.8285 14.4307 13.8595 14.4307 13.9215V14.4404C14.4307 14.4404 14.4007 14.4404 14.3407 14.4404H14.4307C14.4307 14.4404 14.4307 14.4714 14.4307 14.5334V14.4404H15.023C15.023 14.4404 15.023 14.4714 15.023 14.5334V15.0523C15.023 15.0523 14.993 15.0523 14.933 15.0523H14.4307C14.4307 15.0523 14.4307 15.0217 14.4307 14.9605V15.0523C14.4307 15.0523 14.4007 15.0523 14.3407 15.0523H14.4307C14.4307 15.0523 14.4307 15.0833 14.4307 15.1453V15.6641C14.4307 15.6641 14.4007 15.6641 14.3407 15.6641H14.4307C14.4307 15.6641 14.4307 15.6952 14.4307 15.7572V16.276C14.4307 16.276 14.4007 16.276 14.3407 16.276H14.4307C14.4307 16.276 14.4307 16.3071 14.4307 16.3691V16.276H15.023C15.023 16.276 15.023 16.3071 15.023 16.3691V16.8879C15.023 16.8879 14.993 16.8879 14.933 16.8879H14.4307C14.4307 16.8879 14.4307 16.8573 14.4307 16.7961V16.8879C14.4307 16.8879 14.4007 16.8879 14.3407 16.8879H14.4307C14.4307 16.8879 14.4307 16.9189 14.4307 16.981V17.4998C14.4307 17.4998 14.4007 17.4998 14.3407 17.4998H13.8384C13.8384 17.4998 13.8384 17.4692 13.8384 17.408V16.8879C13.8384 16.8879 13.8384 16.8573 13.8384 16.7961V16.8879C13.8384 16.8879 13.8084 16.8879 13.7483 16.8879H13.2461C13.2461 16.8879 13.2461 16.8573 13.2461 16.7961V16.276H13.8384C13.8384 16.276 13.8384 16.3071 13.8384 16.3691V16.276C13.8384 16.276 13.8384 16.2454 13.8384 16.1843V15.6641C13.8384 15.6641 13.8384 15.6336 13.8384 15.5724V15.0523C13.8384 15.0523 13.8384 15.0217 13.8384 14.9605V14.4404C13.8384 14.4404 13.8384 14.4098 13.8384 14.3486V13.8285C13.8384 13.8285 13.8384 13.7979 13.8384 13.7367V13.8285C13.8384 13.8285 13.8084 13.8285 13.7483 13.8285H13.2461C13.2461 13.8285 13.2461 13.7979 13.2461 13.7367V13.2166H13.8384C13.8384 13.2166 13.8384 13.2476 13.8384 13.3097V13.2166C13.8384 13.2166 13.8384 13.186 13.8384 13.1248V12.6047C13.8384 12.6047 13.8384 12.5741 13.8384 12.5129V11.9928C13.8384 11.9928 13.8384 11.9622 13.8384 11.901V11.9928C13.8384 11.9928 13.8084 11.9928 13.7483 11.9928H13.2461Z" fill="#181818"/>
</svg>
