<svg width="29" height="32" viewBox="0 0 29 32" fill="none" xmlns="http://www.w3.org/2000/svg">
<path d="M18.3731 18.2297V13.7751L14.42 11.5478L10.467 13.7751V18.2297L14.42 20.457L18.3731 18.2297Z" fill="#4FB848"/>
<path d="M18.3731 18.2297V13.7751L14.42 11.5478L10.467 13.7751V18.2297L14.42 20.457L18.3731 18.2297Z" stroke="#3E3E3E" stroke-miterlimit="10"/>
<path d="M17.9821 17.9962C16.8275 18.6475 15.673 19.2988 14.5184 19.9501C14.5123 18.6863 14.5063 17.4224 14.5002 16.1586C15.6539 15.566 16.8076 14.9734 17.9613 14.3808C17.9682 15.5859 17.9752 16.7911 17.9821 17.9962Z" fill="#4F8948"/>
<path d="M17.0257 4.99211V2.05581L14.42 0.587699L11.8142 2.05581V4.99211L14.42 6.4603L17.0257 4.99211Z" fill="#E5C46B"/>
<path d="M17.0257 4.99211V2.05581L14.42 0.587699L11.8142 2.05581V4.99211L14.42 6.4603L17.0257 4.99211Z" stroke="#3E3E3E" stroke-miterlimit="10"/>
<path d="M17.0257 29.9443V27.0079L14.42 25.5398L11.8142 27.0079V29.9443L14.42 31.4124L17.0257 29.9443Z" fill="#E5C46B"/>
<path d="M17.0257 29.9443V27.0079L14.42 25.5398L11.8142 27.0079V29.9443L14.42 31.4124L17.0257 29.9443Z" stroke="#3E3E3E" stroke-miterlimit="10"/>
<path d="M14.42 6.34845V11.5477" stroke="#3E3E3E" stroke-miterlimit="10"/>
<path d="M14.42 20.4568V16.1586" stroke="#3E3E3E" stroke-width="0.6592" stroke-miterlimit="10"/>
<path d="M0.55214 10.8357V7.89939L3.15781 6.4312L5.76348 7.89939V10.8357L3.15781 12.3039L0.55214 10.8357Z" fill="#E5C46B"/>
<path d="M0.55214 10.8357V7.89939L3.15781 6.4312L5.76348 7.89939V10.8357L3.15781 12.3039L0.55214 10.8357Z" stroke="#3E3E3E" stroke-miterlimit="10"/>
<path d="M5.7635 10.8358L10.8087 13.9811" stroke="#3E3E3E" stroke-miterlimit="10"/>
<path d="M14.42 16.1587L10.6537 13.8876" stroke="#3E3E3E" stroke-width="0.6592" stroke-miterlimit="10"/>
<path d="M18.4533 13.7266L14.42 16.1587" stroke="#3E3E3E" stroke-width="0.6592" stroke-miterlimit="10"/>
<path d="M14.42 20.457V25.6756" stroke="#3E3E3E" stroke-miterlimit="10"/>
<path d="M7.73718 7.13368C7.73718 6.76173 7.42821 6.46019 7.04707 6.46019C6.66593 6.46019 6.35695 6.76173 6.35695 7.13368C6.35695 7.50564 6.66593 7.80717 7.04707 7.80717C7.42821 7.80717 7.73718 7.50564 7.73718 7.13368Z" fill="#3E3E3E"/>
<path d="M9.4471 6.27076C9.4471 5.8988 9.13812 5.59727 8.75698 5.59727C8.37584 5.59727 8.06687 5.8988 8.06687 6.27076C8.06687 6.64272 8.37584 6.94425 8.75698 6.94425C9.13812 6.94425 9.4471 6.64272 9.4471 6.27076Z" fill="#3E3E3E"/>
<path d="M11.157 5.51382C11.157 5.14187 10.848 4.84033 10.4669 4.84033C10.0858 4.84033 9.77678 5.14187 9.77678 5.51382C9.77678 5.88578 10.0858 6.18731 10.4669 6.18731C10.848 6.18731 11.157 5.88578 11.157 5.51382Z" fill="#3E3E3E"/>
<path d="M28.3681 10.8357V7.89939L25.7624 6.4312L23.1568 7.89939V10.8357L25.7624 12.3039L28.3681 10.8357Z" fill="#E5C46B"/>
<path d="M28.3681 10.8357V7.89939L25.7624 6.4312L23.1568 7.89939V10.8357L25.7624 12.3039L28.3681 10.8357Z" stroke="#3E3E3E" stroke-miterlimit="10"/>
<path d="M23.1568 10.8358L18.1116 13.9811" stroke="#3E3E3E" stroke-miterlimit="10"/>
<path d="M14.5003 16.1587L18.2665 13.8876" stroke="#3E3E3E" stroke-width="0.6592" stroke-miterlimit="10"/>
<path d="M10.467 13.7266L14.5003 16.1587" stroke="#3E3E3E" stroke-width="0.6592" stroke-miterlimit="10"/>
<path d="M22.5633 7.13368C22.5633 6.76173 22.2544 6.46019 21.8732 6.46019C21.4921 6.46019 21.1831 6.76173 21.1831 7.13368C21.1831 7.50564 21.4921 7.80717 21.8732 7.80717C22.2544 7.80717 22.5633 7.50564 22.5633 7.13368Z" fill="#3E3E3E"/>
<path d="M20.8534 6.27076C20.8534 5.8988 20.5444 5.59727 20.1633 5.59727C19.7821 5.59727 19.4731 5.8988 19.4731 6.27076C19.4731 6.64272 19.7821 6.94425 20.1633 6.94425C20.5444 6.94425 20.8534 6.64272 20.8534 6.27076Z" fill="#3E3E3E"/>
<path d="M19.1435 5.51382C19.1435 5.14187 18.8345 4.84033 18.4533 4.84033C18.0722 4.84033 17.7632 5.14187 17.7632 5.51382C17.7632 5.88578 18.0722 6.18731 18.4533 6.18731C18.8345 6.18731 19.1435 5.88578 19.1435 5.51382Z" fill="#3E3E3E"/>
<path d="M0.511956 21.5586V24.495L3.11763 25.9631L5.72338 24.495V21.5586L3.11763 20.0905L0.511956 21.5586Z" fill="#E5C46B"/>
<path d="M0.511956 21.5586V24.495L3.11763 25.9631L5.72338 24.495V21.5586L3.11763 20.0905L0.511956 21.5586Z" stroke="#3E3E3E" stroke-miterlimit="10"/>
<path d="M5.72338 21.5587L10.7685 18.4134" stroke="#3E3E3E" stroke-miterlimit="10"/>
<path d="M7.697 25.2606C7.697 24.8887 7.38802 24.5871 7.00688 24.5871C6.62574 24.5871 6.31677 24.8887 6.31677 25.2606C6.31677 25.6326 6.62574 25.9341 7.00688 25.9341C7.38802 25.9341 7.697 25.6326 7.697 25.2606Z" fill="#3E3E3E"/>
<path d="M3.84789 14.0891C3.84789 13.7171 3.53892 13.4156 3.15778 13.4156C2.77664 13.4156 2.46766 13.7171 2.46766 14.0891C2.46766 14.461 2.77664 14.7626 3.15778 14.7626C3.53892 14.7626 3.84789 14.461 3.84789 14.0891Z" fill="#3E3E3E"/>
<path d="M9.40691 26.1238C9.40691 25.7518 9.09794 25.4503 8.7168 25.4503C8.33566 25.4503 8.02669 25.7518 8.02669 26.1238C8.02669 26.4958 8.33566 26.7973 8.7168 26.7973C9.09794 26.7973 9.40691 26.4958 9.40691 26.1238Z" fill="#3E3E3E"/>
<path d="M10.4268 26.207C10.0456 26.207 9.7366 26.5086 9.7366 26.8805C9.7366 27.2525 10.0456 27.5541 10.4268 27.5541C10.8079 27.5541 11.1169 27.2525 11.1169 26.8805C11.1169 26.5086 10.8079 26.207 10.4268 26.207Z" fill="#3E3E3E"/>
<path d="M28.328 21.5586V24.495L25.7222 25.9631L23.1166 24.495V21.5586L25.7222 20.0905L28.328 21.5586Z" fill="#E5C46B"/>
<path d="M28.328 21.5586V24.495L25.7222 25.9631L23.1166 24.495V21.5586L25.7222 20.0905L28.328 21.5586Z" stroke="#3E3E3E" stroke-miterlimit="10"/>
<path d="M23.1166 21.5587L18.0715 18.4134" stroke="#3E3E3E" stroke-miterlimit="10"/>
<path d="M22.5232 25.2606C22.5232 24.8887 22.2142 24.5871 21.833 24.5871C21.4519 24.5871 21.1429 24.8887 21.1429 25.2606C21.1429 25.6326 21.4519 25.9341 21.833 25.9341C22.2142 25.9341 22.5232 25.6326 22.5232 25.2606Z" fill="#3E3E3E"/>
<path d="M20.8132 26.1238C20.8132 25.7518 20.5043 25.4503 20.1231 25.4503C19.742 25.4503 19.433 25.7518 19.433 26.1238C19.433 26.4958 19.742 26.7973 20.1231 26.7973C20.5043 26.7973 20.8132 26.4958 20.8132 26.1238Z" fill="#3E3E3E"/>
<path d="M18.4132 26.207C18.7943 26.207 19.1033 26.5086 19.1033 26.8805C19.1033 27.2525 18.7943 27.5541 18.4132 27.5541C18.032 27.5541 17.723 27.2525 17.723 26.8805C17.723 26.5086 18.032 26.207 18.4132 26.207Z" fill="#3E3E3E"/>
<path d="M3.82789 16.2524C3.82789 15.8804 3.51892 15.5789 3.13778 15.5789C2.75664 15.5789 2.44766 15.8804 2.44766 16.2524C2.44766 16.6244 2.75664 16.9259 3.13778 16.9259C3.51892 16.9259 3.82789 16.6244 3.82789 16.2524Z" fill="#3E3E3E"/>
<path d="M3.80777 18.416C3.80777 18.044 3.4988 17.7425 3.11766 17.7425C2.73652 17.7425 2.42754 18.044 2.42754 18.416C2.42754 18.7879 2.73652 19.0895 3.11766 19.0895C3.4988 19.0895 3.80777 18.7879 3.80777 18.416Z" fill="#3E3E3E"/>
<path d="M25.7825 13.4156C25.4013 13.4156 25.0923 13.7172 25.0923 14.0891C25.0923 14.4611 25.4013 14.7627 25.7825 14.7627C26.1637 14.7627 26.4727 14.4611 26.4727 14.0891C26.4727 13.7172 26.1637 13.4156 25.7825 13.4156Z" fill="#3E3E3E"/>
<path d="M26.4525 16.2524C26.4525 15.8804 26.1435 15.5789 25.7624 15.5789C25.3813 15.5789 25.0723 15.8804 25.0723 16.2524C25.0723 16.6244 25.3813 16.9259 25.7624 16.9259C26.1435 16.9259 26.4525 16.6244 26.4525 16.2524Z" fill="#3E3E3E"/>
<path d="M25.7424 17.7425C25.3612 17.7425 25.0522 18.044 25.0522 18.416C25.0522 18.788 25.3612 19.0895 25.7424 19.0895C26.1235 19.0895 26.4325 18.788 26.4325 18.416C26.4325 18.044 26.1235 17.7425 25.7424 17.7425Z" fill="#3E3E3E"/>
</svg>
