<svg width="25" height="28" viewBox="0 0 25 28" fill="none" xmlns="http://www.w3.org/2000/svg">
<g clip-path="url(#clip0_570_256219)">
<path d="M24.3703 23.3335H23.4331V24.2667H24.3703V23.3335Z" fill="black"/>
<path d="M24.3703 22.3999H23.4331V23.3335H24.3703V22.3999Z" fill="black"/>
<path d="M24.3703 21.4666H23.4331V22.3998H24.3703V21.4666Z" fill="black"/>
<path d="M24.3703 20.5334H23.4331V21.4667H24.3703V20.5334Z" fill="black"/>
<path d="M24.3703 19.6001H23.4331V20.5333H24.3703V19.6001Z" fill="black"/>
<path d="M23.4332 24.2666H22.4956V25.1998H23.4332V24.2666Z" fill="black"/>
<path d="M23.4332 23.3335H22.4956V24.2667H23.4332V23.3335Z" fill="#F2F2F2"/>
<path d="M23.4332 22.3999H22.4956V23.3335H23.4332V22.3999Z" fill="#F2F2F2"/>
<path d="M23.4332 21.4666H22.4956V22.3998H23.4332V21.4666Z" fill="#F2F2F2"/>
<path d="M23.4332 20.5334H22.4956V21.4667H23.4332V20.5334Z" fill="#F2F2F2"/>
<path d="M23.4332 19.6001H22.4956V20.5333H23.4332V19.6001Z" fill="#F2F2F2"/>
<path d="M23.4332 18.6665H22.4956V19.6001H23.4332V18.6665Z" fill="black"/>
<path d="M22.4956 25.2H21.5583V26.1332H22.4956V25.2Z" fill="black"/>
<path d="M22.4956 24.2666H21.5583V25.1998H22.4956V24.2666Z" fill="black"/>
<path d="M22.4956 23.3335H21.5583V24.2667H22.4956V23.3335Z" fill="#F2F2F2"/>
<path d="M22.4956 22.3999H21.5583V23.3335H22.4956V22.3999Z" fill="#F2F2F2"/>
<path d="M22.4956 21.4666H21.5583V22.3998H22.4956V21.4666Z" fill="#F2F2F2"/>
<path d="M22.4956 20.5334H21.5583V21.4667H22.4956V20.5334Z" fill="#F2F2F2"/>
<path d="M22.4956 19.6001H21.5583V20.5333H22.4956V19.6001Z" fill="#F2F2F2"/>
<path d="M22.4956 18.6665H21.5583V19.6001H22.4956V18.6665Z" fill="#F2F2F2"/>
<path d="M22.4956 17.7334H21.5583V18.6666H22.4956V17.7334Z" fill="black"/>
<path d="M21.5583 26.1331H20.6211V27.0666H21.5583V26.1331Z" fill="black"/>
<path d="M21.5583 25.2H20.6211V26.1332H21.5583V25.2Z" fill="#C3C3C3"/>
<path d="M21.5583 24.2666H20.6211V25.1998H21.5583V24.2666Z" fill="#A8A8A8"/>
<path d="M21.5583 23.3335H20.6211V24.2667H21.5583V23.3335Z" fill="#F2F2F2"/>
<path d="M21.5583 22.3999H20.6211V23.3335H21.5583V22.3999Z" fill="#F2F2F2"/>
<path d="M21.5583 21.4666H20.6211V22.3998H21.5583V21.4666Z" fill="#F2F2F2"/>
<path d="M21.5583 20.5334H20.6211V21.4667H21.5583V20.5334Z" fill="#F2F2F2"/>
<path d="M21.5583 19.6001H20.6211V20.5333H21.5583V19.6001Z" fill="#F2F2F2"/>
<path d="M21.5583 18.6665H20.6211V19.6001H21.5583V18.6665Z" fill="#F2F2F2"/>
<path d="M21.5583 17.7334H20.6211V18.6666H21.5583V17.7334Z" fill="black"/>
<path d="M20.6211 27.0667H19.6838V27.9999H20.6211V27.0667Z" fill="black"/>
<path d="M20.6211 26.1331H19.6838V27.0666H20.6211V26.1331Z" fill="#A8A8A8"/>
<path d="M20.6211 25.2H19.6838V26.1332H20.6211V25.2Z" fill="#C3C3C3"/>
<path d="M20.6211 24.2666H19.6838V25.1998H20.6211V24.2666Z" fill="#A8A8A8"/>
<path d="M20.6211 23.3335H19.6838V24.2667H20.6211V23.3335Z" fill="#F2F2F2"/>
<path d="M20.6211 22.3999H19.6838V23.3335H20.6211V22.3999Z" fill="#F2F2F2"/>
<path d="M20.6211 21.4666H19.6838V22.3998H20.6211V21.4666Z" fill="#F2F2F2"/>
<path d="M20.6211 20.5334H19.6838V21.4667H20.6211V20.5334Z" fill="#F2F2F2"/>
<path d="M20.6211 19.6001H19.6838V20.5333H20.6211V19.6001Z" fill="#F2F2F2"/>
<path d="M20.6211 18.6665H19.6838V19.6001H20.6211V18.6665Z" fill="#F2F2F2"/>
<path d="M20.6211 17.7334H19.6838V18.6666H20.6211V17.7334Z" fill="black"/>
<path d="M19.6839 27.0667H18.7463V27.9999H19.6839V27.0667Z" fill="black"/>
<path d="M19.6839 26.1331H18.7463V27.0666H19.6839V26.1331Z" fill="#A8A8A8"/>
<path d="M19.6839 25.2H18.7463V26.1332H19.6839V25.2Z" fill="#C3C3C3"/>
<path d="M19.6839 24.2666H18.7463V25.1998H19.6839V24.2666Z" fill="#A8A8A8"/>
<path d="M19.6839 23.3335H18.7463V24.2667H19.6839V23.3335Z" fill="#F2F2F2"/>
<path d="M19.6839 22.3999H18.7463V23.3335H19.6839V22.3999Z" fill="#F2F2F2"/>
<path d="M19.6839 21.4666H18.7463V22.3998H19.6839V21.4666Z" fill="#F2F2F2"/>
<path d="M19.6839 20.5334H18.7463V21.4667H19.6839V20.5334Z" fill="#F2F2F2"/>
<path d="M19.6839 19.6001H18.7463V20.5333H19.6839V19.6001Z" fill="#F2F2F2"/>
<path d="M19.6839 18.6665H18.7463V19.6001H19.6839V18.6665Z" fill="#F2F2F2"/>
<path d="M19.6839 17.7334H18.7463V18.6666H19.6839V17.7334Z" fill="black"/>
<path d="M18.7463 27.0667H17.8091V27.9999H18.7463V27.0667Z" fill="black"/>
<path d="M18.7463 26.1331H17.8091V27.0666H18.7463V26.1331Z" fill="#A8A8A8"/>
<path d="M18.7463 25.2H17.8091V26.1332H18.7463V25.2Z" fill="#C3C3C3"/>
<path d="M18.7463 24.2666H17.8091V25.1998H18.7463V24.2666Z" fill="#A8A8A8"/>
<path d="M18.7463 23.3335H17.8091V24.2667H18.7463V23.3335Z" fill="#F2F2F2"/>
<path d="M18.7463 22.3999H17.8091V23.3335H18.7463V22.3999Z" fill="#F2F2F2"/>
<path d="M18.7463 21.4666H17.8091V22.3998H18.7463V21.4666Z" fill="#F2F2F2"/>
<path d="M18.7463 20.5334H17.8091V21.4667H18.7463V20.5334Z" fill="#F2F2F2"/>
<path d="M18.7463 19.6001H17.8091V20.5333H18.7463V19.6001Z" fill="#F2F2F2"/>
<path d="M18.7463 18.6665H17.8091V19.6001H18.7463V18.6665Z" fill="#F2F2F2"/>
<path d="M18.7463 17.7334H17.8091V18.6666H18.7463V17.7334Z" fill="black"/>
<path d="M17.8091 27.0667H16.8718V27.9999H17.8091V27.0667Z" fill="black"/>
<path d="M17.8091 26.1331H16.8718V27.0666H17.8091V26.1331Z" fill="#A8A8A8"/>
<path d="M17.8091 25.2H16.8718V26.1332H17.8091V25.2Z" fill="#C3C3C3"/>
<path d="M17.8091 24.2666H16.8718V25.1998H17.8091V24.2666Z" fill="#A8A8A8"/>
<path d="M17.8091 23.3335H16.8718V24.2667H17.8091V23.3335Z" fill="#F2F2F2"/>
<path d="M17.8091 22.3999H16.8718V23.3335H17.8091V22.3999Z" fill="#F2F2F2"/>
<path d="M17.8091 21.4666H16.8718V22.3998H17.8091V21.4666Z" fill="#F2F2F2"/>
<path d="M17.8091 20.5334H16.8718V21.4667H17.8091V20.5334Z" fill="#F2F2F2"/>
<path d="M17.8091 19.6001H16.8718V20.5333H17.8091V19.6001Z" fill="#F2F2F2"/>
<path d="M17.8091 18.6665H16.8718V19.6001H17.8091V18.6665Z" fill="#F2F2F2"/>
<path d="M17.8091 17.7334H16.8718V18.6666H17.8091V17.7334Z" fill="#A8A8A8"/>
<path d="M17.8091 16.8H16.8718V17.7333H17.8091V16.8Z" fill="black"/>
<path d="M17.8091 15.8669H16.8718V16.8002H17.8091V15.8669Z" fill="black"/>
<path d="M17.8091 14.9333H16.8718V15.8669H17.8091V14.9333Z" fill="black"/>
<path d="M17.8091 14H16.8718V14.9332H17.8091V14Z" fill="black"/>
<path d="M17.8091 13.0667H16.8718V13.9999H17.8091V13.0667Z" fill="black"/>
<path d="M17.8091 12.1335H16.8718V13.0668H17.8091V12.1335Z" fill="black"/>
<path d="M17.8091 11.2H16.8718V12.1335H17.8091V11.2Z" fill="black"/>
<path d="M17.8091 10.2666H16.8718V11.1998H17.8091V10.2666Z" fill="black"/>
<path d="M17.8091 9.3335H16.8718V10.2667H17.8091V9.3335Z" fill="black"/>
<path d="M17.8091 8.40015H16.8718V9.33339H17.8091V8.40015Z" fill="black"/>
<path d="M17.8091 7.46655H16.8718V8.40013H17.8091V7.46655Z" fill="black"/>
<path d="M17.8091 6.53345H16.8718V7.46669H17.8091V6.53345Z" fill="black"/>
<path d="M17.8091 5.6001H16.8718V6.53334H17.8091V5.6001Z" fill="black"/>
<path d="M17.8091 4.66699H16.8718V5.60024H17.8091V4.66699Z" fill="black"/>
<path d="M17.8091 3.7334H16.8718V4.66698H17.8091V3.7334Z" fill="black"/>
<path d="M17.8091 2.80005H16.8718V3.73329H17.8091V2.80005Z" fill="black"/>
<path d="M17.8091 1.86694H16.8718V2.80019H17.8091V1.86694Z" fill="black"/>
<path d="M16.8718 27.0667H15.9346V27.9999H16.8718V27.0667Z" fill="black"/>
<path d="M16.8718 26.1331H15.9346V27.0666H16.8718V26.1331Z" fill="#A8A8A8"/>
<path d="M16.8718 25.2H15.9346V26.1332H16.8718V25.2Z" fill="#C3C3C3"/>
<path d="M16.8718 24.2666H15.9346V25.1998H16.8718V24.2666Z" fill="#A8A8A8"/>
<path d="M16.8718 23.3335H15.9346V24.2667H16.8718V23.3335Z" fill="#F2F2F2"/>
<path d="M16.8718 22.3999H15.9346V23.3335H16.8718V22.3999Z" fill="#F2F2F2"/>
<path d="M16.8718 21.4666H15.9346V22.3998H16.8718V21.4666Z" fill="#F2F2F2"/>
<path d="M16.8718 20.5334H15.9346V21.4667H16.8718V20.5334Z" fill="#F2F2F2"/>
<path d="M16.8718 19.6001H15.9346V20.5333H16.8718V19.6001Z" fill="#F2F2F2"/>
<path d="M16.8718 18.6665H15.9346V19.6001H16.8718V18.6665Z" fill="#F2F2F2"/>
<path d="M16.8718 17.7334H15.9346V18.6666H16.8718V17.7334Z" fill="#A8A8A8"/>
<path d="M16.8718 16.8H15.9346V17.7333H16.8718V16.8Z" fill="#D8D8D8"/>
<path d="M16.8718 15.8669H15.9346V16.8002H16.8718V15.8669Z" fill="#F2F2F2"/>
<path d="M16.8718 14.9333H15.9346V15.8669H16.8718V14.9333Z" fill="#F2F2F2"/>
<path d="M16.8718 14H15.9346V14.9332H16.8718V14Z" fill="#F2F2F2"/>
<path d="M16.8718 13.0667H15.9346V13.9999H16.8718V13.0667Z" fill="#F2F2F2"/>
<path d="M16.8718 12.1335H15.9346V13.0668H16.8718V12.1335Z" fill="#F2F2F2"/>
<path d="M16.8718 11.2H15.9346V12.1335H16.8718V11.2Z" fill="#F2F2F2"/>
<path d="M16.8718 10.2666H15.9346V11.1998H16.8718V10.2666Z" fill="#F2F2F2"/>
<path d="M16.8718 9.3335H15.9346V10.2667H16.8718V9.3335Z" fill="#F2F2F2"/>
<path d="M16.8718 8.40015H15.9346V9.33339H16.8718V8.40015Z" fill="#F2F2F2"/>
<path d="M16.8718 7.46655H15.9346V8.40013H16.8718V7.46655Z" fill="#F2F2F2"/>
<path d="M16.8718 6.53345H15.9346V7.46669H16.8718V6.53345Z" fill="#F2F2F2"/>
<path d="M16.8718 5.6001H15.9346V6.53334H16.8718V5.6001Z" fill="#F2F2F2"/>
<path d="M16.8718 4.66699H15.9346V5.60024H16.8718V4.66699Z" fill="#F2F2F2"/>
<path d="M16.8718 3.7334H15.9346V4.66698H16.8718V3.7334Z" fill="#F2F2F2"/>
<path d="M16.8718 2.80005H15.9346V3.73329H16.8718V2.80005Z" fill="#F2F2F2"/>
<path d="M16.8718 1.86694H15.9346V2.80019H16.8718V1.86694Z" fill="#D8D8D8"/>
<path d="M16.8718 0.933594H15.9346V1.86684H16.8718V0.933594Z" fill="black"/>
<path d="M15.9346 27.0667H14.9971V27.9999H15.9346V27.0667Z" fill="black"/>
<path d="M15.9346 26.1331H14.9971V27.0666H15.9346V26.1331Z" fill="#A8A8A8"/>
<path d="M15.9346 25.2H14.9971V26.1332H15.9346V25.2Z" fill="#C3C3C3"/>
<path d="M15.9346 24.2666H14.9971V25.1998H15.9346V24.2666Z" fill="#A8A8A8"/>
<path d="M15.9346 23.3335H14.9971V24.2667H15.9346V23.3335Z" fill="#F2F2F2"/>
<path d="M15.9346 22.3999H14.9971V23.3335H15.9346V22.3999Z" fill="#F2F2F2"/>
<path d="M15.9346 21.4666H14.9971V22.3998H15.9346V21.4666Z" fill="#F2F2F2"/>
<path d="M15.9346 20.5334H14.9971V21.4667H15.9346V20.5334Z" fill="#F2F2F2"/>
<path d="M15.9346 19.6001H14.9971V20.5333H15.9346V19.6001Z" fill="#F2F2F2"/>
<path d="M15.9346 18.6665H14.9971V19.6001H15.9346V18.6665Z" fill="#F2F2F2"/>
<path d="M15.9346 17.7334H14.9971V18.6666H15.9346V17.7334Z" fill="#A8A8A8"/>
<path d="M15.9346 16.8H14.9971V17.7333H15.9346V16.8Z" fill="#D8D8D8"/>
<path d="M15.9346 15.8669H14.9971V16.8002H15.9346V15.8669Z" fill="#F2F2F2"/>
<path d="M15.9346 14.9333H14.9971V15.8669H15.9346V14.9333Z" fill="#CED1D8"/>
<path d="M15.9346 14H14.9971V14.9332H15.9346V14Z" fill="#344666"/>
<path d="M15.9346 13.0667H14.9971V13.9999H15.9346V13.0667Z" fill="#F2F2F2"/>
<path d="M15.9346 12.1335H14.9971V13.0668H15.9346V12.1335Z" fill="#F2F2F2"/>
<path d="M15.9346 11.2H14.9971V12.1335H15.9346V11.2Z" fill="#344666"/>
<path d="M15.9346 10.2666H14.9971V11.1998H15.9346V10.2666Z" fill="#F2F2F2"/>
<path d="M15.9346 9.3335H14.9971V10.2667H15.9346V9.3335Z" fill="#F2F2F2"/>
<path d="M15.9346 8.40015H14.9971V9.33339H15.9346V8.40015Z" fill="#F2F2F2"/>
<path d="M15.9346 7.46655H14.9971V8.40013H15.9346V7.46655Z" fill="#F2F2F2"/>
<path d="M15.9346 6.53345H14.9971V7.46669H15.9346V6.53345Z" fill="#F2F2F2"/>
<path d="M15.9346 5.6001H14.9971V6.53334H15.9346V5.6001Z" fill="#F2F2F2"/>
<path d="M15.9346 4.66699H14.9971V5.60024H15.9346V4.66699Z" fill="#F2F2F2"/>
<path d="M15.9346 3.7334H14.9971V4.66698H15.9346V3.7334Z" fill="#F2F2F2"/>
<path d="M15.9346 2.80005H14.9971V3.73329H15.9346V2.80005Z" fill="#F2F2F2"/>
<path d="M15.9346 1.86694H14.9971V2.80019H15.9346V1.86694Z" fill="#F2F2F2"/>
<path d="M15.9346 0.933594H14.9971V1.86684H15.9346V0.933594Z" fill="#D8D8D8"/>
<path d="M15.9346 0H14.9971V0.933582H15.9346V0Z" fill="black"/>
<path d="M14.997 27.0667H14.0598V27.9999H14.997V27.0667Z" fill="black"/>
<path d="M14.997 26.1331H14.0598V27.0666H14.997V26.1331Z" fill="#A8A8A8"/>
<path d="M14.997 25.2H14.0598V26.1332H14.997V25.2Z" fill="#C3C3C3"/>
<path d="M14.997 24.2666H14.0598V25.1998H14.997V24.2666Z" fill="#A8A8A8"/>
<path d="M14.997 23.3335H14.0598V24.2667H14.997V23.3335Z" fill="#F2F2F2"/>
<path d="M14.997 22.3999H14.0598V23.3335H14.997V22.3999Z" fill="#F2F2F2"/>
<path d="M14.997 21.4666H14.0598V22.3998H14.997V21.4666Z" fill="#F2F2F2"/>
<path d="M14.997 20.5334H14.0598V21.4667H14.997V20.5334Z" fill="#F2F2F2"/>
<path d="M14.997 19.6001H14.0598V20.5333H14.997V19.6001Z" fill="#F2F2F2"/>
<path d="M14.997 18.6665H14.0598V19.6001H14.997V18.6665Z" fill="#F2F2F2"/>
<path d="M14.997 17.7334H14.0598V18.6666H14.997V17.7334Z" fill="#A8A8A8"/>
<path d="M14.997 16.8H14.0598V17.7333H14.997V16.8Z" fill="#D8D8D8"/>
<path d="M14.997 15.8669H14.0598V16.8002H14.997V15.8669Z" fill="#F2F2F2"/>
<path d="M14.997 14.9333H14.0598V15.8669H14.997V14.9333Z" fill="#CED1D8"/>
<path d="M14.997 14H14.0598V14.9332H14.997V14Z" fill="#344666"/>
<path d="M14.997 13.0667H14.0598V13.9999H14.997V13.0667Z" fill="#F2F2F2"/>
<path d="M14.997 12.1335H14.0598V13.0668H14.997V12.1335Z" fill="#F2F2F2"/>
<path d="M14.997 11.2H14.0598V12.1335H14.997V11.2Z" fill="#CED1D8"/>
<path d="M14.997 10.2666H14.0598V11.1998H14.997V10.2666Z" fill="#CED1D8"/>
<path d="M14.997 9.3335H14.0598V10.2667H14.997V9.3335Z" fill="#344666"/>
<path d="M14.997 8.40015H14.0598V9.33339H14.997V8.40015Z" fill="#CED1D8"/>
<path d="M14.997 7.46655H14.0598V8.40013H14.997V7.46655Z" fill="#344666"/>
<path d="M14.997 6.53345H14.0598V7.46669H14.997V6.53345Z" fill="#CED1D8"/>
<path d="M14.997 5.6001H14.0598V6.53334H14.997V5.6001Z" fill="#344666"/>
<path d="M14.997 4.66699H14.0598V5.60024H14.997V4.66699Z" fill="#CED1D8"/>
<path d="M14.997 3.7334H14.0598V4.66698H14.997V3.7334Z" fill="#344666"/>
<path d="M14.997 2.80005H14.0598V3.73329H14.997V2.80005Z" fill="#F2F2F2"/>
<path d="M14.997 1.86694H14.0598V2.80019H14.997V1.86694Z" fill="#F2F2F2"/>
<path d="M14.997 0.933594H14.0598V1.86684H14.997V0.933594Z" fill="#F2F2F2"/>
<path d="M14.997 0H14.0598V0.933582H14.997V0Z" fill="black"/>
<path d="M14.0598 27.0667H13.1226V27.9999H14.0598V27.0667Z" fill="black"/>
<path d="M14.0598 26.1331H13.1226V27.0666H14.0598V26.1331Z" fill="#A8A8A8"/>
<path d="M14.0598 25.2H13.1226V26.1332H14.0598V25.2Z" fill="#C3C3C3"/>
<path d="M14.0598 24.2666H13.1226V25.1998H14.0598V24.2666Z" fill="#A8A8A8"/>
<path d="M14.0598 23.3335H13.1226V24.2667H14.0598V23.3335Z" fill="#F2F2F2"/>
<path d="M14.0598 22.3999H13.1226V23.3335H14.0598V22.3999Z" fill="#F2F2F2"/>
<path d="M14.0598 21.4666H13.1226V22.3998H14.0598V21.4666Z" fill="#F2F2F2"/>
<path d="M14.0598 20.5334H13.1226V21.4667H14.0598V20.5334Z" fill="#F2F2F2"/>
<path d="M14.0598 19.6001H13.1226V20.5333H14.0598V19.6001Z" fill="#F2F2F2"/>
<path d="M14.0598 18.6665H13.1226V19.6001H14.0598V18.6665Z" fill="#F2F2F2"/>
<path d="M14.0598 17.7334H13.1226V18.6666H14.0598V17.7334Z" fill="#A8A8A8"/>
<path d="M14.0598 16.8H13.1226V17.7333H14.0598V16.8Z" fill="#D8D8D8"/>
<path d="M14.0598 15.8669H13.1226V16.8002H14.0598V15.8669Z" fill="#F2F2F2"/>
<path d="M14.0598 14.9333H13.1226V15.8669H14.0598V14.9333Z" fill="#CED1D8"/>
<path d="M14.0598 14H13.1226V14.9332H14.0598V14Z" fill="#344666"/>
<path d="M14.0598 13.0667H13.1226V13.9999H14.0598V13.0667Z" fill="#F2F2F2"/>
<path d="M14.0598 12.1335H13.1226V13.0668H14.0598V12.1335Z" fill="#CED1D8"/>
<path d="M14.0598 11.2H13.1226V12.1335H14.0598V11.2Z" fill="#344666"/>
<path d="M14.0598 10.2666H13.1226V11.1998H14.0598V10.2666Z" fill="#CED1D8"/>
<path d="M14.0598 9.3335H13.1226V10.2667H14.0598V9.3335Z" fill="#344666"/>
<path d="M14.0598 8.40015H13.1226V9.33339H14.0598V8.40015Z" fill="#F2F2F2"/>
<path d="M14.0598 7.46655H13.1226V8.40013H14.0598V7.46655Z" fill="#CED1D8"/>
<path d="M14.0598 6.53345H13.1226V7.46669H14.0598V6.53345Z" fill="#CED1D8"/>
<path d="M14.0598 5.6001H13.1226V6.53334H14.0598V5.6001Z" fill="#344666"/>
<path d="M14.0598 4.66699H13.1226V5.60024H14.0598V4.66699Z" fill="#F2F2F2"/>
<path d="M14.0598 3.7334H13.1226V4.66698H14.0598V3.7334Z" fill="#CED1D8"/>
<path d="M14.0598 2.80005H13.1226V3.73329H14.0598V2.80005Z" fill="#F2F2F2"/>
<path d="M14.0598 1.86694H13.1226V2.80019H14.0598V1.86694Z" fill="#F2F2F2"/>
<path d="M14.0598 0.933594H13.1226V1.86684H14.0598V0.933594Z" fill="#F2F2F2"/>
<path d="M14.0598 0H13.1226V0.933582H14.0598V0Z" fill="black"/>
<path d="M13.1225 27.0667H12.1853V27.9999H13.1225V27.0667Z" fill="black"/>
<path d="M13.1225 26.1331H12.1853V27.0666H13.1225V26.1331Z" fill="#A8A8A8"/>
<path d="M13.1225 25.2H12.1853V26.1332H13.1225V25.2Z" fill="#C3C3C3"/>
<path d="M13.1225 24.2666H12.1853V25.1998H13.1225V24.2666Z" fill="#A8A8A8"/>
<path d="M13.1225 23.3335H12.1853V24.2667H13.1225V23.3335Z" fill="#F2F2F2"/>
<path d="M13.1225 22.3999H12.1853V23.3335H13.1225V22.3999Z" fill="#F2F2F2"/>
<path d="M13.1225 21.4666H12.1853V22.3998H13.1225V21.4666Z" fill="#F2F2F2"/>
<path d="M13.1225 20.5334H12.1853V21.4667H13.1225V20.5334Z" fill="#F2F2F2"/>
<path d="M13.1225 19.6001H12.1853V20.5333H13.1225V19.6001Z" fill="#F2F2F2"/>
<path d="M13.1225 18.6665H12.1853V19.6001H13.1225V18.6665Z" fill="#F2F2F2"/>
<path d="M13.1225 17.7334H12.1853V18.6666H13.1225V17.7334Z" fill="#A8A8A8"/>
<path d="M13.1225 16.8H12.1853V17.7333H13.1225V16.8Z" fill="#D8D8D8"/>
<path d="M13.1225 15.8669H12.1853V16.8002H13.1225V15.8669Z" fill="#F2F2F2"/>
<path d="M13.1225 14.9333H12.1853V15.8669H13.1225V14.9333Z" fill="#F2F2F2"/>
<path d="M13.1225 14H12.1853V14.9332H13.1225V14Z" fill="#CED1D8"/>
<path d="M13.1225 13.0667H12.1853V13.9999H13.1225V13.0667Z" fill="#F2F2F2"/>
<path d="M13.1225 12.1335H12.1853V13.0668H13.1225V12.1335Z" fill="#CED1D8"/>
<path d="M13.1225 11.2H12.1853V12.1335H13.1225V11.2Z" fill="#344666"/>
<path d="M13.1225 10.2666H12.1853V11.1998H13.1225V10.2666Z" fill="#F2F2F2"/>
<path d="M13.1225 9.3335H12.1853V10.2667H13.1225V9.3335Z" fill="#CED1D8"/>
<path d="M13.1225 8.40015H12.1853V9.33339H13.1225V8.40015Z" fill="#F2F2F2"/>
<path d="M13.1225 7.46655H12.1853V8.40013H13.1225V7.46655Z" fill="#F2F2F2"/>
<path d="M13.1225 6.53345H12.1853V7.46669H13.1225V6.53345Z" fill="#F2F2F2"/>
<path d="M13.1225 5.6001H12.1853V6.53334H13.1225V5.6001Z" fill="#CED1D8"/>
<path d="M13.1225 4.66699H12.1853V5.60024H13.1225V4.66699Z" fill="#F2F2F2"/>
<path d="M13.1225 3.7334H12.1853V4.66698H13.1225V3.7334Z" fill="#F2F2F2"/>
<path d="M13.1225 2.80005H12.1853V3.73329H13.1225V2.80005Z" fill="#F2F2F2"/>
<path d="M13.1225 1.86694H12.1853V2.80019H13.1225V1.86694Z" fill="#F2F2F2"/>
<path d="M13.1225 0.933594H12.1853V1.86684H13.1225V0.933594Z" fill="#F2F2F2"/>
<path d="M13.1225 0H12.1853V0.933582H13.1225V0Z" fill="black"/>
<path d="M12.1854 27.0667H11.2478V27.9999H12.1854V27.0667Z" fill="black"/>
<path d="M12.1854 26.1331H11.2478V27.0666H12.1854V26.1331Z" fill="#A8A8A8"/>
<path d="M12.1854 25.2H11.2478V26.1332H12.1854V25.2Z" fill="#A8A8A8"/>
<path d="M12.1854 24.2666H11.2478V25.1998H12.1854V24.2666Z" fill="#A8A8A8"/>
<path d="M12.1854 23.3335H11.2478V24.2667H12.1854V23.3335Z" fill="#F2F2F2"/>
<path d="M12.1854 22.3999H11.2478V23.3335H12.1854V22.3999Z" fill="#F2F2F2"/>
<path d="M12.1854 21.4666H11.2478V22.3998H12.1854V21.4666Z" fill="#F2F2F2"/>
<path d="M12.1854 20.5334H11.2478V21.4667H12.1854V20.5334Z" fill="#F2F2F2"/>
<path d="M12.1854 19.6001H11.2478V20.5333H12.1854V19.6001Z" fill="#F2F2F2"/>
<path d="M12.1854 18.6665H11.2478V19.6001H12.1854V18.6665Z" fill="#F2F2F2"/>
<path d="M12.1854 17.7334H11.2478V18.6666H12.1854V17.7334Z" fill="#A8A8A8"/>
<path d="M12.1854 16.8H11.2478V17.7333H12.1854V16.8Z" fill="#D8D8D8"/>
<path d="M12.1854 15.8669H11.2478V16.8002H12.1854V15.8669Z" fill="#F2F2F2"/>
<path d="M12.1854 14.9333H11.2478V15.8669H12.1854V14.9333Z" fill="#F2F2F2"/>
<path d="M12.1854 14H11.2478V14.9332H12.1854V14Z" fill="#F2F2F2"/>
<path d="M12.1854 13.0667H11.2478V13.9999H12.1854V13.0667Z" fill="#F2F2F2"/>
<path d="M12.1854 12.1335H11.2478V13.0668H12.1854V12.1335Z" fill="#CED1D8"/>
<path d="M12.1854 11.2H11.2478V12.1335H12.1854V11.2Z" fill="#344666"/>
<path d="M12.1854 10.2666H11.2478V11.1998H12.1854V10.2666Z" fill="#F2F2F2"/>
<path d="M12.1854 9.3335H11.2478V10.2667H12.1854V9.3335Z" fill="#F2F2F2"/>
<path d="M12.1854 8.40015H11.2478V9.33339H12.1854V8.40015Z" fill="#F2F2F2"/>
<path d="M12.1854 7.46655H11.2478V8.40013H12.1854V7.46655Z" fill="#F2F2F2"/>
<path d="M12.1854 6.53345H11.2478V7.46669H12.1854V6.53345Z" fill="#F2F2F2"/>
<path d="M12.1854 5.6001H11.2478V6.53334H12.1854V5.6001Z" fill="#F2F2F2"/>
<path d="M12.1854 4.66699H11.2478V5.60024H12.1854V4.66699Z" fill="#F2F2F2"/>
<path d="M12.1854 3.7334H11.2478V4.66698H12.1854V3.7334Z" fill="#F2F2F2"/>
<path d="M12.1854 2.80005H11.2478V3.73329H12.1854V2.80005Z" fill="#F2F2F2"/>
<path d="M12.1854 1.86694H11.2478V2.80019H12.1854V1.86694Z" fill="#F2F2F2"/>
<path d="M12.1854 0.933594H11.2478V1.86684H12.1854V0.933594Z" fill="#F2F2F2"/>
<path d="M12.1854 0H11.2478V0.933582H12.1854V0Z" fill="black"/>
<path d="M11.2478 27.0667H10.3105V27.9999H11.2478V27.0667Z" fill="black"/>
<path d="M11.2478 26.1331H10.3105V27.0666H11.2478V26.1331Z" fill="#A8A8A8"/>
<path d="M11.2478 25.2H10.3105V26.1332H11.2478V25.2Z" fill="#C3C3C3"/>
<path d="M11.2478 24.2666H10.3105V25.1998H11.2478V24.2666Z" fill="#A8A8A8"/>
<path d="M11.2478 23.3335H10.3105V24.2667H11.2478V23.3335Z" fill="#A8A8A8"/>
<path d="M11.2478 22.3999H10.3105V23.3335H11.2478V22.3999Z" fill="#F2F2F2"/>
<path d="M11.2478 21.4666H10.3105V22.3998H11.2478V21.4666Z" fill="#F2F2F2"/>
<path d="M11.2478 20.5334H10.3105V21.4667H11.2478V20.5334Z" fill="#F2F2F2"/>
<path d="M11.2478 19.6001H10.3105V20.5333H11.2478V19.6001Z" fill="#F2F2F2"/>
<path d="M11.2478 18.6665H10.3105V19.6001H11.2478V18.6665Z" fill="#A8A8A8"/>
<path d="M11.2478 17.7334H10.3105V18.6666H11.2478V17.7334Z" fill="#A8A8A8"/>
<path d="M11.2478 16.8H10.3105V17.7333H11.2478V16.8Z" fill="#D8D8D8"/>
<path d="M11.2478 15.8669H10.3105V16.8002H11.2478V15.8669Z" fill="#F2F2F2"/>
<path d="M11.2478 14.9333H10.3105V15.8669H11.2478V14.9333Z" fill="#F2F2F2"/>
<path d="M11.2478 14H10.3105V14.9332H11.2478V14Z" fill="#F2F2F2"/>
<path d="M11.2478 13.0667H10.3105V13.9999H11.2478V13.0667Z" fill="#F2F2F2"/>
<path d="M11.2478 12.1335H10.3105V13.0668H11.2478V12.1335Z" fill="#CED1D8"/>
<path d="M11.2478 11.2H10.3105V12.1335H11.2478V11.2Z" fill="#344666"/>
<path d="M11.2478 10.2666H10.3105V11.1998H11.2478V10.2666Z" fill="#F2F2F2"/>
<path d="M11.2478 9.3335H10.3105V10.2667H11.2478V9.3335Z" fill="#F2F2F2"/>
<path d="M11.2478 8.40015H10.3105V9.33339H11.2478V8.40015Z" fill="#F2F2F2"/>
<path d="M11.2478 7.46655H10.3105V8.40013H11.2478V7.46655Z" fill="#F2F2F2"/>
<path d="M11.2478 6.53345H10.3105V7.46669H11.2478V6.53345Z" fill="#F2F2F2"/>
<path d="M11.2478 5.6001H10.3105V6.53334H11.2478V5.6001Z" fill="#F2F2F2"/>
<path d="M11.2478 4.66699H10.3105V5.60024H11.2478V4.66699Z" fill="#F2F2F2"/>
<path d="M11.2478 3.7334H10.3105V4.66698H11.2478V3.7334Z" fill="#CED1D8"/>
<path d="M11.2478 2.80005H10.3105V3.73329H11.2478V2.80005Z" fill="#F2F2F2"/>
<path d="M11.2478 1.86694H10.3105V2.80019H11.2478V1.86694Z" fill="#F2F2F2"/>
<path d="M11.2478 0.933594H10.3105V1.86684H11.2478V0.933594Z" fill="#F2F2F2"/>
<path d="M11.2478 0H10.3105V0.933582H11.2478V0Z" fill="black"/>
<path d="M10.3105 27.0667H9.37329V27.9999H10.3105V27.0667Z" fill="black"/>
<path d="M10.3105 26.1331H9.37329V27.0666H10.3105V26.1331Z" fill="#A8A8A8"/>
<path d="M10.3105 25.2H9.37329V26.1332H10.3105V25.2Z" fill="#A8A8A8"/>
<path d="M10.3105 24.2666H9.37329V25.1998H10.3105V24.2666Z" fill="#A8A8A8"/>
<path d="M10.3105 23.3335H9.37329V24.2667H10.3105V23.3335Z" fill="#A8A8A8"/>
<path d="M10.3105 22.3999H9.37329V23.3335H10.3105V22.3999Z" fill="#A8A8A8"/>
<path d="M10.3105 21.4666H9.37329V22.3998H10.3105V21.4666Z" fill="#A8A8A8"/>
<path d="M10.3105 20.5334H9.37329V21.4667H10.3105V20.5334Z" fill="#A8A8A8"/>
<path d="M10.3105 19.6001H9.37329V20.5333H10.3105V19.6001Z" fill="#A8A8A8"/>
<path d="M10.3105 18.6665H9.37329V19.6001H10.3105V18.6665Z" fill="#808080"/>
<path d="M10.3105 17.7334H9.37329V18.6666H10.3105V17.7334Z" fill="#D8D8D8"/>
<path d="M10.3105 16.8H9.37329V17.7333H10.3105V16.8Z" fill="#F2F2F2"/>
<path d="M10.3105 15.8669H9.37329V16.8002H10.3105V15.8669Z" fill="#F2F2F2"/>
<path d="M10.3105 14.9333H9.37329V15.8669H10.3105V14.9333Z" fill="#F2F2F2"/>
<path d="M10.3105 14H9.37329V14.9332H10.3105V14Z" fill="#F2F2F2"/>
<path d="M10.3105 13.0667H9.37329V13.9999H10.3105V13.0667Z" fill="#F2F2F2"/>
<path d="M10.3105 12.1335H9.37329V13.0668H10.3105V12.1335Z" fill="#CED1D8"/>
<path d="M10.3105 11.2H9.37329V12.1335H10.3105V11.2Z" fill="#344666"/>
<path d="M10.3105 10.2666H9.37329V11.1998H10.3105V10.2666Z" fill="#F2F2F2"/>
<path d="M10.3105 9.3335H9.37329V10.2667H10.3105V9.3335Z" fill="#F2F2F2"/>
<path d="M10.3105 8.40015H9.37329V9.33339H10.3105V8.40015Z" fill="#F2F2F2"/>
<path d="M10.3105 7.46655H9.37329V8.40013H10.3105V7.46655Z" fill="#CED1D8"/>
<path d="M10.3105 6.53345H9.37329V7.46669H10.3105V6.53345Z" fill="#F2F2F2"/>
<path d="M10.3105 5.6001H9.37329V6.53334H10.3105V5.6001Z" fill="#F2F2F2"/>
<path d="M10.3105 4.66699H9.37329V5.60024H10.3105V4.66699Z" fill="#CED1D8"/>
<path d="M10.3105 3.7334H9.37329V4.66698H10.3105V3.7334Z" fill="#344666"/>
<path d="M10.3105 2.80005H9.37329V3.73329H10.3105V2.80005Z" fill="#F2F2F2"/>
<path d="M10.3105 1.86694H9.37329V2.80019H10.3105V1.86694Z" fill="#F2F2F2"/>
<path d="M10.3105 0.933594H9.37329V1.86684H10.3105V0.933594Z" fill="#F2F2F2"/>
<path d="M10.3105 0H9.37329V0.933582H10.3105V0Z" fill="black"/>
<path d="M9.37327 27.0667H8.43604V27.9999H9.37327V27.0667Z" fill="black"/>
<path d="M9.37327 26.1331H8.43604V27.0666H9.37327V26.1331Z" fill="#A8A8A8"/>
<path d="M9.37327 25.2H8.43604V26.1332H9.37327V25.2Z" fill="#808080"/>
<path d="M9.37327 24.2666H8.43604V25.1998H9.37327V24.2666Z" fill="#808080"/>
<path d="M9.37327 23.3335H8.43604V24.2667H9.37327V23.3335Z" fill="#808080"/>
<path d="M9.37327 22.3999H8.43604V23.3335H9.37327V22.3999Z" fill="#808080"/>
<path d="M9.37327 21.4666H8.43604V22.3998H9.37327V21.4666Z" fill="#808080"/>
<path d="M9.37327 20.5334H8.43604V21.4667H9.37327V20.5334Z" fill="#808080"/>
<path d="M9.37327 19.6001H8.43604V20.5333H9.37327V19.6001Z" fill="#808080"/>
<path d="M9.37327 18.6665H8.43604V19.6001H9.37327V18.6665Z" fill="#D8D8D8"/>
<path d="M9.37327 17.7334H8.43604V18.6666H9.37327V17.7334Z" fill="#F2F2F2"/>
<path d="M9.37327 16.8H8.43604V17.7333H9.37327V16.8Z" fill="#F2F2F2"/>
<path d="M9.37327 15.8669H8.43604V16.8002H9.37327V15.8669Z" fill="#F2F2F2"/>
<path d="M9.37327 14.9333H8.43604V15.8669H9.37327V14.9333Z" fill="#BD7E14"/>
<path d="M9.37327 14H8.43604V14.9332H9.37327V14Z" fill="#BD7E14"/>
<path d="M9.37327 13.0667H8.43604V13.9999H9.37327V13.0667Z" fill="#BD7E14"/>
<path d="M9.37327 12.1335H8.43604V13.0668H9.37327V12.1335Z" fill="#CED1D8"/>
<path d="M9.37327 11.2H8.43604V12.1335H9.37327V11.2Z" fill="#344666"/>
<path d="M9.37327 10.2666H8.43604V11.1998H9.37327V10.2666Z" fill="#F2F2F2"/>
<path d="M9.37327 9.3335H8.43604V10.2667H9.37327V9.3335Z" fill="#CED1D8"/>
<path d="M9.37327 8.40015H8.43604V9.33339H9.37327V8.40015Z" fill="#F2F2F2"/>
<path d="M9.37327 7.46655H8.43604V8.40013H9.37327V7.46655Z" fill="#344666"/>
<path d="M9.37327 6.53345H8.43604V7.46669H9.37327V6.53345Z" fill="#F2F2F2"/>
<path d="M9.37327 5.6001H8.43604V6.53334H9.37327V5.6001Z" fill="#CED1D8"/>
<path d="M9.37327 4.66699H8.43604V5.60024H9.37327V4.66699Z" fill="#CED1D8"/>
<path d="M9.37327 3.7334H8.43604V4.66698H9.37327V3.7334Z" fill="#344666"/>
<path d="M9.37327 2.80005H8.43604V3.73329H9.37327V2.80005Z" fill="#F2F2F2"/>
<path d="M9.37327 1.86694H8.43604V2.80019H9.37327V1.86694Z" fill="#F2F2F2"/>
<path d="M9.37327 0.933594H8.43604V1.86684H9.37327V0.933594Z" fill="#F2F2F2"/>
<path d="M9.37327 0H8.43604V0.933582H9.37327V0Z" fill="black"/>
<path d="M8.43611 27.0667H7.49854V27.9999H8.43611V27.0667Z" fill="black"/>
<path d="M8.43611 26.1331H7.49854V27.0666H8.43611V26.1331Z" fill="#808080"/>
<path d="M8.43611 25.2H7.49854V26.1332H8.43611V25.2Z" fill="#D8D8D8"/>
<path d="M8.43611 24.2666H7.49854V25.1998H8.43611V24.2666Z" fill="#D8D8D8"/>
<path d="M8.43611 23.3335H7.49854V24.2667H8.43611V23.3335Z" fill="#D8D8D8"/>
<path d="M8.43611 22.3999H7.49854V23.3335H8.43611V22.3999Z" fill="#D8D8D8"/>
<path d="M8.43611 21.4666H7.49854V22.3998H8.43611V21.4666Z" fill="#D8D8D8"/>
<path d="M8.43611 20.5334H7.49854V21.4667H8.43611V20.5334Z" fill="#D8D8D8"/>
<path d="M8.43611 19.6001H7.49854V20.5333H8.43611V19.6001Z" fill="#D8D8D8"/>
<path d="M8.43611 18.6665H7.49854V19.6001H8.43611V18.6665Z" fill="#BD7E14"/>
<path d="M8.43611 17.7334H7.49854V18.6666H8.43611V17.7334Z" fill="#BD7E14"/>
<path d="M8.43611 16.8H7.49854V17.7333H8.43611V16.8Z" fill="#BD7E14"/>
<path d="M8.43611 15.8669H7.49854V16.8002H8.43611V15.8669Z" fill="#F2F2F2"/>
<path d="M8.43611 14.9333H7.49854V15.8669H8.43611V14.9333Z" fill="#BD7E14"/>
<path d="M8.43611 14H7.49854V14.9332H8.43611V14Z" fill="#FBB236"/>
<path d="M8.43611 13.0667H7.49854V13.9999H8.43611V13.0667Z" fill="#D99522"/>
<path d="M8.43611 12.1335H7.49854V13.0668H8.43611V12.1335Z" fill="#CED1D8"/>
<path d="M8.43611 11.2H7.49854V12.1335H8.43611V11.2Z" fill="#344666"/>
<path d="M8.43611 10.2666H7.49854V11.1998H8.43611V10.2666Z" fill="#CED1D8"/>
<path d="M8.43611 9.3335H7.49854V10.2667H8.43611V9.3335Z" fill="#344666"/>
<path d="M8.43611 8.40015H7.49854V9.33339H8.43611V8.40015Z" fill="#CED1D8"/>
<path d="M8.43611 7.46655H7.49854V8.40013H8.43611V7.46655Z" fill="#344666"/>
<path d="M8.43611 6.53345H7.49854V7.46669H8.43611V6.53345Z" fill="#CED1D8"/>
<path d="M8.43611 5.6001H7.49854V6.53334H8.43611V5.6001Z" fill="#344666"/>
<path d="M8.43611 4.66699H7.49854V5.60024H8.43611V4.66699Z" fill="#CED1D8"/>
<path d="M8.43611 3.7334H7.49854V4.66698H8.43611V3.7334Z" fill="#344666"/>
<path d="M8.43611 2.80005H7.49854V3.73329H8.43611V2.80005Z" fill="#F2F2F2"/>
<path d="M8.43611 1.86694H7.49854V2.80019H8.43611V1.86694Z" fill="#F2F2F2"/>
<path d="M8.43611 0.933594H7.49854V1.86684H8.43611V0.933594Z" fill="#F2F2F2"/>
<path d="M8.43611 0H7.49854V0.933582H8.43611V0Z" fill="black"/>
<path d="M7.49851 27.0667H6.56128V27.9999H7.49851V27.0667Z" fill="black"/>
<path d="M7.49851 26.1331H6.56128V27.0666H7.49851V26.1331Z" fill="#D8D8D8"/>
<path d="M7.49851 25.2H6.56128V26.1332H7.49851V25.2Z" fill="#D8D8D8"/>
<path d="M7.49851 24.2666H6.56128V25.1998H7.49851V24.2666Z" fill="#D8D8D8"/>
<path d="M7.49851 23.3335H6.56128V24.2667H7.49851V23.3335Z" fill="#D8D8D8"/>
<path d="M7.49851 22.3999H6.56128V23.3335H7.49851V22.3999Z" fill="#D8D8D8"/>
<path d="M7.49851 21.4666H6.56128V22.3998H7.49851V21.4666Z" fill="#F2F2F2"/>
<path d="M7.49851 20.5334H6.56128V21.4667H7.49851V20.5334Z" fill="#BD7E14"/>
<path d="M7.49851 19.6001H6.56128V20.5333H7.49851V19.6001Z" fill="#BD7E14"/>
<path d="M7.49851 18.6665H6.56128V19.6001H7.49851V18.6665Z" fill="#BD7E14"/>
<path d="M7.49851 17.7334H6.56128V18.6666H7.49851V17.7334Z" fill="#FBB236"/>
<path d="M7.49851 16.8H6.56128V17.7333H7.49851V16.8Z" fill="#D99522"/>
<path d="M7.49851 15.8669H6.56128V16.8002H7.49851V15.8669Z" fill="#BD7E14"/>
<path d="M7.49851 14.9333H6.56128V15.8669H7.49851V14.9333Z" fill="#D99522"/>
<path d="M7.49851 14H6.56128V14.9332H7.49851V14Z" fill="#FBB236"/>
<path d="M7.49851 13.0667H6.56128V13.9999H7.49851V13.0667Z" fill="#D99522"/>
<path d="M7.49851 12.1335H6.56128V13.0668H7.49851V12.1335Z" fill="#F2F2F2"/>
<path d="M7.49851 11.2H6.56128V12.1335H7.49851V11.2Z" fill="#CED1D8"/>
<path d="M7.49851 10.2666H6.56128V11.1998H7.49851V10.2666Z" fill="#CED1D8"/>
<path d="M7.49851 9.3335H6.56128V10.2667H7.49851V9.3335Z" fill="#344666"/>
<path d="M7.49851 8.40015H6.56128V9.33339H7.49851V8.40015Z" fill="#CED1D8"/>
<path d="M7.49851 7.46655H6.56128V8.40013H7.49851V7.46655Z" fill="#344666"/>
<path d="M7.49851 6.53345H6.56128V7.46669H7.49851V6.53345Z" fill="#CED1D8"/>
<path d="M7.49851 5.6001H6.56128V6.53334H7.49851V5.6001Z" fill="#344666"/>
<path d="M7.49851 4.66699H6.56128V5.60024H7.49851V4.66699Z" fill="#CED1D8"/>
<path d="M7.49851 3.7334H6.56128V4.66698H7.49851V3.7334Z" fill="#344666"/>
<path d="M7.49851 2.80005H6.56128V3.73329H7.49851V2.80005Z" fill="#F2F2F2"/>
<path d="M7.49851 1.86694H6.56128V2.80019H7.49851V1.86694Z" fill="#F2F2F2"/>
<path d="M7.49851 0.933594H6.56128V1.86684H7.49851V0.933594Z" fill="#F2F2F2"/>
<path d="M7.49851 0H6.56128V0.933582H7.49851V0Z" fill="black"/>
<path d="M6.56125 26.1331H5.62402V27.0666H6.56125V26.1331Z" fill="black"/>
<path d="M6.56125 25.2H5.62402V26.1332H6.56125V25.2Z" fill="#D8D8D8"/>
<path d="M6.56125 24.2666H5.62402V25.1998H6.56125V24.2666Z" fill="#D8D8D8"/>
<path d="M6.56125 23.3335H5.62402V24.2667H6.56125V23.3335Z" fill="#F2F2F2"/>
<path d="M6.56125 22.3999H5.62402V23.3335H6.56125V22.3999Z" fill="#D8D8D8"/>
<path d="M6.56125 21.4666H5.62402V22.3998H6.56125V21.4666Z" fill="#F2F2F2"/>
<path d="M6.56125 20.5334H5.62402V21.4667H6.56125V20.5334Z" fill="#D99522"/>
<path d="M6.56125 19.6001H5.62402V20.5333H6.56125V19.6001Z" fill="#FBB236"/>
<path d="M6.56125 18.6665H5.62402V19.6001H6.56125V18.6665Z" fill="#D99522"/>
<path d="M6.56125 17.7334H5.62402V18.6666H6.56125V17.7334Z" fill="#FBB236"/>
<path d="M6.56125 16.8H5.62402V17.7333H6.56125V16.8Z" fill="#BD7E14"/>
<path d="M6.56125 15.8669H5.62402V16.8002H6.56125V15.8669Z" fill="#FBB236"/>
<path d="M6.56125 14.9333H5.62402V15.8669H6.56125V14.9333Z" fill="#BD7E14"/>
<path d="M6.56125 14H5.62402V14.9332H6.56125V14Z" fill="#FBF236"/>
<path d="M6.56125 13.0667H5.62402V13.9999H6.56125V13.0667Z" fill="#D99522"/>
<path d="M6.56125 12.1335H5.62402V13.0668H6.56125V12.1335Z" fill="#F2F2F2"/>
<path d="M6.56125 11.2H5.62402V12.1335H6.56125V11.2Z" fill="#344666"/>
<path d="M6.56125 10.2666H5.62402V11.1998H6.56125V10.2666Z" fill="#CED1D8"/>
<path d="M6.56125 9.3335H5.62402V10.2667H6.56125V9.3335Z" fill="#344666"/>
<path d="M6.56125 8.40015H5.62402V9.33339H6.56125V8.40015Z" fill="#CED1D8"/>
<path d="M6.56125 7.46655H5.62402V8.40013H6.56125V7.46655Z" fill="#344666"/>
<path d="M6.56125 6.53345H5.62402V7.46669H6.56125V6.53345Z" fill="#CED1D8"/>
<path d="M6.56125 5.6001H5.62402V6.53334H6.56125V5.6001Z" fill="#344666"/>
<path d="M6.56125 4.66699H5.62402V5.60024H6.56125V4.66699Z" fill="#CED1D8"/>
<path d="M6.56125 3.7334H5.62402V4.66698H6.56125V3.7334Z" fill="#344666"/>
<path d="M6.56125 2.80005H5.62402V3.73329H6.56125V2.80005Z" fill="#F2F2F2"/>
<path d="M6.56125 1.86694H5.62402V2.80019H6.56125V1.86694Z" fill="#F2F2F2"/>
<path d="M6.56125 0.933594H5.62402V1.86684H6.56125V0.933594Z" fill="#F2F2F2"/>
<path d="M6.56125 0H5.62402V0.933582H6.56125V0Z" fill="black"/>
<path d="M5.62412 25.2H4.68689V26.1332H5.62412V25.2Z" fill="black"/>
<path d="M5.62412 24.2666H4.68689V25.1998H5.62412V24.2666Z" fill="#D8D8D8"/>
<path d="M5.62412 23.3335H4.68689V24.2667H5.62412V23.3335Z" fill="#F2F2F2"/>
<path d="M5.62412 22.3999H4.68689V23.3335H5.62412V22.3999Z" fill="#D8D8D8"/>
<path d="M5.62412 21.4666H4.68689V22.3998H5.62412V21.4666Z" fill="#F2F2F2"/>
<path d="M5.62412 20.5334H4.68689V21.4667H5.62412V20.5334Z" fill="#D99522"/>
<path d="M5.62412 19.6001H4.68689V20.5333H5.62412V19.6001Z" fill="#FBB236"/>
<path d="M5.62412 18.6665H4.68689V19.6001H5.62412V18.6665Z" fill="#BD7E14"/>
<path d="M5.62412 17.7334H4.68689V18.6666H5.62412V17.7334Z" fill="#FBF236"/>
<path d="M5.62412 16.8H4.68689V17.7333H5.62412V16.8Z" fill="#D99522"/>
<path d="M5.62412 15.8669H4.68689V16.8002H5.62412V15.8669Z" fill="#FBB236"/>
<path d="M5.62412 14.9333H4.68689V15.8669H5.62412V14.9333Z" fill="#D99522"/>
<path d="M5.62412 14H4.68689V14.9332H5.62412V14Z" fill="#FBB236"/>
<path d="M5.62412 13.0667H4.68689V13.9999H5.62412V13.0667Z" fill="#D99522"/>
<path d="M5.62412 12.1335H4.68689V13.0668H5.62412V12.1335Z" fill="#F2F2F2"/>
<path d="M5.62412 11.2H4.68689V12.1335H5.62412V11.2Z" fill="#F2F2F2"/>
<path d="M5.62412 10.2666H4.68689V11.1998H5.62412V10.2666Z" fill="#F2F2F2"/>
<path d="M5.62412 9.3335H4.68689V10.2667H5.62412V9.3335Z" fill="#F2F2F2"/>
<path d="M5.62412 8.40015H4.68689V9.33339H5.62412V8.40015Z" fill="#F2F2F2"/>
<path d="M5.62412 7.46655H4.68689V8.40013H5.62412V7.46655Z" fill="#F2F2F2"/>
<path d="M5.62412 6.53345H4.68689V7.46669H5.62412V6.53345Z" fill="#F2F2F2"/>
<path d="M5.62412 5.6001H4.68689V6.53334H5.62412V5.6001Z" fill="#F2F2F2"/>
<path d="M5.62412 4.66699H4.68689V5.60024H5.62412V4.66699Z" fill="#F2F2F2"/>
<path d="M5.62412 3.7334H4.68689V4.66698H5.62412V3.7334Z" fill="#F2F2F2"/>
<path d="M5.62412 2.80005H4.68689V3.73329H5.62412V2.80005Z" fill="#F2F2F2"/>
<path d="M5.62412 1.86694H4.68689V2.80019H5.62412V1.86694Z" fill="#F2F2F2"/>
<path d="M5.62412 0.933594H4.68689V1.86684H5.62412V0.933594Z" fill="#F2F2F2"/>
<path d="M5.62412 0H4.68689V0.933582H5.62412V0Z" fill="black"/>
<path d="M4.68684 24.2666H3.74927V25.1998H4.68684V24.2666Z" fill="black"/>
<path d="M4.68684 23.3335H3.74927V24.2667H4.68684V23.3335Z" fill="black"/>
<path d="M4.68684 22.3999H3.74927V23.3335H4.68684V22.3999Z" fill="black"/>
<path d="M4.68684 21.4666H3.74927V22.3998H4.68684V21.4666Z" fill="black"/>
<path d="M4.68684 20.5334H3.74927V21.4667H4.68684V20.5334Z" fill="#BD7E14"/>
<path d="M4.68684 19.6001H3.74927V20.5333H4.68684V19.6001Z" fill="#FBF236"/>
<path d="M4.68684 18.6665H3.74927V19.6001H4.68684V18.6665Z" fill="#D99522"/>
<path d="M4.68684 17.7334H3.74927V18.6666H4.68684V17.7334Z" fill="#FBB236"/>
<path d="M4.68684 16.8H3.74927V17.7333H4.68684V16.8Z" fill="#D99522"/>
<path d="M4.68684 15.8669H3.74927V16.8002H4.68684V15.8669Z" fill="#FBF236"/>
<path d="M4.68684 14.9333H3.74927V15.8669H4.68684V14.9333Z" fill="#D99522"/>
<path d="M4.68684 14H3.74927V14.9332H4.68684V14Z" fill="#FBF236"/>
<path d="M4.68684 13.0667H3.74927V13.9999H4.68684V13.0667Z" fill="#D99522"/>
<path d="M4.68684 12.1335H3.74927V13.0668H4.68684V12.1335Z" fill="black"/>
<path d="M4.68684 11.2H3.74927V12.1335H4.68684V11.2Z" fill="black"/>
<path d="M4.68684 10.2666H3.74927V11.1998H4.68684V10.2666Z" fill="black"/>
<path d="M4.68684 9.3335H3.74927V10.2667H4.68684V9.3335Z" fill="black"/>
<path d="M4.68684 8.40015H3.74927V9.33339H4.68684V8.40015Z" fill="#A8A8A8"/>
<path d="M4.68684 7.46655H3.74927V8.40013H4.68684V7.46655Z" fill="#A8A8A8"/>
<path d="M4.68684 6.53345H3.74927V7.46669H4.68684V6.53345Z" fill="#A8A8A8"/>
<path d="M4.68684 5.6001H3.74927V6.53334H4.68684V5.6001Z" fill="#A8A8A8"/>
<path d="M4.68684 4.66699H3.74927V5.60024H4.68684V4.66699Z" fill="#C3C3C3"/>
<path d="M4.68684 3.7334H3.74927V4.66698H4.68684V3.7334Z" fill="#A8A8A8"/>
<path d="M4.68684 2.80005H3.74927V3.73329H4.68684V2.80005Z" fill="#C3C3C3"/>
<path d="M4.68684 1.86694H3.74927V2.80019H4.68684V1.86694Z" fill="#C3C3C3"/>
<path d="M4.68684 0.933594H3.74927V1.86684H4.68684V0.933594Z" fill="#D8D8D8"/>
<path d="M4.68684 0H3.74927V0.933582H4.68684V0Z" fill="black"/>
<path d="M3.74924 20.5334H2.81201V21.4667H3.74924V20.5334Z" fill="black"/>
<path d="M3.74924 19.6001H2.81201V20.5333H3.74924V19.6001Z" fill="#FBB236"/>
<path d="M3.74924 18.6665H2.81201V19.6001H3.74924V18.6665Z" fill="#D99522"/>
<path d="M3.74924 17.7334H2.81201V18.6666H3.74924V17.7334Z" fill="#FBF236"/>
<path d="M3.74924 16.8H2.81201V17.7333H3.74924V16.8Z" fill="#D99522"/>
<path d="M3.74924 15.8669H2.81201V16.8002H3.74924V15.8669Z" fill="#FBB236"/>
<path d="M3.74924 14.9333H2.81201V15.8669H3.74924V14.9333Z" fill="#D99522"/>
<path d="M3.74924 14H2.81201V14.9332H3.74924V14Z" fill="#F8FF82"/>
<path d="M3.74924 13.0667H2.81201V13.9999H3.74924V13.0667Z" fill="black"/>
<path d="M3.74924 9.3335H2.81201V10.2667H3.74924V9.3335Z" fill="black"/>
<path d="M3.74924 8.40015H2.81201V9.33339H3.74924V8.40015Z" fill="#A8A8A8"/>
<path d="M3.74924 7.46655H2.81201V8.40013H3.74924V7.46655Z" fill="#A8A8A8"/>
<path d="M3.74924 6.53345H2.81201V7.46669H3.74924V6.53345Z" fill="#A8A8A8"/>
<path d="M3.74924 5.6001H2.81201V6.53334H3.74924V5.6001Z" fill="#C3C3C3"/>
<path d="M3.74924 4.66699H2.81201V5.60024H3.74924V4.66699Z" fill="#A8A8A8"/>
<path d="M3.74924 3.7334H2.81201V4.66698H3.74924V3.7334Z" fill="#C3C3C3"/>
<path d="M3.74924 2.80005H2.81201V3.73329H3.74924V2.80005Z" fill="#C3C3C3"/>
<path d="M3.74924 1.86694H2.81201V2.80019H3.74924V1.86694Z" fill="#C3C3C3"/>
<path d="M3.74924 0.933594H2.81201V1.86684H3.74924V0.933594Z" fill="#C3C3C3"/>
<path d="M3.74924 0H2.81201V0.933582H3.74924V0Z" fill="black"/>
<path d="M2.81199 20.5334H1.87476V21.4667H2.81199V20.5334Z" fill="black"/>
<path d="M2.81199 19.6001H1.87476V20.5333H2.81199V19.6001Z" fill="#FBF236"/>
<path d="M2.81199 18.6665H1.87476V19.6001H2.81199V18.6665Z" fill="#D99522"/>
<path d="M2.81199 17.7334H1.87476V18.6666H2.81199V17.7334Z" fill="#F8FF82"/>
<path d="M2.81199 16.8H1.87476V17.7333H2.81199V16.8Z" fill="#D99522"/>
<path d="M2.81199 15.8669H1.87476V16.8002H2.81199V15.8669Z" fill="#FBF236"/>
<path d="M2.81199 14.9333H1.87476V15.8669H2.81199V14.9333Z" fill="#D99522"/>
<path d="M2.81199 14H1.87476V14.9332H2.81199V14Z" fill="black"/>
<path d="M2.81199 13.0667H1.87476V13.9999H2.81199V13.0667Z" fill="black"/>
<path d="M2.81199 8.40015H1.87476V9.33339H2.81199V8.40015Z" fill="black"/>
<path d="M2.81199 7.46655H1.87476V8.40013H2.81199V7.46655Z" fill="#A8A8A8"/>
<path d="M2.81199 6.53345H1.87476V7.46669H2.81199V6.53345Z" fill="#C3C3C3"/>
<path d="M2.81199 5.6001H1.87476V6.53334H2.81199V5.6001Z" fill="#A8A8A8"/>
<path d="M2.81199 4.66699H1.87476V5.60024H2.81199V4.66699Z" fill="#C3C3C3"/>
<path d="M2.81199 3.7334H1.87476V4.66698H2.81199V3.7334Z" fill="#C3C3C3"/>
<path d="M2.81199 2.80005H1.87476V3.73329H2.81199V2.80005Z" fill="#C3C3C3"/>
<path d="M2.81199 1.86694H1.87476V2.80019H2.81199V1.86694Z" fill="#C3C3C3"/>
<path d="M2.81199 0.933594H1.87476V1.86684H2.81199V0.933594Z" fill="black"/>
<path d="M1.87485 20.5334H0.937622V21.4667H1.87485V20.5334Z" fill="black"/>
<path d="M1.87485 19.6001H0.937622V20.5333H1.87485V19.6001Z" fill="#F8FF82"/>
<path d="M1.87485 18.6665H0.937622V19.6001H1.87485V18.6665Z" fill="#D99522"/>
<path d="M1.87485 17.7334H0.937622V18.6666H1.87485V17.7334Z" fill="black"/>
<path d="M1.87485 16.8H0.937622V17.7333H1.87485V16.8Z" fill="#D99522"/>
<path d="M1.87485 15.8669H0.937622V16.8002H1.87485V15.8669Z" fill="#F8FF82"/>
<path d="M1.87485 14.9333H0.937622V15.8669H1.87485V14.9333Z" fill="black"/>
<path d="M1.87485 7.46655H0.937622V8.40013H1.87485V7.46655Z" fill="black"/>
<path d="M1.87485 6.53345H0.937622V7.46669H1.87485V6.53345Z" fill="black"/>
<path d="M1.87485 5.6001H0.937622V6.53334H1.87485V5.6001Z" fill="black"/>
<path d="M1.87485 4.66699H0.937622V5.60024H1.87485V4.66699Z" fill="black"/>
<path d="M1.87485 3.7334H0.937622V4.66698H1.87485V3.7334Z" fill="black"/>
<path d="M1.87485 2.80005H0.937622V3.73329H1.87485V2.80005Z" fill="black"/>
<path d="M1.87485 1.86694H0.937622V2.80019H1.87485V1.86694Z" fill="black"/>
<path d="M0.93757 20.5334H0V21.4667H0.93757V20.5334Z" fill="black"/>
<path d="M0.93757 19.6001H0V20.5333H0.93757V19.6001Z" fill="black"/>
<path d="M0.93757 18.6665H0V19.6001H0.93757V18.6665Z" fill="black"/>
<path d="M0.93757 16.8H0V17.7333H0.93757V16.8Z" fill="black"/>
<path d="M0.93757 15.8669H0V16.8002H0.93757V15.8669Z" fill="black"/>
<path d="M0.93757 14.9333H0V15.8669H0.93757V14.9333Z" fill="black"/>
</g>
<defs>
<clipPath id="clip0_570_256219">
<rect width="24.3704" height="28" fill="white"/>
</clipPath>
</defs>
</svg>
