<svg width="28" height="28" viewBox="0 0 28 28" fill="none" xmlns="http://www.w3.org/2000/svg">
  <!-- Validator: shield with checkmark -->
  <!-- Shield shape -->
  <path d="M14 2L4 7V14C4 20.075 8.25 25.65 14 27C19.75 25.65 24 20.075 24 14V7L14 2Z" fill="#3E3E3E" stroke="#3E3E3E" stroke-width="0.5"/>
  <path d="M14 3L5 7.5V14C5 19.55 8.85 24.7 14 25.95C19.15 24.7 23 19.55 23 14V7.5L14 3Z" fill="none" stroke="white" stroke-opacity="0.3" stroke-width="0.5"/>
  <!-- Inner shield highlight -->
  <path d="M14 5L7 8.5V14C7 18.6 9.95 22.85 14 24C18.05 22.85 21 18.6 21 14V8.5L14 5Z" fill="#E5C46B" opacity="0.15"/>
  <!-- Pixel-style checkmark -->
  <rect x="9" y="14" width="2" height="2" fill="#4FB848"/>
  <rect x="11" y="16" width="2" height="2" fill="#4FB848"/>
  <rect x="13" y="14" width="2" height="2" fill="#4FB848"/>
  <rect x="15" y="12" width="2" height="2" fill="#4FB848"/>
  <rect x="17" y="10" width="2" height="2" fill="#4FB848"/>
  <!-- Gold accent line at top of shield -->
  <path d="M14 5L8 8V9L14 6L20 9V8L14 5Z" fill="#E5C46B"/>
</svg>
