<svg width="28" height="28" viewBox="0 0 28 28" fill="none" xmlns="http://www.w3.org/2000/svg">
<path d="M27.9997 15.0765H26.9229V16.1538H27.9997V15.0765Z" fill="black"/>
<path d="M27.9997 13.9999H26.9229V15.0766H27.9997V13.9999Z" fill="black"/>
<path d="M27.9997 12.9232H26.9229V14H27.9997V12.9232Z" fill="black"/>
<path d="M27.9997 11.8458H26.9229V12.9231H27.9997V11.8458Z" fill="black"/>
<path d="M26.923 18.3075H25.8457V19.3847H26.923V18.3075Z" fill="black"/>
<path d="M26.923 17.2306H25.8457V18.3073H26.923V17.2306Z" fill="black"/>
<path d="M26.923 16.1539H25.8457V17.2307H26.923V16.1539Z" fill="black"/>
<path d="M26.923 15.0765H25.8457V16.1538H26.923V15.0765Z" fill="#74B65F"/>
<path d="M26.923 13.9999H25.8457V15.0766H26.923V13.9999Z" fill="#74B65F"/>
<path d="M26.923 12.9232H25.8457V14H26.923V12.9232Z" fill="#74B65F"/>
<path d="M26.923 11.8458H25.8457V12.9231H26.923V11.8458Z" fill="#74B65F"/>
<path d="M26.923 10.7692H25.8457V11.846H26.923V10.7692Z" fill="black"/>
<path d="M26.923 9.6923H25.8457V10.7695H26.923V9.6923Z" fill="black"/>
<path d="M26.923 8.61614H25.8457V9.6929H26.923V8.61614Z" fill="black"/>
<path d="M25.8462 20.4615H24.7693V21.5387H25.8462V20.4615Z" fill="black"/>
<path d="M25.8462 19.3846H24.7693V20.4614H25.8462V19.3846Z" fill="black"/>
<path d="M25.8462 18.3075H24.7693V19.3847H25.8462V18.3075Z" fill="#68A350"/>
<path d="M25.8462 17.2306H24.7693V18.3073H25.8462V17.2306Z" fill="#74B65F"/>
<path d="M25.8462 16.1539H24.7693V17.2307H25.8462V16.1539Z" fill="#74B65F"/>
<path d="M25.8462 15.0765H24.7693V16.1538H25.8462V15.0765Z" fill="#74B65F"/>
<path d="M25.8462 13.9999H24.7693V15.0766H25.8462V13.9999Z" fill="#74B65F"/>
<path d="M25.8462 12.9232H24.7693V14H25.8462V12.9232Z" fill="#74B65F"/>
<path d="M25.8462 11.8458H24.7693V12.9231H25.8462V11.8458Z" fill="#74B65F"/>
<path d="M25.8462 10.7692H24.7693V11.846H25.8462V10.7692Z" fill="#74B65F"/>
<path d="M25.8462 9.6923H24.7693V10.7695H25.8462V9.6923Z" fill="#74B65F"/>
<path d="M25.8462 8.61614H24.7693V9.6929H25.8462V8.61614Z" fill="#82C66A"/>
<path d="M25.8462 7.53875H24.7693V8.61552H25.8462V7.53875Z" fill="black"/>
<path d="M25.8462 6.46161H24.7693V7.53886H25.8462V6.46161Z" fill="black"/>
<path d="M24.7692 21.5386H23.6919V22.6154H24.7692V21.5386Z" fill="black"/>
<path d="M24.7692 20.4615H23.6919V21.5387H24.7692V20.4615Z" fill="#468430"/>
<path d="M24.7692 19.3846H23.6919V20.4614H24.7692V19.3846Z" fill="#68A350"/>
<path d="M24.7692 18.3075H23.6919V19.3847H24.7692V18.3075Z" fill="#74B65F"/>
<path d="M24.7692 17.2306H23.6919V18.3073H24.7692V17.2306Z" fill="#74B65F"/>
<path d="M24.7692 16.1539H23.6919V17.2307H24.7692V16.1539Z" fill="#74B65F"/>
<path d="M24.7692 15.0765H23.6919V16.1538H24.7692V15.0765Z" fill="#74B65F"/>
<path d="M24.7692 13.9999H23.6919V15.0766H24.7692V13.9999Z" fill="#74B65F"/>
<path d="M24.7692 12.9232H23.6919V14H24.7692V12.9232Z" fill="#74B65F"/>
<path d="M24.7692 11.8458H23.6919V12.9231H24.7692V11.8458Z" fill="#74B65F"/>
<path d="M24.7692 10.7692H23.6919V11.846H24.7692V10.7692Z" fill="#74B65F"/>
<path d="M24.7692 9.6923H23.6919V10.7695H24.7692V9.6923Z" fill="#74B65F"/>
<path d="M24.7692 8.61614H23.6919V9.6929H24.7692V8.61614Z" fill="#74B65F"/>
<path d="M24.7692 7.53875H23.6919V8.61552H24.7692V7.53875Z" fill="#82C66A"/>
<path d="M24.7692 6.46161H23.6919V7.53886H24.7692V6.46161Z" fill="#84D366"/>
<path d="M24.7692 5.38472H23.6919V6.46149H24.7692V5.38472Z" fill="black"/>
<path d="M23.6921 22.616H22.6153V23.6928H23.6921V22.616Z" fill="black"/>
<path d="M23.6921 21.5386H22.6153V22.6154H23.6921V21.5386Z" fill="#468430"/>
<path d="M23.6921 20.4615H22.6153V21.5387H23.6921V20.4615Z" fill="#68A350"/>
<path d="M23.6921 19.3846H22.6153V20.4614H23.6921V19.3846Z" fill="#74B65F"/>
<path d="M23.6921 18.3075H22.6153V19.3847H23.6921V18.3075Z" fill="#74B65F"/>
<path d="M23.6921 17.2306H22.6153V18.3073H23.6921V17.2306Z" fill="#74B65F"/>
<path d="M23.6921 16.1539H22.6153V17.2307H23.6921V16.1539Z" fill="#74B65F"/>
<path d="M23.6921 15.0765H22.6153V16.1538H23.6921V15.0765Z" fill="#74B65F"/>
<path d="M23.6921 13.9999H22.6153V15.0766H23.6921V13.9999Z" fill="#74B65F"/>
<path d="M23.6921 12.9232H22.6153V14H23.6921V12.9232Z" fill="#74B65F"/>
<path d="M23.6921 11.8458H22.6153V12.9231H23.6921V11.8458Z" fill="#74B65F"/>
<path d="M23.6921 10.7692H22.6153V11.846H23.6921V10.7692Z" fill="white"/>
<path d="M23.6921 9.6923H22.6153V10.7695H23.6921V9.6923Z" fill="#74B65F"/>
<path d="M23.6921 8.61614H22.6153V9.6929H23.6921V8.61614Z" fill="#74B65F"/>
<path d="M23.6921 7.53875H22.6153V8.61552H23.6921V7.53875Z" fill="#74B65F"/>
<path d="M23.6921 6.46161H22.6153V7.53886H23.6921V6.46161Z" fill="#82C66A"/>
<path d="M23.6921 5.38472H22.6153V6.46149H23.6921V5.38472Z" fill="#84D366"/>
<path d="M23.6921 4.30758H22.6153V5.38482H23.6921V4.30758Z" fill="black"/>
<path d="M22.615 23.6922H21.5381V24.7694H22.615V23.6922Z" fill="black"/>
<path d="M22.615 22.616H21.5381V23.6928H22.615V22.616Z" fill="#468430"/>
<path d="M22.615 21.5386H21.5381V22.6154H22.615V21.5386Z" fill="#68A350"/>
<path d="M22.615 20.4615H21.5381V21.5387H22.615V20.4615Z" fill="#74B65F"/>
<path d="M22.615 19.3846H21.5381V20.4614H22.615V19.3846Z" fill="#74B65F"/>
<path d="M22.615 18.3075H21.5381V19.3847H22.615V18.3075Z" fill="#74B65F"/>
<path d="M22.615 17.2306H21.5381V18.3073H22.615V17.2306Z" fill="#74B65F"/>
<path d="M22.615 16.1539H21.5381V17.2307H22.615V16.1539Z" fill="#74B65F"/>
<path d="M22.615 15.0765H21.5381V16.1538H22.615V15.0765Z" fill="#74B65F"/>
<path d="M22.615 13.9999H21.5381V15.0766H22.615V13.9999Z" fill="#74B65F"/>
<path d="M22.615 12.9232H21.5381V14H22.615V12.9232Z" fill="#74B65F"/>
<path d="M22.615 11.8458H21.5381V12.9231H22.615V11.8458Z" fill="white"/>
<path d="M22.615 10.7692H21.5381V11.846H22.615V10.7692Z" fill="white"/>
<path d="M22.615 9.6923H21.5381V10.7695H22.615V9.6923Z" fill="white"/>
<path d="M22.615 8.61614H21.5381V9.6929H22.615V8.61614Z" fill="#74B65F"/>
<path d="M22.615 7.53875H21.5381V8.61552H22.615V7.53875Z" fill="#74B65F"/>
<path d="M22.615 6.46161H21.5381V7.53886H22.615V6.46161Z" fill="#74B65F"/>
<path d="M22.615 5.38472H21.5381V6.46149H22.615V5.38472Z" fill="#82C66A"/>
<path d="M22.615 4.30758H21.5381V5.38482H22.615V4.30758Z" fill="#84D366"/>
<path d="M22.615 3.23068H21.5381V4.30745H22.615V3.23068Z" fill="black"/>
<path d="M21.5388 24.7696H20.4615V25.8463H21.5388V24.7696Z" fill="black"/>
<path d="M21.5388 23.6922H20.4615V24.7694H21.5388V23.6922Z" fill="#468430"/>
<path d="M21.5388 22.616H20.4615V23.6928H21.5388V22.616Z" fill="#68A350"/>
<path d="M21.5388 21.5386H20.4615V22.6154H21.5388V21.5386Z" fill="#74B65F"/>
<path d="M21.5388 20.4615H20.4615V21.5387H21.5388V20.4615Z" fill="#74B65F"/>
<path d="M21.5388 19.3846H20.4615V20.4614H21.5388V19.3846Z" fill="#74B65F"/>
<path d="M21.5388 18.3075H20.4615V19.3847H21.5388V18.3075Z" fill="#74B65F"/>
<path d="M21.5388 17.2306H20.4615V18.3073H21.5388V17.2306Z" fill="#74B65F"/>
<path d="M21.5388 16.1539H20.4615V17.2307H21.5388V16.1539Z" fill="#74B65F"/>
<path d="M21.5388 15.0765H20.4615V16.1538H21.5388V15.0765Z" fill="#74B65F"/>
<path d="M21.5388 13.9999H20.4615V15.0766H21.5388V13.9999Z" fill="#74B65F"/>
<path d="M21.5388 12.9232H20.4615V14H21.5388V12.9232Z" fill="white"/>
<path d="M21.5388 11.8458H20.4615V12.9231H21.5388V11.8458Z" fill="white"/>
<path d="M21.5388 10.7692H20.4615V11.846H21.5388V10.7692Z" fill="white"/>
<path d="M21.5388 9.6923H20.4615V10.7695H21.5388V9.6923Z" fill="white"/>
<path d="M21.5388 8.61614H20.4615V9.6929H21.5388V8.61614Z" fill="white"/>
<path d="M21.5388 7.53875H20.4615V8.61552H21.5388V7.53875Z" fill="#74B65F"/>
<path d="M21.5388 6.46161H20.4615V7.53886H21.5388V6.46161Z" fill="#74B65F"/>
<path d="M21.5388 5.38472H20.4615V6.46149H21.5388V5.38472Z" fill="#74B65F"/>
<path d="M21.5388 4.30758H20.4615V5.38482H21.5388V4.30758Z" fill="#ABF48E"/>
<path d="M21.5388 3.23068H20.4615V4.30745H21.5388V3.23068Z" fill="#84D366"/>
<path d="M21.5388 2.15403H20.4615V3.2308H21.5388V2.15403Z" fill="black"/>
<path d="M20.4614 24.7696H19.3846V25.8463H20.4614V24.7696Z" fill="black"/>
<path d="M20.4614 23.6922H19.3846V24.7694H20.4614V23.6922Z" fill="#468430"/>
<path d="M20.4614 22.616H19.3846V23.6928H20.4614V22.616Z" fill="#68A350"/>
<path d="M20.4614 21.5386H19.3846V22.6154H20.4614V21.5386Z" fill="#74B65F"/>
<path d="M20.4614 20.4615H19.3846V21.5387H20.4614V20.4615Z" fill="#74B65F"/>
<path d="M20.4614 19.3846H19.3846V20.4614H20.4614V19.3846Z" fill="#74B65F"/>
<path d="M20.4614 18.3075H19.3846V19.3847H20.4614V18.3075Z" fill="#74B65F"/>
<path d="M20.4614 17.2306H19.3846V18.3073H20.4614V17.2306Z" fill="#74B65F"/>
<path d="M20.4614 16.1539H19.3846V17.2307H20.4614V16.1539Z" fill="#74B65F"/>
<path d="M20.4614 15.0765H19.3846V16.1538H20.4614V15.0765Z" fill="#74B65F"/>
<path d="M20.4614 13.9999H19.3846V15.0766H20.4614V13.9999Z" fill="white"/>
<path d="M20.4614 12.9232H19.3846V14H20.4614V12.9232Z" fill="white"/>
<path d="M20.4614 11.8458H19.3846V12.9231H20.4614V11.8458Z" fill="white"/>
<path d="M20.4614 10.7692H19.3846V11.846H20.4614V10.7692Z" fill="white"/>
<path d="M20.4614 9.6923H19.3846V10.7695H20.4614V9.6923Z" fill="white"/>
<path d="M20.4614 8.61614H19.3846V9.6929H20.4614V8.61614Z" fill="white"/>
<path d="M20.4614 7.53875H19.3846V8.61552H20.4614V7.53875Z" fill="white"/>
<path d="M20.4614 6.46161H19.3846V7.53886H20.4614V6.46161Z" fill="#74B65F"/>
<path d="M20.4614 5.38472H19.3846V6.46149H20.4614V5.38472Z" fill="#74B65F"/>
<path d="M20.4614 4.30758H19.3846V5.38482H20.4614V4.30758Z" fill="#CBFFB0"/>
<path d="M20.4614 3.23068H19.3846V4.30745H20.4614V3.23068Z" fill="#84D366"/>
<path d="M20.4614 2.15403H19.3846V3.2308H20.4614V2.15403Z" fill="black"/>
<path d="M19.3848 25.8457H18.3075V26.923H19.3848V25.8457Z" fill="black"/>
<path d="M19.3848 24.7696H18.3075V25.8463H19.3848V24.7696Z" fill="#468430"/>
<path d="M19.3848 23.6922H18.3075V24.7694H19.3848V23.6922Z" fill="#68A350"/>
<path d="M19.3848 22.616H18.3075V23.6928H19.3848V22.616Z" fill="#74B65F"/>
<path d="M19.3848 21.5386H18.3075V22.6154H19.3848V21.5386Z" fill="#74B65F"/>
<path d="M19.3848 20.4615H18.3075V21.5387H19.3848V20.4615Z" fill="#74B65F"/>
<path d="M19.3848 19.3846H18.3075V20.4614H19.3848V19.3846Z" fill="#74B65F"/>
<path d="M19.3848 18.3075H18.3075V19.3847H19.3848V18.3075Z" fill="#74B65F"/>
<path d="M19.3848 17.2306H18.3075V18.3073H19.3848V17.2306Z" fill="#74B65F"/>
<path d="M19.3848 16.1539H18.3075V17.2307H19.3848V16.1539Z" fill="#74B65F"/>
<path d="M19.3848 15.0765H18.3075V16.1538H19.3848V15.0765Z" fill="white"/>
<path d="M19.3848 13.9999H18.3075V15.0766H19.3848V13.9999Z" fill="white"/>
<path d="M19.3848 12.9232H18.3075V14H19.3848V12.9232Z" fill="white"/>
<path d="M19.3848 11.8458H18.3075V12.9231H19.3848V11.8458Z" fill="white"/>
<path d="M19.3848 10.7692H18.3075V11.846H19.3848V10.7692Z" fill="white"/>
<path d="M19.3848 9.6923H18.3075V10.7695H19.3848V9.6923Z" fill="white"/>
<path d="M19.3848 8.61614H18.3075V9.6929H19.3848V8.61614Z" fill="white"/>
<path d="M19.3848 7.53875H18.3075V8.61552H19.3848V7.53875Z" fill="#74B65F"/>
<path d="M19.3848 6.46161H18.3075V7.53886H19.3848V6.46161Z" fill="#74B65F"/>
<path d="M19.3848 5.38472H18.3075V6.46149H19.3848V5.38472Z" fill="#74B65F"/>
<path d="M19.3848 4.30758H18.3075V5.38482H19.3848V4.30758Z" fill="#74B65F"/>
<path d="M19.3848 3.23068H18.3075V4.30745H19.3848V3.23068Z" fill="#ABF48E"/>
<path d="M19.3848 2.15403H18.3075V3.2308H19.3848V2.15403Z" fill="#84D366"/>
<path d="M19.3848 1.07665H18.3075V2.15389H19.3848V1.07665Z" fill="black"/>
<path d="M18.3074 25.8457H17.2306V26.923H18.3074V25.8457Z" fill="black"/>
<path d="M18.3074 24.7696H17.2306V25.8463H18.3074V24.7696Z" fill="#468430"/>
<path d="M18.3074 23.6922H17.2306V24.7694H18.3074V23.6922Z" fill="#68A350"/>
<path d="M18.3074 22.616H17.2306V23.6928H18.3074V22.616Z" fill="#74B65F"/>
<path d="M18.3074 21.5386H17.2306V22.6154H18.3074V21.5386Z" fill="#74B65F"/>
<path d="M18.3074 20.4615H17.2306V21.5387H18.3074V20.4615Z" fill="#74B65F"/>
<path d="M18.3074 19.3846H17.2306V20.4614H18.3074V19.3846Z" fill="#74B65F"/>
<path d="M18.3074 18.3075H17.2306V19.3847H18.3074V18.3075Z" fill="#74B65F"/>
<path d="M18.3074 17.2306H17.2306V18.3073H18.3074V17.2306Z" fill="#74B65F"/>
<path d="M18.3074 16.1539H17.2306V17.2307H18.3074V16.1539Z" fill="white"/>
<path d="M18.3074 15.0765H17.2306V16.1538H18.3074V15.0765Z" fill="white"/>
<path d="M18.3074 13.9999H17.2306V15.0766H18.3074V13.9999Z" fill="white"/>
<path d="M18.3074 12.9232H17.2306V14H18.3074V12.9232Z" fill="white"/>
<path d="M18.3074 11.8458H17.2306V12.9231H18.3074V11.8458Z" fill="white"/>
<path d="M18.3074 10.7692H17.2306V11.846H18.3074V10.7692Z" fill="white"/>
<path d="M18.3074 9.6923H17.2306V10.7695H18.3074V9.6923Z" fill="white"/>
<path d="M18.3074 8.61614H17.2306V9.6929H18.3074V8.61614Z" fill="#74B65F"/>
<path d="M18.3074 7.53875H17.2306V8.61552H18.3074V7.53875Z" fill="#74B65F"/>
<path d="M18.3074 6.46161H17.2306V7.53886H18.3074V6.46161Z" fill="#74B65F"/>
<path d="M18.3074 5.38472H17.2306V6.46149H18.3074V5.38472Z" fill="#74B65F"/>
<path d="M18.3074 4.30758H17.2306V5.38482H18.3074V4.30758Z" fill="#74B65F"/>
<path d="M18.3074 3.23068H17.2306V4.30745H18.3074V3.23068Z" fill="#CBFFB0"/>
<path d="M18.3074 2.15403H17.2306V3.2308H18.3074V2.15403Z" fill="#84D366"/>
<path d="M18.3074 1.07665H17.2306V2.15389H18.3074V1.07665Z" fill="black"/>
<path d="M17.2305 25.8457H16.1537V26.923H17.2305V25.8457Z" fill="black"/>
<path d="M17.2305 24.7696H16.1537V25.8463H17.2305V24.7696Z" fill="#468430"/>
<path d="M17.2305 23.6922H16.1537V24.7694H17.2305V23.6922Z" fill="#68A350"/>
<path d="M17.2305 22.616H16.1537V23.6928H17.2305V22.616Z" fill="#74B65F"/>
<path d="M17.2305 21.5386H16.1537V22.6154H17.2305V21.5386Z" fill="#74B65F"/>
<path d="M17.2305 20.4615H16.1537V21.5387H17.2305V20.4615Z" fill="#74B65F"/>
<path d="M17.2305 19.3846H16.1537V20.4614H17.2305V19.3846Z" fill="#74B65F"/>
<path d="M17.2305 18.3075H16.1537V19.3847H17.2305V18.3075Z" fill="#74B65F"/>
<path d="M17.2305 17.2306H16.1537V18.3073H17.2305V17.2306Z" fill="white"/>
<path d="M17.2305 16.1539H16.1537V17.2307H17.2305V16.1539Z" fill="white"/>
<path d="M17.2305 15.0765H16.1537V16.1538H17.2305V15.0765Z" fill="white"/>
<path d="M17.2305 13.9999H16.1537V15.0766H17.2305V13.9999Z" fill="white"/>
<path d="M17.2305 12.9232H16.1537V14H17.2305V12.9232Z" fill="white"/>
<path d="M17.2305 11.8458H16.1537V12.9231H17.2305V11.8458Z" fill="white"/>
<path d="M17.2305 10.7692H16.1537V11.846H17.2305V10.7692Z" fill="white"/>
<path d="M17.2305 9.6923H16.1537V10.7695H17.2305V9.6923Z" fill="#74B65F"/>
<path d="M17.2305 8.61614H16.1537V9.6929H17.2305V8.61614Z" fill="#74B65F"/>
<path d="M17.2305 7.53875H16.1537V8.61552H17.2305V7.53875Z" fill="#74B65F"/>
<path d="M17.2305 6.46161H16.1537V7.53886H17.2305V6.46161Z" fill="#74B65F"/>
<path d="M17.2305 5.38472H16.1537V6.46149H17.2305V5.38472Z" fill="#74B65F"/>
<path d="M17.2305 4.30758H16.1537V5.38482H17.2305V4.30758Z" fill="#74B65F"/>
<path d="M17.2305 3.23068H16.1537V4.30745H17.2305V3.23068Z" fill="#ABF48E"/>
<path d="M17.2305 2.15403H16.1537V3.2308H17.2305V2.15403Z" fill="#84D366"/>
<path d="M17.2305 1.07665H16.1537V2.15389H17.2305V1.07665Z" fill="black"/>
<path d="M16.1541 26.9231H15.0768V27.9999H16.1541V26.9231Z" fill="black"/>
<path d="M16.1541 25.8457H15.0768V26.923H16.1541V25.8457Z" fill="#468430"/>
<path d="M16.1541 24.7696H15.0768V25.8463H16.1541V24.7696Z" fill="#68A350"/>
<path d="M16.1541 23.6922H15.0768V24.7694H16.1541V23.6922Z" fill="#74B65F"/>
<path d="M16.1541 22.616H15.0768V23.6928H16.1541V22.616Z" fill="#74B65F"/>
<path d="M16.1541 21.5386H15.0768V22.6154H16.1541V21.5386Z" fill="#74B65F"/>
<path d="M16.1541 20.4615H15.0768V21.5387H16.1541V20.4615Z" fill="#74B65F"/>
<path d="M16.1541 19.3846H15.0768V20.4614H16.1541V19.3846Z" fill="#74B65F"/>
<path d="M16.1541 18.3075H15.0768V19.3847H16.1541V18.3075Z" fill="white"/>
<path d="M16.1541 17.2306H15.0768V18.3073H16.1541V17.2306Z" fill="white"/>
<path d="M16.1541 16.1539H15.0768V17.2307H16.1541V16.1539Z" fill="white"/>
<path d="M16.1541 15.0765H15.0768V16.1538H16.1541V15.0765Z" fill="white"/>
<path d="M16.1541 13.9999H15.0768V15.0766H16.1541V13.9999Z" fill="white"/>
<path d="M16.1541 12.9232H15.0768V14H16.1541V12.9232Z" fill="white"/>
<path d="M16.1541 11.8458H15.0768V12.9231H16.1541V11.8458Z" fill="white"/>
<path d="M16.1541 10.7692H15.0768V11.846H16.1541V10.7692Z" fill="#74B65F"/>
<path d="M16.1541 9.6923H15.0768V10.7695H16.1541V9.6923Z" fill="#74B65F"/>
<path d="M16.1541 8.61614H15.0768V9.6929H16.1541V8.61614Z" fill="#74B65F"/>
<path d="M16.1541 7.53875H15.0768V8.61552H16.1541V7.53875Z" fill="#74B65F"/>
<path d="M16.1541 6.46161H15.0768V7.53886H16.1541V6.46161Z" fill="#74B65F"/>
<path d="M16.1541 5.38472H15.0768V6.46149H16.1541V5.38472Z" fill="#74B65F"/>
<path d="M16.1541 4.30758H15.0768V5.38482H16.1541V4.30758Z" fill="#74B65F"/>
<path d="M16.1541 3.23068H15.0768V4.30745H16.1541V3.23068Z" fill="#82C66A"/>
<path d="M16.1541 2.15403H15.0768V3.2308H16.1541V2.15403Z" fill="#ABF48E"/>
<path d="M16.1541 1.07665H15.0768V2.15389H16.1541V1.07665Z" fill="#84D366"/>
<path d="M16.1541 0H15.0768V1.07677H16.1541V0Z" fill="black"/>
<path d="M15.0767 26.9231H13.9999V27.9999H15.0767V26.9231Z" fill="black"/>
<path d="M15.0767 25.8457H13.9999V26.923H15.0767V25.8457Z" fill="#468430"/>
<path d="M15.0767 24.7696H13.9999V25.8463H15.0767V24.7696Z" fill="#68A350"/>
<path d="M15.0767 23.6922H13.9999V24.7694H15.0767V23.6922Z" fill="#74B65F"/>
<path d="M15.0767 22.616H13.9999V23.6928H15.0767V22.616Z" fill="#74B65F"/>
<path d="M15.0767 21.5386H13.9999V22.6154H15.0767V21.5386Z" fill="#74B65F"/>
<path d="M15.0767 20.4615H13.9999V21.5387H15.0767V20.4615Z" fill="#74B65F"/>
<path d="M15.0767 19.3846H13.9999V20.4614H15.0767V19.3846Z" fill="white"/>
<path d="M15.0767 18.3075H13.9999V19.3847H15.0767V18.3075Z" fill="white"/>
<path d="M15.0767 17.2306H13.9999V18.3073H15.0767V17.2306Z" fill="white"/>
<path d="M15.0767 16.1539H13.9999V17.2307H15.0767V16.1539Z" fill="white"/>
<path d="M15.0767 15.0765H13.9999V16.1538H15.0767V15.0765Z" fill="white"/>
<path d="M15.0767 13.9999H13.9999V15.0766H15.0767V13.9999Z" fill="white"/>
<path d="M15.0767 12.9232H13.9999V14H15.0767V12.9232Z" fill="white"/>
<path d="M15.0767 11.8458H13.9999V12.9231H15.0767V11.8458Z" fill="#74B65F"/>
<path d="M15.0767 10.7692H13.9999V11.846H15.0767V10.7692Z" fill="#74B65F"/>
<path d="M15.0767 9.6923H13.9999V10.7695H15.0767V9.6923Z" fill="#74B65F"/>
<path d="M15.0767 8.61614H13.9999V9.6929H15.0767V8.61614Z" fill="#74B65F"/>
<path d="M15.0767 7.53875H13.9999V8.61552H15.0767V7.53875Z" fill="#74B65F"/>
<path d="M15.0767 6.46161H13.9999V7.53886H15.0767V6.46161Z" fill="#74B65F"/>
<path d="M15.0767 5.38472H13.9999V6.46149H15.0767V5.38472Z" fill="#74B65F"/>
<path d="M15.0767 4.30758H13.9999V5.38482H15.0767V4.30758Z" fill="#74B65F"/>
<path d="M15.0767 3.23068H13.9999V4.30745H15.0767V3.23068Z" fill="#82C66A"/>
<path d="M15.0767 2.15403H13.9999V3.2308H15.0767V2.15403Z" fill="#ABF48E"/>
<path d="M15.0767 1.07665H13.9999V2.15389H15.0767V1.07665Z" fill="#84D366"/>
<path d="M15.0767 0H13.9999V1.07677H15.0767V0Z" fill="black"/>
<path d="M14.0005 26.9231H12.9232V27.9999H14.0005V26.9231Z" fill="black"/>
<path d="M14.0005 25.8457H12.9232V26.923H14.0005V25.8457Z" fill="#468430"/>
<path d="M14.0005 24.7696H12.9232V25.8463H14.0005V24.7696Z" fill="#68A350"/>
<path d="M14.0005 23.6922H12.9232V24.7694H14.0005V23.6922Z" fill="#74B65F"/>
<path d="M14.0005 22.616H12.9232V23.6928H14.0005V22.616Z" fill="#74B65F"/>
<path d="M14.0005 21.5386H12.9232V22.6154H14.0005V21.5386Z" fill="#74B65F"/>
<path d="M14.0005 20.4615H12.9232V21.5387H14.0005V20.4615Z" fill="white"/>
<path d="M14.0005 19.3846H12.9232V20.4614H14.0005V19.3846Z" fill="white"/>
<path d="M14.0005 18.3075H12.9232V19.3847H14.0005V18.3075Z" fill="white"/>
<path d="M14.0005 17.2306H12.9232V18.3073H14.0005V17.2306Z" fill="white"/>
<path d="M14.0005 16.1539H12.9232V17.2307H14.0005V16.1539Z" fill="white"/>
<path d="M14.0005 15.0765H12.9232V16.1538H14.0005V15.0765Z" fill="white"/>
<path d="M14.0005 13.9999H12.9232V15.0766H14.0005V13.9999Z" fill="white"/>
<path d="M14.0005 12.9232H12.9232V14H14.0005V12.9232Z" fill="#74B65F"/>
<path d="M14.0005 11.8458H12.9232V12.9231H14.0005V11.8458Z" fill="#74B65F"/>
<path d="M14.0005 10.7692H12.9232V11.846H14.0005V10.7692Z" fill="#74B65F"/>
<path d="M14.0005 9.6923H12.9232V10.7695H14.0005V9.6923Z" fill="#74B65F"/>
<path d="M14.0005 8.61614H12.9232V9.6929H14.0005V8.61614Z" fill="#74B65F"/>
<path d="M14.0005 7.53875H12.9232V8.61552H14.0005V7.53875Z" fill="#74B65F"/>
<path d="M14.0005 6.46161H12.9232V7.53886H14.0005V6.46161Z" fill="#74B65F"/>
<path d="M14.0005 5.38472H12.9232V6.46149H14.0005V5.38472Z" fill="#74B65F"/>
<path d="M14.0005 4.30758H12.9232V5.38482H14.0005V4.30758Z" fill="#74B65F"/>
<path d="M14.0005 3.23068H12.9232V4.30745H14.0005V3.23068Z" fill="#82C66A"/>
<path d="M14.0005 2.15403H12.9232V3.2308H14.0005V2.15403Z" fill="#CBFFB0"/>
<path d="M14.0005 1.07665H12.9232V2.15389H14.0005V1.07665Z" fill="#84D366"/>
<path d="M14.0005 0H12.9232V1.07677H14.0005V0Z" fill="black"/>
<path d="M12.9232 26.9231H11.8463V27.9999H12.9232V26.9231Z" fill="black"/>
<path d="M12.9232 25.8457H11.8463V26.923H12.9232V25.8457Z" fill="#468430"/>
<path d="M12.9232 24.7696H11.8463V25.8463H12.9232V24.7696Z" fill="#68A350"/>
<path d="M12.9232 23.6922H11.8463V24.7694H12.9232V23.6922Z" fill="#74B65F"/>
<path d="M12.9232 22.616H11.8463V23.6928H12.9232V22.616Z" fill="#74B65F"/>
<path d="M12.9232 21.5386H11.8463V22.6154H12.9232V21.5386Z" fill="#74B65F"/>
<path d="M12.9232 20.4615H11.8463V21.5387H12.9232V20.4615Z" fill="#74B65F"/>
<path d="M12.9232 19.3846H11.8463V20.4614H12.9232V19.3846Z" fill="white"/>
<path d="M12.9232 18.3075H11.8463V19.3847H12.9232V18.3075Z" fill="white"/>
<path d="M12.9232 17.2306H11.8463V18.3073H12.9232V17.2306Z" fill="white"/>
<path d="M12.9232 16.1539H11.8463V17.2307H12.9232V16.1539Z" fill="white"/>
<path d="M12.9232 15.0765H11.8463V16.1538H12.9232V15.0765Z" fill="white"/>
<path d="M12.9232 13.9999H11.8463V15.0766H12.9232V13.9999Z" fill="white"/>
<path d="M12.9232 12.9232H11.8463V14H12.9232V12.9232Z" fill="white"/>
<path d="M12.9232 11.8458H11.8463V12.9231H12.9232V11.8458Z" fill="#74B65F"/>
<path d="M12.9232 10.7692H11.8463V11.846H12.9232V10.7692Z" fill="#74B65F"/>
<path d="M12.9232 9.6923H11.8463V10.7695H12.9232V9.6923Z" fill="#74B65F"/>
<path d="M12.9232 8.61614H11.8463V9.6929H12.9232V8.61614Z" fill="#74B65F"/>
<path d="M12.9232 7.53875H11.8463V8.61552H12.9232V7.53875Z" fill="#74B65F"/>
<path d="M12.9232 6.46161H11.8463V7.53886H12.9232V6.46161Z" fill="#74B65F"/>
<path d="M12.9232 5.38472H11.8463V6.46149H12.9232V5.38472Z" fill="#74B65F"/>
<path d="M12.9232 4.30758H11.8463V5.38482H12.9232V4.30758Z" fill="#74B65F"/>
<path d="M12.9232 3.23068H11.8463V4.30745H12.9232V3.23068Z" fill="#82C66A"/>
<path d="M12.9232 2.15403H11.8463V3.2308H12.9232V2.15403Z" fill="#CBFFB0"/>
<path d="M12.9232 1.07665H11.8463V2.15389H12.9232V1.07665Z" fill="#84D366"/>
<path d="M12.9232 0H11.8463V1.07677H12.9232V0Z" fill="black"/>
<path d="M11.8458 25.8457H10.7689V26.923H11.8458V25.8457Z" fill="black"/>
<path d="M11.8458 24.7696H10.7689V25.8463H11.8458V24.7696Z" fill="#468430"/>
<path d="M11.8458 23.6922H10.7689V24.7694H11.8458V23.6922Z" fill="#68A350"/>
<path d="M11.8458 22.616H10.7689V23.6928H11.8458V22.616Z" fill="#74B65F"/>
<path d="M11.8458 21.5386H10.7689V22.6154H11.8458V21.5386Z" fill="#74B65F"/>
<path d="M11.8458 20.4615H10.7689V21.5387H11.8458V20.4615Z" fill="#74B65F"/>
<path d="M11.8458 19.3846H10.7689V20.4614H11.8458V19.3846Z" fill="#74B65F"/>
<path d="M11.8458 18.3075H10.7689V19.3847H11.8458V18.3075Z" fill="white"/>
<path d="M11.8458 17.2306H10.7689V18.3073H11.8458V17.2306Z" fill="white"/>
<path d="M11.8458 16.1539H10.7689V17.2307H11.8458V16.1539Z" fill="white"/>
<path d="M11.8458 15.0765H10.7689V16.1538H11.8458V15.0765Z" fill="white"/>
<path d="M11.8458 13.9999H10.7689V15.0766H11.8458V13.9999Z" fill="white"/>
<path d="M11.8458 12.9232H10.7689V14H11.8458V12.9232Z" fill="white"/>
<path d="M11.8458 11.8458H10.7689V12.9231H11.8458V11.8458Z" fill="white"/>
<path d="M11.8458 10.7692H10.7689V11.846H11.8458V10.7692Z" fill="#74B65F"/>
<path d="M11.8458 9.6923H10.7689V10.7695H11.8458V9.6923Z" fill="#74B65F"/>
<path d="M11.8458 8.61614H10.7689V9.6929H11.8458V8.61614Z" fill="#74B65F"/>
<path d="M11.8458 7.53875H10.7689V8.61552H11.8458V7.53875Z" fill="#74B65F"/>
<path d="M11.8458 6.46161H10.7689V7.53886H11.8458V6.46161Z" fill="#74B65F"/>
<path d="M11.8458 5.38472H10.7689V6.46149H11.8458V5.38472Z" fill="#74B65F"/>
<path d="M11.8458 4.30758H10.7689V5.38482H11.8458V4.30758Z" fill="#74B65F"/>
<path d="M11.8458 3.23068H10.7689V4.30745H11.8458V3.23068Z" fill="#ABF48E"/>
<path d="M11.8458 2.15403H10.7689V3.2308H11.8458V2.15403Z" fill="#84D366"/>
<path d="M11.8458 1.07665H10.7689V2.15389H11.8458V1.07665Z" fill="black"/>
<path d="M10.7696 25.8457H9.6923V26.923H10.7696V25.8457Z" fill="black"/>
<path d="M10.7696 24.7696H9.6923V25.8463H10.7696V24.7696Z" fill="#468430"/>
<path d="M10.7696 23.6922H9.6923V24.7694H10.7696V23.6922Z" fill="#68A350"/>
<path d="M10.7696 22.616H9.6923V23.6928H10.7696V22.616Z" fill="#74B65F"/>
<path d="M10.7696 21.5386H9.6923V22.6154H10.7696V21.5386Z" fill="#74B65F"/>
<path d="M10.7696 20.4615H9.6923V21.5387H10.7696V20.4615Z" fill="#74B65F"/>
<path d="M10.7696 19.3846H9.6923V20.4614H10.7696V19.3846Z" fill="#74B65F"/>
<path d="M10.7696 18.3075H9.6923V19.3847H10.7696V18.3075Z" fill="#74B65F"/>
<path d="M10.7696 17.2306H9.6923V18.3073H10.7696V17.2306Z" fill="white"/>
<path d="M10.7696 16.1539H9.6923V17.2307H10.7696V16.1539Z" fill="white"/>
<path d="M10.7696 15.0765H9.6923V16.1538H10.7696V15.0765Z" fill="white"/>
<path d="M10.7696 13.9999H9.6923V15.0766H10.7696V13.9999Z" fill="white"/>
<path d="M10.7696 12.9232H9.6923V14H10.7696V12.9232Z" fill="white"/>
<path d="M10.7696 11.8458H9.6923V12.9231H10.7696V11.8458Z" fill="white"/>
<path d="M10.7696 10.7692H9.6923V11.846H10.7696V10.7692Z" fill="white"/>
<path d="M10.7696 9.6923H9.6923V10.7695H10.7696V9.6923Z" fill="#74B65F"/>
<path d="M10.7696 8.61614H9.6923V9.6929H10.7696V8.61614Z" fill="#74B65F"/>
<path d="M10.7696 7.53875H9.6923V8.61552H10.7696V7.53875Z" fill="#74B65F"/>
<path d="M10.7696 6.46161H9.6923V7.53886H10.7696V6.46161Z" fill="#74B65F"/>
<path d="M10.7696 5.38472H9.6923V6.46149H10.7696V5.38472Z" fill="#74B65F"/>
<path d="M10.7696 4.30758H9.6923V5.38482H10.7696V4.30758Z" fill="#74B65F"/>
<path d="M10.7696 3.23068H9.6923V4.30745H10.7696V3.23068Z" fill="#CBFFB0"/>
<path d="M10.7696 2.15403H9.6923V3.2308H10.7696V2.15403Z" fill="#84D366"/>
<path d="M10.7696 1.07665H9.6923V2.15389H10.7696V1.07665Z" fill="black"/>
<path d="M9.692 25.8457H8.61516V26.923H9.692V25.8457Z" fill="black"/>
<path d="M9.692 24.7696H8.61516V25.8463H9.692V24.7696Z" fill="#468430"/>
<path d="M9.692 23.6922H8.61516V24.7694H9.692V23.6922Z" fill="#68A350"/>
<path d="M9.692 22.616H8.61516V23.6928H9.692V22.616Z" fill="#74B65F"/>
<path d="M9.692 21.5386H8.61516V22.6154H9.692V21.5386Z" fill="#74B65F"/>
<path d="M9.692 20.4615H8.61516V21.5387H9.692V20.4615Z" fill="#74B65F"/>
<path d="M9.692 19.3846H8.61516V20.4614H9.692V19.3846Z" fill="#74B65F"/>
<path d="M9.692 18.3075H8.61516V19.3847H9.692V18.3075Z" fill="#74B65F"/>
<path d="M9.692 17.2306H8.61516V18.3073H9.692V17.2306Z" fill="#74B65F"/>
<path d="M9.692 16.1539H8.61516V17.2307H9.692V16.1539Z" fill="white"/>
<path d="M9.692 15.0765H8.61516V16.1538H9.692V15.0765Z" fill="white"/>
<path d="M9.692 13.9999H8.61516V15.0766H9.692V13.9999Z" fill="white"/>
<path d="M9.692 12.9232H8.61516V14H9.692V12.9232Z" fill="white"/>
<path d="M9.692 11.8458H8.61516V12.9231H9.692V11.8458Z" fill="white"/>
<path d="M9.692 10.7692H8.61516V11.846H9.692V10.7692Z" fill="#74B65F"/>
<path d="M9.692 9.6923H8.61516V10.7695H9.692V9.6923Z" fill="#74B65F"/>
<path d="M9.692 8.61614H8.61516V9.6929H9.692V8.61614Z" fill="#74B65F"/>
<path d="M9.692 7.53875H8.61516V8.61552H9.692V7.53875Z" fill="#74B65F"/>
<path d="M9.692 6.46161H8.61516V7.53886H9.692V6.46161Z" fill="#74B65F"/>
<path d="M9.692 5.38472H8.61516V6.46149H9.692V5.38472Z" fill="#74B65F"/>
<path d="M9.692 4.30758H8.61516V5.38482H9.692V4.30758Z" fill="#74B65F"/>
<path d="M9.692 3.23068H8.61516V4.30745H9.692V3.23068Z" fill="#CBFFB0"/>
<path d="M9.692 2.15403H8.61516V3.2308H9.692V2.15403Z" fill="#84D366"/>
<path d="M9.692 1.07665H8.61516V2.15389H9.692V1.07665Z" fill="black"/>
<path d="M8.61581 24.7696H7.53851V25.8463H8.61581V24.7696Z" fill="black"/>
<path d="M8.61581 23.6922H7.53851V24.7694H8.61581V23.6922Z" fill="#468430"/>
<path d="M8.61581 22.616H7.53851V23.6928H8.61581V22.616Z" fill="#68A350"/>
<path d="M8.61581 21.5386H7.53851V22.6154H8.61581V21.5386Z" fill="#74B65F"/>
<path d="M8.61581 20.4615H7.53851V21.5387H8.61581V20.4615Z" fill="#74B65F"/>
<path d="M8.61581 19.3846H7.53851V20.4614H8.61581V19.3846Z" fill="#74B65F"/>
<path d="M8.61581 18.3075H7.53851V19.3847H8.61581V18.3075Z" fill="#74B65F"/>
<path d="M8.61581 17.2306H7.53851V18.3073H8.61581V17.2306Z" fill="#74B65F"/>
<path d="M8.61581 16.1539H7.53851V17.2307H8.61581V16.1539Z" fill="#74B65F"/>
<path d="M8.61581 15.0765H7.53851V16.1538H8.61581V15.0765Z" fill="white"/>
<path d="M8.61581 13.9999H7.53851V15.0766H8.61581V13.9999Z" fill="white"/>
<path d="M8.61581 12.9232H7.53851V14H8.61581V12.9232Z" fill="white"/>
<path d="M8.61581 11.8458H7.53851V12.9231H8.61581V11.8458Z" fill="#74B65F"/>
<path d="M8.61581 10.7692H7.53851V11.846H8.61581V10.7692Z" fill="#74B65F"/>
<path d="M8.61581 9.6923H7.53851V10.7695H8.61581V9.6923Z" fill="#74B65F"/>
<path d="M8.61581 8.61614H7.53851V9.6929H8.61581V8.61614Z" fill="#74B65F"/>
<path d="M8.61581 7.53875H7.53851V8.61552H8.61581V7.53875Z" fill="#74B65F"/>
<path d="M8.61581 6.46161H7.53851V7.53886H8.61581V6.46161Z" fill="#74B65F"/>
<path d="M8.61581 5.38472H7.53851V6.46149H8.61581V5.38472Z" fill="#74B65F"/>
<path d="M8.61581 4.30758H7.53851V5.38482H8.61581V4.30758Z" fill="#ABF48E"/>
<path d="M8.61581 3.23068H7.53851V4.30745H8.61581V3.23068Z" fill="#84D366"/>
<path d="M8.61581 2.15403H7.53851V3.2308H8.61581V2.15403Z" fill="black"/>
<path d="M7.53846 24.7696H6.46161V25.8463H7.53846V24.7696Z" fill="black"/>
<path d="M7.53846 23.6922H6.46161V24.7694H7.53846V23.6922Z" fill="#468430"/>
<path d="M7.53846 22.616H6.46161V23.6928H7.53846V22.616Z" fill="#68A350"/>
<path d="M7.53846 21.5386H6.46161V22.6154H7.53846V21.5386Z" fill="#74B65F"/>
<path d="M7.53846 20.4615H6.46161V21.5387H7.53846V20.4615Z" fill="#74B65F"/>
<path d="M7.53846 19.3846H6.46161V20.4614H7.53846V19.3846Z" fill="#74B65F"/>
<path d="M7.53846 18.3075H6.46161V19.3847H7.53846V18.3075Z" fill="#74B65F"/>
<path d="M7.53846 17.2306H6.46161V18.3073H7.53846V17.2306Z" fill="#74B65F"/>
<path d="M7.53846 16.1539H6.46161V17.2307H7.53846V16.1539Z" fill="#74B65F"/>
<path d="M7.53846 15.0765H6.46161V16.1538H7.53846V15.0765Z" fill="#74B65F"/>
<path d="M7.53846 13.9999H6.46161V15.0766H7.53846V13.9999Z" fill="white"/>
<path d="M7.53846 12.9232H6.46161V14H7.53846V12.9232Z" fill="#74B65F"/>
<path d="M7.53846 11.8458H6.46161V12.9231H7.53846V11.8458Z" fill="#74B65F"/>
<path d="M7.53846 10.7692H6.46161V11.846H7.53846V10.7692Z" fill="#74B65F"/>
<path d="M7.53846 9.6923H6.46161V10.7695H7.53846V9.6923Z" fill="#74B65F"/>
<path d="M7.53846 8.61614H6.46161V9.6929H7.53846V8.61614Z" fill="#74B65F"/>
<path d="M7.53846 7.53875H6.46161V8.61552H7.53846V7.53875Z" fill="#74B65F"/>
<path d="M7.53846 6.46161H6.46161V7.53886H7.53846V6.46161Z" fill="#74B65F"/>
<path d="M7.53846 5.38472H6.46161V6.46149H7.53846V5.38472Z" fill="#74B65F"/>
<path d="M7.53846 4.30758H6.46161V5.38482H7.53846V4.30758Z" fill="#CBFFB0"/>
<path d="M7.53846 3.23068H6.46161V4.30745H7.53846V3.23068Z" fill="#84D366"/>
<path d="M7.53846 2.15403H6.46161V3.2308H7.53846V2.15403Z" fill="black"/>
<path d="M6.46156 23.6922H5.38472V24.7694H6.46156V23.6922Z" fill="black"/>
<path d="M6.46156 22.616H5.38472V23.6928H6.46156V22.616Z" fill="#468430"/>
<path d="M6.46156 21.5386H5.38472V22.6154H6.46156V21.5386Z" fill="#68A350"/>
<path d="M6.46156 20.4615H5.38472V21.5387H6.46156V20.4615Z" fill="#74B65F"/>
<path d="M6.46156 19.3846H5.38472V20.4614H6.46156V19.3846Z" fill="#74B65F"/>
<path d="M6.46156 18.3075H5.38472V19.3847H6.46156V18.3075Z" fill="#74B65F"/>
<path d="M6.46156 17.2306H5.38472V18.3073H6.46156V17.2306Z" fill="#74B65F"/>
<path d="M6.46156 16.1539H5.38472V17.2307H6.46156V16.1539Z" fill="#74B65F"/>
<path d="M6.46156 15.0765H5.38472V16.1538H6.46156V15.0765Z" fill="#74B65F"/>
<path d="M6.46156 13.9999H5.38472V15.0766H6.46156V13.9999Z" fill="#74B65F"/>
<path d="M6.46156 12.9232H5.38472V14H6.46156V12.9232Z" fill="#74B65F"/>
<path d="M6.46156 11.8458H5.38472V12.9231H6.46156V11.8458Z" fill="#74B65F"/>
<path d="M6.46156 10.7692H5.38472V11.846H6.46156V10.7692Z" fill="#74B65F"/>
<path d="M6.46156 9.6923H5.38472V10.7695H6.46156V9.6923Z" fill="#74B65F"/>
<path d="M6.46156 8.61614H5.38472V9.6929H6.46156V8.61614Z" fill="#74B65F"/>
<path d="M6.46156 7.53875H5.38472V8.61552H6.46156V7.53875Z" fill="#74B65F"/>
<path d="M6.46156 6.46161H5.38472V7.53886H6.46156V6.46161Z" fill="#74B65F"/>
<path d="M6.46156 5.38472H5.38472V6.46149H6.46156V5.38472Z" fill="#82C66A"/>
<path d="M6.46156 4.30758H5.38472V5.38482H6.46156V4.30758Z" fill="#84D366"/>
<path d="M6.46156 3.23068H5.38472V4.30745H6.46156V3.23068Z" fill="black"/>
<path d="M5.38488 22.616H4.30758V23.6928H5.38488V22.616Z" fill="black"/>
<path d="M5.38488 21.5386H4.30758V22.6154H5.38488V21.5386Z" fill="#468430"/>
<path d="M5.38488 20.4615H4.30758V21.5387H5.38488V20.4615Z" fill="#68A350"/>
<path d="M5.38488 19.3846H4.30758V20.4614H5.38488V19.3846Z" fill="#74B65F"/>
<path d="M5.38488 18.3075H4.30758V19.3847H5.38488V18.3075Z" fill="#74B65F"/>
<path d="M5.38488 17.2306H4.30758V18.3073H5.38488V17.2306Z" fill="#74B65F"/>
<path d="M5.38488 16.1539H4.30758V17.2307H5.38488V16.1539Z" fill="#74B65F"/>
<path d="M5.38488 15.0765H4.30758V16.1538H5.38488V15.0765Z" fill="#74B65F"/>
<path d="M5.38488 13.9999H4.30758V15.0766H5.38488V13.9999Z" fill="#74B65F"/>
<path d="M5.38488 12.9232H4.30758V14H5.38488V12.9232Z" fill="#74B65F"/>
<path d="M5.38488 11.8458H4.30758V12.9231H5.38488V11.8458Z" fill="#74B65F"/>
<path d="M5.38488 10.7692H4.30758V11.846H5.38488V10.7692Z" fill="#74B65F"/>
<path d="M5.38488 9.6923H4.30758V10.7695H5.38488V9.6923Z" fill="#74B65F"/>
<path d="M5.38488 8.61614H4.30758V9.6929H5.38488V8.61614Z" fill="#74B65F"/>
<path d="M5.38488 7.53875H4.30758V8.61552H5.38488V7.53875Z" fill="#74B65F"/>
<path d="M5.38488 6.46161H4.30758V7.53886H5.38488V6.46161Z" fill="#82C66A"/>
<path d="M5.38488 5.38472H4.30758V6.46149H5.38488V5.38472Z" fill="#84D366"/>
<path d="M5.38488 4.30758H4.30758V5.38482H5.38488V4.30758Z" fill="black"/>
<path d="M4.30728 21.5386H3.23044V22.6154H4.30728V21.5386Z" fill="black"/>
<path d="M4.30728 20.4615H3.23044V21.5387H4.30728V20.4615Z" fill="#468430"/>
<path d="M4.30728 19.3846H3.23044V20.4614H4.30728V19.3846Z" fill="#68A350"/>
<path d="M4.30728 18.3075H3.23044V19.3847H4.30728V18.3075Z" fill="#74B65F"/>
<path d="M4.30728 17.2306H3.23044V18.3073H4.30728V17.2306Z" fill="#74B65F"/>
<path d="M4.30728 16.1539H3.23044V17.2307H4.30728V16.1539Z" fill="#74B65F"/>
<path d="M4.30728 15.0765H3.23044V16.1538H4.30728V15.0765Z" fill="#74B65F"/>
<path d="M4.30728 13.9999H3.23044V15.0766H4.30728V13.9999Z" fill="#74B65F"/>
<path d="M4.30728 12.9232H3.23044V14H4.30728V12.9232Z" fill="#74B65F"/>
<path d="M4.30728 11.8458H3.23044V12.9231H4.30728V11.8458Z" fill="#74B65F"/>
<path d="M4.30728 10.7692H3.23044V11.846H4.30728V10.7692Z" fill="#74B65F"/>
<path d="M4.30728 9.6923H3.23044V10.7695H4.30728V9.6923Z" fill="#74B65F"/>
<path d="M4.30728 8.61614H3.23044V9.6929H4.30728V8.61614Z" fill="#74B65F"/>
<path d="M4.30728 7.53875H3.23044V8.61552H4.30728V7.53875Z" fill="#82C66A"/>
<path d="M4.30728 6.46161H3.23044V7.53886H4.30728V6.46161Z" fill="#84D366"/>
<path d="M4.30728 5.38472H3.23044V6.46149H4.30728V5.38472Z" fill="black"/>
<path d="M3.23109 20.4615H2.15379V21.5387H3.23109V20.4615Z" fill="#201600"/>
<path d="M3.23109 19.3846H2.15379V20.4614H3.23109V19.3846Z" fill="black"/>
<path d="M3.23109 18.3075H2.15379V19.3847H3.23109V18.3075Z" fill="#68A350"/>
<path d="M3.23109 17.2306H2.15379V18.3073H3.23109V17.2306Z" fill="#74B65F"/>
<path d="M3.23109 16.1539H2.15379V17.2307H3.23109V16.1539Z" fill="#74B65F"/>
<path d="M3.23109 15.0765H2.15379V16.1538H3.23109V15.0765Z" fill="#74B65F"/>
<path d="M3.23109 13.9999H2.15379V15.0766H3.23109V13.9999Z" fill="#74B65F"/>
<path d="M3.23109 12.9232H2.15379V14H3.23109V12.9232Z" fill="#74B65F"/>
<path d="M3.23109 11.8458H2.15379V12.9231H3.23109V11.8458Z" fill="#74B65F"/>
<path d="M3.23109 10.7692H2.15379V11.846H3.23109V10.7692Z" fill="#74B65F"/>
<path d="M3.23109 9.6923H2.15379V10.7695H3.23109V9.6923Z" fill="#74B65F"/>
<path d="M3.23109 8.61614H2.15379V9.6929H3.23109V8.61614Z" fill="#82C66A"/>
<path d="M3.23109 7.53875H2.15379V8.61552H3.23109V7.53875Z" fill="black"/>
<path d="M3.23109 6.46161H2.15379V7.53886H3.23109V6.46161Z" fill="black"/>
<path d="M2.15374 18.3075H1.07689V19.3847H2.15374V18.3075Z" fill="black"/>
<path d="M2.15374 17.2306H1.07689V18.3073H2.15374V17.2306Z" fill="black"/>
<path d="M2.15374 16.1539H1.07689V17.2307H2.15374V16.1539Z" fill="black"/>
<path d="M2.15374 15.0765H1.07689V16.1538H2.15374V15.0765Z" fill="#74B65F"/>
<path d="M2.15374 13.9999H1.07689V15.0766H2.15374V13.9999Z" fill="#74B65F"/>
<path d="M2.15374 12.9232H1.07689V14H2.15374V12.9232Z" fill="#74B65F"/>
<path d="M2.15374 11.8458H1.07689V12.9231H2.15374V11.8458Z" fill="#74B65F"/>
<path d="M2.15374 10.7692H1.07689V11.846H2.15374V10.7692Z" fill="black"/>
<path d="M2.15374 9.6923H1.07689V10.7695H2.15374V9.6923Z" fill="black"/>
<path d="M2.15374 8.61614H1.07689V9.6929H2.15374V8.61614Z" fill="black"/>
<path d="M1.07684 15.0765H0V16.1538H1.07684V15.0765Z" fill="black"/>
<path d="M1.07684 13.9999H0V15.0766H1.07684V13.9999Z" fill="black"/>
<path d="M1.07684 12.9232H0V14H1.07684V12.9232Z" fill="black"/>
<path d="M1.07684 11.8458H0V12.9231H1.07684V11.8458Z" fill="black"/>
</svg>
